*
*
G04 PADS 9.5 Build Number: 522968 generated Gerber (RS-274-X) file*
G04 PC Version=2.1*
*
%IN "LK02 Main board V0.3.pc"*%
*
%MOIN*%
*
%FSLAX35Y35*%
*
*
*
*
G04 PC Standard Apertures*
*
*
G04 Thermal Relief Aperture macro.*
%AMTER*
1,1,$1,0,0*
1,0,$1-$2,0,0*
21,0,$3,$4,0,0,45*
21,0,$3,$4,0,0,135*
%
*
*
G04 Annular Aperture macro.*
%AMANN*
1,1,$1,0,0*
1,0,$2,0,0*
%
*
*
G04 Odd Aperture macro.*
%AMODD*
1,1,$1,0,0*
1,0,$1-0.005,0,0*
%
*
*
G04 PC Custom Aperture Macros*
*
*
*
*
*
*
G04 PC Aperture Table*
*
%ADD010C,0.001*%
%ADD021R,0.06299X0.1063*%
%ADD023C,0.01969*%
%ADD024C,0.01181*%
%ADD025C,0.00787*%
%ADD026C,0.0315*%
%ADD027C,0.01575*%
%ADD030C,0.01*%
%ADD031C,0.00394*%
%ADD052R,0.02X0.02*%
%ADD054R,0.036X0.036*%
%ADD055R,0.036X0.05*%
%ADD063R,0.0374X0.03543*%
%ADD064R,0.06299X0.07087*%
%ADD065C,0.04*%
%ADD073R,0.07087X0.06299*%
%ADD076R,0.06299X0.03937*%
%ADD096R,0.02362X0.00984*%
%ADD097R,0.03543X0.06299*%
%ADD099R,0.07087X0.09449*%
%ADD162R,0.03543X0.0374*%
%ADD163R,0.04724X0.01181*%
%ADD164R,0.08661X0.11811*%
%ADD165R,0.02756X0.03937*%
%ADD174R,0.03X0.038*%
%ADD175R,0.038X0.03*%
%ADD180R,0.02756X0.04724*%
%ADD188C,0.01008*%
%ADD195R,0.06299X0.15748*%
%ADD202R,0.05906X0.05906*%
%ADD203C,0.05906*%
*
*
*
*
G04 PC Circuitry*
G04 Layer Name LK02 Main board V0.3.pc - circuitry*
%LPD*%
*
*
G04 PC Custom Flashes*
G04 Layer Name LK02 Main board V0.3.pc - flashes*
%LPD*%
*
*
G04 PC Circuitry*
G04 Layer Name LK02 Main board V0.3.pc - circuitry*
%LPD*%
*
G54D10*
G01X1771749Y1800990D02*
Y1582728D01*
X1771749D02*
G75*
G03X1779624Y1574854I7875J-0D01*
G01X1960726*
G03X1968600Y1582728I-0J7874*
G01Y1801006*
G03X1961190Y1808417I-7410J0*
G01X1779176*
G03X1771749Y1800990I0J-7427*
G01X1789860Y1763830D02*
G03X1789860I-4331J0D01*
G01X1959151D02*
G03X1959151I-4331J0D01*
G01X1810450Y1671114D02*
G03X1810450I-7480J0D01*
G01X1914781Y1671035D02*
G03X1914781I-7480J0D01*
G01X1789860Y1582728D02*
G03X1789860I-4331J0D01*
G01X1959151D02*
G03X1959151I-4331J0D01*
G54D21*
G01X1931316Y1732688D03*
X1942340D03*
G54D23*
X1917953Y1611890D02*
X1917941Y1611902D01*
X1910827*
X1902786Y1619943*
Y1622827*
X1922970Y1624145D02*
Y1627373D01*
X1922852Y1627492*
Y1630630*
X1938994Y1624196D02*
Y1627058D01*
X1939112Y1627177*
Y1630405*
X1947222Y1623212D02*
X1948203Y1623965D01*
X1947222Y1625180D02*
X1949387D01*
X1952931Y1625366*
X1952970Y1623003D02*
X1949387Y1623212D01*
X1947222*
X1938994Y1624196D02*
X1948203Y1623965D01*
X1947222Y1625180*
X1822891Y1638830D02*
X1823009Y1638988D01*
X1824860Y1640838*
X1908149Y1630533D02*
X1908379Y1630630D01*
X1908442Y1633791*
X1908149Y1630533D02*
X1922852Y1630630D01*
X1815647Y1640720D02*
X1815657Y1640729D01*
Y1641399*
X1851001Y1676743*
X1824879Y1640818D02*
X1837281Y1653220D01*
X1837360*
X1856120Y1671980*
X1824879Y1640818D02*
X1824860Y1640838D01*
X1955135Y1681271D02*
X1952565Y1681334D01*
X1951987Y1681750*
X1953049Y1686114D02*
Y1691332D01*
X1952725*
X1959636Y1711372D02*
Y1706114D01*
X1958355Y1706150*
X1959730Y1706114*
Y1706794*
X1953873*
X1959730Y1706114D02*
X1958746D01*
Y1708025*
X1956782Y1711372*
X1959818Y1699567D02*
X1962025D01*
X1965608Y1699528D02*
X1965529Y1702177D01*
X1788561Y1743869D02*
X1788558Y1743872D01*
X1788558*
X1807367Y1763459D02*
Y1763853D01*
X1811295Y1767781*
X1813608*
X1821487*
Y1769498*
X1861048Y1767546D02*
Y1771460D01*
X1861065Y1771477*
X1813608Y1771381D02*
X1811418Y1773571D01*
X1807285*
Y1775828*
X1779938Y1781468D02*
Y1787573D01*
X1783199Y1790834*
X1867697*
X1871254Y1794392*
Y1794490*
X1871263Y1794498*
X1942707Y1782296D02*
Y1786647D01*
X1934887Y1794466*
X1906332Y1793567D02*
Y1794461D01*
X1906338Y1794466*
X1934887*
X1927205Y1579094D03*
X1815051Y1580838D03*
X1810247Y1583788D03*
X1815080Y1585851D03*
X1821216Y1580835D03*
X1821222Y1585777D03*
X1884173Y1585394D03*
X1894252Y1585669D03*
X1904055Y1585630D03*
X1914409Y1581496D03*
X1782143Y1597531D03*
X1787694D03*
X1793246D03*
X1804902Y1591763D03*
X1804348Y1597531D03*
X1798797D03*
X1810057Y1590799D03*
X1809899Y1597531D03*
X1809996Y1594010D03*
X1818898Y1593543D03*
X1848898Y1597323D03*
X1847953Y1594606D03*
X1875157Y1596535D03*
X1877283Y1592165D03*
X1891181Y1597520D03*
X1902677Y1597677D03*
X1898442Y1598830D03*
X1913819Y1590984D03*
X1933718Y1591547D03*
X1951092Y1598158D03*
X1956836Y1598311D03*
X1963499Y1598158D03*
X1806671Y1607728D03*
X1810844Y1606468D03*
X1817340Y1603279D03*
X1815844Y1606232D03*
X1820529Y1602413D03*
X1834899Y1603594D03*
X1847694Y1603200D03*
X1843954Y1603121D03*
X1871671Y1599342D03*
X1873324Y1607846D03*
X1885472Y1599606D03*
X1894820Y1606743D03*
X1894860Y1604263D03*
X1898425Y1605079D03*
X1933482Y1601980D03*
X1933639Y1606940D03*
X1956872Y1602094D03*
X1957066Y1607272D03*
X1954156Y1607196D03*
X1951169Y1602064D03*
X1963435Y1602149D03*
X1797143Y1612452D03*
X1806316Y1611507D03*
X1800214Y1619027D03*
X1802458Y1612649D03*
X1817029Y1617356D03*
X1819888Y1617260D03*
X1822449Y1617139D03*
X1849545Y1616271D03*
X1849646Y1612598D03*
X1863679Y1613791D03*
X1860096Y1616507D03*
X1863757D03*
X1876671Y1615011D03*
X1871946D03*
X1876671Y1618515D03*
X1874309D03*
X1871946D03*
X1874309Y1615090D03*
X1883639Y1611429D03*
X1879269Y1615011D03*
X1881395Y1618515D03*
X1879033D03*
X1881671Y1615051D03*
X1903268Y1612913D03*
X1914528Y1617677D03*
X1912165D03*
X1917953Y1611890D03*
X1946868Y1611232D03*
X1946356Y1616074D03*
X1946198Y1618515D03*
X1954093Y1613863D03*
X1951301Y1613948D03*
X1956843Y1613906D03*
X1956907Y1617413D03*
X1954212Y1617468D03*
X1951435Y1617373D03*
X1951316Y1610405D03*
X1954112D03*
X1956946Y1610444D03*
X1948836Y1617334D03*
X1959801Y1610497D03*
X1959798Y1617468D03*
X1959801Y1613949D03*
X1817115Y1622597D03*
X1817029Y1619835D03*
X1819889Y1622667D03*
X1819862Y1619835D03*
X1822503Y1619671D03*
X1822449Y1622558D03*
X1833757Y1624972D03*
X1861671Y1626035D03*
X1861395Y1622492D03*
X1864190Y1628240D03*
X1871946Y1624854D03*
X1874348D03*
X1871946Y1621901D03*
X1874309Y1621862D03*
X1876671D03*
X1876749Y1624854D03*
X1881513Y1624775D03*
X1879151Y1624854D03*
X1879033Y1621901D03*
X1881395Y1621862D03*
X1895096Y1624303D03*
X1897616Y1624263D03*
X1914370Y1620157D03*
X1952970Y1623003D03*
X1952931Y1625366D03*
X1957044Y1620441D03*
X1957202Y1623602D03*
X1959798Y1620442D03*
Y1623573D03*
X1799978Y1637885D03*
X1816631Y1636350D03*
X1810551Y1633110D03*
X1827362Y1636890D03*
X1822891Y1638830D03*
X1831789Y1631389D03*
X1829252Y1638819D03*
X1876592Y1632846D03*
X1871775Y1630915D03*
X1880608Y1632688D03*
X1895175Y1634066D03*
X1906159Y1633791D03*
X1901378Y1633819D03*
X1898622Y1634094D03*
X1906986Y1638121D03*
X1908442Y1633791D03*
X1948389Y1631580D03*
X1775529Y1648712D03*
X1780175Y1648673D03*
X1777891Y1647610D03*
X1815647Y1640720D03*
X1823206Y1649106D03*
X1819348Y1645169D03*
X1828442Y1644342D03*
X1856356D03*
X1856198Y1640995D03*
X1874938Y1641350D03*
X1878836Y1641547D03*
X1881907Y1641862D03*
X1906986Y1643240D03*
X1906946Y1640405D03*
X1911986Y1640287D03*
X1923822Y1647254D03*
X1963167Y1641783D03*
X1793778Y1652326D03*
X1793783Y1654624D03*
X1856277Y1654814D03*
X1867087Y1655039D03*
X1863783Y1657963D03*
X1869843Y1650630D03*
X1906279Y1649361D03*
X1906277Y1651429D03*
X1906228Y1653444D03*
X1908688Y1653362D03*
X1908667Y1649256D03*
X1908646Y1651330D03*
X1933251Y1654883D03*
X1943364Y1649893D03*
X1938025Y1654544D03*
X1937969Y1652242D03*
X1954653Y1654105D03*
X1952584Y1654043D03*
X1950519Y1654054D03*
X1950445Y1656152D03*
X1952583Y1656208D03*
X1954679Y1656152D03*
X1965608Y1650799D03*
X1963889Y1655332D03*
X1792143Y1665051D03*
X1829348Y1664027D03*
Y1666862D03*
X1846749Y1662452D03*
X1863386Y1667165D03*
X1878110Y1669094D03*
X1882165Y1667598D03*
X1960837Y1662557D03*
X1960749Y1665786D03*
X1786592Y1671547D03*
X1786622Y1675020D03*
X1788994Y1671468D03*
X1825647Y1673555D03*
X1855372Y1675444D03*
X1853797Y1669578D03*
X1851001Y1676743D03*
X1881671Y1672334D03*
X1878088Y1672373D03*
X1942421Y1670185D03*
X1945001Y1672378D03*
X1944970Y1670223D03*
X1947166Y1670155D03*
X1942524Y1672256D03*
X1948325Y1671903D03*
X1950046Y1670348D03*
X1960687Y1671783D03*
X1823487Y1685768D03*
X1821517Y1687290D03*
X1825822Y1685796D03*
X1891402Y1688269D03*
X1895502Y1688249D03*
X1893427Y1688179D03*
X1935529Y1682452D03*
X1935510Y1684962D03*
X1940830Y1682450D03*
X1938195Y1682487D03*
X1940830Y1685048D03*
X1938195Y1684975D03*
X1954983Y1684401D03*
X1955135Y1681271D03*
X1953049Y1686114D03*
X1826592Y1696862D03*
X1822682Y1698104D03*
X1822773Y1695523D03*
X1824860Y1695602D03*
X1824749Y1698080D03*
X1825017Y1689145D03*
X1821474Y1689224D03*
X1869663Y1695877D03*
X1870647Y1689578D03*
X1894742Y1698043D03*
X1891214Y1690270D03*
X1893436Y1690251D03*
X1898357Y1697245D03*
X1923844Y1695204D03*
X1923947Y1692839D03*
X1921505Y1692891D03*
X1921479Y1695153D03*
X1923815Y1690413D03*
X1921579Y1690457D03*
X1937548Y1691017D03*
X1952734Y1693240D03*
X1953521Y1697452D03*
X1952734Y1690484D03*
X1966316Y1689578D03*
X1895986Y1701903D03*
X1898329Y1699438D03*
X1898161Y1701747D03*
X1953600Y1699932D03*
X1953873Y1702323D03*
X1955758Y1699846D03*
X1953873Y1709056D03*
Y1704424D03*
Y1706794D03*
X1958290Y1702808D03*
Y1708679D03*
Y1705609D03*
X1959818Y1699567D03*
X1965529Y1702177D03*
X1837064Y1713633D03*
X1833561Y1711822D03*
X1846435Y1713633D03*
X1848875Y1713594D03*
X1871435Y1710759D03*
X1878009Y1716822D03*
X1896395Y1712334D03*
X1899781Y1718200D03*
X1900647Y1712295D03*
X1905017Y1712216D03*
X1915332Y1713397D03*
X1912458Y1712295D03*
X1908757Y1712216D03*
X1942634Y1713268D03*
X1944655Y1713366D03*
X1943437Y1715095D03*
X1945508Y1715217D03*
X1947607Y1715142D03*
X1953873Y1711372D03*
X1956782D03*
X1959636D03*
X1784689Y1719763D03*
X1783725Y1721591D03*
X1786974Y1719610D03*
X1785959Y1721641D03*
X1788091Y1721591D03*
X1844230Y1719893D03*
X1840572Y1728821D03*
X1848324Y1719263D03*
X1856946D03*
X1857025Y1727806D03*
X1871080Y1720247D03*
X1880726Y1726507D03*
X1893875Y1725287D03*
X1888403Y1728869D03*
X1906120Y1725680D03*
X1916986Y1725838D03*
X1910529Y1719460D03*
X1951256Y1721693D03*
X1954174Y1721765D03*
X1956624Y1721801D03*
X1948770D03*
X1965687Y1728751D03*
X1965608Y1726704D03*
X1963364Y1726743D03*
X1963403Y1728869D03*
X1959002Y1721909D03*
X1959074Y1724179D03*
X1959182Y1726197D03*
X1959218Y1728359D03*
X1795948Y1737529D03*
X1840568Y1731389D03*
X1896779Y1735695D03*
X1899978Y1733003D03*
X1910450Y1734421D03*
X1782147Y1746877D03*
X1784624Y1744539D03*
X1786300Y1747396D03*
X1789584Y1748948D03*
X1791435Y1741665D03*
X1792104Y1745484D03*
X1793521Y1743555D03*
X1795826Y1744486D03*
X1796940Y1742550D03*
X1794269Y1740995D03*
X1788561Y1743869D03*
X1798202Y1744398D03*
X1809137Y1746860D03*
X1813639Y1744814D03*
Y1742334D03*
Y1739854D03*
X1865057Y1746783D03*
X1858246Y1743869D03*
X1861474Y1743555D03*
X1883836Y1744539D03*
X1878639Y1747334D03*
X1895687Y1746783D03*
X1890568Y1744066D03*
X1906749Y1740366D03*
X1906120Y1745917D03*
X1901631Y1745287D03*
X1916789Y1740484D03*
X1909230Y1748988D03*
X1930632Y1748076D03*
X1932957Y1748060D03*
X1959918Y1744049D03*
X1787458Y1755641D03*
X1787419Y1750287D03*
X1784661Y1749653D03*
X1782258Y1750288D03*
X1783088Y1752570D03*
X1786198Y1752531D03*
X1789112Y1752570D03*
X1861435Y1750562D03*
X1868600Y1751862D03*
X1905805Y1752531D03*
X1909820Y1756429D03*
X1917419Y1757255D03*
X1914702Y1754499D03*
X1911828Y1751704D03*
X1920962Y1750759D03*
X1930637Y1751175D03*
X1931237Y1759015D03*
X1928494Y1755198D03*
X1931191Y1755206D03*
X1928494Y1759011D03*
X1960060Y1756055D03*
X1960013Y1750266D03*
X1796424Y1764689D03*
X1796277Y1761307D03*
X1869190Y1761862D03*
X1912143Y1760326D03*
X1912222Y1763594D03*
X1918324Y1764263D03*
X1928520Y1768210D03*
X1931191Y1768148D03*
X1931237Y1764843D03*
X1928442Y1764782D03*
X1786868Y1774893D03*
X1786907Y1778240D03*
X1790411Y1772334D03*
X1790450Y1775247D03*
X1790490Y1778161D03*
X1796277Y1777555D03*
Y1774320D03*
X1793639Y1769617D03*
X1796080D03*
X1798561D03*
X1811390Y1776968D03*
X1838127Y1776940D03*
X1875962Y1774578D03*
X1875647Y1770641D03*
X1907537Y1777058D03*
X1911435D03*
X1931225Y1777440D03*
X1931273Y1773690D03*
X1928520Y1777392D03*
X1928472Y1773642D03*
X1960684Y1771454D03*
X1960885Y1778278D03*
X1786868Y1781310D03*
X1779938Y1781468D03*
X1779309Y1784066D03*
X1797694Y1782728D03*
X1794309Y1782610D03*
X1790490Y1781350D03*
X1800805Y1782649D03*
X1816184Y1783868D03*
X1822646Y1781231D03*
X1824008Y1784944D03*
X1845830Y1783553D03*
X1851538Y1784380D03*
X1867916Y1781466D03*
X1876499Y1781900D03*
X1873940Y1782018D03*
X1905669Y1784052D03*
X1903578Y1780213D03*
X1901102Y1779409D03*
X1907971Y1784052D03*
X1912913Y1780354D03*
X1920594Y1779183D03*
X1938915Y1785287D03*
X1960784Y1786006D03*
X1794190Y1794854D03*
X1831932Y1794774D03*
X1865830Y1796191D03*
X1871263Y1794498D03*
X1878453Y1795826D03*
X1887849D03*
X1906332Y1793567D03*
X1960784Y1793432D03*
X1795435Y1804666D03*
X1792455Y1804553D03*
X1789292Y1804564D03*
X1789269Y1801271D03*
X1805242Y1804554D03*
X1801595Y1804623D03*
X1798635Y1804658D03*
X1813812Y1804520D03*
X1810955Y1804554D03*
X1808202Y1804451D03*
X1825983Y1804505D03*
X1825987Y1800561D03*
X1818035Y1800679D03*
X1818053Y1804505D03*
X1822037Y1804428D03*
X1822050Y1800679D03*
X1829885Y1804734D03*
X1833822D03*
Y1800640D03*
X1829924Y1800600D03*
X1854216Y1799222D03*
X1892167Y1804852D03*
X1894404D03*
X1896578Y1804854D03*
X1899042Y1804892D03*
X1901450Y1804845D03*
X1903952Y1804822D03*
X1916270Y1804830D03*
X1916299Y1801654D03*
X1912398Y1804830D03*
X1912323Y1801693D03*
X1908425Y1801614D03*
X1908407Y1804733D03*
X1920515Y1804616D03*
X1960483Y1799855D03*
X1785410Y1790307D02*
Y1791089D01*
X1782096*
X1779213Y1788207*
Y1781377*
X1780590*
Y1787037*
X1783860Y1790307*
X1785410*
X1781240Y1790234D02*
X1783786D01*
X1779469Y1788462D02*
X1782015D01*
X1779213Y1786690D02*
X1780590D01*
X1779213Y1784919D02*
X1780590D01*
X1779213Y1783147D02*
X1780590D01*
G54D24*
X1914528Y1617677D02*
X1914742D01*
Y1619393*
X1914938*
X1912165Y1617677D02*
X1913881Y1619393D01*
X1914938*
X1914370Y1620157D02*
X1917104Y1619393D01*
X1914938*
X1939112Y1633476D02*
X1946713D01*
X1948203Y1634965*
X1943289Y1649819D02*
X1943364Y1649893D01*
X1948954Y1672570D02*
Y1678620D01*
X1948965Y1678631*
X1948387Y1681750*
X1948954Y1672570D02*
X1949743Y1672352D01*
Y1672413*
X1948965Y1685109D02*
X1948985Y1685129D01*
X1962576Y1681626D02*
X1958639Y1685563D01*
Y1686895*
X1957155Y1688380*
X1956466*
X1962498Y1687373D02*
X1960017Y1689775D01*
X1959584Y1690208*
X1962498Y1687373D02*
X1962352Y1687640D01*
Y1681440D02*
X1962576Y1681626D01*
X1956466Y1694285D02*
X1957155D01*
X1958837Y1695967*
X1962025*
X1966316Y1689578D02*
Y1691901D01*
X1965923Y1692295*
X1965557*
X1961957D02*
X1959313D01*
X1959291Y1692317*
X1956466*
X1965608Y1695928D02*
X1962025D01*
Y1695967*
X1948985Y1705858D02*
X1948730Y1706114D01*
X1902379Y1718161D02*
X1910057Y1725838D01*
X1916986*
X1902379Y1718161D02*
X1899781Y1718200D01*
X1808502Y1726319D02*
X1808513Y1727959D01*
X1809048Y1728494*
X1809061Y1732551*
X1808502Y1726319D02*
X1801999D01*
X1801542Y1726777*
Y1732551*
X1795962Y1731978D02*
X1798276D01*
X1798850Y1732551*
X1801542*
X1805282D02*
Y1735504D01*
X1806840Y1737062*
X1814768*
X1817056Y1731419D02*
X1817049D01*
Y1734782*
X1814768Y1737062*
X1824536Y1731419D02*
Y1730041D01*
X1820796*
Y1731419*
Y1741655*
X1899978Y1733003D02*
X1900214D01*
Y1733043*
X1903206*
X1910647Y1740484*
X1916789*
X1931316Y1732688D02*
X1931576D01*
Y1738629*
X1929387Y1740818*
Y1740917*
X1942340Y1732688D02*
X1951553D01*
X1951594Y1734062*
X1951553Y1735149*
X1963324Y1735118D02*
Y1735149D01*
X1951553*
X1796014Y1748431D02*
X1796042D01*
Y1750398*
X1805282Y1743456D02*
Y1748022D01*
X1802906Y1750398*
X1802506*
X1824536Y1741655D02*
Y1740277D01*
X1820796*
Y1741655*
X1824536D02*
Y1744603D01*
X1821487Y1747652*
Y1753356*
X1787458Y1755641D02*
X1792215D01*
X1792463Y1755889*
X1796042Y1752110D02*
Y1750398D01*
X1802506*
X1796042Y1752110D02*
Y1755889D01*
X1796063*
X1802506Y1750398D02*
X1803519D01*
Y1755701*
X1807119D02*
X1807367Y1755949D01*
Y1763459*
X1808706Y1750398D02*
Y1754114D01*
X1807119Y1755701*
X1940278Y1757125D02*
X1940254Y1759865D01*
X1945687Y1763465D02*
Y1763844D01*
X1946066*
X1943994Y1765917*
X1940387Y1766227*
X1940254Y1768762D02*
X1945726D01*
X1940254Y1759865D02*
X1945687D01*
X1940387Y1766227D02*
X1940254Y1768762D01*
X1945726Y1772756D02*
Y1773018D01*
X1945987*
X1943915Y1775090*
X1940295Y1775491*
X1940175Y1780059*
X1853689Y1784353D02*
X1851527D01*
X1851538Y1784380*
X1857315Y1779477D02*
Y1784327D01*
X1857289Y1784353*
X1929418Y1782203D02*
X1931934D01*
X1929392Y1782177D02*
X1931367D01*
Y1782216*
X1929418Y1782203D02*
X1929392Y1782177D01*
X1928106*
Y1785839*
X1928045Y1786081*
X1934967Y1782216D02*
Y1782452D01*
X1938965*
X1928256Y1782112D02*
Y1782203D01*
X1929418*
X1938769Y1782452D02*
X1938965D01*
X1938915*
Y1785287*
X1940175Y1780059D02*
X1940186Y1780070D01*
Y1780838*
X1938769Y1782256*
Y1782452*
X1854216Y1799222D02*
X1919444D01*
X1920502Y1800281*
Y1804609*
X1920509Y1804616*
X1920515*
G54D25*
X1884173Y1585394D02*
Y1587063D01*
X1883170Y1588066*
X1854493*
X1847953Y1594606*
X1894252Y1585669D02*
Y1587700D01*
X1892311Y1589641*
X1856580*
X1848898Y1597323*
X1904055Y1585630D02*
X1904048Y1585623D01*
Y1586381*
X1897510Y1592919*
X1880152*
X1876535Y1596535*
X1875157*
X1913819Y1590984D02*
X1914381Y1591547D01*
X1933718*
X1871671Y1599342D02*
Y1599486D01*
X1874165Y1601980*
X1874165D02*
X1933482D01*
X1873324Y1607846D02*
Y1608142D01*
X1874257Y1609075*
X1906280*
X1933639Y1606940D02*
X1931617Y1604918D01*
X1910437*
X1906280Y1609075*
X1929481Y1606553D02*
X1935852Y1612925D01*
X1945490*
X1929481Y1606553D02*
X1911029D01*
X1904668Y1612913*
X1903268*
X1806454Y1611369D02*
X1807058Y1611974D01*
Y1612037*
X1808418Y1613397*
X1846671*
X1849545Y1616271*
X1806454Y1611369D02*
X1806316Y1611507D01*
X1830576Y1610012D02*
X1832370D01*
X1849646Y1612598D02*
X1850157Y1613109D01*
X1850621*
X1946868Y1611232D02*
Y1611547D01*
X1945490Y1612925*
X1861671Y1626035D02*
X1854138Y1633567D01*
X1813129*
X1861395Y1622492D02*
X1852498Y1631389D01*
X1831789*
X1864190Y1628240D02*
Y1630562D01*
X1860962Y1633791*
Y1722531*
X1816631Y1636350D02*
Y1636704D01*
X1855372Y1675444*
X1867087Y1655039D02*
Y1661398D01*
X1868392Y1662704*
Y1670484*
X1863783Y1657963D02*
Y1662410D01*
X1865551Y1664179*
Y1669580*
X1863192Y1666969D02*
X1863228D01*
X1863249Y1667179*
X1863192Y1666969D02*
Y1722438D01*
X1871828Y1731074*
X1863386Y1667165D02*
X1863249Y1667179D01*
X1865551Y1669580D02*
X1865543Y1669588D01*
Y1721832*
X1868392Y1670484D02*
X1867118Y1671758D01*
Y1720450*
X1952931Y1691127D02*
X1952725Y1691332D01*
X1948985Y1692317D02*
X1946760D01*
X1941286Y1697790*
X1937612*
X1937601Y1697802*
X1948985Y1690348D02*
X1940822D01*
X1939583Y1691587*
X1937615*
X1937601Y1691602*
X1948985Y1690348D02*
X1952931D01*
Y1691127*
X1959584Y1690208D02*
X1959444Y1690348D01*
X1956466*
X1867118Y1720450D02*
X1875601Y1728932D01*
Y1766260*
X1865543Y1721832D02*
X1873403Y1729692D01*
Y1760711*
X1860962Y1722531D02*
X1868088Y1729657D01*
Y1729736*
X1870253Y1731901*
Y1750208*
X1871828Y1731074D02*
Y1752969D01*
X1862101Y1762697*
X1856067*
X1833820Y1784944*
X1824008*
X1938209Y1748638D02*
X1939067Y1752008D01*
X1939067D02*
X1939628Y1752570D01*
X1939703*
X1940254Y1753121*
X1940278Y1757125*
X1870253Y1750208D02*
X1868600Y1751862D01*
X1925647Y1750759D02*
X1922911D01*
X1922911*
X1920962*
X1875601Y1766260D02*
X1867769Y1774091D01*
Y1781232*
X1867680Y1781321*
Y1781466*
X1873403Y1760711D02*
X1866568Y1767546D01*
X1864648*
X1867680Y1781466D02*
X1867916D01*
X1920594Y1779183D02*
X1920647Y1779814D01*
Y1783677*
X1923051Y1786081*
X1924445*
G54D26*
X1960749Y1665786D02*
X1960767Y1672352D01*
X1807285Y1775828D02*
Y1776968D01*
X1811390*
X1810972Y1776550D02*
X1811390Y1776968D01*
X1816167Y1781744*
Y1783853*
X1816182Y1783868*
X1816184*
G54D27*
X1853565Y1771477D02*
X1845825Y1779217D01*
Y1781159*
X1845830Y1783553*
G54D30*
X1825964Y1607848D02*
X1828128Y1610012D01*
X1830576*
X1820529Y1602413D02*
X1825964Y1607848D01*
X1832370Y1610012D02*
X1837056D01*
X1867311*
X1868727Y1611429*
X1883639*
X1810551Y1633110D02*
X1811008Y1633567D01*
X1813129*
G54D31*
X1950175Y1625877D02*
X1943836D01*
Y1631074*
X1937104*
Y1622413*
X1950175*
Y1625877*
X1944752Y1668753D02*
Y1688438D01*
X1949476*
Y1677021*
X1952232*
Y1668753*
X1944752*
X1964742Y1737806D02*
Y1733948D01*
X1954904*
Y1731074*
X1946120*
Y1727492*
X1939348*
Y1737806*
X1964742*
X1939072Y1744066D02*
X1927773D01*
Y1727570*
X1934309*
Y1740720*
X1939072*
Y1744066*
X1937340Y1748200D02*
Y1760405D01*
X1946474*
Y1758318*
X1943246*
Y1753594*
X1940883*
Y1748200*
X1937340*
X1947143Y1762570D02*
X1937419D01*
Y1769224*
X1947143*
Y1762570*
Y1771783D02*
X1937261D01*
Y1780917*
X1934614*
Y1786074*
X1939938*
Y1780086*
X1940606Y1778515*
X1943127*
Y1774421*
X1947143*
Y1771783*
X1949737Y1694358D02*
Y1703121D01*
X1950231*
Y1709106*
X1948246*
Y1715484*
X1944781*
Y1711310*
X1946946*
Y1703161*
X1947970*
Y1694358*
X1949737*
X1958324Y1732137D02*
Y1723572D01*
X1946474*
Y1720208*
X1960175*
Y1732137*
X1958324*
X1923009Y1783358D02*
Y1781389D01*
X1923875*
Y1757216*
X1920950*
Y1754775*
X1926277*
Y1754758*
X1929860*
Y1747137*
X1934702*
Y1753369*
X1932222*
Y1778436*
X1925765*
Y1780363*
X1925017Y1781111*
Y1783358*
X1923009*
X1951590Y1678792D02*
X1956277D01*
Y1686146*
X1953655*
Y1695641*
X1954134*
X1957283Y1698791*
X1962931*
Y1712137*
X1951810*
Y1694421*
X1951590*
Y1678792*
X1907180Y1635208D02*
X1918246D01*
Y1629539*
X1900135*
Y1635247*
X1907219*
X1907180Y1635208*
X1925962Y1776743D02*
X1920881D01*
Y1754854*
X1925962*
Y1776743*
X1962266Y1732327D02*
X1967394D01*
Y1725759*
X1962266*
Y1732327*
X1941236Y1676666D02*
X1952689D01*
Y1668701*
X1941236*
Y1676666*
X1954854Y1680477D02*
Y1675238D01*
X1963549*
Y1676214*
X1957736*
Y1680477*
X1954854*
X1935161Y1631310D02*
X1918055D01*
Y1628124*
X1920214*
Y1623152*
X1935161*
Y1631310*
X1817314Y1739049D02*
X1812473D01*
Y1745653*
X1817314*
Y1739049*
X1802143Y1745636D02*
X1793046D01*
Y1753114*
X1782576*
X1780500Y1751038*
Y1737626*
X1793353*
X1793324Y1742199*
X1795511Y1741318*
X1802143*
Y1745636*
X1785574Y1783643D02*
X1802292D01*
Y1781101*
X1799835*
Y1759787*
X1793012*
Y1768382*
X1787589Y1773805*
X1785574*
Y1783643*
X1795126Y1742110D02*
Y1739963D01*
X1788770*
Y1742110*
X1795126*
X1950280Y1702787D02*
X1941729D01*
Y1716033*
X1948511*
Y1709501*
X1950280*
Y1702787*
X1820256Y1729691D02*
Y1748868D01*
X1817817*
Y1758114*
X1826792*
Y1729691*
X1820256*
X1825912Y1704979D02*
X1817138D01*
Y1720696*
X1820292*
Y1734145*
X1825912*
Y1704979*
X1781128Y1780663D02*
X1778436D01*
Y1787843*
X1779437Y1788845*
X1781128Y1787154*
Y1780663*
X1810314Y1704945D02*
X1790999D01*
Y1711244*
X1779694Y1722549*
Y1733317*
X1802642*
Y1727110*
X1810314*
Y1704945*
X1810320Y1727660D02*
Y1734672D01*
X1807900*
Y1727660*
X1810320*
X1814516Y1770611D02*
X1804280D01*
Y1779268*
X1814516*
Y1770611*
X1937104Y1625600D02*
X1950175D01*
X1937104Y1625246D02*
X1950175D01*
X1937104Y1624892D02*
X1950175D01*
X1937104Y1624537D02*
X1950175D01*
X1937104Y1624183D02*
X1950175D01*
X1937104Y1623829D02*
X1950175D01*
X1937104Y1623474D02*
X1950175D01*
X1937104Y1623120D02*
X1950175D01*
X1937104Y1622766D02*
X1950175D01*
X1937104Y1630915D02*
X1943836D01*
X1937104Y1630561D02*
X1943836D01*
X1937104Y1630207D02*
X1943836D01*
X1937104Y1629852D02*
X1943836D01*
X1937104Y1629498D02*
X1943836D01*
X1937104Y1629144D02*
X1943836D01*
X1937104Y1628789D02*
X1943836D01*
X1937104Y1628435D02*
X1943836D01*
X1937104Y1628081D02*
X1943836D01*
X1937104Y1627726D02*
X1943836D01*
X1937104Y1627372D02*
X1943836D01*
X1937104Y1627018D02*
X1943836D01*
X1937104Y1626663D02*
X1943836D01*
X1937104Y1626309D02*
X1943836D01*
X1937104Y1625955D02*
X1943836D01*
X1944752Y1676901D02*
X1952232D01*
X1944752Y1676547D02*
X1952232D01*
X1944752Y1676193D02*
X1952232D01*
X1944752Y1675838D02*
X1952232D01*
X1944752Y1675484D02*
X1952232D01*
X1944752Y1675130D02*
X1952232D01*
X1944752Y1674775D02*
X1952232D01*
X1944752Y1674421D02*
X1952232D01*
X1944752Y1674067D02*
X1952232D01*
X1944752Y1673712D02*
X1952232D01*
X1944752Y1673358D02*
X1952232D01*
X1944752Y1673004D02*
X1952232D01*
X1944752Y1672649D02*
X1952232D01*
X1944752Y1672295D02*
X1952232D01*
X1944752Y1671941D02*
X1952232D01*
X1944752Y1671586D02*
X1952232D01*
X1944752Y1671232D02*
X1952232D01*
X1944752Y1670878D02*
X1952232D01*
X1944752Y1670523D02*
X1952232D01*
X1944752Y1670169D02*
X1952232D01*
X1944752Y1669815D02*
X1952232D01*
X1944752Y1669460D02*
X1952232D01*
X1944752Y1669106D02*
X1952232D01*
X1944752Y1688240D02*
X1949476D01*
X1944752Y1687885D02*
X1949476D01*
X1944752Y1687531D02*
X1949476D01*
X1944752Y1687177D02*
X1949476D01*
X1944752Y1686822D02*
X1949476D01*
X1944752Y1686468D02*
X1949476D01*
X1944752Y1686114D02*
X1949476D01*
X1944752Y1685759D02*
X1949476D01*
X1944752Y1685405D02*
X1949476D01*
X1944752Y1685051D02*
X1949476D01*
X1944752Y1684696D02*
X1949476D01*
X1944752Y1684342D02*
X1949476D01*
X1944752Y1683988D02*
X1949476D01*
X1944752Y1683634D02*
X1949476D01*
X1944752Y1683279D02*
X1949476D01*
X1944752Y1682925D02*
X1949476D01*
X1944752Y1682571D02*
X1949476D01*
X1944752Y1682216D02*
X1949476D01*
X1944752Y1681862D02*
X1949476D01*
X1944752Y1681508D02*
X1949476D01*
X1944752Y1681153D02*
X1949476D01*
X1944752Y1680799D02*
X1949476D01*
X1944752Y1680445D02*
X1949476D01*
X1944752Y1680090D02*
X1949476D01*
X1944752Y1679736D02*
X1949476D01*
X1944752Y1679382D02*
X1949476D01*
X1944752Y1679027D02*
X1949476D01*
X1944752Y1678673D02*
X1949476D01*
X1944752Y1678319D02*
X1949476D01*
X1944752Y1677964D02*
X1949476D01*
X1944752Y1677610D02*
X1949476D01*
X1944752Y1677256D02*
X1949476D01*
X1939348Y1737766D02*
X1964742D01*
X1939348Y1737411D02*
X1964742D01*
X1939348Y1737057D02*
X1964742D01*
X1939348Y1736703D02*
X1964742D01*
X1939348Y1736348D02*
X1964742D01*
X1939348Y1735994D02*
X1964742D01*
X1939348Y1735640D02*
X1964742D01*
X1939348Y1735285D02*
X1964742D01*
X1939348Y1734931D02*
X1964742D01*
X1939348Y1734577D02*
X1964742D01*
X1939348Y1734222D02*
X1964742D01*
X1939348Y1733868D02*
X1954904D01*
X1939348Y1733514D02*
X1954904D01*
X1939348Y1733159D02*
X1954904D01*
X1939348Y1732805D02*
X1954904D01*
X1939348Y1732451D02*
X1954904D01*
X1939348Y1732097D02*
X1954904D01*
X1939348Y1731742D02*
X1954904D01*
X1939348Y1731388D02*
X1954904D01*
X1939348Y1731034D02*
X1946120D01*
X1939348Y1730679D02*
X1946120D01*
X1939348Y1730325D02*
X1946120D01*
X1939348Y1729971D02*
X1946120D01*
X1939348Y1729616D02*
X1946120D01*
X1939348Y1729262D02*
X1946120D01*
X1939348Y1728908D02*
X1946120D01*
X1939348Y1728553D02*
X1946120D01*
X1939348Y1728199D02*
X1946120D01*
X1939348Y1727845D02*
X1946120D01*
X1927773Y1743868D02*
X1939072D01*
X1927773Y1743514D02*
X1939072D01*
X1927773Y1743159D02*
X1939072D01*
X1927773Y1742805D02*
X1939072D01*
X1927773Y1742451D02*
X1939072D01*
X1927773Y1742097D02*
X1939072D01*
X1927773Y1741742D02*
X1939072D01*
X1927773Y1741388D02*
X1939072D01*
X1927773Y1741034D02*
X1939072D01*
X1927773Y1740679D02*
X1934309D01*
X1927773Y1740325D02*
X1934309D01*
X1927773Y1739971D02*
X1934309D01*
X1927773Y1739616D02*
X1934309D01*
X1927773Y1739262D02*
X1934309D01*
X1927773Y1738908D02*
X1934309D01*
X1927773Y1738553D02*
X1934309D01*
X1927773Y1738199D02*
X1934309D01*
X1927773Y1737845D02*
X1934309D01*
X1927773Y1737490D02*
X1934309D01*
X1927773Y1737136D02*
X1934309D01*
X1927773Y1736782D02*
X1934309D01*
X1927773Y1736427D02*
X1934309D01*
X1927773Y1736073D02*
X1934309D01*
X1927773Y1735719D02*
X1934309D01*
X1927773Y1735364D02*
X1934309D01*
X1927773Y1735010D02*
X1934309D01*
X1927773Y1734656D02*
X1934309D01*
X1927773Y1734301D02*
X1934309D01*
X1927773Y1733947D02*
X1934309D01*
X1927773Y1733593D02*
X1934309D01*
X1927773Y1733238D02*
X1934309D01*
X1927773Y1732884D02*
X1934309D01*
X1927773Y1732530D02*
X1934309D01*
X1927773Y1732175D02*
X1934309D01*
X1927773Y1731821D02*
X1934309D01*
X1927773Y1731467D02*
X1934309D01*
X1927773Y1731112D02*
X1934309D01*
X1927773Y1730758D02*
X1934309D01*
X1927773Y1730404D02*
X1934309D01*
X1927773Y1730049D02*
X1934309D01*
X1927773Y1729695D02*
X1934309D01*
X1927773Y1729341D02*
X1934309D01*
X1927773Y1728986D02*
X1934309D01*
X1927773Y1728632D02*
X1934309D01*
X1927773Y1728278D02*
X1934309D01*
X1927773Y1727923D02*
X1934309D01*
X1937340Y1760246D02*
X1946474D01*
X1937340Y1759892D02*
X1946474D01*
X1937340Y1759537D02*
X1946474D01*
X1937340Y1759183D02*
X1946474D01*
X1937340Y1758829D02*
X1946474D01*
X1937340Y1758474D02*
X1946474D01*
X1937340Y1758120D02*
X1943246D01*
X1937340Y1757766D02*
X1943246D01*
X1937340Y1757411D02*
X1943246D01*
X1937340Y1757057D02*
X1943246D01*
X1937340Y1756703D02*
X1943246D01*
X1937340Y1756348D02*
X1943246D01*
X1937340Y1755994D02*
X1943246D01*
X1937340Y1755640D02*
X1943246D01*
X1937340Y1755285D02*
X1943246D01*
X1937340Y1754931D02*
X1943246D01*
X1937340Y1754577D02*
X1943246D01*
X1937340Y1754222D02*
X1943246D01*
X1937340Y1753868D02*
X1943246D01*
X1937340Y1753514D02*
X1940883D01*
X1937340Y1753159D02*
X1940883D01*
X1937340Y1752805D02*
X1940883D01*
X1937340Y1752451D02*
X1940883D01*
X1937340Y1752097D02*
X1940883D01*
X1937340Y1751742D02*
X1940883D01*
X1937340Y1751388D02*
X1940883D01*
X1937340Y1751034D02*
X1940883D01*
X1937340Y1750679D02*
X1940883D01*
X1937340Y1750325D02*
X1940883D01*
X1937340Y1749971D02*
X1940883D01*
X1937340Y1749616D02*
X1940883D01*
X1937340Y1749262D02*
X1940883D01*
X1937340Y1748908D02*
X1940883D01*
X1937340Y1748553D02*
X1940883D01*
X1937419Y1768947D02*
X1947143D01*
X1937419Y1768593D02*
X1947143D01*
X1937419Y1768238D02*
X1947143D01*
X1937419Y1767884D02*
X1947143D01*
X1937419Y1767530D02*
X1947143D01*
X1937419Y1767175D02*
X1947143D01*
X1937419Y1766821D02*
X1947143D01*
X1937419Y1766467D02*
X1947143D01*
X1937419Y1766112D02*
X1947143D01*
X1937419Y1765758D02*
X1947143D01*
X1937419Y1765404D02*
X1947143D01*
X1937419Y1765049D02*
X1947143D01*
X1937419Y1764695D02*
X1947143D01*
X1937419Y1764341D02*
X1947143D01*
X1937419Y1763986D02*
X1947143D01*
X1937419Y1763632D02*
X1947143D01*
X1937419Y1763278D02*
X1947143D01*
X1937419Y1762923D02*
X1947143D01*
X1937261Y1774262D02*
X1947143D01*
X1937261Y1773908D02*
X1947143D01*
X1937261Y1773553D02*
X1947143D01*
X1937261Y1773199D02*
X1947143D01*
X1937261Y1772845D02*
X1947143D01*
X1937261Y1772490D02*
X1947143D01*
X1937261Y1772136D02*
X1947143D01*
X1937261Y1778514D02*
X1943127D01*
X1937261Y1778159D02*
X1943127D01*
X1937261Y1777805D02*
X1943127D01*
X1937261Y1777451D02*
X1943127D01*
X1937261Y1777097D02*
X1943127D01*
X1937261Y1776742D02*
X1943127D01*
X1937261Y1776388D02*
X1943127D01*
X1937261Y1776034D02*
X1943127D01*
X1937261Y1775679D02*
X1943127D01*
X1937261Y1775325D02*
X1943127D01*
X1937261Y1774971D02*
X1943127D01*
X1937261Y1774616D02*
X1943127D01*
X1937261Y1778868D02*
X1940456D01*
X1937261Y1779222D02*
X1940305D01*
X1937261Y1779577D02*
X1940155D01*
X1937261Y1779931D02*
X1940004D01*
X1934614Y1785955D02*
X1939938D01*
X1934614Y1785600D02*
X1939938D01*
X1934614Y1785246D02*
X1939938D01*
X1934614Y1784892D02*
X1939938D01*
X1934614Y1784537D02*
X1939938D01*
X1934614Y1784183D02*
X1939938D01*
X1934614Y1783829D02*
X1939938D01*
X1934614Y1783474D02*
X1939938D01*
X1934614Y1783120D02*
X1939938D01*
X1934614Y1782766D02*
X1939938D01*
X1934614Y1782411D02*
X1939938D01*
X1934614Y1782057D02*
X1939938D01*
X1934614Y1781703D02*
X1939938D01*
X1934614Y1781348D02*
X1939938D01*
X1934614Y1780994D02*
X1939938D01*
X1937261Y1780640D02*
X1939938D01*
X1937261Y1780285D02*
X1939938D01*
X1946946Y1708884D02*
X1950231D01*
X1946946Y1708530D02*
X1950231D01*
X1946946Y1708175D02*
X1950231D01*
X1946946Y1707821D02*
X1950231D01*
X1946946Y1707467D02*
X1950231D01*
X1946946Y1707112D02*
X1950231D01*
X1946946Y1706758D02*
X1950231D01*
X1946946Y1706404D02*
X1950231D01*
X1946946Y1706049D02*
X1950231D01*
X1946946Y1705695D02*
X1950231D01*
X1946946Y1705341D02*
X1950231D01*
X1946946Y1704986D02*
X1950231D01*
X1946946Y1704632D02*
X1950231D01*
X1946946Y1704278D02*
X1950231D01*
X1946946Y1703923D02*
X1950231D01*
X1946946Y1703569D02*
X1950231D01*
X1946946Y1703215D02*
X1950231D01*
X1947970Y1702860D02*
X1949737D01*
X1947970Y1702506D02*
X1949737D01*
X1947970Y1702152D02*
X1949737D01*
X1947970Y1701797D02*
X1949737D01*
X1947970Y1701443D02*
X1949737D01*
X1947970Y1701089D02*
X1949737D01*
X1947970Y1700734D02*
X1949737D01*
X1947970Y1700380D02*
X1949737D01*
X1947970Y1700026D02*
X1949737D01*
X1947970Y1699672D02*
X1949737D01*
X1947970Y1699317D02*
X1949737D01*
X1947970Y1698963D02*
X1949737D01*
X1947970Y1698609D02*
X1949737D01*
X1947970Y1698254D02*
X1949737D01*
X1947970Y1697900D02*
X1949737D01*
X1947970Y1697546D02*
X1949737D01*
X1947970Y1697191D02*
X1949737D01*
X1947970Y1696837D02*
X1949737D01*
X1947970Y1696483D02*
X1949737D01*
X1947970Y1696128D02*
X1949737D01*
X1947970Y1695774D02*
X1949737D01*
X1947970Y1695420D02*
X1949737D01*
X1947970Y1695065D02*
X1949737D01*
X1947970Y1694711D02*
X1949737D01*
X1944781Y1715262D02*
X1948246D01*
X1944781Y1714908D02*
X1948246D01*
X1944781Y1714553D02*
X1948246D01*
X1944781Y1714199D02*
X1948246D01*
X1944781Y1713845D02*
X1948246D01*
X1944781Y1713490D02*
X1948246D01*
X1944781Y1713136D02*
X1948246D01*
X1944781Y1712782D02*
X1948246D01*
X1944781Y1712427D02*
X1948246D01*
X1944781Y1712073D02*
X1948246D01*
X1944781Y1711719D02*
X1948246D01*
X1944781Y1711364D02*
X1948246D01*
X1946946Y1711010D02*
X1948246D01*
X1946946Y1710656D02*
X1948246D01*
X1946946Y1710301D02*
X1948246D01*
X1946946Y1709947D02*
X1948246D01*
X1946946Y1709593D02*
X1948246D01*
X1946946Y1709238D02*
X1948246D01*
X1958324Y1731900D02*
X1960175D01*
X1958324Y1731545D02*
X1960175D01*
X1958324Y1731191D02*
X1960175D01*
X1958324Y1730837D02*
X1960175D01*
X1958324Y1730482D02*
X1960175D01*
X1958324Y1730128D02*
X1960175D01*
X1958324Y1729774D02*
X1960175D01*
X1958324Y1729419D02*
X1960175D01*
X1958324Y1729065D02*
X1960175D01*
X1958324Y1728711D02*
X1960175D01*
X1958324Y1728356D02*
X1960175D01*
X1958324Y1728002D02*
X1960175D01*
X1958324Y1727648D02*
X1960175D01*
X1958324Y1727293D02*
X1960175D01*
X1958324Y1726939D02*
X1960175D01*
X1958324Y1726585D02*
X1960175D01*
X1958324Y1726230D02*
X1960175D01*
X1958324Y1725876D02*
X1960175D01*
X1958324Y1725522D02*
X1960175D01*
X1958324Y1725167D02*
X1960175D01*
X1958324Y1724813D02*
X1960175D01*
X1958324Y1724459D02*
X1960175D01*
X1958324Y1724104D02*
X1960175D01*
X1958324Y1723750D02*
X1960175D01*
X1946474Y1723396D02*
X1960175D01*
X1946474Y1723041D02*
X1960175D01*
X1946474Y1722687D02*
X1960175D01*
X1946474Y1722333D02*
X1960175D01*
X1946474Y1721978D02*
X1960175D01*
X1946474Y1721624D02*
X1960175D01*
X1946474Y1721270D02*
X1960175D01*
X1946474Y1720915D02*
X1960175D01*
X1946474Y1720561D02*
X1960175D01*
X1929860Y1753159D02*
X1934702D01*
X1929860Y1752805D02*
X1934702D01*
X1929860Y1752451D02*
X1934702D01*
X1929860Y1752097D02*
X1934702D01*
X1929860Y1751742D02*
X1934702D01*
X1929860Y1751388D02*
X1934702D01*
X1929860Y1751034D02*
X1934702D01*
X1929860Y1750679D02*
X1934702D01*
X1929860Y1750325D02*
X1934702D01*
X1929860Y1749971D02*
X1934702D01*
X1929860Y1749616D02*
X1934702D01*
X1929860Y1749262D02*
X1934702D01*
X1929860Y1748908D02*
X1934702D01*
X1929860Y1748553D02*
X1934702D01*
X1929860Y1748199D02*
X1934702D01*
X1929860Y1747845D02*
X1934702D01*
X1929860Y1747490D02*
X1934702D01*
X1923875Y1778317D02*
X1932222D01*
X1923875Y1777963D02*
X1932222D01*
X1923875Y1777608D02*
X1932222D01*
X1923875Y1777254D02*
X1932222D01*
X1923875Y1776900D02*
X1932222D01*
X1923875Y1776545D02*
X1932222D01*
X1923875Y1776191D02*
X1932222D01*
X1923875Y1775837D02*
X1932222D01*
X1923875Y1775482D02*
X1932222D01*
X1923875Y1775128D02*
X1932222D01*
X1923875Y1774774D02*
X1932222D01*
X1923875Y1774419D02*
X1932222D01*
X1923875Y1774065D02*
X1932222D01*
X1923875Y1773711D02*
X1932222D01*
X1923875Y1773356D02*
X1932222D01*
X1923875Y1773002D02*
X1932222D01*
X1923875Y1772648D02*
X1932222D01*
X1923875Y1772293D02*
X1932222D01*
X1923875Y1771939D02*
X1932222D01*
X1923875Y1771585D02*
X1932222D01*
X1923875Y1771230D02*
X1932222D01*
X1923875Y1770876D02*
X1932222D01*
X1923875Y1770522D02*
X1932222D01*
X1923875Y1770167D02*
X1932222D01*
X1923875Y1769813D02*
X1932222D01*
X1923875Y1769459D02*
X1932222D01*
X1923875Y1769104D02*
X1932222D01*
X1923875Y1768750D02*
X1932222D01*
X1923875Y1768396D02*
X1932222D01*
X1923875Y1768041D02*
X1932222D01*
X1923875Y1767687D02*
X1932222D01*
X1923875Y1767333D02*
X1932222D01*
X1923875Y1766978D02*
X1932222D01*
X1923875Y1766624D02*
X1932222D01*
X1923875Y1766270D02*
X1932222D01*
X1923875Y1765915D02*
X1932222D01*
X1923875Y1765561D02*
X1932222D01*
X1923875Y1765207D02*
X1932222D01*
X1923875Y1764852D02*
X1932222D01*
X1923875Y1764498D02*
X1932222D01*
X1923875Y1764144D02*
X1932222D01*
X1923875Y1763789D02*
X1932222D01*
X1923875Y1763435D02*
X1932222D01*
X1923875Y1763081D02*
X1932222D01*
X1923875Y1762726D02*
X1932222D01*
X1923875Y1762372D02*
X1932222D01*
X1923875Y1762018D02*
X1932222D01*
X1923875Y1761663D02*
X1932222D01*
X1923875Y1761309D02*
X1932222D01*
X1923875Y1760955D02*
X1932222D01*
X1923875Y1760600D02*
X1932222D01*
X1923875Y1760246D02*
X1932222D01*
X1923875Y1759892D02*
X1932222D01*
X1923875Y1759537D02*
X1932222D01*
X1923875Y1759183D02*
X1932222D01*
X1923875Y1758829D02*
X1932222D01*
X1923875Y1758474D02*
X1932222D01*
X1923875Y1758120D02*
X1932222D01*
X1923875Y1757766D02*
X1932222D01*
X1923875Y1757411D02*
X1932222D01*
X1920950Y1757057D02*
X1932222D01*
X1920950Y1756703D02*
X1932222D01*
X1920950Y1756348D02*
X1932222D01*
X1920950Y1755994D02*
X1932222D01*
X1920950Y1755640D02*
X1932222D01*
X1920950Y1755285D02*
X1932222D01*
X1920950Y1754931D02*
X1932222D01*
X1929860Y1754577D02*
X1932222D01*
X1929860Y1754222D02*
X1932222D01*
X1929860Y1753868D02*
X1932222D01*
X1929860Y1753514D02*
X1932222D01*
X1923875Y1780089D02*
X1925765D01*
X1923875Y1779734D02*
X1925765D01*
X1923875Y1779380D02*
X1925765D01*
X1923875Y1779026D02*
X1925765D01*
X1923875Y1778671D02*
X1925765D01*
X1923875Y1780443D02*
X1925685D01*
X1923875Y1780797D02*
X1925331D01*
X1923009Y1783278D02*
X1925017D01*
X1923009Y1782923D02*
X1925017D01*
X1923009Y1782569D02*
X1925017D01*
X1923009Y1782215D02*
X1925017D01*
X1923009Y1781860D02*
X1925017D01*
X1923009Y1781506D02*
X1925017D01*
X1923875Y1781152D02*
X1925017D01*
X1951810Y1712098D02*
X1962931D01*
X1951810Y1711744D02*
X1962931D01*
X1951810Y1711389D02*
X1962931D01*
X1951810Y1711035D02*
X1962931D01*
X1951810Y1710681D02*
X1962931D01*
X1951810Y1710326D02*
X1962931D01*
X1951810Y1709972D02*
X1962931D01*
X1951810Y1709618D02*
X1962931D01*
X1951810Y1709263D02*
X1962931D01*
X1951810Y1708909D02*
X1962931D01*
X1951810Y1708555D02*
X1962931D01*
X1951810Y1708200D02*
X1962931D01*
X1951810Y1707846D02*
X1962931D01*
X1951810Y1707492D02*
X1962931D01*
X1951810Y1707137D02*
X1962931D01*
X1951810Y1706783D02*
X1962931D01*
X1951810Y1706429D02*
X1962931D01*
X1951810Y1706074D02*
X1962931D01*
X1951810Y1705720D02*
X1962931D01*
X1951810Y1705366D02*
X1962931D01*
X1951810Y1705011D02*
X1962931D01*
X1951810Y1704657D02*
X1962931D01*
X1951810Y1704303D02*
X1962931D01*
X1951810Y1703948D02*
X1962931D01*
X1951810Y1703594D02*
X1962931D01*
X1951810Y1703240D02*
X1962931D01*
X1951810Y1702885D02*
X1962931D01*
X1951810Y1702531D02*
X1962931D01*
X1951810Y1702177D02*
X1962931D01*
X1951810Y1701822D02*
X1962931D01*
X1951810Y1701468D02*
X1962931D01*
X1951810Y1701114D02*
X1962931D01*
X1951810Y1700759D02*
X1962931D01*
X1951810Y1700405D02*
X1962931D01*
X1951810Y1700051D02*
X1962931D01*
X1951810Y1699696D02*
X1962931D01*
X1951810Y1699342D02*
X1962931D01*
X1951810Y1698988D02*
X1962931D01*
X1951810Y1698633D02*
X1957126D01*
X1951810Y1698279D02*
X1956772D01*
X1951810Y1697925D02*
X1956418D01*
X1951590Y1685878D02*
X1956277D01*
X1951590Y1685523D02*
X1956277D01*
X1951590Y1685169D02*
X1956277D01*
X1951590Y1684815D02*
X1956277D01*
X1951590Y1684460D02*
X1956277D01*
X1951590Y1684106D02*
X1956277D01*
X1951590Y1683752D02*
X1956277D01*
X1951590Y1683397D02*
X1956277D01*
X1951590Y1683043D02*
X1956277D01*
X1951590Y1682689D02*
X1956277D01*
X1951590Y1682334D02*
X1956277D01*
X1951590Y1681980D02*
X1956277D01*
X1951590Y1681626D02*
X1956277D01*
X1951590Y1681271D02*
X1956277D01*
X1951590Y1680917D02*
X1956277D01*
X1951590Y1680563D02*
X1956277D01*
X1951590Y1680208D02*
X1956277D01*
X1951590Y1679854D02*
X1956277D01*
X1951590Y1679500D02*
X1956277D01*
X1951590Y1679145D02*
X1956277D01*
X1951810Y1697570D02*
X1956063D01*
X1951810Y1697216D02*
X1955709D01*
X1951810Y1696862D02*
X1955355D01*
X1951810Y1696507D02*
X1955000D01*
X1951810Y1696153D02*
X1954646D01*
X1951810Y1695799D02*
X1954292D01*
X1951810Y1695444D02*
X1953655D01*
X1951810Y1695090D02*
X1953655D01*
X1951810Y1694736D02*
X1953655D01*
X1951590Y1694381D02*
X1953655D01*
X1951590Y1694027D02*
X1953655D01*
X1951590Y1693673D02*
X1953655D01*
X1951590Y1693318D02*
X1953655D01*
X1951590Y1692964D02*
X1953655D01*
X1951590Y1692610D02*
X1953655D01*
X1951590Y1692256D02*
X1953655D01*
X1951590Y1691901D02*
X1953655D01*
X1951590Y1691547D02*
X1953655D01*
X1951590Y1691193D02*
X1953655D01*
X1951590Y1690838D02*
X1953655D01*
X1951590Y1690484D02*
X1953655D01*
X1951590Y1690130D02*
X1953655D01*
X1951590Y1689775D02*
X1953655D01*
X1951590Y1689421D02*
X1953655D01*
X1951590Y1689067D02*
X1953655D01*
X1951590Y1688712D02*
X1953655D01*
X1951590Y1688358D02*
X1953655D01*
X1951590Y1688004D02*
X1953655D01*
X1951590Y1687649D02*
X1953655D01*
X1951590Y1687295D02*
X1953655D01*
X1951590Y1686941D02*
X1953655D01*
X1951590Y1686586D02*
X1953655D01*
X1951590Y1686232D02*
X1953655D01*
X1900135Y1635207D02*
X1918246D01*
X1900135Y1634852D02*
X1918246D01*
X1900135Y1634498D02*
X1918246D01*
X1900135Y1634144D02*
X1918246D01*
X1900135Y1633789D02*
X1918246D01*
X1900135Y1633435D02*
X1918246D01*
X1900135Y1633081D02*
X1918246D01*
X1900135Y1632726D02*
X1918246D01*
X1900135Y1632372D02*
X1918246D01*
X1900135Y1632018D02*
X1918246D01*
X1900135Y1631663D02*
X1918246D01*
X1900135Y1631309D02*
X1918246D01*
X1900135Y1630955D02*
X1918246D01*
X1900135Y1630600D02*
X1918246D01*
X1900135Y1630246D02*
X1918246D01*
X1900135Y1629892D02*
X1918246D01*
X1920881Y1776467D02*
X1925962D01*
X1920881Y1776112D02*
X1925962D01*
X1920881Y1775758D02*
X1925962D01*
X1920881Y1775404D02*
X1925962D01*
X1920881Y1775049D02*
X1925962D01*
X1920881Y1774695D02*
X1925962D01*
X1920881Y1774341D02*
X1925962D01*
X1920881Y1773986D02*
X1925962D01*
X1920881Y1773632D02*
X1925962D01*
X1920881Y1773278D02*
X1925962D01*
X1920881Y1772923D02*
X1925962D01*
X1920881Y1772569D02*
X1925962D01*
X1920881Y1772215D02*
X1925962D01*
X1920881Y1771860D02*
X1925962D01*
X1920881Y1771506D02*
X1925962D01*
X1920881Y1771152D02*
X1925962D01*
X1920881Y1770797D02*
X1925962D01*
X1920881Y1770443D02*
X1925962D01*
X1920881Y1770089D02*
X1925962D01*
X1920881Y1769734D02*
X1925962D01*
X1920881Y1769380D02*
X1925962D01*
X1920881Y1769026D02*
X1925962D01*
X1920881Y1768671D02*
X1925962D01*
X1920881Y1768317D02*
X1925962D01*
X1920881Y1767963D02*
X1925962D01*
X1920881Y1767608D02*
X1925962D01*
X1920881Y1767254D02*
X1925962D01*
X1920881Y1766900D02*
X1925962D01*
X1920881Y1766545D02*
X1925962D01*
X1920881Y1766191D02*
X1925962D01*
X1920881Y1765837D02*
X1925962D01*
X1920881Y1765482D02*
X1925962D01*
X1920881Y1765128D02*
X1925962D01*
X1920881Y1764774D02*
X1925962D01*
X1920881Y1764419D02*
X1925962D01*
X1920881Y1764065D02*
X1925962D01*
X1920881Y1763711D02*
X1925962D01*
X1920881Y1763356D02*
X1925962D01*
X1920881Y1763002D02*
X1925962D01*
X1920881Y1762648D02*
X1925962D01*
X1920881Y1762293D02*
X1925962D01*
X1920881Y1761939D02*
X1925962D01*
X1920881Y1761585D02*
X1925962D01*
X1920881Y1761230D02*
X1925962D01*
X1920881Y1760876D02*
X1925962D01*
X1920881Y1760522D02*
X1925962D01*
X1920881Y1760167D02*
X1925962D01*
X1920881Y1759813D02*
X1925962D01*
X1920881Y1759459D02*
X1925962D01*
X1920881Y1759104D02*
X1925962D01*
X1920881Y1758750D02*
X1925962D01*
X1920881Y1758396D02*
X1925962D01*
X1920881Y1758041D02*
X1925962D01*
X1920881Y1757687D02*
X1925962D01*
X1920881Y1757333D02*
X1925962D01*
X1920881Y1756978D02*
X1925962D01*
X1920881Y1756624D02*
X1925962D01*
X1920881Y1756270D02*
X1925962D01*
X1920881Y1755915D02*
X1925962D01*
X1920881Y1755561D02*
X1925962D01*
X1920881Y1755207D02*
X1925962D01*
X1962266Y1732136D02*
X1967394D01*
X1962266Y1731781D02*
X1967394D01*
X1962266Y1731427D02*
X1967394D01*
X1962266Y1731073D02*
X1967394D01*
X1962266Y1730718D02*
X1967394D01*
X1962266Y1730364D02*
X1967394D01*
X1962266Y1730010D02*
X1967394D01*
X1962266Y1729655D02*
X1967394D01*
X1962266Y1729301D02*
X1967394D01*
X1962266Y1728947D02*
X1967394D01*
X1962266Y1728592D02*
X1967394D01*
X1962266Y1728238D02*
X1967394D01*
X1962266Y1727884D02*
X1967394D01*
X1962266Y1727529D02*
X1967394D01*
X1962266Y1727175D02*
X1967394D01*
X1962266Y1726821D02*
X1967394D01*
X1962266Y1726466D02*
X1967394D01*
X1962266Y1726112D02*
X1967394D01*
X1941236Y1676495D02*
X1952689D01*
X1941236Y1676141D02*
X1952689D01*
X1941236Y1675786D02*
X1952689D01*
X1941236Y1675432D02*
X1952689D01*
X1941236Y1675078D02*
X1952689D01*
X1941236Y1674723D02*
X1952689D01*
X1941236Y1674369D02*
X1952689D01*
X1941236Y1674015D02*
X1952689D01*
X1941236Y1673660D02*
X1952689D01*
X1941236Y1673306D02*
X1952689D01*
X1941236Y1672952D02*
X1952689D01*
X1941236Y1672597D02*
X1952689D01*
X1941236Y1672243D02*
X1952689D01*
X1941236Y1671889D02*
X1952689D01*
X1941236Y1671534D02*
X1952689D01*
X1941236Y1671180D02*
X1952689D01*
X1941236Y1670826D02*
X1952689D01*
X1941236Y1670471D02*
X1952689D01*
X1941236Y1670117D02*
X1952689D01*
X1941236Y1669763D02*
X1952689D01*
X1941236Y1669408D02*
X1952689D01*
X1941236Y1669054D02*
X1952689D01*
X1954854Y1675945D02*
X1963549D01*
X1954854Y1675591D02*
X1963549D01*
X1954854Y1680197D02*
X1957736D01*
X1954854Y1679843D02*
X1957736D01*
X1954854Y1679488D02*
X1957736D01*
X1954854Y1679134D02*
X1957736D01*
X1954854Y1678780D02*
X1957736D01*
X1954854Y1678425D02*
X1957736D01*
X1954854Y1678071D02*
X1957736D01*
X1954854Y1677717D02*
X1957736D01*
X1954854Y1677362D02*
X1957736D01*
X1954854Y1677008D02*
X1957736D01*
X1954854Y1676654D02*
X1957736D01*
X1954854Y1676299D02*
X1957736D01*
X1918055Y1631301D02*
X1935161D01*
X1918055Y1630946D02*
X1935161D01*
X1918055Y1630592D02*
X1935161D01*
X1918055Y1630238D02*
X1935161D01*
X1918055Y1629883D02*
X1935161D01*
X1918055Y1629529D02*
X1935161D01*
X1918055Y1629175D02*
X1935161D01*
X1918055Y1628820D02*
X1935161D01*
X1918055Y1628466D02*
X1935161D01*
X1920214Y1628112D02*
X1935161D01*
X1920214Y1627757D02*
X1935161D01*
X1920214Y1627403D02*
X1935161D01*
X1920214Y1627049D02*
X1935161D01*
X1920214Y1626694D02*
X1935161D01*
X1920214Y1626340D02*
X1935161D01*
X1920214Y1625986D02*
X1935161D01*
X1920214Y1625631D02*
X1935161D01*
X1920214Y1625277D02*
X1935161D01*
X1920214Y1624923D02*
X1935161D01*
X1920214Y1624568D02*
X1935161D01*
X1920214Y1624214D02*
X1935161D01*
X1920214Y1623860D02*
X1935161D01*
X1920214Y1623505D02*
X1935161D01*
X1812473Y1745426D02*
X1817314D01*
X1812473Y1745072D02*
X1817314D01*
X1812473Y1744717D02*
X1817314D01*
X1812473Y1744363D02*
X1817314D01*
X1812473Y1744009D02*
X1817314D01*
X1812473Y1743654D02*
X1817314D01*
X1812473Y1743300D02*
X1817314D01*
X1812473Y1742946D02*
X1817314D01*
X1812473Y1742591D02*
X1817314D01*
X1812473Y1742237D02*
X1817314D01*
X1812473Y1741883D02*
X1817314D01*
X1812473Y1741528D02*
X1817314D01*
X1812473Y1741174D02*
X1817314D01*
X1812473Y1740820D02*
X1817314D01*
X1812473Y1740465D02*
X1817314D01*
X1812473Y1740111D02*
X1817314D01*
X1812473Y1739757D02*
X1817314D01*
X1812473Y1739402D02*
X1817314D01*
X1780500Y1745420D02*
X1802143D01*
X1780500Y1745066D02*
X1802143D01*
X1780500Y1744711D02*
X1802143D01*
X1780500Y1744357D02*
X1802143D01*
X1780500Y1744003D02*
X1802143D01*
X1780500Y1743648D02*
X1802143D01*
X1780500Y1743294D02*
X1802143D01*
X1780500Y1742940D02*
X1802143D01*
X1780500Y1742585D02*
X1802143D01*
X1780500Y1742231D02*
X1802143D01*
X1794124Y1741877D02*
X1802143D01*
X1795004Y1741522D02*
X1802143D01*
X1780500Y1737979D02*
X1793350D01*
X1780500Y1738333D02*
X1793348D01*
X1780500Y1738688D02*
X1793346D01*
X1780500Y1739042D02*
X1793344D01*
X1780500Y1739396D02*
X1793342D01*
X1780500Y1739751D02*
X1793339D01*
X1780500Y1740105D02*
X1793337D01*
X1780500Y1740459D02*
X1793335D01*
X1780500Y1740814D02*
X1793333D01*
X1780500Y1741168D02*
X1793331D01*
X1780500Y1741522D02*
X1793329D01*
X1780500Y1741877D02*
X1793326D01*
X1782323Y1752861D02*
X1793046D01*
X1781968Y1752507D02*
X1793046D01*
X1781614Y1752152D02*
X1793046D01*
X1781260Y1751798D02*
X1793046D01*
X1780905Y1751444D02*
X1793046D01*
X1780551Y1751089D02*
X1793046D01*
X1780500Y1750735D02*
X1793046D01*
X1780500Y1750381D02*
X1793046D01*
X1780500Y1750026D02*
X1793046D01*
X1780500Y1749672D02*
X1793046D01*
X1780500Y1749318D02*
X1793046D01*
X1780500Y1748963D02*
X1793046D01*
X1780500Y1748609D02*
X1793046D01*
X1780500Y1748255D02*
X1793046D01*
X1780500Y1747900D02*
X1793046D01*
X1780500Y1747546D02*
X1793046D01*
X1780500Y1747192D02*
X1793046D01*
X1780500Y1746837D02*
X1793046D01*
X1780500Y1746483D02*
X1793046D01*
X1780500Y1746129D02*
X1793046D01*
X1780500Y1745774D02*
X1793046D01*
X1785574Y1783526D02*
X1802292D01*
X1785574Y1783172D02*
X1802292D01*
X1785574Y1782817D02*
X1802292D01*
X1785574Y1782463D02*
X1802292D01*
X1785574Y1782109D02*
X1802292D01*
X1785574Y1781754D02*
X1802292D01*
X1785574Y1781400D02*
X1802292D01*
X1785574Y1781046D02*
X1799835D01*
X1785574Y1780691D02*
X1799835D01*
X1785574Y1780337D02*
X1799835D01*
X1785574Y1779983D02*
X1799835D01*
X1785574Y1779628D02*
X1799835D01*
X1785574Y1779274D02*
X1799835D01*
X1785574Y1778920D02*
X1799835D01*
X1785574Y1778565D02*
X1799835D01*
X1785574Y1778211D02*
X1799835D01*
X1785574Y1777857D02*
X1799835D01*
X1785574Y1777502D02*
X1799835D01*
X1785574Y1777148D02*
X1799835D01*
X1785574Y1776794D02*
X1799835D01*
X1785574Y1776439D02*
X1799835D01*
X1785574Y1776085D02*
X1799835D01*
X1785574Y1775731D02*
X1799835D01*
X1785574Y1775376D02*
X1799835D01*
X1785574Y1775022D02*
X1799835D01*
X1785574Y1774668D02*
X1799835D01*
X1785574Y1774313D02*
X1799835D01*
X1785574Y1773959D02*
X1799835D01*
X1787789Y1773605D02*
X1799835D01*
X1788144Y1773250D02*
X1799835D01*
X1788498Y1772896D02*
X1799835D01*
X1788852Y1772542D02*
X1799835D01*
X1789207Y1772187D02*
X1799835D01*
X1789561Y1771833D02*
X1799835D01*
X1789915Y1771479D02*
X1799835D01*
X1790270Y1771124D02*
X1799835D01*
X1790624Y1770770D02*
X1799835D01*
X1790978Y1770416D02*
X1799835D01*
X1791333Y1770061D02*
X1799835D01*
X1791687Y1769707D02*
X1799835D01*
X1792041Y1769353D02*
X1799835D01*
X1792396Y1768998D02*
X1799835D01*
X1792750Y1768644D02*
X1799835D01*
X1793012Y1768290D02*
X1799835D01*
X1793012Y1767935D02*
X1799835D01*
X1793012Y1767581D02*
X1799835D01*
X1793012Y1767227D02*
X1799835D01*
X1793012Y1766872D02*
X1799835D01*
X1793012Y1766518D02*
X1799835D01*
X1793012Y1766164D02*
X1799835D01*
X1793012Y1765809D02*
X1799835D01*
X1793012Y1765455D02*
X1799835D01*
X1793012Y1765101D02*
X1799835D01*
X1793012Y1764746D02*
X1799835D01*
X1793012Y1764392D02*
X1799835D01*
X1793012Y1764038D02*
X1799835D01*
X1793012Y1763683D02*
X1799835D01*
X1793012Y1763329D02*
X1799835D01*
X1793012Y1762975D02*
X1799835D01*
X1793012Y1762620D02*
X1799835D01*
X1793012Y1762266D02*
X1799835D01*
X1793012Y1761912D02*
X1799835D01*
X1793012Y1761557D02*
X1799835D01*
X1793012Y1761203D02*
X1799835D01*
X1793012Y1760849D02*
X1799835D01*
X1793012Y1760494D02*
X1799835D01*
X1793012Y1760140D02*
X1799835D01*
X1788770Y1742087D02*
X1795126D01*
X1788770Y1741733D02*
X1795126D01*
X1788770Y1741379D02*
X1795126D01*
X1788770Y1741024D02*
X1795126D01*
X1788770Y1740670D02*
X1795126D01*
X1788770Y1740316D02*
X1795126D01*
X1941729Y1709164D02*
X1950280D01*
X1941729Y1708809D02*
X1950280D01*
X1941729Y1708455D02*
X1950280D01*
X1941729Y1708101D02*
X1950280D01*
X1941729Y1707746D02*
X1950280D01*
X1941729Y1707392D02*
X1950280D01*
X1941729Y1707038D02*
X1950280D01*
X1941729Y1706683D02*
X1950280D01*
X1941729Y1706329D02*
X1950280D01*
X1941729Y1705975D02*
X1950280D01*
X1941729Y1705620D02*
X1950280D01*
X1941729Y1705266D02*
X1950280D01*
X1941729Y1704912D02*
X1950280D01*
X1941729Y1704557D02*
X1950280D01*
X1941729Y1704203D02*
X1950280D01*
X1941729Y1703849D02*
X1950280D01*
X1941729Y1703494D02*
X1950280D01*
X1941729Y1703140D02*
X1950280D01*
X1941729Y1715896D02*
X1948511D01*
X1941729Y1715542D02*
X1948511D01*
X1941729Y1715187D02*
X1948511D01*
X1941729Y1714833D02*
X1948511D01*
X1941729Y1714479D02*
X1948511D01*
X1941729Y1714124D02*
X1948511D01*
X1941729Y1713770D02*
X1948511D01*
X1941729Y1713416D02*
X1948511D01*
X1941729Y1713061D02*
X1948511D01*
X1941729Y1712707D02*
X1948511D01*
X1941729Y1712353D02*
X1948511D01*
X1941729Y1711998D02*
X1948511D01*
X1941729Y1711644D02*
X1948511D01*
X1941729Y1711290D02*
X1948511D01*
X1941729Y1710935D02*
X1948511D01*
X1941729Y1710581D02*
X1948511D01*
X1941729Y1710227D02*
X1948511D01*
X1941729Y1709872D02*
X1948511D01*
X1941729Y1709518D02*
X1948511D01*
X1817817Y1758036D02*
X1826792D01*
X1817817Y1757682D02*
X1826792D01*
X1817817Y1757327D02*
X1826792D01*
X1817817Y1756973D02*
X1826792D01*
X1817817Y1756619D02*
X1826792D01*
X1817817Y1756264D02*
X1826792D01*
X1817817Y1755910D02*
X1826792D01*
X1817817Y1755556D02*
X1826792D01*
X1817817Y1755201D02*
X1826792D01*
X1817817Y1754847D02*
X1826792D01*
X1817817Y1754493D02*
X1826792D01*
X1817817Y1754138D02*
X1826792D01*
X1817817Y1753784D02*
X1826792D01*
X1817817Y1753430D02*
X1826792D01*
X1817817Y1753075D02*
X1826792D01*
X1817817Y1752721D02*
X1826792D01*
X1817817Y1752367D02*
X1826792D01*
X1817817Y1752012D02*
X1826792D01*
X1817817Y1751658D02*
X1826792D01*
X1817817Y1751304D02*
X1826792D01*
X1817817Y1750949D02*
X1826792D01*
X1817817Y1750595D02*
X1826792D01*
X1817817Y1750241D02*
X1826792D01*
X1817817Y1749886D02*
X1826792D01*
X1817817Y1749532D02*
X1826792D01*
X1817817Y1749178D02*
X1826792D01*
X1820256Y1748823D02*
X1826792D01*
X1820256Y1748469D02*
X1826792D01*
X1820256Y1748115D02*
X1826792D01*
X1820256Y1747760D02*
X1826792D01*
X1820256Y1747406D02*
X1826792D01*
X1820256Y1747052D02*
X1826792D01*
X1820256Y1746698D02*
X1826792D01*
X1820256Y1746343D02*
X1826792D01*
X1820256Y1745989D02*
X1826792D01*
X1820256Y1745635D02*
X1826792D01*
X1820256Y1745280D02*
X1826792D01*
X1820256Y1744926D02*
X1826792D01*
X1820256Y1744572D02*
X1826792D01*
X1820256Y1744217D02*
X1826792D01*
X1820256Y1743863D02*
X1826792D01*
X1820256Y1743509D02*
X1826792D01*
X1820256Y1743154D02*
X1826792D01*
X1820256Y1742800D02*
X1826792D01*
X1820256Y1742446D02*
X1826792D01*
X1820256Y1742091D02*
X1826792D01*
X1820256Y1741737D02*
X1826792D01*
X1820256Y1741383D02*
X1826792D01*
X1820256Y1741028D02*
X1826792D01*
X1820256Y1740674D02*
X1826792D01*
X1820256Y1740320D02*
X1826792D01*
X1820256Y1739965D02*
X1826792D01*
X1820256Y1739611D02*
X1826792D01*
X1820256Y1739257D02*
X1826792D01*
X1820256Y1738902D02*
X1826792D01*
X1820256Y1738548D02*
X1826792D01*
X1820256Y1738194D02*
X1826792D01*
X1820256Y1737839D02*
X1826792D01*
X1820256Y1737485D02*
X1826792D01*
X1820256Y1737131D02*
X1826792D01*
X1820256Y1736776D02*
X1826792D01*
X1820256Y1736422D02*
X1826792D01*
X1820256Y1736068D02*
X1826792D01*
X1820256Y1735713D02*
X1826792D01*
X1820256Y1735359D02*
X1826792D01*
X1820256Y1735005D02*
X1826792D01*
X1820256Y1734650D02*
X1826792D01*
X1820256Y1734296D02*
X1826792D01*
X1820256Y1733942D02*
X1826792D01*
X1820256Y1733587D02*
X1826792D01*
X1820256Y1733233D02*
X1826792D01*
X1820256Y1732879D02*
X1826792D01*
X1820256Y1732524D02*
X1826792D01*
X1820256Y1732170D02*
X1826792D01*
X1820256Y1731816D02*
X1826792D01*
X1820256Y1731461D02*
X1826792D01*
X1820256Y1731107D02*
X1826792D01*
X1820256Y1730753D02*
X1826792D01*
X1820256Y1730398D02*
X1826792D01*
X1820256Y1730044D02*
X1826792D01*
X1820292Y1734032D02*
X1825912D01*
X1820292Y1733678D02*
X1825912D01*
X1820292Y1733324D02*
X1825912D01*
X1820292Y1732969D02*
X1825912D01*
X1820292Y1732615D02*
X1825912D01*
X1820292Y1732261D02*
X1825912D01*
X1820292Y1731906D02*
X1825912D01*
X1820292Y1731552D02*
X1825912D01*
X1820292Y1731198D02*
X1825912D01*
X1820292Y1730843D02*
X1825912D01*
X1820292Y1730489D02*
X1825912D01*
X1820292Y1730135D02*
X1825912D01*
X1820292Y1729780D02*
X1825912D01*
X1820292Y1729426D02*
X1825912D01*
X1820292Y1729072D02*
X1825912D01*
X1820292Y1728717D02*
X1825912D01*
X1820292Y1728363D02*
X1825912D01*
X1820292Y1728009D02*
X1825912D01*
X1820292Y1727654D02*
X1825912D01*
X1820292Y1727300D02*
X1825912D01*
X1820292Y1726946D02*
X1825912D01*
X1820292Y1726591D02*
X1825912D01*
X1820292Y1726237D02*
X1825912D01*
X1820292Y1725883D02*
X1825912D01*
X1820292Y1725528D02*
X1825912D01*
X1820292Y1725174D02*
X1825912D01*
X1820292Y1724820D02*
X1825912D01*
X1820292Y1724465D02*
X1825912D01*
X1820292Y1724111D02*
X1825912D01*
X1820292Y1723757D02*
X1825912D01*
X1820292Y1723402D02*
X1825912D01*
X1820292Y1723048D02*
X1825912D01*
X1820292Y1722694D02*
X1825912D01*
X1820292Y1722339D02*
X1825912D01*
X1820292Y1721985D02*
X1825912D01*
X1820292Y1721631D02*
X1825912D01*
X1820292Y1721276D02*
X1825912D01*
X1820292Y1720922D02*
X1825912D01*
X1817138Y1720568D02*
X1825912D01*
X1817138Y1720213D02*
X1825912D01*
X1817138Y1719859D02*
X1825912D01*
X1817138Y1719505D02*
X1825912D01*
X1817138Y1719150D02*
X1825912D01*
X1817138Y1718796D02*
X1825912D01*
X1817138Y1718442D02*
X1825912D01*
X1817138Y1718087D02*
X1825912D01*
X1817138Y1717733D02*
X1825912D01*
X1817138Y1717379D02*
X1825912D01*
X1817138Y1717024D02*
X1825912D01*
X1817138Y1716670D02*
X1825912D01*
X1817138Y1716316D02*
X1825912D01*
X1817138Y1715962D02*
X1825912D01*
X1817138Y1715607D02*
X1825912D01*
X1817138Y1715253D02*
X1825912D01*
X1817138Y1714899D02*
X1825912D01*
X1817138Y1714544D02*
X1825912D01*
X1817138Y1714190D02*
X1825912D01*
X1817138Y1713836D02*
X1825912D01*
X1817138Y1713481D02*
X1825912D01*
X1817138Y1713127D02*
X1825912D01*
X1817138Y1712773D02*
X1825912D01*
X1817138Y1712418D02*
X1825912D01*
X1817138Y1712064D02*
X1825912D01*
X1817138Y1711710D02*
X1825912D01*
X1817138Y1711355D02*
X1825912D01*
X1817138Y1711001D02*
X1825912D01*
X1817138Y1710647D02*
X1825912D01*
X1817138Y1710292D02*
X1825912D01*
X1817138Y1709938D02*
X1825912D01*
X1817138Y1709584D02*
X1825912D01*
X1817138Y1709229D02*
X1825912D01*
X1817138Y1708875D02*
X1825912D01*
X1817138Y1708521D02*
X1825912D01*
X1817138Y1708166D02*
X1825912D01*
X1817138Y1707812D02*
X1825912D01*
X1817138Y1707458D02*
X1825912D01*
X1817138Y1707103D02*
X1825912D01*
X1817138Y1706749D02*
X1825912D01*
X1817138Y1706395D02*
X1825912D01*
X1817138Y1706040D02*
X1825912D01*
X1817138Y1705686D02*
X1825912D01*
X1817138Y1705332D02*
X1825912D01*
X1778436Y1787040D02*
X1781128D01*
X1778436Y1786686D02*
X1781128D01*
X1778436Y1786331D02*
X1781128D01*
X1778436Y1785977D02*
X1781128D01*
X1778436Y1785623D02*
X1781128D01*
X1778436Y1785268D02*
X1781128D01*
X1778436Y1784914D02*
X1781128D01*
X1778436Y1784560D02*
X1781128D01*
X1778436Y1784205D02*
X1781128D01*
X1778436Y1783851D02*
X1781128D01*
X1778436Y1783497D02*
X1781128D01*
X1778436Y1783142D02*
X1781128D01*
X1778436Y1782788D02*
X1781128D01*
X1778436Y1782434D02*
X1781128D01*
X1778436Y1782079D02*
X1781128D01*
X1778436Y1781725D02*
X1781128D01*
X1778436Y1781371D02*
X1781128D01*
X1778436Y1781016D02*
X1781128D01*
X1778436Y1787394D02*
X1780888D01*
X1778436Y1787749D02*
X1780533D01*
X1778696Y1788103D02*
X1780179D01*
X1779050Y1788457D02*
X1779825D01*
X1779404Y1788812D02*
X1779470D01*
X1779694Y1726912D02*
X1810314D01*
X1779694Y1726558D02*
X1810314D01*
X1779694Y1726204D02*
X1810314D01*
X1779694Y1725849D02*
X1810314D01*
X1779694Y1725495D02*
X1810314D01*
X1779694Y1725141D02*
X1810314D01*
X1779694Y1724786D02*
X1810314D01*
X1779694Y1724432D02*
X1810314D01*
X1779694Y1724078D02*
X1810314D01*
X1779694Y1723723D02*
X1810314D01*
X1779694Y1723369D02*
X1810314D01*
X1779694Y1723015D02*
X1810314D01*
X1779694Y1722660D02*
X1810314D01*
X1779937Y1722306D02*
X1810314D01*
X1780291Y1721952D02*
X1810314D01*
X1780645Y1721597D02*
X1810314D01*
X1781000Y1721243D02*
X1810314D01*
X1781354Y1720889D02*
X1810314D01*
X1781708Y1720535D02*
X1810314D01*
X1782063Y1720180D02*
X1810314D01*
X1782417Y1719826D02*
X1810314D01*
X1782771Y1719472D02*
X1810314D01*
X1783126Y1719117D02*
X1810314D01*
X1783480Y1718763D02*
X1810314D01*
X1783834Y1718409D02*
X1810314D01*
X1784189Y1718054D02*
X1810314D01*
X1784543Y1717700D02*
X1810314D01*
X1784897Y1717346D02*
X1810314D01*
X1785252Y1716991D02*
X1810314D01*
X1785606Y1716637D02*
X1810314D01*
X1785960Y1716283D02*
X1810314D01*
X1786315Y1715928D02*
X1810314D01*
X1786669Y1715574D02*
X1810314D01*
X1787023Y1715220D02*
X1810314D01*
X1787378Y1714865D02*
X1810314D01*
X1787732Y1714511D02*
X1810314D01*
X1788086Y1714157D02*
X1810314D01*
X1788441Y1713802D02*
X1810314D01*
X1788795Y1713448D02*
X1810314D01*
X1789149Y1713094D02*
X1810314D01*
X1789504Y1712739D02*
X1810314D01*
X1789858Y1712385D02*
X1810314D01*
X1790212Y1712031D02*
X1810314D01*
X1790567Y1711676D02*
X1810314D01*
X1790921Y1711322D02*
X1810314D01*
X1790999Y1710968D02*
X1810314D01*
X1790999Y1710613D02*
X1810314D01*
X1790999Y1710259D02*
X1810314D01*
X1790999Y1709905D02*
X1810314D01*
X1790999Y1709550D02*
X1810314D01*
X1790999Y1709196D02*
X1810314D01*
X1790999Y1708842D02*
X1810314D01*
X1790999Y1708487D02*
X1810314D01*
X1790999Y1708133D02*
X1810314D01*
X1790999Y1707779D02*
X1810314D01*
X1790999Y1707424D02*
X1810314D01*
X1790999Y1707070D02*
X1810314D01*
X1790999Y1706716D02*
X1810314D01*
X1790999Y1706361D02*
X1810314D01*
X1790999Y1706007D02*
X1810314D01*
X1790999Y1705653D02*
X1810314D01*
X1790999Y1705298D02*
X1810314D01*
X1779694Y1733290D02*
X1802642D01*
X1779694Y1732936D02*
X1802642D01*
X1779694Y1732582D02*
X1802642D01*
X1779694Y1732227D02*
X1802642D01*
X1779694Y1731873D02*
X1802642D01*
X1779694Y1731519D02*
X1802642D01*
X1779694Y1731164D02*
X1802642D01*
X1779694Y1730810D02*
X1802642D01*
X1779694Y1730456D02*
X1802642D01*
X1779694Y1730101D02*
X1802642D01*
X1779694Y1729747D02*
X1802642D01*
X1779694Y1729393D02*
X1802642D01*
X1779694Y1729038D02*
X1802642D01*
X1779694Y1728684D02*
X1802642D01*
X1779694Y1728330D02*
X1802642D01*
X1779694Y1727975D02*
X1802642D01*
X1779694Y1727621D02*
X1802642D01*
X1779694Y1727267D02*
X1802642D01*
X1807900Y1734391D02*
X1810320D01*
X1807900Y1734037D02*
X1810320D01*
X1807900Y1733682D02*
X1810320D01*
X1807900Y1733328D02*
X1810320D01*
X1807900Y1732974D02*
X1810320D01*
X1807900Y1732619D02*
X1810320D01*
X1807900Y1732265D02*
X1810320D01*
X1807900Y1731911D02*
X1810320D01*
X1807900Y1731556D02*
X1810320D01*
X1807900Y1731202D02*
X1810320D01*
X1807900Y1730848D02*
X1810320D01*
X1807900Y1730493D02*
X1810320D01*
X1807900Y1730139D02*
X1810320D01*
X1807900Y1729785D02*
X1810320D01*
X1807900Y1729430D02*
X1810320D01*
X1807900Y1729076D02*
X1810320D01*
X1807900Y1728722D02*
X1810320D01*
X1807900Y1728367D02*
X1810320D01*
X1807900Y1728013D02*
X1810320D01*
X1804280Y1779114D02*
X1814516D01*
X1804280Y1778759D02*
X1814516D01*
X1804280Y1778405D02*
X1814516D01*
X1804280Y1778051D02*
X1814516D01*
X1804280Y1777696D02*
X1814516D01*
X1804280Y1777342D02*
X1814516D01*
X1804280Y1776988D02*
X1814516D01*
X1804280Y1776633D02*
X1814516D01*
X1804280Y1776279D02*
X1814516D01*
X1804280Y1775925D02*
X1814516D01*
X1804280Y1775570D02*
X1814516D01*
X1804280Y1775216D02*
X1814516D01*
X1804280Y1774862D02*
X1814516D01*
X1804280Y1774507D02*
X1814516D01*
X1804280Y1774153D02*
X1814516D01*
X1804280Y1773799D02*
X1814516D01*
X1804280Y1773444D02*
X1814516D01*
X1804280Y1773090D02*
X1814516D01*
X1804280Y1772736D02*
X1814516D01*
X1804280Y1772381D02*
X1814516D01*
X1804280Y1772027D02*
X1814516D01*
X1804280Y1771673D02*
X1814516D01*
X1804280Y1771318D02*
X1814516D01*
X1804280Y1770964D02*
X1814516D01*
X1915765Y1671035D02*
G03X1915765I-8464J0D01*
G01X1883860Y1672334D02*
G03X1883860I-2189J0D01*
G01X1835946Y1624972D02*
G03X1835946I-2189J0D01*
G01X1802403Y1619027D02*
G03X1802403I-2189J0D01*
G01X1790844Y1582728D02*
G03X1790844I-5315J0D01*
G01X1787120Y1614460D02*
G03X1787120I-3205J0D01*
G01Y1633672D02*
G03X1787120I-3205J0D01*
G01X1849883Y1603200D02*
G03X1849883I-2189J0D01*
G01X1843532Y1581834D02*
G03X1843532I-4158J0D01*
G01X1837088Y1603594D02*
G03X1837088I-2189J0D01*
G01X1863532Y1581834D02*
G03X1863532I-4158J0D01*
G01X1945553Y1649893D02*
G03X1945553I-2189J0D01*
G01X1967616Y1703633D02*
Y1724124D01*
G03X1967419Y1724321I-197J0*
G01X1920559*
G03X1920362Y1724124I0J-197*
G01Y1697354*
G03X1920635Y1697173I197J0*
G01X1922523Y1697077D02*
G03X1920635Y1697173I-1044J-1924D01*
G01X1922523Y1697077D02*
G03X1922718Y1697081I93J173D01*
G01X1925790Y1694202D02*
G03X1922718Y1697081I-1946J1002D01*
G01X1925790Y1694202D02*
G03X1925798Y1694007I175J-90D01*
G01X1925767Y1691624D02*
G03X1925798Y1694007I-1820J1215D01*
G01X1925767Y1691624D02*
G03X1925756Y1691424I164J-109D01*
G01X1922751Y1688500D02*
G03X1925756Y1691424I1064J1913D01*
G01X1922751Y1688500D02*
G03X1922566Y1688503I-96J-172D01*
G01X1919559Y1691300D02*
G03X1922566Y1688503I2020J-843D01*
G01X1919559Y1691300D02*
G03X1919377Y1691572I-182J76D01*
G01X1868913*
G03X1868716Y1691376I0J-196*
G01Y1672502*
G03X1868774Y1672362I197J-0*
G01X1869523Y1671614*
X1869991Y1670484D02*
G03X1869523Y1671614I-1599J-0D01*
G01X1869991Y1670484D02*
Y1662704D01*
X1869523Y1661573D02*
G03X1869991Y1662704I-1131J1131D01*
G01X1869523Y1661573D02*
X1868743Y1660793D01*
G03X1868685Y1660654I139J-139*
G01Y1656611*
G03X1868734Y1656481I197J-0*
G01X1865018Y1655756D02*
G03X1868734Y1656481I2069J-717D01*
G01X1865018Y1655756D02*
G03X1864745Y1655997I-186J64D01*
G01X1862842Y1655986D02*
G03X1864745Y1655997I941J1977D01*
G01X1862842Y1655986D02*
G03X1862561Y1655808I-85J-178D01*
G01Y1634534*
G03X1862618Y1634395I196J0*
G01X1865321Y1631693*
X1865789Y1630562D02*
G03X1865321Y1631693I-1599J0D01*
G01X1865789Y1630562D02*
Y1629811D01*
G03X1865838Y1629681I197J-0*
G01X1864062Y1626054D02*
G03X1865838Y1629681I128J2186D01*
G01X1864062Y1626054D02*
G03X1863854Y1625872I-12J-196D01*
G01X1863001Y1624296D02*
G03X1863854Y1625872I-1330J1739D01*
G01X1863001Y1624296D02*
G03X1862978Y1624004I119J-156D01*
G01X1859211Y1622346D02*
G03X1862978Y1624004I2184J146D01*
G01X1859211Y1622346D02*
G03X1859154Y1622472I-196J-13D01*
G01X1851893Y1629733*
G03X1851754Y1629791I-139J-139*
G01X1833360*
G03X1833231Y1629742I0J-197*
G01X1829628Y1631740D02*
G03X1833231Y1629742I2161J-351D01*
G01X1829628Y1631740D02*
G03X1829434Y1631969I-194J32D01*
G01X1813756*
G03X1813691Y1631958I0J-197*
G01X1813129Y1631862D02*
G03X1813691Y1631958I0J1705D01*
G01X1813129Y1631862D02*
X1812450D01*
G03X1812293Y1631785I-0J-196*
G01X1810893Y1635272D02*
G03X1812293Y1631785I-342J-2162D01*
G01X1810893Y1635272D02*
G03X1810932Y1635270I31J195D01*
G01X1811008Y1635272D02*
G03X1810932Y1635270I0J-1705D01*
G01X1811008Y1635272D02*
X1813129D01*
X1813691Y1635177D02*
G03X1813129Y1635272I-562J-1610D01*
G01X1813691Y1635177D02*
G03X1813756Y1635166I65J185D01*
G01X1814459*
G03X1814639Y1635444I0J196*
G01X1816100Y1638473D02*
G03X1814639Y1635444I531J-2123D01*
G01X1816100Y1638473D02*
G03X1816192Y1638525I-47J191D01*
G01X1853130Y1675463*
G03X1853187Y1675590I-139J140*
G01X1855517Y1673260D02*
G03X1853187Y1675590I-145J2184D01*
G01X1855517Y1673260D02*
G03X1855391Y1673203I13J-196D01*
G01X1818870Y1636682*
G03X1818813Y1636527I139J-139*
G01X1818624Y1635444D02*
G03X1818813Y1636527I-1993J906D01*
G01X1818624Y1635444D02*
G03X1818803Y1635166I179J-82D01*
G01X1825529*
G03X1825681Y1635488I0J196*
G01X1826940Y1639038D02*
G03X1825681Y1635488I422J-2148D01*
G01X1826940Y1639038D02*
G03X1827096Y1639197I-38J193D01*
G01X1829674Y1636671D02*
G03X1827096Y1639197I-422J2148D01*
G01X1829674Y1636671D02*
G03X1829518Y1636512I38J-193D01*
G01X1829044Y1635488D02*
G03X1829518Y1636512I-1682J1402D01*
G01X1829044Y1635488D02*
G03X1829195Y1635166I151J-126D01*
G01X1854138*
X1855269Y1634697D02*
G03X1854138Y1635166I-1131J-1130D01*
G01X1855269Y1634697D02*
X1861673Y1628293D01*
G03X1862009Y1628416I139J139*
G01X1862543Y1629681D02*
G03X1862009Y1628416I1647J-1441D01*
G01X1862543Y1629681D02*
G03X1862592Y1629811I-148J130D01*
G01Y1629819*
G03X1862534Y1629958I-197J-0*
G01X1859832Y1632660*
X1859364Y1633791D02*
G03X1859832Y1632660I1598J-0D01*
G01X1859364Y1633791D02*
Y1691376D01*
G03X1859167Y1691572I-197J-0*
G01X1846823*
Y1711255*
G03X1846610Y1711451I-197J0*
G01Y1715815D02*
G03Y1711451I-175J-2182D01*
G01Y1715815D02*
G03X1846823Y1716011I16J196D01*
G01Y1717587*
G03X1846766Y1717726I-197J0*
G01X1846281Y1718478D02*
G03X1846766Y1717726I2043J785D01*
G01X1846281Y1718478D02*
G03X1845943Y1718530I-184J-70D01*
G01X1846273Y1720678D02*
G03X1845943Y1718530I-2043J-785D01*
G01X1846273Y1720678D02*
G03X1846611Y1720626I184J70D01*
G01X1846766Y1720801D02*
G03X1846611Y1720626I1558J-1538D01*
G01X1846766Y1720801D02*
G03X1846823Y1720939I-140J138D01*
G01Y1725901*
G03X1846626Y1726098I-197J-0*
G01X1832813*
G03X1832617Y1725901I0J-197*
G01Y1679383*
X1832420Y1679186D02*
G03X1832617Y1679383I-0J197D01*
G01X1832420Y1679186D02*
X1806575D01*
G03X1806493Y1678810I-0J-197*
G01X1799447D02*
G03X1806493I3523J-7696D01*
G01X1799447D02*
G03X1799365Y1679186I-82J179D01*
G01X1772931*
G03X1772734Y1678989I-0J-197*
G01Y1582728*
G03X1779624Y1575838I6890J-0*
G01X1951144*
G03X1951236Y1576209I-0J197*
G01X1958291D02*
G03X1951236I-3528J6681D01*
G01X1958291D02*
G03X1958383Y1575838I92J-174D01*
G01X1960726*
G03X1967616Y1582728I-0J6890*
G01Y1687462*
G03X1967328Y1687637I-197J0*
G01X1965342Y1687618D02*
G03X1967328Y1687637I974J1960D01*
G01X1965342Y1687618D02*
G03X1965057Y1687442I-88J-176D01*
G01Y1685740*
X1964475Y1684708D02*
G03X1965057Y1685740I-623J1032D01*
G01X1964475Y1684708D02*
G03Y1684371I102J-168D01*
G01X1965057Y1683340D02*
G03X1964475Y1684371I-1205J-0D01*
G01X1965057Y1683340D02*
Y1679540D01*
X1963852Y1678335D02*
G03X1965057Y1679540I0J1205D01*
G01X1963852Y1678335D02*
X1960852D01*
X1959648Y1679540D02*
G03X1960852Y1678335I1204J-0D01*
G01X1959648Y1679540D02*
Y1681934D01*
G03X1959590Y1682073I-197J-0*
G01X1957370Y1684293*
X1956844Y1685563D02*
G03X1957370Y1684293I1795J-0D01*
G01X1956844Y1685563D02*
Y1686070D01*
G03X1956786Y1686209I-197J-0*
G01X1956464Y1686532*
G03X1956338Y1686589I-140J-140*
G01X1955908Y1686673D02*
G03X1956338Y1686589I558J1707D01*
G01X1955908Y1686673D02*
G03X1955847Y1686683I-61J-187D01*
G01X1955285*
X1954080Y1687887D02*
G03X1955285Y1686683I1205J0D01*
G01X1954080Y1687887D02*
Y1688872D01*
X1954157Y1689295D02*
G03X1954080Y1688872I1128J-423D01*
G01X1954156Y1689295D02*
G03Y1689433I-184J69D01*
G01X1954080Y1689856D02*
G03X1954157Y1689433I1205J-0D01*
G01X1954080Y1689856D02*
Y1690840D01*
X1954157Y1691263D02*
G03X1954080Y1690840I1128J-423D01*
G01X1954156Y1691263D02*
G03Y1691401I-184J69D01*
G01X1954080Y1691824D02*
G03X1954157Y1691401I1205J0D01*
G01X1954080Y1691824D02*
Y1692809D01*
X1954157Y1693232D02*
G03X1954080Y1692809I1128J-423D01*
G01X1954156Y1693232D02*
G03Y1693370I-184J69D01*
G01X1954080Y1693793D02*
G03X1954157Y1693370I1205J-0D01*
G01X1954080Y1693793D02*
Y1694777D01*
X1955285Y1695982D02*
G03X1954080Y1694777I-0J-1205D01*
G01X1955285Y1695982D02*
X1955847D01*
G03X1955908Y1695992I0J197*
G01X1956338Y1696076D02*
G03X1955908Y1695992I128J-1791D01*
G01X1956338Y1696076D02*
G03X1956464Y1696133I-14J196D01*
G01X1957567Y1697237*
X1958837Y1697762D02*
G03X1957567Y1697237I-0J-1795D01*
G01X1958837Y1697762D02*
X1960035D01*
G03X1960174Y1697820I0J197*
G01X1960257Y1697895D02*
G03X1960174Y1697820I768J-928D01*
G01X1960257Y1697895D02*
G03X1960328Y1698047I-126J152D01*
G01Y1699067*
X1960525Y1699264D02*
G03X1960328Y1699067I0J-197D01*
G01X1960525Y1699264D02*
X1963206D01*
G03X1963403Y1699461I0J197*
G01Y1700022*
G03Y1700028I-197J0*
G01X1963341Y1702112*
X1967263Y1703513D02*
G03X1963341Y1702112I-1734J-1336D01*
G01X1967263Y1703513D02*
G03X1967616Y1703633I156J120D01*
G01X1909041Y1603578D02*
G03X1909180Y1603914I-0J197D01*
G01X1905675Y1607419*
G03X1905536Y1607477I-139J-139*
G01X1897145*
G03X1896953Y1607235I0J-197*
G01X1896708Y1605635D02*
G03X1896953Y1607235I-1888J1108D01*
G01X1896708Y1605635D02*
G03X1896711Y1605431I170J-99D01*
G01X1897002Y1603815D02*
G03X1896711Y1605431I-2142J448D01*
G01X1897002Y1603815D02*
G03X1897195Y1603578I193J-40D01*
G01X1909041*
X1951685Y1709693D02*
Y1702606D01*
X1951216Y1701652D02*
G03X1951685Y1702606I-736J954D01*
G01X1951216Y1701652D02*
G03X1951139Y1701496I120J-156D01*
G01Y1695550*
G03X1951172Y1695441I197J-0*
G01X1951371Y1694777D02*
G03X1951172Y1695441I-1205J0D01*
G01X1951371Y1694777D02*
Y1693793D01*
X1951294Y1693370D02*
G03X1951371Y1693793I-1128J423D01*
G01X1951294Y1693370D02*
G03Y1693232I185J-69D01*
G01X1951371Y1692809D02*
G03X1951294Y1693232I-1205J-0D01*
G01X1951371Y1692809D02*
Y1691824D01*
X1950166Y1690620D02*
G03X1951371Y1691824I0J1204D01*
G01X1950166Y1690620D02*
X1947804D01*
X1947361Y1690704D02*
G03X1947804Y1690620I443J1120D01*
G01X1947361Y1690704D02*
G03X1947288Y1690718I-73J-183D01*
G01X1946760*
X1945630Y1691186D02*
G03X1946760Y1690718I1130J1131D01*
G01X1945630Y1691186D02*
X1940682Y1696134D01*
G03X1940542Y1696192I-140J-139*
G01X1940502*
G03X1940305Y1695995I0J-197*
G01Y1695902*
X1939101Y1694697D02*
G03X1940305Y1695902I-0J1205D01*
G01X1939101Y1694697D02*
X1936101D01*
X1934896Y1695902D02*
G03X1936101Y1694697I1205J-0D01*
G01X1934896Y1695902D02*
Y1699702D01*
X1936101Y1700906D02*
G03X1934896Y1699702I-0J-1204D01*
G01X1936101Y1700906D02*
X1939101D01*
X1940305Y1699702D02*
G03X1939101Y1700906I-1204J-0D01*
G01X1940305Y1699702D02*
Y1699586D01*
G03X1940502Y1699389I197J-0*
G01X1941286*
X1942416Y1698921D02*
G03X1941286Y1699389I-1130J-1131D01*
G01X1942416Y1698921D02*
X1946232Y1695105D01*
G03X1946568Y1695244I140J139*
G01Y1701189*
G03X1946372Y1701385I-196J-0*
G01X1941729*
X1940327Y1702787D02*
G03X1941729Y1701385I1402J0D01*
G01X1940327Y1702787D02*
Y1716033D01*
X1941729Y1717434D02*
G03X1940327Y1716033I-0J-1401D01*
G01X1941729Y1717434D02*
X1948511D01*
X1949912Y1716033D02*
G03X1948511Y1717434I-1401J-0D01*
G01X1949912Y1716033D02*
Y1711099D01*
G03X1950109Y1710902I197J0*
G01X1950280*
X1950384Y1710898D02*
G03X1950280Y1710902I-104J-1397D01*
G01X1950384Y1710898D02*
G03X1950398I14J197D01*
G01X1950480*
X1951685Y1709693D02*
G03X1950480Y1710898I-1205J0D01*
G01X1924093Y1645082D02*
G03X1921804Y1648103I-271J2172D01*
G01X1924093Y1645082D02*
G03X1923982Y1645030I24J-196D01*
G01X1922810Y1644565D02*
G03X1923982Y1645030I0J1709D01*
G01X1922810Y1644565D02*
X1903230D01*
G03X1903091Y1644507I0J-197*
G01X1895113Y1636529*
X1893905Y1636029D02*
G03X1895113Y1636530I0J1709D01*
G01X1893905Y1636029D02*
X1876565D01*
G03X1876425Y1635971I-0J-197*
G01X1875704Y1635250*
G03X1875905Y1634924I140J-139*
G01X1878480Y1633953D02*
G03X1875905Y1634924I-1888J-1107D01*
G01X1878480Y1633953D02*
G03X1878812Y1633940I170J99D01*
G01X1878719Y1631581D02*
G03X1878812Y1633940I1889J1107D01*
G01X1878719Y1631581D02*
G03X1878388Y1631594I-170J-99D01*
G01X1874514Y1633533D02*
G03X1878388Y1631594I2078J-687D01*
G01X1874514Y1633533D02*
G03X1874187Y1633733I-187J61D01*
G01X1873541Y1633087*
G03X1873483Y1632948I139J-139*
G01Y1632351*
G03X1873523Y1632233I197J0*
G01X1870026D02*
G03X1873523I1749J-1318D01*
G01X1870026D02*
G03X1870066Y1632351I-157J118D01*
G01Y1633737*
X1870566Y1634945D02*
G03X1870066Y1633737I1209J-1208D01*
G01X1870566Y1634945D02*
X1874513Y1638892D01*
G03X1874421Y1639223I-139J140*
G01X1876663Y1642698D02*
G03X1874421Y1639223I-1725J-1348D01*
G01X1876663Y1642698D02*
G03X1876985Y1642714I155J121D01*
G01X1880075Y1643352D02*
G03X1876985Y1642714I-1239J-1805D01*
G01X1880075Y1643352D02*
G03X1880328Y1643378I111J162D01*
G01X1882713Y1639826D02*
G03X1880328Y1643378I-806J2036D01*
G01X1882713Y1639826D02*
G03X1882785Y1639446I72J-183D01*
G01X1893116*
G03X1893255Y1639504I-0J197*
G01X1901233Y1647482*
X1902441Y1647982D02*
G03X1901233Y1647482I-0J-1708D01*
G01X1902441Y1647982D02*
X1904207D01*
G03X1904378Y1648277I-0J197*
G01X1904305Y1650307D02*
G03X1904378Y1648277I1974J-946D01*
G01X1904305Y1650307D02*
G03Y1650478I-177J86D01*
G01X1904271Y1652304D02*
G03X1904305Y1650478I2006J-875D01*
G01X1904271Y1652304D02*
G03X1904267Y1652471I-180J79D01*
G01X1907419Y1655280D02*
G03X1904267Y1652471I-1191J-1836D01*
G01X1907419Y1655280D02*
G03X1907622Y1655274I107J166D01*
G01X1910649Y1652389D02*
G03X1907622Y1655274I-1961J973D01*
G01X1910649Y1652389D02*
G03X1910645Y1652221I176J-88D01*
G01X1910627Y1650399D02*
G03X1910645Y1652221I-1981J931D01*
G01X1910627Y1650399D02*
G03X1910629Y1650228I178J-84D01*
G01X1910620Y1648268D02*
G03X1910629Y1650228I-1953J988D01*
G01X1910620Y1648268D02*
G03X1910796Y1647982I176J-89D01*
G01X1921623*
G03X1921804Y1648103I-0J197*
G01X1915765Y1671035D02*
G03X1915765I-8464J0D01*
G01X1883860Y1672334D02*
G03X1883860I-2189J0D01*
G01X1835946Y1624972D02*
G03X1835946I-2189J0D01*
G01X1857841Y1642733D02*
G03X1854727Y1642880I-1485J1609D01*
G01X1857841Y1642733D02*
G03X1857828Y1642457I133J-144D01*
G01X1854714Y1642604D02*
G03X1857828Y1642457I1484J-1609D01*
G01X1854714Y1642604D02*
G03X1854727Y1642880I-134J145D01*
G01X1831109Y1665561D02*
G03X1827587I-1761J1301D01*
G01X1831109D02*
G03Y1665327I158J-117D01*
G01X1827587D02*
G03X1831109I1761J-1300D01*
G01X1827587D02*
G03Y1665561I-158J117D01*
G01X1802403Y1619027D02*
G03X1802403I-2189J0D01*
G01X1790844Y1582728D02*
G03X1790844I-5315J0D01*
G01X1787120Y1614460D02*
G03X1787120I-3205J0D01*
G01Y1633672D02*
G03X1787120I-3205J0D01*
G01X1787830Y1669614D02*
G03X1787954Y1673394I1164J1854D01*
G01X1787830Y1669614D02*
G03X1787632Y1669620I-105J-167D01*
G01X1787756Y1673401D02*
G03X1787632Y1669620I-1164J-1854D01*
G01X1787756Y1673401D02*
G03X1787954Y1673394I104J166D01*
G01X1779912Y1646499D02*
G03X1778343Y1649870I263J2174D01*
G01X1779912Y1646499D02*
G03X1779723Y1646412I-24J-195D01*
G01X1776032Y1646454D02*
G03X1779723Y1646412I1859J1156D01*
G01X1776032Y1646454D02*
G03X1775837Y1646545I-167J-104D01*
G01X1777388Y1649868D02*
G03X1775837Y1646545I-1859J-1156D01*
G01X1777388Y1649868D02*
G03X1777583Y1649777I167J104D01*
G01X1778154Y1649783D02*
G03X1777583Y1649777I-263J-2173D01*
G01X1778154Y1649783D02*
G03X1778343Y1649870I24J195D01*
G01X1849883Y1603200D02*
G03X1849883I-2189J0D01*
G01X1843532Y1581834D02*
G03X1843532I-4158J0D01*
G01X1837088Y1603594D02*
G03X1837088I-2189J0D01*
G01X1873532Y1584787D02*
Y1578881D01*
X1872327Y1577677D02*
G03X1873532Y1578881I0J1204D01*
G01X1872327Y1577677D02*
X1866422D01*
X1865217Y1578881D02*
G03X1866422Y1577677I1205J0D01*
G01X1865217Y1578881D02*
Y1584787D01*
X1866422Y1585992D02*
G03X1865217Y1584787I-0J-1205D01*
G01X1866422Y1585992D02*
X1872327D01*
X1873532Y1584787D02*
G03X1872327Y1585992I-1205J0D01*
G01X1863532Y1581834D02*
G03X1863532I-4158J0D01*
G01X1945553Y1649893D02*
G03X1945553I-2189J0D01*
G01X1954097Y1675895D02*
Y1668808D01*
X1954091Y1668687D02*
G03X1954097Y1668808I-1198J121D01*
G01X1954091Y1668687D02*
G03X1954090Y1668671I196J-20D01*
G01X1952689Y1667299D02*
G03X1954090Y1668671I0J1402D01*
G01X1952689Y1667299D02*
X1941236D01*
X1939834Y1668701D02*
G03X1941236Y1667299I1402J-0D01*
G01X1939834Y1668701D02*
Y1676666D01*
X1941236Y1678067D02*
G03X1939834Y1676666I-0J-1401D01*
G01X1941236Y1678067D02*
X1943153D01*
G03X1943350Y1678264I0J197*
G01Y1688438*
X1944752Y1689839D02*
G03X1943350Y1688438I-0J-1401D01*
G01X1944752Y1689839D02*
X1947024D01*
G03X1947134Y1689873I0J197*
G01X1947804Y1690076D02*
G03X1947134Y1689873I0J-1204D01*
G01X1947804Y1690076D02*
X1950166D01*
X1951371Y1688872D02*
G03X1950166Y1690076I-1205J-0D01*
G01X1951371Y1688872D02*
Y1687887D01*
X1950947Y1686970D02*
G03X1951371Y1687887I-781J917D01*
G01X1950947Y1686970D02*
G03X1950878Y1686820I128J-150D01*
G01Y1678619*
G03X1951075Y1678422I197J0*
G01X1952232*
X1953278Y1677954D02*
G03X1952232Y1678422I-1046J-933D01*
G01X1953278Y1677954D02*
G03X1953334Y1677910I147J131D01*
G01X1954091Y1676666D02*
G03X1953334Y1677910I-1402J-0D01*
G01X1954091Y1676666D02*
Y1676034D01*
G03X1954092Y1676014I197J-0*
G01X1954097Y1675895D02*
G03X1954092Y1676014I-1204J0D01*
G01X1932276Y1589899D02*
G03Y1593194I1442J1648D01*
G01Y1589899D02*
G03X1932147Y1589948I-129J-148D01*
G01X1915861*
G03X1915693Y1589853I0J-197*
G01X1914192Y1593141D02*
G03X1915693Y1589853I-373J-2157D01*
G01X1914192Y1593141D02*
G03X1914243Y1593139I34J194D01*
G01X1914381Y1593145D02*
G03X1914243Y1593139I0J-1598D01*
G01X1914381Y1593145D02*
X1932147D01*
G03X1932276Y1593194I-0J197*
G01X1952843Y1620818D02*
G03X1954854Y1624119I127J2185D01*
G01X1952843Y1620818D02*
X1951843Y1620876D01*
G03X1951765Y1620865I-11J-196*
G01X1951353Y1620792D02*
G03X1951765Y1620865I-0J1205D01*
G01X1951353Y1620792D02*
X1945053D01*
X1944407Y1620980D02*
G03X1945053Y1620792I646J1017D01*
G01X1944407Y1620980D02*
G03X1944301Y1621011I-106J-166D01*
G01X1937104*
X1935911Y1621677D02*
G03X1937104Y1621011I1193J736D01*
G01X1935911Y1621677D02*
G03X1935691Y1621763I-167J-104D01*
G01X1935372Y1621720D02*
G03X1935691Y1621763I-0J1205D01*
G01X1935372Y1621720D02*
X1926710D01*
X1926458Y1621746D02*
G03X1926710Y1621720I252J1179D01*
G01X1926458Y1621746D02*
G03X1926417Y1621751I-41J-192D01*
G01X1920214*
X1918813Y1623152D02*
G03X1920214Y1621751I1401J0D01*
G01X1918813Y1623152D02*
Y1626525D01*
G03X1918616Y1626722I-197J0*
G01X1918055*
X1916663Y1627963D02*
G03X1918055Y1626722I1392J161D01*
G01X1916663Y1627963D02*
G03X1916467Y1628137I-196J-23D01*
G01X1905687*
G03X1905490Y1627940I0J-197*
G01Y1627127*
X1904908Y1626096D02*
G03X1905490Y1627127I-622J1031D01*
G01X1904908Y1626096D02*
G03Y1625759I102J-169D01*
G01X1905490Y1624727D02*
G03X1904908Y1625759I-1204J0D01*
G01X1905490Y1624727D02*
Y1620927D01*
X1905429Y1620549D02*
G03X1905490Y1620927I-1143J378D01*
G01X1905429Y1620549D02*
G03X1905477Y1620348I187J-62D01*
G01X1911676Y1614149*
G03X1911815Y1614091I139J139*
G01X1917941*
X1919488Y1613450D02*
G03X1917941Y1614091I-1547J-1548D01*
G01X1919488Y1613450D02*
X1919501Y1613438D01*
X1917732Y1609712D02*
G03X1919501Y1613438I221J2178D01*
G01X1917732Y1609712D02*
G03X1917712Y1609713I-20J-196D01*
G01X1910827*
X1910612Y1609723D02*
G03X1910827Y1609713I215J2179D01*
G01X1910612Y1609723D02*
G03X1910454Y1609388I-19J-195D01*
G01X1911633Y1608209*
G03X1911773Y1608151I140J139*
G01X1928737*
G03X1928876Y1608209I-0J197*
G01X1934722Y1614055*
X1935852Y1614523D02*
G03X1934722Y1614055I0J-1598D01*
G01X1935852Y1614523D02*
X1945490D01*
X1946620Y1614055D02*
G03X1945490Y1614523I-1130J-1130D01*
G01X1946620Y1614055D02*
X1947255Y1613419D01*
G03X1947351Y1613367I140J140*
G01X1944681Y1611138D02*
G03X1947351Y1613367I2187J94D01*
G01X1944681Y1611138D02*
G03X1944484Y1611326I-197J-9D01*
G01X1936596*
G03X1936457Y1611268I0J-197*
G01X1934455Y1609266*
G03X1934515Y1608947I139J-139*
G01X1933785Y1604756D02*
G03X1934515Y1608947I-146J2184D01*
G01X1933785Y1604756D02*
G03X1933658Y1604699I13J-196D01*
G01X1933461Y1604502*
G03X1933591Y1604166I139J-139*
G01X1932040Y1600333D02*
G03X1933591Y1604166I1442J1647D01*
G01X1932040Y1600333D02*
G03X1931910Y1600381I-130J-149D01*
G01X1874908*
G03X1874769Y1600324I0J-197*
G01X1873917Y1599472*
G03X1873860Y1599334I140J-139*
G01X1873746Y1598646D02*
G03X1873860Y1599334I-2075J696D01*
G01X1873746Y1598646D02*
G03X1874034Y1598414I187J-63D01*
G01X1876612Y1598172D02*
G03X1874034Y1598414I-1455J-1637D01*
G01X1876612Y1598172D02*
G03X1876720Y1598123I130J147D01*
G01X1877666Y1597666D02*
G03X1876720Y1598123I-1131J-1131D01*
G01X1877666Y1597666D02*
X1880757Y1594575D01*
G03X1880896Y1594517I139J139*
G01X1897510*
X1898640Y1594049D02*
G03X1897510Y1594517I-1130J-1130D01*
G01X1898640Y1594049D02*
X1905167Y1587523D01*
G03X1905203Y1587494I139J139*
G01X1901921Y1586117D02*
G03X1905203Y1587494I2134J-487D01*
G01X1901921Y1586117D02*
G03X1901868Y1586300I-192J44D01*
G01X1896905Y1591263*
G03X1896766Y1591320I-139J-140*
G01X1893323*
G03X1893212Y1590961I0J-197*
G01X1893441Y1590771D02*
G03X1893212Y1590961I-1130J-1130D01*
G01X1893441Y1590771D02*
X1895382Y1588830D01*
X1895850Y1587700D02*
G03X1895382Y1588830I-1598J-0D01*
G01X1895850Y1587700D02*
Y1587241D01*
G03X1895899Y1587111I197J-0*
G01X1892488Y1586966D02*
G03X1895899Y1587111I1764J-1297D01*
G01X1892488Y1586966D02*
G03X1892469Y1587222I-158J117D01*
G01X1891706Y1587985*
G03X1891567Y1588042I-139J-139*
G01X1885789*
G03X1885612Y1587760I-0J-196*
G01X1885772Y1587063D02*
G03X1885612Y1587760I-1599J-0D01*
G01X1885772Y1587063D02*
Y1586965D01*
G03X1885820Y1586835I197J0*
G01X1882138Y1586198D02*
G03X1885820Y1586835I2035J-804D01*
G01X1882138Y1586198D02*
G03X1881954Y1586468I-184J73D01*
G01X1854493*
X1853363Y1586936D02*
G03X1854493Y1586468I1130J1130D01*
G01X1853363Y1586936D02*
X1847934Y1592365D01*
G03X1847807Y1592422I-140J-139*
G01X1846737Y1596426D02*
G03X1847807Y1592422I1216J-1820D01*
G01X1846737Y1596426D02*
G03X1846814Y1596650I-110J164D01*
G01X1851082Y1597468D02*
G03X1846814Y1596650I-2184J-145D01*
G01X1851082Y1597468D02*
G03X1851139Y1597342I196J13D01*
G01X1857184Y1591297*
G03X1857323Y1591239I139J139*
G01X1879140*
G03X1879251Y1591599I-0J197*
G01X1879022Y1591788D02*
G03X1879251Y1591599I1130J1131D01*
G01X1879022Y1591788D02*
X1876300Y1594510D01*
G03X1876078Y1594549I-139J-139*
G01X1873082Y1597232D02*
G03X1876078Y1594550I2075J-697D01*
G01X1873082Y1597232D02*
G03X1872795Y1597463I-186J62D01*
G01X1871379Y1601511D02*
G03X1872795Y1597463I292J-2169D01*
G01X1871379Y1601511D02*
G03X1871491Y1601567I-27J195D01*
G01X1873034Y1603110*
X1874165Y1603578D02*
G03X1873034Y1603110I-0J-1598D01*
G01X1874165Y1603578D02*
X1892524D01*
G03X1892717Y1603815I0J197*
G01X1892972Y1605371D02*
G03X1892717Y1603815I1888J-1108D01*
G01X1892972Y1605371D02*
G03X1892969Y1605576I-170J100D01*
G01X1892687Y1607235D02*
G03X1892969Y1605576I2133J-492D01*
G01X1892687Y1607235D02*
G03X1892496Y1607477I-191J45D01*
G01X1875642*
G03X1875451Y1607326I0J-197*
G01X1871771Y1609388D02*
G03X1875451Y1607326I1553J-1542D01*
G01X1871771Y1609388D02*
G03X1871631Y1609724I-140J139D01*
G01X1869515*
G03X1869376Y1609666I-0J-197*
G01X1868516Y1608806*
X1867311Y1608307D02*
G03X1868516Y1608806I-0J1705D01*
G01X1867311Y1608307D02*
X1837056D01*
X1832370*
X1831808Y1608402D02*
G03X1832370Y1608307I562J1610D01*
G01X1831808Y1608402D02*
G03X1831743Y1608413I-65J-185D01*
G01X1831203*
G03X1831138Y1608402I0J-196*
G01X1830576Y1608307D02*
G03X1831138Y1608402I0J1705D01*
G01X1830576Y1608307D02*
X1828916D01*
G03X1828777Y1608250I-0J-197*
G01X1827170Y1606642*
X1822753Y1602226*
G03X1822698Y1602114I140J-139*
G01X1818652Y1601286D02*
G03X1822698Y1602114I1877J1127D01*
G01X1818652Y1601286D02*
G03X1818389Y1601358I-169J-101D01*
G01X1815247Y1603921D02*
G03X1818389Y1601358I2093J-642D01*
G01X1815247Y1603921D02*
G03X1815124Y1604165I-188J58D01*
G01X1817937Y1605590D02*
G03X1815124Y1604165I-2093J642D01*
G01X1817937Y1605590D02*
G03X1818060Y1605346I188J-58D01*
G01X1819217Y1604406D02*
G03X1818060Y1605346I-1877J-1127D01*
G01X1819217Y1604406D02*
G03X1819480Y1604334I169J101D01*
G01X1820230Y1604581D02*
G03X1819480Y1604334I299J-2168D01*
G01X1820230Y1604581D02*
G03X1820342Y1604637I-27J195D01*
G01X1824759Y1609053*
X1826923Y1611217*
X1827193Y1611437D02*
G03X1826923Y1611217I935J-1425D01*
G01X1827193Y1611437D02*
G03X1827085Y1611799I-108J165D01*
G01X1809162*
G03X1809023Y1611741I-0J-197*
G01X1808530Y1611248*
G03X1808475Y1611142I139J-139*
G01X1807799Y1609897D02*
G03X1808475Y1611142I-1483J1610D01*
G01X1807799Y1609897D02*
G03X1807829Y1609585I134J-145D01*
G01X1808842Y1608002D02*
G03X1807829Y1609585I-2171J-274D01*
G01X1808843Y1608002D02*
G03X1809187Y1607898I195J25D01*
G01X1808672Y1606194D02*
G03X1809187Y1607898I2172J274D01*
G01X1808672Y1606194D02*
G03X1808328Y1606298I-195J-25D01*
G01X1805188Y1609338D02*
G03X1808328Y1606298I1483J-1610D01*
G01X1805188Y1609338D02*
G03X1805158Y1609650I-134J145D01*
G01X1806370Y1613696D02*
G03X1805158Y1609650I-54J-2189D01*
G01X1806370Y1613696D02*
G03X1806514Y1613753I5J196D01*
G01X1807288Y1614527*
X1808418Y1614995D02*
G03X1807288Y1614527I0J-1598D01*
G01X1808418Y1614995D02*
X1845927D01*
G03X1846066Y1615053I0J197*
G01X1847303Y1616290*
G03X1847361Y1616416I-139J139*
G01X1849690Y1614087D02*
G03X1847361Y1616416I-145J2184D01*
G01X1849690Y1614087D02*
G03X1849564Y1614030I13J-197D01*
G01X1847801Y1612267*
X1847571Y1612076D02*
G03X1847801Y1612267I-900J1321D01*
G01X1847571Y1612076D02*
G03X1847682Y1611717I111J-162D01*
G01X1866523*
G03X1866662Y1611774I-0J197*
G01X1867522Y1612634*
X1868727Y1613133D02*
G03X1867522Y1612634I0J-1704D01*
G01X1868727Y1613133D02*
X1882198D01*
G03X1882317Y1613173I0J197*
G01X1885767Y1610916D02*
G03X1882317Y1613173I-2128J513D01*
G01X1885767Y1610916D02*
G03X1885959Y1610673I192J-46D01*
G01X1902036*
G03X1902137Y1611039I-0J197*
G01X1904198Y1614895D02*
G03X1902137Y1611039I-930J-1982D01*
G01X1904198Y1614895D02*
G03X1904421Y1615212I84J178D01*
G01X1901238Y1618395*
X1900599Y1619848D02*
G03X1901238Y1618395I2187J95D01*
G01X1900599Y1619848D02*
G03X1900526Y1619992I-197J-9D01*
G01X1900081Y1620927D02*
G03X1900526Y1619992I1205J0D01*
G01X1900081Y1620927D02*
Y1624727D01*
X1900663Y1625759D02*
G03X1900081Y1624727I623J-1032D01*
G01X1900663Y1625759D02*
G03Y1626096I-102J168D01*
G01X1900081Y1627127D02*
G03X1900663Y1626096I1205J0D01*
G01X1900081Y1627127D02*
Y1627960D01*
G03X1899915Y1628155I-197J0*
G01X1898734Y1629539D02*
G03X1899915Y1628155I1401J-0D01*
G01X1898734Y1629539D02*
Y1631710D01*
G03X1898544Y1631907I-197J0*
G01X1899032Y1636245D02*
G03X1898544Y1631907I-410J-2151D01*
G01X1899032Y1636245D02*
G03X1899200Y1636291I37J193D01*
G01X1900135Y1636649D02*
G03X1899200Y1636291I0J-1402D01*
G01X1900135Y1636649D02*
X1907219D01*
X1907528Y1636614D02*
G03X1907219Y1636649I-309J-1367D01*
G01X1907528Y1636614D02*
G03X1907572Y1636610I44J192D01*
G01X1909811*
G03X1909999Y1636749I0J196*
G01X1911152Y1637603D02*
G03X1909999Y1636749I-0J-1205D01*
G01X1911152Y1637603D02*
X1918239D01*
X1919444Y1636398D02*
G03X1918239Y1637603I-1205J0D01*
G01X1919444Y1636398D02*
Y1635989D01*
G03X1919469Y1635892I196J-0*
G01X1919646Y1635271D02*
G03X1919469Y1635892I-1400J-63D01*
G01X1919646Y1635271D02*
G03X1919950Y1635115I196J9D01*
G01X1920608Y1635310D02*
G03X1919950Y1635115I-0J-1204D01*
G01X1920608Y1635310D02*
X1925332D01*
X1925503Y1635298D02*
G03X1925332Y1635310I-171J-1192D01*
G01X1925503Y1635298D02*
G03X1925696Y1635387I28J195D01*
G01X1926710Y1635940D02*
G03X1925697Y1635387I0J-1204D01*
G01X1926710Y1635940D02*
X1935372D01*
X1936576Y1634736D02*
G03X1935372Y1635940I-1204J-0D01*
G01X1936576Y1634736D02*
Y1632638D01*
G03X1936814Y1632445I197J0*
G01X1937104Y1632476D02*
G03X1936814Y1632445I-0J-1402D01*
G01X1937104Y1632476D02*
X1938370D01*
G03X1938431Y1632486I0J197*
G01X1939792D02*
G03X1938431I-680J-2081D01*
G01X1939792D02*
G03X1939853Y1632476I61J187D01*
G01X1943836*
X1945238Y1631074D02*
G03X1943836Y1632476I-1402J0D01*
G01X1945238Y1631074D02*
Y1627476D01*
G03X1945435Y1627279I197J-0*
G01X1946571*
G03X1946625Y1627286I-0J197*
G01X1947222Y1627369D02*
G03X1946625Y1627286I-0J-2189D01*
G01X1947222Y1627369D02*
X1949325D01*
G03X1949335Y1627370I0J197*
G01X1952816Y1627552*
X1954850Y1624314D02*
G03X1952816Y1627552I-1919J1052D01*
G01X1954850Y1624314D02*
G03X1954854Y1624119I173J-95D01*
G01X1956644Y1655187D02*
G03X1953770Y1658144I-1965J965D01*
G01X1956644Y1655187D02*
G03X1956642Y1655018I177J-87D01*
G01X1953763Y1652105D02*
G03X1956642Y1655018I890J2000D01*
G01X1953763Y1652105D02*
G03X1953593Y1652100I-80J-180D01*
G01X1951626Y1652075D02*
G03X1953593Y1652100I958J1968D01*
G01X1951626Y1652075D02*
G03X1951455Y1652076I-87J-177D01*
G01X1948520Y1654947D02*
G03X1951455Y1652076I1999J-893D01*
G01X1948520Y1654948D02*
G03X1948514Y1655121I-179J80D01*
G01X1951375Y1658134D02*
G03X1948514Y1655121I-930J-1982D01*
G01X1951375Y1658134D02*
G03X1951551Y1658139I84J178D01*
G01X1953597Y1658148D02*
G03X1951551Y1658139I-1014J-1940D01*
G01X1953597Y1658148D02*
G03X1953770Y1658144I91J175D01*
G01X1920362Y1723947D02*
X1967616D01*
X1920362Y1723593D02*
X1967616D01*
X1920362Y1723238D02*
X1967616D01*
X1920362Y1722884D02*
X1967616D01*
X1920362Y1722530D02*
X1967616D01*
X1920362Y1722175D02*
X1967616D01*
X1920362Y1721821D02*
X1967616D01*
X1920362Y1721467D02*
X1967616D01*
X1920362Y1721112D02*
X1967616D01*
X1920362Y1720758D02*
X1967616D01*
X1920362Y1720404D02*
X1967616D01*
X1920362Y1720049D02*
X1967616D01*
X1920362Y1719695D02*
X1967616D01*
X1920362Y1719341D02*
X1967616D01*
X1920362Y1718986D02*
X1967616D01*
X1920362Y1718632D02*
X1967616D01*
X1920362Y1718278D02*
X1967616D01*
X1920362Y1717923D02*
X1967616D01*
X1920362Y1717569D02*
X1967616D01*
X1949264Y1717215D02*
X1967616D01*
X1949642Y1716860D02*
X1967616D01*
X1949830Y1716506D02*
X1967616D01*
X1949907Y1716152D02*
X1967616D01*
X1949912Y1715797D02*
X1967616D01*
X1949912Y1715443D02*
X1967616D01*
X1949912Y1715089D02*
X1967616D01*
X1949912Y1714734D02*
X1967616D01*
X1949912Y1714380D02*
X1967616D01*
X1949912Y1714026D02*
X1967616D01*
X1949912Y1713671D02*
X1967616D01*
X1949912Y1713317D02*
X1967616D01*
X1949912Y1712963D02*
X1967616D01*
X1949912Y1712608D02*
X1967616D01*
X1949912Y1712254D02*
X1967616D01*
X1949912Y1711900D02*
X1967616D01*
X1949912Y1711545D02*
X1967616D01*
X1949912Y1711191D02*
X1967616D01*
X1950859Y1710837D02*
X1967616D01*
X1951390Y1710482D02*
X1967616D01*
X1951604Y1710128D02*
X1967616D01*
X1951682Y1709774D02*
X1967616D01*
X1951685Y1709419D02*
X1967616D01*
X1951685Y1709065D02*
X1967616D01*
X1951685Y1708711D02*
X1967616D01*
X1951685Y1708356D02*
X1967616D01*
X1951685Y1708002D02*
X1967616D01*
X1951685Y1707648D02*
X1967616D01*
X1951685Y1707293D02*
X1967616D01*
X1951685Y1706939D02*
X1967616D01*
X1951685Y1706585D02*
X1967616D01*
X1951685Y1706230D02*
X1967616D01*
X1951685Y1705876D02*
X1967616D01*
X1951685Y1705522D02*
X1967616D01*
X1951685Y1705167D02*
X1967616D01*
X1951685Y1704813D02*
X1967616D01*
X1951685Y1704459D02*
X1967616D01*
X1966566Y1704104D02*
X1967616D01*
X1967051Y1703750D02*
X1967616D01*
X1966833Y1687451D02*
X1967616D01*
X1965057Y1687097D02*
X1967616D01*
X1965057Y1686742D02*
X1967616D01*
X1965057Y1686388D02*
X1967616D01*
X1965057Y1686034D02*
X1967616D01*
X1965056Y1685679D02*
X1967616D01*
X1964984Y1685325D02*
X1967616D01*
X1964780Y1684971D02*
X1967616D01*
X1964395Y1684616D02*
X1967616D01*
X1964628Y1684262D02*
X1967616D01*
X1964915Y1683908D02*
X1967616D01*
X1965038Y1683553D02*
X1967616D01*
X1965057Y1683199D02*
X1967616D01*
X1965057Y1682845D02*
X1967616D01*
X1965057Y1682490D02*
X1967616D01*
X1965057Y1682136D02*
X1967616D01*
X1965057Y1681782D02*
X1967616D01*
X1965057Y1681427D02*
X1967616D01*
X1965057Y1681073D02*
X1967616D01*
X1965057Y1680719D02*
X1967616D01*
X1965057Y1680364D02*
X1967616D01*
X1965057Y1680010D02*
X1967616D01*
X1965057Y1679656D02*
X1967616D01*
X1965033Y1679301D02*
X1967616D01*
X1964901Y1678947D02*
X1967616D01*
X1964597Y1678593D02*
X1967616D01*
X1952926Y1678238D02*
X1967616D01*
X1953382Y1677884D02*
X1967616D01*
X1953793Y1677530D02*
X1967616D01*
X1953995Y1677175D02*
X1967616D01*
X1954082Y1676821D02*
X1967616D01*
X1954091Y1676467D02*
X1967616D01*
X1954091Y1676112D02*
X1967616D01*
X1954097Y1675758D02*
X1967616D01*
X1954097Y1675404D02*
X1967616D01*
X1954097Y1675049D02*
X1967616D01*
X1954097Y1674695D02*
X1967616D01*
X1954097Y1674341D02*
X1967616D01*
X1954097Y1673986D02*
X1967616D01*
X1954097Y1673632D02*
X1967616D01*
X1954097Y1673278D02*
X1967616D01*
X1954097Y1672923D02*
X1967616D01*
X1954097Y1672569D02*
X1967616D01*
X1954097Y1672215D02*
X1967616D01*
X1954097Y1671860D02*
X1967616D01*
X1954097Y1671506D02*
X1967616D01*
X1954097Y1671152D02*
X1967616D01*
X1954097Y1670797D02*
X1967616D01*
X1954097Y1670443D02*
X1967616D01*
X1954097Y1670089D02*
X1967616D01*
X1954097Y1669734D02*
X1967616D01*
X1954097Y1669380D02*
X1967616D01*
X1954097Y1669026D02*
X1967616D01*
X1954090Y1668671D02*
X1967616D01*
X1954037Y1668317D02*
X1967616D01*
X1953880Y1667963D02*
X1967616D01*
X1953567Y1667608D02*
X1967616D01*
X1914874Y1667254D02*
X1967616D01*
X1914686Y1666900D02*
X1967616D01*
X1914477Y1666545D02*
X1967616D01*
X1914242Y1666191D02*
X1967616D01*
X1913981Y1665837D02*
X1967616D01*
X1913690Y1665482D02*
X1967616D01*
X1913364Y1665128D02*
X1967616D01*
X1912997Y1664774D02*
X1967616D01*
X1912581Y1664419D02*
X1967616D01*
X1912104Y1664065D02*
X1967616D01*
X1911544Y1663711D02*
X1967616D01*
X1910863Y1663356D02*
X1967616D01*
X1909970Y1663002D02*
X1967616D01*
X1908443Y1662648D02*
X1967616D01*
X1869937Y1662293D02*
X1967616D01*
X1869796Y1661939D02*
X1967616D01*
X1869534Y1661585D02*
X1967616D01*
X1869180Y1661230D02*
X1967616D01*
X1868825Y1660876D02*
X1967616D01*
X1868685Y1660522D02*
X1967616D01*
X1868685Y1660167D02*
X1967616D01*
X1868685Y1659813D02*
X1967616D01*
X1868685Y1659459D02*
X1967616D01*
X1868685Y1659104D02*
X1967616D01*
X1868685Y1658750D02*
X1967616D01*
X1952660Y1658396D02*
X1967616D01*
X1955786Y1658041D02*
X1967616D01*
X1956240Y1657687D02*
X1967616D01*
X1956523Y1657333D02*
X1967616D01*
X1956707Y1656978D02*
X1967616D01*
X1956817Y1656624D02*
X1967616D01*
X1956865Y1656270D02*
X1967616D01*
X1956856Y1655915D02*
X1967616D01*
X1956787Y1655561D02*
X1967616D01*
X1956654Y1655207D02*
X1967616D01*
X1956710Y1654852D02*
X1967616D01*
X1956806Y1654498D02*
X1967616D01*
X1956841Y1654144D02*
X1967616D01*
X1956819Y1653789D02*
X1967616D01*
X1956736Y1653435D02*
X1967616D01*
X1956587Y1653081D02*
X1967616D01*
X1956353Y1652726D02*
X1967616D01*
X1955990Y1652372D02*
X1967616D01*
X1955312Y1652018D02*
X1967616D01*
X1944651Y1651663D02*
X1967616D01*
X1945033Y1651309D02*
X1967616D01*
X1945278Y1650955D02*
X1967616D01*
X1945435Y1650600D02*
X1967616D01*
X1945524Y1650246D02*
X1967616D01*
X1945553Y1649892D02*
X1967616D01*
X1945524Y1649537D02*
X1967616D01*
X1945434Y1649183D02*
X1967616D01*
X1945277Y1648829D02*
X1967616D01*
X1945031Y1648474D02*
X1967616D01*
X1944648Y1648120D02*
X1967616D01*
X1943880Y1647766D02*
X1967616D01*
X1926005Y1647411D02*
X1967616D01*
X1926002Y1647057D02*
X1967616D01*
X1925940Y1646703D02*
X1967616D01*
X1925815Y1646348D02*
X1967616D01*
X1925612Y1645994D02*
X1967616D01*
X1925301Y1645640D02*
X1967616D01*
X1924780Y1645285D02*
X1967616D01*
X1923868Y1644931D02*
X1967616D01*
X1923013Y1644577D02*
X1967616D01*
X1902806Y1644223D02*
X1967616D01*
X1902452Y1643868D02*
X1967616D01*
X1902098Y1643514D02*
X1967616D01*
X1901743Y1643160D02*
X1967616D01*
X1901389Y1642805D02*
X1967616D01*
X1901035Y1642451D02*
X1967616D01*
X1900680Y1642097D02*
X1967616D01*
X1900326Y1641742D02*
X1967616D01*
X1899972Y1641388D02*
X1967616D01*
X1899617Y1641034D02*
X1967616D01*
X1899263Y1640679D02*
X1967616D01*
X1898909Y1640325D02*
X1967616D01*
X1898554Y1639971D02*
X1967616D01*
X1898200Y1639616D02*
X1967616D01*
X1897846Y1639262D02*
X1967616D01*
X1897491Y1638908D02*
X1967616D01*
X1897137Y1638553D02*
X1967616D01*
X1896783Y1638199D02*
X1967616D01*
X1896428Y1637845D02*
X1967616D01*
X1918748Y1637490D02*
X1967616D01*
X1919192Y1637136D02*
X1967616D01*
X1919381Y1636782D02*
X1967616D01*
X1919443Y1636427D02*
X1967616D01*
X1919444Y1636073D02*
X1967616D01*
X1936068Y1635719D02*
X1967616D01*
X1936399Y1635364D02*
X1967616D01*
X1936545Y1635010D02*
X1967616D01*
X1936576Y1634656D02*
X1967616D01*
X1936576Y1634301D02*
X1967616D01*
X1936576Y1633947D02*
X1967616D01*
X1936576Y1633593D02*
X1967616D01*
X1936576Y1633238D02*
X1967616D01*
X1936576Y1632884D02*
X1967616D01*
X1939638Y1632530D02*
X1967616D01*
X1944703Y1632175D02*
X1967616D01*
X1945022Y1631821D02*
X1967616D01*
X1945182Y1631467D02*
X1967616D01*
X1945237Y1631112D02*
X1967616D01*
X1945238Y1630758D02*
X1967616D01*
X1945238Y1630404D02*
X1967616D01*
X1945238Y1630049D02*
X1967616D01*
X1945238Y1629695D02*
X1967616D01*
X1945238Y1629341D02*
X1967616D01*
X1945238Y1628986D02*
X1967616D01*
X1945238Y1628632D02*
X1967616D01*
X1945238Y1628278D02*
X1967616D01*
X1945238Y1627923D02*
X1967616D01*
X1945238Y1627569D02*
X1967616D01*
X1954102Y1627215D02*
X1967616D01*
X1954530Y1626860D02*
X1967616D01*
X1954799Y1626506D02*
X1967616D01*
X1954974Y1626152D02*
X1967616D01*
X1955077Y1625797D02*
X1967616D01*
X1955118Y1625443D02*
X1967616D01*
X1955102Y1625089D02*
X1967616D01*
X1955027Y1624734D02*
X1967616D01*
X1954885Y1624380D02*
X1967616D01*
X1954906Y1624026D02*
X1967616D01*
X1955055Y1623671D02*
X1967616D01*
X1955136Y1623317D02*
X1967616D01*
X1955159Y1622963D02*
X1967616D01*
X1955123Y1622608D02*
X1967616D01*
X1955027Y1622254D02*
X1967616D01*
X1954860Y1621900D02*
X1967616D01*
X1954603Y1621545D02*
X1967616D01*
X1954198Y1621191D02*
X1967616D01*
X1953282Y1620837D02*
X1967616D01*
X1905419Y1620482D02*
X1967616D01*
X1905697Y1620128D02*
X1967616D01*
X1906051Y1619774D02*
X1967616D01*
X1906405Y1619419D02*
X1967616D01*
X1906760Y1619065D02*
X1967616D01*
X1907114Y1618711D02*
X1967616D01*
X1907468Y1618356D02*
X1967616D01*
X1907823Y1618002D02*
X1967616D01*
X1908177Y1617648D02*
X1967616D01*
X1908531Y1617293D02*
X1967616D01*
X1908886Y1616939D02*
X1967616D01*
X1909240Y1616585D02*
X1967616D01*
X1909594Y1616230D02*
X1967616D01*
X1909949Y1615876D02*
X1967616D01*
X1910303Y1615522D02*
X1967616D01*
X1910657Y1615167D02*
X1967616D01*
X1911012Y1614813D02*
X1967616D01*
X1945938Y1614459D02*
X1967616D01*
X1946568Y1614104D02*
X1967616D01*
X1946925Y1613750D02*
X1967616D01*
X1947284Y1613396D02*
X1967616D01*
X1948099Y1613041D02*
X1967616D01*
X1948503Y1612687D02*
X1967616D01*
X1948760Y1612333D02*
X1967616D01*
X1948925Y1611978D02*
X1967616D01*
X1949021Y1611624D02*
X1967616D01*
X1949056Y1611270D02*
X1967616D01*
X1949034Y1610915D02*
X1967616D01*
X1948951Y1610561D02*
X1967616D01*
X1948802Y1610207D02*
X1967616D01*
X1948567Y1609852D02*
X1967616D01*
X1948204Y1609498D02*
X1967616D01*
X1947525Y1609144D02*
X1967616D01*
X1934811Y1608789D02*
X1967616D01*
X1935238Y1608435D02*
X1967616D01*
X1935508Y1608081D02*
X1967616D01*
X1935682Y1607726D02*
X1967616D01*
X1935785Y1607372D02*
X1967616D01*
X1935827Y1607018D02*
X1967616D01*
X1935811Y1606663D02*
X1967616D01*
X1935735Y1606309D02*
X1967616D01*
X1935594Y1605955D02*
X1967616D01*
X1935370Y1605600D02*
X1967616D01*
X1935025Y1605246D02*
X1967616D01*
X1934411Y1604892D02*
X1967616D01*
X1933497Y1604537D02*
X1967616D01*
X1933520Y1604183D02*
X1967616D01*
X1934653Y1603829D02*
X1967616D01*
X1935081Y1603474D02*
X1967616D01*
X1935350Y1603120D02*
X1967616D01*
X1935525Y1602766D02*
X1967616D01*
X1935628Y1602411D02*
X1967616D01*
X1935669Y1602057D02*
X1967616D01*
X1935653Y1601703D02*
X1967616D01*
X1935578Y1601348D02*
X1967616D01*
X1935436Y1600994D02*
X1967616D01*
X1935213Y1600640D02*
X1967616D01*
X1934868Y1600285D02*
X1967616D01*
X1934253Y1599931D02*
X1967616D01*
X1874022Y1599577D02*
X1967616D01*
X1873856Y1599223D02*
X1967616D01*
X1873808Y1598868D02*
X1967616D01*
X1876094Y1598514D02*
X1967616D01*
X1876627Y1598160D02*
X1967616D01*
X1877506Y1597805D02*
X1967616D01*
X1877881Y1597451D02*
X1967616D01*
X1878235Y1597097D02*
X1967616D01*
X1878589Y1596742D02*
X1967616D01*
X1878944Y1596388D02*
X1967616D01*
X1879298Y1596034D02*
X1967616D01*
X1879652Y1595679D02*
X1967616D01*
X1880007Y1595325D02*
X1967616D01*
X1880361Y1594971D02*
X1967616D01*
X1880715Y1594616D02*
X1967616D01*
X1898376Y1594262D02*
X1967616D01*
X1898782Y1593908D02*
X1967616D01*
X1934593Y1593553D02*
X1967616D01*
X1935154Y1593199D02*
X1967616D01*
X1935481Y1592845D02*
X1967616D01*
X1935693Y1592490D02*
X1967616D01*
X1935826Y1592136D02*
X1967616D01*
X1935894Y1591782D02*
X1967616D01*
X1935904Y1591427D02*
X1967616D01*
X1935855Y1591073D02*
X1967616D01*
X1935744Y1590719D02*
X1967616D01*
X1955864Y1590364D02*
X1967616D01*
X1957290Y1590010D02*
X1967616D01*
X1958125Y1589656D02*
X1967616D01*
X1958760Y1589301D02*
X1967616D01*
X1959279Y1588947D02*
X1967616D01*
X1959719Y1588593D02*
X1967616D01*
X1960099Y1588238D02*
X1967616D01*
X1960432Y1587884D02*
X1967616D01*
X1960726Y1587530D02*
X1967616D01*
X1960986Y1587175D02*
X1967616D01*
X1961215Y1586821D02*
X1967616D01*
X1961418Y1586467D02*
X1967616D01*
X1961597Y1586112D02*
X1967616D01*
X1961753Y1585758D02*
X1967616D01*
X1961888Y1585404D02*
X1967616D01*
X1962003Y1585049D02*
X1967616D01*
X1962100Y1584695D02*
X1967616D01*
X1962178Y1584341D02*
X1967616D01*
X1962239Y1583986D02*
X1967616D01*
X1962282Y1583632D02*
X1967616D01*
X1962309Y1583278D02*
X1967616D01*
X1962319Y1582923D02*
X1967616D01*
X1962312Y1582569D02*
X1967614D01*
X1962288Y1582215D02*
X1967596D01*
X1962248Y1581860D02*
X1967561D01*
X1962191Y1581506D02*
X1967506D01*
X1920473Y1724301D02*
X1967505D01*
X1962116Y1581152D02*
X1967433D01*
X1962023Y1580797D02*
X1967340D01*
X1961911Y1580443D02*
X1967226D01*
X1961780Y1580089D02*
X1967090D01*
X1961628Y1579734D02*
X1966931D01*
X1961454Y1579380D02*
X1966748D01*
X1961256Y1579026D02*
X1966536D01*
X1961031Y1578671D02*
X1966295D01*
X1960778Y1578317D02*
X1966019D01*
X1965057Y1687451D02*
X1965800D01*
X1960491Y1577963D02*
X1965702D01*
X1960166Y1577608D02*
X1965337D01*
X1959795Y1577254D02*
X1964910D01*
X1951685Y1704104D02*
X1964492D01*
X1959368Y1576900D02*
X1964400D01*
X1951685Y1703750D02*
X1964007D01*
X1958866Y1576545D02*
X1963767D01*
X1951685Y1703396D02*
X1963711D01*
X1951685Y1703041D02*
X1963518D01*
X1951139Y1699852D02*
X1963403D01*
X1951139Y1699498D02*
X1963403D01*
X1951685Y1702687D02*
X1963400D01*
X1951139Y1700207D02*
X1963398D01*
X1951139Y1700561D02*
X1963387D01*
X1951139Y1700915D02*
X1963377D01*
X1951139Y1701270D02*
X1963366D01*
X1951186Y1701624D02*
X1963355D01*
X1951653Y1702333D02*
X1963346D01*
X1951508Y1701978D02*
X1963345D01*
X1958263Y1576191D02*
X1962903D01*
X1951139Y1699144D02*
X1960344D01*
X1951139Y1698789D02*
X1960328D01*
X1951139Y1698435D02*
X1960328D01*
X1951139Y1698081D02*
X1960328D01*
X1950880Y1678593D02*
X1960108D01*
X1950878Y1678947D02*
X1959804D01*
X1950878Y1679301D02*
X1959672D01*
X1950878Y1681782D02*
X1959648D01*
X1950878Y1681427D02*
X1959648D01*
X1950878Y1681073D02*
X1959648D01*
X1950878Y1680719D02*
X1959648D01*
X1950878Y1680364D02*
X1959648D01*
X1950878Y1680010D02*
X1959648D01*
X1950878Y1679656D02*
X1959648D01*
X1950878Y1682136D02*
X1959527D01*
X1950878Y1682490D02*
X1959173D01*
X1950878Y1682845D02*
X1958818D01*
X1951139Y1697726D02*
X1958479D01*
X1950878Y1683199D02*
X1958464D01*
X1950878Y1683553D02*
X1958110D01*
X1950878Y1683908D02*
X1957755D01*
X1951139Y1697372D02*
X1957719D01*
X1950878Y1684262D02*
X1957401D01*
X1951139Y1697018D02*
X1957348D01*
X1950878Y1684616D02*
X1957114D01*
X1951139Y1696663D02*
X1956994D01*
X1950878Y1684971D02*
X1956944D01*
X1950878Y1685325D02*
X1956860D01*
X1950878Y1686034D02*
X1956844D01*
X1950878Y1685679D02*
X1956844D01*
X1951139Y1696309D02*
X1956640D01*
X1950878Y1686388D02*
X1956607D01*
X1951139Y1695955D02*
X1955030D01*
X1950878Y1686742D02*
X1954911D01*
X1951139Y1695600D02*
X1954405D01*
X1951075Y1687097D02*
X1954376D01*
X1951276Y1695246D02*
X1954175D01*
X1951273Y1691348D02*
X1954168D01*
X1951289Y1687451D02*
X1954162D01*
X1951319Y1689223D02*
X1954132D01*
X1951328Y1693474D02*
X1954123D01*
X1951330Y1693120D02*
X1954121D01*
X1951143Y1689577D02*
X1954113D01*
X1951039Y1690994D02*
X1954090D01*
X1951365Y1691703D02*
X1954086D01*
X1951366Y1694892D02*
X1954085D01*
X1951368Y1687805D02*
X1954083D01*
X1951371Y1694537D02*
X1954080D01*
X1951371Y1694183D02*
X1954080D01*
X1951371Y1693829D02*
X1954080D01*
X1951371Y1692766D02*
X1954080D01*
X1951371Y1692411D02*
X1954080D01*
X1951371Y1692057D02*
X1954080D01*
X1950386Y1690640D02*
X1954080D01*
X1926000Y1690285D02*
X1954080D01*
X1950740Y1689931D02*
X1954080D01*
X1951371Y1688868D02*
X1954080D01*
X1951371Y1688514D02*
X1954080D01*
X1951371Y1688160D02*
X1954080D01*
X1953416Y1652018D02*
X1953993D01*
X1935560Y1590364D02*
X1953663D01*
X1951677Y1620837D02*
X1952523D01*
X1868685Y1658396D02*
X1952506D01*
X1935277Y1590010D02*
X1952237D01*
X1951322Y1652018D02*
X1951752D01*
X1934821Y1589656D02*
X1951401D01*
X1777446Y1576191D02*
X1951263D01*
X1915219Y1589301D02*
X1950767D01*
X1776583Y1576545D02*
X1950661D01*
X1914620Y1588947D02*
X1950248D01*
X1775949Y1576900D02*
X1950159D01*
X1904097Y1588593D02*
X1949808D01*
X1775439Y1577254D02*
X1949732D01*
X1943890Y1652018D02*
X1949716D01*
X1904451Y1588238D02*
X1949427D01*
X1786958Y1577608D02*
X1949361D01*
X1868685Y1658041D02*
X1949338D01*
X1910642Y1652372D02*
X1949118D01*
X1904805Y1587884D02*
X1949094D01*
X1873106Y1577963D02*
X1949036D01*
X1868685Y1657687D02*
X1948884D01*
X1905159Y1587530D02*
X1948801D01*
X1910783Y1652726D02*
X1948778D01*
X1873391Y1578317D02*
X1948749D01*
X1868685Y1657333D02*
X1948601D01*
X1910859Y1653081D02*
X1948558D01*
X1905605Y1587175D02*
X1948541D01*
X1873513Y1578671D02*
X1948496D01*
X1910291Y1654852D02*
X1948480D01*
X1909866Y1655207D02*
X1948471D01*
X1910876Y1653435D02*
X1948419D01*
X1868685Y1656978D02*
X1948417D01*
X1910559Y1654498D02*
X1948375D01*
X1910835Y1653789D02*
X1948346D01*
X1906783Y1655561D02*
X1948337D01*
X1910733Y1654144D02*
X1948332D01*
X1905892Y1586821D02*
X1948312D01*
X1868685Y1656624D02*
X1948307D01*
X1873532Y1579026D02*
X1948271D01*
X1869093Y1655915D02*
X1948269D01*
X1868897Y1656270D02*
X1948259D01*
X1906078Y1586467D02*
X1948109D01*
X1873532Y1579380D02*
X1948073D01*
X1906190Y1586112D02*
X1947930D01*
X1873532Y1579734D02*
X1947899D01*
X1906240Y1585758D02*
X1947774D01*
X1873532Y1580089D02*
X1947747D01*
X1906232Y1585404D02*
X1947639D01*
X1873532Y1580443D02*
X1947616D01*
X1925992Y1690640D02*
X1947585D01*
X1906166Y1585049D02*
X1947524D01*
X1873532Y1580797D02*
X1947504D01*
X1906034Y1584695D02*
X1947427D01*
X1873532Y1581152D02*
X1947411D01*
X1905824Y1584341D02*
X1947349D01*
X1873532Y1581506D02*
X1947336D01*
X1905501Y1583986D02*
X1947288D01*
X1873532Y1581860D02*
X1947279D01*
X1904949Y1583632D02*
X1947245D01*
X1873532Y1582215D02*
X1947239D01*
X1925950Y1689931D02*
X1947231D01*
X1884734Y1583278D02*
X1947218D01*
X1873532Y1582569D02*
X1947215D01*
X1873532Y1582923D02*
X1947208D01*
X1920362Y1700915D02*
X1946568D01*
X1939945Y1700561D02*
X1946568D01*
X1940194Y1700207D02*
X1946568D01*
X1940296Y1699852D02*
X1946568D01*
X1940326Y1699498D02*
X1946568D01*
X1942136Y1699144D02*
X1946568D01*
X1942547Y1698789D02*
X1946568D01*
X1942902Y1698435D02*
X1946568D01*
X1943256Y1698081D02*
X1946568D01*
X1943610Y1697726D02*
X1946568D01*
X1943965Y1697372D02*
X1946568D01*
X1944319Y1697018D02*
X1946568D01*
X1944673Y1696663D02*
X1946568D01*
X1945028Y1696309D02*
X1946568D01*
X1945382Y1695955D02*
X1946568D01*
X1945736Y1695600D02*
X1946568D01*
X1946091Y1695246D02*
X1946568D01*
X1920362Y1701270D02*
X1946551D01*
X1934398Y1609144D02*
X1946210D01*
X1925925Y1690994D02*
X1945862D01*
X1934686Y1609498D02*
X1945531D01*
X1925794Y1691348D02*
X1945467D01*
X1935041Y1609852D02*
X1945168D01*
X1925818Y1691703D02*
X1945113D01*
X1935395Y1610207D02*
X1944933D01*
X1935749Y1610561D02*
X1944784D01*
X1925991Y1692057D02*
X1944759D01*
X1905487Y1620837D02*
X1944729D01*
X1936104Y1610915D02*
X1944702D01*
X1936458Y1611270D02*
X1944622D01*
X1926093Y1692411D02*
X1944404D01*
X1926134Y1692766D02*
X1944050D01*
X1925838Y1689577D02*
X1943935D01*
X1926118Y1693120D02*
X1943696D01*
X1925652Y1689223D02*
X1943590D01*
X1925366Y1688868D02*
X1943418D01*
X1924904Y1688514D02*
X1943352D01*
X1868716Y1688160D02*
X1943350D01*
X1868716Y1687805D02*
X1943350D01*
X1868716Y1687451D02*
X1943350D01*
X1868716Y1687097D02*
X1943350D01*
X1868716Y1686742D02*
X1943350D01*
X1868716Y1686388D02*
X1943350D01*
X1868716Y1686034D02*
X1943350D01*
X1868716Y1685679D02*
X1943350D01*
X1868716Y1685325D02*
X1943350D01*
X1868716Y1684971D02*
X1943350D01*
X1868716Y1684616D02*
X1943350D01*
X1868716Y1684262D02*
X1943350D01*
X1868716Y1683908D02*
X1943350D01*
X1868716Y1683553D02*
X1943350D01*
X1868716Y1683199D02*
X1943350D01*
X1868716Y1682845D02*
X1943350D01*
X1868716Y1682490D02*
X1943350D01*
X1868716Y1682136D02*
X1943350D01*
X1868716Y1681782D02*
X1943350D01*
X1868716Y1681427D02*
X1943350D01*
X1868716Y1681073D02*
X1943350D01*
X1868716Y1680719D02*
X1943350D01*
X1868716Y1680364D02*
X1943350D01*
X1868716Y1680010D02*
X1943350D01*
X1868716Y1679656D02*
X1943350D01*
X1909122Y1679301D02*
X1943350D01*
X1910309Y1678947D02*
X1943350D01*
X1911112Y1678593D02*
X1943350D01*
X1911746Y1678238D02*
X1943348D01*
X1926041Y1693474D02*
X1943341D01*
X1925899Y1693829D02*
X1942987D01*
X1925950Y1647766D02*
X1942848D01*
X1910724Y1652018D02*
X1942837D01*
X1925781Y1694183D02*
X1942633D01*
X1925929Y1694537D02*
X1942278D01*
X1925832Y1648120D02*
X1942080D01*
X1910810Y1651663D02*
X1942076D01*
X1939757Y1694892D02*
X1941924D01*
X1925639Y1648474D02*
X1941697D01*
X1910835Y1651309D02*
X1941694D01*
X1940111Y1695246D02*
X1941570D01*
X1925342Y1648829D02*
X1941451D01*
X1910803Y1650955D02*
X1941449D01*
X1924856Y1649183D02*
X1941293D01*
X1910710Y1650600D02*
X1941292D01*
X1940267Y1695600D02*
X1941215D01*
X1910838Y1649537D02*
X1941204D01*
X1910621Y1650246D02*
X1941203D01*
X1910762Y1649892D02*
X1941175D01*
X1920362Y1717215D02*
X1940976D01*
X1920362Y1701624D02*
X1940946D01*
X1940305Y1695955D02*
X1940861D01*
X1920362Y1716860D02*
X1940598D01*
X1920362Y1701978D02*
X1940584D01*
X1912275Y1677884D02*
X1940542D01*
X1920362Y1716506D02*
X1940410D01*
X1920362Y1702333D02*
X1940403D01*
X1915041Y1667608D02*
X1940358D01*
X1920362Y1716152D02*
X1940332D01*
X1920362Y1702687D02*
X1940331D01*
X1920362Y1715797D02*
X1940327D01*
X1920362Y1715443D02*
X1940327D01*
X1920362Y1715089D02*
X1940327D01*
X1920362Y1714734D02*
X1940327D01*
X1920362Y1714380D02*
X1940327D01*
X1920362Y1714026D02*
X1940327D01*
X1920362Y1713671D02*
X1940327D01*
X1920362Y1713317D02*
X1940327D01*
X1920362Y1712963D02*
X1940327D01*
X1920362Y1712608D02*
X1940327D01*
X1920362Y1712254D02*
X1940327D01*
X1920362Y1711900D02*
X1940327D01*
X1920362Y1711545D02*
X1940327D01*
X1920362Y1711191D02*
X1940327D01*
X1920362Y1710837D02*
X1940327D01*
X1920362Y1710482D02*
X1940327D01*
X1920362Y1710128D02*
X1940327D01*
X1920362Y1709774D02*
X1940327D01*
X1920362Y1709419D02*
X1940327D01*
X1920362Y1709065D02*
X1940327D01*
X1920362Y1708711D02*
X1940327D01*
X1920362Y1708356D02*
X1940327D01*
X1920362Y1708002D02*
X1940327D01*
X1920362Y1707648D02*
X1940327D01*
X1920362Y1707293D02*
X1940327D01*
X1920362Y1706939D02*
X1940327D01*
X1920362Y1706585D02*
X1940327D01*
X1920362Y1706230D02*
X1940327D01*
X1920362Y1705876D02*
X1940327D01*
X1920362Y1705522D02*
X1940327D01*
X1920362Y1705167D02*
X1940327D01*
X1920362Y1704813D02*
X1940327D01*
X1920362Y1704459D02*
X1940327D01*
X1920362Y1704104D02*
X1940327D01*
X1920362Y1703750D02*
X1940327D01*
X1920362Y1703396D02*
X1940327D01*
X1920362Y1703041D02*
X1940327D01*
X1912729Y1677530D02*
X1940132D01*
X1915188Y1667963D02*
X1940044D01*
X1913127Y1677175D02*
X1939930D01*
X1915317Y1668317D02*
X1939888D01*
X1913479Y1676821D02*
X1939843D01*
X1915429Y1668671D02*
X1939834D01*
X1913793Y1676467D02*
X1939834D01*
X1914073Y1676112D02*
X1939834D01*
X1914325Y1675758D02*
X1939834D01*
X1914551Y1675404D02*
X1939834D01*
X1914753Y1675049D02*
X1939834D01*
X1914933Y1674695D02*
X1939834D01*
X1915093Y1674341D02*
X1939834D01*
X1915234Y1673986D02*
X1939834D01*
X1915357Y1673632D02*
X1939834D01*
X1915463Y1673278D02*
X1939834D01*
X1915552Y1672923D02*
X1939834D01*
X1915625Y1672569D02*
X1939834D01*
X1915683Y1672215D02*
X1939834D01*
X1915725Y1671860D02*
X1939834D01*
X1915752Y1671506D02*
X1939834D01*
X1915764Y1671152D02*
X1939834D01*
X1915762Y1670797D02*
X1939834D01*
X1915745Y1670443D02*
X1939834D01*
X1915712Y1670089D02*
X1939834D01*
X1915665Y1669734D02*
X1939834D01*
X1915602Y1669380D02*
X1939834D01*
X1915523Y1669026D02*
X1939834D01*
X1936609Y1632530D02*
X1938585D01*
X1905490Y1621191D02*
X1936417D01*
X1905490Y1621545D02*
X1936003D01*
X1926010Y1694892D02*
X1935444D01*
X1911366Y1614459D02*
X1935404D01*
X1920362Y1700561D02*
X1935256D01*
X1926032Y1695246D02*
X1935090D01*
X1920362Y1700207D02*
X1935007D01*
X1925997Y1695600D02*
X1934934D01*
X1920362Y1699852D02*
X1934905D01*
X1920362Y1699498D02*
X1934896D01*
X1920362Y1699144D02*
X1934896D01*
X1920362Y1698789D02*
X1934896D01*
X1920362Y1698435D02*
X1934896D01*
X1920362Y1698081D02*
X1934896D01*
X1920362Y1697726D02*
X1934896D01*
X1924147Y1697372D02*
X1934896D01*
X1925070Y1697018D02*
X1934896D01*
X1925476Y1696663D02*
X1934896D01*
X1925734Y1696309D02*
X1934896D01*
X1925900Y1695955D02*
X1934896D01*
X1911744Y1614104D02*
X1934774D01*
X1919114Y1613750D02*
X1934417D01*
X1919541Y1613396D02*
X1934063D01*
X1919814Y1613041D02*
X1933709D01*
X1919991Y1612687D02*
X1933354D01*
X1920096Y1612333D02*
X1933000D01*
X1899136Y1593553D02*
X1932843D01*
X1874377Y1599931D02*
X1932710D01*
X1920140Y1611978D02*
X1932646D01*
X1915559Y1589656D02*
X1932615D01*
X1920126Y1611624D02*
X1932291D01*
X1899490Y1593199D02*
X1932282D01*
X1874731Y1600285D02*
X1932096D01*
X1920052Y1611270D02*
X1931937D01*
X1919913Y1610915D02*
X1931583D01*
X1919692Y1610561D02*
X1931228D01*
X1919352Y1610207D02*
X1930874D01*
X1918753Y1609852D02*
X1930520D01*
X1910398Y1609498D02*
X1930165D01*
X1910699Y1609144D02*
X1929811D01*
X1911053Y1608789D02*
X1929457D01*
X1911407Y1608435D02*
X1929102D01*
X1919551Y1635719D02*
X1926014D01*
X1919638Y1635364D02*
X1925680D01*
X1920362Y1697372D02*
X1923541D01*
X1910855Y1649183D02*
X1922788D01*
X1922592Y1688514D02*
X1922719D01*
X1910814Y1648829D02*
X1922302D01*
X1910712Y1648474D02*
X1922005D01*
X1910608Y1648120D02*
X1921812D01*
X1868716Y1688514D02*
X1920572D01*
X1868716Y1688868D02*
X1920074D01*
X1868716Y1689223D02*
X1919772D01*
X1905490Y1621900D02*
X1919586D01*
X1868716Y1689577D02*
X1919575D01*
X1868716Y1691348D02*
X1919572D01*
X1868716Y1690994D02*
X1919457D01*
X1868716Y1689931D02*
X1919454D01*
X1868716Y1690640D02*
X1919398D01*
X1868716Y1690285D02*
X1919397D01*
X1905490Y1622254D02*
X1919138D01*
X1905490Y1622608D02*
X1918922D01*
X1905490Y1622963D02*
X1918825D01*
X1905318Y1626506D02*
X1918813D01*
X1904992Y1626152D02*
X1918813D01*
X1904862Y1625797D02*
X1918813D01*
X1905255Y1625443D02*
X1918813D01*
X1905435Y1625089D02*
X1918813D01*
X1905490Y1624734D02*
X1918813D01*
X1905490Y1624380D02*
X1918813D01*
X1905490Y1624026D02*
X1918813D01*
X1905490Y1623671D02*
X1918813D01*
X1905490Y1623317D02*
X1918813D01*
X1905460Y1626860D02*
X1917449D01*
X1905490Y1627215D02*
X1916989D01*
X1905490Y1627569D02*
X1916768D01*
X1905490Y1627923D02*
X1916668D01*
X1903742Y1588947D02*
X1913018D01*
X1899845Y1592845D02*
X1912665D01*
X1903388Y1589301D02*
X1912419D01*
X1900199Y1592490D02*
X1912230D01*
X1903034Y1589656D02*
X1912079D01*
X1900553Y1592136D02*
X1911957D01*
X1902679Y1590010D02*
X1911859D01*
X1900908Y1591782D02*
X1911780D01*
X1902325Y1590364D02*
X1911720D01*
X1901262Y1591427D02*
X1911675D01*
X1901971Y1590719D02*
X1911646D01*
X1901616Y1591073D02*
X1911632D01*
X1896074Y1637490D02*
X1910643D01*
X1895720Y1637136D02*
X1910199D01*
X1895365Y1636782D02*
X1910010D01*
X1869990Y1662648D02*
X1906158D01*
X1869213Y1655561D02*
X1905672D01*
X1868716Y1679301D02*
X1905480D01*
X1869269Y1655207D02*
X1904930D01*
X1869991Y1663002D02*
X1904632D01*
X1869268Y1654852D02*
X1904552D01*
X1851435Y1615167D02*
X1904455D01*
X1862561Y1648120D02*
X1904395D01*
X1869208Y1654498D02*
X1904309D01*
X1868716Y1678947D02*
X1904293D01*
X1862561Y1652372D02*
X1904287D01*
X1862561Y1648474D02*
X1904278D01*
X1862561Y1650246D02*
X1904277D01*
X1862561Y1650600D02*
X1904251D01*
X1862561Y1652018D02*
X1904169D01*
X1862561Y1652726D02*
X1904160D01*
X1862561Y1648829D02*
X1904156D01*
X1862561Y1649892D02*
X1904156D01*
X1869084Y1654144D02*
X1904154D01*
X1862561Y1650955D02*
X1904140D01*
X1851602Y1615522D02*
X1904111D01*
X1862561Y1651663D02*
X1904101D01*
X1862561Y1649183D02*
X1904097D01*
X1862561Y1649537D02*
X1904097D01*
X1862561Y1651309D02*
X1904091D01*
X1868064Y1653081D02*
X1904069D01*
X1868884Y1653789D02*
X1904066D01*
X1868576Y1653435D02*
X1904039D01*
X1851698Y1615876D02*
X1903757D01*
X1869991Y1663356D02*
X1903738D01*
X1868716Y1678593D02*
X1903489D01*
X1851733Y1616230D02*
X1903403D01*
X1895053Y1583632D02*
X1903161D01*
X1869991Y1663711D02*
X1903057D01*
X1851711Y1616585D02*
X1903048D01*
X1868716Y1678238D02*
X1902855D01*
X1851629Y1616939D02*
X1902694D01*
X1895652Y1583986D02*
X1902609D01*
X1869991Y1664065D02*
X1902497D01*
X1851480Y1617293D02*
X1902340D01*
X1868716Y1677884D02*
X1902327D01*
X1895992Y1584341D02*
X1902286D01*
X1885767Y1610915D02*
X1902227D01*
X1851178Y1614813D02*
X1902180D01*
X1896212Y1584695D02*
X1902076D01*
X1869991Y1664419D02*
X1902020D01*
X1851247Y1617648D02*
X1901985D01*
X1896351Y1585049D02*
X1901945D01*
X1896396Y1586112D02*
X1901920D01*
X1896425Y1585404D02*
X1901878D01*
X1868716Y1677530D02*
X1901872D01*
X1896439Y1585758D02*
X1901870D01*
X1885822Y1611270D02*
X1901822D01*
X1850772Y1614459D02*
X1901717D01*
X1896291Y1586467D02*
X1901701D01*
X1850885Y1618002D02*
X1901631D01*
X1862561Y1647766D02*
X1901609D01*
X1869991Y1664774D02*
X1901604D01*
X1885820Y1611624D02*
X1901499D01*
X1868716Y1677175D02*
X1901475D01*
X1849857Y1614104D02*
X1901431D01*
X1896114Y1586821D02*
X1901347D01*
X1885758Y1611978D02*
X1901288D01*
X1850210Y1618356D02*
X1901277D01*
X1849284Y1613750D02*
X1901245D01*
X1869991Y1665128D02*
X1901238D01*
X1862561Y1647411D02*
X1901162D01*
X1885633Y1612333D02*
X1901157D01*
X1884599Y1613396D02*
X1901133D01*
X1868716Y1676821D02*
X1901122D01*
X1885430Y1612687D02*
X1901090D01*
X1885119Y1613041D02*
X1901082D01*
X1895862Y1587175D02*
X1900993D01*
X1802380Y1618711D02*
X1900977D01*
X1869991Y1665482D02*
X1900912D01*
X1868716Y1676467D02*
X1900809D01*
X1862561Y1647057D02*
X1900808D01*
X1802403Y1619065D02*
X1900781D01*
X1863847Y1625797D02*
X1900709D01*
X1802368Y1619419D02*
X1900660D01*
X1895850Y1587530D02*
X1900638D01*
X1869991Y1665837D02*
X1900620D01*
X1802272Y1619774D02*
X1900603D01*
X1864848Y1626152D02*
X1900579D01*
X1868716Y1676112D02*
X1900528D01*
X1862561Y1646703D02*
X1900454D01*
X1802106Y1620128D02*
X1900384D01*
X1869991Y1666191D02*
X1900359D01*
X1863778Y1625443D02*
X1900316D01*
X1895840Y1587884D02*
X1900284D01*
X1868716Y1675758D02*
X1900276D01*
X1865527Y1626506D02*
X1900254D01*
X1862264Y1620482D02*
X1900166D01*
X1863645Y1625089D02*
X1900136D01*
X1869991Y1666545D02*
X1900125D01*
X1865890Y1626860D02*
X1900111D01*
X1862561Y1646348D02*
X1900099D01*
X1862828Y1620837D02*
X1900084D01*
X1863432Y1624734D02*
X1900081D01*
X1866356Y1627923D02*
X1900081D01*
X1866274Y1627569D02*
X1900081D01*
X1866125Y1627215D02*
X1900081D01*
X1863104Y1624380D02*
X1900081D01*
X1862960Y1624026D02*
X1900081D01*
X1863239Y1623671D02*
X1900081D01*
X1863423Y1623317D02*
X1900081D01*
X1863533Y1622963D02*
X1900081D01*
X1863581Y1622608D02*
X1900081D01*
X1863571Y1622254D02*
X1900081D01*
X1863503Y1621900D02*
X1900081D01*
X1863369Y1621545D02*
X1900081D01*
X1863156Y1621191D02*
X1900081D01*
X1868716Y1675404D02*
X1900051D01*
X1895757Y1588238D02*
X1899930D01*
X1869991Y1666900D02*
X1899915D01*
X1868716Y1675049D02*
X1899849D01*
X1862561Y1645994D02*
X1899745D01*
X1869991Y1667254D02*
X1899727D01*
X1868716Y1674695D02*
X1899668D01*
X1895578Y1588593D02*
X1899575D01*
X1869991Y1667608D02*
X1899561D01*
X1866379Y1628278D02*
X1899524D01*
X1882546Y1674341D02*
X1899508D01*
X1869991Y1667963D02*
X1899413D01*
X1862561Y1645640D02*
X1899391D01*
X1895001Y1636427D02*
X1899379D01*
X1883107Y1673986D02*
X1899367D01*
X1869991Y1668317D02*
X1899284D01*
X1883433Y1673632D02*
X1899244D01*
X1895265Y1588947D02*
X1899221D01*
X1869991Y1668671D02*
X1899173D01*
X1883646Y1673278D02*
X1899139D01*
X1869991Y1669026D02*
X1899078D01*
X1866344Y1628632D02*
X1899067D01*
X1883779Y1672923D02*
X1899049D01*
X1862561Y1645285D02*
X1899036D01*
X1869991Y1669380D02*
X1898999D01*
X1883847Y1672569D02*
X1898976D01*
X1869991Y1669734D02*
X1898937D01*
X1883856Y1672215D02*
X1898919D01*
X1869991Y1670089D02*
X1898889D01*
X1883808Y1671860D02*
X1898876D01*
X1894911Y1589301D02*
X1898867D01*
X1882773Y1670443D02*
X1898857D01*
X1883697Y1671506D02*
X1898849D01*
X1872809Y1628986D02*
X1898847D01*
X1883230Y1670797D02*
X1898839D01*
X1883513Y1671152D02*
X1898837D01*
X1873295Y1629341D02*
X1898748D01*
X1882424Y1631467D02*
X1898734D01*
X1882127Y1631112D02*
X1898734D01*
X1881640Y1630758D02*
X1898734D01*
X1873903Y1630404D02*
X1898734D01*
X1873785Y1630049D02*
X1898734D01*
X1873592Y1629695D02*
X1898734D01*
X1882618Y1631821D02*
X1898700D01*
X1862561Y1644931D02*
X1898682D01*
X1894557Y1589656D02*
X1898512D01*
X1862561Y1644577D02*
X1898328D01*
X1894202Y1590010D02*
X1898158D01*
X1862561Y1644223D02*
X1897973D01*
X1893848Y1590364D02*
X1897804D01*
X1894290Y1636073D02*
X1897685D01*
X1882782Y1643868D02*
X1897619D01*
X1882736Y1632175D02*
X1897569D01*
X1893494Y1590719D02*
X1897449D01*
X1883343Y1643514D02*
X1897265D01*
X1876172Y1635719D02*
X1897154D01*
X1893133Y1591073D02*
X1897095D01*
X1882791Y1632530D02*
X1897091D01*
X1883670Y1643160D02*
X1896910D01*
X1875818Y1635364D02*
X1896839D01*
X1882788Y1632884D02*
X1896798D01*
X1876921Y1635010D02*
X1896634D01*
X1882727Y1633238D02*
X1896607D01*
X1883882Y1642805D02*
X1896556D01*
X1881568Y1634656D02*
X1896506D01*
X1882601Y1633593D02*
X1896491D01*
X1882088Y1634301D02*
X1896443D01*
X1882399Y1633947D02*
X1896438D01*
X1884015Y1642451D02*
X1896202D01*
X1884083Y1642097D02*
X1895847D01*
X1884093Y1641742D02*
X1895493D01*
X1884044Y1641388D02*
X1895139D01*
X1883933Y1641034D02*
X1894784D01*
X1883749Y1640679D02*
X1894430D01*
X1883466Y1640325D02*
X1894076D01*
X1883010Y1639971D02*
X1893721D01*
X1885472Y1583632D02*
X1893451D01*
X1882590Y1639616D02*
X1893367D01*
X1835774Y1605600D02*
X1892953D01*
X1848473Y1605246D02*
X1892904D01*
X1885850Y1583986D02*
X1892852D01*
X1874427Y1605955D02*
X1892778D01*
X1849084Y1604892D02*
X1892763D01*
X1849791Y1603829D02*
X1892714D01*
X1849427Y1604537D02*
X1892688D01*
X1874883Y1606309D02*
X1892675D01*
X1849650Y1604183D02*
X1892672D01*
X1875468Y1607372D02*
X1892669D01*
X1875351Y1607018D02*
X1892649D01*
X1875166Y1606663D02*
X1892633D01*
X1886092Y1584341D02*
X1892512D01*
X1885768Y1587175D02*
X1892504D01*
X1885833Y1586821D02*
X1892390D01*
X1886248Y1584695D02*
X1892292D01*
X1886081Y1586467D02*
X1892213D01*
X1885702Y1587530D02*
X1892161D01*
X1886335Y1585049D02*
X1892153D01*
X1886241Y1586112D02*
X1892108D01*
X1886362Y1585404D02*
X1892079D01*
X1886332Y1585758D02*
X1892065D01*
X1885596Y1587884D02*
X1891807D01*
X1873532Y1583278D02*
X1883613D01*
X1873532Y1583632D02*
X1882874D01*
X1848930Y1613396D02*
X1882679D01*
X1873532Y1583986D02*
X1882497D01*
X1873532Y1584341D02*
X1882254D01*
X1789627Y1586112D02*
X1882106D01*
X1873532Y1584695D02*
X1882099D01*
X1873040Y1585758D02*
X1882015D01*
X1873503Y1585049D02*
X1882011D01*
X1873362Y1585404D02*
X1881984D01*
X1789307Y1586467D02*
X1881975D01*
X1862561Y1643868D02*
X1881032D01*
X1868716Y1674341D02*
X1880796D01*
X1869991Y1670443D02*
X1880568D01*
X1879796Y1643514D02*
X1880471D01*
X1868716Y1673986D02*
X1880235D01*
X1869960Y1670797D02*
X1880112D01*
X1868716Y1673632D02*
X1879908D01*
X1869845Y1671152D02*
X1879829D01*
X1868716Y1673278D02*
X1879696D01*
X1877824Y1634656D02*
X1879648D01*
X1869621Y1671506D02*
X1879644D01*
X1877250Y1630758D02*
X1879576D01*
X1868716Y1672923D02*
X1879563D01*
X1869276Y1671860D02*
X1879534D01*
X1868716Y1672569D02*
X1879494D01*
X1868922Y1672215D02*
X1879485D01*
X1857054Y1591427D02*
X1879336D01*
X1878227Y1634301D02*
X1879128D01*
X1877929Y1631112D02*
X1879089D01*
X1856699Y1591782D02*
X1879029D01*
X1878484Y1633947D02*
X1878817D01*
X1878292Y1631467D02*
X1878791D01*
X1856345Y1592136D02*
X1878674D01*
X1855991Y1592490D02*
X1878320D01*
X1855636Y1592845D02*
X1877966D01*
X1875268Y1643514D02*
X1877876D01*
X1855282Y1593199D02*
X1877611D01*
X1876170Y1643160D02*
X1877356D01*
X1854928Y1593553D02*
X1877257D01*
X1876574Y1642805D02*
X1877045D01*
X1854573Y1593908D02*
X1876903D01*
X1854219Y1594262D02*
X1876548D01*
X1875675Y1635010D02*
X1876263D01*
X1873958Y1630758D02*
X1875934D01*
X1873955Y1631112D02*
X1875255D01*
X1873893Y1631467D02*
X1874892D01*
X1873768Y1631821D02*
X1874658D01*
X1862561Y1643514D02*
X1874609D01*
X1862561Y1638908D02*
X1874527D01*
X1874047Y1633593D02*
X1874523D01*
X1873565Y1632175D02*
X1874508D01*
X1873692Y1633238D02*
X1874438D01*
X1873483Y1632530D02*
X1874426D01*
X1873483Y1632884D02*
X1874403D01*
X1862561Y1639262D02*
X1874281D01*
X1873748Y1598514D02*
X1874221D01*
X1862561Y1638553D02*
X1874174D01*
X1853865Y1594616D02*
X1874105D01*
X1862561Y1638199D02*
X1873820D01*
X1862561Y1643160D02*
X1873707D01*
X1853510Y1594971D02*
X1873627D01*
X1862561Y1639616D02*
X1873602D01*
X1849866Y1603474D02*
X1873598D01*
X1862561Y1637845D02*
X1873466D01*
X1853156Y1595325D02*
X1873334D01*
X1862561Y1642805D02*
X1873303D01*
X1862561Y1639971D02*
X1873239D01*
X1852802Y1595679D02*
X1873143D01*
X1862561Y1637490D02*
X1873111D01*
X1862561Y1642451D02*
X1873047D01*
X1849882Y1603120D02*
X1873044D01*
X1851384Y1597097D02*
X1873042D01*
X1852447Y1596034D02*
X1873027D01*
X1872773Y1597451D02*
X1873015D01*
X1862561Y1640325D02*
X1873004D01*
X1851739Y1596742D02*
X1872978D01*
X1852093Y1596388D02*
X1872973D01*
X1862561Y1642097D02*
X1872881D01*
X1862561Y1640679D02*
X1872855D01*
X1862561Y1641742D02*
X1872785D01*
X1862561Y1641034D02*
X1872772D01*
X1862561Y1637136D02*
X1872757D01*
X1862561Y1641388D02*
X1872750D01*
X1849840Y1602766D02*
X1872690D01*
X1862561Y1636782D02*
X1872403D01*
X1849736Y1602411D02*
X1872336D01*
X1826482Y1605955D02*
X1872222D01*
X1862561Y1636427D02*
X1872048D01*
X1849561Y1602057D02*
X1871981D01*
X1869208Y1609498D02*
X1871826D01*
X1826836Y1606309D02*
X1871765D01*
X1862561Y1636073D02*
X1871694D01*
X1849291Y1601703D02*
X1871627D01*
X1868853Y1609144D02*
X1871562D01*
X1827191Y1606663D02*
X1871482D01*
X1868499Y1608789D02*
X1871349D01*
X1862561Y1635719D02*
X1871340D01*
X1827545Y1607018D02*
X1871298D01*
X1867958Y1608435D02*
X1871216D01*
X1827899Y1607372D02*
X1871187D01*
X1828608Y1608081D02*
X1871148D01*
X1828254Y1607726D02*
X1871139D01*
X1862561Y1635364D02*
X1870985D01*
X1848862Y1601348D02*
X1870796D01*
X1866248Y1628986D02*
X1870740D01*
X1862561Y1635010D02*
X1870631D01*
X1851084Y1597451D02*
X1870568D01*
X1862561Y1634656D02*
X1870334D01*
X1866082Y1629341D02*
X1870254D01*
X1822196Y1600994D02*
X1870235D01*
X1862712Y1634301D02*
X1870162D01*
X1851033Y1597805D02*
X1870112D01*
X1863066Y1633947D02*
X1870079D01*
X1863421Y1633593D02*
X1870066D01*
X1863775Y1633238D02*
X1870066D01*
X1864129Y1632884D02*
X1870066D01*
X1864484Y1632530D02*
X1870066D01*
X1864838Y1632175D02*
X1869985D01*
X1865827Y1629695D02*
X1869957D01*
X1821813Y1600640D02*
X1869908D01*
X1850920Y1598160D02*
X1869829D01*
X1865192Y1631821D02*
X1869782D01*
X1865789Y1630049D02*
X1869764D01*
X1821045Y1600285D02*
X1869696D01*
X1865509Y1631467D02*
X1869656D01*
X1865789Y1630404D02*
X1869646D01*
X1850734Y1598514D02*
X1869644D01*
X1865691Y1631112D02*
X1869595D01*
X1865777Y1630758D02*
X1869591D01*
X1772734Y1599931D02*
X1869563D01*
X1850448Y1598868D02*
X1869534D01*
X1772734Y1599577D02*
X1869494D01*
X1849985Y1599223D02*
X1869485D01*
X1848576Y1613041D02*
X1868175D01*
X1848221Y1612687D02*
X1867577D01*
X1847867Y1612333D02*
X1867221D01*
X1847496Y1611978D02*
X1866866D01*
X1862561Y1653081D02*
X1866109D01*
X1860749Y1585758D02*
X1865708D01*
X1860890Y1577963D02*
X1865642D01*
X1862561Y1653435D02*
X1865597D01*
X1861506Y1585404D02*
X1865387D01*
X1861591Y1578317D02*
X1865357D01*
X1862561Y1653789D02*
X1865290D01*
X1862010Y1585049D02*
X1865246D01*
X1862073Y1578671D02*
X1865235D01*
X1862391Y1584695D02*
X1865217D01*
X1862691Y1584341D02*
X1865217D01*
X1862932Y1583986D02*
X1865217D01*
X1863123Y1583632D02*
X1865217D01*
X1863273Y1583278D02*
X1865217D01*
X1863387Y1582923D02*
X1865217D01*
X1863466Y1582569D02*
X1865217D01*
X1863514Y1582215D02*
X1865217D01*
X1863532Y1581860D02*
X1865217D01*
X1863519Y1581506D02*
X1865217D01*
X1863475Y1581152D02*
X1865217D01*
X1863400Y1580797D02*
X1865217D01*
X1863292Y1580443D02*
X1865217D01*
X1863148Y1580089D02*
X1865217D01*
X1862963Y1579734D02*
X1865217D01*
X1862730Y1579380D02*
X1865217D01*
X1862440Y1579026D02*
X1865217D01*
X1862561Y1654144D02*
X1865089D01*
X1864558Y1655915D02*
X1865004D01*
X1862561Y1654498D02*
X1864966D01*
X1862561Y1655561D02*
X1864961D01*
X1862561Y1654852D02*
X1864906D01*
X1862561Y1655207D02*
X1864904D01*
X1862592Y1655915D02*
X1863007D01*
X1860271Y1629695D02*
X1862554D01*
X1859917Y1630049D02*
X1862443D01*
X1860626Y1629341D02*
X1862299D01*
X1860980Y1628986D02*
X1862133D01*
X1859563Y1630404D02*
X1862089D01*
X1861334Y1628632D02*
X1862037D01*
X1861690Y1628278D02*
X1861934D01*
X1859208Y1630758D02*
X1861734D01*
X1858854Y1631112D02*
X1861380D01*
X1858500Y1631467D02*
X1861026D01*
X1858145Y1631821D02*
X1860671D01*
X1801849Y1620482D02*
X1860526D01*
X1857791Y1632175D02*
X1860317D01*
X1857437Y1632530D02*
X1859963D01*
X1801446Y1620837D02*
X1859962D01*
X1857082Y1632884D02*
X1859646D01*
X1800544Y1621191D02*
X1859634D01*
X1856728Y1633238D02*
X1859462D01*
X1772734Y1621545D02*
X1859421D01*
X1856374Y1633593D02*
X1859376D01*
X1832617Y1691348D02*
X1859364D01*
X1832617Y1690994D02*
X1859364D01*
X1832617Y1690640D02*
X1859364D01*
X1832617Y1690285D02*
X1859364D01*
X1832617Y1689931D02*
X1859364D01*
X1832617Y1689577D02*
X1859364D01*
X1832617Y1689223D02*
X1859364D01*
X1832617Y1688868D02*
X1859364D01*
X1832617Y1688514D02*
X1859364D01*
X1832617Y1688160D02*
X1859364D01*
X1832617Y1687805D02*
X1859364D01*
X1832617Y1687451D02*
X1859364D01*
X1832617Y1687097D02*
X1859364D01*
X1832617Y1686742D02*
X1859364D01*
X1832617Y1686388D02*
X1859364D01*
X1832617Y1686034D02*
X1859364D01*
X1832617Y1685679D02*
X1859364D01*
X1832617Y1685325D02*
X1859364D01*
X1832617Y1684971D02*
X1859364D01*
X1832617Y1684616D02*
X1859364D01*
X1832617Y1684262D02*
X1859364D01*
X1832617Y1683908D02*
X1859364D01*
X1832617Y1683553D02*
X1859364D01*
X1832617Y1683199D02*
X1859364D01*
X1832617Y1682845D02*
X1859364D01*
X1832617Y1682490D02*
X1859364D01*
X1832617Y1682136D02*
X1859364D01*
X1832617Y1681782D02*
X1859364D01*
X1832617Y1681427D02*
X1859364D01*
X1832617Y1681073D02*
X1859364D01*
X1832617Y1680719D02*
X1859364D01*
X1832617Y1680364D02*
X1859364D01*
X1832617Y1680010D02*
X1859364D01*
X1832617Y1679656D02*
X1859364D01*
X1832599Y1679301D02*
X1859364D01*
X1806382Y1678947D02*
X1859364D01*
X1806934Y1678593D02*
X1859364D01*
X1807540Y1678238D02*
X1859364D01*
X1808050Y1677884D02*
X1859364D01*
X1856037Y1677530D02*
X1859364D01*
X1856711Y1677175D02*
X1859364D01*
X1857073Y1676821D02*
X1859364D01*
X1857307Y1676467D02*
X1859364D01*
X1857456Y1676112D02*
X1859364D01*
X1857538Y1675758D02*
X1859364D01*
X1857560Y1675404D02*
X1859364D01*
X1857525Y1675049D02*
X1859364D01*
X1857428Y1674695D02*
X1859364D01*
X1857262Y1674341D02*
X1859364D01*
X1857004Y1673986D02*
X1859364D01*
X1856599Y1673632D02*
X1859364D01*
X1855684Y1673278D02*
X1859364D01*
X1855111Y1672923D02*
X1859364D01*
X1854757Y1672569D02*
X1859364D01*
X1854402Y1672215D02*
X1859364D01*
X1854048Y1671860D02*
X1859364D01*
X1853694Y1671506D02*
X1859364D01*
X1853339Y1671152D02*
X1859364D01*
X1852985Y1670797D02*
X1859364D01*
X1852631Y1670443D02*
X1859364D01*
X1852276Y1670089D02*
X1859364D01*
X1851922Y1669734D02*
X1859364D01*
X1851568Y1669380D02*
X1859364D01*
X1851213Y1669026D02*
X1859364D01*
X1850859Y1668671D02*
X1859364D01*
X1850505Y1668317D02*
X1859364D01*
X1850150Y1667963D02*
X1859364D01*
X1849796Y1667608D02*
X1859364D01*
X1849442Y1667254D02*
X1859364D01*
X1849087Y1666900D02*
X1859364D01*
X1848733Y1666545D02*
X1859364D01*
X1848379Y1666191D02*
X1859364D01*
X1848025Y1665837D02*
X1859364D01*
X1847670Y1665482D02*
X1859364D01*
X1847316Y1665128D02*
X1859364D01*
X1846962Y1664774D02*
X1859364D01*
X1846607Y1664419D02*
X1859364D01*
X1846253Y1664065D02*
X1859364D01*
X1845899Y1663711D02*
X1859364D01*
X1845544Y1663356D02*
X1859364D01*
X1845190Y1663002D02*
X1859364D01*
X1844836Y1662648D02*
X1859364D01*
X1844481Y1662293D02*
X1859364D01*
X1844127Y1661939D02*
X1859364D01*
X1843773Y1661585D02*
X1859364D01*
X1843418Y1661230D02*
X1859364D01*
X1843064Y1660876D02*
X1859364D01*
X1842710Y1660522D02*
X1859364D01*
X1842355Y1660167D02*
X1859364D01*
X1842001Y1659813D02*
X1859364D01*
X1841647Y1659459D02*
X1859364D01*
X1841292Y1659104D02*
X1859364D01*
X1840938Y1658750D02*
X1859364D01*
X1840584Y1658396D02*
X1859364D01*
X1840229Y1658041D02*
X1859364D01*
X1839875Y1657687D02*
X1859364D01*
X1839521Y1657333D02*
X1859364D01*
X1839166Y1656978D02*
X1859364D01*
X1838812Y1656624D02*
X1859364D01*
X1838458Y1656270D02*
X1859364D01*
X1838103Y1655915D02*
X1859364D01*
X1837749Y1655561D02*
X1859364D01*
X1837395Y1655207D02*
X1859364D01*
X1837040Y1654852D02*
X1859364D01*
X1836686Y1654498D02*
X1859364D01*
X1836332Y1654144D02*
X1859364D01*
X1835977Y1653789D02*
X1859364D01*
X1835623Y1653435D02*
X1859364D01*
X1835269Y1653081D02*
X1859364D01*
X1834914Y1652726D02*
X1859364D01*
X1834560Y1652372D02*
X1859364D01*
X1834206Y1652018D02*
X1859364D01*
X1833851Y1651663D02*
X1859364D01*
X1833497Y1651309D02*
X1859364D01*
X1833143Y1650955D02*
X1859364D01*
X1832788Y1650600D02*
X1859364D01*
X1832434Y1650246D02*
X1859364D01*
X1832080Y1649892D02*
X1859364D01*
X1831725Y1649537D02*
X1859364D01*
X1831371Y1649183D02*
X1859364D01*
X1831017Y1648829D02*
X1859364D01*
X1830662Y1648474D02*
X1859364D01*
X1830308Y1648120D02*
X1859364D01*
X1829954Y1647766D02*
X1859364D01*
X1829599Y1647411D02*
X1859364D01*
X1829245Y1647057D02*
X1859364D01*
X1828891Y1646703D02*
X1859364D01*
X1857231Y1646348D02*
X1859364D01*
X1857792Y1645994D02*
X1859364D01*
X1858118Y1645640D02*
X1859364D01*
X1858331Y1645285D02*
X1859364D01*
X1858464Y1644931D02*
X1859364D01*
X1858532Y1644577D02*
X1859364D01*
X1858542Y1644223D02*
X1859364D01*
X1858493Y1643868D02*
X1859364D01*
X1858382Y1643514D02*
X1859364D01*
X1858198Y1643160D02*
X1859364D01*
X1857915Y1642805D02*
X1859364D01*
X1857833Y1642451D02*
X1859364D01*
X1858090Y1642097D02*
X1859364D01*
X1858256Y1641742D02*
X1859364D01*
X1858352Y1641388D02*
X1859364D01*
X1858387Y1641034D02*
X1859364D01*
X1858364Y1640679D02*
X1859364D01*
X1858282Y1640325D02*
X1859364D01*
X1858133Y1639971D02*
X1859364D01*
X1857898Y1639616D02*
X1859364D01*
X1857535Y1639262D02*
X1859364D01*
X1856856Y1638908D02*
X1859364D01*
X1831425Y1638553D02*
X1859364D01*
X1831351Y1638199D02*
X1859364D01*
X1831212Y1637845D02*
X1859364D01*
X1830992Y1637490D02*
X1859364D01*
X1830652Y1637136D02*
X1859364D01*
X1830053Y1636782D02*
X1859364D01*
X1829502Y1636427D02*
X1859364D01*
X1829393Y1636073D02*
X1859364D01*
X1829212Y1635719D02*
X1859364D01*
X1828998Y1635364D02*
X1859364D01*
X1854826Y1635010D02*
X1859364D01*
X1855311Y1634656D02*
X1859364D01*
X1855665Y1634301D02*
X1859364D01*
X1856019Y1633947D02*
X1859364D01*
X1772734Y1621900D02*
X1859288D01*
X1772734Y1622254D02*
X1859219D01*
X1772734Y1622608D02*
X1859018D01*
X1834626Y1622963D02*
X1858663D01*
X1835190Y1623317D02*
X1858309D01*
X1840749Y1585758D02*
X1858000D01*
X1835518Y1623671D02*
X1857955D01*
X1840890Y1577963D02*
X1857859D01*
X1835731Y1624026D02*
X1857600D01*
X1835865Y1624380D02*
X1857246D01*
X1841506Y1585404D02*
X1857243D01*
X1841591Y1578317D02*
X1857158D01*
X1835933Y1624734D02*
X1856892D01*
X1842010Y1585049D02*
X1856738D01*
X1842073Y1578671D02*
X1856676D01*
X1835943Y1625089D02*
X1856537D01*
X1842391Y1584695D02*
X1856358D01*
X1842440Y1579026D02*
X1856309D01*
X1835895Y1625443D02*
X1856183D01*
X1842691Y1584341D02*
X1856057D01*
X1842730Y1579380D02*
X1856019D01*
X1835785Y1625797D02*
X1855829D01*
X1842932Y1583986D02*
X1855817D01*
X1842963Y1579734D02*
X1855786D01*
X1843123Y1583632D02*
X1855626D01*
X1843148Y1580089D02*
X1855601D01*
X1831439Y1638908D02*
X1855541D01*
X1828536Y1646348D02*
X1855481D01*
X1843273Y1583278D02*
X1855475D01*
X1835601Y1626152D02*
X1855474D01*
X1843292Y1580443D02*
X1855457D01*
X1843387Y1582923D02*
X1855362D01*
X1843400Y1580797D02*
X1855348D01*
X1843466Y1582569D02*
X1855282D01*
X1843475Y1581152D02*
X1855273D01*
X1843514Y1582215D02*
X1855234D01*
X1843519Y1581506D02*
X1855230D01*
X1843532Y1581860D02*
X1855217D01*
X1835319Y1626506D02*
X1855120D01*
X1828182Y1645994D02*
X1854920D01*
X1831396Y1639262D02*
X1854862D01*
X1824993Y1642805D02*
X1854769D01*
X1834864Y1626860D02*
X1854766D01*
X1808491Y1677530D02*
X1854706D01*
X1827828Y1645640D02*
X1854593D01*
X1824639Y1642451D02*
X1854563D01*
X1825347Y1643160D02*
X1854514D01*
X1831291Y1639616D02*
X1854498D01*
X1772734Y1627215D02*
X1854412D01*
X1827473Y1645285D02*
X1854381D01*
X1825702Y1643514D02*
X1854329D01*
X1824284Y1642097D02*
X1854306D01*
X1831114Y1639971D02*
X1854264D01*
X1827119Y1644931D02*
X1854248D01*
X1826056Y1643868D02*
X1854219D01*
X1826765Y1644577D02*
X1854179D01*
X1826410Y1644223D02*
X1854170D01*
X1823930Y1641742D02*
X1854141D01*
X1830841Y1640325D02*
X1854115D01*
X1772734Y1627569D02*
X1854057D01*
X1823576Y1641388D02*
X1854045D01*
X1830406Y1640679D02*
X1854032D01*
X1808878Y1677175D02*
X1854032D01*
X1823221Y1641034D02*
X1854010D01*
X1772734Y1627923D02*
X1853703D01*
X1809221Y1676821D02*
X1853670D01*
X1788919Y1586821D02*
X1853491D01*
X1809527Y1676467D02*
X1853436D01*
X1772734Y1628278D02*
X1853349D01*
X1809801Y1676112D02*
X1853287D01*
X1810047Y1675758D02*
X1853205D01*
X1788439Y1587175D02*
X1853123D01*
X1810267Y1675404D02*
X1853070D01*
X1772734Y1628632D02*
X1852994D01*
X1787807Y1587530D02*
X1852769D01*
X1810464Y1675049D02*
X1852716D01*
X1772734Y1628986D02*
X1852640D01*
X1786819Y1587884D02*
X1852415D01*
X1810640Y1674695D02*
X1852362D01*
X1832560Y1629341D02*
X1852286D01*
X1772734Y1588238D02*
X1852060D01*
X1810795Y1674341D02*
X1852007D01*
X1833175Y1629695D02*
X1851931D01*
X1772734Y1588593D02*
X1851706D01*
X1810932Y1673986D02*
X1851653D01*
X1772734Y1588947D02*
X1851352D01*
X1811051Y1673632D02*
X1851299D01*
X1772734Y1589301D02*
X1850997D01*
X1811153Y1673278D02*
X1850944D01*
X1772734Y1589656D02*
X1850643D01*
X1811239Y1672923D02*
X1850590D01*
X1772734Y1590010D02*
X1850289D01*
X1811308Y1672569D02*
X1850236D01*
X1772734Y1590364D02*
X1849934D01*
X1811363Y1672215D02*
X1849881D01*
X1772734Y1590719D02*
X1849580D01*
X1811402Y1671860D02*
X1849527D01*
X1772734Y1591073D02*
X1849226D01*
X1811425Y1671506D02*
X1849173D01*
X1802298Y1618356D02*
X1848879D01*
X1772734Y1591427D02*
X1848871D01*
X1811434Y1671152D02*
X1848818D01*
X1772734Y1591782D02*
X1848517D01*
X1811429Y1670797D02*
X1848464D01*
X1802148Y1618002D02*
X1848205D01*
X1772734Y1592136D02*
X1848163D01*
X1811408Y1670443D02*
X1848110D01*
X1801914Y1617648D02*
X1847843D01*
X1772734Y1599223D02*
X1847810D01*
X1811372Y1670089D02*
X1847755D01*
X1801551Y1617293D02*
X1847609D01*
X1800872Y1616939D02*
X1847460D01*
X1811321Y1669734D02*
X1847401D01*
X1772734Y1592490D02*
X1847392D01*
X1786314Y1616585D02*
X1847378D01*
X1772734Y1598868D02*
X1847347D01*
X1786586Y1616230D02*
X1847244D01*
X1772734Y1598514D02*
X1847061D01*
X1811255Y1669380D02*
X1847047D01*
X1836335Y1605246D02*
X1846916D01*
X1786790Y1615876D02*
X1846889D01*
X1772734Y1598160D02*
X1846875D01*
X1832617Y1725719D02*
X1846823D01*
X1832617Y1725364D02*
X1846823D01*
X1832617Y1725010D02*
X1846823D01*
X1832617Y1724656D02*
X1846823D01*
X1832617Y1724301D02*
X1846823D01*
X1832617Y1723947D02*
X1846823D01*
X1832617Y1723593D02*
X1846823D01*
X1832617Y1723238D02*
X1846823D01*
X1832617Y1722884D02*
X1846823D01*
X1832617Y1722530D02*
X1846823D01*
X1832617Y1722175D02*
X1846823D01*
X1845267Y1721821D02*
X1846823D01*
X1845752Y1721467D02*
X1846823D01*
X1846048Y1721112D02*
X1846823D01*
X1832617Y1717569D02*
X1846823D01*
X1832617Y1717215D02*
X1846823D01*
X1832617Y1716860D02*
X1846823D01*
X1832617Y1716506D02*
X1846823D01*
X1832617Y1716152D02*
X1846823D01*
X1832617Y1711191D02*
X1846823D01*
X1832617Y1710837D02*
X1846823D01*
X1832617Y1710482D02*
X1846823D01*
X1832617Y1710128D02*
X1846823D01*
X1832617Y1709774D02*
X1846823D01*
X1832617Y1709419D02*
X1846823D01*
X1832617Y1709065D02*
X1846823D01*
X1832617Y1708711D02*
X1846823D01*
X1832617Y1708356D02*
X1846823D01*
X1832617Y1708002D02*
X1846823D01*
X1832617Y1707648D02*
X1846823D01*
X1832617Y1707293D02*
X1846823D01*
X1832617Y1706939D02*
X1846823D01*
X1832617Y1706585D02*
X1846823D01*
X1832617Y1706230D02*
X1846823D01*
X1832617Y1705876D02*
X1846823D01*
X1832617Y1705522D02*
X1846823D01*
X1832617Y1705167D02*
X1846823D01*
X1832617Y1704813D02*
X1846823D01*
X1832617Y1704459D02*
X1846823D01*
X1832617Y1704104D02*
X1846823D01*
X1832617Y1703750D02*
X1846823D01*
X1832617Y1703396D02*
X1846823D01*
X1832617Y1703041D02*
X1846823D01*
X1832617Y1702687D02*
X1846823D01*
X1832617Y1702333D02*
X1846823D01*
X1832617Y1701978D02*
X1846823D01*
X1832617Y1701624D02*
X1846823D01*
X1832617Y1701270D02*
X1846823D01*
X1832617Y1700915D02*
X1846823D01*
X1832617Y1700561D02*
X1846823D01*
X1832617Y1700207D02*
X1846823D01*
X1832617Y1699852D02*
X1846823D01*
X1832617Y1699498D02*
X1846823D01*
X1832617Y1699144D02*
X1846823D01*
X1832617Y1698789D02*
X1846823D01*
X1832617Y1698435D02*
X1846823D01*
X1832617Y1698081D02*
X1846823D01*
X1832617Y1697726D02*
X1846823D01*
X1832617Y1697372D02*
X1846823D01*
X1832617Y1697018D02*
X1846823D01*
X1832617Y1696663D02*
X1846823D01*
X1832617Y1696309D02*
X1846823D01*
X1832617Y1695955D02*
X1846823D01*
X1832617Y1695600D02*
X1846823D01*
X1832617Y1695246D02*
X1846823D01*
X1832617Y1694892D02*
X1846823D01*
X1832617Y1694537D02*
X1846823D01*
X1832617Y1694183D02*
X1846823D01*
X1832617Y1693829D02*
X1846823D01*
X1832617Y1693474D02*
X1846823D01*
X1832617Y1693120D02*
X1846823D01*
X1832617Y1692766D02*
X1846823D01*
X1832617Y1692411D02*
X1846823D01*
X1832617Y1692057D02*
X1846823D01*
X1832617Y1691703D02*
X1846823D01*
X1772734Y1596742D02*
X1846787D01*
X1772734Y1597805D02*
X1846762D01*
X1846241Y1720758D02*
X1846725D01*
X1832718Y1726073D02*
X1846722D01*
X1772734Y1597097D02*
X1846720D01*
X1772734Y1597451D02*
X1846712D01*
X1829677Y1669026D02*
X1846692D01*
X1772734Y1596388D02*
X1846681D01*
X1772734Y1592845D02*
X1846654D01*
X1845185Y1717923D02*
X1846593D01*
X1786939Y1615522D02*
X1846535D01*
X1822442Y1601348D02*
X1846527D01*
X1845707Y1718278D02*
X1846370D01*
X1830579Y1668671D02*
X1846338D01*
X1836662Y1604892D02*
X1846305D01*
X1772734Y1596034D02*
X1846293D01*
X1772734Y1593199D02*
X1846276D01*
X1787041Y1615167D02*
X1846181D01*
X1832617Y1715797D02*
X1846105D01*
X1836002Y1601703D02*
X1846098D01*
X1772734Y1595679D02*
X1846045D01*
X1772734Y1593553D02*
X1846034D01*
X1830983Y1668317D02*
X1845984D01*
X1836874Y1604537D02*
X1845961D01*
X1772734Y1595325D02*
X1845885D01*
X1772734Y1593908D02*
X1845878D01*
X1836458Y1602057D02*
X1845828D01*
X1772734Y1594971D02*
X1845794D01*
X1772734Y1594262D02*
X1845791D01*
X1832617Y1711545D02*
X1845777D01*
X1772734Y1594616D02*
X1845764D01*
X1837007Y1604183D02*
X1845738D01*
X1836741Y1602411D02*
X1845652D01*
X1831240Y1667963D02*
X1845629D01*
X1837075Y1603829D02*
X1845598D01*
X1836925Y1602766D02*
X1845549D01*
X1837085Y1603474D02*
X1845523D01*
X1837036Y1603120D02*
X1845507D01*
X1831406Y1667608D02*
X1845275D01*
X1832617Y1715443D02*
X1845203D01*
X1832617Y1711900D02*
X1845098D01*
X1831501Y1667254D02*
X1844921D01*
X1832617Y1715089D02*
X1844799D01*
X1832617Y1712254D02*
X1844735D01*
X1831537Y1666900D02*
X1844566D01*
X1832617Y1714734D02*
X1844543D01*
X1832617Y1712608D02*
X1844500D01*
X1832617Y1714380D02*
X1844377D01*
X1832617Y1712963D02*
X1844351D01*
X1832617Y1714026D02*
X1844281D01*
X1832617Y1713317D02*
X1844269D01*
X1832617Y1713671D02*
X1844246D01*
X1831514Y1666545D02*
X1844212D01*
X1831432Y1666191D02*
X1843858D01*
X1831282Y1665837D02*
X1843503D01*
X1832617Y1717923D02*
X1843275D01*
X1832617Y1721821D02*
X1843193D01*
X1831074Y1665482D02*
X1843149D01*
X1831240Y1665128D02*
X1842795D01*
X1832617Y1718278D02*
X1842753D01*
X1832617Y1721467D02*
X1842708D01*
X1832617Y1718632D02*
X1842441D01*
X1831406Y1664774D02*
X1842440D01*
X1832617Y1721112D02*
X1842412D01*
X1832617Y1718986D02*
X1842237D01*
X1832617Y1720758D02*
X1842219D01*
X1832617Y1719341D02*
X1842112D01*
X1832617Y1720404D02*
X1842101D01*
X1831501Y1664419D02*
X1842086D01*
X1832617Y1719695D02*
X1842050D01*
X1832617Y1720049D02*
X1842046D01*
X1831537Y1664065D02*
X1841732D01*
X1831514Y1663711D02*
X1841377D01*
X1831432Y1663356D02*
X1841023D01*
X1831282Y1663002D02*
X1840669D01*
X1831048Y1662648D02*
X1840314D01*
X1830684Y1662293D02*
X1839960D01*
X1830005Y1661939D02*
X1839606D01*
X1772734Y1661585D02*
X1839251D01*
X1772734Y1661230D02*
X1838897D01*
X1772734Y1660876D02*
X1838543D01*
X1772734Y1660522D02*
X1838188D01*
X1789896Y1585758D02*
X1838000D01*
X1787883Y1577963D02*
X1837859D01*
X1772734Y1660167D02*
X1837834D01*
X1772734Y1659813D02*
X1837480D01*
X1790121Y1585404D02*
X1837243D01*
X1788495Y1578317D02*
X1837158D01*
X1772734Y1659459D02*
X1837125D01*
X1772734Y1659104D02*
X1836771D01*
X1790310Y1585049D02*
X1836738D01*
X1788963Y1578671D02*
X1836676D01*
X1772734Y1658750D02*
X1836417D01*
X1790467Y1584695D02*
X1836358D01*
X1789343Y1579026D02*
X1836309D01*
X1772734Y1658396D02*
X1836062D01*
X1790593Y1584341D02*
X1836057D01*
X1789657Y1579380D02*
X1836019D01*
X1790693Y1583986D02*
X1835817D01*
X1789921Y1579734D02*
X1835786D01*
X1772734Y1658041D02*
X1835708D01*
X1790767Y1583632D02*
X1835626D01*
X1790143Y1580089D02*
X1835601D01*
X1790815Y1583278D02*
X1835475D01*
X1790328Y1580443D02*
X1835457D01*
X1790840Y1582923D02*
X1835362D01*
X1772734Y1657687D02*
X1835354D01*
X1790481Y1580797D02*
X1835348D01*
X1790842Y1582569D02*
X1835282D01*
X1790605Y1581152D02*
X1835273D01*
X1790819Y1582215D02*
X1835234D01*
X1790702Y1581506D02*
X1835230D01*
X1790773Y1581860D02*
X1835217D01*
X1772734Y1657333D02*
X1834999D01*
X1772734Y1656978D02*
X1834645D01*
X1772734Y1656624D02*
X1834291D01*
X1826128Y1605600D02*
X1834024D01*
X1772734Y1656270D02*
X1833936D01*
X1822600Y1601703D02*
X1833797D01*
X1772734Y1655915D02*
X1833582D01*
X1825773Y1605246D02*
X1833463D01*
X1822689Y1602057D02*
X1833340D01*
X1772734Y1655561D02*
X1833228D01*
X1825419Y1604892D02*
X1833136D01*
X1822939Y1602411D02*
X1833057D01*
X1825065Y1604537D02*
X1832924D01*
X1772734Y1622963D02*
X1832888D01*
X1772734Y1655207D02*
X1832873D01*
X1823293Y1602766D02*
X1832873D01*
X1824710Y1604183D02*
X1832791D01*
X1823647Y1603120D02*
X1832762D01*
X1824356Y1603829D02*
X1832723D01*
X1824002Y1603474D02*
X1832713D01*
X1772734Y1626860D02*
X1832650D01*
X1772734Y1654852D02*
X1832519D01*
X1772734Y1623317D02*
X1832324D01*
X1772734Y1626506D02*
X1832196D01*
X1772734Y1654498D02*
X1832165D01*
X1772734Y1623671D02*
X1831997D01*
X1772734Y1626152D02*
X1831914D01*
X1772734Y1654144D02*
X1831810D01*
X1772734Y1624026D02*
X1831783D01*
X1772734Y1625797D02*
X1831730D01*
X1772734Y1624380D02*
X1831650D01*
X1772734Y1625443D02*
X1831620D01*
X1772734Y1624734D02*
X1831581D01*
X1772734Y1625089D02*
X1831571D01*
X1772734Y1653789D02*
X1831456D01*
X1772734Y1653435D02*
X1831102D01*
X1772734Y1629341D02*
X1831017D01*
X1772734Y1653081D02*
X1830748D01*
X1772734Y1629695D02*
X1830403D01*
X1772734Y1652726D02*
X1830393D01*
X1772734Y1630049D02*
X1830058D01*
X1772734Y1652372D02*
X1830039D01*
X1772734Y1630404D02*
X1829834D01*
X1785248Y1630758D02*
X1829693D01*
X1772734Y1652018D02*
X1829685D01*
X1812329Y1631821D02*
X1829625D01*
X1811446Y1631112D02*
X1829617D01*
X1811997Y1631467D02*
X1829601D01*
X1772734Y1651663D02*
X1829330D01*
X1811173Y1669026D02*
X1829018D01*
X1772734Y1651309D02*
X1828976D01*
X1772734Y1661939D02*
X1828690D01*
X1772734Y1650955D02*
X1828622D01*
X1781212Y1650600D02*
X1828267D01*
X1811075Y1668671D02*
X1828116D01*
X1822867Y1640679D02*
X1828098D01*
X1772734Y1662293D02*
X1828011D01*
X1781696Y1650246D02*
X1827913D01*
X1810959Y1668317D02*
X1827713D01*
X1822513Y1640325D02*
X1827663D01*
X1772734Y1662648D02*
X1827648D01*
X1809290Y1665482D02*
X1827622D01*
X1781993Y1649892D02*
X1827559D01*
X1810826Y1667963D02*
X1827456D01*
X1808955Y1665128D02*
X1827456D01*
X1809588Y1665837D02*
X1827414D01*
X1805389Y1663002D02*
X1827414D01*
X1822158Y1639971D02*
X1827390D01*
X1810675Y1667608D02*
X1827290D01*
X1808578Y1664774D02*
X1827290D01*
X1808906Y1611624D02*
X1827280D01*
X1809856Y1666191D02*
X1827264D01*
X1806357Y1663356D02*
X1827264D01*
X1821804Y1639616D02*
X1827213D01*
X1782186Y1649537D02*
X1827204D01*
X1810503Y1667254D02*
X1827194D01*
X1808150Y1664419D02*
X1827194D01*
X1810096Y1666545D02*
X1827182D01*
X1807074Y1663711D02*
X1827182D01*
X1810311Y1666900D02*
X1827159D01*
X1807657Y1664065D02*
X1827159D01*
X1821450Y1639262D02*
X1827108D01*
X1808551Y1611270D02*
X1826978D01*
X1782303Y1649183D02*
X1826850D01*
X1808424Y1610915D02*
X1826621D01*
X1821095Y1638908D02*
X1826514D01*
X1782358Y1648829D02*
X1826496D01*
X1808290Y1610561D02*
X1826266D01*
X1782355Y1648474D02*
X1826141D01*
X1820741Y1638553D02*
X1825939D01*
X1808077Y1610207D02*
X1825912D01*
X1782293Y1648120D02*
X1825787D01*
X1818606Y1635364D02*
X1825726D01*
X1820387Y1638199D02*
X1825608D01*
X1807763Y1609852D02*
X1825558D01*
X1818727Y1635719D02*
X1825513D01*
X1782167Y1647766D02*
X1825433D01*
X1820032Y1637845D02*
X1825392D01*
X1818803Y1636073D02*
X1825331D01*
X1819678Y1637490D02*
X1825257D01*
X1818819Y1636427D02*
X1825223D01*
X1807958Y1609498D02*
X1825203D01*
X1819324Y1637136D02*
X1825187D01*
X1818969Y1636782D02*
X1825176D01*
X1781964Y1647411D02*
X1825078D01*
X1808340Y1609144D02*
X1824849D01*
X1781652Y1647057D02*
X1824724D01*
X1808585Y1608789D02*
X1824495D01*
X1781129Y1646703D02*
X1824370D01*
X1811804Y1608435D02*
X1824140D01*
X1779680Y1646348D02*
X1824015D01*
X1817016Y1608081D02*
X1823786D01*
X1779368Y1645994D02*
X1823661D01*
X1817443Y1607726D02*
X1823432D01*
X1778846Y1645640D02*
X1823307D01*
X1817712Y1607372D02*
X1823077D01*
X1772734Y1645285D02*
X1822952D01*
X1817887Y1607018D02*
X1822723D01*
X1772734Y1644931D02*
X1822598D01*
X1817990Y1606663D02*
X1822369D01*
X1772734Y1644577D02*
X1822244D01*
X1818032Y1606309D02*
X1822014D01*
X1772734Y1644223D02*
X1821889D01*
X1818015Y1605955D02*
X1821660D01*
X1772734Y1643868D02*
X1821535D01*
X1817940Y1605600D02*
X1821306D01*
X1772734Y1643514D02*
X1821181D01*
X1818300Y1605246D02*
X1820952D01*
X1772734Y1643160D02*
X1820826D01*
X1818820Y1604892D02*
X1820597D01*
X1772734Y1642805D02*
X1820472D01*
X1772734Y1642451D02*
X1820118D01*
X1772734Y1600285D02*
X1820013D01*
X1819131Y1604537D02*
X1820002D01*
X1772734Y1642097D02*
X1819763D01*
X1772734Y1641742D02*
X1819409D01*
X1772734Y1600640D02*
X1819245D01*
X1772734Y1641388D02*
X1819055D01*
X1772734Y1600994D02*
X1818862D01*
X1772734Y1641034D02*
X1818700D01*
X1818372Y1601348D02*
X1818593D01*
X1772734Y1640679D02*
X1818346D01*
X1772734Y1640325D02*
X1817992D01*
X1772734Y1639971D02*
X1817637D01*
X1772734Y1639616D02*
X1817283D01*
X1772734Y1639262D02*
X1816929D01*
X1772734Y1638908D02*
X1816574D01*
X1772734Y1601348D02*
X1816308D01*
X1772734Y1638553D02*
X1816220D01*
X1772734Y1601703D02*
X1815821D01*
X1772734Y1602057D02*
X1815524D01*
X1772734Y1638199D02*
X1815460D01*
X1772734Y1602411D02*
X1815330D01*
X1772734Y1603829D02*
X1815221D01*
X1772734Y1602766D02*
X1815212D01*
X1772734Y1603474D02*
X1815160D01*
X1772734Y1603120D02*
X1815157D01*
X1772734Y1604183D02*
X1815072D01*
X1772734Y1637845D02*
X1815032D01*
X1772734Y1637490D02*
X1814763D01*
X1812324Y1608081D02*
X1814672D01*
X1786637Y1635364D02*
X1814656D01*
X1772734Y1637136D02*
X1814588D01*
X1786381Y1635719D02*
X1814535D01*
X1784691Y1636782D02*
X1814485D01*
X1786038Y1636073D02*
X1814460D01*
X1811876Y1604537D02*
X1814458D01*
X1785552Y1636427D02*
X1814444D01*
X1812635Y1607726D02*
X1814245D01*
X1812363Y1604892D02*
X1814113D01*
X1812838Y1607372D02*
X1813976D01*
X1812660Y1605246D02*
X1813889D01*
X1812963Y1607018D02*
X1813801D01*
X1812854Y1605600D02*
X1813748D01*
X1813024Y1606663D02*
X1813698D01*
X1812972Y1605955D02*
X1813673D01*
X1813027Y1606309D02*
X1813656D01*
X1808742Y1608435D02*
X1809884D01*
X1772734Y1604537D02*
X1809812D01*
X1785843Y1631112D02*
X1809657D01*
X1786827Y1635010D02*
X1809464D01*
X1808831Y1608081D02*
X1809364D01*
X1772734Y1604892D02*
X1809325D01*
X1786240Y1631467D02*
X1809105D01*
X1772734Y1605246D02*
X1809028D01*
X1786965Y1634656D02*
X1809001D01*
X1807187Y1605600D02*
X1808834D01*
X1786531Y1631821D02*
X1808782D01*
X1807955Y1605955D02*
X1808716D01*
X1787057Y1634301D02*
X1808715D01*
X1808339Y1606309D02*
X1808615D01*
X1786748Y1632175D02*
X1808572D01*
X1787108Y1633947D02*
X1808528D01*
X1786909Y1632530D02*
X1808441D01*
X1787119Y1633593D02*
X1808416D01*
X1787021Y1632884D02*
X1808374D01*
X1787090Y1633238D02*
X1808366D01*
X1787100Y1614813D02*
X1807677D01*
X1787120Y1614459D02*
X1807219D01*
X1787100Y1614104D02*
X1806865D01*
X1787040Y1613750D02*
X1806511D01*
X1772734Y1605600D02*
X1806155D01*
X1772734Y1605955D02*
X1805387D01*
X1772734Y1609498D02*
X1805251D01*
X1786938Y1613396D02*
X1805209D01*
X1772734Y1606309D02*
X1805004D01*
X1772734Y1609144D02*
X1805001D01*
X1772734Y1609852D02*
X1804884D01*
X1772734Y1606663D02*
X1804758D01*
X1772734Y1608789D02*
X1804756D01*
X1786788Y1613041D02*
X1804755D01*
X1772734Y1607018D02*
X1804600D01*
X1772734Y1608435D02*
X1804599D01*
X1772734Y1610207D02*
X1804556D01*
X1772734Y1607372D02*
X1804511D01*
X1772734Y1608081D02*
X1804510D01*
X1772734Y1607726D02*
X1804482D01*
X1786584Y1612687D02*
X1804473D01*
X1772734Y1610561D02*
X1804342D01*
X1786311Y1612333D02*
X1804289D01*
X1772734Y1610915D02*
X1804209D01*
X1785942Y1611978D02*
X1804179D01*
X1784216Y1611270D02*
X1804140D01*
X1785407Y1611624D02*
X1804131D01*
X1772734Y1663002D02*
X1800551D01*
X1772734Y1621191D02*
X1799885D01*
X1772734Y1663356D02*
X1799582D01*
X1772734Y1678947D02*
X1799558D01*
X1785946Y1616939D02*
X1799557D01*
X1772734Y1678593D02*
X1799006D01*
X1772734Y1620837D02*
X1798983D01*
X1785413Y1617293D02*
X1798877D01*
X1772734Y1663711D02*
X1798865D01*
X1772734Y1620482D02*
X1798579D01*
X1784248Y1617648D02*
X1798514D01*
X1772734Y1678238D02*
X1798400D01*
X1772734Y1620128D02*
X1798322D01*
X1772734Y1664065D02*
X1798283D01*
X1772734Y1618002D02*
X1798280D01*
X1772734Y1619774D02*
X1798156D01*
X1772734Y1618356D02*
X1798130D01*
X1772734Y1619419D02*
X1798061D01*
X1772734Y1618711D02*
X1798048D01*
X1772734Y1619065D02*
X1798025D01*
X1772734Y1677884D02*
X1797889D01*
X1772734Y1664419D02*
X1797790D01*
X1772734Y1677530D02*
X1797449D01*
X1772734Y1664774D02*
X1797361D01*
X1772734Y1677175D02*
X1797062D01*
X1772734Y1665128D02*
X1796985D01*
X1772734Y1676821D02*
X1796719D01*
X1772734Y1665482D02*
X1796650D01*
X1772734Y1676467D02*
X1796413D01*
X1772734Y1665837D02*
X1796352D01*
X1772734Y1676112D02*
X1796139D01*
X1772734Y1666191D02*
X1796084D01*
X1772734Y1675758D02*
X1795893D01*
X1772734Y1666545D02*
X1795844D01*
X1772734Y1675404D02*
X1795673D01*
X1772734Y1666900D02*
X1795629D01*
X1772734Y1675049D02*
X1795476D01*
X1772734Y1667254D02*
X1795437D01*
X1772734Y1674695D02*
X1795300D01*
X1772734Y1667608D02*
X1795265D01*
X1772734Y1674341D02*
X1795145D01*
X1772734Y1667963D02*
X1795114D01*
X1772734Y1673986D02*
X1795008D01*
X1772734Y1668317D02*
X1794981D01*
X1789323Y1673632D02*
X1794889D01*
X1772734Y1668671D02*
X1794865D01*
X1790225Y1673278D02*
X1794787D01*
X1772734Y1669026D02*
X1794767D01*
X1790629Y1672923D02*
X1794701D01*
X1789651Y1669380D02*
X1794685D01*
X1790886Y1672569D02*
X1794631D01*
X1790330Y1669734D02*
X1794619D01*
X1791051Y1672215D02*
X1794577D01*
X1790693Y1670089D02*
X1794568D01*
X1791147Y1671860D02*
X1794538D01*
X1790928Y1670443D02*
X1794532D01*
X1791182Y1671506D02*
X1794514D01*
X1791077Y1670797D02*
X1794511D01*
X1791160Y1671152D02*
X1794505D01*
X1787258Y1673632D02*
X1788664D01*
X1786904Y1669380D02*
X1788336D01*
X1772734D02*
X1786280D01*
X1772734Y1673632D02*
X1785926D01*
X1772734Y1669734D02*
X1785364D01*
X1772734Y1673278D02*
X1785252D01*
X1772734Y1670089D02*
X1784959D01*
X1772734Y1672923D02*
X1784890D01*
X1772734Y1670443D02*
X1784702D01*
X1772734Y1672569D02*
X1784656D01*
X1772734Y1670797D02*
X1784535D01*
X1772734Y1672215D02*
X1784507D01*
X1772734Y1671152D02*
X1784439D01*
X1772734Y1671860D02*
X1784426D01*
X1772734Y1671506D02*
X1784403D01*
X1772734Y1587884D02*
X1784240D01*
X1775013Y1577608D02*
X1784100D01*
X1772734Y1611270D02*
X1783614D01*
X1772734Y1617648D02*
X1783582D01*
X1772734Y1587530D02*
X1783251D01*
X1774647Y1577963D02*
X1783175D01*
X1772734Y1636782D02*
X1783138D01*
X1772734Y1587175D02*
X1782619D01*
X1772734Y1630758D02*
X1782582D01*
X1774331Y1578317D02*
X1782563D01*
X1772734Y1611624D02*
X1782423D01*
X1772734Y1617293D02*
X1782417D01*
X1772734Y1636427D02*
X1782278D01*
X1772734Y1586821D02*
X1782139D01*
X1774054Y1578671D02*
X1782095D01*
X1772734Y1631112D02*
X1781987D01*
X1772734Y1611978D02*
X1781887D01*
X1772734Y1616939D02*
X1781884D01*
X1772734Y1636073D02*
X1781792D01*
X1772734Y1586467D02*
X1781751D01*
X1773813Y1579026D02*
X1781715D01*
X1772734Y1631467D02*
X1781590D01*
X1772734Y1612333D02*
X1781518D01*
X1772734Y1616585D02*
X1781515D01*
X1772734Y1635719D02*
X1781448D01*
X1772734Y1586112D02*
X1781431D01*
X1773602Y1579380D02*
X1781401D01*
X1772734Y1631821D02*
X1781299D01*
X1772734Y1612687D02*
X1781245D01*
X1772734Y1616230D02*
X1781243D01*
X1772734Y1635364D02*
X1781193D01*
X1772734Y1585758D02*
X1781162D01*
X1773418Y1579734D02*
X1781137D01*
X1772734Y1632175D02*
X1781081D01*
X1772734Y1613041D02*
X1781041D01*
X1772734Y1615876D02*
X1781040D01*
X1772734Y1635010D02*
X1781003D01*
X1772734Y1585404D02*
X1780937D01*
X1772734Y1632530D02*
X1780921D01*
X1773259Y1580089D02*
X1780916D01*
X1772734Y1613396D02*
X1780892D01*
X1772734Y1615522D02*
X1780891D01*
X1772734Y1634656D02*
X1780865D01*
X1772734Y1632884D02*
X1780809D01*
X1772734Y1613750D02*
X1780790D01*
X1772734Y1615167D02*
X1780789D01*
X1772734Y1634301D02*
X1780772D01*
X1772734Y1585049D02*
X1780748D01*
X1772734Y1633238D02*
X1780740D01*
X1773124Y1580443D02*
X1780730D01*
X1772734Y1614104D02*
X1780730D01*
X1772734Y1614813D02*
X1780730D01*
X1772734Y1633947D02*
X1780722D01*
X1772734Y1633593D02*
X1780711D01*
X1772734Y1614459D02*
X1780710D01*
X1772734Y1584695D02*
X1780592D01*
X1773010Y1580797D02*
X1780577D01*
X1772734Y1584341D02*
X1780465D01*
X1772916Y1581152D02*
X1780453D01*
X1772734Y1583986D02*
X1780365D01*
X1772843Y1581506D02*
X1780356D01*
X1772734Y1583632D02*
X1780292D01*
X1772789Y1581860D02*
X1780285D01*
X1772734Y1583278D02*
X1780243D01*
X1772753Y1582215D02*
X1780239D01*
X1772734Y1582923D02*
X1780218D01*
X1772736Y1582569D02*
X1780216D01*
X1776636Y1650600D02*
X1779138D01*
X1777090Y1650246D02*
X1778653D01*
X1777373Y1649892D02*
X1778357D01*
X1772734Y1645640D02*
X1776936D01*
X1772734Y1645994D02*
X1776414D01*
X1772734Y1646348D02*
X1776102D01*
X1772734Y1646703D02*
X1774660D01*
X1772734Y1650600D02*
X1774422D01*
X1772734Y1647057D02*
X1774096D01*
X1772734Y1650246D02*
X1773968D01*
X1772734Y1647411D02*
X1773768D01*
X1772734Y1649892D02*
X1773685D01*
X1772734Y1647766D02*
X1773555D01*
X1772734Y1649537D02*
X1773502D01*
X1772734Y1648120D02*
X1773422D01*
X1772734Y1649183D02*
X1773391D01*
X1772734Y1648474D02*
X1773353D01*
X1772734Y1648829D02*
X1773343D01*
X1897023Y1603931D02*
X1909163D01*
X1897049Y1604285D02*
X1908809D01*
X1897016Y1604640D02*
X1908454D01*
X1896923Y1604994D02*
X1908100D01*
X1896761Y1605348D02*
X1907746D01*
X1896746Y1605703D02*
X1907391D01*
X1896899Y1606057D02*
X1907037D01*
X1896984Y1606411D02*
X1906683D01*
X1897009Y1606766D02*
X1906328D01*
X1896977Y1607120D02*
X1905974D01*
X1897117Y1607474D02*
X1905564D01*
G54D52*
X1857289Y1784353D03*
X1853689D03*
X1795962Y1731978D03*
Y1735578D03*
X1813608Y1771381D03*
Y1767781D03*
X1803519Y1755701D03*
X1807119D03*
X1796014Y1748431D03*
X1792414D03*
X1796063Y1755889D03*
X1792463D03*
X1792442Y1752110D03*
X1796042D03*
X1939107Y1782296D03*
X1942707D03*
X1864648Y1767546D03*
X1861048D03*
X1965608Y1695928D03*
Y1699528D03*
X1962025Y1699567D03*
Y1695967D03*
X1965557Y1692295D03*
X1961957D03*
X1908149Y1626933D03*
Y1630533D03*
X1948387Y1681750D03*
X1951987D03*
X1947312Y1712767D03*
X1950912D03*
X1959112Y1735040D03*
Y1731440D03*
X1946152Y1768681D03*
Y1772281D03*
X1963687Y1731411D03*
Y1735011D03*
X1946136Y1759591D03*
Y1763191D03*
X1931934Y1782203D03*
X1935534D03*
X1924656Y1782112D03*
X1928256D03*
X1924445Y1786081D03*
X1928045D03*
G54D54*
X1853565Y1771477D03*
X1861065D03*
G54D55*
X1857315Y1779477D03*
G54D63*
X1940769Y1742339D03*
Y1749819D03*
X1950611Y1746079D03*
G54D64*
X1796343Y1763459D03*
X1807367D03*
X1796261Y1775828D03*
X1807285D03*
X1949743Y1672352D03*
X1960767D03*
X1940387Y1766227D03*
X1929363D03*
X1940295Y1775491D03*
X1929271D03*
X1940278Y1757125D03*
X1929254D03*
X1947331Y1706150D03*
X1958355D03*
G54D65*
X1783915Y1614460D03*
Y1633672D03*
G54D73*
X1914695Y1622225D03*
Y1633249D03*
X1783657Y1728613D03*
Y1739637D03*
X1951594Y1734062D03*
Y1723038D03*
G54D76*
X1948203Y1623965D03*
Y1634965D03*
G54D96*
X1948985Y1688380D03*
Y1690348D03*
Y1692317D03*
Y1694285D03*
X1956466D03*
Y1692317D03*
Y1690348D03*
Y1688380D03*
G54D97*
X1952725Y1691332D03*
G54D99*
X1821487Y1753356D03*
Y1769498D03*
G54D162*
X1925647Y1750759D03*
X1933127D03*
X1929387Y1740917D03*
G54D163*
X1939112Y1633476D03*
Y1630405D03*
X1939151Y1627255D03*
Y1624145D03*
X1922970D03*
Y1627255D03*
Y1630405D03*
Y1633515D03*
G54D164*
X1931041Y1628830D03*
G54D165*
X1824536Y1731419D03*
X1820796D03*
X1817056D03*
Y1741655D03*
X1820796D03*
X1824536D03*
G54D174*
X1902786Y1629027D03*
Y1622827D03*
X1790788Y1731542D03*
Y1737742D03*
X1937601Y1697802D03*
Y1691602D03*
X1962352Y1681440D03*
Y1687640D03*
G54D175*
X1808706Y1750398D03*
X1802506D03*
G54D180*
X1801542Y1743456D03*
X1805282D03*
X1809061D03*
Y1732551D03*
X1805282D03*
X1801542D03*
G54D188*
X1871775Y1630915D02*
Y1633737D01*
X1875775Y1637738*
X1893905*
X1902441Y1646274*
X1922810*
X1923803Y1647266*
X1923809*
X1923822Y1647254*
X1795962Y1735578D02*
Y1737515D01*
X1795948Y1737529*
X1809061Y1743456D02*
X1809137Y1743532D01*
Y1746860*
X1831932Y1794774D02*
X1831852Y1794854D01*
X1794190*
G54D195*
X1821987Y1712831D03*
X1796791D03*
G54D202*
X1869374Y1581834D03*
G54D203*
X1859374D03*
X1849374D03*
X1839374D03*
G74*
X0Y0D02*
M02*
