*
*
G04 PADS 9.5 Build Number: 522968 generated Gerber (RS-274-X) file*
G04 PC Version=2.1*
*
%IN "LK02 Main board V0.3.pc"*%
*
%MOIN*%
*
%FSLAX35Y35*%
*
*
*
*
G04 PC Standard Apertures*
*
*
G04 Thermal Relief Aperture macro.*
%AMTER*
1,1,$1,0,0*
1,0,$1-$2,0,0*
21,0,$3,$4,0,0,45*
21,0,$3,$4,0,0,135*
%
*
*
G04 Annular Aperture macro.*
%AMANN*
1,1,$1,0,0*
1,0,$2,0,0*
%
*
*
G04 Odd Aperture macro.*
%AMODD*
1,1,$1,0,0*
1,0,$1-0.005,0,0*
%
*
*
G04 PC Custom Aperture Macros*
*
*
*
*
*
*
G04 PC Aperture Table*
*
%ADD010C,0.001*%
%ADD023C,0.01969*%
%ADD030C,0.01*%
*
*
*
*
G04 PC Circuitry*
G04 Layer Name LK02 Main board V0.3.pc - circuitry*
%LPD*%
*
*
G04 PC Custom Flashes*
G04 Layer Name LK02 Main board V0.3.pc - flashes*
%LPD*%
*
*
G04 PC Circuitry*
G04 Layer Name LK02 Main board V0.3.pc - circuitry*
%LPD*%
*
G54D10*
G01X1771749Y1800990D02*
Y1582728D01*
X1771749D02*
G75*
G03X1779624Y1574854I7875J-0D01*
G01X1960726*
G03X1968600Y1582728I-0J7874*
G01Y1801006*
G03X1961190Y1808417I-7410J0*
G01X1779176*
G03X1771749Y1800990I0J-7427*
G01X1789860Y1763830D02*
G03X1789860I-4331J0D01*
G01X1959151D02*
G03X1959151I-4331J0D01*
G01X1810450Y1671114D02*
G03X1810450I-7480J0D01*
G01X1914781Y1671035D02*
G03X1914781I-7480J0D01*
G01X1789860Y1582728D02*
G03X1789860I-4331J0D01*
G01X1959151D02*
G03X1959151I-4331J0D01*
G01X1895723Y1767964D02*
Y1760090D01*
X1925096Y1584854D02*
X1938875D01*
X1925096Y1646271D02*
Y1584854D01*
X1938875D02*
Y1646271D01*
X1925096*
X1938915Y1584696D02*
Y1646114D01*
X1925135*
Y1584696*
X1938915*
X1771704Y1582727D02*
X1771706D01*
X1968554D02*
X1968557D01*
X1779578Y1574853D02*
X1779580D01*
X1779130Y1808416D02*
X1779133D01*
G54D23*
X1771704Y1800989D02*
Y1582727D01*
G03X1779578Y1574853I7874J0*
G01X1960680*
G03X1968554Y1582727I-0J7874*
G01Y1801006*
G03X1961144Y1808416I-7410J-0*
G01X1779130*
G03X1771704Y1800989I0J-7427*
G01X1789814Y1763830D02*
G03X1789814I-4331J0D01*
G01X1959105D02*
G03X1959105I-4331J0D01*
G01X1810404Y1671113D02*
G03X1810404I-7480J0D01*
G01X1914735Y1671034D02*
G03X1914735I-7480J0D01*
G01X1789814Y1582727D02*
G03X1789814I-4331J0D01*
G01X1959105D02*
G03X1959105I-4331J0D01*
G54D30*
G01X1865374Y1577834D02*
X1873374Y1585834D01*
X1865374D02*
X1873374Y1577834D01*
X1855374D02*
X1863374Y1585834D01*
X1855374D02*
X1863374Y1577834D01*
X1845374D02*
X1853374Y1585834D01*
X1845374D02*
X1853374Y1577834D01*
X1835374D02*
X1843374Y1585834D01*
X1835374D02*
X1843374Y1577834D01*
X1779915Y1610460D02*
X1787915D01*
Y1618460*
X1779915*
Y1610460*
X1783915Y1614460D02*
Y1618460D01*
X1779915Y1629672D02*
X1787915D01*
Y1637672*
X1779915*
Y1629672*
X1783915Y1633672D02*
Y1637672D01*
X1923205Y1579094D02*
X1931205D01*
X1927205Y1575094D02*
Y1583094D01*
X1811051Y1580838D02*
X1819051D01*
X1815051Y1576838D02*
Y1584838D01*
X1806247Y1583788D02*
X1814247D01*
X1810247Y1579788D02*
Y1587788D01*
X1811080Y1585851D02*
X1819080D01*
X1815080Y1581851D02*
Y1589851D01*
X1817216Y1580835D02*
X1825216D01*
X1821216Y1576835D02*
Y1584835D01*
X1817222Y1585777D02*
X1825222D01*
X1821222Y1581777D02*
Y1589777D01*
X1880173Y1585394D02*
X1888173D01*
X1884173Y1581394D02*
Y1589394D01*
X1890252Y1585669D02*
X1898252D01*
X1894252Y1581669D02*
Y1589669D01*
X1900055Y1585630D02*
X1908055D01*
X1904055Y1581630D02*
Y1589630D01*
X1910409Y1581496D02*
X1918409D01*
X1914409Y1577496D02*
Y1585496D01*
X1778143Y1597531D02*
X1786143D01*
X1782143Y1593531D02*
Y1601531D01*
X1783694Y1597531D02*
X1791694D01*
X1787694Y1593531D02*
Y1601531D01*
X1789246Y1597531D02*
X1797246D01*
X1793246Y1593531D02*
Y1601531D01*
X1800902Y1591763D02*
X1808902D01*
X1804902Y1587763D02*
Y1595763D01*
X1800348Y1597531D02*
X1808348D01*
X1804348Y1593531D02*
Y1601531D01*
X1794797Y1597531D02*
X1802797D01*
X1798797Y1593531D02*
Y1601531D01*
X1806057Y1590799D02*
X1814057D01*
X1810057Y1586799D02*
Y1594799D01*
X1805899Y1597531D02*
X1813899D01*
X1809899Y1593531D02*
Y1601531D01*
X1805996Y1594010D02*
X1813996D01*
X1809996Y1590010D02*
Y1598010D01*
X1814898Y1593543D02*
X1822898D01*
X1818898Y1589543D02*
Y1597543D01*
X1844898Y1597323D02*
X1852898D01*
X1848898Y1593323D02*
Y1601323D01*
X1843953Y1594606D02*
X1851953D01*
X1847953Y1590606D02*
Y1598606D01*
X1871157Y1596535D02*
X1879157D01*
X1875157Y1592535D02*
Y1600535D01*
X1873283Y1592165D02*
X1881283D01*
X1877283Y1588165D02*
Y1596165D01*
X1887181Y1597520D02*
X1895181D01*
X1891181Y1593520D02*
Y1601520D01*
X1898677Y1597677D02*
X1906677D01*
X1902677Y1593677D02*
Y1601677D01*
X1894442Y1598830D02*
X1902442D01*
X1898442Y1594830D02*
Y1602830D01*
X1909819Y1590984D02*
X1917819D01*
X1913819Y1586984D02*
Y1594984D01*
X1929718Y1591547D02*
X1937718D01*
X1933718Y1587547D02*
Y1595547D01*
X1947092Y1598158D02*
X1955092D01*
X1951092Y1594158D02*
Y1602158D01*
X1952836Y1598311D02*
X1960836D01*
X1956836Y1594311D02*
Y1602311D01*
X1959499Y1598158D02*
X1967499D01*
X1963499Y1594158D02*
Y1602158D01*
X1802671Y1607728D02*
X1810671D01*
X1806671Y1603728D02*
Y1611728D01*
X1806844Y1606468D02*
X1814844D01*
X1810844Y1602468D02*
Y1610468D01*
X1813340Y1603279D02*
X1821340D01*
X1817340Y1599279D02*
Y1607279D01*
X1811844Y1606232D02*
X1819844D01*
X1815844Y1602232D02*
Y1610232D01*
X1816529Y1602413D02*
X1824529D01*
X1820529Y1598413D02*
Y1606413D01*
X1830899Y1603594D02*
X1838899D01*
X1834899Y1599594D02*
Y1607594D01*
X1843694Y1603200D02*
X1851694D01*
X1847694Y1599200D02*
Y1607200D01*
X1839954Y1603121D02*
X1847954D01*
X1843954Y1599121D02*
Y1607121D01*
X1867671Y1599342D02*
X1875671D01*
X1871671Y1595342D02*
Y1603342D01*
X1869324Y1607846D02*
X1877324D01*
X1873324Y1603846D02*
Y1611846D01*
X1881472Y1599606D02*
X1889472D01*
X1885472Y1595606D02*
Y1603606D01*
X1890820Y1606743D02*
X1898820D01*
X1894820Y1602743D02*
Y1610743D01*
X1890860Y1604263D02*
X1898860D01*
X1894860Y1600263D02*
Y1608263D01*
X1894425Y1605079D02*
X1902425D01*
X1898425Y1601079D02*
Y1609079D01*
X1929482Y1601980D02*
X1937482D01*
X1933482Y1597980D02*
Y1605980D01*
X1929639Y1606940D02*
X1937639D01*
X1933639Y1602940D02*
Y1610940D01*
X1952872Y1602094D02*
X1960872D01*
X1956872Y1598094D02*
Y1606094D01*
X1953066Y1607272D02*
X1961066D01*
X1957066Y1603272D02*
Y1611272D01*
X1950156Y1607196D02*
X1958156D01*
X1954156Y1603196D02*
Y1611196D01*
X1947169Y1602064D02*
X1955169D01*
X1951169Y1598064D02*
Y1606064D01*
X1959435Y1602149D02*
X1967435D01*
X1963435Y1598149D02*
Y1606149D01*
X1793143Y1612452D02*
X1801143D01*
X1797143Y1608452D02*
Y1616452D01*
X1802316Y1611507D02*
X1810316D01*
X1806316Y1607507D02*
Y1615507D01*
X1796214Y1619027D02*
X1804214D01*
X1800214Y1615027D02*
Y1623027D01*
X1798458Y1612649D02*
X1806458D01*
X1802458Y1608649D02*
Y1616649D01*
X1813029Y1617356D02*
X1821029D01*
X1817029Y1613356D02*
Y1621356D01*
X1815888Y1617260D02*
X1823888D01*
X1819888Y1613260D02*
Y1621260D01*
X1818449Y1617139D02*
X1826449D01*
X1822449Y1613139D02*
Y1621139D01*
X1845545Y1616271D02*
X1853545D01*
X1849545Y1612271D02*
Y1620271D01*
X1845646Y1612598D02*
X1853646D01*
X1849646Y1608598D02*
Y1616598D01*
X1859679Y1613791D02*
X1867679D01*
X1863679Y1609791D02*
Y1617791D01*
X1856096Y1616507D02*
X1864096D01*
X1860096Y1612507D02*
Y1620507D01*
X1859757Y1616507D02*
X1867757D01*
X1863757Y1612507D02*
Y1620507D01*
X1872671Y1615011D02*
X1880671D01*
X1876671Y1611011D02*
Y1619011D01*
X1867946Y1615011D02*
X1875946D01*
X1871946Y1611011D02*
Y1619011D01*
X1872671Y1618515D02*
X1880671D01*
X1876671Y1614515D02*
Y1622515D01*
X1870309Y1618515D02*
X1878309D01*
X1874309Y1614515D02*
Y1622515D01*
X1867946Y1618515D02*
X1875946D01*
X1871946Y1614515D02*
Y1622515D01*
X1870309Y1615090D02*
X1878309D01*
X1874309Y1611090D02*
Y1619090D01*
X1879639Y1611429D02*
X1887639D01*
X1883639Y1607429D02*
Y1615429D01*
X1875269Y1615011D02*
X1883269D01*
X1879269Y1611011D02*
Y1619011D01*
X1877395Y1618515D02*
X1885395D01*
X1881395Y1614515D02*
Y1622515D01*
X1875033Y1618515D02*
X1883033D01*
X1879033Y1614515D02*
Y1622515D01*
X1877671Y1615051D02*
X1885671D01*
X1881671Y1611051D02*
Y1619051D01*
X1899268Y1612913D02*
X1907268D01*
X1903268Y1608913D02*
Y1616913D01*
X1910528Y1617677D02*
X1918528D01*
X1914528Y1613677D02*
Y1621677D01*
X1908165Y1617677D02*
X1916165D01*
X1912165Y1613677D02*
Y1621677D01*
X1913953Y1611890D02*
X1921953D01*
X1917953Y1607890D02*
Y1615890D01*
X1942868Y1611232D02*
X1950868D01*
X1946868Y1607232D02*
Y1615232D01*
X1942356Y1616074D02*
X1950356D01*
X1946356Y1612074D02*
Y1620074D01*
X1942198Y1618515D02*
X1950198D01*
X1946198Y1614515D02*
Y1622515D01*
X1950093Y1613863D02*
X1958093D01*
X1954093Y1609863D02*
Y1617863D01*
X1947301Y1613948D02*
X1955301D01*
X1951301Y1609948D02*
Y1617948D01*
X1952843Y1613906D02*
X1960843D01*
X1956843Y1609906D02*
Y1617906D01*
X1952907Y1617413D02*
X1960907D01*
X1956907Y1613413D02*
Y1621413D01*
X1950212Y1617468D02*
X1958212D01*
X1954212Y1613468D02*
Y1621468D01*
X1947435Y1617373D02*
X1955435D01*
X1951435Y1613373D02*
Y1621373D01*
X1947316Y1610405D02*
X1955316D01*
X1951316Y1606405D02*
Y1614405D01*
X1950112Y1610405D02*
X1958112D01*
X1954112Y1606405D02*
Y1614405D01*
X1952946Y1610444D02*
X1960946D01*
X1956946Y1606444D02*
Y1614444D01*
X1944836Y1617334D02*
X1952836D01*
X1948836Y1613334D02*
Y1621334D01*
X1955801Y1610497D02*
X1963801D01*
X1959801Y1606497D02*
Y1614497D01*
X1955798Y1617468D02*
X1963798D01*
X1959798Y1613468D02*
Y1621468D01*
X1955801Y1613949D02*
X1963801D01*
X1959801Y1609949D02*
Y1617949D01*
X1813115Y1622597D02*
X1821115D01*
X1817115Y1618597D02*
Y1626597D01*
X1813029Y1619835D02*
X1821029D01*
X1817029Y1615835D02*
Y1623835D01*
X1815889Y1622667D02*
X1823889D01*
X1819889Y1618667D02*
Y1626667D01*
X1815862Y1619835D02*
X1823862D01*
X1819862Y1615835D02*
Y1623835D01*
X1818503Y1619671D02*
X1826503D01*
X1822503Y1615671D02*
Y1623671D01*
X1818449Y1622558D02*
X1826449D01*
X1822449Y1618558D02*
Y1626558D01*
X1829757Y1624972D02*
X1837757D01*
X1833757Y1620972D02*
Y1628972D01*
X1857671Y1626035D02*
X1865671D01*
X1861671Y1622035D02*
Y1630035D01*
X1857395Y1622492D02*
X1865395D01*
X1861395Y1618492D02*
Y1626492D01*
X1860190Y1628240D02*
X1868190D01*
X1864190Y1624240D02*
Y1632240D01*
X1867946Y1624854D02*
X1875946D01*
X1871946Y1620854D02*
Y1628854D01*
X1870348Y1624854D02*
X1878348D01*
X1874348Y1620854D02*
Y1628854D01*
X1867946Y1621901D02*
X1875946D01*
X1871946Y1617901D02*
Y1625901D01*
X1870309Y1621862D02*
X1878309D01*
X1874309Y1617862D02*
Y1625862D01*
X1872671Y1621862D02*
X1880671D01*
X1876671Y1617862D02*
Y1625862D01*
X1872749Y1624854D02*
X1880749D01*
X1876749Y1620854D02*
Y1628854D01*
X1877513Y1624775D02*
X1885513D01*
X1881513Y1620775D02*
Y1628775D01*
X1875151Y1624854D02*
X1883151D01*
X1879151Y1620854D02*
Y1628854D01*
X1875033Y1621901D02*
X1883033D01*
X1879033Y1617901D02*
Y1625901D01*
X1877395Y1621862D02*
X1885395D01*
X1881395Y1617862D02*
Y1625862D01*
X1891096Y1624303D02*
X1899096D01*
X1895096Y1620303D02*
Y1628303D01*
X1893616Y1624263D02*
X1901616D01*
X1897616Y1620263D02*
Y1628263D01*
X1910370Y1620157D02*
X1918370D01*
X1914370Y1616157D02*
Y1624157D01*
X1948970Y1623003D02*
X1956970D01*
X1952970Y1619003D02*
Y1627003D01*
X1948931Y1625366D02*
X1956931D01*
X1952931Y1621366D02*
Y1629366D01*
X1953044Y1620441D02*
X1961044D01*
X1957044Y1616441D02*
Y1624441D01*
X1953202Y1623602D02*
X1961202D01*
X1957202Y1619602D02*
Y1627602D01*
X1955798Y1620442D02*
X1963798D01*
X1959798Y1616442D02*
Y1624442D01*
X1955798Y1623573D02*
X1963798D01*
X1959798Y1619573D02*
Y1627573D01*
X1795978Y1637885D02*
X1803978D01*
X1799978Y1633885D02*
Y1641885D01*
X1812631Y1636350D02*
X1820631D01*
X1816631Y1632350D02*
Y1640350D01*
X1806551Y1633110D02*
X1814551D01*
X1810551Y1629110D02*
Y1637110D01*
X1823362Y1636890D02*
X1831362D01*
X1827362Y1632890D02*
Y1640890D01*
X1818891Y1638830D02*
X1826891D01*
X1822891Y1634830D02*
Y1642830D01*
X1827789Y1631389D02*
X1835789D01*
X1831789Y1627389D02*
Y1635389D01*
X1825252Y1638819D02*
X1833252D01*
X1829252Y1634819D02*
Y1642819D01*
X1872592Y1632846D02*
X1880592D01*
X1876592Y1628846D02*
Y1636846D01*
X1867775Y1630915D02*
X1875775D01*
X1871775Y1626915D02*
Y1634915D01*
X1876608Y1632688D02*
X1884608D01*
X1880608Y1628688D02*
Y1636688D01*
X1891175Y1634066D02*
X1899175D01*
X1895175Y1630066D02*
Y1638066D01*
X1902159Y1633791D02*
X1910159D01*
X1906159Y1629791D02*
Y1637791D01*
X1897378Y1633819D02*
X1905378D01*
X1901378Y1629819D02*
Y1637819D01*
X1894622Y1634094D02*
X1902622D01*
X1898622Y1630094D02*
Y1638094D01*
X1902986Y1638121D02*
X1910986D01*
X1906986Y1634121D02*
Y1642121D01*
X1904442Y1633791D02*
X1912442D01*
X1908442Y1629791D02*
Y1637791D01*
X1944389Y1631580D02*
X1952389D01*
X1948389Y1627580D02*
Y1635580D01*
X1771529Y1648712D02*
X1779529D01*
X1775529Y1644712D02*
Y1652712D01*
X1776175Y1648673D02*
X1784175D01*
X1780175Y1644673D02*
Y1652673D01*
X1773891Y1647610D02*
X1781891D01*
X1777891Y1643610D02*
Y1651610D01*
X1811647Y1640720D02*
X1819647D01*
X1815647Y1636720D02*
Y1644720D01*
X1819206Y1649106D02*
X1827206D01*
X1823206Y1645106D02*
Y1653106D01*
X1815348Y1645169D02*
X1823348D01*
X1819348Y1641169D02*
Y1649169D01*
X1824442Y1644342D02*
X1832442D01*
X1828442Y1640342D02*
Y1648342D01*
X1852356Y1644342D02*
X1860356D01*
X1856356Y1640342D02*
Y1648342D01*
X1852198Y1640995D02*
X1860198D01*
X1856198Y1636995D02*
Y1644995D01*
X1870938Y1641350D02*
X1878938D01*
X1874938Y1637350D02*
Y1645350D01*
X1874836Y1641547D02*
X1882836D01*
X1878836Y1637547D02*
Y1645547D01*
X1877907Y1641862D02*
X1885907D01*
X1881907Y1637862D02*
Y1645862D01*
X1902986Y1643240D02*
X1910986D01*
X1906986Y1639240D02*
Y1647240D01*
X1902946Y1640405D02*
X1910946D01*
X1906946Y1636405D02*
Y1644405D01*
X1907986Y1640287D02*
X1915986D01*
X1911986Y1636287D02*
Y1644287D01*
X1919822Y1647254D02*
X1927822D01*
X1923822Y1643254D02*
Y1651254D01*
X1959167Y1641783D02*
X1967167D01*
X1963167Y1637783D02*
Y1645783D01*
X1789778Y1652326D02*
X1797778D01*
X1793778Y1648326D02*
Y1656326D01*
X1789783Y1654624D02*
X1797783D01*
X1793783Y1650624D02*
Y1658624D01*
X1852277Y1654814D02*
X1860277D01*
X1856277Y1650814D02*
Y1658814D01*
X1863087Y1655039D02*
X1871087D01*
X1867087Y1651039D02*
Y1659039D01*
X1859783Y1657963D02*
X1867783D01*
X1863783Y1653963D02*
Y1661963D01*
X1865843Y1650630D02*
X1873843D01*
X1869843Y1646630D02*
Y1654630D01*
X1902279Y1649361D02*
X1910279D01*
X1906279Y1645361D02*
Y1653361D01*
X1902277Y1651429D02*
X1910277D01*
X1906277Y1647429D02*
Y1655429D01*
X1902228Y1653444D02*
X1910228D01*
X1906228Y1649444D02*
Y1657444D01*
X1904688Y1653362D02*
X1912688D01*
X1908688Y1649362D02*
Y1657362D01*
X1904667Y1649256D02*
X1912667D01*
X1908667Y1645256D02*
Y1653256D01*
X1904646Y1651330D02*
X1912646D01*
X1908646Y1647330D02*
Y1655330D01*
X1929251Y1654883D02*
X1937251D01*
X1933251Y1650883D02*
Y1658883D01*
X1939364Y1649893D02*
X1947364D01*
X1943364Y1645893D02*
Y1653893D01*
X1934025Y1654544D02*
X1942025D01*
X1938025Y1650544D02*
Y1658544D01*
X1933969Y1652242D02*
X1941969D01*
X1937969Y1648242D02*
Y1656242D01*
X1950653Y1654105D02*
X1958653D01*
X1954653Y1650105D02*
Y1658105D01*
X1948584Y1654043D02*
X1956584D01*
X1952584Y1650043D02*
Y1658043D01*
X1946519Y1654054D02*
X1954519D01*
X1950519Y1650054D02*
Y1658054D01*
X1946445Y1656152D02*
X1954445D01*
X1950445Y1652152D02*
Y1660152D01*
X1948583Y1656208D02*
X1956583D01*
X1952583Y1652208D02*
Y1660208D01*
X1950679Y1656152D02*
X1958679D01*
X1954679Y1652152D02*
Y1660152D01*
X1961608Y1650799D02*
X1969608D01*
X1965608Y1646799D02*
Y1654799D01*
X1959889Y1655332D02*
X1967889D01*
X1963889Y1651332D02*
Y1659332D01*
X1788143Y1665051D02*
X1796143D01*
X1792143Y1661051D02*
Y1669051D01*
X1825348Y1664027D02*
X1833348D01*
X1829348Y1660027D02*
Y1668027D01*
X1825348Y1666862D02*
X1833348D01*
X1829348Y1662862D02*
Y1670862D01*
X1842749Y1662452D02*
X1850749D01*
X1846749Y1658452D02*
Y1666452D01*
X1859386Y1667165D02*
X1867386D01*
X1863386Y1663165D02*
Y1671165D01*
X1874110Y1669094D02*
X1882110D01*
X1878110Y1665094D02*
Y1673094D01*
X1878165Y1667598D02*
X1886165D01*
X1882165Y1663598D02*
Y1671598D01*
X1956837Y1662557D02*
X1964837D01*
X1960837Y1658557D02*
Y1666557D01*
X1956749Y1665786D02*
X1964749D01*
X1960749Y1661786D02*
Y1669786D01*
X1782592Y1671547D02*
X1790592D01*
X1786592Y1667547D02*
Y1675547D01*
X1782622Y1675020D02*
X1790622D01*
X1786622Y1671020D02*
Y1679020D01*
X1784994Y1671468D02*
X1792994D01*
X1788994Y1667468D02*
Y1675468D01*
X1821647Y1673555D02*
X1829647D01*
X1825647Y1669555D02*
Y1677555D01*
X1851372Y1675444D02*
X1859372D01*
X1855372Y1671444D02*
Y1679444D01*
X1849797Y1669578D02*
X1857797D01*
X1853797Y1665578D02*
Y1673578D01*
X1847001Y1676743D02*
X1855001D01*
X1851001Y1672743D02*
Y1680743D01*
X1877671Y1672334D02*
X1885671D01*
X1881671Y1668334D02*
Y1676334D01*
X1874088Y1672373D02*
X1882088D01*
X1878088Y1668373D02*
Y1676373D01*
X1938421Y1670185D02*
X1946421D01*
X1942421Y1666185D02*
Y1674185D01*
X1941001Y1672378D02*
X1949001D01*
X1945001Y1668378D02*
Y1676378D01*
X1940970Y1670223D02*
X1948970D01*
X1944970Y1666223D02*
Y1674223D01*
X1943166Y1670155D02*
X1951166D01*
X1947166Y1666155D02*
Y1674155D01*
X1938524Y1672256D02*
X1946524D01*
X1942524Y1668256D02*
Y1676256D01*
X1944325Y1671903D02*
X1952325D01*
X1948325Y1667903D02*
Y1675903D01*
X1946046Y1670348D02*
X1954046D01*
X1950046Y1666348D02*
Y1674348D01*
X1956687Y1671783D02*
X1964687D01*
X1960687Y1667783D02*
Y1675783D01*
X1819487Y1685768D02*
X1827487D01*
X1823487Y1681768D02*
Y1689768D01*
X1817517Y1687290D02*
X1825517D01*
X1821517Y1683290D02*
Y1691290D01*
X1821822Y1685796D02*
X1829822D01*
X1825822Y1681796D02*
Y1689796D01*
X1887402Y1688269D02*
X1895402D01*
X1891402Y1684269D02*
Y1692269D01*
X1891502Y1688249D02*
X1899502D01*
X1895502Y1684249D02*
Y1692249D01*
X1889427Y1688179D02*
X1897427D01*
X1893427Y1684179D02*
Y1692179D01*
X1931529Y1682452D02*
X1939529D01*
X1935529Y1678452D02*
Y1686452D01*
X1931510Y1684962D02*
X1939510D01*
X1935510Y1680962D02*
Y1688962D01*
X1936830Y1682450D02*
X1944830D01*
X1940830Y1678450D02*
Y1686450D01*
X1934195Y1682487D02*
X1942195D01*
X1938195Y1678487D02*
Y1686487D01*
X1936830Y1685048D02*
X1944830D01*
X1940830Y1681048D02*
Y1689048D01*
X1934195Y1684975D02*
X1942195D01*
X1938195Y1680975D02*
Y1688975D01*
X1950983Y1684401D02*
X1958983D01*
X1954983Y1680401D02*
Y1688401D01*
X1951135Y1681271D02*
X1959135D01*
X1955135Y1677271D02*
Y1685271D01*
X1949049Y1686114D02*
X1957049D01*
X1953049Y1682114D02*
Y1690114D01*
X1822592Y1696862D02*
X1830592D01*
X1826592Y1692862D02*
Y1700862D01*
X1818682Y1698104D02*
X1826682D01*
X1822682Y1694104D02*
Y1702104D01*
X1818773Y1695523D02*
X1826773D01*
X1822773Y1691523D02*
Y1699523D01*
X1820860Y1695602D02*
X1828860D01*
X1824860Y1691602D02*
Y1699602D01*
X1820749Y1698080D02*
X1828749D01*
X1824749Y1694080D02*
Y1702080D01*
X1821017Y1689145D02*
X1829017D01*
X1825017Y1685145D02*
Y1693145D01*
X1817474Y1689224D02*
X1825474D01*
X1821474Y1685224D02*
Y1693224D01*
X1865663Y1695877D02*
X1873663D01*
X1869663Y1691877D02*
Y1699877D01*
X1866647Y1689578D02*
X1874647D01*
X1870647Y1685578D02*
Y1693578D01*
X1890742Y1698043D02*
X1898742D01*
X1894742Y1694043D02*
Y1702043D01*
X1887214Y1690270D02*
X1895214D01*
X1891214Y1686270D02*
Y1694270D01*
X1889436Y1690251D02*
X1897436D01*
X1893436Y1686251D02*
Y1694251D01*
X1894357Y1697245D02*
X1902357D01*
X1898357Y1693245D02*
Y1701245D01*
X1919844Y1695204D02*
X1927844D01*
X1923844Y1691204D02*
Y1699204D01*
X1919947Y1692839D02*
X1927947D01*
X1923947Y1688839D02*
Y1696839D01*
X1917505Y1692891D02*
X1925505D01*
X1921505Y1688891D02*
Y1696891D01*
X1917479Y1695153D02*
X1925479D01*
X1921479Y1691153D02*
Y1699153D01*
X1919815Y1690413D02*
X1927815D01*
X1923815Y1686413D02*
Y1694413D01*
X1917579Y1690457D02*
X1925579D01*
X1921579Y1686457D02*
Y1694457D01*
X1933548Y1691017D02*
X1941548D01*
X1937548Y1687017D02*
Y1695017D01*
X1948734Y1693240D02*
X1956734D01*
X1952734Y1689240D02*
Y1697240D01*
X1949521Y1697452D02*
X1957521D01*
X1953521Y1693452D02*
Y1701452D01*
X1948734Y1690484D02*
X1956734D01*
X1952734Y1686484D02*
Y1694484D01*
X1962316Y1689578D02*
X1970316D01*
X1966316Y1685578D02*
Y1693578D01*
X1891986Y1701903D02*
X1899986D01*
X1895986Y1697903D02*
Y1705903D01*
X1894329Y1699438D02*
X1902329D01*
X1898329Y1695438D02*
Y1703438D01*
X1894161Y1701747D02*
X1902161D01*
X1898161Y1697747D02*
Y1705747D01*
X1949600Y1699932D02*
X1957600D01*
X1953600Y1695932D02*
Y1703932D01*
X1949873Y1702323D02*
X1957873D01*
X1953873Y1698323D02*
Y1706323D01*
X1951758Y1699846D02*
X1959758D01*
X1955758Y1695846D02*
Y1703846D01*
X1949873Y1709056D02*
X1957873D01*
X1953873Y1705056D02*
Y1713056D01*
X1949873Y1704424D02*
X1957873D01*
X1953873Y1700424D02*
Y1708424D01*
X1949873Y1706794D02*
X1957873D01*
X1953873Y1702794D02*
Y1710794D01*
X1954290Y1702808D02*
X1962290D01*
X1958290Y1698808D02*
Y1706808D01*
X1954290Y1708679D02*
X1962290D01*
X1958290Y1704679D02*
Y1712679D01*
X1954290Y1705609D02*
X1962290D01*
X1958290Y1701609D02*
Y1709609D01*
X1955818Y1699567D02*
X1963818D01*
X1959818Y1695567D02*
Y1703567D01*
X1961529Y1702177D02*
X1969529D01*
X1965529Y1698177D02*
Y1706177D01*
X1833064Y1713633D02*
X1841064D01*
X1837064Y1709633D02*
Y1717633D01*
X1829561Y1711822D02*
X1837561D01*
X1833561Y1707822D02*
Y1715822D01*
X1842435Y1713633D02*
X1850435D01*
X1846435Y1709633D02*
Y1717633D01*
X1844875Y1713594D02*
X1852875D01*
X1848875Y1709594D02*
Y1717594D01*
X1867435Y1710759D02*
X1875435D01*
X1871435Y1706759D02*
Y1714759D01*
X1874009Y1716822D02*
X1882009D01*
X1878009Y1712822D02*
Y1720822D01*
X1892395Y1712334D02*
X1900395D01*
X1896395Y1708334D02*
Y1716334D01*
X1895781Y1718200D02*
X1903781D01*
X1899781Y1714200D02*
Y1722200D01*
X1896647Y1712295D02*
X1904647D01*
X1900647Y1708295D02*
Y1716295D01*
X1901017Y1712216D02*
X1909017D01*
X1905017Y1708216D02*
Y1716216D01*
X1911332Y1713397D02*
X1919332D01*
X1915332Y1709397D02*
Y1717397D01*
X1908458Y1712295D02*
X1916458D01*
X1912458Y1708295D02*
Y1716295D01*
X1904757Y1712216D02*
X1912757D01*
X1908757Y1708216D02*
Y1716216D01*
X1938634Y1713268D02*
X1946634D01*
X1942634Y1709268D02*
Y1717268D01*
X1940655Y1713366D02*
X1948655D01*
X1944655Y1709366D02*
Y1717366D01*
X1939437Y1715095D02*
X1947437D01*
X1943437Y1711095D02*
Y1719095D01*
X1941508Y1715217D02*
X1949508D01*
X1945508Y1711217D02*
Y1719217D01*
X1943607Y1715142D02*
X1951607D01*
X1947607Y1711142D02*
Y1719142D01*
X1949873Y1711372D02*
X1957873D01*
X1953873Y1707372D02*
Y1715372D01*
X1952782Y1711372D02*
X1960782D01*
X1956782Y1707372D02*
Y1715372D01*
X1955636Y1711372D02*
X1963636D01*
X1959636Y1707372D02*
Y1715372D01*
X1780689Y1719763D02*
X1788689D01*
X1784689Y1715763D02*
Y1723763D01*
X1779725Y1721591D02*
X1787725D01*
X1783725Y1717591D02*
Y1725591D01*
X1782974Y1719610D02*
X1790974D01*
X1786974Y1715610D02*
Y1723610D01*
X1781959Y1721641D02*
X1789959D01*
X1785959Y1717641D02*
Y1725641D01*
X1784091Y1721591D02*
X1792091D01*
X1788091Y1717591D02*
Y1725591D01*
X1840230Y1719893D02*
X1848230D01*
X1844230Y1715893D02*
Y1723893D01*
X1836572Y1728821D02*
X1844572D01*
X1840572Y1724821D02*
Y1732821D01*
X1844324Y1719263D02*
X1852324D01*
X1848324Y1715263D02*
Y1723263D01*
X1852946Y1719263D02*
X1860946D01*
X1856946Y1715263D02*
Y1723263D01*
X1853025Y1727806D02*
X1861025D01*
X1857025Y1723806D02*
Y1731806D01*
X1867080Y1720247D02*
X1875080D01*
X1871080Y1716247D02*
Y1724247D01*
X1876726Y1726507D02*
X1884726D01*
X1880726Y1722507D02*
Y1730507D01*
X1889875Y1725287D02*
X1897875D01*
X1893875Y1721287D02*
Y1729287D01*
X1884403Y1728869D02*
X1892403D01*
X1888403Y1724869D02*
Y1732869D01*
X1902120Y1725680D02*
X1910120D01*
X1906120Y1721680D02*
Y1729680D01*
X1912986Y1725838D02*
X1920986D01*
X1916986Y1721838D02*
Y1729838D01*
X1906529Y1719460D02*
X1914529D01*
X1910529Y1715460D02*
Y1723460D01*
X1947256Y1721693D02*
X1955256D01*
X1951256Y1717693D02*
Y1725693D01*
X1950174Y1721765D02*
X1958174D01*
X1954174Y1717765D02*
Y1725765D01*
X1952624Y1721801D02*
X1960624D01*
X1956624Y1717801D02*
Y1725801D01*
X1944770Y1721801D02*
X1952770D01*
X1948770Y1717801D02*
Y1725801D01*
X1961687Y1728751D02*
X1969687D01*
X1965687Y1724751D02*
Y1732751D01*
X1961608Y1726704D02*
X1969608D01*
X1965608Y1722704D02*
Y1730704D01*
X1959364Y1726743D02*
X1967364D01*
X1963364Y1722743D02*
Y1730743D01*
X1959403Y1728869D02*
X1967403D01*
X1963403Y1724869D02*
Y1732869D01*
X1955002Y1721909D02*
X1963002D01*
X1959002Y1717909D02*
Y1725909D01*
X1955074Y1724179D02*
X1963074D01*
X1959074Y1720179D02*
Y1728179D01*
X1955182Y1726197D02*
X1963182D01*
X1959182Y1722197D02*
Y1730197D01*
X1955218Y1728359D02*
X1963218D01*
X1959218Y1724359D02*
Y1732359D01*
X1791948Y1737529D02*
X1799948D01*
X1795948Y1733529D02*
Y1741529D01*
X1836568Y1731389D02*
X1844568D01*
X1840568Y1727389D02*
Y1735389D01*
X1892779Y1735695D02*
X1900779D01*
X1896779Y1731695D02*
Y1739695D01*
X1895978Y1733003D02*
X1903978D01*
X1899978Y1729003D02*
Y1737003D01*
X1906450Y1734421D02*
X1914450D01*
X1910450Y1730421D02*
Y1738421D01*
X1778147Y1746877D02*
X1786147D01*
X1782147Y1742877D02*
Y1750877D01*
X1780624Y1744539D02*
X1788624D01*
X1784624Y1740539D02*
Y1748539D01*
X1782300Y1747396D02*
X1790300D01*
X1786300Y1743396D02*
Y1751396D01*
X1785584Y1748948D02*
X1793584D01*
X1789584Y1744948D02*
Y1752948D01*
X1787435Y1741665D02*
X1795435D01*
X1791435Y1737665D02*
Y1745665D01*
X1788104Y1745484D02*
X1796104D01*
X1792104Y1741484D02*
Y1749484D01*
X1789521Y1743555D02*
X1797521D01*
X1793521Y1739555D02*
Y1747555D01*
X1791826Y1744486D02*
X1799826D01*
X1795826Y1740486D02*
Y1748486D01*
X1792940Y1742550D02*
X1800940D01*
X1796940Y1738550D02*
Y1746550D01*
X1790269Y1740995D02*
X1798269D01*
X1794269Y1736995D02*
Y1744995D01*
X1784561Y1743869D02*
X1792561D01*
X1788561Y1739869D02*
Y1747869D01*
X1794202Y1744398D02*
X1802202D01*
X1798202Y1740398D02*
Y1748398D01*
X1805137Y1746860D02*
X1813137D01*
X1809137Y1742860D02*
Y1750860D01*
X1809639Y1744814D02*
X1817639D01*
X1813639Y1740814D02*
Y1748814D01*
X1809639Y1742334D02*
X1817639D01*
X1813639Y1738334D02*
Y1746334D01*
X1809639Y1739854D02*
X1817639D01*
X1813639Y1735854D02*
Y1743854D01*
X1861057Y1746783D02*
X1869057D01*
X1865057Y1742783D02*
Y1750783D01*
X1854246Y1743869D02*
X1862246D01*
X1858246Y1739869D02*
Y1747869D01*
X1857474Y1743555D02*
X1865474D01*
X1861474Y1739555D02*
Y1747555D01*
X1879836Y1744539D02*
X1887836D01*
X1883836Y1740539D02*
Y1748539D01*
X1874639Y1747334D02*
X1882639D01*
X1878639Y1743334D02*
Y1751334D01*
X1891687Y1746783D02*
X1899687D01*
X1895687Y1742783D02*
Y1750783D01*
X1886568Y1744066D02*
X1894568D01*
X1890568Y1740066D02*
Y1748066D01*
X1902749Y1740366D02*
X1910749D01*
X1906749Y1736366D02*
Y1744366D01*
X1902120Y1745917D02*
X1910120D01*
X1906120Y1741917D02*
Y1749917D01*
X1897631Y1745287D02*
X1905631D01*
X1901631Y1741287D02*
Y1749287D01*
X1912789Y1740484D02*
X1920789D01*
X1916789Y1736484D02*
Y1744484D01*
X1905230Y1748988D02*
X1913230D01*
X1909230Y1744988D02*
Y1752988D01*
X1926632Y1748076D02*
X1934632D01*
X1930632Y1744076D02*
Y1752076D01*
X1928957Y1748060D02*
X1936957D01*
X1932957Y1744060D02*
Y1752060D01*
X1955918Y1744049D02*
X1963918D01*
X1959918Y1740049D02*
Y1748049D01*
X1783458Y1755641D02*
X1791458D01*
X1787458Y1751641D02*
Y1759641D01*
X1783419Y1750287D02*
X1791419D01*
X1787419Y1746287D02*
Y1754287D01*
X1780661Y1749653D02*
X1788661D01*
X1784661Y1745653D02*
Y1753653D01*
X1778258Y1750288D02*
X1786258D01*
X1782258Y1746288D02*
Y1754288D01*
X1779088Y1752570D02*
X1787088D01*
X1783088Y1748570D02*
Y1756570D01*
X1782198Y1752531D02*
X1790198D01*
X1786198Y1748531D02*
Y1756531D01*
X1785112Y1752570D02*
X1793112D01*
X1789112Y1748570D02*
Y1756570D01*
X1857435Y1750562D02*
X1865435D01*
X1861435Y1746562D02*
Y1754562D01*
X1864600Y1751862D02*
X1872600D01*
X1868600Y1747862D02*
Y1755862D01*
X1901805Y1752531D02*
X1909805D01*
X1905805Y1748531D02*
Y1756531D01*
X1905820Y1756429D02*
X1913820D01*
X1909820Y1752429D02*
Y1760429D01*
X1913419Y1757255D02*
X1921419D01*
X1917419Y1753255D02*
Y1761255D01*
X1910702Y1754499D02*
X1918702D01*
X1914702Y1750499D02*
Y1758499D01*
X1907828Y1751704D02*
X1915828D01*
X1911828Y1747704D02*
Y1755704D01*
X1916962Y1750759D02*
X1924962D01*
X1920962Y1746759D02*
Y1754759D01*
X1926637Y1751175D02*
X1934637D01*
X1930637Y1747175D02*
Y1755175D01*
X1927237Y1759015D02*
X1935237D01*
X1931237Y1755015D02*
Y1763015D01*
X1924494Y1755198D02*
X1932494D01*
X1928494Y1751198D02*
Y1759198D01*
X1927191Y1755206D02*
X1935191D01*
X1931191Y1751206D02*
Y1759206D01*
X1924494Y1759011D02*
X1932494D01*
X1928494Y1755011D02*
Y1763011D01*
X1956060Y1756055D02*
X1964060D01*
X1960060Y1752055D02*
Y1760055D01*
X1956013Y1750266D02*
X1964013D01*
X1960013Y1746266D02*
Y1754266D01*
X1792424Y1764689D02*
X1800424D01*
X1796424Y1760689D02*
Y1768689D01*
X1792277Y1761307D02*
X1800277D01*
X1796277Y1757307D02*
Y1765307D01*
X1865190Y1761862D02*
X1873190D01*
X1869190Y1757862D02*
Y1765862D01*
X1908143Y1760326D02*
X1916143D01*
X1912143Y1756326D02*
Y1764326D01*
X1908222Y1763594D02*
X1916222D01*
X1912222Y1759594D02*
Y1767594D01*
X1914324Y1764263D02*
X1922324D01*
X1918324Y1760263D02*
Y1768263D01*
X1924520Y1768210D02*
X1932520D01*
X1928520Y1764210D02*
Y1772210D01*
X1927191Y1768148D02*
X1935191D01*
X1931191Y1764148D02*
Y1772148D01*
X1927237Y1764843D02*
X1935237D01*
X1931237Y1760843D02*
Y1768843D01*
X1924442Y1764782D02*
X1932442D01*
X1928442Y1760782D02*
Y1768782D01*
X1782868Y1774893D02*
X1790868D01*
X1786868Y1770893D02*
Y1778893D01*
X1782907Y1778240D02*
X1790907D01*
X1786907Y1774240D02*
Y1782240D01*
X1786411Y1772334D02*
X1794411D01*
X1790411Y1768334D02*
Y1776334D01*
X1786450Y1775247D02*
X1794450D01*
X1790450Y1771247D02*
Y1779247D01*
X1786490Y1778161D02*
X1794490D01*
X1790490Y1774161D02*
Y1782161D01*
X1792277Y1777555D02*
X1800277D01*
X1796277Y1773555D02*
Y1781555D01*
X1792277Y1774320D02*
X1800277D01*
X1796277Y1770320D02*
Y1778320D01*
X1789639Y1769617D02*
X1797639D01*
X1793639Y1765617D02*
Y1773617D01*
X1792080Y1769617D02*
X1800080D01*
X1796080Y1765617D02*
Y1773617D01*
X1794561Y1769617D02*
X1802561D01*
X1798561Y1765617D02*
Y1773617D01*
X1807390Y1776968D02*
X1815390D01*
X1811390Y1772968D02*
Y1780968D01*
X1834127Y1776940D02*
X1842127D01*
X1838127Y1772940D02*
Y1780940D01*
X1871962Y1774578D02*
X1879962D01*
X1875962Y1770578D02*
Y1778578D01*
X1871647Y1770641D02*
X1879647D01*
X1875647Y1766641D02*
Y1774641D01*
X1903537Y1777058D02*
X1911537D01*
X1907537Y1773058D02*
Y1781058D01*
X1907435Y1777058D02*
X1915435D01*
X1911435Y1773058D02*
Y1781058D01*
X1927225Y1777440D02*
X1935225D01*
X1931225Y1773440D02*
Y1781440D01*
X1927273Y1773690D02*
X1935273D01*
X1931273Y1769690D02*
Y1777690D01*
X1924520Y1777392D02*
X1932520D01*
X1928520Y1773392D02*
Y1781392D01*
X1924472Y1773642D02*
X1932472D01*
X1928472Y1769642D02*
Y1777642D01*
X1956684Y1771454D02*
X1964684D01*
X1960684Y1767454D02*
Y1775454D01*
X1956885Y1778278D02*
X1964885D01*
X1960885Y1774278D02*
Y1782278D01*
X1782868Y1781310D02*
X1790868D01*
X1786868Y1777310D02*
Y1785310D01*
X1775938Y1781468D02*
X1783938D01*
X1779938Y1777468D02*
Y1785468D01*
X1775309Y1784066D02*
X1783309D01*
X1779309Y1780066D02*
Y1788066D01*
X1793694Y1782728D02*
X1801694D01*
X1797694Y1778728D02*
Y1786728D01*
X1790309Y1782610D02*
X1798309D01*
X1794309Y1778610D02*
Y1786610D01*
X1786490Y1781350D02*
X1794490D01*
X1790490Y1777350D02*
Y1785350D01*
X1796805Y1782649D02*
X1804805D01*
X1800805Y1778649D02*
Y1786649D01*
X1812184Y1783868D02*
X1820184D01*
X1816184Y1779868D02*
Y1787868D01*
X1818646Y1781231D02*
X1826646D01*
X1822646Y1777231D02*
Y1785231D01*
X1820008Y1784944D02*
X1828008D01*
X1824008Y1780944D02*
Y1788944D01*
X1841830Y1783553D02*
X1849830D01*
X1845830Y1779553D02*
Y1787553D01*
X1847538Y1784380D02*
X1855538D01*
X1851538Y1780380D02*
Y1788380D01*
X1863916Y1781466D02*
X1871916D01*
X1867916Y1777466D02*
Y1785466D01*
X1872499Y1781900D02*
X1880499D01*
X1876499Y1777900D02*
Y1785900D01*
X1869940Y1782018D02*
X1877940D01*
X1873940Y1778018D02*
Y1786018D01*
X1901669Y1784052D02*
X1909669D01*
X1905669Y1780052D02*
Y1788052D01*
X1899578Y1780213D02*
X1907578D01*
X1903578Y1776213D02*
Y1784213D01*
X1897102Y1779409D02*
X1905102D01*
X1901102Y1775409D02*
Y1783409D01*
X1903971Y1784052D02*
X1911971D01*
X1907971Y1780052D02*
Y1788052D01*
X1908913Y1780354D02*
X1916913D01*
X1912913Y1776354D02*
Y1784354D01*
X1916594Y1779183D02*
X1924594D01*
X1920594Y1775183D02*
Y1783183D01*
X1934915Y1785287D02*
X1942915D01*
X1938915Y1781287D02*
Y1789287D01*
X1956784Y1786006D02*
X1964784D01*
X1960784Y1782006D02*
Y1790006D01*
X1790190Y1794854D02*
X1798190D01*
X1794190Y1790854D02*
Y1798854D01*
X1827932Y1794774D02*
X1835932D01*
X1831932Y1790774D02*
Y1798774D01*
X1861830Y1796191D02*
X1869830D01*
X1865830Y1792191D02*
Y1800191D01*
X1867263Y1794498D02*
X1875263D01*
X1871263Y1790498D02*
Y1798498D01*
X1874453Y1795826D02*
X1882453D01*
X1878453Y1791826D02*
Y1799826D01*
X1883849Y1795826D02*
X1891849D01*
X1887849Y1791826D02*
Y1799826D01*
X1902332Y1793567D02*
X1910332D01*
X1906332Y1789567D02*
Y1797567D01*
X1956784Y1793432D02*
X1964784D01*
X1960784Y1789432D02*
Y1797432D01*
X1791435Y1804666D02*
X1799435D01*
X1795435Y1800666D02*
Y1808666D01*
X1788455Y1804553D02*
X1796455D01*
X1792455Y1800553D02*
Y1808553D01*
X1785292Y1804564D02*
X1793292D01*
X1789292Y1800564D02*
Y1808564D01*
X1785269Y1801271D02*
X1793269D01*
X1789269Y1797271D02*
Y1805271D01*
X1801242Y1804554D02*
X1809242D01*
X1805242Y1800554D02*
Y1808554D01*
X1797595Y1804623D02*
X1805595D01*
X1801595Y1800623D02*
Y1808623D01*
X1794635Y1804658D02*
X1802635D01*
X1798635Y1800658D02*
Y1808658D01*
X1809812Y1804520D02*
X1817812D01*
X1813812Y1800520D02*
Y1808520D01*
X1806955Y1804554D02*
X1814955D01*
X1810955Y1800554D02*
Y1808554D01*
X1804202Y1804451D02*
X1812202D01*
X1808202Y1800451D02*
Y1808451D01*
X1821983Y1804505D02*
X1829983D01*
X1825983Y1800505D02*
Y1808505D01*
X1821987Y1800561D02*
X1829987D01*
X1825987Y1796561D02*
Y1804561D01*
X1814035Y1800679D02*
X1822035D01*
X1818035Y1796679D02*
Y1804679D01*
X1814053Y1804505D02*
X1822053D01*
X1818053Y1800505D02*
Y1808505D01*
X1818037Y1804428D02*
X1826037D01*
X1822037Y1800428D02*
Y1808428D01*
X1818050Y1800679D02*
X1826050D01*
X1822050Y1796679D02*
Y1804679D01*
X1825885Y1804734D02*
X1833885D01*
X1829885Y1800734D02*
Y1808734D01*
X1829822Y1804734D02*
X1837822D01*
X1833822Y1800734D02*
Y1808734D01*
X1829822Y1800640D02*
X1837822D01*
X1833822Y1796640D02*
Y1804640D01*
X1825924Y1800600D02*
X1833924D01*
X1829924Y1796600D02*
Y1804600D01*
X1850216Y1799222D02*
X1858216D01*
X1854216Y1795222D02*
Y1803222D01*
X1888167Y1804852D02*
X1896167D01*
X1892167Y1800852D02*
Y1808852D01*
X1890404Y1804852D02*
X1898404D01*
X1894404Y1800852D02*
Y1808852D01*
X1892578Y1804854D02*
X1900578D01*
X1896578Y1800854D02*
Y1808854D01*
X1895042Y1804892D02*
X1903042D01*
X1899042Y1800892D02*
Y1808892D01*
X1897450Y1804845D02*
X1905450D01*
X1901450Y1800845D02*
Y1808845D01*
X1899952Y1804822D02*
X1907952D01*
X1903952Y1800822D02*
Y1808822D01*
X1912270Y1804830D02*
X1920270D01*
X1916270Y1800830D02*
Y1808830D01*
X1912299Y1801654D02*
X1920299D01*
X1916299Y1797654D02*
Y1805654D01*
X1908398Y1804830D02*
X1916398D01*
X1912398Y1800830D02*
Y1808830D01*
X1908323Y1801693D02*
X1916323D01*
X1912323Y1797693D02*
Y1805693D01*
X1904425Y1801614D02*
X1912425D01*
X1908425Y1797614D02*
Y1805614D01*
X1904407Y1804733D02*
X1912407D01*
X1908407Y1800733D02*
Y1808733D01*
X1916515Y1804616D02*
X1924515D01*
X1920515Y1800616D02*
Y1808616D01*
X1956483Y1799855D02*
X1964483D01*
X1960483Y1795855D02*
Y1803855D01*
X1771704Y1552743D02*
X1854371D01*
X1771704D02*
X1781704Y1555243D01*
Y1550243*
X1771704Y1552743*
X1968554D02*
X1885887D01*
X1968554D02*
X1958554Y1550243D01*
Y1555243*
X1968554Y1552743*
X1771704Y1577727D02*
Y1547743D01*
X1968554Y1577727D02*
Y1547743D01*
X1857401Y1555555D02*
X1855129D01*
X1854901Y1552743*
X1855129Y1553055*
X1855811Y1553368*
X1856492*
X1857174Y1553055*
X1857629Y1552430*
X1857856Y1551493*
X1857629Y1550868*
X1857401Y1549930*
X1856947Y1549305*
X1856265Y1548993*
X1855583*
X1854901Y1549305*
X1854674Y1549618*
X1854447Y1550243*
X1861265Y1555555D02*
X1860583Y1555243D01*
X1860129Y1554305*
X1859901Y1552743*
Y1551805*
X1860129Y1550243*
X1860583Y1549305*
X1861265Y1548993*
X1861720*
X1862401Y1549305*
X1862856Y1550243*
X1863083Y1551805*
Y1552743*
X1862856Y1554305*
X1862401Y1555243*
X1861720Y1555555*
X1861265*
X1865356Y1549618D02*
X1865129Y1549305D01*
X1865356Y1548993*
X1865583Y1549305*
X1865356Y1549618*
X1868992Y1555555D02*
X1868311Y1555243D01*
X1867856Y1554305*
X1867629Y1552743*
Y1551805*
X1867856Y1550243*
X1868311Y1549305*
X1868992Y1548993*
X1869447*
X1870129Y1549305*
X1870583Y1550243*
X1870811Y1551805*
Y1552743*
X1870583Y1554305*
X1870129Y1555243*
X1869447Y1555555*
X1868992*
X1872856Y1553368D02*
Y1548993D01*
Y1552118D02*
X1873538Y1553055D01*
X1873992Y1553368*
X1874674*
X1875129Y1553055*
X1875356Y1552118*
Y1548993*
Y1552118D02*
X1876038Y1553055D01*
X1876492Y1553368*
X1877174*
X1877629Y1553055*
X1877856Y1552118*
Y1548993*
X1879901Y1553368D02*
Y1548993D01*
Y1552118D02*
X1880583Y1553055D01*
X1881038Y1553368*
X1881720*
X1882174Y1553055*
X1882401Y1552118*
Y1548993*
Y1552118D02*
X1883083Y1553055D01*
X1883538Y1553368*
X1884220*
X1884674Y1553055*
X1884901Y1552118*
Y1548993*
X1752825Y1574853D02*
Y1680938D01*
Y1574853D02*
X1750325Y1584853D01*
X1755325*
X1752825Y1574853*
Y1808416D02*
Y1688590D01*
Y1808416D02*
X1755325Y1798416D01*
X1750325*
X1752825Y1808416*
X1774578Y1574853D02*
X1747825D01*
X1774130Y1808416D02*
X1747825D01*
X1737093Y1687576D02*
X1734820D01*
X1734593Y1684764*
X1734820Y1685076*
X1735502Y1685389*
X1736184*
X1736866Y1685076*
X1737320Y1684451*
X1737547Y1683514*
X1737320Y1682889*
X1737093Y1681951*
X1736638Y1681326*
X1735957Y1681014*
X1735275*
X1734593Y1681326*
X1734366Y1681639*
X1734138Y1682264*
X1742547Y1685389D02*
X1742320Y1684451D01*
X1741866Y1683826*
X1741184Y1683514*
X1740957*
X1740275Y1683826*
X1739820Y1684451*
X1739593Y1685389*
Y1685701*
X1739820Y1686639*
X1740275Y1687264*
X1740957Y1687576*
X1741184*
X1741866Y1687264*
X1742320Y1686639*
X1742547Y1685389*
Y1683826*
X1742320Y1682264*
X1741866Y1681326*
X1741184Y1681014*
X1740729*
X1740047Y1681326*
X1739820Y1681951*
X1744820Y1681639D02*
X1744593Y1681326D01*
X1744820Y1681014*
X1745047Y1681326*
X1744820Y1681639*
X1747547Y1687576D02*
X1750047D01*
X1748684Y1685076*
X1749366*
X1749820Y1684764*
X1750047Y1684451*
X1750275Y1683514*
Y1682889*
X1750047Y1681951*
X1749593Y1681326*
X1748911Y1681014*
X1748229*
X1747547Y1681326*
X1747320Y1681639*
X1747093Y1682264*
X1752320Y1685389D02*
Y1681014D01*
Y1684139D02*
X1753002Y1685076D01*
X1753457Y1685389*
X1754138*
X1754593Y1685076*
X1754820Y1684139*
Y1681014*
Y1684139D02*
X1755502Y1685076D01*
X1755957Y1685389*
X1756638*
X1757093Y1685076*
X1757320Y1684139*
Y1681014*
X1759366Y1685389D02*
Y1681014D01*
Y1684139D02*
X1760047Y1685076D01*
X1760502Y1685389*
X1761184*
X1761638Y1685076*
X1761866Y1684139*
Y1681014*
Y1684139D02*
X1762547Y1685076D01*
X1763002Y1685389*
X1763684*
X1764138Y1685076*
X1764366Y1684139*
Y1681014*
X1771654Y1907024D02*
X2029654D01*
X1771654Y1883024D02*
X2029654D01*
X1771654Y1859024D02*
X2029654D01*
X1771654Y1835024D02*
X2029654D01*
X1771654Y1811024D02*
X2029654D01*
X1771654Y1907024D02*
Y1811024D01*
X1855654Y1907024D02*
Y1811024D01*
X1891654Y1907024D02*
Y1811024D01*
X1927654Y1907024D02*
Y1811024D01*
X1981654Y1907024D02*
Y1811024D01*
X2029654Y1907024D02*
Y1811024D01*
X1807154Y1895774D02*
X1806608Y1896524D01*
X1805790Y1896899*
X1804699*
X1803881Y1896524*
X1803335Y1895774*
Y1895024*
X1803608Y1894274*
X1803881Y1893899*
X1804426Y1893524*
X1806063Y1892774*
X1806608Y1892399*
X1806881Y1892024*
X1807154Y1891274*
Y1890149*
X1806608Y1889399*
X1805790Y1889024*
X1804699*
X1803881Y1889399*
X1803335Y1890149*
X1809608Y1896899D02*
Y1889024D01*
X1815881Y1896899D02*
X1812063Y1889024D01*
Y1896899D02*
X1815881D01*
X1812063Y1889024D02*
X1815881D01*
X1818335Y1896899D02*
Y1889024D01*
Y1896899D02*
X1821881D01*
X1818335Y1893149D02*
X1820517D01*
X1818335Y1889024D02*
X1821881D01*
X1865517Y1896899D02*
X1864972Y1896524D01*
X1864426Y1895774*
X1864154Y1895024*
X1863881Y1893899*
Y1892024*
X1864154Y1890899*
X1864426Y1890149*
X1864972Y1889399*
X1865517Y1889024*
X1866608*
X1867154Y1889399*
X1867699Y1890149*
X1867972Y1890899*
X1868244Y1892024*
Y1893899*
X1867972Y1895024*
X1867699Y1895774*
X1867154Y1896524*
X1866608Y1896899*
X1865517*
X1866335Y1890524D02*
X1867972Y1888274D01*
X1872608Y1896899D02*
Y1889024D01*
X1870699Y1896899D02*
X1874517D01*
X1876972D02*
X1879154Y1893149D01*
Y1889024*
X1881335Y1896899D02*
X1879154Y1893149D01*
X1903699Y1895774D02*
X1903154Y1896524D01*
X1902335Y1896899*
X1901244*
X1900426Y1896524*
X1899881Y1895774*
Y1895024*
X1900154Y1894274*
X1900426Y1893899*
X1900972Y1893524*
X1902608Y1892774*
X1903154Y1892399*
X1903426Y1892024*
X1903699Y1891274*
Y1890149*
X1903154Y1889399*
X1902335Y1889024*
X1901244*
X1900426Y1889399*
X1899881Y1890149*
X1906154Y1896899D02*
X1908335Y1893149D01*
Y1889024*
X1910517Y1896899D02*
X1908335Y1893149D01*
X1912972Y1896899D02*
Y1889024D01*
Y1896899D02*
X1915154Y1889024D01*
X1917335Y1896899D02*
X1915154Y1889024D01*
X1917335Y1896899D02*
Y1889024D01*
X1939154Y1896899D02*
Y1889024D01*
Y1896899D02*
X1941608D01*
X1942426Y1896524*
X1942699Y1896149*
X1942972Y1895399*
Y1894274*
X1942699Y1893524*
X1942426Y1893149*
X1941608Y1892774*
X1939154*
X1945426Y1896899D02*
Y1889024D01*
X1948699*
X1953335Y1896899D02*
X1951154Y1889024D01*
X1953335Y1896899D02*
X1955517Y1889024D01*
X1951972Y1891649D02*
X1954699D01*
X1959881Y1896899D02*
Y1889024D01*
X1957972Y1896899D02*
X1961790D01*
X1964244D02*
Y1889024D01*
Y1896899D02*
X1967790D01*
X1964244Y1893149D02*
X1966426D01*
X1964244Y1889024D02*
X1967790D01*
X1970244Y1896899D02*
Y1889024D01*
Y1896899D02*
X1972154D01*
X1972972Y1896524*
X1973517Y1895774*
X1973790Y1895024*
X1974063Y1893899*
Y1892024*
X1973790Y1890899*
X1973517Y1890149*
X1972972Y1889399*
X1972154Y1889024*
X1970244*
X1998335Y1896899D02*
Y1889024D01*
X1996426Y1896899D02*
X2000244D01*
X2004335D02*
X2003790Y1896524D01*
X2003244Y1895774*
X2002972Y1895024*
X2002699Y1893899*
Y1892024*
X2002972Y1890899*
X2003244Y1890149*
X2003790Y1889399*
X2004335Y1889024*
X2005426*
X2005972Y1889399*
X2006517Y1890149*
X2006790Y1890899*
X2007063Y1892024*
Y1893899*
X2006790Y1895024*
X2006517Y1895774*
X2005972Y1896524*
X2005426Y1896899*
X2004335*
X2009517D02*
Y1889024D01*
X2012790*
X1779290Y1872899D02*
X1778472Y1872524D01*
X1777926Y1871399*
X1777654Y1869524*
Y1868399*
X1777926Y1866524*
X1778472Y1865399*
X1779290Y1865024*
X1779835*
X1780654Y1865399*
X1781199Y1866524*
X1781472Y1868399*
Y1869524*
X1781199Y1871399*
X1780654Y1872524*
X1779835Y1872899*
X1779290*
X1784199Y1865774D02*
X1783926Y1865399D01*
X1784199Y1865024*
X1784472Y1865399*
X1784199Y1865774*
X1787472Y1872899D02*
X1790472D01*
X1788835Y1869899*
X1789654*
X1790199Y1869524*
X1790472Y1869149*
X1790744Y1868024*
Y1867274*
X1790472Y1866149*
X1789926Y1865399*
X1789108Y1865024*
X1788290*
X1787472Y1865399*
X1787199Y1865774*
X1786926Y1866524*
X1867154Y1872899D02*
X1864426Y1867649D01*
X1868517*
X1867154Y1872899D02*
Y1865024D01*
X1874244Y1871774D02*
X1873972Y1872524D01*
X1873154Y1872899*
X1872608*
X1871790Y1872524*
X1871244Y1871399*
X1870972Y1869524*
Y1867649*
X1871244Y1866149*
X1871790Y1865399*
X1872608Y1865024*
X1872881*
X1873699Y1865399*
X1874244Y1866149*
X1874517Y1867274*
Y1867649*
X1874244Y1868774*
X1873699Y1869524*
X1872881Y1869899*
X1872608*
X1871790Y1869524*
X1871244Y1868774*
X1870972Y1867649*
X1878335Y1872899D02*
X1877517Y1872524D01*
X1877244Y1871774*
Y1871024*
X1877517Y1870274*
X1878063Y1869899*
X1879154Y1869524*
X1879972Y1869149*
X1880517Y1868399*
X1880790Y1867649*
Y1866524*
X1880517Y1865774*
X1880244Y1865399*
X1879426Y1865024*
X1878335*
X1877517Y1865399*
X1877244Y1865774*
X1876972Y1866524*
Y1867649*
X1877244Y1868399*
X1877790Y1869149*
X1878608Y1869524*
X1879699Y1869899*
X1880244Y1870274*
X1880517Y1871024*
Y1871774*
X1880244Y1872524*
X1879426Y1872899*
X1878335*
X1903654Y1871024D02*
X1915654D01*
X1909654Y1865024D02*
Y1877024D01*
X1936290Y1872899D02*
X1938472Y1869149D01*
Y1865024*
X1940654Y1872899D02*
X1938472Y1869149D01*
X1943108Y1872899D02*
Y1865024D01*
Y1872899D02*
X1946654D01*
X1943108Y1869149D02*
X1945290D01*
X1943108Y1865024D02*
X1946654D01*
X1952926Y1871774D02*
X1952381Y1872524D01*
X1951563Y1872899*
X1950472*
X1949654Y1872524*
X1949108Y1871774*
Y1871024*
X1949381Y1870274*
X1949654Y1869899*
X1950199Y1869524*
X1951835Y1868774*
X1952381Y1868399*
X1952654Y1868024*
X1952926Y1867274*
Y1866149*
X1952381Y1865399*
X1951563Y1865024*
X1950472*
X1949654Y1865399*
X1949108Y1866149*
X1989472Y1871774D02*
Y1865024D01*
X1987017Y1868399D02*
X1991926D01*
X1999290Y1874399D02*
X1994381Y1862399D01*
X2001744Y1868399D02*
X2006654D01*
X2010744Y1872899D02*
X2009926Y1872524D01*
X2009381Y1871399*
X2009108Y1869524*
Y1868399*
X2009381Y1866524*
X2009926Y1865399*
X2010744Y1865024*
X2011290*
X2012108Y1865399*
X2012654Y1866524*
X2012926Y1868399*
Y1869524*
X2012654Y1871399*
X2012108Y1872524*
X2011290Y1872899*
X2010744*
X2015654Y1865774D02*
X2015381Y1865399D01*
X2015654Y1865024*
X2015926Y1865399*
X2015654Y1865774*
X2020017Y1872899D02*
X2019199Y1872524D01*
X2018654Y1871399*
X2018381Y1869524*
Y1868399*
X2018654Y1866524*
X2019199Y1865399*
X2020017Y1865024*
X2020563*
X2021381Y1865399*
X2021926Y1866524*
X2022199Y1868399*
Y1869524*
X2021926Y1871399*
X2021381Y1872524*
X2020563Y1872899*
X2020017*
X1779290Y1848899D02*
X1778472Y1848524D01*
X1777926Y1847399*
X1777654Y1845524*
Y1844399*
X1777926Y1842524*
X1778472Y1841399*
X1779290Y1841024*
X1779835*
X1780654Y1841399*
X1781199Y1842524*
X1781472Y1844399*
Y1845524*
X1781199Y1847399*
X1780654Y1848524*
X1779835Y1848899*
X1779290*
X1784199Y1841774D02*
X1783926Y1841399D01*
X1784199Y1841024*
X1784472Y1841399*
X1784199Y1841774*
X1788290Y1848899D02*
X1787472Y1848524D01*
X1787199Y1847774*
Y1847024*
X1787472Y1846274*
X1788017Y1845899*
X1789108Y1845524*
X1789926Y1845149*
X1790472Y1844399*
X1790744Y1843649*
Y1842524*
X1790472Y1841774*
X1790199Y1841399*
X1789381Y1841024*
X1788290*
X1787472Y1841399*
X1787199Y1841774*
X1786926Y1842524*
Y1843649*
X1787199Y1844399*
X1787744Y1845149*
X1788563Y1845524*
X1789654Y1845899*
X1790199Y1846274*
X1790472Y1847024*
Y1847774*
X1790199Y1848524*
X1789381Y1848899*
X1788290*
X1793199Y1847399D02*
X1793744Y1847774D01*
X1794563Y1848899*
Y1841024*
X1797290Y1847024D02*
Y1847399D01*
X1797563Y1848149*
X1797835Y1848524*
X1798381Y1848899*
X1799472*
X1800017Y1848524*
X1800290Y1848149*
X1800563Y1847399*
Y1846649*
X1800290Y1845899*
X1799744Y1844774*
X1797017Y1841024*
X1800835*
X1804654Y1848899D02*
X1803835Y1848524D01*
X1803563Y1847774*
Y1847024*
X1803835Y1846274*
X1804381Y1845899*
X1805472Y1845524*
X1806290Y1845149*
X1806835Y1844399*
X1807108Y1843649*
Y1842524*
X1806835Y1841774*
X1806563Y1841399*
X1805744Y1841024*
X1804654*
X1803835Y1841399*
X1803563Y1841774*
X1803290Y1842524*
Y1843649*
X1803563Y1844399*
X1804108Y1845149*
X1804926Y1845524*
X1806017Y1845899*
X1806563Y1846274*
X1806835Y1847024*
Y1847774*
X1806563Y1848524*
X1805744Y1848899*
X1804654*
X1873290D02*
X1870563Y1843649D01*
X1874654*
X1873290Y1848899D02*
Y1841024D01*
X1903654D02*
X1915654Y1853024D01*
X1903654D02*
X1915654Y1841024D01*
X1936290Y1848899D02*
X1938472Y1845149D01*
Y1841024*
X1940654Y1848899D02*
X1938472Y1845149D01*
X1943108Y1848899D02*
Y1841024D01*
Y1848899D02*
X1946654D01*
X1943108Y1845149D02*
X1945290D01*
X1943108Y1841024D02*
X1946654D01*
X1952926Y1847774D02*
X1952381Y1848524D01*
X1951563Y1848899*
X1950472*
X1949654Y1848524*
X1949108Y1847774*
Y1847024*
X1949381Y1846274*
X1949654Y1845899*
X1950199Y1845524*
X1951835Y1844774*
X1952381Y1844399*
X1952654Y1844024*
X1952926Y1843274*
Y1842149*
X1952381Y1841399*
X1951563Y1841024*
X1950472*
X1949654Y1841399*
X1949108Y1842149*
X1989472Y1847774D02*
Y1841024D01*
X1987017Y1844399D02*
X1991926D01*
X1999290Y1850399D02*
X1994381Y1838399D01*
X2001744Y1844399D02*
X2006654D01*
X2010744Y1848899D02*
X2009926Y1848524D01*
X2009381Y1847399*
X2009108Y1845524*
Y1844399*
X2009381Y1842524*
X2009926Y1841399*
X2010744Y1841024*
X2011290*
X2012108Y1841399*
X2012654Y1842524*
X2012926Y1844399*
Y1845524*
X2012654Y1847399*
X2012108Y1848524*
X2011290Y1848899*
X2010744*
X2015654Y1841774D02*
X2015381Y1841399D01*
X2015654Y1841024*
X2015926Y1841399*
X2015654Y1841774*
X2020017Y1848899D02*
X2019199Y1848524D01*
X2018654Y1847399*
X2018381Y1845524*
Y1844399*
X2018654Y1842524*
X2019199Y1841399*
X2020017Y1841024*
X2020563*
X2021381Y1841399*
X2021926Y1842524*
X2022199Y1844399*
Y1845524*
X2021926Y1847399*
X2021381Y1848524*
X2020563Y1848899*
X2020017*
X1779290Y1824899D02*
X1778472Y1824524D01*
X1777926Y1823399*
X1777654Y1821524*
Y1820399*
X1777926Y1818524*
X1778472Y1817399*
X1779290Y1817024*
X1779835*
X1780654Y1817399*
X1781199Y1818524*
X1781472Y1820399*
Y1821524*
X1781199Y1823399*
X1780654Y1824524*
X1779835Y1824899*
X1779290*
X1784199Y1817774D02*
X1783926Y1817399D01*
X1784199Y1817024*
X1784472Y1817399*
X1784199Y1817774*
X1790472Y1824899D02*
X1787744D01*
X1787472Y1821524*
X1787744Y1821899*
X1788563Y1822274*
X1789381*
X1790199Y1821899*
X1790744Y1821149*
X1791017Y1820024*
X1790744Y1819274*
X1790472Y1818149*
X1789926Y1817399*
X1789108Y1817024*
X1788290*
X1787472Y1817399*
X1787199Y1817774*
X1786926Y1818524*
X1797017Y1822274D02*
X1796744Y1821149D01*
X1796199Y1820399*
X1795381Y1820024*
X1795108*
X1794290Y1820399*
X1793744Y1821149*
X1793472Y1822274*
Y1822649*
X1793744Y1823774*
X1794290Y1824524*
X1795108Y1824899*
X1795381*
X1796199Y1824524*
X1796744Y1823774*
X1797017Y1822274*
Y1820399*
X1796744Y1818524*
X1796199Y1817399*
X1795381Y1817024*
X1794835*
X1794017Y1817399*
X1793744Y1818149*
X1803017Y1822274D02*
X1802744Y1821149D01*
X1802199Y1820399*
X1801381Y1820024*
X1801108*
X1800290Y1820399*
X1799744Y1821149*
X1799472Y1822274*
Y1822649*
X1799744Y1823774*
X1800290Y1824524*
X1801108Y1824899*
X1801381*
X1802199Y1824524*
X1802744Y1823774*
X1803017Y1822274*
Y1820399*
X1802744Y1818524*
X1802199Y1817399*
X1801381Y1817024*
X1800835*
X1800017Y1817399*
X1799744Y1818149*
X1809017Y1822274D02*
X1808744Y1821149D01*
X1808199Y1820399*
X1807381Y1820024*
X1807108*
X1806290Y1820399*
X1805744Y1821149*
X1805472Y1822274*
Y1822649*
X1805744Y1823774*
X1806290Y1824524*
X1807108Y1824899*
X1807381*
X1808199Y1824524*
X1808744Y1823774*
X1809017Y1822274*
Y1820399*
X1808744Y1818524*
X1808199Y1817399*
X1807381Y1817024*
X1806835*
X1806017Y1817399*
X1805744Y1818149*
X1815017Y1824899D02*
X1812290D01*
X1812017Y1821524*
X1812290Y1821899*
X1813108Y1822274*
X1813926*
X1814744Y1821899*
X1815290Y1821149*
X1815563Y1820024*
X1815290Y1819274*
X1815017Y1818149*
X1814472Y1817399*
X1813654Y1817024*
X1812835*
X1812017Y1817399*
X1811744Y1817774*
X1811472Y1818524*
X1870972Y1823024D02*
Y1823399D01*
X1871244Y1824149*
X1871517Y1824524*
X1872063Y1824899*
X1873154*
X1873699Y1824524*
X1873972Y1824149*
X1874244Y1823399*
Y1822649*
X1873972Y1821899*
X1873426Y1820774*
X1870699Y1817024*
X1874517*
X1903654D02*
X1915654D01*
Y1829024*
X1903654*
Y1817024*
X1909654Y1823024D02*
Y1829024D01*
X1936290Y1824899D02*
X1938472Y1821149D01*
Y1817024*
X1940654Y1824899D02*
X1938472Y1821149D01*
X1943108Y1824899D02*
Y1817024D01*
Y1824899D02*
X1946654D01*
X1943108Y1821149D02*
X1945290D01*
X1943108Y1817024D02*
X1946654D01*
X1952926Y1823774D02*
X1952381Y1824524D01*
X1951563Y1824899*
X1950472*
X1949654Y1824524*
X1949108Y1823774*
Y1823024*
X1949381Y1822274*
X1949654Y1821899*
X1950199Y1821524*
X1951835Y1820774*
X1952381Y1820399*
X1952654Y1820024*
X1952926Y1819274*
Y1818149*
X1952381Y1817399*
X1951563Y1817024*
X1950472*
X1949654Y1817399*
X1949108Y1818149*
X1989472Y1823774D02*
Y1817024D01*
X1987017Y1820399D02*
X1991926D01*
X1999290Y1826399D02*
X1994381Y1814399D01*
X2001744Y1820399D02*
X2006654D01*
X2010744Y1824899D02*
X2009926Y1824524D01*
X2009381Y1823399*
X2009108Y1821524*
Y1820399*
X2009381Y1818524*
X2009926Y1817399*
X2010744Y1817024*
X2011290*
X2012108Y1817399*
X2012654Y1818524*
X2012926Y1820399*
Y1821524*
X2012654Y1823399*
X2012108Y1824524*
X2011290Y1824899*
X2010744*
X2015654Y1817774D02*
X2015381Y1817399D01*
X2015654Y1817024*
X2015926Y1817399*
X2015654Y1817774*
X2020017Y1824899D02*
X2019199Y1824524D01*
X2018654Y1823399*
X2018381Y1821524*
Y1820399*
X2018654Y1818524*
X2019199Y1817399*
X2020017Y1817024*
X2020563*
X2021381Y1817399*
X2021926Y1818524*
X2022199Y1820399*
Y1821524*
X2021926Y1823399*
X2021381Y1824524*
X2020563Y1824899*
X2020017*
G74*
X0Y0D02*
M02*
