*
*
G04 PADS 9.5 Build Number: 522968 generated Gerber (RS-274-X) file*
G04 PC Version=2.1*
*
%IN "LK02 Main board V0.3.pc"*%
*
%MOIN*%
*
%FSLAX35Y35*%
*
*
*
*
G04 PC Standard Apertures*
*
*
G04 Thermal Relief Aperture macro.*
%AMTER*
1,1,$1,0,0*
1,0,$1-$2,0,0*
21,0,$3,$4,0,0,45*
21,0,$3,$4,0,0,135*
%
*
*
G04 Annular Aperture macro.*
%AMANN*
1,1,$1,0,0*
1,0,$2,0,0*
%
*
*
G04 Odd Aperture macro.*
%AMODD*
1,1,$1,0,0*
1,0,$1-0.005,0,0*
%
*
*
G04 PC Custom Aperture Macros*
*
*
*
*
*
*
G04 PC Aperture Table*
*
%ADD010C,0.001*%
%ADD023C,0.01969*%
%ADD031C,0.00394*%
%ADD065C,0.04*%
%ADD202R,0.05906X0.05906*%
%ADD203C,0.05906*%
*
*
*
*
G04 PC Circuitry*
G04 Layer Name LK02 Main board V0.3.pc - circuitry*
%LPD*%
*
*
G04 PC Custom Flashes*
G04 Layer Name LK02 Main board V0.3.pc - flashes*
%LPD*%
*
*
G04 PC Circuitry*
G04 Layer Name LK02 Main board V0.3.pc - circuitry*
%LPD*%
*
G54D10*
G01X1771749Y1800990D02*
Y1582728D01*
X1771749D02*
G75*
G03X1779624Y1574854I7875J-0D01*
G01X1960726*
G03X1968600Y1582728I-0J7874*
G01Y1801006*
G03X1961190Y1808417I-7410J0*
G01X1779176*
G03X1771749Y1800990I0J-7427*
G01X1789860Y1763830D02*
G03X1789860I-4331J0D01*
G01X1959151D02*
G03X1959151I-4331J0D01*
G01X1810450Y1671114D02*
G03X1810450I-7480J0D01*
G01X1914781Y1671035D02*
G03X1914781I-7480J0D01*
G01X1789860Y1582728D02*
G03X1789860I-4331J0D01*
G01X1959151D02*
G03X1959151I-4331J0D01*
G54D23*
G01X1927205Y1579094D03*
X1815051Y1580838D03*
X1810247Y1583788D03*
X1815080Y1585851D03*
X1821216Y1580835D03*
X1821222Y1585777D03*
X1884173Y1585394D03*
X1894252Y1585669D03*
X1904055Y1585630D03*
X1914409Y1581496D03*
X1782143Y1597531D03*
X1787694D03*
X1793246D03*
X1804902Y1591763D03*
X1804348Y1597531D03*
X1798797D03*
X1810057Y1590799D03*
X1809899Y1597531D03*
X1809996Y1594010D03*
X1818898Y1593543D03*
X1848898Y1597323D03*
X1847953Y1594606D03*
X1875157Y1596535D03*
X1877283Y1592165D03*
X1891181Y1597520D03*
X1902677Y1597677D03*
X1898442Y1598830D03*
X1913819Y1590984D03*
X1933718Y1591547D03*
X1951092Y1598158D03*
X1956836Y1598311D03*
X1963499Y1598158D03*
X1806671Y1607728D03*
X1810844Y1606468D03*
X1817340Y1603279D03*
X1815844Y1606232D03*
X1820529Y1602413D03*
X1834899Y1603594D03*
X1847694Y1603200D03*
X1843954Y1603121D03*
X1871671Y1599342D03*
X1873324Y1607846D03*
X1885472Y1599606D03*
X1894820Y1606743D03*
X1894860Y1604263D03*
X1898425Y1605079D03*
X1933482Y1601980D03*
X1933639Y1606940D03*
X1956872Y1602094D03*
X1957066Y1607272D03*
X1954156Y1607196D03*
X1951169Y1602064D03*
X1963435Y1602149D03*
X1797143Y1612452D03*
X1806316Y1611507D03*
X1800214Y1619027D03*
X1802458Y1612649D03*
X1817029Y1617356D03*
X1819888Y1617260D03*
X1822449Y1617139D03*
X1849545Y1616271D03*
X1849646Y1612598D03*
X1863679Y1613791D03*
X1860096Y1616507D03*
X1863757D03*
X1876671Y1615011D03*
X1871946D03*
X1876671Y1618515D03*
X1874309D03*
X1871946D03*
X1874309Y1615090D03*
X1883639Y1611429D03*
X1879269Y1615011D03*
X1881395Y1618515D03*
X1879033D03*
X1881671Y1615051D03*
X1903268Y1612913D03*
X1914528Y1617677D03*
X1912165D03*
X1917953Y1611890D03*
X1946868Y1611232D03*
X1946356Y1616074D03*
X1946198Y1618515D03*
X1954093Y1613863D03*
X1951301Y1613948D03*
X1956843Y1613906D03*
X1956907Y1617413D03*
X1954212Y1617468D03*
X1951435Y1617373D03*
X1951316Y1610405D03*
X1954112D03*
X1956946Y1610444D03*
X1948836Y1617334D03*
X1959801Y1610497D03*
X1959798Y1617468D03*
X1959801Y1613949D03*
X1817115Y1622597D03*
X1817029Y1619835D03*
X1819889Y1622667D03*
X1819862Y1619835D03*
X1822503Y1619671D03*
X1822449Y1622558D03*
X1833757Y1624972D03*
X1861671Y1626035D03*
X1861395Y1622492D03*
X1864190Y1628240D03*
X1871946Y1624854D03*
X1874348D03*
X1871946Y1621901D03*
X1874309Y1621862D03*
X1876671D03*
X1876749Y1624854D03*
X1881513Y1624775D03*
X1879151Y1624854D03*
X1879033Y1621901D03*
X1881395Y1621862D03*
X1895096Y1624303D03*
X1897616Y1624263D03*
X1914370Y1620157D03*
X1952970Y1623003D03*
X1952931Y1625366D03*
X1957044Y1620441D03*
X1957202Y1623602D03*
X1959798Y1620442D03*
Y1623573D03*
X1799978Y1637885D03*
X1816631Y1636350D03*
X1810551Y1633110D03*
X1827362Y1636890D03*
X1822891Y1638830D03*
X1831789Y1631389D03*
X1829252Y1638819D03*
X1876592Y1632846D03*
X1871775Y1630915D03*
X1880608Y1632688D03*
X1895175Y1634066D03*
X1906159Y1633791D03*
X1901378Y1633819D03*
X1898622Y1634094D03*
X1906986Y1638121D03*
X1908442Y1633791D03*
X1948389Y1631580D03*
X1775529Y1648712D03*
X1780175Y1648673D03*
X1777891Y1647610D03*
X1815647Y1640720D03*
X1823206Y1649106D03*
X1819348Y1645169D03*
X1828442Y1644342D03*
X1856356D03*
X1856198Y1640995D03*
X1874938Y1641350D03*
X1878836Y1641547D03*
X1881907Y1641862D03*
X1906986Y1643240D03*
X1906946Y1640405D03*
X1911986Y1640287D03*
X1923822Y1647254D03*
X1963167Y1641783D03*
X1793778Y1652326D03*
X1793783Y1654624D03*
X1856277Y1654814D03*
X1867087Y1655039D03*
X1863783Y1657963D03*
X1869843Y1650630D03*
X1906279Y1649361D03*
X1906277Y1651429D03*
X1906228Y1653444D03*
X1908688Y1653362D03*
X1908667Y1649256D03*
X1908646Y1651330D03*
X1933251Y1654883D03*
X1943364Y1649893D03*
X1938025Y1654544D03*
X1937969Y1652242D03*
X1954653Y1654105D03*
X1952584Y1654043D03*
X1950519Y1654054D03*
X1950445Y1656152D03*
X1952583Y1656208D03*
X1954679Y1656152D03*
X1965608Y1650799D03*
X1963889Y1655332D03*
X1792143Y1665051D03*
X1829348Y1664027D03*
Y1666862D03*
X1846749Y1662452D03*
X1863386Y1667165D03*
X1878110Y1669094D03*
X1882165Y1667598D03*
X1960837Y1662557D03*
X1960749Y1665786D03*
X1786592Y1671547D03*
X1786622Y1675020D03*
X1788994Y1671468D03*
X1825647Y1673555D03*
X1855372Y1675444D03*
X1853797Y1669578D03*
X1851001Y1676743D03*
X1881671Y1672334D03*
X1878088Y1672373D03*
X1942421Y1670185D03*
X1945001Y1672378D03*
X1944970Y1670223D03*
X1947166Y1670155D03*
X1942524Y1672256D03*
X1948325Y1671903D03*
X1950046Y1670348D03*
X1960687Y1671783D03*
X1823487Y1685768D03*
X1821517Y1687290D03*
X1825822Y1685796D03*
X1891402Y1688269D03*
X1895502Y1688249D03*
X1893427Y1688179D03*
X1935529Y1682452D03*
X1935510Y1684962D03*
X1940830Y1682450D03*
X1938195Y1682487D03*
X1940830Y1685048D03*
X1938195Y1684975D03*
X1954983Y1684401D03*
X1955135Y1681271D03*
X1953049Y1686114D03*
X1826592Y1696862D03*
X1822682Y1698104D03*
X1822773Y1695523D03*
X1824860Y1695602D03*
X1824749Y1698080D03*
X1825017Y1689145D03*
X1821474Y1689224D03*
X1869663Y1695877D03*
X1870647Y1689578D03*
X1894742Y1698043D03*
X1891214Y1690270D03*
X1893436Y1690251D03*
X1898357Y1697245D03*
X1923844Y1695204D03*
X1923947Y1692839D03*
X1921505Y1692891D03*
X1921479Y1695153D03*
X1923815Y1690413D03*
X1921579Y1690457D03*
X1937548Y1691017D03*
X1952734Y1693240D03*
X1953521Y1697452D03*
X1952734Y1690484D03*
X1966316Y1689578D03*
X1895986Y1701903D03*
X1898329Y1699438D03*
X1898161Y1701747D03*
X1953600Y1699932D03*
X1953873Y1702323D03*
X1955758Y1699846D03*
X1953873Y1709056D03*
Y1704424D03*
Y1706794D03*
X1958290Y1702808D03*
Y1708679D03*
Y1705609D03*
X1959818Y1699567D03*
X1965529Y1702177D03*
X1837064Y1713633D03*
X1833561Y1711822D03*
X1846435Y1713633D03*
X1848875Y1713594D03*
X1871435Y1710759D03*
X1878009Y1716822D03*
X1896395Y1712334D03*
X1899781Y1718200D03*
X1900647Y1712295D03*
X1905017Y1712216D03*
X1915332Y1713397D03*
X1912458Y1712295D03*
X1908757Y1712216D03*
X1942634Y1713268D03*
X1944655Y1713366D03*
X1943437Y1715095D03*
X1945508Y1715217D03*
X1947607Y1715142D03*
X1953873Y1711372D03*
X1956782D03*
X1959636D03*
X1784689Y1719763D03*
X1783725Y1721591D03*
X1786974Y1719610D03*
X1785959Y1721641D03*
X1788091Y1721591D03*
X1844230Y1719893D03*
X1840572Y1728821D03*
X1848324Y1719263D03*
X1856946D03*
X1857025Y1727806D03*
X1871080Y1720247D03*
X1880726Y1726507D03*
X1893875Y1725287D03*
X1888403Y1728869D03*
X1906120Y1725680D03*
X1916986Y1725838D03*
X1910529Y1719460D03*
X1951256Y1721693D03*
X1954174Y1721765D03*
X1956624Y1721801D03*
X1948770D03*
X1965687Y1728751D03*
X1965608Y1726704D03*
X1963364Y1726743D03*
X1963403Y1728869D03*
X1959002Y1721909D03*
X1959074Y1724179D03*
X1959182Y1726197D03*
X1959218Y1728359D03*
X1795948Y1737529D03*
X1840568Y1731389D03*
X1896779Y1735695D03*
X1899978Y1733003D03*
X1910450Y1734421D03*
X1782147Y1746877D03*
X1784624Y1744539D03*
X1786300Y1747396D03*
X1789584Y1748948D03*
X1791435Y1741665D03*
X1792104Y1745484D03*
X1793521Y1743555D03*
X1795826Y1744486D03*
X1796940Y1742550D03*
X1794269Y1740995D03*
X1788561Y1743869D03*
X1798202Y1744398D03*
X1809137Y1746860D03*
X1813639Y1744814D03*
Y1742334D03*
Y1739854D03*
X1865057Y1746783D03*
X1858246Y1743869D03*
X1861474Y1743555D03*
X1883836Y1744539D03*
X1878639Y1747334D03*
X1895687Y1746783D03*
X1890568Y1744066D03*
X1906749Y1740366D03*
X1906120Y1745917D03*
X1901631Y1745287D03*
X1916789Y1740484D03*
X1909230Y1748988D03*
X1930632Y1748076D03*
X1932957Y1748060D03*
X1959918Y1744049D03*
X1787458Y1755641D03*
X1787419Y1750287D03*
X1784661Y1749653D03*
X1782258Y1750288D03*
X1783088Y1752570D03*
X1786198Y1752531D03*
X1789112Y1752570D03*
X1861435Y1750562D03*
X1868600Y1751862D03*
X1905805Y1752531D03*
X1909820Y1756429D03*
X1917419Y1757255D03*
X1914702Y1754499D03*
X1911828Y1751704D03*
X1920962Y1750759D03*
X1930637Y1751175D03*
X1931237Y1759015D03*
X1928494Y1755198D03*
X1931191Y1755206D03*
X1928494Y1759011D03*
X1960060Y1756055D03*
X1960013Y1750266D03*
X1796424Y1764689D03*
X1796277Y1761307D03*
X1869190Y1761862D03*
X1912143Y1760326D03*
X1912222Y1763594D03*
X1918324Y1764263D03*
X1928520Y1768210D03*
X1931191Y1768148D03*
X1931237Y1764843D03*
X1928442Y1764782D03*
X1786868Y1774893D03*
X1786907Y1778240D03*
X1790411Y1772334D03*
X1790450Y1775247D03*
X1790490Y1778161D03*
X1796277Y1777555D03*
Y1774320D03*
X1793639Y1769617D03*
X1796080D03*
X1798561D03*
X1811390Y1776968D03*
X1838127Y1776940D03*
X1875962Y1774578D03*
X1875647Y1770641D03*
X1907537Y1777058D03*
X1911435D03*
X1931225Y1777440D03*
X1931273Y1773690D03*
X1928520Y1777392D03*
X1928472Y1773642D03*
X1960684Y1771454D03*
X1960885Y1778278D03*
X1786868Y1781310D03*
X1779938Y1781468D03*
X1779309Y1784066D03*
X1797694Y1782728D03*
X1794309Y1782610D03*
X1790490Y1781350D03*
X1800805Y1782649D03*
X1816184Y1783868D03*
X1822646Y1781231D03*
X1824008Y1784944D03*
X1845830Y1783553D03*
X1851538Y1784380D03*
X1867916Y1781466D03*
X1876499Y1781900D03*
X1873940Y1782018D03*
X1905669Y1784052D03*
X1903578Y1780213D03*
X1901102Y1779409D03*
X1907971Y1784052D03*
X1912913Y1780354D03*
X1920594Y1779183D03*
X1938915Y1785287D03*
X1960784Y1786006D03*
X1794190Y1794854D03*
X1831932Y1794774D03*
X1865830Y1796191D03*
X1871263Y1794498D03*
X1878453Y1795826D03*
X1887849D03*
X1906332Y1793567D03*
X1960784Y1793432D03*
X1795435Y1804666D03*
X1792455Y1804553D03*
X1789292Y1804564D03*
X1789269Y1801271D03*
X1805242Y1804554D03*
X1801595Y1804623D03*
X1798635Y1804658D03*
X1813812Y1804520D03*
X1810955Y1804554D03*
X1808202Y1804451D03*
X1825983Y1804505D03*
X1825987Y1800561D03*
X1818035Y1800679D03*
X1818053Y1804505D03*
X1822037Y1804428D03*
X1822050Y1800679D03*
X1829885Y1804734D03*
X1833822D03*
Y1800640D03*
X1829924Y1800600D03*
X1854216Y1799222D03*
X1892167Y1804852D03*
X1894404D03*
X1896578Y1804854D03*
X1899042Y1804892D03*
X1901450Y1804845D03*
X1903952Y1804822D03*
X1916270Y1804830D03*
X1916299Y1801654D03*
X1912398Y1804830D03*
X1912323Y1801693D03*
X1908425Y1801614D03*
X1908407Y1804733D03*
X1920515Y1804616D03*
X1960483Y1799855D03*
G54D31*
X1915102Y1780354D02*
G03X1915102I-2189J0D01*
G01X1901970Y1718200D02*
G03X1901970I-2189J0D01*
G01X1908521Y1793567D02*
G03X1908521I-2189J0D01*
G01X1882915Y1726507D02*
G03X1882915I-2189J0D01*
G01X1878151Y1774578D02*
G03X1878151I-2189J0D01*
G01X1873624Y1710759D02*
G03X1873624I-2189J0D01*
G01X1870789Y1751862D02*
G03X1870789I-2189J0D01*
G01X1871379Y1761862D02*
G03X1871379I-2189J0D01*
G01X1870105Y1781466D02*
G03X1870105I-2189J0D01*
G01X1873452Y1794498D02*
G03X1873452I-2189J0D01*
G01X1863624Y1750562D02*
G03X1863624I-2189J0D01*
G01X1853727Y1784380D02*
G03X1853727I-2189J0D01*
G01X1856405Y1799222D02*
G03X1856405I-2189J0D01*
G01X1840316Y1776940D02*
G03X1840316I-2189J0D01*
G01X1949057Y1611232D02*
G03X1949057I-2189J0D01*
G01X1945553Y1649893D02*
G03X1945553I-2189J0D01*
G01X1962433Y1763871D02*
G03X1962433I-7555J0D01*
G01X1941104Y1785287D02*
G03X1941104I-2189J0D01*
G01X1935907Y1591547D02*
G03X1935907I-2189J0D01*
G01X1935671Y1601980D02*
G03X1935671I-2189J0D01*
G01X1935828Y1606940D02*
G03X1935828I-2189J0D01*
G01X1926011Y1647254D02*
G03X1926011I-2189J0D01*
G01X1916008Y1590984D02*
G03X1916008I-2189J0D01*
G01X1920142Y1611890D02*
G03X1920142I-2189J0D01*
G01X1906244Y1585630D02*
G03X1906244I-2189J0D01*
G01X1905457Y1612913D02*
G03X1905457I-2189J0D01*
G01X1896441Y1585669D02*
G03X1896441I-2189J0D01*
G01X1918068Y1670798D02*
G03X1918068I-10961J0D01*
G01X1886362Y1585394D02*
G03X1886362I-2189J0D01*
G01X1885828Y1611429D02*
G03X1885828I-2189J0D01*
G01X1875513Y1607846D02*
G03X1875513I-2189J0D01*
G01X1873964Y1630915D02*
G03X1873964I-2189J0D01*
G01X1883860Y1672334D02*
G03X1883860I-2189J0D01*
G01X1863532Y1581834D02*
G03X1863532I-4158J0D01*
G01X1865575Y1667165D02*
G03X1865575I-2189J0D01*
G01X1857561Y1675444D02*
G03X1857561I-2189J0D01*
G01X1849883Y1603200D02*
G03X1849883I-2189J0D01*
G01X1851734Y1616271D02*
G03X1851734I-2189J0D01*
G01X1837088Y1603594D02*
G03X1837088I-2189J0D01*
G01X1835946Y1624972D02*
G03X1835946I-2189J0D01*
G01X1833978Y1631389D02*
G03X1833978I-2189J0D01*
G01X1818820Y1636350D02*
G03X1818820I-2189J0D01*
G01X1812740Y1633110D02*
G03X1812740I-2189J0D01*
G01X1802403Y1619027D02*
G03X1802403I-2189J0D01*
G01X1813750Y1670903D02*
G03X1813750I-10961J0D01*
G01X1787120Y1614460D02*
G03X1787120I-3205J0D01*
G01Y1633672D02*
G03X1787120I-3205J0D01*
G01X1843532Y1581834D02*
G03X1843532I-4158J0D01*
G01X1834121Y1794774D02*
G03X1834121I-2189J0D01*
G01X1818373Y1783868D02*
G03X1818373I-2189J0D01*
G01X1811326Y1746860D02*
G03X1811326I-2189J0D01*
G01X1813579Y1776968D02*
G03X1813579I-2189J0D01*
G01X1798137Y1737529D02*
G03X1798137I-2189J0D01*
G01X1796379Y1794854D02*
G03X1796379I-2189J0D01*
G01X1918533Y1805589D02*
Y1807235D01*
G03X1918336Y1807432I-197J0*
G01X1918336D02*
X1857753D01*
G03X1857614Y1807375I-0J-197*
G01X1829261Y1779022*
G03X1829204Y1778883I140J-139*
G01Y1727774*
G03X1829401Y1727577I197J0*
G01X1846395*
X1847797Y1726176D02*
G03X1846395Y1727577I-1402J-0D01*
G01X1847797Y1726176D02*
Y1721626D01*
G03X1848021Y1721431I197J0*
G01Y1717095D02*
G03Y1721431I303J2168D01*
G01Y1717095D02*
G03X1847797Y1716900I-27J-195D01*
G01Y1715811*
G03X1848067Y1715628I197J-0*
G01Y1711560D02*
G03Y1715628I808J2034D01*
G01Y1711560D02*
G03X1847797Y1711377I-73J-183D01*
G01Y1693705*
G03X1847994Y1693508I197J-0*
G01X1918336*
X1918336D02*
G03X1918533Y1693705I0J197D01*
G01Y1723871*
G03X1918225Y1724034I-197J0*
G01Y1727642D02*
G03Y1724034I-1239J-1804D01*
G01Y1727642D02*
G03X1918533Y1727805I111J163D01*
G01Y1738668*
G03X1918209Y1738818I-197J-0*
G01Y1742150D02*
G03Y1738818I-1420J-1666D01*
G01Y1742150D02*
G03X1918533Y1742299I127J149D01*
G01Y1778410*
G03X1918523Y1778474I-197J-0*
G01Y1779892D02*
G03Y1778474I2071J-709D01*
G01Y1779892D02*
G03X1918533Y1779956I-187J64D01*
G01Y1803643*
G03X1918516Y1803723I-197J-0*
G01Y1805509D02*
G03Y1803723I1999J-893D01*
G01Y1805509D02*
G03X1918533Y1805589I-180J80D01*
G01X1967616Y1730392D02*
Y1801006D01*
G03X1961190Y1807432I-6426J0*
G01X1921193*
G03X1920996Y1807235I0J-197*
G01Y1806904*
G03X1921137Y1806715I197J-0*
G01Y1802517D02*
G03Y1806715I-622J2099D01*
G01Y1802517D02*
G03X1920996Y1802329I56J-188D01*
G01Y1781492*
G03X1921144Y1781302I197J0*
G01Y1777064D02*
G03Y1781302I-550J2119D01*
G01Y1777064D02*
G03X1920996Y1776874I49J-190D01*
G01Y1753134*
G03X1921174Y1752938I197J-0*
G01Y1748581D02*
G03Y1752938I-212J2178D01*
G01Y1748581D02*
G03X1920996Y1748385I19J-196D01*
G01Y1697521*
G03X1921217Y1697326I197J0*
G01X1922523Y1697077D02*
G03X1921217Y1697326I-1044J-1924D01*
G01X1922523Y1697077D02*
G03X1922718Y1697081I93J173D01*
G01X1925790Y1694202D02*
G03X1922718Y1697081I-1946J1002D01*
G01X1925790Y1694202D02*
G03X1925798Y1694007I175J-90D01*
G01X1925767Y1691624D02*
G03X1925798Y1694007I-1820J1215D01*
G01X1925767Y1691624D02*
G03X1925756Y1691424I164J-109D01*
G01X1922751Y1688500D02*
G03X1925756Y1691424I1064J1913D01*
G01X1922751Y1688500D02*
G03X1922566Y1688503I-96J-172D01*
G01X1919395Y1690599D02*
G03X1922566Y1688503I2184J-142D01*
G01X1919395Y1690599D02*
G03X1919198Y1690808I-197J12D01*
G01X1846644*
X1845242Y1692210D02*
G03X1846644Y1690808I1402J-0D01*
G01X1845242Y1692210D02*
Y1711694D01*
G03X1845160Y1711854I-197J-0*
G01Y1715413D02*
G03Y1711854I1275J-1780D01*
G01Y1715413D02*
G03X1845242Y1715573I-115J160D01*
G01Y1717651*
G03X1844978Y1717836I-197J-0*
G01Y1721950D02*
G03Y1717836I-748J-2057D01*
G01Y1721950D02*
G03X1845242Y1722135I67J185D01*
G01Y1724912*
G03X1845045Y1725109I-197J-0*
G01X1829401*
G03X1829204Y1724912I-0J-197*
G01Y1692285*
X1827802Y1690884D02*
G03X1829204Y1692285I0J1401D01*
G01X1827802Y1690884D02*
X1772931D01*
G03X1772734Y1690687I-0J-197*
G01Y1582728*
G03X1779624Y1575838I6890J-0*
G01X1781669*
G03X1781770Y1576204I-0J197*
G01X1789514D02*
G03X1781770I-3872J6487D01*
G01X1789514D02*
G03X1789615Y1575838I101J-169D01*
G01X1950788*
G03X1950890Y1576203I0J197*
G01X1958697D02*
G03X1950890I-3904J6469D01*
G01X1958697D02*
G03X1958798Y1575838I101J-168D01*
G01X1960726*
G03X1967616Y1582728I-0J6890*
G01Y1687462*
G03X1967328Y1687637I-197J0*
G01Y1691519D02*
G03Y1687637I-1012J-1941D01*
G01Y1691519D02*
G03X1967616Y1691694I91J175D01*
G01Y1700720*
G03X1967263Y1700840I-197J0*
G01Y1703513D02*
G03Y1700840I-1734J-1336D01*
G01Y1703513D02*
G03X1967616Y1703633I156J120D01*
G01Y1725151*
G03X1967269Y1725279I-197J-0*
G01X1964544Y1724791D02*
G03X1967269Y1725279I1064J1913D01*
G01X1964544Y1724791D02*
G03X1964359Y1724794I-95J-172D01*
G01X1961422Y1727755D02*
G03X1964359Y1724794I1942J-1012D01*
G01X1961422Y1727755D02*
G03X1961426Y1727930I-174J91D01*
G01X1964550Y1730734D02*
G03X1961426Y1727930I-1147J-1865D01*
G01X1964550Y1730734D02*
G03X1964738Y1730724I103J168D01*
G01X1967276Y1730257D02*
G03X1964738Y1730724I-1589J-1506D01*
G01X1967276Y1730257D02*
G03X1967616Y1730392I143J135D01*
G01X1853781Y1807096D02*
G03X1853642Y1807432I-139J139D01*
G01X1779176*
G03X1772734Y1800990I0J-6442*
G01Y1693738*
G03X1772931Y1693541I197J0*
G01X1826445*
G03X1826642Y1693738I-0J197*
G01Y1726176*
X1826687Y1726531D02*
G03X1826642Y1726176I1356J-355D01*
G01X1826687Y1726531D02*
G03X1826694Y1726581I-190J50D01*
G01Y1779428*
X1827104Y1780419D02*
G03X1826694Y1779428I991J-991D01*
G01X1827104Y1780419D02*
X1853781Y1807096D01*
X1915102Y1780354D02*
G03X1915102I-2189J0D01*
G01X1901970Y1718200D02*
G03X1901970I-2189J0D01*
G01X1897831Y1733430D02*
G03X1899190Y1735045I2147J-427D01*
G01X1897831Y1733430D02*
G03X1897567Y1733653I-193J39D01*
G01X1898926Y1735267D02*
G03X1897567Y1733653I-2147J428D01*
G01X1898926Y1735267D02*
G03X1899190Y1735045I193J-38D01*
G01X1906915Y1782134D02*
G03Y1785969I1056J1918D01*
G01Y1782134D02*
G03X1906725I-95J-172D01*
G01X1905481Y1781871D02*
G03X1906725Y1782134I188J2181D01*
G01X1905481Y1781871D02*
G03X1905308Y1781554I-17J-196D01*
G01X1903009Y1778099D02*
G03X1905308Y1781554I569J2114D01*
G01X1903009Y1778099D02*
G03X1902805Y1778033I-51J-190D01*
G01X1901672Y1781523D02*
G03X1902805Y1778033I-570J-2114D01*
G01X1901672Y1781523D02*
G03X1901876Y1781589I51J190D01*
G01X1903766Y1782394D02*
G03X1901876Y1781589I-188J-2181D01*
G01X1903766Y1782394D02*
G03X1903939Y1782711I17J196D01*
G01X1906725Y1785969D02*
G03X1903939Y1782711I-1056J-1917D01*
G01X1906725Y1785969D02*
G03X1906915I95J173D01*
G01X1908521Y1793567D02*
G03X1908521I-2189J0D01*
G01X1882915Y1726507D02*
G03X1882915I-2189J0D01*
G01X1878151Y1774578D02*
G03X1878151I-2189J0D01*
G01X1873624Y1710759D02*
G03X1873624I-2189J0D01*
G01X1870789Y1751862D02*
G03X1870789I-2189J0D01*
G01X1871379Y1761862D02*
G03X1871379I-2189J0D01*
G01X1870105Y1781466D02*
G03X1870105I-2189J0D01*
G01X1873452Y1794498D02*
G03X1873452I-2189J0D01*
G01X1863624Y1750562D02*
G03X1863624I-2189J0D01*
G01X1853727Y1784380D02*
G03X1853727I-2189J0D01*
G01X1856405Y1799222D02*
G03X1856405I-2189J0D01*
G01X1840316Y1776940D02*
G03X1840316I-2189J0D01*
G01X1951050Y1624055D02*
G03X1954854Y1624119I1920J-1052D01*
G01X1951050Y1624055D02*
G03X1951047Y1624250I-172J95D01*
G01X1954850Y1624314D02*
G03X1951047Y1624250I-1919J1052D01*
G01X1954850Y1624314D02*
G03X1954854Y1624119I173J-95D01*
G01X1949057Y1611232D02*
G03X1949057I-2189J0D01*
G01X1956644Y1655187D02*
G03X1953770Y1658144I-1965J965D01*
G01X1956644Y1655187D02*
G03X1956642Y1655018I177J-87D01*
G01X1953763Y1652105D02*
G03X1956642Y1655018I890J2000D01*
G01X1953763Y1652105D02*
G03X1953593Y1652100I-80J-180D01*
G01X1951626Y1652075D02*
G03X1953593Y1652100I958J1968D01*
G01X1951626Y1652075D02*
G03X1951455Y1652076I-87J-177D01*
G01X1948520Y1654947D02*
G03X1951455Y1652076I1999J-893D01*
G01X1948520Y1654948D02*
G03X1948514Y1655121I-179J80D01*
G01X1951375Y1658134D02*
G03X1948514Y1655121I-930J-1982D01*
G01X1951375Y1658134D02*
G03X1951551Y1658139I84J178D01*
G01X1953597Y1658148D02*
G03X1951551Y1658139I-1014J-1940D01*
G01X1953597Y1658148D02*
G03X1953770Y1658144I91J175D01*
G01X1945553Y1649893D02*
G03X1945553I-2189J0D01*
G01X1948842Y1668520D02*
G03X1950538Y1672481I1204J1828D01*
G01X1948842Y1668520D02*
G03X1948604Y1668504I-109J-164D01*
G01X1946098Y1668244D02*
G03X1948604Y1668504I1068J1911D01*
G01X1946098Y1668244D02*
G03X1945917Y1668250I-96J-172D01*
G01X1943828Y1668355D02*
G03X1945917Y1668250I1142J1868D01*
G01X1943828Y1668355D02*
G03X1943618Y1668352I-102J-168D01*
G01X1940499Y1671233D02*
G03X1943618Y1668352I1922J-1048D01*
G01X1940499Y1671233D02*
G03X1940507Y1671404I-173J94D01*
G01X1943569Y1674180D02*
G03X1940507Y1671404I-1045J-1924D01*
G01X1943569Y1674180D02*
G03X1943773Y1674190I94J173D01*
G01X1946746Y1673700D02*
G03X1943773Y1674190I-1745J-1322D01*
G01X1946746Y1673700D02*
G03X1947020Y1673661I157J119D01*
G01X1950396Y1672609D02*
G03X1947020Y1673661I-2071J-706D01*
G01X1950396Y1672609D02*
G03X1950538Y1672481I187J64D01*
G01X1947034Y1713029D02*
G03X1946714Y1717140I573J2113D01*
G01X1947034Y1713029D02*
G03X1946790Y1712882I-52J-190D01*
G01X1943823Y1711341D02*
G03X1946790Y1712882I832J2025D01*
G01X1943823Y1711341D02*
G03X1943656Y1711333I-75J-182D01*
G01X1941182Y1714907D02*
G03X1943656Y1711333I1452J-1639D01*
G01X1941182Y1714907D02*
G03X1941249Y1715058I-130J147D01*
G01X1944271Y1717119D02*
G03X1941249Y1715058I-834J-2024D01*
G01X1944271Y1717119D02*
G03X1944442Y1717129I75J182D01*
G01X1946541Y1717146D02*
G03X1944442Y1717129I-1033J-1929D01*
G01X1946541Y1717146D02*
G03X1946714Y1717140I93J174D01*
G01X1962433Y1763871D02*
G03X1962433I-7555J0D01*
G01X1941104Y1785287D02*
G03X1941104I-2189J0D01*
G01X1935907Y1591547D02*
G03X1935907I-2189J0D01*
G01X1935671Y1601980D02*
G03X1935671I-2189J0D01*
G01X1935828Y1606940D02*
G03X1935828I-2189J0D01*
G01X1926011Y1647254D02*
G03X1926011I-2189J0D01*
G01X1916008Y1590984D02*
G03X1916008I-2189J0D01*
G01X1920142Y1611890D02*
G03X1920142I-2189J0D01*
G01X1906244Y1585630D02*
G03X1906244I-2189J0D01*
G01X1905457Y1612913D02*
G03X1905457I-2189J0D01*
G01X1907395Y1631869D02*
G03Y1635713I1047J1922D01*
G01Y1631869D02*
G03X1907206I-94J-173D01*
G01Y1635713D02*
G03Y1631869I-1047J-1922D01*
G01Y1635713D02*
G03X1907395I95J173D01*
G01X1910649Y1652389D02*
G03X1907622Y1655274I-1961J973D01*
G01X1910649Y1652389D02*
G03X1910645Y1652221I176J-88D01*
G01X1910627Y1650399D02*
G03X1910645Y1652221I-1981J931D01*
G01X1910627Y1650399D02*
G03X1910629Y1650228I178J-84D01*
G01X1907489Y1647412D02*
G03X1910629Y1650228I1178J1844D01*
G01X1907489Y1647412D02*
G03X1907292Y1647420I-106J-166D01*
G01X1904305Y1650307D02*
G03X1907292Y1647420I1974J-946D01*
G01X1904305Y1650307D02*
G03Y1650478I-177J86D01*
G01X1904271Y1652304D02*
G03X1904305Y1650478I2006J-875D01*
G01X1904271Y1652304D02*
G03X1904267Y1652471I-180J79D01*
G01X1907419Y1655280D02*
G03X1904267Y1652471I-1191J-1836D01*
G01X1907419Y1655280D02*
G03X1907622Y1655274I107J166D01*
G01X1896441Y1585669D02*
G03X1896441I-2189J0D01*
G01X1892972Y1605371D02*
G03X1896711Y1605431I1888J-1108D01*
G01X1892972Y1605371D02*
G03X1892969Y1605576I-170J100D01*
G01X1896708Y1605635D02*
G03X1892969Y1605576I-1888J1108D01*
G01X1896708Y1605635D02*
G03X1896711Y1605431I170J-99D01*
G01X1899936Y1632172D02*
G03X1900291Y1635719I1442J1647D01*
G01X1899936Y1632172D02*
G03X1899709Y1632194I-129J-148D01*
G01X1900064Y1635742D02*
G03X1899709Y1632194I-1442J-1648D01*
G01X1900064Y1635742D02*
G03X1900291Y1635719I129J148D01*
G01X1918068Y1670798D02*
G03X1918068I-10961J0D01*
G01X1886362Y1585394D02*
G03X1886362I-2189J0D01*
G01X1885828Y1611429D02*
G03X1885828I-2189J0D01*
G01X1873532Y1584787D02*
Y1578881D01*
X1872327Y1577677D02*
G03X1873532Y1578881I0J1204D01*
G01X1872327Y1577677D02*
X1866422D01*
X1865217Y1578881D02*
G03X1866422Y1577677I1205J0D01*
G01X1865217Y1578881D02*
Y1584787D01*
X1866422Y1585992D02*
G03X1865217Y1584787I-0J-1205D01*
G01X1866422Y1585992D02*
X1872327D01*
X1873532Y1584787D02*
G03X1872327Y1585992I-1205J0D01*
G01X1873082Y1597232D02*
G03X1874034Y1598414I2075J-697D01*
G01X1873082Y1597232D02*
G03X1872795Y1597463I-186J62D01*
G01X1873746Y1598646D02*
G03X1872795Y1597463I-2075J696D01*
G01X1873746Y1598646D02*
G03X1874034Y1598414I187J-63D01*
G01X1875513Y1607846D02*
G03X1875513I-2189J0D01*
G01X1878719Y1631581D02*
G03X1878812Y1633940I1889J1107D01*
G01X1878719Y1631581D02*
G03X1878388Y1631594I-170J-99D01*
G01X1878480Y1633953D02*
G03X1878388Y1631594I-1888J-1107D01*
G01X1878480Y1633953D02*
G03X1878812Y1633940I170J99D01*
G01X1873964Y1630915D02*
G03X1873964I-2189J0D01*
G01X1880669Y1640057D02*
G03X1880328Y1643378I1238J1805D01*
G01X1880669Y1640057D02*
G03X1880415Y1640031I-112J-163D01*
G01X1877112Y1640198D02*
G03X1880415Y1640031I1724J1349D01*
G01X1877112Y1640198D02*
G03X1876790Y1640182I-155J-121D01*
G01X1876663Y1642698D02*
G03X1876790Y1640182I-1725J-1348D01*
G01X1876663Y1642698D02*
G03X1876985Y1642714I155J121D01*
G01X1880075Y1643352D02*
G03X1876985Y1642714I-1239J-1805D01*
G01X1880075Y1643352D02*
G03X1880328Y1643378I111J162D01*
G01X1883860Y1672334D02*
G03X1883860I-2189J0D01*
G01X1863532Y1581834D02*
G03X1863532I-4158J0D01*
G01X1864062Y1626054D02*
G03X1862007Y1628402I128J2186D01*
G01X1864062Y1626054D02*
G03X1863854Y1625872I-12J-196D01*
G01X1863001Y1624296D02*
G03X1863854Y1625872I-1330J1739D01*
G01X1863001Y1624296D02*
G03X1862978Y1624004I119J-156D01*
G01X1860065Y1624230D02*
G03X1862978Y1624004I1330J-1738D01*
G01X1860065Y1624230D02*
G03X1860088Y1624523I-119J157D01*
G01X1861800Y1628220D02*
G03X1860088Y1624523I-129J-2185D01*
G01X1861800Y1628220D02*
G03X1862007Y1628402I11J197D01*
G01X1865018Y1655756D02*
G03X1866124Y1657005I2069J-717D01*
G01X1865018Y1655756D02*
G03X1864745Y1655997I-186J64D01*
G01X1865851Y1657246D02*
G03X1864745Y1655997I-2068J717D01*
G01X1865851Y1657246D02*
G03X1866124Y1657005I186J-64D01*
G01X1865575Y1667165D02*
G03X1865575I-2189J0D01*
G01X1857841Y1642733D02*
G03X1854727Y1642880I-1485J1609D01*
G01X1857841Y1642733D02*
G03X1857828Y1642457I133J-144D01*
G01X1854714Y1642604D02*
G03X1857828Y1642457I1484J-1609D01*
G01X1854714Y1642604D02*
G03X1854727Y1642880I-134J145D01*
G01X1857561Y1675444D02*
G03X1857561I-2189J0D01*
G01X1850114Y1595503D02*
G03X1846814Y1596650I-1216J1820D01*
G01X1850114Y1595503D02*
G03X1850036Y1595279I109J-164D01*
G01X1846737Y1596426D02*
G03X1850036Y1595279I1216J-1820D01*
G01X1846737Y1596426D02*
G03X1846814Y1596650I-110J164D01*
G01X1849883Y1603200D02*
G03X1849883I-2189J0D01*
G01X1851734Y1616271D02*
G03X1851734I-2189J0D01*
G01X1837088Y1603594D02*
G03X1837088I-2189J0D01*
G01X1835946Y1624972D02*
G03X1835946I-2189J0D01*
G01X1833978Y1631389D02*
G03X1833978I-2189J0D01*
G01X1829674Y1636671D02*
G03X1827096Y1639197I-422J2148D01*
G01X1829674Y1636671D02*
G03X1829518Y1636512I38J-193D01*
G01X1826940Y1639038D02*
G03X1829518Y1636512I422J-2148D01*
G01X1826940Y1639038D02*
G03X1827096Y1639197I-38J193D01*
G01X1831109Y1665561D02*
G03X1827587I-1761J1301D01*
G01X1831109D02*
G03Y1665327I158J-117D01*
G01X1827587D02*
G03X1831109I1761J-1300D01*
G01X1827587D02*
G03Y1665561I-158J117D01*
G01X1818652Y1601286D02*
G03X1819480Y1604334I1877J1127D01*
G01X1818652Y1601286D02*
G03X1818389Y1601358I-169J-101D01*
G01X1815247Y1603921D02*
G03X1818389Y1601358I2093J-642D01*
G01X1815247Y1603921D02*
G03X1815124Y1604165I-188J58D01*
G01X1817937Y1605590D02*
G03X1815124Y1604165I-2093J642D01*
G01X1817937Y1605590D02*
G03X1818060Y1605346I188J-58D01*
G01X1819217Y1604406D02*
G03X1818060Y1605346I-1877J-1127D01*
G01X1819217Y1604406D02*
G03X1819480Y1604334I169J101D01*
G01X1818820Y1636350D02*
G03X1818820I-2189J0D01*
G01X1808672Y1606194D02*
G03X1809187Y1607898I2172J274D01*
G01X1808672Y1606194D02*
G03X1808328Y1606298I-195J-25D01*
G01X1805188Y1609338D02*
G03X1808328Y1606298I1483J-1610D01*
G01X1805188Y1609338D02*
G03X1805158Y1609650I-134J145D01*
G01X1807799Y1609897D02*
G03X1805158Y1609650I-1483J1610D01*
G01X1807799Y1609897D02*
G03X1807829Y1609585I134J-145D01*
G01X1808842Y1608002D02*
G03X1807829Y1609585I-2171J-274D01*
G01X1808843Y1608002D02*
G03X1809187Y1607898I195J25D01*
G01X1812740Y1633110D02*
G03X1812740I-2189J0D01*
G01X1802403Y1619027D02*
G03X1802403I-2189J0D01*
G01X1813750Y1670903D02*
G03X1813750I-10961J0D01*
G01X1787120Y1614460D02*
G03X1787120I-3205J0D01*
G01Y1633672D02*
G03X1787120I-3205J0D01*
G01X1787830Y1669614D02*
G03X1787954Y1673394I1164J1854D01*
G01X1787830Y1669614D02*
G03X1787632Y1669620I-105J-167D01*
G01X1787756Y1673401D02*
G03X1787632Y1669620I-1164J-1854D01*
G01X1787756Y1673401D02*
G03X1787954Y1673394I104J166D01*
G01X1779912Y1646499D02*
G03X1778343Y1649870I263J2174D01*
G01X1779912Y1646499D02*
G03X1779723Y1646412I-24J-195D01*
G01X1776032Y1646454D02*
G03X1779723Y1646412I1859J1156D01*
G01X1776032Y1646454D02*
G03X1775837Y1646545I-167J-104D01*
G01X1777388Y1649868D02*
G03X1775837Y1646545I-1859J-1156D01*
G01X1777388Y1649868D02*
G03X1777583Y1649777I167J104D01*
G01X1778154Y1649783D02*
G03X1777583Y1649777I-263J-2173D01*
G01X1778154Y1649783D02*
G03X1778343Y1649870I24J195D01*
G01X1843532Y1581834D02*
G03X1843532I-4158J0D01*
G01X1834121Y1794774D02*
G03X1834121I-2189J0D01*
G01X1824532Y1782819D02*
G03X1822233Y1783662I-524J2125D01*
G01X1824532Y1782819D02*
G03X1824420Y1782513I47J-191D01*
G01X1822121Y1783356D02*
G03X1824420Y1782513I525J-2125D01*
G01X1822121Y1783356D02*
G03X1822233Y1783662I-47J191D01*
G01X1818373Y1783868D02*
G03X1818373I-2189J0D01*
G01X1811326Y1746860D02*
G03X1811326I-2189J0D01*
G01X1813579Y1776968D02*
G03X1813579I-2189J0D01*
G01X1798137Y1737529D02*
G03X1798137I-2189J0D01*
G01X1789255Y1719737D02*
G03X1787160Y1723571I-1164J1854D01*
G01X1789255Y1719737D02*
G03X1789163Y1719573I105J-167D01*
G01X1785798Y1717764D02*
G03X1789163Y1719573I1176J1846D01*
G01X1785798Y1717764D02*
G03X1785610Y1717777I-105J-166D01*
G01X1782502Y1719680D02*
G03X1785610Y1717777I2187J83D01*
G01X1782502Y1719680D02*
G03X1782422Y1719831I-197J-7D01*
G01X1784706Y1723548D02*
G03X1782422Y1719831I-981J-1957D01*
G01X1784706Y1723548D02*
G03X1784890Y1723552I88J176D01*
G01X1786984Y1723576D02*
G03X1784890Y1723552I-1025J-1935D01*
G01X1786984Y1723576D02*
G03X1787160Y1723571I92J174D01*
G01X1789241Y1757289D02*
G03X1785152Y1756399I-3589J6648D01*
G01X1789241Y1757289D02*
G03X1789179Y1756994I93J-174D01*
G01X1785331Y1756156D02*
G03X1789179Y1756994I2127J-515D01*
G01X1785331Y1756156D02*
G03X1785152Y1756399I-192J46D01*
G01X1796379Y1794854D02*
G03X1796379I-2189J0D01*
G01X1777887Y1782233D02*
G03X1781412Y1783087I2051J-765D01*
G01X1777887Y1782233D02*
G03X1777835Y1782447I-184J69D01*
G01X1781360Y1783301D02*
G03X1777835Y1782447I-2051J765D01*
G01X1781360Y1783301D02*
G03X1781412Y1783087I184J-68D01*
G01X1857131Y1806892D02*
X1918533D01*
X1856777Y1806538D02*
X1918533D01*
X1856423Y1806184D02*
X1918533D01*
X1856068Y1805829D02*
X1918533D01*
X1853588Y1803349D02*
X1918533D01*
X1853234Y1802995D02*
X1918533D01*
X1852879Y1802640D02*
X1918533D01*
X1852525Y1802286D02*
X1918533D01*
X1852171Y1801932D02*
X1918533D01*
X1851816Y1801577D02*
X1918533D01*
X1855104Y1801223D02*
X1918533D01*
X1855658Y1800869D02*
X1918533D01*
X1855983Y1800514D02*
X1918533D01*
X1856194Y1800160D02*
X1918533D01*
X1856326Y1799806D02*
X1918533D01*
X1856393Y1799451D02*
X1918533D01*
X1856401Y1799097D02*
X1918533D01*
X1856351Y1798743D02*
X1918533D01*
X1856240Y1798388D02*
X1918533D01*
X1856054Y1798034D02*
X1918533D01*
X1855769Y1797680D02*
X1918533D01*
X1855308Y1797325D02*
X1918533D01*
X1847210Y1796971D02*
X1918533D01*
X1871813Y1796617D02*
X1918533D01*
X1872559Y1796262D02*
X1918533D01*
X1872937Y1795908D02*
X1918533D01*
X1907252Y1795554D02*
X1918533D01*
X1907791Y1795199D02*
X1918533D01*
X1908110Y1794845D02*
X1918533D01*
X1908317Y1794491D02*
X1918533D01*
X1908446Y1794136D02*
X1918533D01*
X1908511Y1793782D02*
X1918533D01*
X1908517Y1793428D02*
X1918533D01*
X1908465Y1793073D02*
X1918533D01*
X1908350Y1792719D02*
X1918533D01*
X1908161Y1792365D02*
X1918533D01*
X1907871Y1792010D02*
X1918533D01*
X1907399Y1791656D02*
X1918533D01*
X1841541Y1791302D02*
X1918533D01*
X1841187Y1790947D02*
X1918533D01*
X1840832Y1790593D02*
X1918533D01*
X1840478Y1790239D02*
X1918533D01*
X1840124Y1789884D02*
X1918533D01*
X1839769Y1789530D02*
X1918533D01*
X1839415Y1789176D02*
X1918533D01*
X1839061Y1788821D02*
X1918533D01*
X1838706Y1788467D02*
X1918533D01*
X1838352Y1788113D02*
X1918533D01*
X1837998Y1787758D02*
X1918533D01*
X1837643Y1787404D02*
X1918533D01*
X1837289Y1787050D02*
X1918533D01*
X1836935Y1786695D02*
X1918533D01*
X1852511Y1786341D02*
X1918533D01*
X1908995Y1785987D02*
X1918533D01*
X1909485Y1785632D02*
X1918533D01*
X1909784Y1785278D02*
X1918533D01*
X1909979Y1784924D02*
X1918533D01*
X1910098Y1784569D02*
X1918533D01*
X1910154Y1784215D02*
X1918533D01*
X1910152Y1783861D02*
X1918533D01*
X1910091Y1783506D02*
X1918533D01*
X1909967Y1783152D02*
X1918533D01*
X1909765Y1782798D02*
X1918533D01*
X1913567Y1782443D02*
X1918533D01*
X1914248Y1782089D02*
X1918533D01*
X1914612Y1781735D02*
X1918533D01*
X1914847Y1781380D02*
X1918533D01*
X1914997Y1781026D02*
X1918533D01*
X1915079Y1780672D02*
X1918533D01*
X1915102Y1780317D02*
X1918533D01*
X1915067Y1779963D02*
X1918533D01*
X1913250Y1778191D02*
X1918533D01*
X1902625Y1777837D02*
X1918533D01*
X1902141Y1777483D02*
X1918533D01*
X1840308Y1777128D02*
X1918533D01*
X1840310Y1776774D02*
X1918533D01*
X1877145Y1776420D02*
X1918533D01*
X1877568Y1776065D02*
X1918533D01*
X1877835Y1775711D02*
X1918533D01*
X1878008Y1775357D02*
X1918533D01*
X1878110Y1775002D02*
X1918533D01*
X1878150Y1774648D02*
X1918533D01*
X1878133Y1774294D02*
X1918533D01*
X1878056Y1773939D02*
X1918533D01*
X1877913Y1773585D02*
X1918533D01*
X1877687Y1773231D02*
X1918533D01*
X1877339Y1772876D02*
X1918533D01*
X1876714Y1772522D02*
X1918533D01*
X1829204Y1772168D02*
X1918533D01*
X1829204Y1771813D02*
X1918533D01*
X1829204Y1771459D02*
X1918533D01*
X1829204Y1771105D02*
X1918533D01*
X1829204Y1770750D02*
X1918533D01*
X1829204Y1770396D02*
X1918533D01*
X1829204Y1770042D02*
X1918533D01*
X1829204Y1769688D02*
X1918533D01*
X1829204Y1769333D02*
X1918533D01*
X1829204Y1768979D02*
X1918533D01*
X1829204Y1768625D02*
X1918533D01*
X1829204Y1768270D02*
X1918533D01*
X1829204Y1767916D02*
X1918533D01*
X1829204Y1767562D02*
X1918533D01*
X1829204Y1767207D02*
X1918533D01*
X1829204Y1766853D02*
X1918533D01*
X1829204Y1766499D02*
X1918533D01*
X1829204Y1766144D02*
X1918533D01*
X1829204Y1765790D02*
X1918533D01*
X1829204Y1765436D02*
X1918533D01*
X1829204Y1765081D02*
X1918533D01*
X1829204Y1764727D02*
X1918533D01*
X1829204Y1764373D02*
X1918533D01*
X1869566Y1764018D02*
X1918533D01*
X1870433Y1763664D02*
X1918533D01*
X1870832Y1763310D02*
X1918533D01*
X1871087Y1762955D02*
X1918533D01*
X1871251Y1762601D02*
X1918533D01*
X1871345Y1762247D02*
X1918533D01*
X1871379Y1761892D02*
X1918533D01*
X1871355Y1761538D02*
X1918533D01*
X1871272Y1761184D02*
X1918533D01*
X1871121Y1760829D02*
X1918533D01*
X1870884Y1760475D02*
X1918533D01*
X1870517Y1760121D02*
X1918533D01*
X1869824Y1759766D02*
X1918533D01*
X1829204Y1759412D02*
X1918533D01*
X1829204Y1759058D02*
X1918533D01*
X1829204Y1758703D02*
X1918533D01*
X1829204Y1758349D02*
X1918533D01*
X1829204Y1757995D02*
X1918533D01*
X1829204Y1757640D02*
X1918533D01*
X1829204Y1757286D02*
X1918533D01*
X1829204Y1756932D02*
X1918533D01*
X1829204Y1756577D02*
X1918533D01*
X1829204Y1756223D02*
X1918533D01*
X1829204Y1755869D02*
X1918533D01*
X1829204Y1755514D02*
X1918533D01*
X1829204Y1755160D02*
X1918533D01*
X1829204Y1754806D02*
X1918533D01*
X1829204Y1754451D02*
X1918533D01*
X1829204Y1754097D02*
X1918533D01*
X1869719Y1753743D02*
X1918533D01*
X1870169Y1753388D02*
X1918533D01*
X1870448Y1753034D02*
X1918533D01*
X1870630Y1752680D02*
X1918533D01*
X1870739Y1752325D02*
X1918533D01*
X1870786Y1751971D02*
X1918533D01*
X1870775Y1751617D02*
X1918533D01*
X1870705Y1751262D02*
X1918533D01*
X1870570Y1750908D02*
X1918533D01*
X1870355Y1750554D02*
X1918533D01*
X1870024Y1750199D02*
X1918533D01*
X1869451Y1749845D02*
X1918533D01*
X1863343Y1749491D02*
X1918533D01*
X1863095Y1749136D02*
X1918533D01*
X1862708Y1748782D02*
X1918533D01*
X1861919Y1748428D02*
X1918533D01*
X1829204Y1748073D02*
X1918533D01*
X1829204Y1747719D02*
X1918533D01*
X1829204Y1747365D02*
X1918533D01*
X1829204Y1747010D02*
X1918533D01*
X1829204Y1746656D02*
X1918533D01*
X1829204Y1746302D02*
X1918533D01*
X1829204Y1745947D02*
X1918533D01*
X1829204Y1745593D02*
X1918533D01*
X1829204Y1745239D02*
X1918533D01*
X1829204Y1744884D02*
X1918533D01*
X1829204Y1744530D02*
X1918533D01*
X1829204Y1744176D02*
X1918533D01*
X1829204Y1743821D02*
X1918533D01*
X1829204Y1743467D02*
X1918533D01*
X1829204Y1743113D02*
X1918533D01*
X1829204Y1742758D02*
X1918533D01*
X1917839Y1742404D02*
X1918533D01*
X1917728Y1738506D02*
X1918533D01*
X1829204Y1738152D02*
X1918533D01*
X1897386Y1737798D02*
X1918533D01*
X1898095Y1737443D02*
X1918533D01*
X1898466Y1737089D02*
X1918533D01*
X1898705Y1736735D02*
X1918533D01*
X1898857Y1736380D02*
X1918533D01*
X1898942Y1736026D02*
X1918533D01*
X1898968Y1735672D02*
X1918533D01*
X1898935Y1735317D02*
X1918533D01*
X1900953Y1734963D02*
X1918533D01*
X1901466Y1734609D02*
X1918533D01*
X1901774Y1734254D02*
X1918533D01*
X1901975Y1733900D02*
X1918533D01*
X1902099Y1733546D02*
X1918533D01*
X1902159Y1733191D02*
X1918533D01*
X1902161Y1732837D02*
X1918533D01*
X1902104Y1732483D02*
X1918533D01*
X1901984Y1732128D02*
X1918533D01*
X1901789Y1731774D02*
X1918533D01*
X1901489Y1731420D02*
X1918533D01*
X1900996Y1731065D02*
X1918533D01*
X1829204Y1730711D02*
X1918533D01*
X1829204Y1730357D02*
X1918533D01*
X1829204Y1730002D02*
X1918533D01*
X1829204Y1729648D02*
X1918533D01*
X1829204Y1729294D02*
X1918533D01*
X1829204Y1728939D02*
X1918533D01*
X1881414Y1728585D02*
X1918533D01*
X1882075Y1728231D02*
X1918533D01*
X1917783Y1727876D02*
X1918533D01*
X1847797Y1723625D02*
X1918533D01*
X1847797Y1723270D02*
X1918533D01*
X1847797Y1722916D02*
X1918533D01*
X1847797Y1722562D02*
X1918533D01*
X1847797Y1722207D02*
X1918533D01*
X1847797Y1721853D02*
X1918533D01*
X1847844Y1721499D02*
X1918533D01*
X1849444Y1721144D02*
X1918533D01*
X1849893Y1720790D02*
X1918533D01*
X1850173Y1720436D02*
X1918533D01*
X1900901Y1720081D02*
X1918533D01*
X1901350Y1719727D02*
X1918533D01*
X1901630Y1719373D02*
X1918533D01*
X1901811Y1719018D02*
X1918533D01*
X1901920Y1718664D02*
X1918533D01*
X1901967Y1718310D02*
X1918533D01*
X1901956Y1717955D02*
X1918533D01*
X1901886Y1717601D02*
X1918533D01*
X1901751Y1717247D02*
X1918533D01*
X1901536Y1716892D02*
X1918533D01*
X1901205Y1716538D02*
X1918533D01*
X1900632Y1716184D02*
X1918533D01*
X1847797Y1715829D02*
X1918533D01*
X1849995Y1715475D02*
X1918533D01*
X1850444Y1715121D02*
X1918533D01*
X1850724Y1714766D02*
X1918533D01*
X1850906Y1714412D02*
X1918533D01*
X1851015Y1714058D02*
X1918533D01*
X1851062Y1713703D02*
X1918533D01*
X1851051Y1713349D02*
X1918533D01*
X1850981Y1712995D02*
X1918533D01*
X1872554Y1712640D02*
X1918533D01*
X1873003Y1712286D02*
X1918533D01*
X1873283Y1711932D02*
X1918533D01*
X1873465Y1711577D02*
X1918533D01*
X1873574Y1711223D02*
X1918533D01*
X1873621Y1710869D02*
X1918533D01*
X1873610Y1710514D02*
X1918533D01*
X1873540Y1710160D02*
X1918533D01*
X1873405Y1709806D02*
X1918533D01*
X1873190Y1709451D02*
X1918533D01*
X1872859Y1709097D02*
X1918533D01*
X1872286Y1708743D02*
X1918533D01*
X1847797Y1708388D02*
X1918533D01*
X1847797Y1708034D02*
X1918533D01*
X1847797Y1707680D02*
X1918533D01*
X1847797Y1707325D02*
X1918533D01*
X1847797Y1706971D02*
X1918533D01*
X1847797Y1706617D02*
X1918533D01*
X1847797Y1706262D02*
X1918533D01*
X1847797Y1705908D02*
X1918533D01*
X1847797Y1705554D02*
X1918533D01*
X1847797Y1705199D02*
X1918533D01*
X1847797Y1704845D02*
X1918533D01*
X1847797Y1704491D02*
X1918533D01*
X1847797Y1704136D02*
X1918533D01*
X1847797Y1703782D02*
X1918533D01*
X1847797Y1703428D02*
X1918533D01*
X1847797Y1703073D02*
X1918533D01*
X1847797Y1702719D02*
X1918533D01*
X1847797Y1702365D02*
X1918533D01*
X1847797Y1702010D02*
X1918533D01*
X1847797Y1701656D02*
X1918533D01*
X1847797Y1701302D02*
X1918533D01*
X1847797Y1700947D02*
X1918533D01*
X1847797Y1700593D02*
X1918533D01*
X1847797Y1700239D02*
X1918533D01*
X1847797Y1699884D02*
X1918533D01*
X1847797Y1699530D02*
X1918533D01*
X1847797Y1699176D02*
X1918533D01*
X1847797Y1698821D02*
X1918533D01*
X1847797Y1698467D02*
X1918533D01*
X1847797Y1698113D02*
X1918533D01*
X1847797Y1697758D02*
X1918533D01*
X1847797Y1697404D02*
X1918533D01*
X1847797Y1697050D02*
X1918533D01*
X1847797Y1696695D02*
X1918533D01*
X1847797Y1696341D02*
X1918533D01*
X1847797Y1695987D02*
X1918533D01*
X1847797Y1695632D02*
X1918533D01*
X1847797Y1695278D02*
X1918533D01*
X1847797Y1694924D02*
X1918533D01*
X1847797Y1694569D02*
X1918533D01*
X1847797Y1694215D02*
X1918533D01*
X1847797Y1693861D02*
X1918533D01*
X1857486Y1807247D02*
X1918533D01*
X1853942Y1803703D02*
X1918524D01*
X1918141Y1723979D02*
X1918501D01*
X1855714Y1805475D02*
X1918501D01*
X1914147Y1778546D02*
X1918499D01*
X1914972Y1779609D02*
X1918446D01*
X1914550Y1778900D02*
X1918423D01*
X1914806Y1779254D02*
X1918406D01*
X1854297Y1804058D02*
X1918398D01*
X1855360Y1805121D02*
X1918385D01*
X1918297Y1738861D02*
X1918376D01*
X1854651Y1804412D02*
X1918335D01*
X1855005Y1804766D02*
X1918331D01*
X1882434Y1727876D02*
X1916188D01*
X1829204Y1738506D02*
X1915850D01*
X1847797Y1723979D02*
X1915830D01*
X1829204Y1742404D02*
X1915738D01*
X1882665Y1727522D02*
X1915587D01*
X1880981Y1724333D02*
X1915396D01*
X1829204Y1738861D02*
X1915320D01*
X1829204Y1742050D02*
X1915259D01*
X1882813Y1727168D02*
X1915247D01*
X1881943Y1724688D02*
X1915123D01*
X1882893Y1726813D02*
X1915026D01*
X1829204Y1739215D02*
X1915005D01*
X1829204Y1741695D02*
X1914966D01*
X1882352Y1725042D02*
X1914947D01*
X1882914Y1726459D02*
X1914887D01*
X1882612Y1725396D02*
X1914842D01*
X1882878Y1726105D02*
X1914813D01*
X1829204Y1739569D02*
X1914800D01*
X1882780Y1725750D02*
X1914798D01*
X1829204Y1741341D02*
X1914775D01*
X1829204Y1739924D02*
X1914673D01*
X1829204Y1740987D02*
X1914658D01*
X1829204Y1740278D02*
X1914610D01*
X1829204Y1740632D02*
X1914605D01*
X1904418Y1778191D02*
X1912576D01*
X1909456Y1782443D02*
X1912260D01*
X1904997Y1778546D02*
X1911680D01*
X1908940Y1782089D02*
X1911578D01*
X1905330Y1778900D02*
X1911277D01*
X1905277Y1781735D02*
X1911215D01*
X1905546Y1779254D02*
X1911021D01*
X1905430Y1781380D02*
X1910980D01*
X1905682Y1779609D02*
X1910855D01*
X1905611Y1781026D02*
X1910830D01*
X1905753Y1779963D02*
X1910760D01*
X1905719Y1780672D02*
X1910748D01*
X1905765Y1780317D02*
X1910725D01*
X1906638Y1782089D02*
X1907002D01*
X1906692Y1785987D02*
X1906947D01*
X1873181Y1795554D02*
X1905412D01*
X1841895Y1791656D02*
X1905265D01*
X1873336Y1795199D02*
X1904873D01*
X1842250Y1792010D02*
X1904793D01*
X1853025Y1785987D02*
X1904645D01*
X1873424Y1794845D02*
X1904555D01*
X1871753Y1792365D02*
X1904503D01*
X1873452Y1794491D02*
X1904347D01*
X1872538Y1792719D02*
X1904314D01*
X1873422Y1794136D02*
X1904218D01*
X1872925Y1793073D02*
X1904200D01*
X1853334Y1785632D02*
X1904154D01*
X1873331Y1793782D02*
X1904154D01*
X1873172Y1793428D02*
X1904148D01*
X1869875Y1782443D02*
X1903914D01*
X1869654Y1782798D02*
X1903874D01*
X1853535Y1785278D02*
X1903855D01*
X1869313Y1783152D02*
X1903673D01*
X1853659Y1784924D02*
X1903661D01*
X1868710Y1783506D02*
X1903549D01*
X1853719Y1784569D02*
X1903542D01*
X1853665Y1783861D02*
X1903488D01*
X1853721Y1784215D02*
X1903486D01*
X1870015Y1782089D02*
X1902451D01*
X1870089Y1781735D02*
X1902005D01*
X1870104Y1781380D02*
X1900150D01*
X1840248Y1777483D02*
X1900063D01*
X1870061Y1781026D02*
X1899626D01*
X1840124Y1777837D02*
X1899579D01*
X1869956Y1780672D02*
X1899314D01*
X1839924Y1778191D02*
X1899284D01*
X1869780Y1780317D02*
X1899111D01*
X1839615Y1778546D02*
X1899091D01*
X1869508Y1779963D02*
X1898985D01*
X1839103Y1778900D02*
X1898973D01*
X1829204Y1731065D02*
X1898960D01*
X1847797Y1716184D02*
X1898930D01*
X1869074Y1779609D02*
X1898922D01*
X1829494Y1779254D02*
X1898919D01*
X1850355Y1720081D02*
X1898661D01*
X1829204Y1731420D02*
X1898467D01*
X1847797Y1716538D02*
X1898357D01*
X1850464Y1719727D02*
X1898212D01*
X1829204Y1731774D02*
X1898167D01*
X1847797Y1716892D02*
X1898026D01*
X1829204Y1732128D02*
X1897971D01*
X1850511Y1719373D02*
X1897932D01*
X1829204Y1732483D02*
X1897852D01*
X1897196Y1733546D02*
X1897819D01*
X1849176Y1717247D02*
X1897811D01*
X1829204Y1733191D02*
X1897797D01*
X1829204Y1732837D02*
X1897795D01*
X1850500Y1719018D02*
X1897751D01*
X1849749Y1717601D02*
X1897676D01*
X1850430Y1718664D02*
X1897642D01*
X1850080Y1717955D02*
X1897606D01*
X1850295Y1718310D02*
X1897595D01*
X1829204Y1733546D02*
X1896362D01*
X1829204Y1737798D02*
X1896171D01*
X1829204Y1733900D02*
X1895525D01*
X1829204Y1737443D02*
X1895462D01*
X1829204Y1734254D02*
X1895130D01*
X1829204Y1737089D02*
X1895091D01*
X1829204Y1734609D02*
X1894878D01*
X1829204Y1736735D02*
X1894853D01*
X1829204Y1734963D02*
X1894716D01*
X1829204Y1736380D02*
X1894700D01*
X1829204Y1735317D02*
X1894622D01*
X1829204Y1736026D02*
X1894615D01*
X1829204Y1735672D02*
X1894590D01*
X1847797Y1724333D02*
X1880471D01*
X1829204Y1728585D02*
X1880037D01*
X1847797Y1724688D02*
X1879509D01*
X1829204Y1728231D02*
X1879376D01*
X1847797Y1725042D02*
X1879100D01*
X1829204Y1727876D02*
X1879018D01*
X1847797Y1725396D02*
X1878840D01*
X1846785Y1727522D02*
X1878786D01*
X1847797Y1725750D02*
X1878672D01*
X1847386Y1727168D02*
X1878639D01*
X1847797Y1726105D02*
X1878574D01*
X1847644Y1726813D02*
X1878558D01*
X1847768Y1726459D02*
X1878537D01*
X1829204Y1772522D02*
X1875211D01*
X1840254Y1776420D02*
X1874779D01*
X1829204Y1772876D02*
X1874585D01*
X1840134Y1776065D02*
X1874356D01*
X1829204Y1773231D02*
X1874237D01*
X1839939Y1775711D02*
X1874089D01*
X1829204Y1773585D02*
X1874011D01*
X1839639Y1775357D02*
X1873916D01*
X1829204Y1773939D02*
X1873868D01*
X1839145Y1775002D02*
X1873815D01*
X1829204Y1774294D02*
X1873792D01*
X1829204Y1774648D02*
X1873774D01*
X1842604Y1792365D02*
X1870772D01*
X1846856Y1796617D02*
X1870712D01*
X1847797Y1708743D02*
X1870583D01*
X1850846Y1712640D02*
X1870315D01*
X1847797Y1709097D02*
X1870010D01*
X1842958Y1792719D02*
X1869987D01*
X1846501Y1796262D02*
X1869967D01*
X1850631Y1712286D02*
X1869866D01*
X1847797Y1709451D02*
X1869679D01*
X1843313Y1793073D02*
X1869601D01*
X1846147Y1795908D02*
X1869588D01*
X1850300Y1711932D02*
X1869586D01*
X1847797Y1709806D02*
X1869464D01*
X1849727Y1711577D02*
X1869404D01*
X1843667Y1793428D02*
X1869353D01*
X1845793Y1795554D02*
X1869345D01*
X1847797Y1710160D02*
X1869329D01*
X1847797Y1711223D02*
X1869295D01*
X1847797Y1710514D02*
X1869259D01*
X1847797Y1710869D02*
X1869248D01*
X1844021Y1793782D02*
X1869194D01*
X1845439Y1795199D02*
X1869189D01*
X1844376Y1794136D02*
X1869104D01*
X1845084Y1794845D02*
X1869102D01*
X1844730Y1794491D02*
X1869074D01*
X1829204Y1764018D02*
X1868815D01*
X1829204Y1759766D02*
X1868557D01*
X1829204Y1763664D02*
X1867948D01*
X1829204Y1760121D02*
X1867864D01*
X1863503Y1749845D02*
X1867748D01*
X1829204Y1763310D02*
X1867549D01*
X1829204Y1760475D02*
X1867497D01*
X1829204Y1753743D02*
X1867480D01*
X1829204Y1762955D02*
X1867294D01*
X1829204Y1760829D02*
X1867260D01*
X1863593Y1750199D02*
X1867176D01*
X1829204Y1762601D02*
X1867130D01*
X1853546Y1783506D02*
X1867122D01*
X1829204Y1761184D02*
X1867109D01*
X1829204Y1762247D02*
X1867036D01*
X1829204Y1753388D02*
X1867031D01*
X1829204Y1761538D02*
X1867026D01*
X1829204Y1761892D02*
X1867002D01*
X1863624Y1750554D02*
X1866845D01*
X1829848Y1779609D02*
X1866759D01*
X1829204Y1753034D02*
X1866751D01*
X1863596Y1750908D02*
X1866630D01*
X1861990Y1752680D02*
X1866569D01*
X1853351Y1783152D02*
X1866520D01*
X1863509Y1751262D02*
X1866495D01*
X1862732Y1752325D02*
X1866461D01*
X1863353Y1751617D02*
X1866425D01*
X1863110Y1751971D02*
X1866414D01*
X1830202Y1779963D02*
X1866325D01*
X1853051Y1782798D02*
X1866179D01*
X1830557Y1780317D02*
X1866053D01*
X1852559Y1782443D02*
X1865958D01*
X1830911Y1780672D02*
X1865877D01*
X1832328Y1782089D02*
X1865818D01*
X1831265Y1781026D02*
X1865772D01*
X1831974Y1781735D02*
X1865744D01*
X1831620Y1781380D02*
X1865729D01*
X1829204Y1748428D02*
X1860950D01*
X1829204Y1752680D02*
X1860879D01*
X1829204Y1748782D02*
X1860161D01*
X1829204Y1752325D02*
X1860137D01*
X1829204Y1749136D02*
X1859774D01*
X1829204Y1751971D02*
X1859759D01*
X1829204Y1749491D02*
X1859526D01*
X1829204Y1751617D02*
X1859516D01*
X1829204Y1749845D02*
X1859366D01*
X1829204Y1751262D02*
X1859360D01*
X1829204Y1750199D02*
X1859276D01*
X1829204Y1750908D02*
X1859273D01*
X1829204Y1750554D02*
X1859246D01*
X1851462Y1801223D02*
X1853327D01*
X1847564Y1797325D02*
X1853124D01*
X1851108Y1800869D02*
X1852773D01*
X1847919Y1797680D02*
X1852663D01*
X1850753Y1800514D02*
X1852449D01*
X1848273Y1798034D02*
X1852377D01*
X1850399Y1800160D02*
X1852238D01*
X1848627Y1798388D02*
X1852192D01*
X1850045Y1799806D02*
X1852106D01*
X1848982Y1798743D02*
X1852080D01*
X1849690Y1799451D02*
X1852039D01*
X1849336Y1799097D02*
X1852030D01*
X1836580Y1786341D02*
X1850566D01*
X1832683Y1782443D02*
X1850518D01*
X1836226Y1785987D02*
X1850052D01*
X1833037Y1782798D02*
X1850026D01*
X1835872Y1785632D02*
X1849743D01*
X1833391Y1783152D02*
X1849726D01*
X1835517Y1785278D02*
X1849542D01*
X1833746Y1783506D02*
X1849531D01*
X1835163Y1784924D02*
X1849418D01*
X1834100Y1783861D02*
X1849412D01*
X1834809Y1784569D02*
X1849358D01*
X1834454Y1784215D02*
X1849356D01*
X1829205Y1778900D02*
X1837152D01*
X1829204Y1775002D02*
X1837109D01*
X1829204Y1778546D02*
X1836639D01*
X1829204Y1775357D02*
X1836616D01*
X1829204Y1778191D02*
X1836331D01*
X1829204Y1775711D02*
X1836316D01*
X1829204Y1777837D02*
X1836131D01*
X1829204Y1776065D02*
X1836121D01*
X1829204Y1777483D02*
X1836007D01*
X1829204Y1776420D02*
X1836001D01*
X1829204Y1777128D02*
X1835947D01*
X1829204Y1776774D02*
X1835945D01*
X1920996Y1800837D02*
X1967616D01*
X1920996Y1800482D02*
X1967616D01*
X1920996Y1800128D02*
X1967616D01*
X1920996Y1799774D02*
X1967616D01*
X1920996Y1799419D02*
X1967616D01*
X1920996Y1799065D02*
X1967616D01*
X1920996Y1798711D02*
X1967616D01*
X1920996Y1798356D02*
X1967616D01*
X1920996Y1798002D02*
X1967616D01*
X1920996Y1797648D02*
X1967616D01*
X1920996Y1797293D02*
X1967616D01*
X1920996Y1796939D02*
X1967616D01*
X1920996Y1796585D02*
X1967616D01*
X1920996Y1796230D02*
X1967616D01*
X1920996Y1795876D02*
X1967616D01*
X1920996Y1795522D02*
X1967616D01*
X1920996Y1795167D02*
X1967616D01*
X1920996Y1794813D02*
X1967616D01*
X1920996Y1794459D02*
X1967616D01*
X1920996Y1794104D02*
X1967616D01*
X1920996Y1793750D02*
X1967616D01*
X1920996Y1793396D02*
X1967616D01*
X1920996Y1793041D02*
X1967616D01*
X1920996Y1792687D02*
X1967616D01*
X1920996Y1792333D02*
X1967616D01*
X1920996Y1791978D02*
X1967616D01*
X1920996Y1791624D02*
X1967616D01*
X1920996Y1791270D02*
X1967616D01*
X1920996Y1790915D02*
X1967616D01*
X1920996Y1790561D02*
X1967616D01*
X1920996Y1790207D02*
X1967616D01*
X1920996Y1789852D02*
X1967616D01*
X1920996Y1789498D02*
X1967616D01*
X1920996Y1789144D02*
X1967616D01*
X1920996Y1788789D02*
X1967616D01*
X1920996Y1788435D02*
X1967616D01*
X1920996Y1788081D02*
X1967616D01*
X1920996Y1787726D02*
X1967616D01*
X1939581Y1787372D02*
X1967616D01*
X1940255Y1787018D02*
X1967616D01*
X1940617Y1786663D02*
X1967616D01*
X1940850Y1786309D02*
X1967616D01*
X1940999Y1785955D02*
X1967616D01*
X1941081Y1785600D02*
X1967616D01*
X1941103Y1785246D02*
X1967616D01*
X1941068Y1784892D02*
X1967616D01*
X1940972Y1784537D02*
X1967616D01*
X1940805Y1784183D02*
X1967616D01*
X1940548Y1783829D02*
X1967616D01*
X1940143Y1783474D02*
X1967616D01*
X1939227Y1783120D02*
X1967616D01*
X1920996Y1782766D02*
X1967616D01*
X1920996Y1782411D02*
X1967616D01*
X1920996Y1782057D02*
X1967616D01*
X1920996Y1781703D02*
X1967616D01*
X1921059Y1781348D02*
X1967616D01*
X1921823Y1780994D02*
X1967616D01*
X1922227Y1780640D02*
X1967616D01*
X1922485Y1780285D02*
X1967616D01*
X1922651Y1779931D02*
X1967616D01*
X1922747Y1779577D02*
X1967616D01*
X1922782Y1779223D02*
X1967616D01*
X1922760Y1778868D02*
X1967616D01*
X1922678Y1778514D02*
X1967616D01*
X1922529Y1778160D02*
X1967616D01*
X1922295Y1777805D02*
X1967616D01*
X1921932Y1777451D02*
X1967616D01*
X1921256Y1777097D02*
X1967616D01*
X1920996Y1776742D02*
X1967616D01*
X1920996Y1776388D02*
X1967616D01*
X1920996Y1776034D02*
X1967616D01*
X1920996Y1775679D02*
X1967616D01*
X1920996Y1775325D02*
X1967616D01*
X1920996Y1774971D02*
X1967616D01*
X1920996Y1774616D02*
X1967616D01*
X1920996Y1774262D02*
X1967616D01*
X1920996Y1773908D02*
X1967616D01*
X1920996Y1773553D02*
X1967616D01*
X1920996Y1773199D02*
X1967616D01*
X1920996Y1772845D02*
X1967616D01*
X1920996Y1772490D02*
X1967616D01*
X1920996Y1772136D02*
X1967616D01*
X1920996Y1771782D02*
X1967616D01*
X1920996Y1771427D02*
X1967616D01*
X1957162Y1771073D02*
X1967616D01*
X1958071Y1770719D02*
X1967616D01*
X1958741Y1770364D02*
X1967616D01*
X1959282Y1770010D02*
X1967616D01*
X1959738Y1769656D02*
X1967616D01*
X1960131Y1769301D02*
X1967616D01*
X1960474Y1768947D02*
X1967616D01*
X1960776Y1768593D02*
X1967616D01*
X1961043Y1768238D02*
X1967616D01*
X1961279Y1767884D02*
X1967616D01*
X1961488Y1767530D02*
X1967616D01*
X1961672Y1767175D02*
X1967616D01*
X1961833Y1766821D02*
X1967616D01*
X1961973Y1766467D02*
X1967616D01*
X1962093Y1766112D02*
X1967616D01*
X1962194Y1765758D02*
X1967616D01*
X1962276Y1765404D02*
X1967616D01*
X1962341Y1765049D02*
X1967616D01*
X1962388Y1764695D02*
X1967616D01*
X1962418Y1764341D02*
X1967616D01*
X1962432Y1763986D02*
X1967616D01*
X1962429Y1763632D02*
X1967616D01*
X1962410Y1763278D02*
X1967616D01*
X1962373Y1762923D02*
X1967616D01*
X1962320Y1762569D02*
X1967616D01*
X1962249Y1762215D02*
X1967616D01*
X1962160Y1761860D02*
X1967616D01*
X1962053Y1761506D02*
X1967616D01*
X1961926Y1761152D02*
X1967616D01*
X1961779Y1760797D02*
X1967616D01*
X1961610Y1760443D02*
X1967616D01*
X1961418Y1760089D02*
X1967616D01*
X1961199Y1759734D02*
X1967616D01*
X1960953Y1759380D02*
X1967616D01*
X1960674Y1759026D02*
X1967616D01*
X1960359Y1758671D02*
X1967616D01*
X1959999Y1758317D02*
X1967616D01*
X1959586Y1757963D02*
X1967616D01*
X1959103Y1757608D02*
X1967616D01*
X1958523Y1757254D02*
X1967616D01*
X1957789Y1756900D02*
X1967616D01*
X1956724Y1756545D02*
X1967616D01*
X1920996Y1756191D02*
X1967616D01*
X1920996Y1755837D02*
X1967616D01*
X1920996Y1755482D02*
X1967616D01*
X1920996Y1755128D02*
X1967616D01*
X1920996Y1754774D02*
X1967616D01*
X1920996Y1754419D02*
X1967616D01*
X1920996Y1754065D02*
X1967616D01*
X1920996Y1753711D02*
X1967616D01*
X1920996Y1753356D02*
X1967616D01*
X1921047Y1753002D02*
X1967616D01*
X1922069Y1752648D02*
X1967616D01*
X1922524Y1752293D02*
X1967616D01*
X1922806Y1751939D02*
X1967616D01*
X1922989Y1751585D02*
X1967616D01*
X1923100Y1751230D02*
X1967616D01*
X1923148Y1750876D02*
X1967616D01*
X1923138Y1750522D02*
X1967616D01*
X1923070Y1750167D02*
X1967616D01*
X1922936Y1749813D02*
X1967616D01*
X1922723Y1749459D02*
X1967616D01*
X1922395Y1749104D02*
X1967616D01*
X1921831Y1748750D02*
X1967616D01*
X1920997Y1748396D02*
X1967616D01*
X1920996Y1748041D02*
X1967616D01*
X1920996Y1747687D02*
X1967616D01*
X1920996Y1747333D02*
X1967616D01*
X1920996Y1746978D02*
X1967616D01*
X1920996Y1746624D02*
X1967616D01*
X1920996Y1746270D02*
X1967616D01*
X1920996Y1745915D02*
X1967616D01*
X1920996Y1745561D02*
X1967616D01*
X1920996Y1745207D02*
X1967616D01*
X1920996Y1744852D02*
X1967616D01*
X1920996Y1744498D02*
X1967616D01*
X1920996Y1744144D02*
X1967616D01*
X1920996Y1743789D02*
X1967616D01*
X1920996Y1743435D02*
X1967616D01*
X1920996Y1743081D02*
X1967616D01*
X1920996Y1742726D02*
X1967616D01*
X1920996Y1742372D02*
X1967616D01*
X1920996Y1742018D02*
X1967616D01*
X1920996Y1741663D02*
X1967616D01*
X1920996Y1741309D02*
X1967616D01*
X1920996Y1740955D02*
X1967616D01*
X1920996Y1740600D02*
X1967616D01*
X1920996Y1740246D02*
X1967616D01*
X1920996Y1739892D02*
X1967616D01*
X1920996Y1739537D02*
X1967616D01*
X1920996Y1739183D02*
X1967616D01*
X1920996Y1738829D02*
X1967616D01*
X1920996Y1738474D02*
X1967616D01*
X1920996Y1738120D02*
X1967616D01*
X1920996Y1737766D02*
X1967616D01*
X1920996Y1737411D02*
X1967616D01*
X1920996Y1737057D02*
X1967616D01*
X1920996Y1736703D02*
X1967616D01*
X1920996Y1736348D02*
X1967616D01*
X1920996Y1735994D02*
X1967616D01*
X1920996Y1735640D02*
X1967616D01*
X1920996Y1735285D02*
X1967616D01*
X1920996Y1734931D02*
X1967616D01*
X1920996Y1734577D02*
X1967616D01*
X1920996Y1734223D02*
X1967616D01*
X1920996Y1733868D02*
X1967616D01*
X1920996Y1733514D02*
X1967616D01*
X1920996Y1733160D02*
X1967616D01*
X1920996Y1732805D02*
X1967616D01*
X1920996Y1732451D02*
X1967616D01*
X1920996Y1732097D02*
X1967616D01*
X1920996Y1731742D02*
X1967616D01*
X1920996Y1731388D02*
X1967616D01*
X1963733Y1731034D02*
X1967616D01*
X1966723Y1730679D02*
X1967616D01*
X1966994Y1725010D02*
X1967616D01*
X1966379Y1724656D02*
X1967616D01*
X1920996Y1724301D02*
X1967616D01*
X1920996Y1723947D02*
X1967616D01*
X1920996Y1723593D02*
X1967616D01*
X1920996Y1723238D02*
X1967616D01*
X1920996Y1722884D02*
X1967616D01*
X1920996Y1722530D02*
X1967616D01*
X1920996Y1722175D02*
X1967616D01*
X1920996Y1721821D02*
X1967616D01*
X1920996Y1721467D02*
X1967616D01*
X1920996Y1721112D02*
X1967616D01*
X1920996Y1720758D02*
X1967616D01*
X1920996Y1720404D02*
X1967616D01*
X1920996Y1720049D02*
X1967616D01*
X1920996Y1719695D02*
X1967616D01*
X1920996Y1719341D02*
X1967616D01*
X1920996Y1718986D02*
X1967616D01*
X1920996Y1718632D02*
X1967616D01*
X1920996Y1718278D02*
X1967616D01*
X1920996Y1717923D02*
X1967616D01*
X1920996Y1717569D02*
X1967616D01*
X1948310Y1717215D02*
X1967616D01*
X1948962Y1716860D02*
X1967616D01*
X1949318Y1716506D02*
X1967616D01*
X1949549Y1716152D02*
X1967616D01*
X1949695Y1715797D02*
X1967616D01*
X1949775Y1715443D02*
X1967616D01*
X1949795Y1715089D02*
X1967616D01*
X1949757Y1714734D02*
X1967616D01*
X1949659Y1714380D02*
X1967616D01*
X1949490Y1714026D02*
X1967616D01*
X1949228Y1713671D02*
X1967616D01*
X1948816Y1713317D02*
X1967616D01*
X1947816Y1712963D02*
X1967616D01*
X1946709Y1712608D02*
X1967616D01*
X1946541Y1712254D02*
X1967616D01*
X1946281Y1711900D02*
X1967616D01*
X1945871Y1711545D02*
X1967616D01*
X1944907Y1711191D02*
X1967616D01*
X1920996Y1710837D02*
X1967616D01*
X1920996Y1710482D02*
X1967616D01*
X1920996Y1710128D02*
X1967616D01*
X1920996Y1709774D02*
X1967616D01*
X1920996Y1709419D02*
X1967616D01*
X1920996Y1709065D02*
X1967616D01*
X1920996Y1708711D02*
X1967616D01*
X1920996Y1708356D02*
X1967616D01*
X1920996Y1708002D02*
X1967616D01*
X1920996Y1707648D02*
X1967616D01*
X1920996Y1707293D02*
X1967616D01*
X1920996Y1706939D02*
X1967616D01*
X1920996Y1706585D02*
X1967616D01*
X1920996Y1706230D02*
X1967616D01*
X1920996Y1705876D02*
X1967616D01*
X1920996Y1705522D02*
X1967616D01*
X1920996Y1705167D02*
X1967616D01*
X1920996Y1704813D02*
X1967616D01*
X1920996Y1704459D02*
X1967616D01*
X1966566Y1704104D02*
X1967616D01*
X1967051Y1703750D02*
X1967616D01*
X1967006Y1700561D02*
X1967616D01*
X1966484Y1700207D02*
X1967616D01*
X1920996Y1699852D02*
X1967616D01*
X1920996Y1699498D02*
X1967616D01*
X1920996Y1699144D02*
X1967616D01*
X1920996Y1698789D02*
X1967616D01*
X1920996Y1698435D02*
X1967616D01*
X1920996Y1698081D02*
X1967616D01*
X1920996Y1697726D02*
X1967616D01*
X1924147Y1697372D02*
X1967616D01*
X1925070Y1697018D02*
X1967616D01*
X1925476Y1696663D02*
X1967616D01*
X1925734Y1696309D02*
X1967616D01*
X1925900Y1695955D02*
X1967616D01*
X1925997Y1695600D02*
X1967616D01*
X1926032Y1695246D02*
X1967616D01*
X1926010Y1694892D02*
X1967616D01*
X1925929Y1694537D02*
X1967616D01*
X1925781Y1694183D02*
X1967616D01*
X1925899Y1693829D02*
X1967616D01*
X1926041Y1693474D02*
X1967616D01*
X1926118Y1693120D02*
X1967616D01*
X1926134Y1692766D02*
X1967616D01*
X1926093Y1692411D02*
X1967616D01*
X1925991Y1692057D02*
X1967616D01*
X1966843Y1691703D02*
X1967616D01*
X1966833Y1687451D02*
X1967616D01*
X1772734Y1687097D02*
X1967616D01*
X1772734Y1686742D02*
X1967616D01*
X1772734Y1686388D02*
X1967616D01*
X1772734Y1686034D02*
X1967616D01*
X1772734Y1685679D02*
X1967616D01*
X1772734Y1685325D02*
X1967616D01*
X1772734Y1684971D02*
X1967616D01*
X1772734Y1684616D02*
X1967616D01*
X1772734Y1684262D02*
X1967616D01*
X1772734Y1683908D02*
X1967616D01*
X1772734Y1683553D02*
X1967616D01*
X1772734Y1683199D02*
X1967616D01*
X1772734Y1682845D02*
X1967616D01*
X1772734Y1682490D02*
X1967616D01*
X1772734Y1682136D02*
X1967616D01*
X1804129Y1681782D02*
X1967616D01*
X1909784Y1681427D02*
X1967616D01*
X1910924Y1681073D02*
X1967616D01*
X1911768Y1680719D02*
X1967616D01*
X1912458Y1680364D02*
X1967616D01*
X1913047Y1680010D02*
X1967616D01*
X1913564Y1679656D02*
X1967616D01*
X1914023Y1679301D02*
X1967616D01*
X1914438Y1678947D02*
X1967616D01*
X1914813Y1678593D02*
X1967616D01*
X1915156Y1678238D02*
X1967616D01*
X1915470Y1677884D02*
X1967616D01*
X1915757Y1677530D02*
X1967616D01*
X1916022Y1677175D02*
X1967616D01*
X1916265Y1676821D02*
X1967616D01*
X1916488Y1676467D02*
X1967616D01*
X1916693Y1676112D02*
X1967616D01*
X1916881Y1675758D02*
X1967616D01*
X1917053Y1675404D02*
X1967616D01*
X1917210Y1675049D02*
X1967616D01*
X1917352Y1674695D02*
X1967616D01*
X1945970Y1674341D02*
X1967616D01*
X1948997Y1673986D02*
X1967616D01*
X1949667Y1673632D02*
X1967616D01*
X1950028Y1673278D02*
X1967616D01*
X1950261Y1672923D02*
X1967616D01*
X1950416Y1672569D02*
X1967616D01*
X1951190Y1672215D02*
X1967616D01*
X1951629Y1671860D02*
X1967616D01*
X1951904Y1671506D02*
X1967616D01*
X1952082Y1671152D02*
X1967616D01*
X1952189Y1670797D02*
X1967616D01*
X1952233Y1670443D02*
X1967616D01*
X1952220Y1670089D02*
X1967616D01*
X1952147Y1669734D02*
X1967616D01*
X1952009Y1669380D02*
X1967616D01*
X1951790Y1669026D02*
X1967616D01*
X1951453Y1668671D02*
X1967616D01*
X1950862Y1668317D02*
X1967616D01*
X1917694Y1667963D02*
X1967616D01*
X1917593Y1667608D02*
X1967616D01*
X1917479Y1667254D02*
X1967616D01*
X1917351Y1666900D02*
X1967616D01*
X1917209Y1666545D02*
X1967616D01*
X1917052Y1666191D02*
X1967616D01*
X1916880Y1665837D02*
X1967616D01*
X1916692Y1665482D02*
X1967616D01*
X1916487Y1665128D02*
X1967616D01*
X1916263Y1664774D02*
X1967616D01*
X1916020Y1664419D02*
X1967616D01*
X1915755Y1664065D02*
X1967616D01*
X1915468Y1663711D02*
X1967616D01*
X1915154Y1663356D02*
X1967616D01*
X1914811Y1663002D02*
X1967616D01*
X1914435Y1662648D02*
X1967616D01*
X1914021Y1662293D02*
X1967616D01*
X1913560Y1661939D02*
X1967616D01*
X1913044Y1661585D02*
X1967616D01*
X1912454Y1661230D02*
X1967616D01*
X1911763Y1660876D02*
X1967616D01*
X1910918Y1660522D02*
X1967616D01*
X1909774Y1660167D02*
X1967616D01*
X1864952Y1659813D02*
X1967616D01*
X1865380Y1659459D02*
X1967616D01*
X1865650Y1659104D02*
X1967616D01*
X1865825Y1658750D02*
X1967616D01*
X1952660Y1658396D02*
X1967616D01*
X1955786Y1658041D02*
X1967616D01*
X1956240Y1657687D02*
X1967616D01*
X1956523Y1657333D02*
X1967616D01*
X1956707Y1656978D02*
X1967616D01*
X1956817Y1656624D02*
X1967616D01*
X1956865Y1656270D02*
X1967616D01*
X1956856Y1655915D02*
X1967616D01*
X1956787Y1655561D02*
X1967616D01*
X1956654Y1655207D02*
X1967616D01*
X1956710Y1654852D02*
X1967616D01*
X1956806Y1654498D02*
X1967616D01*
X1956841Y1654144D02*
X1967616D01*
X1956819Y1653789D02*
X1967616D01*
X1956736Y1653435D02*
X1967616D01*
X1956587Y1653081D02*
X1967616D01*
X1956353Y1652726D02*
X1967616D01*
X1955990Y1652372D02*
X1967616D01*
X1955312Y1652018D02*
X1967616D01*
X1944651Y1651663D02*
X1967616D01*
X1945033Y1651309D02*
X1967616D01*
X1945278Y1650955D02*
X1967616D01*
X1945435Y1650600D02*
X1967616D01*
X1945524Y1650246D02*
X1967616D01*
X1945553Y1649892D02*
X1967616D01*
X1945524Y1649537D02*
X1967616D01*
X1945434Y1649183D02*
X1967616D01*
X1945277Y1648829D02*
X1967616D01*
X1945031Y1648474D02*
X1967616D01*
X1944648Y1648120D02*
X1967616D01*
X1943880Y1647766D02*
X1967616D01*
X1926005Y1647411D02*
X1967616D01*
X1926002Y1647057D02*
X1967616D01*
X1925940Y1646703D02*
X1967616D01*
X1925815Y1646348D02*
X1967616D01*
X1925612Y1645994D02*
X1967616D01*
X1925301Y1645640D02*
X1967616D01*
X1924780Y1645285D02*
X1967616D01*
X1858464Y1644931D02*
X1967616D01*
X1858532Y1644577D02*
X1967616D01*
X1858542Y1644223D02*
X1967616D01*
X1882782Y1643868D02*
X1967616D01*
X1883343Y1643514D02*
X1967616D01*
X1883670Y1643160D02*
X1967616D01*
X1883882Y1642805D02*
X1967616D01*
X1884015Y1642451D02*
X1967616D01*
X1884083Y1642097D02*
X1967616D01*
X1884093Y1641742D02*
X1967616D01*
X1884044Y1641388D02*
X1967616D01*
X1883933Y1641034D02*
X1967616D01*
X1883749Y1640679D02*
X1967616D01*
X1883466Y1640325D02*
X1967616D01*
X1883010Y1639971D02*
X1967616D01*
X1879868Y1639616D02*
X1967616D01*
X1875596Y1639262D02*
X1967616D01*
X1856856Y1638908D02*
X1967616D01*
X1831425Y1638553D02*
X1967616D01*
X1831351Y1638199D02*
X1967616D01*
X1831212Y1637845D02*
X1967616D01*
X1830992Y1637490D02*
X1967616D01*
X1830652Y1637136D02*
X1967616D01*
X1830053Y1636782D02*
X1967616D01*
X1829502Y1636427D02*
X1967616D01*
X1899559Y1636073D02*
X1967616D01*
X1909479Y1635719D02*
X1967616D01*
X1909964Y1635364D02*
X1967616D01*
X1910260Y1635010D02*
X1967616D01*
X1910453Y1634656D02*
X1967616D01*
X1910571Y1634301D02*
X1967616D01*
X1910626Y1633947D02*
X1967616D01*
X1910622Y1633593D02*
X1967616D01*
X1910561Y1633238D02*
X1967616D01*
X1910435Y1632884D02*
X1967616D01*
X1910232Y1632530D02*
X1967616D01*
X1909920Y1632175D02*
X1967616D01*
X1909397Y1631821D02*
X1967616D01*
X1882424Y1631467D02*
X1967616D01*
X1882127Y1631112D02*
X1967616D01*
X1881640Y1630758D02*
X1967616D01*
X1873903Y1630404D02*
X1967616D01*
X1873785Y1630049D02*
X1967616D01*
X1873592Y1629695D02*
X1967616D01*
X1873295Y1629341D02*
X1967616D01*
X1872809Y1628986D02*
X1967616D01*
X1866344Y1628632D02*
X1967616D01*
X1866379Y1628278D02*
X1967616D01*
X1866356Y1627923D02*
X1967616D01*
X1866274Y1627569D02*
X1967616D01*
X1954102Y1627215D02*
X1967616D01*
X1954530Y1626860D02*
X1967616D01*
X1954799Y1626506D02*
X1967616D01*
X1954974Y1626152D02*
X1967616D01*
X1955077Y1625797D02*
X1967616D01*
X1955118Y1625443D02*
X1967616D01*
X1955102Y1625089D02*
X1967616D01*
X1955027Y1624734D02*
X1967616D01*
X1954885Y1624380D02*
X1967616D01*
X1954906Y1624026D02*
X1967616D01*
X1955055Y1623671D02*
X1967616D01*
X1955136Y1623317D02*
X1967616D01*
X1955159Y1622963D02*
X1967616D01*
X1955123Y1622608D02*
X1967616D01*
X1955027Y1622254D02*
X1967616D01*
X1954860Y1621900D02*
X1967616D01*
X1954603Y1621545D02*
X1967616D01*
X1954198Y1621191D02*
X1967616D01*
X1953282Y1620837D02*
X1967616D01*
X1862264Y1620482D02*
X1967616D01*
X1802106Y1620128D02*
X1967616D01*
X1802272Y1619774D02*
X1967616D01*
X1802368Y1619419D02*
X1967616D01*
X1802403Y1619065D02*
X1967616D01*
X1802380Y1618711D02*
X1967616D01*
X1850210Y1618356D02*
X1967616D01*
X1850885Y1618002D02*
X1967616D01*
X1851247Y1617648D02*
X1967616D01*
X1851480Y1617293D02*
X1967616D01*
X1851629Y1616939D02*
X1967616D01*
X1851711Y1616585D02*
X1967616D01*
X1851733Y1616230D02*
X1967616D01*
X1851698Y1615876D02*
X1967616D01*
X1851602Y1615522D02*
X1967616D01*
X1851435Y1615167D02*
X1967616D01*
X1904355Y1614813D02*
X1967616D01*
X1904818Y1614459D02*
X1967616D01*
X1905104Y1614104D02*
X1967616D01*
X1919106Y1613750D02*
X1967616D01*
X1947197Y1613396D02*
X1967616D01*
X1948099Y1613041D02*
X1967616D01*
X1948503Y1612687D02*
X1967616D01*
X1948760Y1612333D02*
X1967616D01*
X1948925Y1611978D02*
X1967616D01*
X1949021Y1611624D02*
X1967616D01*
X1949056Y1611270D02*
X1967616D01*
X1949034Y1610915D02*
X1967616D01*
X1948951Y1610561D02*
X1967616D01*
X1948802Y1610207D02*
X1967616D01*
X1948567Y1609852D02*
X1967616D01*
X1948204Y1609498D02*
X1967616D01*
X1947525Y1609144D02*
X1967616D01*
X1934811Y1608789D02*
X1967616D01*
X1935238Y1608435D02*
X1967616D01*
X1935508Y1608081D02*
X1967616D01*
X1935682Y1607726D02*
X1967616D01*
X1935785Y1607372D02*
X1967616D01*
X1935827Y1607018D02*
X1967616D01*
X1935811Y1606663D02*
X1967616D01*
X1935735Y1606309D02*
X1967616D01*
X1935594Y1605955D02*
X1967616D01*
X1935370Y1605600D02*
X1967616D01*
X1935025Y1605246D02*
X1967616D01*
X1934411Y1604892D02*
X1967616D01*
X1897031Y1604537D02*
X1967616D01*
X1897047Y1604183D02*
X1967616D01*
X1934653Y1603829D02*
X1967616D01*
X1935081Y1603474D02*
X1967616D01*
X1935350Y1603120D02*
X1967616D01*
X1935525Y1602766D02*
X1967616D01*
X1935628Y1602411D02*
X1967616D01*
X1935669Y1602057D02*
X1967616D01*
X1935653Y1601703D02*
X1967616D01*
X1935578Y1601348D02*
X1967616D01*
X1935436Y1600994D02*
X1967616D01*
X1935213Y1600640D02*
X1967616D01*
X1934868Y1600285D02*
X1967616D01*
X1934253Y1599931D02*
X1967616D01*
X1873847Y1599577D02*
X1967616D01*
X1873856Y1599223D02*
X1967616D01*
X1873808Y1598868D02*
X1967616D01*
X1876094Y1598514D02*
X1967616D01*
X1876625Y1598160D02*
X1967616D01*
X1876941Y1597805D02*
X1967616D01*
X1877146Y1597451D02*
X1967616D01*
X1877273Y1597097D02*
X1967616D01*
X1877337Y1596742D02*
X1967616D01*
X1877342Y1596388D02*
X1967616D01*
X1877288Y1596034D02*
X1967616D01*
X1877172Y1595679D02*
X1967616D01*
X1876981Y1595325D02*
X1967616D01*
X1876688Y1594971D02*
X1967616D01*
X1876210Y1594616D02*
X1967616D01*
X1850114Y1594262D02*
X1967616D01*
X1850027Y1593908D02*
X1967616D01*
X1934593Y1593553D02*
X1967616D01*
X1935154Y1593199D02*
X1967616D01*
X1935481Y1592845D02*
X1967616D01*
X1935693Y1592490D02*
X1967616D01*
X1935826Y1592136D02*
X1967616D01*
X1935894Y1591782D02*
X1967616D01*
X1935904Y1591427D02*
X1967616D01*
X1935855Y1591073D02*
X1967616D01*
X1935744Y1590719D02*
X1967616D01*
X1935560Y1590364D02*
X1967616D01*
X1956592Y1590010D02*
X1967616D01*
X1957676Y1589656D02*
X1967616D01*
X1958418Y1589301D02*
X1967616D01*
X1959001Y1588947D02*
X1967616D01*
X1959487Y1588593D02*
X1967616D01*
X1959902Y1588238D02*
X1967616D01*
X1960263Y1587884D02*
X1967616D01*
X1960580Y1587530D02*
X1967616D01*
X1960860Y1587175D02*
X1967616D01*
X1961107Y1586821D02*
X1967616D01*
X1961327Y1586467D02*
X1967616D01*
X1961520Y1586112D02*
X1967616D01*
X1961690Y1585758D02*
X1967616D01*
X1961837Y1585404D02*
X1967616D01*
X1961965Y1585049D02*
X1967616D01*
X1962073Y1584695D02*
X1967616D01*
X1962162Y1584341D02*
X1967616D01*
X1962233Y1583986D02*
X1967616D01*
X1962287Y1583632D02*
X1967616D01*
X1962324Y1583278D02*
X1967616D01*
X1962344Y1582923D02*
X1967616D01*
X1962348Y1582569D02*
X1967614D01*
X1920996Y1801191D02*
X1967613D01*
X1967208Y1730325D02*
X1967604D01*
X1962335Y1582215D02*
X1967596D01*
X1920996Y1801545D02*
X1967593D01*
X1962305Y1581860D02*
X1967561D01*
X1920996Y1801900D02*
X1967553D01*
X1962258Y1581506D02*
X1967506D01*
X1920996Y1802254D02*
X1967493D01*
X1967394Y1700915D02*
X1967444D01*
X1962194Y1581152D02*
X1967433D01*
X1921387Y1802608D02*
X1967413D01*
X1962112Y1580797D02*
X1967340D01*
X1921949Y1802963D02*
X1967311D01*
X1962012Y1580443D02*
X1967226D01*
X1922277Y1803317D02*
X1967186D01*
X1961893Y1580089D02*
X1967090D01*
X1922489Y1803671D02*
X1967037D01*
X1961754Y1579734D02*
X1966931D01*
X1922623Y1804026D02*
X1966862D01*
X1961594Y1579380D02*
X1966748D01*
X1922691Y1804380D02*
X1966659D01*
X1961410Y1579026D02*
X1966536D01*
X1922701Y1804734D02*
X1966424D01*
X1961202Y1578671D02*
X1966295D01*
X1922652Y1805089D02*
X1966152D01*
X1960967Y1578317D02*
X1966019D01*
X1922542Y1805443D02*
X1965838D01*
X1772734Y1687451D02*
X1965800D01*
X1925818Y1691703D02*
X1965790D01*
X1960701Y1577963D02*
X1965702D01*
X1922358Y1805797D02*
X1965472D01*
X1960400Y1577608D02*
X1965337D01*
X1922075Y1806152D02*
X1965039D01*
X1772734Y1687805D02*
X1965033D01*
X1925794Y1691348D02*
X1965029D01*
X1960059Y1577254D02*
X1964910D01*
X1964021Y1724656D02*
X1964836D01*
X1772734Y1688160D02*
X1964649D01*
X1925925Y1690994D02*
X1964647D01*
X1920996Y1700207D02*
X1964574D01*
X1921619Y1806506D02*
X1964513D01*
X1920996Y1704104D02*
X1964492D01*
X1924904Y1688514D02*
X1964404D01*
X1925992Y1690640D02*
X1964402D01*
X1959668Y1576900D02*
X1964400D01*
X1925366Y1688868D02*
X1964246D01*
X1926000Y1690285D02*
X1964245D01*
X1925652Y1689223D02*
X1964157D01*
X1925950Y1689931D02*
X1964156D01*
X1925838Y1689577D02*
X1964127D01*
X1920996Y1700561D02*
X1964052D01*
X1920996Y1703750D02*
X1964007D01*
X1921001Y1806860D02*
X1963840D01*
X1959214Y1576545D02*
X1963767D01*
X1920996Y1700915D02*
X1963740D01*
X1920996Y1703396D02*
X1963711D01*
X1920996Y1701270D02*
X1963537D01*
X1920996Y1703041D02*
X1963518D01*
X1920996Y1701624D02*
X1963411D01*
X1920996Y1702687D02*
X1963400D01*
X1920996Y1701978D02*
X1963349D01*
X1920996Y1702333D02*
X1963346D01*
X1920996Y1731034D02*
X1963074D01*
X1958679Y1576191D02*
X1962903D01*
X1920996Y1807215D02*
X1962848D01*
X1920996Y1724656D02*
X1962706D01*
X1920996Y1730679D02*
X1962172D01*
X1920996Y1725010D02*
X1962027D01*
X1920996Y1730325D02*
X1961768D01*
X1920996Y1725364D02*
X1961664D01*
X1920996Y1729971D02*
X1961511D01*
X1920996Y1727845D02*
X1961445D01*
X1920996Y1725719D02*
X1961429D01*
X1920996Y1729616D02*
X1961345D01*
X1920996Y1728199D02*
X1961319D01*
X1920996Y1727490D02*
X1961306D01*
X1920996Y1726073D02*
X1961280D01*
X1920996Y1729262D02*
X1961250D01*
X1920996Y1728553D02*
X1961237D01*
X1920996Y1728908D02*
X1961214D01*
X1920996Y1727136D02*
X1961210D01*
X1920996Y1726427D02*
X1961198D01*
X1920996Y1726782D02*
X1961175D01*
X1953416Y1652018D02*
X1953993D01*
X1920996Y1756545D02*
X1953032D01*
X1935277Y1590010D02*
X1952994D01*
X1862828Y1620837D02*
X1952658D01*
X1920996Y1771073D02*
X1952593D01*
X1865928Y1658396D02*
X1952506D01*
X1920996Y1756900D02*
X1951967D01*
X1934821Y1589656D02*
X1951911D01*
X1866125Y1627215D02*
X1951759D01*
X1951322Y1652018D02*
X1951752D01*
X1863156Y1621191D02*
X1951742D01*
X1920996Y1770719D02*
X1951685D01*
X1863369Y1621545D02*
X1951337D01*
X1865890Y1626860D02*
X1951331D01*
X1920996Y1757254D02*
X1951232D01*
X1915219Y1589301D02*
X1951169D01*
X1863503Y1621900D02*
X1951080D01*
X1865527Y1626506D02*
X1951062D01*
X1862960Y1624026D02*
X1951034D01*
X1920996Y1770364D02*
X1951015D01*
X1863104Y1624380D02*
X1950976D01*
X1863571Y1622254D02*
X1950913D01*
X1789496Y1576191D02*
X1950908D01*
X1864848Y1626152D02*
X1950888D01*
X1863239Y1623671D02*
X1950885D01*
X1863432Y1624734D02*
X1950835D01*
X1863581Y1622608D02*
X1950817D01*
X1863423Y1623317D02*
X1950804D01*
X1863847Y1625797D02*
X1950785D01*
X1863533Y1622963D02*
X1950781D01*
X1863645Y1625089D02*
X1950759D01*
X1863778Y1625443D02*
X1950743D01*
X1920996Y1757608D02*
X1950653D01*
X1914620Y1588947D02*
X1950585D01*
X1920996Y1770010D02*
X1950473D01*
X1790036Y1576545D02*
X1950373D01*
X1920996Y1757963D02*
X1950170D01*
X1790359Y1588593D02*
X1950100D01*
X1920996Y1769656D02*
X1950017D01*
X1790494Y1576900D02*
X1949919D01*
X1920996Y1758317D02*
X1949757D01*
X1943890Y1652018D02*
X1949716D01*
X1790771Y1588238D02*
X1949685D01*
X1920996Y1769301D02*
X1949624D01*
X1790888Y1577254D02*
X1949528D01*
X1920996Y1758671D02*
X1949397D01*
X1865970Y1658041D02*
X1949338D01*
X1791130Y1587884D02*
X1949324D01*
X1920996Y1768947D02*
X1949281D01*
X1948355Y1668317D02*
X1949230D01*
X1791232Y1577608D02*
X1949186D01*
X1910642Y1652372D02*
X1949118D01*
X1920996Y1759026D02*
X1949081D01*
X1905143Y1587530D02*
X1949007D01*
X1920996Y1768593D02*
X1948979D01*
X1873106Y1577963D02*
X1948886D01*
X1865954Y1657687D02*
X1948884D01*
X1920996Y1759380D02*
X1948803D01*
X1910783Y1652726D02*
X1948778D01*
X1905605Y1587175D02*
X1948727D01*
X1920996Y1768238D02*
X1948713D01*
X1873391Y1578317D02*
X1948620D01*
X1865879Y1657333D02*
X1948601D01*
X1910859Y1653081D02*
X1948558D01*
X1920996Y1759734D02*
X1948556D01*
X1910291Y1654852D02*
X1948480D01*
X1905892Y1586821D02*
X1948479D01*
X1920996Y1767884D02*
X1948476D01*
X1909866Y1655207D02*
X1948471D01*
X1910876Y1653435D02*
X1948419D01*
X1868102Y1656978D02*
X1948417D01*
X1873513Y1578671D02*
X1948385D01*
X1910559Y1654498D02*
X1948375D01*
X1910835Y1653789D02*
X1948346D01*
X1920996Y1760089D02*
X1948338D01*
X1906783Y1655561D02*
X1948337D01*
X1910733Y1654144D02*
X1948332D01*
X1868597Y1656624D02*
X1948307D01*
X1869093Y1655915D02*
X1948269D01*
X1920996Y1767530D02*
X1948267D01*
X1906078Y1586467D02*
X1948260D01*
X1868897Y1656270D02*
X1948259D01*
X1873532Y1579026D02*
X1948177D01*
X1920996Y1760443D02*
X1948145D01*
X1920996Y1767175D02*
X1948083D01*
X1906190Y1586112D02*
X1948067D01*
X1873532Y1579380D02*
X1947993D01*
X1920996Y1760797D02*
X1947976D01*
X1920996Y1766821D02*
X1947922D01*
X1906240Y1585758D02*
X1947897D01*
X1873532Y1579734D02*
X1947833D01*
X1920996Y1761152D02*
X1947829D01*
X1920996Y1766467D02*
X1947782D01*
X1906232Y1585404D02*
X1947749D01*
X1920996Y1761506D02*
X1947703D01*
X1873532Y1580089D02*
X1947694D01*
X1920996Y1766112D02*
X1947663D01*
X1946486Y1673986D02*
X1947652D01*
X1906166Y1585049D02*
X1947622D01*
X1920996Y1761860D02*
X1947595D01*
X1873532Y1580443D02*
X1947575D01*
X1920996Y1765758D02*
X1947562D01*
X1906034Y1584695D02*
X1947514D01*
X1920996Y1762215D02*
X1947507D01*
X1920996Y1765404D02*
X1947480D01*
X1873532Y1580797D02*
X1947475D01*
X1920996Y1762569D02*
X1947436D01*
X1905824Y1584341D02*
X1947425D01*
X1920996Y1765049D02*
X1947415D01*
X1946829Y1712963D02*
X1947397D01*
X1873532Y1581152D02*
X1947393D01*
X1920996Y1762923D02*
X1947382D01*
X1920996Y1764695D02*
X1947368D01*
X1905501Y1583986D02*
X1947353D01*
X1920996Y1763278D02*
X1947346D01*
X1920996Y1764341D02*
X1947337D01*
X1873532Y1581506D02*
X1947329D01*
X1920996Y1763632D02*
X1947326D01*
X1920996Y1763986D02*
X1947324D01*
X1904949Y1583632D02*
X1947300D01*
X1873532Y1581860D02*
X1947282D01*
X1884734Y1583278D02*
X1947263D01*
X1873532Y1582215D02*
X1947252D01*
X1873532Y1582923D02*
X1947242D01*
X1873532Y1582569D02*
X1947239D01*
X1946841Y1673632D02*
X1946964D01*
X1946402Y1717215D02*
X1946904D01*
X1919541Y1613396D02*
X1946538D01*
X1875087Y1609144D02*
X1946210D01*
X1919814Y1613041D02*
X1945636D01*
X1884671Y1609498D02*
X1945531D01*
X1919991Y1612687D02*
X1945233D01*
X1918753Y1609852D02*
X1945168D01*
X1920096Y1612333D02*
X1944976D01*
X1919352Y1610207D02*
X1944933D01*
X1920140Y1611978D02*
X1944810D01*
X1919692Y1610561D02*
X1944784D01*
X1920126Y1611624D02*
X1944714D01*
X1919913Y1610915D02*
X1944702D01*
X1920052Y1611270D02*
X1944679D01*
X1943983Y1717215D02*
X1944613D01*
X1943325Y1711191D02*
X1944404D01*
X1943192Y1674341D02*
X1944032D01*
X1943562Y1668317D02*
X1943894D01*
X1920996Y1717215D02*
X1942892D01*
X1925950Y1647766D02*
X1942848D01*
X1910724Y1652018D02*
X1942837D01*
X1920996Y1716860D02*
X1942143D01*
X1925832Y1648120D02*
X1942080D01*
X1910810Y1651663D02*
X1942076D01*
X1920996Y1711191D02*
X1941943D01*
X1917479Y1674341D02*
X1941855D01*
X1920996Y1716506D02*
X1941764D01*
X1925639Y1648474D02*
X1941697D01*
X1910835Y1651309D02*
X1941694D01*
X1920996Y1716152D02*
X1941520D01*
X1925342Y1648829D02*
X1941451D01*
X1910803Y1650955D02*
X1941449D01*
X1920996Y1715797D02*
X1941364D01*
X1924856Y1649183D02*
X1941293D01*
X1910710Y1650600D02*
X1941292D01*
X1920996Y1711545D02*
X1941283D01*
X1917783Y1668317D02*
X1941279D01*
X1920996Y1715443D02*
X1941276D01*
X1920996Y1715089D02*
X1941248D01*
X1910838Y1649537D02*
X1941204D01*
X1910621Y1650246D02*
X1941203D01*
X1917594Y1673986D02*
X1941183D01*
X1910762Y1649892D02*
X1941175D01*
X1920996Y1714734D02*
X1941008D01*
X1920996Y1711900D02*
X1940925D01*
X1917859Y1668671D02*
X1940839D01*
X1917695Y1673632D02*
X1940821D01*
X1920996Y1714380D02*
X1940748D01*
X1920996Y1712254D02*
X1940694D01*
X1917784Y1673278D02*
X1940588D01*
X1920996Y1714026D02*
X1940580D01*
X1917923Y1669026D02*
X1940563D01*
X1920996Y1712608D02*
X1940546D01*
X1920996Y1713671D02*
X1940482D01*
X1918045Y1671506D02*
X1940467D01*
X1920996Y1712963D02*
X1940466D01*
X1918062Y1671152D02*
X1940457D01*
X1920996Y1713317D02*
X1940445D01*
X1917860Y1672923D02*
X1940439D01*
X1917975Y1669380D02*
X1940385D01*
X1918016Y1671860D02*
X1940371D01*
X1917924Y1672569D02*
X1940357D01*
X1917976Y1672215D02*
X1940335D01*
X1918068Y1670797D02*
X1940319D01*
X1918016Y1669734D02*
X1940278D01*
X1918062Y1670443D02*
X1940247D01*
X1918045Y1670089D02*
X1940234D01*
X1920996Y1783120D02*
X1938603D01*
X1920996Y1787372D02*
X1938249D01*
X1920996Y1783474D02*
X1937687D01*
X1920996Y1787018D02*
X1937575D01*
X1920996Y1783829D02*
X1937282D01*
X1920996Y1786663D02*
X1937213D01*
X1920996Y1784183D02*
X1937024D01*
X1920996Y1786309D02*
X1936979D01*
X1920996Y1784537D02*
X1936858D01*
X1920996Y1785955D02*
X1936830D01*
X1920996Y1784892D02*
X1936762D01*
X1920996Y1785600D02*
X1936748D01*
X1920996Y1785246D02*
X1936726D01*
X1896957Y1604892D02*
X1932868D01*
X1849872Y1593553D02*
X1932843D01*
X1873779Y1599931D02*
X1932710D01*
X1915559Y1589656D02*
X1932615D01*
X1895599Y1608789D02*
X1932468D01*
X1897005Y1603829D02*
X1932310D01*
X1849629Y1593199D02*
X1932282D01*
X1896816Y1605246D02*
X1932253D01*
X1915779Y1590010D02*
X1932159D01*
X1873646Y1600285D02*
X1932096D01*
X1896210Y1608435D02*
X1932040D01*
X1914973Y1592845D02*
X1931955D01*
X1896692Y1605600D02*
X1931908D01*
X1896902Y1603474D02*
X1931883D01*
X1915918Y1590364D02*
X1931876D01*
X1896553Y1608081D02*
X1931771D01*
X1873433Y1600640D02*
X1931751D01*
X1915408Y1592490D02*
X1931743D01*
X1915992Y1590719D02*
X1931692D01*
X1896862Y1605955D02*
X1931685D01*
X1896727Y1603120D02*
X1931613D01*
X1915680Y1592136D02*
X1931610D01*
X1896776Y1607726D02*
X1931596D01*
X1916006Y1591073D02*
X1931581D01*
X1896966Y1606309D02*
X1931543D01*
X1915858Y1591782D02*
X1931542D01*
X1915963Y1591427D02*
X1931532D01*
X1873107Y1600994D02*
X1931527D01*
X1896917Y1607372D02*
X1931493D01*
X1897008Y1606663D02*
X1931468D01*
X1896992Y1607018D02*
X1931452D01*
X1896456Y1602766D02*
X1931439D01*
X1872546Y1601348D02*
X1931386D01*
X1896027Y1602411D02*
X1931336D01*
X1849291Y1601703D02*
X1931310D01*
X1849561Y1602057D02*
X1931294D01*
X1921065Y1697372D02*
X1923541D01*
X1858331Y1645285D02*
X1922864D01*
X1910855Y1649183D02*
X1922788D01*
X1922592Y1688514D02*
X1922719D01*
X1858118Y1645640D02*
X1922343D01*
X1910814Y1648829D02*
X1922302D01*
X1857792Y1645994D02*
X1922032D01*
X1910712Y1648474D02*
X1922005D01*
X1857231Y1646348D02*
X1921829D01*
X1910538Y1648120D02*
X1921812D01*
X1781129Y1646703D02*
X1921703D01*
X1910270Y1647766D02*
X1921694D01*
X1781652Y1647057D02*
X1921642D01*
X1909845Y1647411D02*
X1921639D01*
X1772734Y1688514D02*
X1920572D01*
X1772734Y1688868D02*
X1920074D01*
X1772734Y1689223D02*
X1919772D01*
X1772734Y1689577D02*
X1919575D01*
X1772734Y1689931D02*
X1919454D01*
X1772734Y1690285D02*
X1919397D01*
X1772734Y1690640D02*
X1919393D01*
X1885158Y1609852D02*
X1917152D01*
X1905291Y1613750D02*
X1916799D01*
X1885456Y1610207D02*
X1916553D01*
X1905403Y1613396D02*
X1916364D01*
X1885649Y1610561D02*
X1916213D01*
X1905453Y1613041D02*
X1916091D01*
X1904162Y1610915D02*
X1915993D01*
X1905445Y1612687D02*
X1915914D01*
X1904713Y1611270D02*
X1915853D01*
X1905378Y1612333D02*
X1915809D01*
X1905037Y1611624D02*
X1915780D01*
X1905247Y1611978D02*
X1915766D01*
X1789878Y1588947D02*
X1913018D01*
X1849252Y1592845D02*
X1912665D01*
X1789301Y1589301D02*
X1912419D01*
X1848513Y1592490D02*
X1912230D01*
X1788570Y1589656D02*
X1912079D01*
X1772734Y1592136D02*
X1911957D01*
X1787517Y1590010D02*
X1911859D01*
X1772734Y1591782D02*
X1911780D01*
X1772734Y1590364D02*
X1911720D01*
X1772734Y1591427D02*
X1911675D01*
X1772734Y1590719D02*
X1911646D01*
X1772734Y1591073D02*
X1911632D01*
X1907274Y1647411D02*
X1907489D01*
X1907114Y1631821D02*
X1907488D01*
X1907196Y1635719D02*
X1907406D01*
X1869213Y1655561D02*
X1905672D01*
X1781964Y1647411D02*
X1905284D01*
X1902272Y1631821D02*
X1905204D01*
X1902466Y1635719D02*
X1905122D01*
X1869269Y1655207D02*
X1904930D01*
X1782167Y1647766D02*
X1904780D01*
X1902824Y1632175D02*
X1904682D01*
X1902928Y1635364D02*
X1904637D01*
X1869268Y1654852D02*
X1904552D01*
X1782293Y1648120D02*
X1904476D01*
X1804998Y1660167D02*
X1904440D01*
X1805852Y1681427D02*
X1904431D01*
X1903147Y1632530D02*
X1904370D01*
X1903215Y1635010D02*
X1904341D01*
X1869208Y1654498D02*
X1904309D01*
X1772734Y1652372D02*
X1904287D01*
X1782355Y1648474D02*
X1904278D01*
X1781696Y1650246D02*
X1904277D01*
X1781212Y1650600D02*
X1904251D01*
X1772734Y1652018D02*
X1904169D01*
X1903357Y1632884D02*
X1904167D01*
X1772734Y1652726D02*
X1904160D01*
X1782358Y1648829D02*
X1904156D01*
X1781993Y1649892D02*
X1904156D01*
X1869084Y1654144D02*
X1904154D01*
X1903401Y1634656D02*
X1904148D01*
X1772734Y1650955D02*
X1904140D01*
X1772734Y1651663D02*
X1904101D01*
X1782303Y1649183D02*
X1904097D01*
X1782186Y1649537D02*
X1904097D01*
X1772734Y1651309D02*
X1904091D01*
X1868064Y1653081D02*
X1904069D01*
X1868884Y1653789D02*
X1904066D01*
X1903489Y1633238D02*
X1904041D01*
X1868576Y1653435D02*
X1904039D01*
X1903513Y1634301D02*
X1904030D01*
X1903555Y1633593D02*
X1903979D01*
X1903563Y1633947D02*
X1903976D01*
X1806305Y1660522D02*
X1903296D01*
X1806877Y1681073D02*
X1903290D01*
X1895053Y1583632D02*
X1903161D01*
X1895406Y1587530D02*
X1902967D01*
X1895652Y1583986D02*
X1902609D01*
X1895841Y1587175D02*
X1902505D01*
X1807215Y1660876D02*
X1902451D01*
X1807667Y1680719D02*
X1902446D01*
X1885767Y1610915D02*
X1902373D01*
X1895992Y1584341D02*
X1902286D01*
X1896114Y1586821D02*
X1902218D01*
X1851178Y1614813D02*
X1902180D01*
X1896212Y1584695D02*
X1902076D01*
X1896291Y1586467D02*
X1902032D01*
X1896351Y1585049D02*
X1901945D01*
X1896396Y1586112D02*
X1901920D01*
X1896425Y1585404D02*
X1901878D01*
X1896439Y1585758D02*
X1901870D01*
X1885822Y1611270D02*
X1901822D01*
X1807944Y1661230D02*
X1901760D01*
X1808323Y1680364D02*
X1901756D01*
X1850772Y1614459D02*
X1901717D01*
X1885820Y1611624D02*
X1901499D01*
X1849857Y1614104D02*
X1901431D01*
X1885758Y1611978D02*
X1901288D01*
X1787040Y1613750D02*
X1901245D01*
X1808560Y1661585D02*
X1901171D01*
X1808889Y1680010D02*
X1901167D01*
X1885633Y1612333D02*
X1901157D01*
X1884599Y1613396D02*
X1901133D01*
X1885430Y1612687D02*
X1901090D01*
X1885119Y1613041D02*
X1901082D01*
X1830005Y1661939D02*
X1900654D01*
X1809387Y1679656D02*
X1900651D01*
X1882618Y1631821D02*
X1900484D01*
X1900096Y1635719D02*
X1900290D01*
X1830684Y1662293D02*
X1900193D01*
X1809832Y1679301D02*
X1900191D01*
X1899675Y1632175D02*
X1899932D01*
X1831048Y1662648D02*
X1899779D01*
X1810235Y1678947D02*
X1899777D01*
X1831282Y1663002D02*
X1899403D01*
X1810600Y1678593D02*
X1899401D01*
X1831432Y1663356D02*
X1899060D01*
X1810934Y1678238D02*
X1899058D01*
X1831514Y1663711D02*
X1898747D01*
X1811239Y1677884D02*
X1898745D01*
X1831537Y1664065D02*
X1898459D01*
X1856037Y1677530D02*
X1898457D01*
X1831501Y1664419D02*
X1898194D01*
X1856711Y1677175D02*
X1898192D01*
X1831406Y1664774D02*
X1897951D01*
X1857073Y1676821D02*
X1897949D01*
X1864186Y1665128D02*
X1897727D01*
X1857307Y1676467D02*
X1897726D01*
X1829393Y1636073D02*
X1897685D01*
X1882736Y1632175D02*
X1897569D01*
X1864786Y1665482D02*
X1897522D01*
X1857456Y1676112D02*
X1897521D01*
X1865125Y1665837D02*
X1897334D01*
X1857538Y1675758D02*
X1897333D01*
X1865346Y1666191D02*
X1897162D01*
X1857560Y1675404D02*
X1897161D01*
X1829212Y1635719D02*
X1897154D01*
X1882791Y1632530D02*
X1897091D01*
X1865485Y1666545D02*
X1897005D01*
X1857525Y1675049D02*
X1897004D01*
X1865559Y1666900D02*
X1896863D01*
X1857428Y1674695D02*
X1896862D01*
X1828932Y1635364D02*
X1896839D01*
X1882788Y1632884D02*
X1896798D01*
X1865573Y1667254D02*
X1896735D01*
X1882546Y1674341D02*
X1896735D01*
X1876921Y1635010D02*
X1896634D01*
X1865530Y1667608D02*
X1896621D01*
X1883107Y1673986D02*
X1896620D01*
X1882727Y1633238D02*
X1896607D01*
X1865424Y1667963D02*
X1896520D01*
X1883433Y1673632D02*
X1896519D01*
X1881568Y1634656D02*
X1896506D01*
X1882601Y1633593D02*
X1896491D01*
X1882088Y1634301D02*
X1896443D01*
X1882399Y1633947D02*
X1896438D01*
X1865247Y1668317D02*
X1896431D01*
X1883646Y1673278D02*
X1896431D01*
X1864974Y1668671D02*
X1896355D01*
X1883779Y1672923D02*
X1896354D01*
X1864540Y1669026D02*
X1896291D01*
X1883847Y1672569D02*
X1896290D01*
X1813643Y1669380D02*
X1896239D01*
X1883856Y1672215D02*
X1896238D01*
X1813687Y1669734D02*
X1896198D01*
X1883808Y1671860D02*
X1896198D01*
X1813720Y1670089D02*
X1896169D01*
X1883697Y1671506D02*
X1896169D01*
X1882773Y1670443D02*
X1896152D01*
X1883513Y1671152D02*
X1896152D01*
X1883230Y1670797D02*
X1896146D01*
X1875299Y1608789D02*
X1894042D01*
X1849736Y1602411D02*
X1893692D01*
X1885472Y1583632D02*
X1893451D01*
X1875432Y1608435D02*
X1893431D01*
X1849840Y1602766D02*
X1893263D01*
X1884652Y1587530D02*
X1893098D01*
X1875501Y1608081D02*
X1893087D01*
X1849882Y1603120D02*
X1892993D01*
X1835774Y1605600D02*
X1892953D01*
X1848473Y1605246D02*
X1892904D01*
X1875510Y1607726D02*
X1892864D01*
X1885850Y1583986D02*
X1892852D01*
X1849866Y1603474D02*
X1892818D01*
X1874427Y1605955D02*
X1892778D01*
X1849084Y1604892D02*
X1892763D01*
X1875461Y1607372D02*
X1892724D01*
X1849791Y1603829D02*
X1892714D01*
X1849427Y1604537D02*
X1892688D01*
X1874883Y1606309D02*
X1892675D01*
X1849650Y1604183D02*
X1892672D01*
X1885445Y1587175D02*
X1892663D01*
X1875351Y1607018D02*
X1892649D01*
X1875166Y1606663D02*
X1892633D01*
X1886092Y1584341D02*
X1892512D01*
X1885833Y1586821D02*
X1892390D01*
X1886248Y1584695D02*
X1892292D01*
X1886081Y1586467D02*
X1892213D01*
X1886335Y1585049D02*
X1892153D01*
X1886241Y1586112D02*
X1892108D01*
X1886362Y1585404D02*
X1892079D01*
X1886332Y1585758D02*
X1892065D01*
X1791444Y1587530D02*
X1883694D01*
X1873532Y1583278D02*
X1883613D01*
X1791722Y1587175D02*
X1882901D01*
X1873532Y1583632D02*
X1882874D01*
X1807423Y1613396D02*
X1882679D01*
X1874760Y1609498D02*
X1882607D01*
X1791968Y1586821D02*
X1882513D01*
X1873532Y1583986D02*
X1882497D01*
X1792186Y1586467D02*
X1882265D01*
X1873532Y1584341D02*
X1882254D01*
X1807878Y1613041D02*
X1882159D01*
X1874199Y1609852D02*
X1882120D01*
X1792378Y1586112D02*
X1882106D01*
X1873532Y1584695D02*
X1882099D01*
X1873040Y1585758D02*
X1882015D01*
X1873503Y1585049D02*
X1882011D01*
X1873362Y1585404D02*
X1881984D01*
X1808160Y1612687D02*
X1881848D01*
X1808077Y1610207D02*
X1881823D01*
X1808344Y1612333D02*
X1881646D01*
X1808290Y1610561D02*
X1881629D01*
X1808454Y1611978D02*
X1881520D01*
X1808424Y1610915D02*
X1881511D01*
X1808502Y1611624D02*
X1881459D01*
X1808493Y1611270D02*
X1881456D01*
X1858493Y1643868D02*
X1881032D01*
X1880355Y1639971D02*
X1880804D01*
X1857262Y1674341D02*
X1880796D01*
X1813740Y1670443D02*
X1880568D01*
X1879796Y1643514D02*
X1880471D01*
X1857004Y1673986D02*
X1880235D01*
X1813749Y1670797D02*
X1880112D01*
X1856599Y1673632D02*
X1879908D01*
X1813747Y1671152D02*
X1879829D01*
X1855684Y1673278D02*
X1879696D01*
X1877824Y1634656D02*
X1879648D01*
X1813733Y1671506D02*
X1879644D01*
X1877250Y1630758D02*
X1879576D01*
X1813562Y1672923D02*
X1879563D01*
X1813708Y1671860D02*
X1879534D01*
X1813623Y1672569D02*
X1879494D01*
X1813671Y1672215D02*
X1879485D01*
X1878227Y1634301D02*
X1879128D01*
X1877929Y1631112D02*
X1879089D01*
X1878484Y1633947D02*
X1878817D01*
X1878292Y1631467D02*
X1878791D01*
X1875268Y1643514D02*
X1877876D01*
X1876275Y1639616D02*
X1877804D01*
X1876170Y1643160D02*
X1877356D01*
X1876638Y1639971D02*
X1877317D01*
X1876574Y1642805D02*
X1877045D01*
X1828484Y1635010D02*
X1876263D01*
X1873958Y1630758D02*
X1875934D01*
X1818018Y1634656D02*
X1875361D01*
X1873955Y1631112D02*
X1875255D01*
X1817403Y1634301D02*
X1874957D01*
X1873893Y1631467D02*
X1874892D01*
X1812574Y1633947D02*
X1874700D01*
X1873768Y1631821D02*
X1874658D01*
X1858382Y1643514D02*
X1874609D01*
X1812686Y1633593D02*
X1874534D01*
X1873565Y1632175D02*
X1874508D01*
X1832960Y1633238D02*
X1874438D01*
X1873253Y1632530D02*
X1874426D01*
X1872732Y1632884D02*
X1874403D01*
X1857535Y1639262D02*
X1874281D01*
X1873748Y1598514D02*
X1874221D01*
X1850142Y1594616D02*
X1874105D01*
X1858198Y1643160D02*
X1873707D01*
X1850111Y1594971D02*
X1873627D01*
X1857898Y1639616D02*
X1873602D01*
X1850027Y1595325D02*
X1873334D01*
X1857915Y1642805D02*
X1873303D01*
X1858133Y1639971D02*
X1873239D01*
X1850343Y1595679D02*
X1873143D01*
X1857833Y1642451D02*
X1873047D01*
X1851075Y1597097D02*
X1873042D01*
X1850667Y1596034D02*
X1873027D01*
X1872773Y1597451D02*
X1873015D01*
X1858282Y1640325D02*
X1873004D01*
X1851008Y1596742D02*
X1872978D01*
X1850877Y1596388D02*
X1872973D01*
X1858090Y1642097D02*
X1872881D01*
X1858364Y1640679D02*
X1872855D01*
X1858256Y1641742D02*
X1872785D01*
X1858387Y1641034D02*
X1872772D01*
X1858352Y1641388D02*
X1872750D01*
X1807763Y1609852D02*
X1872449D01*
X1818015Y1605955D02*
X1872222D01*
X1807958Y1609498D02*
X1871888D01*
X1818032Y1606309D02*
X1871765D01*
X1808340Y1609144D02*
X1871562D01*
X1817990Y1606663D02*
X1871482D01*
X1808585Y1608789D02*
X1871349D01*
X1817887Y1607018D02*
X1871298D01*
X1811804Y1608435D02*
X1871216D01*
X1817712Y1607372D02*
X1871187D01*
X1817016Y1608081D02*
X1871148D01*
X1817443Y1607726D02*
X1871139D01*
X1833388Y1632884D02*
X1870817D01*
X1848862Y1601348D02*
X1870796D01*
X1866248Y1628986D02*
X1870740D01*
X1851083Y1597451D02*
X1870568D01*
X1833657Y1632530D02*
X1870296D01*
X1866082Y1629341D02*
X1870254D01*
X1822196Y1600994D02*
X1870235D01*
X1851033Y1597805D02*
X1870112D01*
X1833832Y1632175D02*
X1869985D01*
X1865826Y1629695D02*
X1869957D01*
X1821813Y1600640D02*
X1869908D01*
X1850920Y1598160D02*
X1869829D01*
X1833935Y1631821D02*
X1869782D01*
X1865422Y1630049D02*
X1869764D01*
X1821045Y1600285D02*
X1869696D01*
X1833976Y1631467D02*
X1869656D01*
X1864520Y1630404D02*
X1869646D01*
X1850734Y1598514D02*
X1869644D01*
X1833960Y1631112D02*
X1869595D01*
X1833885Y1630758D02*
X1869591D01*
X1772734Y1599931D02*
X1869563D01*
X1850448Y1598868D02*
X1869534D01*
X1772734Y1599577D02*
X1869494D01*
X1849985Y1599223D02*
X1869485D01*
X1772734Y1653081D02*
X1866109D01*
X1860749Y1585758D02*
X1865708D01*
X1860890Y1577963D02*
X1865642D01*
X1772734Y1653435D02*
X1865597D01*
X1861506Y1585404D02*
X1865387D01*
X1861591Y1578317D02*
X1865357D01*
X1772734Y1653789D02*
X1865290D01*
X1862010Y1585049D02*
X1865246D01*
X1862073Y1578671D02*
X1865235D01*
X1862391Y1584695D02*
X1865217D01*
X1862691Y1584341D02*
X1865217D01*
X1862932Y1583986D02*
X1865217D01*
X1863123Y1583632D02*
X1865217D01*
X1863273Y1583278D02*
X1865217D01*
X1863387Y1582923D02*
X1865217D01*
X1863466Y1582569D02*
X1865217D01*
X1863514Y1582215D02*
X1865217D01*
X1863532Y1581860D02*
X1865217D01*
X1863519Y1581506D02*
X1865217D01*
X1863475Y1581152D02*
X1865217D01*
X1863400Y1580797D02*
X1865217D01*
X1863292Y1580443D02*
X1865217D01*
X1863148Y1580089D02*
X1865217D01*
X1862963Y1579734D02*
X1865217D01*
X1862730Y1579380D02*
X1865217D01*
X1862440Y1579026D02*
X1865217D01*
X1772734Y1654144D02*
X1865089D01*
X1864558Y1655915D02*
X1865004D01*
X1772734Y1654498D02*
X1864966D01*
X1772734Y1655561D02*
X1864961D01*
X1772734Y1654852D02*
X1864906D01*
X1772734Y1655207D02*
X1864904D01*
X1833743Y1630404D02*
X1863861D01*
X1772734Y1655915D02*
X1863007D01*
X1833520Y1630049D02*
X1862959D01*
X1772734Y1659813D02*
X1862613D01*
X1831240Y1665128D02*
X1862585D01*
X1833175Y1629695D02*
X1862555D01*
X1772734Y1656270D02*
X1862395D01*
X1832560Y1629341D02*
X1862299D01*
X1829677Y1669026D02*
X1862232D01*
X1772734Y1659459D02*
X1862185D01*
X1772734Y1628986D02*
X1862133D01*
X1772734Y1656624D02*
X1862050D01*
X1772734Y1628632D02*
X1862037D01*
X1831074Y1665482D02*
X1861986D01*
X1772734Y1628278D02*
X1861951D01*
X1772734Y1659104D02*
X1861915D01*
X1772734Y1656978D02*
X1861827D01*
X1830579Y1668671D02*
X1861797D01*
X1772734Y1658750D02*
X1861740D01*
X1772734Y1657333D02*
X1861686D01*
X1831282Y1665837D02*
X1861646D01*
X1772734Y1658396D02*
X1861637D01*
X1772734Y1657687D02*
X1861611D01*
X1772734Y1658041D02*
X1861595D01*
X1830983Y1668317D02*
X1861524D01*
X1831432Y1666191D02*
X1861426D01*
X1831240Y1667963D02*
X1861347D01*
X1831514Y1666545D02*
X1861286D01*
X1831406Y1667608D02*
X1861242D01*
X1831537Y1666900D02*
X1861213D01*
X1831501Y1667254D02*
X1861199D01*
X1772734Y1627923D02*
X1860564D01*
X1801849Y1620482D02*
X1860526D01*
X1835865Y1624380D02*
X1860142D01*
X1772734Y1627569D02*
X1860109D01*
X1801446Y1620837D02*
X1859962D01*
X1835933Y1624734D02*
X1859910D01*
X1835731Y1624026D02*
X1859834D01*
X1772734Y1627215D02*
X1859827D01*
X1835943Y1625089D02*
X1859697D01*
X1834864Y1626860D02*
X1859643D01*
X1800544Y1621191D02*
X1859634D01*
X1835895Y1625443D02*
X1859563D01*
X1835518Y1623671D02*
X1859551D01*
X1835319Y1626506D02*
X1859533D01*
X1835785Y1625797D02*
X1859495D01*
X1835601Y1626152D02*
X1859485D01*
X1772734Y1621545D02*
X1859421D01*
X1835190Y1623317D02*
X1859368D01*
X1772734Y1621900D02*
X1859288D01*
X1834626Y1622963D02*
X1859257D01*
X1772734Y1622254D02*
X1859219D01*
X1772734Y1622608D02*
X1859209D01*
X1840749Y1585758D02*
X1858000D01*
X1840890Y1577963D02*
X1857859D01*
X1841506Y1585404D02*
X1857243D01*
X1841591Y1578317D02*
X1857158D01*
X1842010Y1585049D02*
X1856738D01*
X1842073Y1578671D02*
X1856676D01*
X1842391Y1584695D02*
X1856358D01*
X1842440Y1579026D02*
X1856309D01*
X1842691Y1584341D02*
X1856057D01*
X1842730Y1579380D02*
X1856019D01*
X1842932Y1583986D02*
X1855817D01*
X1842963Y1579734D02*
X1855786D01*
X1843123Y1583632D02*
X1855626D01*
X1843148Y1580089D02*
X1855601D01*
X1831439Y1638908D02*
X1855541D01*
X1779680Y1646348D02*
X1855481D01*
X1843273Y1583278D02*
X1855475D01*
X1843292Y1580443D02*
X1855457D01*
X1843387Y1582923D02*
X1855362D01*
X1843400Y1580797D02*
X1855348D01*
X1843466Y1582569D02*
X1855282D01*
X1843475Y1581152D02*
X1855273D01*
X1843514Y1582215D02*
X1855234D01*
X1843519Y1581506D02*
X1855230D01*
X1843532Y1581860D02*
X1855217D01*
X1813490Y1673278D02*
X1855060D01*
X1779368Y1645994D02*
X1854920D01*
X1831396Y1639262D02*
X1854862D01*
X1772734Y1642805D02*
X1854769D01*
X1811520Y1677530D02*
X1854706D01*
X1778846Y1645640D02*
X1854593D01*
X1772734Y1642451D02*
X1854563D01*
X1772734Y1643160D02*
X1854514D01*
X1831291Y1639616D02*
X1854498D01*
X1772734Y1645285D02*
X1854381D01*
X1772734Y1643514D02*
X1854329D01*
X1772734Y1642097D02*
X1854306D01*
X1831114Y1639971D02*
X1854264D01*
X1772734Y1644931D02*
X1854248D01*
X1772734Y1643868D02*
X1854219D01*
X1772734Y1644577D02*
X1854179D01*
X1772734Y1644223D02*
X1854170D01*
X1813405Y1673632D02*
X1854144D01*
X1772734Y1641742D02*
X1854141D01*
X1830841Y1640325D02*
X1854115D01*
X1772734Y1641388D02*
X1854045D01*
X1830406Y1640679D02*
X1854032D01*
X1811778Y1677175D02*
X1854032D01*
X1772734Y1641034D02*
X1854010D01*
X1813307Y1673986D02*
X1853739D01*
X1812015Y1676821D02*
X1853670D01*
X1813197Y1674341D02*
X1853481D01*
X1812233Y1676467D02*
X1853436D01*
X1813073Y1674695D02*
X1853315D01*
X1812433Y1676112D02*
X1853287D01*
X1812935Y1675049D02*
X1853218D01*
X1812616Y1675758D02*
X1853205D01*
X1812783Y1675404D02*
X1853183D01*
X1787100Y1614104D02*
X1849233D01*
X1802298Y1618356D02*
X1848879D01*
X1787120Y1614459D02*
X1848317D01*
X1802148Y1618002D02*
X1848205D01*
X1787100Y1614813D02*
X1847912D01*
X1801914Y1617648D02*
X1847843D01*
X1772734Y1599223D02*
X1847810D01*
X1787041Y1615167D02*
X1847654D01*
X1801551Y1617293D02*
X1847609D01*
X1786939Y1615522D02*
X1847488D01*
X1800872Y1616939D02*
X1847460D01*
X1772734Y1592490D02*
X1847392D01*
X1786790Y1615876D02*
X1847392D01*
X1786314Y1616585D02*
X1847378D01*
X1786586Y1616230D02*
X1847356D01*
X1772734Y1598868D02*
X1847347D01*
X1772734Y1598514D02*
X1847061D01*
X1836335Y1605246D02*
X1846916D01*
X1772734Y1598160D02*
X1846875D01*
X1772734Y1596742D02*
X1846787D01*
X1772734Y1597805D02*
X1846762D01*
X1772734Y1597097D02*
X1846720D01*
X1772734Y1597451D02*
X1846712D01*
X1772734Y1596388D02*
X1846681D01*
X1772734Y1592845D02*
X1846654D01*
X1822442Y1601348D02*
X1846527D01*
X1836662Y1604892D02*
X1846305D01*
X1772734Y1596034D02*
X1846293D01*
X1772734Y1593199D02*
X1846276D01*
X1836002Y1601703D02*
X1846098D01*
X1772734Y1595679D02*
X1846045D01*
X1772734Y1593553D02*
X1846034D01*
X1836874Y1604537D02*
X1845961D01*
X1828348Y1690994D02*
X1845946D01*
X1772734Y1595325D02*
X1845885D01*
X1772734Y1593908D02*
X1845878D01*
X1836458Y1602057D02*
X1845828D01*
X1772734Y1594971D02*
X1845794D01*
X1772734Y1594262D02*
X1845791D01*
X1772734Y1594616D02*
X1845764D01*
X1837007Y1604183D02*
X1845738D01*
X1836741Y1602411D02*
X1845652D01*
X1837075Y1603829D02*
X1845598D01*
X1836925Y1602766D02*
X1845549D01*
X1828845Y1691348D02*
X1845538D01*
X1837085Y1603474D02*
X1845523D01*
X1837036Y1603120D02*
X1845507D01*
X1829077Y1691703D02*
X1845337D01*
X1829185Y1692057D02*
X1845250D01*
X1829204Y1724656D02*
X1845242D01*
X1829204Y1724301D02*
X1845242D01*
X1829204Y1723947D02*
X1845242D01*
X1829204Y1723593D02*
X1845242D01*
X1829204Y1723238D02*
X1845242D01*
X1829204Y1722884D02*
X1845242D01*
X1829204Y1722530D02*
X1845242D01*
X1829204Y1722175D02*
X1845242D01*
X1829204Y1717569D02*
X1845242D01*
X1829204Y1717215D02*
X1845242D01*
X1829204Y1716860D02*
X1845242D01*
X1829204Y1716506D02*
X1845242D01*
X1829204Y1716152D02*
X1845242D01*
X1829204Y1715797D02*
X1845242D01*
X1829204Y1711545D02*
X1845242D01*
X1829204Y1711191D02*
X1845242D01*
X1829204Y1710837D02*
X1845242D01*
X1829204Y1710482D02*
X1845242D01*
X1829204Y1710128D02*
X1845242D01*
X1829204Y1709774D02*
X1845242D01*
X1829204Y1709419D02*
X1845242D01*
X1829204Y1709065D02*
X1845242D01*
X1829204Y1708711D02*
X1845242D01*
X1829204Y1708356D02*
X1845242D01*
X1829204Y1708002D02*
X1845242D01*
X1829204Y1707648D02*
X1845242D01*
X1829204Y1707293D02*
X1845242D01*
X1829204Y1706939D02*
X1845242D01*
X1829204Y1706585D02*
X1845242D01*
X1829204Y1706230D02*
X1845242D01*
X1829204Y1705876D02*
X1845242D01*
X1829204Y1705522D02*
X1845242D01*
X1829204Y1705167D02*
X1845242D01*
X1829204Y1704813D02*
X1845242D01*
X1829204Y1704459D02*
X1845242D01*
X1829204Y1704104D02*
X1845242D01*
X1829204Y1703750D02*
X1845242D01*
X1829204Y1703396D02*
X1845242D01*
X1829204Y1703041D02*
X1845242D01*
X1829204Y1702687D02*
X1845242D01*
X1829204Y1702333D02*
X1845242D01*
X1829204Y1701978D02*
X1845242D01*
X1829204Y1701624D02*
X1845242D01*
X1829204Y1701270D02*
X1845242D01*
X1829204Y1700915D02*
X1845242D01*
X1829204Y1700561D02*
X1845242D01*
X1829204Y1700207D02*
X1845242D01*
X1829204Y1699852D02*
X1845242D01*
X1829204Y1699498D02*
X1845242D01*
X1829204Y1699144D02*
X1845242D01*
X1829204Y1698789D02*
X1845242D01*
X1829204Y1698435D02*
X1845242D01*
X1829204Y1698081D02*
X1845242D01*
X1829204Y1697726D02*
X1845242D01*
X1829204Y1697372D02*
X1845242D01*
X1829204Y1697018D02*
X1845242D01*
X1829204Y1696663D02*
X1845242D01*
X1829204Y1696309D02*
X1845242D01*
X1829204Y1695955D02*
X1845242D01*
X1829204Y1695600D02*
X1845242D01*
X1829204Y1695246D02*
X1845242D01*
X1829204Y1694892D02*
X1845242D01*
X1829204Y1694537D02*
X1845242D01*
X1829204Y1694183D02*
X1845242D01*
X1829204Y1693829D02*
X1845242D01*
X1829204Y1693474D02*
X1845242D01*
X1829204Y1693120D02*
X1845242D01*
X1829204Y1692766D02*
X1845242D01*
X1829204Y1692411D02*
X1845242D01*
X1829230Y1725010D02*
X1845216D01*
X1829204Y1715443D02*
X1845193D01*
X1829204Y1711900D02*
X1845098D01*
X1829204Y1715089D02*
X1844799D01*
X1829204Y1712254D02*
X1844735D01*
X1829204Y1714734D02*
X1844543D01*
X1829204Y1712608D02*
X1844500D01*
X1829204Y1714380D02*
X1844377D01*
X1829204Y1712963D02*
X1844351D01*
X1829204Y1714026D02*
X1844281D01*
X1829204Y1713317D02*
X1844269D01*
X1829204Y1713671D02*
X1844246D01*
X1829204Y1717923D02*
X1843275D01*
X1829204Y1721821D02*
X1843193D01*
X1829204Y1718278D02*
X1842753D01*
X1829204Y1721467D02*
X1842708D01*
X1829204Y1718632D02*
X1842441D01*
X1829204Y1721112D02*
X1842412D01*
X1829204Y1718986D02*
X1842237D01*
X1829204Y1720758D02*
X1842219D01*
X1829204Y1719341D02*
X1842112D01*
X1829204Y1720404D02*
X1842101D01*
X1829204Y1719695D02*
X1842050D01*
X1829204Y1720049D02*
X1842046D01*
X1792547Y1585758D02*
X1838000D01*
X1791535Y1577963D02*
X1837859D01*
X1792693Y1585404D02*
X1837243D01*
X1791802Y1578317D02*
X1837158D01*
X1792820Y1585049D02*
X1836738D01*
X1792039Y1578671D02*
X1836676D01*
X1792927Y1584695D02*
X1836358D01*
X1792248Y1579026D02*
X1836309D01*
X1793015Y1584341D02*
X1836057D01*
X1792433Y1579380D02*
X1836019D01*
X1793085Y1583986D02*
X1835817D01*
X1792595Y1579734D02*
X1835786D01*
X1793138Y1583632D02*
X1835626D01*
X1792735Y1580089D02*
X1835601D01*
X1793174Y1583278D02*
X1835475D01*
X1792855Y1580443D02*
X1835457D01*
X1793194Y1582923D02*
X1835362D01*
X1792956Y1580797D02*
X1835348D01*
X1793196Y1582569D02*
X1835282D01*
X1793039Y1581152D02*
X1835273D01*
X1793182Y1582215D02*
X1835234D01*
X1793104Y1581506D02*
X1835230D01*
X1793151Y1581860D02*
X1835217D01*
X1817940Y1605600D02*
X1834024D01*
X1822600Y1601703D02*
X1833797D01*
X1818300Y1605246D02*
X1833463D01*
X1822689Y1602057D02*
X1833340D01*
X1818820Y1604892D02*
X1833136D01*
X1822718Y1602411D02*
X1833057D01*
X1821056Y1604537D02*
X1832924D01*
X1772734Y1622963D02*
X1832888D01*
X1822689Y1602766D02*
X1832873D01*
X1821816Y1604183D02*
X1832791D01*
X1822601Y1603120D02*
X1832762D01*
X1822198Y1603829D02*
X1832723D01*
X1822443Y1603474D02*
X1832713D01*
X1772734Y1626860D02*
X1832650D01*
X1772734Y1623317D02*
X1832324D01*
X1772734Y1626506D02*
X1832196D01*
X1772734Y1623671D02*
X1831997D01*
X1772734Y1626152D02*
X1831914D01*
X1772734Y1624026D02*
X1831783D01*
X1772734Y1625797D02*
X1831730D01*
X1772734Y1624380D02*
X1831650D01*
X1772734Y1625443D02*
X1831620D01*
X1772734Y1624734D02*
X1831581D01*
X1772734Y1625089D02*
X1831571D01*
X1772734Y1629341D02*
X1831017D01*
X1812736Y1633238D02*
X1830617D01*
X1772734Y1629695D02*
X1830403D01*
X1812728Y1632884D02*
X1830190D01*
X1772734Y1630049D02*
X1830058D01*
X1812662Y1632530D02*
X1829920D01*
X1772734Y1630404D02*
X1829834D01*
X1812530Y1632175D02*
X1829746D01*
X1785248Y1630758D02*
X1829693D01*
X1812320Y1631821D02*
X1829643D01*
X1811446Y1631112D02*
X1829617D01*
X1811997Y1631467D02*
X1829601D01*
X1813588Y1669026D02*
X1829018D01*
X1809096Y1661939D02*
X1828690D01*
X1813520Y1668671D02*
X1828116D01*
X1772734Y1640679D02*
X1828098D01*
X1809572Y1662293D02*
X1828011D01*
X1813440Y1668317D02*
X1827713D01*
X1772734Y1640325D02*
X1827663D01*
X1809999Y1662648D02*
X1827648D01*
X1812316Y1665482D02*
X1827622D01*
X1813348Y1667963D02*
X1827456D01*
X1812105Y1665128D02*
X1827456D01*
X1812509Y1665837D02*
X1827414D01*
X1810386Y1663002D02*
X1827414D01*
X1772734Y1639971D02*
X1827390D01*
X1813243Y1667608D02*
X1827290D01*
X1811876Y1664774D02*
X1827290D01*
X1812685Y1666191D02*
X1827264D01*
X1810738Y1663356D02*
X1827264D01*
X1772734Y1639616D02*
X1827213D01*
X1813125Y1667254D02*
X1827194D01*
X1811626Y1664419D02*
X1827194D01*
X1812846Y1666545D02*
X1827182D01*
X1811060Y1663711D02*
X1827182D01*
X1812993Y1666900D02*
X1827159D01*
X1811355Y1664065D02*
X1827159D01*
X1772734Y1639262D02*
X1827108D01*
X1772734Y1638908D02*
X1826514D01*
X1818362Y1635010D02*
X1826241D01*
X1772734Y1638553D02*
X1825939D01*
X1818586Y1635364D02*
X1825792D01*
X1817803Y1638199D02*
X1825608D01*
X1818727Y1635719D02*
X1825513D01*
X1818231Y1637845D02*
X1825392D01*
X1818803Y1636073D02*
X1825331D01*
X1818500Y1637490D02*
X1825257D01*
X1818819Y1636427D02*
X1825223D01*
X1818674Y1637136D02*
X1825187D01*
X1818777Y1636782D02*
X1825176D01*
X1772734Y1600285D02*
X1820013D01*
X1819131Y1604537D02*
X1820002D01*
X1772734Y1600640D02*
X1819245D01*
X1772734Y1600994D02*
X1818862D01*
X1818372Y1601348D02*
X1818593D01*
X1772734D02*
X1816308D01*
X1812388Y1634301D02*
X1815860D01*
X1772734Y1601703D02*
X1815821D01*
X1772734Y1602057D02*
X1815524D01*
X1772734Y1638199D02*
X1815460D01*
X1772734Y1602411D02*
X1815330D01*
X1812102Y1634656D02*
X1815245D01*
X1772734Y1603829D02*
X1815221D01*
X1772734Y1602766D02*
X1815212D01*
X1772734Y1603474D02*
X1815160D01*
X1772734Y1603120D02*
X1815157D01*
X1772734Y1604183D02*
X1815072D01*
X1772734Y1637845D02*
X1815032D01*
X1811639Y1635010D02*
X1814900D01*
X1772734Y1637490D02*
X1814763D01*
X1786637Y1635364D02*
X1814677D01*
X1812324Y1608081D02*
X1814672D01*
X1772734Y1637136D02*
X1814588D01*
X1786381Y1635719D02*
X1814535D01*
X1784691Y1636782D02*
X1814485D01*
X1786038Y1636073D02*
X1814460D01*
X1811876Y1604537D02*
X1814458D01*
X1785552Y1636427D02*
X1814444D01*
X1812635Y1607726D02*
X1814245D01*
X1812363Y1604892D02*
X1814113D01*
X1812838Y1607372D02*
X1813976D01*
X1812660Y1605246D02*
X1813889D01*
X1812963Y1607018D02*
X1813801D01*
X1812854Y1605600D02*
X1813748D01*
X1813024Y1606663D02*
X1813698D01*
X1812972Y1605955D02*
X1813673D01*
X1813027Y1606309D02*
X1813656D01*
X1808742Y1608435D02*
X1809884D01*
X1772734Y1604537D02*
X1809812D01*
X1785843Y1631112D02*
X1809657D01*
X1786827Y1635010D02*
X1809464D01*
X1808831Y1608081D02*
X1809364D01*
X1772734Y1604892D02*
X1809325D01*
X1786240Y1631467D02*
X1809105D01*
X1772734Y1605246D02*
X1809028D01*
X1786965Y1634656D02*
X1809001D01*
X1807187Y1605600D02*
X1808834D01*
X1786531Y1631821D02*
X1808782D01*
X1807955Y1605955D02*
X1808716D01*
X1787057Y1634301D02*
X1808715D01*
X1808339Y1606309D02*
X1808615D01*
X1786748Y1632175D02*
X1808572D01*
X1787108Y1633947D02*
X1808528D01*
X1786909Y1632530D02*
X1808441D01*
X1787119Y1633593D02*
X1808416D01*
X1787021Y1632884D02*
X1808374D01*
X1787090Y1633238D02*
X1808366D01*
X1772734Y1605600D02*
X1806155D01*
X1772734Y1605955D02*
X1805387D01*
X1772734Y1609498D02*
X1805251D01*
X1786938Y1613396D02*
X1805209D01*
X1772734Y1606309D02*
X1805004D01*
X1772734Y1609144D02*
X1805001D01*
X1772734Y1609852D02*
X1804884D01*
X1772734Y1606663D02*
X1804758D01*
X1772734Y1608789D02*
X1804756D01*
X1786788Y1613041D02*
X1804755D01*
X1772734Y1607018D02*
X1804600D01*
X1772734Y1608435D02*
X1804599D01*
X1772734Y1610207D02*
X1804556D01*
X1772734Y1607372D02*
X1804511D01*
X1772734Y1608081D02*
X1804510D01*
X1772734Y1607726D02*
X1804482D01*
X1786584Y1612687D02*
X1804473D01*
X1772734Y1610561D02*
X1804342D01*
X1786311Y1612333D02*
X1804289D01*
X1772734Y1610915D02*
X1804209D01*
X1785942Y1611978D02*
X1804179D01*
X1784216Y1611270D02*
X1804140D01*
X1785407Y1611624D02*
X1804131D01*
X1772734Y1681782D02*
X1801450D01*
X1772734Y1660167D02*
X1800581D01*
X1772734Y1621191D02*
X1799885D01*
X1772734Y1681427D02*
X1799727D01*
X1785946Y1616939D02*
X1799557D01*
X1772734Y1660522D02*
X1799274D01*
X1772734Y1620837D02*
X1798983D01*
X1785413Y1617293D02*
X1798877D01*
X1772734Y1681073D02*
X1798701D01*
X1772734Y1620482D02*
X1798579D01*
X1784248Y1617648D02*
X1798514D01*
X1772734Y1660876D02*
X1798363D01*
X1772734Y1620128D02*
X1798322D01*
X1772734Y1618002D02*
X1798280D01*
X1772734Y1619774D02*
X1798156D01*
X1772734Y1618356D02*
X1798130D01*
X1772734Y1619419D02*
X1798061D01*
X1772734Y1618711D02*
X1798048D01*
X1772734Y1619065D02*
X1798025D01*
X1772734Y1680719D02*
X1797912D01*
X1772734Y1661230D02*
X1797635D01*
X1772734Y1680364D02*
X1797256D01*
X1772734Y1661585D02*
X1797019D01*
X1772734Y1680010D02*
X1796690D01*
X1772734Y1661939D02*
X1796482D01*
X1772734Y1679656D02*
X1796192D01*
X1772734Y1662293D02*
X1796007D01*
X1772734Y1679301D02*
X1795746D01*
X1772734Y1662648D02*
X1795579D01*
X1772734Y1678947D02*
X1795344D01*
X1772734Y1663002D02*
X1795193D01*
X1772734Y1678593D02*
X1794979D01*
X1772734Y1663356D02*
X1794841D01*
X1772734Y1678238D02*
X1794645D01*
X1772734Y1663711D02*
X1794519D01*
X1772734Y1677884D02*
X1794339D01*
X1772734Y1664065D02*
X1794223D01*
X1772734Y1677530D02*
X1794059D01*
X1772734Y1664419D02*
X1793952D01*
X1772734Y1677175D02*
X1793801D01*
X1772734Y1664774D02*
X1793703D01*
X1772734Y1676821D02*
X1793564D01*
X1772734Y1665128D02*
X1793474D01*
X1772734Y1676467D02*
X1793346D01*
X1772734Y1665482D02*
X1793263D01*
X1772734Y1676112D02*
X1793146D01*
X1772734Y1665837D02*
X1793070D01*
X1772734Y1675758D02*
X1792963D01*
X1772734Y1666191D02*
X1792893D01*
X1772734Y1675404D02*
X1792795D01*
X1772734Y1666545D02*
X1792732D01*
X1772734Y1675049D02*
X1792643D01*
X1772734Y1666900D02*
X1792586D01*
X1772734Y1674695D02*
X1792505D01*
X1772734Y1667254D02*
X1792454D01*
X1772734Y1674341D02*
X1792382D01*
X1772734Y1667608D02*
X1792336D01*
X1772734Y1673986D02*
X1792271D01*
X1772734Y1667963D02*
X1792230D01*
X1789323Y1673632D02*
X1792174D01*
X1772734Y1668317D02*
X1792138D01*
X1790225Y1673278D02*
X1792089D01*
X1772734Y1668671D02*
X1792058D01*
X1790629Y1672923D02*
X1792016D01*
X1772734Y1669026D02*
X1791991D01*
X1790886Y1672569D02*
X1791956D01*
X1789651Y1669380D02*
X1791935D01*
X1791051Y1672215D02*
X1791907D01*
X1790330Y1669734D02*
X1791891D01*
X1791147Y1671860D02*
X1791871D01*
X1790693Y1670089D02*
X1791859D01*
X1791182Y1671506D02*
X1791845D01*
X1790928Y1670443D02*
X1791838D01*
X1791160Y1671152D02*
X1791832D01*
X1791077Y1670797D02*
X1791829D01*
X1787258Y1673632D02*
X1788664D01*
X1786904Y1669380D02*
X1788336D01*
X1772734D02*
X1786280D01*
X1772734Y1673632D02*
X1785926D01*
X1772734Y1669734D02*
X1785364D01*
X1772734Y1673278D02*
X1785252D01*
X1772734Y1670089D02*
X1784959D01*
X1772734Y1672923D02*
X1784890D01*
X1772734Y1670443D02*
X1784702D01*
X1772734Y1672569D02*
X1784656D01*
X1772734Y1670797D02*
X1784535D01*
X1772734Y1672215D02*
X1784507D01*
X1772734Y1671152D02*
X1784439D01*
X1772734Y1671860D02*
X1784426D01*
X1772734Y1671506D02*
X1784403D01*
X1772734Y1590010D02*
X1783767D01*
X1772734Y1611270D02*
X1783614D01*
X1772734Y1617648D02*
X1783582D01*
X1772734Y1636782D02*
X1783138D01*
X1772734Y1589656D02*
X1782714D01*
X1772734Y1630758D02*
X1782582D01*
X1772734Y1611624D02*
X1782423D01*
X1772734Y1617293D02*
X1782417D01*
X1772734Y1636427D02*
X1782278D01*
X1772734Y1631112D02*
X1781987D01*
X1772734Y1589301D02*
X1781983D01*
X1772734Y1611978D02*
X1781887D01*
X1772734Y1616939D02*
X1781884D01*
X1772734Y1636073D02*
X1781792D01*
X1777446Y1576191D02*
X1781788D01*
X1772734Y1631467D02*
X1781590D01*
X1772734Y1612333D02*
X1781518D01*
X1772734Y1616585D02*
X1781515D01*
X1772734Y1635719D02*
X1781448D01*
X1772734Y1588947D02*
X1781406D01*
X1772734Y1631821D02*
X1781299D01*
X1776583Y1576545D02*
X1781248D01*
X1772734Y1612687D02*
X1781245D01*
X1772734Y1616230D02*
X1781243D01*
X1772734Y1635364D02*
X1781193D01*
X1772734Y1632175D02*
X1781081D01*
X1772734Y1613041D02*
X1781041D01*
X1772734Y1615876D02*
X1781040D01*
X1772734Y1635010D02*
X1781003D01*
X1772734Y1588593D02*
X1780925D01*
X1772734Y1632530D02*
X1780921D01*
X1772734Y1613396D02*
X1780892D01*
X1772734Y1615522D02*
X1780891D01*
X1772734Y1634656D02*
X1780865D01*
X1772734Y1632884D02*
X1780809D01*
X1775949Y1576900D02*
X1780790D01*
X1772734Y1613750D02*
X1780790D01*
X1772734Y1615167D02*
X1780789D01*
X1772734Y1634301D02*
X1780772D01*
X1772734Y1633238D02*
X1780740D01*
X1772734Y1614104D02*
X1780730D01*
X1772734Y1614813D02*
X1780730D01*
X1772734Y1633947D02*
X1780722D01*
X1772734Y1633593D02*
X1780711D01*
X1772734Y1614459D02*
X1780710D01*
X1772734Y1588238D02*
X1780513D01*
X1775439Y1577254D02*
X1780396D01*
X1772734Y1587884D02*
X1780154D01*
X1775013Y1577608D02*
X1780052D01*
X1772734Y1587530D02*
X1779840D01*
X1774647Y1577963D02*
X1779749D01*
X1772734Y1587175D02*
X1779562D01*
X1774331Y1578317D02*
X1779482D01*
X1772734Y1586821D02*
X1779316D01*
X1774054Y1578671D02*
X1779245D01*
X1776636Y1650600D02*
X1779138D01*
X1772734Y1586467D02*
X1779098D01*
X1773813Y1579026D02*
X1779036D01*
X1772734Y1586112D02*
X1778906D01*
X1773602Y1579380D02*
X1778851D01*
X1772734Y1585758D02*
X1778737D01*
X1773418Y1579734D02*
X1778690D01*
X1777090Y1650246D02*
X1778653D01*
X1772734Y1585404D02*
X1778591D01*
X1773259Y1580089D02*
X1778549D01*
X1772734Y1585049D02*
X1778464D01*
X1773124Y1580443D02*
X1778429D01*
X1772734Y1584695D02*
X1778358D01*
X1777373Y1649892D02*
X1778357D01*
X1773010Y1580797D02*
X1778328D01*
X1772734Y1584341D02*
X1778269D01*
X1772916Y1581152D02*
X1778245D01*
X1772734Y1583986D02*
X1778199D01*
X1772843Y1581506D02*
X1778180D01*
X1772734Y1583632D02*
X1778146D01*
X1772789Y1581860D02*
X1778133D01*
X1772734Y1583278D02*
X1778110D01*
X1772753Y1582215D02*
X1778102D01*
X1772734Y1582923D02*
X1778090D01*
X1772736Y1582569D02*
X1778088D01*
X1772734Y1645640D02*
X1776936D01*
X1772734Y1645994D02*
X1776414D01*
X1772734Y1646348D02*
X1776102D01*
X1772734Y1646703D02*
X1774660D01*
X1772734Y1650600D02*
X1774422D01*
X1772734Y1647057D02*
X1774096D01*
X1772734Y1650246D02*
X1773968D01*
X1772734Y1647411D02*
X1773768D01*
X1772734Y1649892D02*
X1773685D01*
X1772734Y1647766D02*
X1773555D01*
X1772734Y1649537D02*
X1773502D01*
X1772734Y1648120D02*
X1773422D01*
X1772734Y1649183D02*
X1773391D01*
X1772734Y1648474D02*
X1773353D01*
X1772734Y1648829D02*
X1773343D01*
X1777784Y1807280D02*
X1853834D01*
X1776672Y1806926D02*
X1853611D01*
X1775959Y1806571D02*
X1853257D01*
X1775410Y1806217D02*
X1852902D01*
X1774962Y1805863D02*
X1852548D01*
X1774584Y1805508D02*
X1852194D01*
X1774261Y1805154D02*
X1851839D01*
X1773981Y1804800D02*
X1851485D01*
X1773739Y1804445D02*
X1851131D01*
X1773529Y1804091D02*
X1850776D01*
X1773349Y1803737D02*
X1850422D01*
X1773195Y1803382D02*
X1850068D01*
X1773065Y1803028D02*
X1849713D01*
X1772958Y1802674D02*
X1849359D01*
X1772872Y1802319D02*
X1849005D01*
X1772808Y1801965D02*
X1848650D01*
X1772764Y1801611D02*
X1848296D01*
X1772739Y1801256D02*
X1847942D01*
X1772734Y1800902D02*
X1847587D01*
X1772734Y1800548D02*
X1847233D01*
X1772734Y1800193D02*
X1846879D01*
X1772734Y1799839D02*
X1846524D01*
X1772734Y1799485D02*
X1846170D01*
X1772734Y1799130D02*
X1845816D01*
X1772734Y1798776D02*
X1845461D01*
X1772734Y1798422D02*
X1845107D01*
X1772734Y1798067D02*
X1844753D01*
X1772734Y1797713D02*
X1844398D01*
X1772734Y1797359D02*
X1844044D01*
X1794598Y1797004D02*
X1843690D01*
X1833059Y1796650D02*
X1843335D01*
X1833505Y1796296D02*
X1842981D01*
X1833784Y1795942D02*
X1842627D01*
X1833964Y1795587D02*
X1842272D01*
X1834072Y1795233D02*
X1841918D01*
X1834119Y1794879D02*
X1841564D01*
X1834107Y1794524D02*
X1841209D01*
X1834036Y1794170D02*
X1840855D01*
X1833900Y1793816D02*
X1840501D01*
X1833684Y1793461D02*
X1840146D01*
X1833351Y1793107D02*
X1839792D01*
X1832773Y1792753D02*
X1839438D01*
X1772734Y1792398D02*
X1839083D01*
X1772734Y1792044D02*
X1838729D01*
X1772734Y1791690D02*
X1838375D01*
X1772734Y1791335D02*
X1838020D01*
X1772734Y1790981D02*
X1837666D01*
X1772734Y1790627D02*
X1837312D01*
X1772734Y1790272D02*
X1836957D01*
X1772734Y1789918D02*
X1836603D01*
X1772734Y1789564D02*
X1836249D01*
X1772734Y1789209D02*
X1835894D01*
X1772734Y1788855D02*
X1835540D01*
X1772734Y1788501D02*
X1835186D01*
X1772734Y1788146D02*
X1834831D01*
X1772734Y1787792D02*
X1834477D01*
X1772734Y1787438D02*
X1834123D01*
X1824473Y1787083D02*
X1833768D01*
X1825275Y1786729D02*
X1833414D01*
X1825665Y1786375D02*
X1833060D01*
X1825914Y1786020D02*
X1832705D01*
X1826074Y1785666D02*
X1832351D01*
X1826166Y1785312D02*
X1831997D01*
X1826197Y1784957D02*
X1831642D01*
X1826170Y1784603D02*
X1831288D01*
X1794804Y1792753D02*
X1831091D01*
X1826083Y1784249D02*
X1830934D01*
X1795441Y1796650D02*
X1830805D01*
X1825928Y1783894D02*
X1830579D01*
X1795510Y1793107D02*
X1830513D01*
X1795837Y1796296D02*
X1830359D01*
X1825687Y1783540D02*
X1830225D01*
X1795879Y1793461D02*
X1830180D01*
X1796090Y1795942D02*
X1830081D01*
X1796118Y1793816D02*
X1829964D01*
X1796253Y1795587D02*
X1829900D01*
X1825311Y1783186D02*
X1829871D01*
X1796270Y1794170D02*
X1829828D01*
X1796346Y1795233D02*
X1829792D01*
X1796354Y1794524D02*
X1829757D01*
X1796379Y1794879D02*
X1829746D01*
X1824580Y1782831D02*
X1829516D01*
X1824445Y1782477D02*
X1829162D01*
X1824645Y1782123D02*
X1828808D01*
X1824767Y1781768D02*
X1828453D01*
X1824827Y1781414D02*
X1828099D01*
X1824828Y1781060D02*
X1827745D01*
X1824771Y1780705D02*
X1827390D01*
X1824650Y1780351D02*
X1827040D01*
X1824454Y1779997D02*
X1826814D01*
X1824152Y1779642D02*
X1826710D01*
X1823654Y1779288D02*
X1826694D01*
X1812353Y1778934D02*
X1826694D01*
X1812871Y1778579D02*
X1826694D01*
X1813182Y1778225D02*
X1826694D01*
X1813384Y1777871D02*
X1826694D01*
X1813509Y1777516D02*
X1826694D01*
X1813570Y1777162D02*
X1826694D01*
X1813573Y1776808D02*
X1826694D01*
X1813518Y1776453D02*
X1826694D01*
X1813399Y1776099D02*
X1826694D01*
X1813205Y1775745D02*
X1826694D01*
X1812908Y1775390D02*
X1826694D01*
X1812420Y1775036D02*
X1826694D01*
X1772734Y1774682D02*
X1826694D01*
X1772734Y1774327D02*
X1826694D01*
X1772734Y1773973D02*
X1826694D01*
X1772734Y1773619D02*
X1826694D01*
X1772734Y1773264D02*
X1826694D01*
X1772734Y1772910D02*
X1826694D01*
X1772734Y1772556D02*
X1826694D01*
X1772734Y1772201D02*
X1826694D01*
X1772734Y1771847D02*
X1826694D01*
X1772734Y1771493D02*
X1826694D01*
X1787938Y1771138D02*
X1826694D01*
X1788846Y1770784D02*
X1826694D01*
X1789516Y1770430D02*
X1826694D01*
X1790057Y1770075D02*
X1826694D01*
X1790513Y1769721D02*
X1826694D01*
X1790906Y1769367D02*
X1826694D01*
X1791249Y1769012D02*
X1826694D01*
X1791551Y1768658D02*
X1826694D01*
X1791818Y1768304D02*
X1826694D01*
X1792054Y1767949D02*
X1826694D01*
X1792263Y1767595D02*
X1826694D01*
X1792447Y1767241D02*
X1826694D01*
X1792608Y1766886D02*
X1826694D01*
X1792748Y1766532D02*
X1826694D01*
X1792868Y1766178D02*
X1826694D01*
X1792968Y1765823D02*
X1826694D01*
X1793051Y1765469D02*
X1826694D01*
X1793115Y1765115D02*
X1826694D01*
X1793163Y1764760D02*
X1826694D01*
X1793193Y1764406D02*
X1826694D01*
X1793207Y1764052D02*
X1826694D01*
X1793204Y1763697D02*
X1826694D01*
X1793184Y1763343D02*
X1826694D01*
X1793148Y1762989D02*
X1826694D01*
X1793094Y1762634D02*
X1826694D01*
X1793024Y1762280D02*
X1826694D01*
X1792935Y1761926D02*
X1826694D01*
X1792828Y1761571D02*
X1826694D01*
X1792701Y1761217D02*
X1826694D01*
X1792554Y1760863D02*
X1826694D01*
X1792385Y1760508D02*
X1826694D01*
X1792192Y1760154D02*
X1826694D01*
X1791974Y1759800D02*
X1826694D01*
X1791727Y1759445D02*
X1826694D01*
X1791449Y1759091D02*
X1826694D01*
X1791133Y1758737D02*
X1826694D01*
X1790773Y1758382D02*
X1826694D01*
X1790360Y1758028D02*
X1826694D01*
X1789877Y1757674D02*
X1826694D01*
X1789297Y1757319D02*
X1826694D01*
X1789201Y1756965D02*
X1826694D01*
X1789421Y1756611D02*
X1826694D01*
X1789559Y1756256D02*
X1826694D01*
X1789632Y1755902D02*
X1826694D01*
X1789645Y1755548D02*
X1826694D01*
X1789601Y1755193D02*
X1826694D01*
X1789495Y1754839D02*
X1826694D01*
X1789317Y1754485D02*
X1826694D01*
X1789042Y1754130D02*
X1826694D01*
X1788604Y1753776D02*
X1826694D01*
X1772734Y1753422D02*
X1826694D01*
X1772734Y1753067D02*
X1826694D01*
X1772734Y1752713D02*
X1826694D01*
X1772734Y1752359D02*
X1826694D01*
X1772734Y1752004D02*
X1826694D01*
X1772734Y1751650D02*
X1826694D01*
X1772734Y1751296D02*
X1826694D01*
X1772734Y1750942D02*
X1826694D01*
X1772734Y1750587D02*
X1826694D01*
X1772734Y1750233D02*
X1826694D01*
X1772734Y1749879D02*
X1826694D01*
X1772734Y1749524D02*
X1826694D01*
X1772734Y1749170D02*
X1826694D01*
X1810121Y1748816D02*
X1826694D01*
X1810630Y1748461D02*
X1826694D01*
X1810936Y1748107D02*
X1826694D01*
X1811136Y1747753D02*
X1826694D01*
X1811259Y1747398D02*
X1826694D01*
X1811318Y1747044D02*
X1826694D01*
X1811319Y1746690D02*
X1826694D01*
X1811262Y1746335D02*
X1826694D01*
X1811142Y1745981D02*
X1826694D01*
X1810945Y1745627D02*
X1826694D01*
X1810644Y1745272D02*
X1826694D01*
X1810146Y1744918D02*
X1826694D01*
X1772734Y1744564D02*
X1826694D01*
X1772734Y1744209D02*
X1826694D01*
X1772734Y1743855D02*
X1826694D01*
X1772734Y1743501D02*
X1826694D01*
X1772734Y1743146D02*
X1826694D01*
X1772734Y1742792D02*
X1826694D01*
X1772734Y1742438D02*
X1826694D01*
X1772734Y1742083D02*
X1826694D01*
X1772734Y1741729D02*
X1826694D01*
X1772734Y1741375D02*
X1826694D01*
X1772734Y1741020D02*
X1826694D01*
X1772734Y1740666D02*
X1826694D01*
X1772734Y1740312D02*
X1826694D01*
X1772734Y1739957D02*
X1826694D01*
X1796650Y1739603D02*
X1826694D01*
X1797303Y1739249D02*
X1826694D01*
X1797659Y1738894D02*
X1826694D01*
X1797890Y1738540D02*
X1826694D01*
X1798036Y1738186D02*
X1826694D01*
X1798116Y1737831D02*
X1826694D01*
X1798136Y1737477D02*
X1826694D01*
X1798099Y1737123D02*
X1826694D01*
X1798000Y1736768D02*
X1826694D01*
X1797831Y1736414D02*
X1826694D01*
X1797570Y1736060D02*
X1826694D01*
X1797158Y1735705D02*
X1826694D01*
X1796162Y1735351D02*
X1826694D01*
X1772734Y1734997D02*
X1826694D01*
X1772734Y1734642D02*
X1826694D01*
X1772734Y1734288D02*
X1826694D01*
X1772734Y1733934D02*
X1826694D01*
X1772734Y1733579D02*
X1826694D01*
X1772734Y1733225D02*
X1826694D01*
X1772734Y1732871D02*
X1826694D01*
X1772734Y1732516D02*
X1826694D01*
X1772734Y1732162D02*
X1826694D01*
X1772734Y1731808D02*
X1826694D01*
X1772734Y1731453D02*
X1826694D01*
X1772734Y1731099D02*
X1826694D01*
X1772734Y1730745D02*
X1826694D01*
X1772734Y1730390D02*
X1826694D01*
X1772734Y1730036D02*
X1826694D01*
X1772734Y1729682D02*
X1826694D01*
X1772734Y1729327D02*
X1826694D01*
X1772734Y1728973D02*
X1826694D01*
X1772734Y1728619D02*
X1826694D01*
X1772734Y1728264D02*
X1826694D01*
X1772734Y1727910D02*
X1826694D01*
X1772734Y1727556D02*
X1826694D01*
X1772734Y1727201D02*
X1826694D01*
X1772734Y1726847D02*
X1826694D01*
X1772734Y1726493D02*
X1826678D01*
X1772734Y1726138D02*
X1826642D01*
X1772734Y1725784D02*
X1826642D01*
X1772734Y1725430D02*
X1826642D01*
X1772734Y1725075D02*
X1826642D01*
X1772734Y1724721D02*
X1826642D01*
X1772734Y1724367D02*
X1826642D01*
X1772734Y1724012D02*
X1826642D01*
X1788811Y1723658D02*
X1826642D01*
X1789454Y1723304D02*
X1826642D01*
X1789808Y1722949D02*
X1826642D01*
X1790036Y1722595D02*
X1826642D01*
X1790182Y1722241D02*
X1826642D01*
X1790260Y1721886D02*
X1826642D01*
X1790279Y1721532D02*
X1826642D01*
X1790241Y1721178D02*
X1826642D01*
X1790141Y1720823D02*
X1826642D01*
X1789971Y1720469D02*
X1826642D01*
X1789708Y1720115D02*
X1826642D01*
X1789292Y1719760D02*
X1826642D01*
X1789154Y1719406D02*
X1826642D01*
X1789091Y1719052D02*
X1826642D01*
X1788964Y1718697D02*
X1826642D01*
X1788759Y1718343D02*
X1826642D01*
X1788445Y1717989D02*
X1826642D01*
X1787916Y1717634D02*
X1826642D01*
X1772734Y1717280D02*
X1826642D01*
X1772734Y1716926D02*
X1826642D01*
X1772734Y1716571D02*
X1826642D01*
X1772734Y1716217D02*
X1826642D01*
X1772734Y1715863D02*
X1826642D01*
X1772734Y1715508D02*
X1826642D01*
X1772734Y1715154D02*
X1826642D01*
X1772734Y1714800D02*
X1826642D01*
X1772734Y1714445D02*
X1826642D01*
X1772734Y1714091D02*
X1826642D01*
X1772734Y1713737D02*
X1826642D01*
X1772734Y1713382D02*
X1826642D01*
X1772734Y1713028D02*
X1826642D01*
X1772734Y1712674D02*
X1826642D01*
X1772734Y1712319D02*
X1826642D01*
X1772734Y1711965D02*
X1826642D01*
X1772734Y1711611D02*
X1826642D01*
X1772734Y1711256D02*
X1826642D01*
X1772734Y1710902D02*
X1826642D01*
X1772734Y1710548D02*
X1826642D01*
X1772734Y1710193D02*
X1826642D01*
X1772734Y1709839D02*
X1826642D01*
X1772734Y1709485D02*
X1826642D01*
X1772734Y1709130D02*
X1826642D01*
X1772734Y1708776D02*
X1826642D01*
X1772734Y1708422D02*
X1826642D01*
X1772734Y1708067D02*
X1826642D01*
X1772734Y1707713D02*
X1826642D01*
X1772734Y1707359D02*
X1826642D01*
X1772734Y1707004D02*
X1826642D01*
X1772734Y1706650D02*
X1826642D01*
X1772734Y1706296D02*
X1826642D01*
X1772734Y1705942D02*
X1826642D01*
X1772734Y1705587D02*
X1826642D01*
X1772734Y1705233D02*
X1826642D01*
X1772734Y1704879D02*
X1826642D01*
X1772734Y1704524D02*
X1826642D01*
X1772734Y1704170D02*
X1826642D01*
X1772734Y1703816D02*
X1826642D01*
X1772734Y1703461D02*
X1826642D01*
X1772734Y1703107D02*
X1826642D01*
X1772734Y1702753D02*
X1826642D01*
X1772734Y1702398D02*
X1826642D01*
X1772734Y1702044D02*
X1826642D01*
X1772734Y1701690D02*
X1826642D01*
X1772734Y1701335D02*
X1826642D01*
X1772734Y1700981D02*
X1826642D01*
X1772734Y1700627D02*
X1826642D01*
X1772734Y1700272D02*
X1826642D01*
X1772734Y1699918D02*
X1826642D01*
X1772734Y1699564D02*
X1826642D01*
X1772734Y1699209D02*
X1826642D01*
X1772734Y1698855D02*
X1826642D01*
X1772734Y1698501D02*
X1826642D01*
X1772734Y1698146D02*
X1826642D01*
X1772734Y1697792D02*
X1826642D01*
X1772734Y1697438D02*
X1826642D01*
X1772734Y1697083D02*
X1826642D01*
X1772734Y1696729D02*
X1826642D01*
X1772734Y1696375D02*
X1826642D01*
X1772734Y1696020D02*
X1826642D01*
X1772734Y1695666D02*
X1826642D01*
X1772734Y1695312D02*
X1826642D01*
X1772734Y1694957D02*
X1826642D01*
X1772734Y1694603D02*
X1826642D01*
X1772734Y1694249D02*
X1826642D01*
X1772734Y1693894D02*
X1826642D01*
X1772734Y1787083D02*
X1823543D01*
X1772734Y1786729D02*
X1822740D01*
X1772734Y1786375D02*
X1822351D01*
X1818348Y1783540D02*
X1822271D01*
X1816584Y1786020D02*
X1822101D01*
X1818373Y1783894D02*
X1822087D01*
X1817433Y1785666D02*
X1821941D01*
X1818340Y1784249D02*
X1821932D01*
X1817830Y1785312D02*
X1821850D01*
X1818246Y1784603D02*
X1821846D01*
X1818083Y1784957D02*
X1821819D01*
X1818264Y1783186D02*
X1821661D01*
X1780137Y1779288D02*
X1821637D01*
X1818112Y1782831D02*
X1821152D01*
X1781146Y1779642D02*
X1821139D01*
X1817874Y1782477D02*
X1820846D01*
X1781559Y1779997D02*
X1820837D01*
X1817505Y1782123D02*
X1820647D01*
X1781821Y1780351D02*
X1820641D01*
X1816803Y1781768D02*
X1820524D01*
X1781990Y1780705D02*
X1820520D01*
X1782127Y1781414D02*
X1820464D01*
X1782089Y1781060D02*
X1820463D01*
X1780295Y1786020D02*
X1815784D01*
X1782107Y1781768D02*
X1815566D01*
X1780803Y1785666D02*
X1814935D01*
X1782027Y1782123D02*
X1814863D01*
X1781109Y1785312D02*
X1814539D01*
X1781881Y1782477D02*
X1814494D01*
X1781308Y1784957D02*
X1814285D01*
X1781651Y1782831D02*
X1814256D01*
X1781431Y1784603D02*
X1814122D01*
X1781353Y1783186D02*
X1814104D01*
X1781490Y1784249D02*
X1814028D01*
X1781433Y1783540D02*
X1814020D01*
X1781491Y1783894D02*
X1813995D01*
X1772734Y1778934D02*
X1810427D01*
X1772734Y1775036D02*
X1810360D01*
X1772734Y1778579D02*
X1809909D01*
X1772734Y1775390D02*
X1809872D01*
X1772734Y1778225D02*
X1809598D01*
X1772734Y1775745D02*
X1809575D01*
X1772734Y1777871D02*
X1809396D01*
X1772734Y1776099D02*
X1809381D01*
X1772734Y1777516D02*
X1809271D01*
X1772734Y1776453D02*
X1809262D01*
X1772734Y1777162D02*
X1809210D01*
X1772734Y1776808D02*
X1809207D01*
X1772734Y1748816D02*
X1808153D01*
X1772734Y1744918D02*
X1808127D01*
X1772734Y1748461D02*
X1807644D01*
X1772734Y1745272D02*
X1807630D01*
X1772734Y1748107D02*
X1807338D01*
X1772734Y1745627D02*
X1807329D01*
X1772734Y1747753D02*
X1807138D01*
X1772734Y1745981D02*
X1807132D01*
X1772734Y1747398D02*
X1807015D01*
X1772734Y1746335D02*
X1807012D01*
X1772734Y1747044D02*
X1806956D01*
X1772734Y1746690D02*
X1806955D01*
X1772734Y1735351D02*
X1795734D01*
X1772734Y1739603D02*
X1795246D01*
X1772734Y1735705D02*
X1794738D01*
X1772734Y1739249D02*
X1794593D01*
X1772734Y1736060D02*
X1794326D01*
X1772734Y1738894D02*
X1794236D01*
X1772734Y1736414D02*
X1794065D01*
X1772734Y1738540D02*
X1794006D01*
X1772734Y1736768D02*
X1793896D01*
X1772734Y1738186D02*
X1793860D01*
X1772734Y1737123D02*
X1793797D01*
X1772734Y1797004D02*
X1793783D01*
X1772734Y1737831D02*
X1793780D01*
X1772734Y1737477D02*
X1793760D01*
X1772734Y1792753D02*
X1793577D01*
X1772734Y1796650D02*
X1792940D01*
X1772734Y1793107D02*
X1792871D01*
X1772734Y1796296D02*
X1792544D01*
X1772734Y1793461D02*
X1792501D01*
X1772734Y1795942D02*
X1792291D01*
X1772734Y1793816D02*
X1792263D01*
X1772734Y1795587D02*
X1792128D01*
X1772734Y1794170D02*
X1792111D01*
X1772734Y1795233D02*
X1792035D01*
X1772734Y1794524D02*
X1792026D01*
X1772734Y1794879D02*
X1792002D01*
X1786810Y1723658D02*
X1787372D01*
X1772734Y1753776D02*
X1786312D01*
X1785201Y1717634D02*
X1786032D01*
X1772734Y1754130D02*
X1785874D01*
X1772734Y1754485D02*
X1785599D01*
X1772734Y1754839D02*
X1785421D01*
X1772734Y1756256D02*
X1785328D01*
X1772734Y1755193D02*
X1785315D01*
X1772734Y1755902D02*
X1785285D01*
X1772734Y1755548D02*
X1785271D01*
X1784444Y1723658D02*
X1785107D01*
X1772734Y1717634D02*
X1784178D01*
X1772734Y1756611D02*
X1783807D01*
X1772734Y1717989D02*
X1783407D01*
X1772734Y1771138D02*
X1783367D01*
X1772734Y1718343D02*
X1783023D01*
X1772734Y1723658D02*
X1783005D01*
X1772734Y1718697D02*
X1782777D01*
X1772734Y1756965D02*
X1782742D01*
X1772734Y1719052D02*
X1782619D01*
X1772734Y1719406D02*
X1782530D01*
X1772734Y1719760D02*
X1782482D01*
X1772734Y1770784D02*
X1782459D01*
X1772734Y1723304D02*
X1782362D01*
X1772734Y1720115D02*
X1782108D01*
X1772734Y1722949D02*
X1782008D01*
X1772734Y1757319D02*
X1782007D01*
X1772734Y1720469D02*
X1781845D01*
X1772734Y1770430D02*
X1781789D01*
X1772734Y1722595D02*
X1781780D01*
X1772734Y1720823D02*
X1781675D01*
X1772734Y1722241D02*
X1781634D01*
X1772734Y1721178D02*
X1781575D01*
X1772734Y1721886D02*
X1781556D01*
X1772734Y1721532D02*
X1781536D01*
X1772734Y1757674D02*
X1781428D01*
X1772734Y1770075D02*
X1781248D01*
X1772734Y1758028D02*
X1780945D01*
X1772734Y1769721D02*
X1780792D01*
X1772734Y1758382D02*
X1780531D01*
X1772734Y1769367D02*
X1780399D01*
X1772734Y1758737D02*
X1780172D01*
X1772734Y1769012D02*
X1780056D01*
X1772734Y1759091D02*
X1779856D01*
X1772734Y1768658D02*
X1779754D01*
X1772734Y1779288D02*
X1779739D01*
X1772734Y1759445D02*
X1779578D01*
X1772734Y1768304D02*
X1779487D01*
X1772734Y1759800D02*
X1779331D01*
X1772734Y1767949D02*
X1779251D01*
X1772734Y1760154D02*
X1779113D01*
X1772734Y1767595D02*
X1779042D01*
X1772734Y1760508D02*
X1778920D01*
X1772734Y1767241D02*
X1778858D01*
X1772734Y1760863D02*
X1778751D01*
X1772734Y1779642D02*
X1778731D01*
X1772734Y1766886D02*
X1778697D01*
X1772734Y1761217D02*
X1778604D01*
X1772734Y1766532D02*
X1778557D01*
X1772734Y1761571D02*
X1778477D01*
X1772734Y1766178D02*
X1778437D01*
X1772734Y1761926D02*
X1778370D01*
X1772734Y1765823D02*
X1778337D01*
X1772734Y1786020D02*
X1778322D01*
X1772734Y1779997D02*
X1778318D01*
X1772734Y1762280D02*
X1778281D01*
X1772734Y1765469D02*
X1778254D01*
X1772734Y1762634D02*
X1778210D01*
X1772734Y1765115D02*
X1778190D01*
X1772734Y1762989D02*
X1778157D01*
X1772734Y1764760D02*
X1778142D01*
X1772734Y1763343D02*
X1778121D01*
X1772734Y1764406D02*
X1778112D01*
X1772734Y1763697D02*
X1778101D01*
X1772734Y1764052D02*
X1778098D01*
X1772734Y1780351D02*
X1778056D01*
X1772734Y1780705D02*
X1777887D01*
X1772734Y1782123D02*
X1777850D01*
X1772734Y1785666D02*
X1777814D01*
X1772734Y1782477D02*
X1777803D01*
X1772734Y1781060D02*
X1777788D01*
X1772734Y1781768D02*
X1777770D01*
X1772734Y1781414D02*
X1777750D01*
X1772734Y1785312D02*
X1777508D01*
X1772734Y1782831D02*
X1777501D01*
X1772734Y1784957D02*
X1777309D01*
X1772734Y1783186D02*
X1777305D01*
X1772734Y1784603D02*
X1777186D01*
X1772734Y1783540D02*
X1777184D01*
X1772734Y1784249D02*
X1777127D01*
X1772734Y1783894D02*
X1777126D01*
G54D65*
X1783915Y1614460D03*
Y1633672D03*
G54D202*
X1869374Y1581834D03*
G54D203*
X1859374D03*
X1849374D03*
X1839374D03*
G74*
X0Y0D02*
M02*
