%
T1C.01181F095S3
X011049Y012273
X011604Y012273
X012159Y012273
X012714Y012273
X013269Y012273
X013325Y011696
X013825Y012273
X013834Y011921
X01384Y0116
X013859Y010899
X01434Y010603
X014343Y011105
X014569Y012848
X014724Y011874
X014888Y012761
X014956Y010603
X014957Y011097
X016325Y012879
X01723Y012832
X017604Y01284
X01763Y01198
X017724Y012252
X020002Y012454
X02035Y012173
X020563Y011736
X021252Y011059
X021382Y01248
X021953Y012272
X02226Y011087
X022679Y012403
X023102Y012287
X02324Y011083
X024217Y011618
X024276Y010669
X025555Y010429
X026183Y012718
X026206Y011674
X027944Y012336
X027952Y012726
X028518Y012351
X028522Y012729
X029178Y012735
X029185Y012336
X028815Y013569
X028815Y013915
X028814Y014267
X028814Y014564
X028814Y014877
X028555Y01488
X028541Y013247
X028539Y014564
X028529Y013564
X028525Y014261
X028519Y01391
X028256Y014267
X02825Y013239
X028246Y01356
X028244Y013906
X028132Y01482
X028128Y015056
X027978Y014257
X027966Y01356
X027965Y013914
X027718Y014253
X027521Y013643
X02747Y014127
X027454Y014371
X026199Y013214
X02463Y013709
X024287Y014287
X024272Y014535
X024051Y014287
X023161Y013811
X022677Y013028
X022596Y014946
X022344Y01495
X022321Y012946
X022317Y013194
X021199Y013663
X021002Y014025
X020986Y014997
X020974Y014371
X020974Y014706
X020762Y014021
X02075Y015005
X020738Y01471
X020738Y014371
X02051Y015005
X020502Y014021
X020502Y014706
X020502Y014371
X020269Y015005
X020266Y014706
X020266Y014371
X020266Y014029
X020167Y013304
X020029Y015005
X020029Y01471
X020029Y014021
X020029Y014371
X019254Y015344
X01921Y01417
X019203Y013899
X019002Y015123
X018974Y014769
X018844Y01417
X017799Y01378
X017789Y014147
X01621Y015017
X015085Y014487
X01508Y014776
X01508Y014234
X014824Y014786
X014823Y014246
X014821Y014503
X014546Y014779
X014538Y014255
X014538Y014503
X014419Y013143
X013919Y013166
X013502Y013292
X013466Y01367
X01308Y013785
X012856Y014422
X012549Y013765
X010388Y017391
X010624Y017281
X010852Y017387
X012212Y017752
X012832Y016308
X01389Y015831
X014399Y016592
X014498Y016155
X014769Y017037
X015124Y016403
X015155Y01743
X015571Y016209
X015679Y016954
X01576Y016402
X016014Y015659
X018454Y016619
X01847Y016954
X019819Y017583
X020012Y015611
X020328Y016655
X020494Y015804
X020718Y016674
X020895Y015789
X021025Y016706
X022352Y015926
X022697Y015929
X022972Y015902
X023451Y015899
X023457Y017864
X023462Y017663
X023463Y017456
X023529Y01656
X023533Y016332
X023533Y016844
X023679Y015899
X023699Y017653
X023701Y017445
X023703Y017856
X024033Y016548
X025217Y017245
X026632Y017744
X027171Y017509
X027674Y015678
X027887Y017925
X028093Y017924
X029151Y016698
X029395Y0176
X029224Y018053
X028918Y018775
X02891Y019098
X028903Y019698
X028303Y018135
X0283Y01793
X028093Y01814
X027879Y018135
X027839Y019555
X027667Y01971
X027551Y019535
X027335Y019757
X027332Y019542
X027087Y019745
X027077Y019538
X026637Y017974
X02616Y018008
X021051Y01928
X021002Y019753
X020646Y019429
X020643Y019757
X019543Y018024
X019213Y018316
X019173Y019236
X018462Y018001
X018372Y020064
X018214Y019477
X017935Y020194
X01751Y018765
X015769Y018922
X015769Y019206
X015399Y019875
X012213Y017982
X012049Y019025
X011734Y019666
X011497Y020022
X011494Y019674
X014982Y021442
X014986Y021249
X015103Y02233
X015112Y022072
X015183Y021097
X01531Y022328
X015321Y02208
X015336Y021434
X015417Y021099
X015494Y022206
X019801Y022107
X019899Y021477
X021956Y021547
X021975Y021347
X022177Y021338
X022178Y021545
X022309Y022324
X022385Y021345
X022433Y02271
X022651Y022694
X022668Y022464
X02267Y022244
X024983Y022035
X024985Y021809
X024993Y021565
X025216Y021561
X025219Y02204
X025229Y021804
X026386Y021016
X026388Y020765
X026589Y021621
X026654Y021017
X026654Y020768
X026918Y020765
X026918Y021025
X028108Y021844
X028108Y021568
X02814Y021131
X028187Y022265
X028195Y022513
X028222Y022752
X028333Y02096
X028348Y020647
X02841Y022504
X028664Y022801
X028816Y022476
X029388Y022737
X029466Y021477
X029403Y025395
X029395Y02519
X029175Y025407
X029171Y025194
X028798Y023657
X028756Y025356
X028753Y025139
X028742Y024938
X028735Y024711
X028664Y023388
X028664Y023081
X028513Y023657
X028497Y0247
X028252Y024696
X028222Y023657
X028222Y023199
X028222Y023425
X028222Y022962
X02796Y024689
X027712Y0247
X027595Y024034
X027385Y024041
X0273Y023856
X027178Y024029
X027098Y023846
X024533Y025103
X024368Y023859
X02408Y023749
X023888Y024466
X02371Y023741
X023447Y025088
X023336Y023741
X022899Y023749
X022813Y02434
X022474Y023753
X022222Y025048
X021675Y025407
X020907Y02517
X020636Y024202
X019978Y023596
X019943Y024544
X018537Y0253
X018529Y024446
X017722Y023879
X017667Y024446
X017478Y023883
X017258Y024509
X016892Y025402
X016541Y023883
X016191Y023702
X011644Y024679
X011532Y024481
X011431Y024684
X011304Y024496
X011207Y024679
X011049Y027207
X01106Y027549
X011143Y027777
X011297Y026974
X011301Y027485
X011454Y027773
X011465Y027259
X011577Y027548
X011691Y026907
X011746Y027777
X011793Y027415
X011978Y026686
X012045Y027068
X012187Y026875
X012262Y026619
X012417Y026968
X012429Y026273
X012529Y026775
X012655Y026959
X013748Y027206
X014199Y026505
X014199Y027001
X014199Y026753
X016891Y025659
X018659Y026907
X018978Y027576
X018982Y026875
X01934Y027198
X019695Y027706
X020699Y027253
X021218Y026974
X021891Y026926
X022403Y027198
X022513Y026089
X022832Y02582
X022998Y027048
X023415Y027773
X023447Y027111
X02351Y026556
X023758Y027418
X02388Y025962
X024017Y02769
X024514Y026568
X024931Y027596
X025898Y027327
X025898Y027637
X02613Y027326
X028826Y026925
X028836Y027546
X028923Y030348
X028903Y029665
X028841Y028125
X025962Y029889
X025958Y029004
X025958Y028421
X025957Y030264
X025954Y029334
X025954Y02804
X025687Y030259
X025687Y029341
X025684Y028039
X025684Y028421
X025682Y029884
X025679Y028998
X024667Y028946
X024577Y028245
X024305Y02797
X024057Y028879
X024049Y028552
X023978Y030226
X023817Y028163
X023588Y030226
X020431Y029977
X020399Y029584
X019754Y028706
X016647Y030214
X013974Y030216
X012691Y029481
X012477Y028989
X012462Y030275
X012462Y029952
X012462Y02865
X012443Y029481
X012199Y029481
X011884Y030336
X01188Y030044
X011876Y029753
X01158Y028084
X011525Y030344
X011521Y030009
X010766Y030926
X010828Y030666
X011521Y030651
X011762Y032647
X011884Y030655
X012254Y032005
X012266Y030781
X012604Y030792
X012915Y030785
X014453Y030906
X014638Y032588
X01504Y032588
X015099Y030643
X015235Y031014
X015433Y032576
X015827Y03258
X016028Y031997
X016217Y032584
X017418Y030875
X017988Y030958
X018256Y032442
X019418Y032139
X019626Y030666
X019961Y031969
X020229Y030721
X020485Y03071
X02068Y032102
X02162Y032102
X022945Y030461
X023192Y030541
X023402Y030925
X023468Y031876
X023632Y030925
X023677Y032681
X024067Y032689
X024126Y030555
X024465Y032685
X024894Y030438
X026726Y031048
X028883Y032505
X028913Y031863
X028913Y03112
X024886Y032981
X024462Y033003
X024074Y033003
X023675Y032993
X02323Y033002
X02298Y033004
X022739Y033009
X022492Y033005
X022275Y033005
X022051Y033005
X016217Y032993
X015823Y032993
X015433Y03297
X015038Y032962
X01464Y03297
X014216Y032972
X01393Y032975
X013655Y032965
X013359Y032975
X012994Y032982
X012698Y032985
X012378Y032986
X01208Y032975
X011764Y032976
T2C.02362F197S55
X011226Y013966
X011226Y015887
T3C.032F197S55
X016772Y010703
X017772Y010703
X018772Y010703
X019772Y010703
M30
