*
*
G04 PADS 9.5 Build Number: 522968 generated Gerber (RS-274-X) file*
G04 PC Version=2.1*
*
%IN "LK02 Main board V0.3.pc"*%
*
%MOIN*%
*
%FSLAX35Y35*%
*
*
*
*
G04 PC Standard Apertures*
*
*
G04 Thermal Relief Aperture macro.*
%AMTER*
1,1,$1,0,0*
1,0,$1-$2,0,0*
21,0,$3,$4,0,0,45*
21,0,$3,$4,0,0,135*
%
*
*
G04 Annular Aperture macro.*
%AMANN*
1,1,$1,0,0*
1,0,$2,0,0*
%
*
*
G04 Odd Aperture macro.*
%AMODD*
1,1,$1,0,0*
1,0,$1-0.005,0,0*
%
*
*
G04 PC Custom Aperture Macros*
*
*
*
*
*
*
G04 PC Aperture Table*
*
%ADD010C,0.001*%
%ADD022R,0.05709X0.02165*%
%ADD023C,0.01969*%
%ADD026C,0.0315*%
%ADD030C,0.01*%
%ADD052R,0.02X0.02*%
%ADD056O,0.02756X0.09843*%
%ADD057O,0.04724X0.0122*%
%ADD058O,0.0122X0.04724*%
%ADD064R,0.06299X0.07087*%
%ADD066R,0.05512X0.11417*%
%ADD069O,0.00984X0.0315*%
%ADD070O,0.0315X0.00984*%
%ADD071R,0.12992X0.12992*%
%ADD073R,0.07087X0.06299*%
%ADD077O,0.02362X0.01575*%
%ADD078R,0.02165X0.05709*%
%ADD079O,0.09843X0.02756*%
%ADD080R,0.0315X0.06299*%
%ADD090C,0.04724*%
%ADD161R,0.09449X0.02953*%
%ADD162R,0.03543X0.0374*%
%ADD174R,0.03X0.038*%
%ADD175R,0.038X0.03*%
%ADD176R,0.04724X0.02756*%
%ADD187R,0.01968X0.05606*%
%ADD191R,0.01X0.07874*%
%ADD192O,0.01X0.07874*%
%ADD193R,0.07087X0.11811*%
*
*
*
*
G04 PC Circuitry*
G04 Layer Name LK02 Main board V0.3.pc - circuitry*
%LPD*%
*
*
G04 PC Custom Flashes*
G04 Layer Name LK02 Main board V0.3.pc - flashes*
%LPD*%
*
*
G04 PC Circuitry*
G04 Layer Name LK02 Main board V0.3.pc - circuitry*
%LPD*%
*
G54D10*
G01X1771749Y1800990D02*
Y1582728D01*
X1771749D02*
G75*
G03X1779624Y1574854I7875J-0D01*
G01X1960726*
G03X1968600Y1582728I-0J7874*
G01Y1801006*
G03X1961190Y1808417I-7410J0*
G01X1779176*
G03X1771749Y1800990I0J-7427*
G01X1789860Y1763830D02*
G03X1789860I-4331J0D01*
G01X1959151D02*
G03X1959151I-4331J0D01*
G01X1810450Y1671114D02*
G03X1810450I-7480J0D01*
G01X1914781Y1671035D02*
G03X1914781I-7480J0D01*
G01X1789860Y1582728D02*
G03X1789860I-4331J0D01*
G01X1959151D02*
G03X1959151I-4331J0D01*
G01X1771704Y1582727D02*
X1771706D01*
X1968554D02*
X1968557D01*
X1779578Y1574853D02*
X1779580D01*
X1779130Y1808416D02*
X1779133D01*
G54D22*
X1789260Y1791120D03*
Y1794860D03*
Y1798600D03*
X1780796D03*
Y1791120D03*
X1873935Y1703554D03*
Y1699814D03*
Y1696074D03*
X1882399D03*
Y1703554D03*
X1787635Y1661389D03*
Y1665129D03*
Y1668869D03*
X1779171D03*
Y1661389D03*
X1891926Y1708870D03*
Y1712610D03*
Y1716350D03*
X1883462D03*
Y1708870D03*
X1861265Y1724224D03*
Y1727964D03*
Y1731704D03*
X1852801D03*
Y1724224D03*
G54D23*
X1771704Y1800989D02*
Y1582727D01*
G03X1779578Y1574853I7874J0*
G01X1960680*
G03X1968554Y1582727I-0J7874*
G01Y1801006*
G03X1961144Y1808416I-7410J-0*
G01X1779130*
G03X1771704Y1800989I0J-7427*
G01X1789814Y1763830D02*
G03X1789814I-4331J0D01*
G01X1959105D02*
G03X1959105I-4331J0D01*
G01X1810404Y1671113D02*
G03X1810404I-7480J0D01*
G01X1914735Y1671034D02*
G03X1914735I-7480J0D01*
G01X1789814Y1582727D02*
G03X1789814I-4331J0D01*
G01X1959105D02*
G03X1959105I-4331J0D01*
G54D26*
G01X1882112Y1663968D03*
X1870982Y1671317D03*
X1867568Y1755554D03*
G54D30*
X1771704Y1552743D02*
X1854371D01*
X1771704D02*
X1781704Y1555243D01*
Y1550243*
X1771704Y1552743*
X1968554D02*
X1885887D01*
X1968554D02*
X1958554Y1550243D01*
Y1555243*
X1968554Y1552743*
X1771704Y1577727D02*
Y1547743D01*
X1968554Y1577727D02*
Y1547743D01*
X1857401Y1555555D02*
X1855129D01*
X1854901Y1552743*
X1855129Y1553055*
X1855811Y1553368*
X1856492*
X1857174Y1553055*
X1857629Y1552430*
X1857856Y1551493*
X1857629Y1550868*
X1857401Y1549930*
X1856947Y1549305*
X1856265Y1548993*
X1855583*
X1854901Y1549305*
X1854674Y1549618*
X1854447Y1550243*
X1861265Y1555555D02*
X1860583Y1555243D01*
X1860129Y1554305*
X1859901Y1552743*
Y1551805*
X1860129Y1550243*
X1860583Y1549305*
X1861265Y1548993*
X1861720*
X1862401Y1549305*
X1862856Y1550243*
X1863083Y1551805*
Y1552743*
X1862856Y1554305*
X1862401Y1555243*
X1861720Y1555555*
X1861265*
X1865356Y1549618D02*
X1865129Y1549305D01*
X1865356Y1548993*
X1865583Y1549305*
X1865356Y1549618*
X1868992Y1555555D02*
X1868311Y1555243D01*
X1867856Y1554305*
X1867629Y1552743*
Y1551805*
X1867856Y1550243*
X1868311Y1549305*
X1868992Y1548993*
X1869447*
X1870129Y1549305*
X1870583Y1550243*
X1870811Y1551805*
Y1552743*
X1870583Y1554305*
X1870129Y1555243*
X1869447Y1555555*
X1868992*
X1872856Y1553368D02*
Y1548993D01*
Y1552118D02*
X1873538Y1553055D01*
X1873992Y1553368*
X1874674*
X1875129Y1553055*
X1875356Y1552118*
Y1548993*
Y1552118D02*
X1876038Y1553055D01*
X1876492Y1553368*
X1877174*
X1877629Y1553055*
X1877856Y1552118*
Y1548993*
X1879901Y1553368D02*
Y1548993D01*
Y1552118D02*
X1880583Y1553055D01*
X1881038Y1553368*
X1881720*
X1882174Y1553055*
X1882401Y1552118*
Y1548993*
Y1552118D02*
X1883083Y1553055D01*
X1883538Y1553368*
X1884220*
X1884674Y1553055*
X1884901Y1552118*
Y1548993*
X1752825Y1574853D02*
Y1680938D01*
Y1574853D02*
X1750325Y1584853D01*
X1755325*
X1752825Y1574853*
Y1808416D02*
Y1688590D01*
Y1808416D02*
X1755325Y1798416D01*
X1750325*
X1752825Y1808416*
X1774578Y1574853D02*
X1747825D01*
X1774130Y1808416D02*
X1747825D01*
X1737093Y1687576D02*
X1734820D01*
X1734593Y1684764*
X1734820Y1685076*
X1735502Y1685389*
X1736184*
X1736866Y1685076*
X1737320Y1684451*
X1737547Y1683514*
X1737320Y1682889*
X1737093Y1681951*
X1736638Y1681326*
X1735957Y1681014*
X1735275*
X1734593Y1681326*
X1734366Y1681639*
X1734138Y1682264*
X1742547Y1685389D02*
X1742320Y1684451D01*
X1741866Y1683826*
X1741184Y1683514*
X1740957*
X1740275Y1683826*
X1739820Y1684451*
X1739593Y1685389*
Y1685701*
X1739820Y1686639*
X1740275Y1687264*
X1740957Y1687576*
X1741184*
X1741866Y1687264*
X1742320Y1686639*
X1742547Y1685389*
Y1683826*
X1742320Y1682264*
X1741866Y1681326*
X1741184Y1681014*
X1740729*
X1740047Y1681326*
X1739820Y1681951*
X1744820Y1681639D02*
X1744593Y1681326D01*
X1744820Y1681014*
X1745047Y1681326*
X1744820Y1681639*
X1747547Y1687576D02*
X1750047D01*
X1748684Y1685076*
X1749366*
X1749820Y1684764*
X1750047Y1684451*
X1750275Y1683514*
Y1682889*
X1750047Y1681951*
X1749593Y1681326*
X1748911Y1681014*
X1748229*
X1747547Y1681326*
X1747320Y1681639*
X1747093Y1682264*
X1752320Y1685389D02*
Y1681014D01*
Y1684139D02*
X1753002Y1685076D01*
X1753457Y1685389*
X1754138*
X1754593Y1685076*
X1754820Y1684139*
Y1681014*
Y1684139D02*
X1755502Y1685076D01*
X1755957Y1685389*
X1756638*
X1757093Y1685076*
X1757320Y1684139*
Y1681014*
X1759366Y1685389D02*
Y1681014D01*
Y1684139D02*
X1760047Y1685076D01*
X1760502Y1685389*
X1761184*
X1761638Y1685076*
X1761866Y1684139*
Y1681014*
Y1684139D02*
X1762547Y1685076D01*
X1763002Y1685389*
X1763684*
X1764138Y1685076*
X1764366Y1684139*
Y1681014*
G54D52*
X1821576Y1594958D03*
Y1598558D03*
X1902917Y1624774D03*
X1906517D03*
X1898483Y1607809D03*
X1894883D03*
X1895001Y1631293D03*
X1898601D03*
X1869706Y1646336D03*
Y1649936D03*
X1927412Y1650009D03*
X1923812D03*
X1881686Y1675175D03*
X1878086D03*
X1782949Y1786745D03*
X1779349D03*
X1933235Y1661683D03*
Y1658083D03*
X1874770Y1761870D03*
Y1758270D03*
X1802439Y1615435D03*
Y1619035D03*
X1878341Y1726519D03*
Y1722919D03*
X1820193Y1638826D03*
Y1635226D03*
X1829310Y1670409D03*
X1825710D03*
X1825744Y1666881D03*
X1829344D03*
X1847592Y1677877D03*
X1843992D03*
X1898455Y1601587D03*
X1894855D03*
X1957347Y1655403D03*
X1960947D03*
X1797146Y1619035D03*
Y1615435D03*
X1800835Y1622909D03*
X1797235D03*
X1797200Y1626707D03*
Y1630307D03*
X1918298Y1717345D03*
Y1713745D03*
X1888407Y1722978D03*
Y1726578D03*
X1884654Y1726584D03*
Y1722984D03*
X1889589Y1735718D03*
Y1732118D03*
X1897522Y1740976D03*
X1893922D03*
X1851112Y1719283D03*
X1854712D03*
X1846797Y1727832D03*
X1843197D03*
X1846782Y1731402D03*
X1843182D03*
X1843260Y1724022D03*
X1846860D03*
X1858250Y1750564D03*
Y1746964D03*
X1858313Y1760111D03*
Y1756511D03*
X1872980Y1766969D03*
X1869380D03*
X1845811Y1777220D03*
X1849411D03*
X1853685Y1780969D03*
Y1777369D03*
X1849446Y1781069D03*
X1845846D03*
X1841431Y1777386D03*
Y1780986D03*
X1891327Y1777177D03*
X1894927D03*
X1844162Y1609578D03*
X1847762D03*
X1778761Y1673515D03*
X1782361D03*
X1844123Y1605877D03*
X1847723D03*
X1833521Y1618211D03*
Y1621811D03*
X1874190Y1710731D03*
Y1714331D03*
X1878009Y1710770D03*
Y1714370D03*
X1915612Y1767038D03*
X1912012D03*
X1901209Y1777019D03*
X1904809D03*
X1797143Y1637992D03*
Y1634392D03*
X1843707Y1713673D03*
X1840107D03*
X1874904Y1595935D03*
Y1592335D03*
X1902814Y1628041D03*
X1906414D03*
X1869409Y1774558D03*
X1873009D03*
X1872985Y1770634D03*
X1869385D03*
X1911568Y1770992D03*
Y1774592D03*
X1916047Y1774531D03*
Y1770931D03*
G54D56*
X1834017Y1651029D03*
X1839017D03*
X1844017D03*
X1849017D03*
Y1670321D03*
X1844017D03*
X1839017D03*
X1834017D03*
X1852534Y1768039D03*
X1847534D03*
X1842534D03*
X1837534D03*
Y1748747D03*
X1842534D03*
X1847534D03*
X1852534D03*
X1848871Y1705190D03*
X1843871D03*
X1838871D03*
X1833871D03*
Y1685898D03*
X1838871D03*
X1843871D03*
X1848871D03*
G54D57*
X1888640Y1609457D03*
Y1611426D03*
Y1613394D03*
Y1615363D03*
Y1617331D03*
Y1619300D03*
Y1621268D03*
Y1623237D03*
Y1625205D03*
Y1627174D03*
Y1629142D03*
Y1631111D03*
X1855176D03*
Y1629142D03*
Y1627174D03*
Y1625205D03*
Y1623237D03*
Y1621268D03*
Y1619300D03*
Y1617331D03*
Y1615363D03*
Y1613394D03*
Y1611426D03*
Y1609457D03*
G54D58*
X1882735Y1637016D03*
X1880766D03*
X1878798D03*
X1876829D03*
X1874861D03*
X1872892D03*
X1870924D03*
X1868955D03*
X1866987D03*
X1865018D03*
X1863050D03*
X1861081D03*
Y1603552D03*
X1863050D03*
X1865018D03*
X1866987D03*
X1868955D03*
X1870924D03*
X1872892D03*
X1874861D03*
X1876829D03*
X1878798D03*
X1880766D03*
X1882735D03*
G54D64*
X1926515Y1690146D03*
X1937539D03*
X1778815Y1653297D03*
X1789839D03*
X1799055Y1583862D03*
X1810079D03*
G54D66*
X1899747Y1794609D03*
X1930849D03*
X1809427Y1795206D03*
X1840529D03*
G54D69*
X1812694Y1609893D03*
X1814663D03*
X1816631D03*
X1818600D03*
X1820568D03*
X1822537D03*
X1824505D03*
X1826474D03*
Y1629579D03*
X1824505D03*
X1822537D03*
X1820568D03*
X1818600D03*
X1816631D03*
X1814663D03*
X1812694D03*
G54D70*
X1809741Y1626626D03*
Y1624657D03*
Y1622689D03*
Y1620720D03*
Y1618752D03*
Y1616783D03*
Y1614815D03*
Y1612846D03*
X1829427D03*
Y1614815D03*
Y1616783D03*
Y1618752D03*
Y1620720D03*
Y1622689D03*
Y1624657D03*
Y1626626D03*
G54D71*
X1819584Y1619736D03*
G54D73*
X1828037Y1598240D03*
Y1587216D03*
X1912436Y1651414D03*
Y1640390D03*
G54D77*
X1902544Y1740562D03*
Y1736822D03*
Y1733082D03*
X1914356D03*
Y1736822D03*
Y1740562D03*
X1908450Y1736822D03*
X1902387Y1725720D03*
Y1721980D03*
Y1718240D03*
X1914199D03*
Y1721980D03*
Y1725720D03*
X1908293Y1721980D03*
G54D78*
X1881828Y1689046D03*
X1878088D03*
X1874348D03*
Y1680582D03*
X1881828D03*
G54D79*
X1902063Y1756991D03*
Y1761991D03*
Y1766991D03*
Y1771991D03*
X1882771D03*
Y1766991D03*
Y1761991D03*
Y1756991D03*
G54D80*
X1863509Y1766197D03*
Y1779583D03*
G54D90*
X1874303Y1581466D03*
X1828317Y1637642D03*
X1808940Y1645267D03*
X1870083Y1660117D03*
X1775986Y1774217D03*
X1815232Y1780088D03*
X1861249Y1738308D03*
X1944041Y1787881D03*
X1884303Y1581466D03*
X1894303D03*
X1904303D03*
X1914303D03*
G54D161*
X1939702Y1642728D03*
Y1637610D03*
Y1632492D03*
Y1627373D03*
Y1622255D03*
Y1617137D03*
Y1612019D03*
Y1606901D03*
Y1601783D03*
Y1596665D03*
Y1591547D03*
Y1586429D03*
X1924348D03*
Y1591547D03*
Y1596665D03*
Y1601783D03*
Y1606901D03*
Y1612019D03*
Y1617137D03*
Y1622255D03*
Y1627373D03*
Y1632492D03*
Y1637610D03*
Y1642728D03*
G54D162*
X1943369Y1653094D03*
X1950849D03*
X1947109Y1662936D03*
X1963151Y1645331D03*
X1955671D03*
X1959411Y1635489D03*
G54D174*
X1824907Y1689215D03*
Y1695415D03*
X1926179Y1676059D03*
Y1682259D03*
X1938020Y1661279D03*
Y1655079D03*
X1873953Y1726433D03*
Y1720233D03*
X1948553Y1638080D03*
Y1631880D03*
X1893875Y1734738D03*
Y1728538D03*
X1894761Y1691903D03*
Y1698103D03*
X1856290Y1645024D03*
Y1651224D03*
G54D175*
X1925624Y1658580D03*
X1919424D03*
X1956479Y1650795D03*
X1962679D03*
G54D176*
X1884634Y1732837D03*
Y1736577D03*
Y1740357D03*
X1873729D03*
Y1736577D03*
Y1732837D03*
G54D187*
X1906440Y1789291D03*
X1908408Y1799927D03*
X1910377Y1789291D03*
X1912345Y1799927D03*
X1914314Y1789291D03*
X1916282Y1799927D03*
X1918251Y1789291D03*
X1920219Y1799927D03*
X1922188Y1789291D03*
X1924156Y1799927D03*
X1816120Y1789888D03*
X1818088Y1800523D03*
X1820057Y1789888D03*
X1822025Y1800523D03*
X1823994Y1789888D03*
X1825962Y1800523D03*
X1827931Y1789888D03*
X1829899Y1800523D03*
X1831868Y1789888D03*
X1833836Y1800523D03*
G54D191*
X1876082Y1788674D03*
G54D192*
X1874114D03*
X1872145D03*
X1870177D03*
X1868208D03*
G54D193*
X1883169Y1796548D03*
X1861122D03*
G74*
X0Y0D02*
M02*
