*
*
G04 PADS 9.5 Build Number: 522968 generated Gerber (RS-274-X) file*
G04 PC Version=2.1*
*
%IN "LK02 Main board V0.3.pc"*%
*
%MOIN*%
*
%FSLAX35Y35*%
*
*
*
*
G04 PC Standard Apertures*
*
*
G04 Thermal Relief Aperture macro.*
%AMTER*
1,1,$1,0,0*
1,0,$1-$2,0,0*
21,0,$3,$4,0,0,45*
21,0,$3,$4,0,0,135*
%
*
*
G04 Annular Aperture macro.*
%AMANN*
1,1,$1,0,0*
1,0,$2,0,0*
%
*
*
G04 Odd Aperture macro.*
%AMODD*
1,1,$1,0,0*
1,0,$1-0.005,0,0*
%
*
*
G04 PC Custom Aperture Macros*
*
*
*
*
*
*
G04 PC Aperture Table*
*
%ADD010C,0.001*%
%ADD021R,0.06299X0.1063*%
%ADD023C,0.01969*%
%ADD030C,0.01*%
%ADD052R,0.02X0.02*%
%ADD054R,0.036X0.036*%
%ADD055R,0.036X0.05*%
%ADD063R,0.0374X0.03543*%
%ADD064R,0.06299X0.07087*%
%ADD073R,0.07087X0.06299*%
%ADD076R,0.06299X0.03937*%
%ADD096R,0.02362X0.00984*%
%ADD097R,0.03543X0.06299*%
%ADD099R,0.07087X0.09449*%
%ADD162R,0.03543X0.0374*%
%ADD163R,0.04724X0.01181*%
%ADD164R,0.08661X0.11811*%
%ADD165R,0.02756X0.03937*%
%ADD174R,0.03X0.038*%
%ADD175R,0.038X0.03*%
%ADD180R,0.02756X0.04724*%
%ADD195R,0.06299X0.15748*%
*
*
*
*
G04 PC Circuitry*
G04 Layer Name LK02 Main board V0.3.pc - circuitry*
%LPD*%
*
*
G04 PC Custom Flashes*
G04 Layer Name LK02 Main board V0.3.pc - flashes*
%LPD*%
*
*
G04 PC Circuitry*
G04 Layer Name LK02 Main board V0.3.pc - circuitry*
%LPD*%
*
G54D10*
G01X1771749Y1800990D02*
Y1582728D01*
X1771749D02*
G75*
G03X1779624Y1574854I7875J-0D01*
G01X1960726*
G03X1968600Y1582728I-0J7874*
G01Y1801006*
G03X1961190Y1808417I-7410J0*
G01X1779176*
G03X1771749Y1800990I0J-7427*
G01X1789860Y1763830D02*
G03X1789860I-4331J0D01*
G01X1959151D02*
G03X1959151I-4331J0D01*
G01X1810450Y1671114D02*
G03X1810450I-7480J0D01*
G01X1914781Y1671035D02*
G03X1914781I-7480J0D01*
G01X1789860Y1582728D02*
G03X1789860I-4331J0D01*
G01X1959151D02*
G03X1959151I-4331J0D01*
G01X1771704Y1582727D02*
X1771706D01*
X1968554D02*
X1968557D01*
X1779578Y1574853D02*
X1779580D01*
X1779130Y1808416D02*
X1779133D01*
G54D21*
X1931316Y1732688D03*
X1942340D03*
G54D23*
X1771704Y1800989D02*
Y1582727D01*
G03X1779578Y1574853I7874J0*
G01X1960680*
G03X1968554Y1582727I-0J7874*
G01Y1801006*
G03X1961144Y1808416I-7410J-0*
G01X1779130*
G03X1771704Y1800989I0J-7427*
G01X1789814Y1763830D02*
G03X1789814I-4331J0D01*
G01X1959105D02*
G03X1959105I-4331J0D01*
G01X1810404Y1671113D02*
G03X1810404I-7480J0D01*
G01X1914735Y1671034D02*
G03X1914735I-7480J0D01*
G01X1789814Y1582727D02*
G03X1789814I-4331J0D01*
G01X1959105D02*
G03X1959105I-4331J0D01*
G54D30*
G01X1771704Y1552743D02*
X1854371D01*
X1771704D02*
X1781704Y1555243D01*
Y1550243*
X1771704Y1552743*
X1968554D02*
X1885887D01*
X1968554D02*
X1958554Y1550243D01*
Y1555243*
X1968554Y1552743*
X1771704Y1577727D02*
Y1547743D01*
X1968554Y1577727D02*
Y1547743D01*
X1857401Y1555555D02*
X1855129D01*
X1854901Y1552743*
X1855129Y1553055*
X1855811Y1553368*
X1856492*
X1857174Y1553055*
X1857629Y1552430*
X1857856Y1551493*
X1857629Y1550868*
X1857401Y1549930*
X1856947Y1549305*
X1856265Y1548993*
X1855583*
X1854901Y1549305*
X1854674Y1549618*
X1854447Y1550243*
X1861265Y1555555D02*
X1860583Y1555243D01*
X1860129Y1554305*
X1859901Y1552743*
Y1551805*
X1860129Y1550243*
X1860583Y1549305*
X1861265Y1548993*
X1861720*
X1862401Y1549305*
X1862856Y1550243*
X1863083Y1551805*
Y1552743*
X1862856Y1554305*
X1862401Y1555243*
X1861720Y1555555*
X1861265*
X1865356Y1549618D02*
X1865129Y1549305D01*
X1865356Y1548993*
X1865583Y1549305*
X1865356Y1549618*
X1868992Y1555555D02*
X1868311Y1555243D01*
X1867856Y1554305*
X1867629Y1552743*
Y1551805*
X1867856Y1550243*
X1868311Y1549305*
X1868992Y1548993*
X1869447*
X1870129Y1549305*
X1870583Y1550243*
X1870811Y1551805*
Y1552743*
X1870583Y1554305*
X1870129Y1555243*
X1869447Y1555555*
X1868992*
X1872856Y1553368D02*
Y1548993D01*
Y1552118D02*
X1873538Y1553055D01*
X1873992Y1553368*
X1874674*
X1875129Y1553055*
X1875356Y1552118*
Y1548993*
Y1552118D02*
X1876038Y1553055D01*
X1876492Y1553368*
X1877174*
X1877629Y1553055*
X1877856Y1552118*
Y1548993*
X1879901Y1553368D02*
Y1548993D01*
Y1552118D02*
X1880583Y1553055D01*
X1881038Y1553368*
X1881720*
X1882174Y1553055*
X1882401Y1552118*
Y1548993*
Y1552118D02*
X1883083Y1553055D01*
X1883538Y1553368*
X1884220*
X1884674Y1553055*
X1884901Y1552118*
Y1548993*
X1752825Y1574853D02*
Y1680938D01*
Y1574853D02*
X1750325Y1584853D01*
X1755325*
X1752825Y1574853*
Y1808416D02*
Y1688590D01*
Y1808416D02*
X1755325Y1798416D01*
X1750325*
X1752825Y1808416*
X1774578Y1574853D02*
X1747825D01*
X1774130Y1808416D02*
X1747825D01*
X1737093Y1687576D02*
X1734820D01*
X1734593Y1684764*
X1734820Y1685076*
X1735502Y1685389*
X1736184*
X1736866Y1685076*
X1737320Y1684451*
X1737547Y1683514*
X1737320Y1682889*
X1737093Y1681951*
X1736638Y1681326*
X1735957Y1681014*
X1735275*
X1734593Y1681326*
X1734366Y1681639*
X1734138Y1682264*
X1742547Y1685389D02*
X1742320Y1684451D01*
X1741866Y1683826*
X1741184Y1683514*
X1740957*
X1740275Y1683826*
X1739820Y1684451*
X1739593Y1685389*
Y1685701*
X1739820Y1686639*
X1740275Y1687264*
X1740957Y1687576*
X1741184*
X1741866Y1687264*
X1742320Y1686639*
X1742547Y1685389*
Y1683826*
X1742320Y1682264*
X1741866Y1681326*
X1741184Y1681014*
X1740729*
X1740047Y1681326*
X1739820Y1681951*
X1744820Y1681639D02*
X1744593Y1681326D01*
X1744820Y1681014*
X1745047Y1681326*
X1744820Y1681639*
X1747547Y1687576D02*
X1750047D01*
X1748684Y1685076*
X1749366*
X1749820Y1684764*
X1750047Y1684451*
X1750275Y1683514*
Y1682889*
X1750047Y1681951*
X1749593Y1681326*
X1748911Y1681014*
X1748229*
X1747547Y1681326*
X1747320Y1681639*
X1747093Y1682264*
X1752320Y1685389D02*
Y1681014D01*
Y1684139D02*
X1753002Y1685076D01*
X1753457Y1685389*
X1754138*
X1754593Y1685076*
X1754820Y1684139*
Y1681014*
Y1684139D02*
X1755502Y1685076D01*
X1755957Y1685389*
X1756638*
X1757093Y1685076*
X1757320Y1684139*
Y1681014*
X1759366Y1685389D02*
Y1681014D01*
Y1684139D02*
X1760047Y1685076D01*
X1760502Y1685389*
X1761184*
X1761638Y1685076*
X1761866Y1684139*
Y1681014*
Y1684139D02*
X1762547Y1685076D01*
X1763002Y1685389*
X1763684*
X1764138Y1685076*
X1764366Y1684139*
Y1681014*
G54D52*
X1857289Y1784353D03*
X1853689D03*
X1795962Y1731978D03*
Y1735578D03*
X1813608Y1771381D03*
Y1767781D03*
X1803519Y1755701D03*
X1807119D03*
X1796014Y1748431D03*
X1792414D03*
X1796063Y1755889D03*
X1792463D03*
X1792442Y1752110D03*
X1796042D03*
X1939107Y1782296D03*
X1942707D03*
X1864648Y1767546D03*
X1861048D03*
X1965608Y1695928D03*
Y1699528D03*
X1962025Y1699567D03*
Y1695967D03*
X1965557Y1692295D03*
X1961957D03*
X1908149Y1626933D03*
Y1630533D03*
X1948387Y1681750D03*
X1951987D03*
X1947312Y1712767D03*
X1950912D03*
X1959112Y1735040D03*
Y1731440D03*
X1946152Y1768681D03*
Y1772281D03*
X1963687Y1731411D03*
Y1735011D03*
X1946136Y1759591D03*
Y1763191D03*
X1931934Y1782203D03*
X1935534D03*
X1924656Y1782112D03*
X1928256D03*
X1924445Y1786081D03*
X1928045D03*
G54D54*
X1853565Y1771477D03*
X1861065D03*
G54D55*
X1857315Y1779477D03*
G54D63*
X1940769Y1742339D03*
Y1749819D03*
X1950611Y1746079D03*
G54D64*
X1796343Y1763459D03*
X1807367D03*
X1796261Y1775828D03*
X1807285D03*
X1949743Y1672352D03*
X1960767D03*
X1940387Y1766227D03*
X1929363D03*
X1940295Y1775491D03*
X1929271D03*
X1940278Y1757125D03*
X1929254D03*
X1947331Y1706150D03*
X1958355D03*
G54D73*
X1914695Y1622225D03*
Y1633249D03*
X1783657Y1728613D03*
Y1739637D03*
X1951594Y1734062D03*
Y1723038D03*
G54D76*
X1948203Y1623965D03*
Y1634965D03*
G54D96*
X1948985Y1688380D03*
Y1690348D03*
Y1692317D03*
Y1694285D03*
X1956466D03*
Y1692317D03*
Y1690348D03*
Y1688380D03*
G54D97*
X1952725Y1691332D03*
G54D99*
X1821487Y1753356D03*
Y1769498D03*
G54D162*
X1925647Y1750759D03*
X1933127D03*
X1929387Y1740917D03*
G54D163*
X1939112Y1633476D03*
Y1630405D03*
X1939151Y1627255D03*
Y1624145D03*
X1922970D03*
Y1627255D03*
Y1630405D03*
Y1633515D03*
G54D164*
X1931041Y1628830D03*
G54D165*
X1824536Y1731419D03*
X1820796D03*
X1817056D03*
Y1741655D03*
X1820796D03*
X1824536D03*
G54D174*
X1902786Y1629027D03*
Y1622827D03*
X1790788Y1731542D03*
Y1737742D03*
X1937601Y1697802D03*
Y1691602D03*
X1962352Y1681440D03*
Y1687640D03*
G54D175*
X1808706Y1750398D03*
X1802506D03*
G54D180*
X1801542Y1743456D03*
X1805282D03*
X1809061D03*
Y1732551D03*
X1805282D03*
X1801542D03*
G54D195*
X1821987Y1712831D03*
X1796791D03*
G74*
X0Y0D02*
M02*
