*
*
G04 PADS 9.5 Build Number: 522968 generated Gerber (RS-274-X) file*
G04 PC Version=2.1*
*
%IN "LK02 Main board V0.3.pc"*%
*
%MOIN*%
*
%FSLAX35Y35*%
*
*
*
*
G04 PC Standard Apertures*
*
*
G04 Thermal Relief Aperture macro.*
%AMTER*
1,1,$1,0,0*
1,0,$1-$2,0,0*
21,0,$3,$4,0,0,45*
21,0,$3,$4,0,0,135*
%
*
*
G04 Annular Aperture macro.*
%AMANN*
1,1,$1,0,0*
1,0,$2,0,0*
%
*
*
G04 Odd Aperture macro.*
%AMODD*
1,1,$1,0,0*
1,0,$1-0.005,0,0*
%
*
*
G04 PC Custom Aperture Macros*
*
*
*
*
*
*
G04 PC Aperture Table*
*
%ADD010C,0.001*%
%ADD023C,0.01969*%
%ADD024C,0.01181*%
%ADD025C,0.00787*%
%ADD028C,0.00591*%
%ADD030C,0.01*%
%ADD031C,0.00394*%
%ADD050C,0.005*%
%ADD051C,0.00315*%
%ADD150C,0.004*%
%ADD155C,0.00787*%
%ADD159C,0.00984*%
*
*
*
*
G04 PC Circuitry*
G04 Layer Name LK02 Main board V0.3.pc - circuitry*
%LPD*%
*
*
G04 PC Custom Flashes*
G04 Layer Name LK02 Main board V0.3.pc - flashes*
%LPD*%
*
*
G04 PC Circuitry*
G04 Layer Name LK02 Main board V0.3.pc - circuitry*
%LPD*%
*
G54D10*
G01X1771749Y1800990D02*
Y1582728D01*
X1771749D02*
G75*
G03X1779624Y1574854I7875J-0D01*
G01X1960726*
G03X1968600Y1582728I-0J7874*
G01Y1801006*
G03X1961190Y1808417I-7410J0*
G01X1779176*
G03X1771749Y1800990I0J-7427*
G01X1789860Y1763830D02*
G03X1789860I-4331J0D01*
G01X1959151D02*
G03X1959151I-4331J0D01*
G01X1810450Y1671114D02*
G03X1810450I-7480J0D01*
G01X1914781Y1671035D02*
G03X1914781I-7480J0D01*
G01X1789860Y1582728D02*
G03X1789860I-4331J0D01*
G01X1959151D02*
G03X1959151I-4331J0D01*
G01X1771704Y1582727D02*
X1771706D01*
X1968554D02*
X1968557D01*
X1779578Y1574853D02*
X1779580D01*
X1779130Y1808416D02*
X1779133D01*
G54D23*
X1771704Y1800989D02*
Y1582727D01*
G03X1779578Y1574853I7874J0*
G01X1960680*
G03X1968554Y1582727I-0J7874*
G01Y1801006*
G03X1961144Y1808416I-7410J-0*
G01X1779130*
G03X1771704Y1800989I0J-7427*
G01X1789814Y1763830D02*
G03X1789814I-4331J0D01*
G01X1959105D02*
G03X1959105I-4331J0D01*
G01X1810404Y1671113D02*
G03X1810404I-7480J0D01*
G01X1914735Y1671034D02*
G03X1914735I-7480J0D01*
G01X1789814Y1582727D02*
G03X1789814I-4331J0D01*
G01X1959105D02*
G03X1959105I-4331J0D01*
G54D24*
G01X1951159Y1689639D02*
G03X1951159I-874J0D01*
G01X1939429Y1635759D02*
G03X1939429I-1380J0D01*
G54D25*
G01X1801351Y1739956D02*
G03X1801351I-559J0D01*
G01X1948395Y1687789D02*
Y1694876D01*
X1957056*
Y1687789*
X1948395*
X1952534Y1628115D02*
Y1621403D01*
X1943872D02*
G03X1952534I4331J6027D01*
G01X1943872D02*
Y1628115D01*
X1952534Y1630815D02*
Y1637638D01*
G03X1943872I-4331J-6255*
G01Y1630815*
X1940490Y1638279D02*
X1921592D01*
Y1619381*
X1940490*
Y1638279*
X1855432Y1599892D02*
Y1594725D01*
X1853285*
X1851674Y1599892D02*
Y1594725D01*
X1849169Y1599892D02*
X1851674Y1596447D01*
X1850779Y1597678D02*
X1849169Y1594725D01*
X1846485Y1599892D02*
X1847021Y1599646D01*
X1847379Y1598908*
X1847558Y1597678*
Y1596939*
X1847379Y1595709*
X1847021Y1594971*
X1846485Y1594725*
X1846127*
X1845590Y1594971*
X1845232Y1595709*
X1845053Y1596939*
Y1597678*
X1845232Y1598908*
X1845590Y1599646*
X1846127Y1599892*
X1846485*
X1843263Y1598662D02*
Y1598908D01*
X1843084Y1599400*
X1842905Y1599646*
X1842548Y1599892*
X1841832*
X1841474Y1599646*
X1841295Y1599400*
X1841116Y1598908*
Y1598416*
X1841295Y1597924*
X1841653Y1597185*
X1843442Y1594725*
X1840937*
X1835210Y1599892D02*
Y1594725D01*
Y1599892D02*
X1833779Y1594725D01*
X1832347Y1599892D02*
X1833779Y1594725D01*
X1832347Y1599892D02*
Y1594725D01*
X1828589Y1598170D02*
Y1594725D01*
Y1597432D02*
X1828947Y1597924D01*
X1829305Y1598170*
X1829842*
X1830200Y1597924*
X1830558Y1597432*
X1830736Y1596693*
Y1596201*
X1830558Y1595463*
X1830200Y1594971*
X1829842Y1594725*
X1829305*
X1828947Y1594971*
X1828589Y1595463*
X1826978Y1599892D02*
X1826799Y1599646D01*
X1826621Y1599892*
X1826799Y1600138*
X1826978Y1599892*
X1826799Y1598170D02*
Y1594725D01*
X1825010Y1598170D02*
Y1594725D01*
Y1597185D02*
X1824473Y1597924D01*
X1824115Y1598170*
X1823578*
X1823220Y1597924*
X1823041Y1597185*
Y1594725*
X1817315Y1599892D02*
Y1594725D01*
Y1599892D02*
X1815704D01*
X1815167Y1599646*
X1814988Y1599400*
X1814809Y1598908*
X1814809D02*
Y1598170D01*
X1814809D02*
X1814988Y1597678D01*
X1815167Y1597432*
X1815704Y1597185*
X1817315*
X1810515Y1598662D02*
X1810694Y1599154D01*
X1811051Y1599646*
X1811409Y1599892*
X1812125*
X1812483Y1599646*
X1812841Y1599154*
X1813020Y1598662*
X1813199Y1597924*
Y1596693*
X1813020Y1595955*
X1812841Y1595463*
X1812483Y1594971*
X1812125Y1594725*
X1811409*
X1811051Y1594971*
X1810694Y1595463*
X1810515Y1595955*
X1808904Y1599892D02*
Y1594725D01*
Y1599892D02*
X1807293D01*
X1806757Y1599646*
X1806578Y1599400*
X1806399Y1598908*
Y1598416*
X1806578Y1597924*
X1806757Y1597678*
X1807293Y1597432*
X1808904D02*
X1807293D01*
X1806757Y1597185*
X1806578Y1596939*
X1806399Y1596447*
Y1595709*
X1806578Y1595217*
X1806757Y1594971*
X1807293Y1594725*
X1808904*
X1800672Y1599892D02*
X1799240Y1594725D01*
X1797809Y1599892D02*
X1799240Y1594725D01*
X1795124Y1599892D02*
X1795661Y1599646D01*
X1796019Y1598908*
X1796198Y1597678*
Y1596939*
X1796019Y1595709*
X1795661Y1594971*
X1795124Y1594725*
X1794767*
X1794230Y1594971*
X1793872Y1595709*
X1793693Y1596939*
Y1597678*
X1793872Y1598908*
X1794230Y1599646*
X1794767Y1599892*
X1795124*
X1791903Y1595217D02*
X1792082Y1594971D01*
X1791903Y1594725*
X1791724Y1594971*
X1791903Y1595217*
X1789756Y1599892D02*
X1787787D01*
X1788861Y1597924*
X1788324*
X1787966Y1597678*
X1787787Y1597432*
X1787608Y1596693*
Y1596201*
X1787787Y1595463*
X1788145Y1594971*
X1788682Y1594725*
X1789219*
X1789756Y1594971*
X1789935Y1595217*
X1790114Y1595709*
X1854435Y1589452D02*
Y1589699D01*
X1854256Y1590191*
X1854077Y1590437*
X1853719Y1590683*
X1853003*
X1852645Y1590437*
X1852466Y1590191*
X1852287Y1589699*
Y1589206*
X1852466Y1588714*
X1852824Y1587976*
X1854614Y1585515*
X1852108*
X1849424Y1590683D02*
X1849961Y1590437D01*
X1850319Y1589699*
X1850498Y1588468*
Y1587730*
X1850319Y1586500*
X1849961Y1585762*
X1849424Y1585515*
X1849066*
X1848529Y1585762*
X1848171Y1586500*
X1847992Y1587730*
Y1588468*
X1848171Y1589699*
X1848529Y1590437*
X1849066Y1590683*
X1849424*
X1846382Y1589699D02*
X1846024Y1589945D01*
X1845487Y1590683*
Y1585515*
X1841371Y1590683D02*
X1843161Y1585515D01*
X1843876Y1590683D02*
X1841371D01*
X1839760Y1587730D02*
X1836539D01*
X1832781Y1589945D02*
X1832960Y1590437D01*
X1833497Y1590683*
X1833855*
X1834392Y1590437*
X1834750Y1589699*
X1834929Y1588468*
Y1587238*
X1834750Y1586254*
X1834392Y1585762*
X1833855Y1585515*
X1833676*
X1833139Y1585762*
X1832781Y1586254*
X1832602Y1586992*
Y1587238*
X1832781Y1587976*
X1833139Y1588468*
X1833676Y1588714*
X1833855*
X1834392Y1588468*
X1834750Y1587976*
X1834929Y1587238*
X1830992Y1587730D02*
X1827770D01*
X1825981Y1589452D02*
Y1589699D01*
X1825802Y1590191*
X1825623Y1590437*
X1825265Y1590683*
X1824549*
X1824191Y1590437*
X1824012Y1590191*
X1823833Y1589699*
Y1589206*
X1824012Y1588714*
X1824370Y1587976*
X1826160Y1585515*
X1823654*
X1855905Y1606321D02*
X1855547Y1606567D01*
X1855010Y1607305*
Y1602138*
X1853399Y1606321D02*
X1853042Y1606567D01*
X1852505Y1607305*
Y1602138*
X1848389Y1607305D02*
X1850178Y1602138D01*
X1850894Y1607305D02*
X1848389D01*
X1846778Y1606321D02*
X1846420Y1606567D01*
X1845883Y1607305*
Y1602138*
X1844273Y1604353D02*
X1841052D01*
X1838367Y1607305D02*
X1838904Y1607059D01*
X1839262Y1606321*
X1839441Y1605091*
Y1604353*
X1839262Y1603122*
X1838904Y1602384*
X1838367Y1602138*
X1838009*
X1837472Y1602384*
X1837115Y1603122*
X1836936Y1604353*
Y1605091*
X1837115Y1606321*
X1837472Y1607059*
X1838009Y1607305*
X1838367*
X1834251D02*
X1834788Y1607059D01*
X1835146Y1606321*
X1835325Y1605091*
Y1604353*
X1835146Y1603122*
X1834788Y1602384*
X1834251Y1602138*
X1833893*
X1833357Y1602384*
X1832999Y1603122*
X1832820Y1604353*
Y1605091*
X1832999Y1606321*
X1833357Y1607059*
X1833893Y1607305*
X1834251*
X1831030Y1606075D02*
Y1606321D01*
X1830851Y1606813*
X1830672Y1607059*
X1830314Y1607305*
X1829598*
X1829241Y1607059*
X1829062Y1606813*
X1828883Y1606321*
Y1605829*
X1829062Y1605337*
X1829419Y1604599*
X1829419D02*
X1831209Y1602138D01*
X1828704*
X1826914Y1606075D02*
Y1606321D01*
X1826735Y1606813*
X1826556Y1607059*
X1826198Y1607305*
X1825482*
X1825125Y1607059*
X1824946Y1606813*
X1824767Y1606321*
Y1605829*
X1824946Y1605337*
X1825304Y1604599*
X1827093Y1602138*
X1824588*
X1820830Y1606567D02*
X1821009Y1607059D01*
X1821545Y1607305*
X1821903*
X1822440Y1607059*
X1822798Y1606321*
X1822977Y1605091*
Y1603860*
X1822798Y1602876*
X1822440Y1602384*
X1821903Y1602138*
X1821724*
X1821188Y1602384*
X1820830Y1602876*
X1820651Y1603614*
Y1603860*
X1820830Y1604599*
X1821188Y1605091*
X1821724Y1605337*
X1821903*
X1822440Y1605091*
X1822798Y1604599*
X1822977Y1603860*
X1819040Y1604353D02*
X1815819D01*
X1813135Y1607305D02*
X1813671Y1607059D01*
X1814029Y1606321*
X1814208Y1605091*
Y1604353*
X1814029Y1603122*
X1813671Y1602384*
X1813135Y1602138*
X1812777*
X1812240Y1602384*
X1811882Y1603122*
X1811703Y1604353*
Y1605091*
X1811882Y1606321*
X1812240Y1607059*
X1812777Y1607305*
X1813135*
X1809913Y1606075D02*
Y1606321D01*
X1809734Y1606813*
X1809556Y1607059*
X1809198Y1607305*
X1808482*
X1808124Y1607059*
X1807945Y1606813*
X1807766Y1606321*
Y1605829*
X1807945Y1605337*
X1808303Y1604599*
X1810092Y1602138*
X1807587*
G54D28*
X1900286Y1627127D02*
Y1631927D01*
X1905286*
Y1627127*
X1900286Y1624727D02*
Y1619927D01*
X1905286*
Y1624727*
X1793038Y1733442D02*
Y1729392D01*
X1788540Y1729390D02*
G03X1793040Y1729393I2248J2335D01*
G01X1788538Y1729392D02*
Y1733442D01*
X1793038Y1735842D02*
Y1739892D01*
G03X1788538I-2250J-3250*
G01Y1735842*
X1796791Y1727201D02*
G03X1795019Y1725822I-197J-1575D01*
G01X1796791Y1727201D02*
X1821987D01*
X1823759Y1725822D02*
G03X1821988Y1727201I-1575J-196D01*
G01X1823759Y1725823D02*
Y1699839D01*
X1822381Y1698461D02*
G03X1823759Y1699839I0J1378D01*
G01X1822381Y1698461D02*
X1796397D01*
X1795019Y1699839D02*
G03X1796397Y1698461I1378J-0D01*
G01X1795019Y1699839D02*
Y1725823D01*
X1935351Y1695902D02*
Y1699952D01*
X1939848Y1699954D02*
G03X1935349Y1699950I-2247J-2336D01*
G01X1939851Y1699952D02*
Y1695902D01*
X1935351Y1693502D02*
Y1689452D01*
X1935350D02*
G03X1939851I2251J3250D01*
G01Y1693502*
X1806806Y1752898D02*
X1811606D01*
Y1747898*
X1806806*
X1804406Y1752898D02*
X1799606D01*
Y1747898*
X1804406*
X1964602Y1683340D02*
Y1679290D01*
X1960105Y1679287D02*
G03X1964604Y1679291I2247J2336D01*
G01X1960102Y1679290D02*
Y1683340D01*
X1964602Y1685740D02*
Y1689790D01*
X1964603D02*
G03X1960102I-2251J-3250D01*
G01Y1685740*
G54D30*
X1860315Y1779377D02*
X1862815D01*
Y1774377*
X1854315Y1779377D02*
X1851815D01*
Y1774377*
X1857815Y1770377D02*
X1856815D01*
X1771704Y1552743D02*
X1854371D01*
X1771704D02*
X1781704Y1555243D01*
Y1550243*
X1771704Y1552743*
X1968554D02*
X1885887D01*
X1968554D02*
X1958554Y1550243D01*
Y1555243*
X1968554Y1552743*
X1771704Y1577727D02*
Y1547743D01*
X1968554Y1577727D02*
Y1547743D01*
X1857401Y1555555D02*
X1855129D01*
X1854901Y1552743*
X1855129Y1553055*
X1855811Y1553368*
X1856492*
X1857174Y1553055*
X1857629Y1552430*
X1857856Y1551493*
X1857629Y1550868*
X1857401Y1549930*
X1856947Y1549305*
X1856265Y1548993*
X1855583*
X1854901Y1549305*
X1854674Y1549618*
X1854447Y1550243*
X1861265Y1555555D02*
X1860583Y1555243D01*
X1860129Y1554305*
X1859901Y1552743*
Y1551805*
X1860129Y1550243*
X1860583Y1549305*
X1861265Y1548993*
X1861720*
X1862401Y1549305*
X1862856Y1550243*
X1863083Y1551805*
Y1552743*
X1862856Y1554305*
X1862401Y1555243*
X1861720Y1555555*
X1861265*
X1865356Y1549618D02*
X1865129Y1549305D01*
X1865356Y1548993*
X1865583Y1549305*
X1865356Y1549618*
X1868992Y1555555D02*
X1868311Y1555243D01*
X1867856Y1554305*
X1867629Y1552743*
Y1551805*
X1867856Y1550243*
X1868311Y1549305*
X1868992Y1548993*
X1869447*
X1870129Y1549305*
X1870583Y1550243*
X1870811Y1551805*
Y1552743*
X1870583Y1554305*
X1870129Y1555243*
X1869447Y1555555*
X1868992*
X1872856Y1553368D02*
Y1548993D01*
Y1552118D02*
X1873538Y1553055D01*
X1873992Y1553368*
X1874674*
X1875129Y1553055*
X1875356Y1552118*
Y1548993*
Y1552118D02*
X1876038Y1553055D01*
X1876492Y1553368*
X1877174*
X1877629Y1553055*
X1877856Y1552118*
Y1548993*
X1879901Y1553368D02*
Y1548993D01*
Y1552118D02*
X1880583Y1553055D01*
X1881038Y1553368*
X1881720*
X1882174Y1553055*
X1882401Y1552118*
Y1548993*
Y1552118D02*
X1883083Y1553055D01*
X1883538Y1553368*
X1884220*
X1884674Y1553055*
X1884901Y1552118*
Y1548993*
X1752825Y1574853D02*
Y1680938D01*
Y1574853D02*
X1750325Y1584853D01*
X1755325*
X1752825Y1574853*
Y1808416D02*
Y1688590D01*
Y1808416D02*
X1755325Y1798416D01*
X1750325*
X1752825Y1808416*
X1774578Y1574853D02*
X1747825D01*
X1774130Y1808416D02*
X1747825D01*
X1737093Y1687576D02*
X1734820D01*
X1734593Y1684764*
X1734820Y1685076*
X1735502Y1685389*
X1736184*
X1736866Y1685076*
X1737320Y1684451*
X1737547Y1683514*
X1737320Y1682889*
X1737093Y1681951*
X1736638Y1681326*
X1735957Y1681014*
X1735275*
X1734593Y1681326*
X1734366Y1681639*
X1734138Y1682264*
X1742547Y1685389D02*
X1742320Y1684451D01*
X1741866Y1683826*
X1741184Y1683514*
X1740957*
X1740275Y1683826*
X1739820Y1684451*
X1739593Y1685389*
Y1685701*
X1739820Y1686639*
X1740275Y1687264*
X1740957Y1687576*
X1741184*
X1741866Y1687264*
X1742320Y1686639*
X1742547Y1685389*
Y1683826*
X1742320Y1682264*
X1741866Y1681326*
X1741184Y1681014*
X1740729*
X1740047Y1681326*
X1739820Y1681951*
X1744820Y1681639D02*
X1744593Y1681326D01*
X1744820Y1681014*
X1745047Y1681326*
X1744820Y1681639*
X1747547Y1687576D02*
X1750047D01*
X1748684Y1685076*
X1749366*
X1749820Y1684764*
X1750047Y1684451*
X1750275Y1683514*
Y1682889*
X1750047Y1681951*
X1749593Y1681326*
X1748911Y1681014*
X1748229*
X1747547Y1681326*
X1747320Y1681639*
X1747093Y1682264*
X1752320Y1685389D02*
Y1681014D01*
Y1684139D02*
X1753002Y1685076D01*
X1753457Y1685389*
X1754138*
X1754593Y1685076*
X1754820Y1684139*
Y1681014*
Y1684139D02*
X1755502Y1685076D01*
X1755957Y1685389*
X1756638*
X1757093Y1685076*
X1757320Y1684139*
Y1681014*
X1759366Y1685389D02*
Y1681014D01*
Y1684139D02*
X1760047Y1685076D01*
X1760502Y1685389*
X1761184*
X1761638Y1685076*
X1761866Y1684139*
Y1681014*
Y1684139D02*
X1762547Y1685076D01*
X1763002Y1685389*
X1763684*
X1764138Y1685076*
X1764366Y1684139*
Y1681014*
G54D31*
X1952725Y1690978D02*
Y1687986D01*
X1896241Y1630794D02*
X1899264D01*
X1896241D02*
Y1629771D01*
X1896385Y1629430*
X1896529Y1629317*
X1896817Y1629203*
X1897104*
X1897104D02*
X1897392Y1629317D01*
X1897536Y1629430*
X1897680Y1629771*
Y1630794*
Y1629999D02*
X1899264Y1629203D01*
X1896817Y1628180D02*
X1896673Y1627953D01*
X1896241Y1627612*
X1899264*
X1896241Y1626021D02*
X1896385Y1626362D01*
X1896673Y1626476*
X1896961*
X1897248Y1626362*
X1897392Y1626135*
X1897536Y1625680*
X1897680Y1625339*
X1897968Y1625112*
X1898256Y1624999*
X1898688*
X1898976Y1625112*
X1899120Y1625226*
X1899264Y1625567*
Y1626021*
X1899120Y1626362*
X1898976Y1626476*
X1898688Y1626589*
X1898256*
X1897968Y1626476*
X1897680Y1626249*
X1897536Y1625908*
X1897392Y1625453*
X1897248Y1625226*
X1896961Y1625112*
X1896673*
X1896385Y1625226*
X1896241Y1625567*
Y1626021*
X1828911Y1725996D02*
X1842315D01*
Y1691157*
X1828911*
Y1725996*
G54D50*
X1919195Y1619784D02*
Y1635696D01*
X1919196Y1635695D02*
G03X1909945I-4626J-3536D01*
G01Y1635696D02*
Y1619784D01*
X1909943Y1619786D02*
G03X1919190Y1619778I4627J4270D01*
G01X1856289Y1785853D02*
X1858789D01*
Y1782853*
X1856289*
X1854789Y1785853D02*
X1852193D01*
Y1782853*
X1854789*
X1788157Y1726172D02*
Y1742084D01*
Y1742083D02*
G03X1778907I-4625J-3536D01*
G01Y1742084D02*
Y1726172D01*
X1778905Y1726174D02*
G03X1788152Y1726166I4627J4270D01*
G01X1797462Y1732978D02*
Y1730478D01*
X1794462*
Y1732978*
X1797462Y1734478D02*
Y1737073D01*
X1794462*
Y1734478*
X1812108Y1770381D02*
Y1772881D01*
X1815108*
Y1770381*
X1812108Y1768881D02*
Y1766285D01*
X1815108*
Y1768881*
X1799416Y1741291D02*
X1811148D01*
Y1734756*
X1799416*
Y1741291*
X1793902Y1758959D02*
X1809814D01*
X1809813Y1758958D02*
G03Y1768209I-3536J4626D01*
G01X1809814D02*
X1793902D01*
X1793904Y1768211D02*
G03X1793896Y1758964I4270J-4627D01*
G01X1793820Y1771328D02*
X1809731D01*
Y1771327D02*
G03Y1780578I-3536J4626D01*
G01X1793820*
X1793822Y1780580D02*
G03X1793814Y1771333I4269J-4627D01*
G01X1804569Y1754201D02*
X1802374D01*
Y1757201D02*
G03Y1754201I1750J-1500D01*
G01Y1757201D02*
X1804569D01*
X1806069Y1754201D02*
X1808193D01*
Y1754202D02*
G03Y1757201I-1438J1499D01*
G01X1806069*
X1795014Y1749931D02*
X1797514D01*
Y1746931*
X1795014*
X1793514Y1749931D02*
X1790918D01*
Y1746931*
X1793514*
X1795063Y1757389D02*
X1797563D01*
Y1754389*
X1795063*
X1793563Y1757389D02*
X1790967D01*
Y1754389*
X1793563*
X1793492Y1750610D02*
X1791297D01*
Y1753610D02*
G03Y1750610I1750J-1500D01*
G01Y1753610D02*
X1793492D01*
X1794992Y1750610D02*
X1797116D01*
Y1750611D02*
G03Y1753610I-1438J1499D01*
G01X1794992*
X1940107Y1780796D02*
X1937607D01*
Y1783796*
X1940107*
X1941607Y1780796D02*
X1944202D01*
Y1783796*
X1941607*
X1947302Y1667852D02*
X1963214D01*
G03Y1677102I-3537J4625*
G01X1947302*
X1947304Y1677104D02*
G03X1947296Y1667857I4270J-4627D01*
G01X1863648Y1769046D02*
X1866148D01*
Y1766046*
X1863648*
X1862148Y1769046D02*
X1859552D01*
Y1766046*
X1862148*
X1909649Y1627983D02*
Y1625788D01*
X1906649D02*
G03X1909649I1500J1750D01*
G01X1906649D02*
Y1627983D01*
X1909649Y1629483D02*
Y1631606D01*
Y1631607D02*
G03X1906650I-1500J-1438D01*
G01X1906649Y1631606D02*
Y1629483D01*
X1949437Y1680250D02*
X1947242D01*
Y1683250D02*
G03Y1680251I1750J-1500D01*
G01Y1683250D02*
X1949437D01*
X1950937Y1680250D02*
X1953060D01*
X1953061Y1680251D02*
G03Y1683250I-1438J1499D01*
G01X1953060D02*
X1950937D01*
X1948362Y1711267D02*
X1946167D01*
Y1714267D02*
G03Y1711267I1750J-1500D01*
G01Y1714267D02*
X1948362D01*
X1949862Y1711267D02*
X1951985D01*
X1951986Y1711268D02*
G03Y1714267I-1438J1499D01*
G01X1951985D02*
X1949862D01*
X1942828Y1770727D02*
X1926916D01*
X1926917D02*
G03Y1761476I3536J-4625D01*
G01X1926916Y1761477D02*
X1942828D01*
X1942826Y1761475D02*
G03X1942834Y1770721I-4270J4627D01*
G01X1942736Y1779991D02*
X1926825D01*
G03Y1770740I3536J-4625*
G01Y1770741D02*
X1942736D01*
X1942734Y1770739D02*
G03X1942742Y1779985I-4269J4627D01*
G01X1942719Y1761625D02*
X1926807D01*
G03Y1752375I3537J-4625*
G01X1942719*
X1942717Y1752373D02*
G03X1942725Y1761619I-4270J4627D01*
G01X1957612Y1733990D02*
Y1736185D01*
X1960612D02*
G03X1957612I-1500J-1750D01*
G01X1960612D02*
Y1733990D01*
X1957612Y1732490D02*
Y1730366D01*
G03X1960611I1500J1438*
G01X1960612D02*
Y1732490D01*
X1947094Y1736503D02*
Y1720591D01*
Y1720592D02*
G03X1956344I4625J3536D01*
G01Y1720591D02*
Y1736503D01*
X1956346Y1736501D02*
G03X1947099Y1736509I-4627J-4270D01*
G01X1944890Y1701650D02*
X1960801D01*
Y1701649D02*
G03Y1710900I-3536J4626D01*
G01X1944890*
X1944892Y1710902D02*
G03X1944884Y1701655I4269J-4627D01*
G01X1947652Y1769681D02*
Y1767181D01*
X1944652*
Y1769681*
X1947652Y1771181D02*
Y1773777D01*
X1944652*
Y1771181*
X1965187Y1732411D02*
Y1729911D01*
X1962187*
Y1732411*
X1965187Y1733911D02*
Y1736507D01*
X1962187*
Y1733911*
X1947636Y1760591D02*
Y1758091D01*
X1947636D02*
X1944636D01*
X1944636D02*
Y1760591D01*
X1947636Y1762091D02*
Y1764687D01*
X1944636*
Y1762091*
X1932934Y1780703D02*
X1930434D01*
Y1783703*
X1932934*
X1934434Y1780703D02*
X1937030D01*
Y1783703*
X1934434*
X1925656Y1780612D02*
X1923156D01*
Y1783612*
X1925656*
X1927156Y1780612D02*
X1929751D01*
Y1783612*
X1927156*
X1925445Y1784581D02*
X1922945D01*
Y1787581*
X1925445*
X1926945Y1784581D02*
X1929541D01*
Y1787581*
X1926945*
G54D51*
X1916056Y1628425D02*
X1916128Y1628622D01*
X1916271Y1628819*
X1916414Y1628918*
X1916700*
X1916844Y1628819*
X1916987Y1628622*
X1917058Y1628425*
X1917130Y1628130*
Y1627638*
X1917058Y1627343*
X1916987Y1627146*
X1916844Y1626949*
X1916700Y1626851*
X1916414*
X1916271Y1626949*
X1916128Y1627146*
X1916056Y1627343*
X1914481Y1628918D02*
X1915197D01*
X1915269Y1628032*
X1915197Y1628130*
X1914982Y1628229*
X1914768*
X1914553Y1628130*
X1914410Y1627933*
X1914338Y1627638*
X1914410Y1627441*
X1914481Y1627146*
X1914625Y1626949*
X1914839Y1626851*
X1915054*
X1915269Y1626949*
X1915340Y1627047*
X1915412Y1627244*
X1912763Y1628918D02*
X1913479D01*
X1913551Y1628032*
X1913479Y1628130*
X1913265Y1628229*
X1913050*
X1912835Y1628130*
X1912692Y1627933*
X1912620Y1627638*
X1912692Y1627441*
X1912763Y1627146*
X1912907Y1626949*
X1913121Y1626851*
X1913336*
X1913551Y1626949*
X1913622Y1627047*
X1913694Y1627244*
X1857416Y1785437D02*
Y1783370D01*
Y1785437D02*
X1856772D01*
X1856557Y1785339*
X1856485Y1785240*
X1856414Y1785043*
Y1784847*
X1856485Y1784650*
X1856557Y1784551*
X1856772Y1784453*
X1857416*
X1856915D02*
X1856414Y1783370D01*
X1855770Y1785043D02*
X1855626Y1785142D01*
X1855412Y1785437*
Y1783370*
X1853909Y1785142D02*
X1853980Y1785339D01*
X1854195Y1785437*
X1854338*
X1854553Y1785339*
X1854696Y1785043*
X1854768Y1784551*
Y1784059*
X1854696Y1783665*
X1854553Y1783469*
X1854338Y1783370*
X1854266*
X1854052Y1783469*
X1853909Y1783665*
X1853837Y1783961*
Y1784059*
X1853909Y1784354*
X1854052Y1784551*
X1854266Y1784650*
X1854338*
X1854553Y1784551*
X1854696Y1784354*
X1854768Y1784059*
X1858826Y1776072D02*
X1858110Y1773488D01*
X1857394Y1776072D02*
X1858110Y1773488D01*
X1856589Y1775580D02*
X1856410Y1775703D01*
X1856141Y1776072*
Y1773488*
X1791403Y1735241D02*
X1791474Y1735418D01*
X1791617Y1735596*
X1791760Y1735684*
X1792047*
X1792190Y1735596*
X1792333Y1735418*
X1792405Y1735241*
X1792476Y1734976*
Y1734533*
X1792405Y1734267*
X1792333Y1734090*
X1792190Y1733913*
X1792047Y1733824*
X1791760*
X1791617Y1733913*
X1791474Y1734090*
X1791403Y1734267*
X1790042Y1735684D02*
X1790758Y1734444D01*
X1789685*
X1790042Y1735684D02*
Y1733824D01*
X1788038Y1735684D02*
X1788754Y1733824D01*
X1789040Y1735684D02*
X1788038D01*
X1784728Y1734947D02*
X1784799Y1735124D01*
X1784943Y1735302*
X1785086Y1735390*
X1785372*
X1785515Y1735302*
X1785658Y1735124*
X1785730Y1734947*
X1785801Y1734681*
Y1734239*
X1785730Y1733973*
X1785658Y1733796*
X1785515Y1733618*
X1785372Y1733530*
X1785086*
X1784943Y1733618*
X1784799Y1733796*
X1784728Y1733973*
X1783153Y1735390D02*
X1783869D01*
X1783940Y1734593*
X1783869Y1734681*
X1783654Y1734770*
X1783439*
X1783225Y1734681*
X1783081Y1734504*
X1783010Y1734239*
X1783081Y1734061*
X1783153Y1733796*
X1783296Y1733618*
X1783511Y1733530*
X1783726*
X1783940Y1733618*
X1784012Y1733707*
X1784084Y1733884*
X1781936Y1735390D02*
X1782151Y1735302D01*
X1782294Y1735036*
X1782366Y1734593*
Y1734327*
X1782294Y1733884*
X1782151Y1733618*
X1781936Y1733530*
X1781793*
X1781578Y1733618*
X1781435Y1733884*
X1781363Y1734327*
Y1734593*
X1781435Y1735036*
X1781578Y1735302*
X1781793Y1735390*
X1781936*
X1810236Y1713423D02*
Y1711356D01*
X1809377*
X1807730Y1713423D02*
X1808446Y1711356D01*
X1808733Y1713423D02*
X1807730D01*
X1936981Y1696131D02*
X1936784Y1696202D01*
X1936587Y1696345*
X1936489Y1696489*
Y1696775*
X1936587Y1696918*
X1936784Y1697061*
X1936981Y1697133*
X1937276Y1697204*
X1937768*
X1938064Y1697133*
X1938261Y1697061*
X1938457Y1696918*
X1938556Y1696775*
Y1696489*
X1938457Y1696345*
X1938261Y1696202*
X1938064Y1696131*
X1936489Y1695343D02*
Y1694556D01*
X1937276Y1694985*
Y1694771*
X1937375Y1694628*
X1937473Y1694556*
X1937768Y1694484*
X1937965*
X1938261Y1694556*
X1938457Y1694699*
X1938556Y1694914*
Y1695129*
X1938457Y1695343*
X1938359Y1695415*
X1938162Y1695486*
X1936489Y1693411D02*
X1936587Y1693625D01*
X1936883Y1693769*
X1937375Y1693840*
X1937670*
X1938162Y1693769*
X1938457Y1693625*
X1938556Y1693411*
Y1693267*
X1938457Y1693053*
X1938162Y1692910*
X1937670Y1692838*
X1937375*
X1936883Y1692910*
X1936587Y1693053*
X1936489Y1693267*
Y1693411*
X1797718Y1735259D02*
Y1733192D01*
Y1735259D02*
X1797073D01*
X1796859Y1735160*
X1796787Y1735062*
X1796716Y1734865*
Y1734668*
X1796787Y1734471*
X1796859Y1734373*
X1797073Y1734274*
X1797718*
X1797217D02*
X1796716Y1733192D01*
X1795928Y1735259D02*
X1795141D01*
X1795570Y1734471*
X1795356*
X1795212Y1734373*
X1795141Y1734274*
X1795069Y1733979*
Y1733782*
X1795141Y1733487*
X1795284Y1733290*
X1795499Y1733192*
X1795713*
X1795928Y1733290*
X1796000Y1733389*
X1796071Y1733585*
X1794067Y1735259D02*
X1794282Y1735160D01*
X1794353Y1734963*
Y1734767*
X1794282Y1734570*
X1794139Y1734471*
X1793852Y1734373*
X1793638Y1734274*
X1793494Y1734078*
X1793423Y1733881*
Y1733585*
X1793423D02*
X1793494Y1733389D01*
X1793566Y1733290*
X1793781Y1733192*
X1794067*
X1794282Y1733290*
X1794353Y1733389*
X1794425Y1733585*
X1794425D02*
Y1733881D01*
X1794353Y1734078*
X1794210Y1734274*
X1793995Y1734373*
X1793709Y1734471*
X1793566Y1734570*
X1793494Y1734767*
Y1734963*
X1793566Y1735160*
X1793781Y1735259*
X1794067*
X1812591Y1771596D02*
X1814658D01*
X1812591D02*
Y1770952D01*
X1812689Y1770737*
X1812788Y1770666*
X1812985Y1770594*
X1813181*
X1813378Y1770666*
X1813477Y1770737*
X1813575Y1770952*
Y1771596*
Y1771095D02*
X1814658Y1770594D01*
X1812591Y1769807D02*
Y1769019D01*
X1813378Y1769449*
Y1769234*
X1813477Y1769091*
X1813575Y1769019*
X1813870Y1768948*
X1814067*
X1814363Y1769019*
X1814559Y1769162*
X1814658Y1769377*
Y1769592*
X1814559Y1769807*
X1814461Y1769878*
X1814264Y1769950*
X1812591Y1767301D02*
X1814658Y1768017D01*
X1812591Y1768303D02*
Y1767301D01*
X1807335Y1739469D02*
Y1737993D01*
X1807263Y1737698*
X1807120Y1737501*
X1806906Y1737403*
X1806762*
X1806548Y1737501*
X1806404Y1737698*
X1806333Y1737993*
Y1739469*
X1805617Y1738977D02*
Y1739076D01*
X1805545Y1739273*
X1805474Y1739371*
X1805331Y1739469*
X1805044*
X1804901Y1739371*
X1804830Y1739273*
X1804758Y1739076*
Y1738879*
X1804830Y1738682*
X1804973Y1738387*
X1805689Y1737403*
X1804686*
X1803899Y1739469D02*
X1803112D01*
X1803541Y1738682*
X1803326*
X1803183Y1738584*
X1803112Y1738485*
X1803040Y1738190*
Y1737993*
X1803112Y1737698*
X1803255Y1737501*
X1803470Y1737403*
X1803684*
X1803899Y1737501*
X1803971Y1737599*
X1804042Y1737796*
X1822246Y1737466D02*
X1821674Y1735399D01*
X1821101Y1737466D02*
X1821674Y1735399D01*
X1819526Y1737466D02*
X1820242D01*
X1820314Y1736580*
X1820242Y1736678*
X1820027Y1736777*
X1819813*
X1819598Y1736678*
X1819455Y1736481*
X1819383Y1736186*
X1819455Y1735989*
X1819526Y1735694*
X1819669Y1735497*
X1819884Y1735399*
X1820099*
X1820314Y1735497*
X1820385Y1735595*
X1820457Y1735792*
X1823808Y1761478D02*
Y1759411D01*
Y1761478D02*
X1823307D01*
X1823092Y1761380*
X1822949Y1761183*
X1822877Y1760986*
X1822806Y1760691*
Y1760199*
X1822877Y1759904*
X1822949Y1759707*
X1823092Y1759510*
X1823307Y1759411*
X1823307D02*
X1823808D01*
X1822018Y1761478D02*
X1821231D01*
X1821661Y1760691*
X1821446*
X1821303Y1760593*
X1821231Y1760494*
X1821159Y1760199*
Y1760002*
X1821231Y1759707*
X1821374Y1759510*
X1821589Y1759411*
X1821589D02*
X1821804D01*
X1821804D02*
X1822018Y1759510D01*
X1822090Y1759608*
X1822162Y1759805*
X1803242Y1764512D02*
X1803313Y1764708D01*
X1803457Y1764905*
X1803600Y1765004*
X1803886*
X1804029Y1764905*
X1804172Y1764708*
X1804244Y1764512*
X1804316Y1764216*
Y1763724*
X1804244Y1763429*
X1804172Y1763232*
X1804029Y1763035*
X1803886Y1762937*
X1803600*
X1803457Y1763035*
X1803313Y1763232*
X1803242Y1763429*
X1801667Y1765004D02*
X1802383D01*
X1802454Y1764118*
X1802383Y1764216*
X1802168Y1764315*
X1801953*
X1801739Y1764216*
X1801595Y1764019*
X1801524Y1763724*
X1801595Y1763527*
X1801667Y1763232*
X1801810Y1763035*
X1802025Y1762937*
X1802240*
X1802454Y1763035*
X1802526Y1763134*
X1802598Y1763330*
X1800880Y1764610D02*
X1800736Y1764708D01*
X1800522Y1765004*
Y1762937*
X1802880Y1776342D02*
X1802951Y1776519D01*
X1803095Y1776696*
X1803238Y1776785*
X1803524*
X1803667Y1776696*
X1803810Y1776519*
X1803882Y1776342*
X1803954Y1776076*
Y1775633*
X1803882Y1775368*
X1803810Y1775190*
X1803667Y1775013*
X1803524Y1774925*
X1803238*
X1803095Y1775013*
X1802951Y1775190*
X1802880Y1775368*
X1801305Y1776785D02*
X1802021D01*
X1802092Y1775988*
X1802021Y1776076*
X1801806Y1776165*
X1801591*
X1801377Y1776076*
X1801233Y1775899*
X1801162Y1775633*
X1801233Y1775456*
X1801305Y1775190*
X1801448Y1775013*
X1801663Y1774925*
X1801878*
X1802092Y1775013*
X1802164Y1775102*
X1802236Y1775279*
X1800446Y1776342D02*
Y1776431D01*
X1800374Y1776608*
X1800303Y1776696*
X1800160Y1776785*
X1799873*
X1799730Y1776696*
X1799659Y1776608*
X1799587Y1776431*
Y1776253*
X1799659Y1776076*
X1799802Y1775811*
X1800518Y1774925*
X1799515*
X1806326Y1756414D02*
X1806398Y1756611D01*
X1806541Y1756808*
X1806684Y1756906*
X1806970*
X1807113Y1756808*
X1807257Y1756611*
X1807328Y1756414*
X1807400Y1756119*
Y1755626*
X1807328Y1755331*
X1807257Y1755134*
X1807113Y1754937*
X1806970Y1754839*
X1806684*
X1806541Y1754937*
X1806398Y1755134*
X1806326Y1755331*
X1804751Y1756906D02*
X1805467D01*
X1805539Y1756020*
X1805467Y1756119*
X1805252Y1756217*
X1805038*
X1804823Y1756119*
X1804680Y1755922*
X1804608Y1755626*
X1804680Y1755430*
X1804751Y1755134*
X1804894Y1754937*
X1805109Y1754839*
X1805324*
X1805539Y1754937*
X1805610Y1755036*
X1805682Y1755233*
X1803821Y1756906D02*
X1803033D01*
X1803463Y1756119*
X1803248*
X1803105Y1756020*
X1803033Y1755922*
X1802962Y1755626*
Y1755430*
X1803033Y1755134*
X1803176Y1754937*
X1803391Y1754839*
X1803606*
X1803821Y1754937*
X1803892Y1755036*
X1803964Y1755233*
X1807620Y1751625D02*
Y1749558D01*
Y1751625D02*
X1806976D01*
X1806761Y1751527*
X1806689Y1751428*
X1806618Y1751232*
Y1751035*
X1806689Y1750838*
X1806761Y1750739*
X1806976Y1750641*
X1807620*
X1807119D02*
X1806618Y1749558D01*
X1805258Y1751625D02*
X1805973Y1750247D01*
X1804900*
X1805258Y1751625D02*
Y1749558D01*
X1803826Y1751625D02*
X1804041Y1751527D01*
X1804184Y1751232*
X1804255Y1750739*
Y1750444*
X1804184Y1749952*
X1804041Y1749657*
X1803826Y1749558*
X1803683*
X1803468Y1749657*
X1803325Y1749952*
X1803253Y1750444*
Y1750739*
X1803325Y1751232*
X1803468Y1751527*
X1803683Y1751625*
X1803826*
X1795928Y1749454D02*
Y1747387D01*
Y1749454D02*
X1795284D01*
X1795069Y1749356*
X1794997Y1749257*
X1794926Y1749060*
Y1748864*
X1794997Y1748667*
X1795069Y1748568*
X1795284Y1748470*
X1795928*
X1795427D02*
X1794926Y1747387D01*
X1793566Y1749454D02*
X1794282Y1748076D01*
X1793208*
X1793566Y1749454D02*
Y1747387D01*
X1792564Y1749060D02*
X1792420Y1749159D01*
X1792206Y1749454*
Y1747387*
X1796381Y1756840D02*
Y1754773D01*
Y1756840D02*
X1795737D01*
X1795522Y1756742*
X1795450Y1756643*
X1795379Y1756446*
Y1756249*
X1795450Y1756053*
X1795522Y1755954*
X1795737Y1755856*
X1796381*
X1795880D02*
X1795379Y1754773D01*
X1794663Y1756348D02*
Y1756446D01*
X1794591Y1756643*
X1794520Y1756742*
X1794377Y1756840*
X1794090*
X1793947Y1756742*
X1793876Y1756643*
X1793804Y1756446*
Y1756249*
X1793876Y1756053*
X1794019Y1755757*
X1794735Y1754773*
X1793732*
X1792229Y1756545D02*
X1792301Y1756742D01*
X1792516Y1756840*
X1792659*
X1792873Y1756742*
X1793017Y1756446*
X1793088Y1755954*
Y1755462*
X1793017Y1755068*
X1792873Y1754872*
X1792659Y1754773*
X1792587*
X1792372Y1754872*
X1792229Y1755068*
X1792158Y1755364*
Y1755462*
X1792229Y1755757*
X1792372Y1755954*
X1792587Y1756053*
X1792659*
X1792873Y1755954*
X1793017Y1755757*
X1793088Y1755462*
X1795184Y1752824D02*
X1795255Y1753021D01*
X1795399Y1753218*
X1795542Y1753316*
X1795828*
X1795971Y1753218*
X1796114Y1753021*
X1796186Y1752824*
X1796258Y1752529*
Y1752037*
X1796186Y1751742*
X1796114Y1751545*
X1795971Y1751348*
X1795828Y1751250*
X1795542*
X1795399Y1751348*
X1795255Y1751545*
X1795184Y1751742*
X1793609Y1753316D02*
X1794325D01*
X1794396Y1752431*
X1794325Y1752529*
X1794110Y1752627*
X1793895*
X1793681Y1752529*
X1793537Y1752332*
X1793466Y1752037*
X1793537Y1751840*
X1793609Y1751545*
X1793752Y1751348*
X1793967Y1751250*
X1794182*
X1794396Y1751348*
X1794468Y1751446*
X1794540Y1751643*
X1792106Y1753316D02*
X1792822Y1751939D01*
X1791748*
X1792106Y1753316D02*
Y1751250D01*
X1943193Y1783436D02*
Y1781369D01*
Y1783436D02*
X1942549D01*
X1942334Y1783338*
X1942262Y1783240*
X1942191Y1783043*
Y1782846*
X1942262Y1782649*
X1942334Y1782551*
X1942549Y1782452*
X1943193*
X1942692D02*
X1942191Y1781369D01*
X1941475Y1782944D02*
Y1783043D01*
X1941403Y1783240*
X1941332Y1783338*
X1941189Y1783436*
X1940902*
X1940759Y1783338*
X1940688Y1783240*
X1940616Y1783043*
Y1782846*
X1940688Y1782649*
X1940831Y1782354*
X1941547Y1781369*
X1940544*
X1939757Y1783436D02*
X1938970D01*
X1939399Y1782649*
X1939184*
X1939041Y1782551*
X1938970Y1782452*
X1938898Y1782157*
Y1781960*
X1938970Y1781665*
X1939113Y1781468*
X1939328Y1781369*
X1939542*
X1939757Y1781468*
X1939829Y1781566*
X1939900Y1781763*
X1956393Y1673248D02*
X1956465Y1673445D01*
X1956608Y1673642*
X1956751Y1673741*
X1957037*
X1957181Y1673642*
X1957324Y1673445*
X1957395Y1673248*
X1957467Y1672953*
Y1672461*
X1957395Y1672166*
X1957324Y1671969*
X1957181Y1671772*
X1957037Y1671674*
X1956751*
X1956608Y1671772*
X1956465Y1671969*
X1956393Y1672166*
X1955606Y1673741D02*
X1954818D01*
X1955248Y1672953*
X1955033*
X1954890Y1672855*
X1954818Y1672756*
X1954747Y1672461*
Y1672264*
X1954818Y1671969*
X1954962Y1671772*
X1955176Y1671674*
X1955391*
X1955606Y1671772*
X1955677Y1671871*
X1955749Y1672067*
X1953100Y1673741D02*
X1953816Y1671674D01*
X1954103Y1673741D02*
X1953100D01*
X1961650Y1686094D02*
X1961473Y1686165D01*
X1961296Y1686309*
X1961207Y1686452*
Y1686738*
X1961296Y1686881*
X1961473Y1687024*
X1961650Y1687096*
X1961916Y1687168*
X1962359*
X1962624Y1687096*
X1962802Y1687024*
X1962979Y1686881*
X1963067Y1686738*
Y1686452*
X1962979Y1686309*
X1962802Y1686165*
X1962624Y1686094*
X1961207Y1685092D02*
X1961296Y1685307D01*
X1961473Y1685378*
X1961650*
X1961827Y1685307*
X1961916Y1685163*
X1962004Y1684877*
X1962093Y1684662*
X1962270Y1684519*
X1962447Y1684448*
X1962713*
X1962890Y1684519*
X1962979Y1684591*
X1963067Y1684805*
Y1685092*
X1962979Y1685307*
X1962890Y1685378*
X1962713Y1685450*
X1962447*
X1962270Y1685378*
X1962093Y1685235*
X1962004Y1685020*
X1961916Y1684734*
X1961827Y1684591*
X1961650Y1684519*
X1961473*
X1961296Y1684591*
X1961207Y1684805*
Y1685092*
Y1683374D02*
X1961296Y1683589D01*
X1961561Y1683732*
X1962004Y1683803*
X1962270*
X1962713Y1683732*
X1962979Y1683589*
X1963067Y1683374*
Y1683231*
X1962979Y1683016*
X1962713Y1682873*
X1962270Y1682801*
X1962004*
X1961561Y1682873*
X1961296Y1683016*
X1961207Y1683231*
Y1683374*
X1864422Y1768594D02*
Y1766527D01*
Y1768594D02*
X1863777D01*
X1863563Y1768495*
X1863491Y1768397*
X1863420Y1768200*
Y1768003*
X1863491Y1767806*
X1863563Y1767708*
X1863777Y1767609*
X1864422*
X1863921D02*
X1863420Y1766527D01*
X1862775Y1768200D02*
X1862632Y1768298D01*
X1862417Y1768594*
Y1766527*
X1860843Y1767905D02*
X1860914Y1767609D01*
X1861057Y1767413*
X1861272Y1767314*
X1861344*
X1861558Y1767413*
X1861702Y1767609*
X1861773Y1767905*
Y1768003*
X1861702Y1768298*
X1861558Y1768495*
X1861344Y1768594*
X1861272*
X1861057Y1768495*
X1860914Y1768298*
X1860843Y1767905*
Y1767413*
X1860914Y1766920*
X1861057Y1766625*
X1861272Y1766527*
X1861415*
X1861630Y1766625*
X1861702Y1766822*
X1930344Y1746942D02*
X1929771Y1744875D01*
X1929199Y1746942D02*
X1929771Y1744875D01*
X1927624Y1746253D02*
X1927696Y1745958D01*
X1927839Y1745761*
X1928053Y1745662*
X1928125*
X1928340Y1745761*
X1928483Y1745958*
X1928555Y1746253*
Y1746351*
X1928483Y1746647*
X1928483D02*
X1928340Y1746843D01*
X1928125Y1746942*
X1928053*
X1927839Y1746843*
X1927696Y1746647*
X1927696D02*
X1927624Y1746253D01*
Y1745761*
X1927696Y1745269*
X1927839Y1744973*
X1928053Y1744875*
X1928197*
X1928411Y1744973*
X1928483Y1745170*
X1954580Y1692413D02*
Y1690936D01*
X1954508Y1690641*
X1954365Y1690444*
X1954150Y1690346*
X1954007*
X1953792Y1690444*
X1953649Y1690641*
X1953577Y1690936*
Y1692413*
X1952933Y1692019D02*
X1952790Y1692117D01*
X1952575Y1692413*
Y1690346*
X1951788Y1692413D02*
X1951000D01*
X1951430Y1691625*
X1951215*
X1951072Y1691527*
X1951000Y1691428*
X1950929Y1691133*
Y1690936*
X1951000Y1690641*
X1951144Y1690444*
X1951358Y1690346*
X1951573*
X1951788Y1690444*
X1951859Y1690542*
X1951931Y1690739*
X1964575Y1700023D02*
X1966642D01*
X1964575D02*
Y1699379D01*
X1964673Y1699164*
X1964772Y1699093*
X1964968Y1699021*
X1965165*
X1965362Y1699093*
X1965461Y1699164*
X1965559Y1699379*
Y1700023*
Y1699522D02*
X1966642Y1699021D01*
X1964575Y1697446D02*
Y1698162D01*
X1965461Y1698234*
X1965362Y1698162*
X1965264Y1697947*
Y1697733*
X1965362Y1697518*
X1965559Y1697375*
X1965854Y1697303*
X1966051Y1697375*
X1966346Y1697446*
X1966543Y1697589*
X1966642Y1697804*
Y1698019*
X1966543Y1698234*
X1966445Y1698305*
X1966248Y1698377*
X1964575Y1696516D02*
Y1695728D01*
X1965362Y1696158*
Y1695943*
X1965461Y1695800*
X1965559Y1695728*
X1965854Y1695657*
X1966051*
X1966346Y1695728*
X1966543Y1695871*
X1966642Y1696086*
Y1696301*
X1966543Y1696516*
X1966445Y1696587*
X1966248Y1696659*
X1960968Y1699862D02*
X1963035D01*
X1960968D02*
Y1699218D01*
X1961066Y1699003*
X1961165Y1698932*
X1961362Y1698860*
X1961558*
X1961755Y1698932*
X1961854Y1699003*
X1961952Y1699218*
Y1699862*
Y1699361D02*
X1963035Y1698860D01*
X1960968Y1697285D02*
Y1698001D01*
X1961854Y1698073*
X1961755Y1698001*
X1961657Y1697786*
Y1697572*
X1961755Y1697357*
X1961952Y1697214*
X1962247Y1697142*
X1962444Y1697214*
X1962740Y1697285*
X1962936Y1697429*
X1963035Y1697643*
Y1697858*
X1962936Y1698073*
X1962838Y1698144*
X1962641Y1698216*
X1960968Y1695782D02*
X1962346Y1696498D01*
Y1695424*
X1960968Y1695782D02*
X1963035D01*
X1965459Y1693595D02*
Y1691528D01*
Y1693595D02*
X1964815D01*
X1964600Y1693497*
X1964529Y1693398*
X1964457Y1693201*
Y1693005*
X1964529Y1692808*
X1964600Y1692709*
X1964815Y1692611*
X1965459*
X1964958D02*
X1964457Y1691528D01*
X1962882Y1693595D02*
X1963598D01*
X1963670Y1692709*
X1963598Y1692808*
X1963383Y1692906*
X1963168*
X1962954Y1692808*
X1962811Y1692611*
X1962739Y1692316*
X1962811Y1692119*
X1962882Y1691823*
X1963025Y1691627*
X1963240Y1691528*
X1963455*
X1963670Y1691627*
X1963741Y1691725*
X1963813Y1691922*
X1962095Y1693201D02*
X1961952Y1693300D01*
X1961737Y1693595*
Y1691528*
X1949235Y1629451D02*
X1949307Y1629648D01*
X1949450Y1629844*
X1949593Y1629943*
X1949879*
X1950022Y1629844*
X1950166Y1629648*
X1950237Y1629451*
X1950309Y1629155*
Y1628663*
X1950237Y1628368*
X1950166Y1628171*
X1950022Y1627974*
X1949879Y1627876*
X1949593*
X1949450Y1627974*
X1949307Y1628171*
X1949235Y1628368*
X1948233Y1629943D02*
X1948448Y1629844D01*
X1948519Y1629648*
Y1629451*
X1948448Y1629254*
X1948304Y1629155*
X1948018Y1629057*
X1947803Y1628959*
X1947660Y1628762*
X1947589Y1628565*
Y1628270*
X1947660Y1628073*
X1947732Y1627974*
X1947947Y1627876*
X1948233*
X1948448Y1627974*
X1948519Y1628073*
X1948591Y1628270*
Y1628565*
X1948519Y1628762*
X1948376Y1628959*
X1948161Y1629057*
X1947875Y1629155*
X1947732Y1629254*
X1947660Y1629451*
Y1629648*
X1947732Y1629844*
X1947947Y1629943*
X1948233*
X1946014Y1629254D02*
X1946085Y1628959D01*
X1946229Y1628762*
X1946443Y1628663*
X1946515*
X1946730Y1628762*
X1946873Y1628959*
X1946944Y1629254*
Y1629352*
X1946873Y1629648*
X1946730Y1629844*
X1946515Y1629943*
X1946443*
X1946229Y1629844*
X1946085Y1629648*
X1946014Y1629254*
Y1628762*
X1946085Y1628270*
X1946229Y1627974*
X1946443Y1627876*
X1946587*
X1946801Y1627974*
X1946873Y1628171*
X1933129Y1629875D02*
Y1628399D01*
X1933129D02*
X1933057Y1628103D01*
X1932914Y1627907*
X1932699Y1627808*
X1932556*
X1932341Y1627907*
X1932198Y1628103*
X1932126Y1628399*
Y1629875*
X1931482Y1629481D02*
X1931339Y1629580D01*
X1931124Y1629875*
Y1627808*
X1930122Y1629875D02*
X1930337Y1629777D01*
X1930408Y1629580*
Y1629383*
X1930337Y1629186*
X1930194Y1629088*
X1929907Y1628989*
X1929693Y1628891*
X1929549Y1628694*
X1929478Y1628497*
Y1628202*
X1929549Y1628005*
X1929621Y1627907*
X1929836Y1627808*
X1930122*
X1930337Y1627907*
X1930408Y1628005*
X1930480Y1628202*
Y1628497*
X1930408Y1628694*
X1930265Y1628891*
X1930050Y1628989*
X1929764Y1629088*
X1929621Y1629186*
X1929549Y1629383*
Y1629580*
X1929621Y1629777*
X1929836Y1629875*
X1930122*
X1907651Y1629801D02*
X1907454Y1629872D01*
X1907257Y1630015*
X1907159Y1630159*
Y1630445*
X1907257Y1630588*
X1907454Y1630731*
X1907651Y1630803*
X1907946Y1630874*
X1908438*
X1908733Y1630803*
X1908930Y1630731*
X1909127Y1630588*
X1909226Y1630445*
Y1630159*
X1909127Y1630015*
X1908930Y1629872*
X1908733Y1629801*
X1907159Y1628226D02*
Y1628942D01*
X1908044Y1629013*
X1907946Y1628942*
X1907848Y1628727*
Y1628512*
X1907946Y1628298*
X1908143Y1628154*
X1908438Y1628083*
X1908635Y1628154*
X1908930Y1628226*
X1909127Y1628369*
X1909226Y1628584*
Y1628799*
X1909127Y1629013*
X1909029Y1629085*
X1908832Y1629156*
X1907159Y1626436D02*
X1909226Y1627152D01*
X1907159Y1627439D02*
Y1626436D01*
X1951190Y1682373D02*
X1951262Y1682570D01*
X1951405Y1682767*
X1951548Y1682866*
X1951834*
X1951977Y1682767*
X1952121Y1682570*
X1952192Y1682373*
X1952192D02*
X1952264Y1682078D01*
Y1681586*
X1952192Y1681291*
X1952121Y1681094*
X1951977Y1680897*
X1951834Y1680799*
X1951548*
X1951405Y1680897*
X1951262Y1681094*
X1951190Y1681291*
X1949615Y1682866D02*
X1950331D01*
X1950403Y1681980*
X1950331Y1682078*
X1950116Y1682177*
X1949902*
X1949687Y1682078*
X1949544Y1681881*
X1949472Y1681586*
X1949544Y1681389*
X1949615Y1681094*
X1949758Y1680897*
X1949973Y1680799*
X1950188*
X1950403Y1680897*
X1950474Y1680996*
X1950546Y1681192*
X1947897Y1682177D02*
X1947969Y1681881D01*
X1948112Y1681685*
X1948327Y1681586*
X1948398*
X1948613Y1681685*
X1948756Y1681881*
X1948828Y1682177*
Y1682275*
X1948756Y1682570*
X1948613Y1682767*
X1948398Y1682866*
X1948327*
X1948112Y1682767*
X1947969Y1682570*
X1947897Y1682177*
Y1681685*
X1947969Y1681192*
X1948112Y1680897*
X1948327Y1680799*
X1948470*
X1948685Y1680897*
X1948756Y1681094*
X1949977Y1713331D02*
X1950049Y1713528D01*
X1950192Y1713725*
X1950335Y1713823*
X1950621*
X1950764Y1713725*
X1950908Y1713528*
X1950979Y1713331*
X1951051Y1713036*
Y1712544*
X1950979Y1712249*
X1950908Y1712052*
X1950764Y1711855*
X1950621Y1711757*
X1950335*
X1950192Y1711855*
X1950049Y1712052*
X1949977Y1712249*
X1948975Y1713823D02*
X1949190Y1713725D01*
X1949261Y1713528*
Y1713331*
X1949190Y1713134*
X1949046Y1713036*
X1948760Y1712938*
X1948545Y1712839*
X1948402Y1712642*
X1948331Y1712445*
Y1712150*
X1948402Y1711953*
X1948474Y1711855*
X1948688Y1711757*
X1948975*
X1949190Y1711855*
X1949261Y1711953*
X1949333Y1712150*
Y1712445*
X1949261Y1712642*
X1949118Y1712839*
X1948903Y1712938*
X1948617Y1713036*
X1948474Y1713134*
X1948402Y1713331*
Y1713528*
X1948474Y1713725*
X1948688Y1713823*
X1948975*
X1947615Y1713331D02*
Y1713430D01*
X1947543Y1713627*
X1947472Y1713725*
X1947328Y1713823*
X1947042*
X1946899Y1713725*
X1946827Y1713627*
X1946756Y1713430*
Y1713233*
X1946827Y1713036*
X1946971Y1712741*
X1947686Y1711757*
X1946684*
X1936003Y1766945D02*
X1936075Y1767142D01*
X1936218Y1767339*
X1936361Y1767437*
X1936648*
X1936791Y1767339*
X1936934Y1767142*
X1937006Y1766945*
X1937077Y1766650*
Y1766158*
X1937006Y1765862*
X1936934Y1765665*
X1936791Y1765469*
X1936648Y1765370*
X1936361*
X1936218Y1765469*
X1936075Y1765665*
X1936003Y1765862*
X1935288Y1766945D02*
Y1767043D01*
X1935216Y1767240*
X1935144Y1767339*
X1935001Y1767437*
X1934715*
X1934572Y1767339*
X1934500Y1767240*
X1934429Y1767043*
Y1766847*
X1934500Y1766650*
X1934643Y1766354*
X1935359Y1765370*
X1934357*
X1932782Y1766748D02*
X1932854Y1766453D01*
X1932997Y1766256*
X1933212Y1766158*
X1933283*
X1933498Y1766256*
X1933641Y1766453*
X1933713Y1766748*
Y1766847*
X1933641Y1767142*
X1933498Y1767339*
X1933283Y1767437*
X1933212*
X1932997Y1767339*
X1932854Y1767142*
X1932782Y1766748*
Y1766256*
X1932854Y1765764*
X1932997Y1765469*
X1933212Y1765370*
X1933355*
X1933570Y1765469*
X1933641Y1765665*
X1935731Y1776149D02*
X1935802Y1776346D01*
X1935945Y1776543*
X1936089Y1776641*
X1936375*
X1936518Y1776543*
X1936661Y1776346*
X1936733Y1776149*
X1936804Y1775854*
Y1775361*
X1936733Y1775066*
X1936661Y1774869*
X1936518Y1774672*
X1936375Y1774574*
X1936089*
X1935945Y1774672*
X1935802Y1774869*
X1935731Y1775066*
X1934943Y1776641D02*
X1934156D01*
X1934585Y1775854*
X1934371*
X1934228Y1775755*
X1934156Y1775657*
X1934084Y1775361*
Y1775165*
X1934156Y1774869*
X1934299Y1774672*
X1934514Y1774574*
X1934729*
X1934943Y1774672*
X1935015Y1774771*
X1935086Y1774968*
X1933440Y1776247D02*
X1933297Y1776346D01*
X1933082Y1776641*
Y1774574*
X1935773Y1757986D02*
X1935844Y1758183D01*
X1935987Y1758379*
X1936131Y1758478*
X1936417*
X1936560Y1758379*
X1936703Y1758183*
X1936775Y1757986*
X1936846Y1757690*
Y1757198*
X1936775Y1756903*
X1936703Y1756706*
X1936560Y1756509*
X1936417Y1756411*
X1936131*
X1935987Y1756509*
X1935844Y1756706*
X1935773Y1756903*
X1934771Y1758478D02*
X1934985Y1758379D01*
X1935057Y1758183*
Y1757986*
X1934985Y1757789*
X1934842Y1757690*
X1934556Y1757592*
X1934341Y1757494*
X1934198Y1757297*
X1934126Y1757100*
Y1756805*
X1934198Y1756608*
X1934269Y1756509*
X1934484Y1756411*
X1934771*
X1934985Y1756509*
X1935057Y1756608*
X1935128Y1756805*
Y1757100*
X1935057Y1757297*
X1934914Y1757494*
X1934699Y1757592*
X1934413Y1757690*
X1934269Y1757789*
X1934198Y1757986*
Y1758183*
X1934269Y1758379*
X1934484Y1758478*
X1934771*
X1932766D02*
X1933482Y1757100D01*
X1932408*
X1932766Y1758478D02*
Y1756411D01*
X1958505Y1734479D02*
X1958308Y1734550D01*
X1958112Y1734693*
X1958013Y1734836*
Y1735123*
X1958112Y1735266*
X1958308Y1735409*
X1958505Y1735481*
X1958801Y1735552*
X1959293*
X1959588Y1735481*
X1959785Y1735409*
X1959982Y1735266*
X1960080Y1735123*
Y1734836*
X1959982Y1734693*
X1959785Y1734550*
X1959588Y1734479*
X1958013Y1733118D02*
X1959391Y1733834D01*
Y1732761*
X1958013Y1733118D02*
X1960080D01*
X1958505Y1732045D02*
X1958407D01*
X1958210Y1731973*
X1958112Y1731902*
X1958013Y1731758*
Y1731472*
X1958112Y1731329*
X1958210Y1731257*
X1958407Y1731186*
X1958604*
X1958801Y1731257*
X1959096Y1731401*
X1960080Y1732116*
Y1731114*
X1953283Y1729494D02*
X1953355Y1729691D01*
X1953498Y1729887*
X1953641Y1729986*
X1953927*
X1954071Y1729887*
X1954214Y1729691*
X1954285Y1729494*
X1954357Y1729198*
Y1728706*
X1954285Y1728411*
X1954214Y1728214*
X1954071Y1728017*
X1953927Y1727919*
X1953641*
X1953498Y1728017*
X1953355Y1728214*
X1953283Y1728411*
X1951637Y1729986D02*
X1952353Y1727919D01*
X1952639Y1729986D02*
X1951637D01*
X1950277D02*
X1950993Y1728608D01*
X1949919*
X1950277Y1729986D02*
Y1727919D01*
X1953487Y1706777D02*
X1953558Y1706974D01*
X1953702Y1707171*
X1953845Y1707269*
X1954131*
X1954274Y1707171*
X1954417Y1706974*
X1954489Y1706777*
X1954561Y1706482*
Y1705989*
X1954489Y1705694*
X1954417Y1705497*
X1954274Y1705300*
X1954131Y1705202*
X1953845*
X1953702Y1705300*
X1953558Y1705497*
X1953487Y1705694*
X1952485Y1707269D02*
X1952699Y1707171D01*
X1952771Y1706974*
Y1706777*
X1952699Y1706580*
X1952556Y1706482*
X1952270Y1706383*
X1952055Y1706285*
X1951912Y1706088*
X1951840Y1705891*
Y1705596*
X1951912Y1705399*
X1951984Y1705300*
X1952198Y1705202*
X1952485*
X1952699Y1705300*
X1952771Y1705399*
X1952843Y1705596*
Y1705891*
X1952771Y1706088*
X1952628Y1706285*
X1952413Y1706383*
X1952127Y1706482*
X1951984Y1706580*
X1951912Y1706777*
Y1706974*
X1951984Y1707171*
X1952198Y1707269*
X1952485*
X1951196Y1706875D02*
X1951053Y1706974D01*
X1950838Y1707269*
Y1705202*
X1937793Y1733808D02*
Y1731741D01*
X1936934*
X1936218Y1733316D02*
Y1733415D01*
X1936147Y1733611*
X1936075Y1733710*
X1935932Y1733808*
X1935645*
X1935502Y1733710*
X1935431Y1733611*
X1935359Y1733415*
Y1733218*
X1935431Y1733021*
X1935574Y1732726*
X1936290Y1731741*
X1935288*
X1945272Y1772688D02*
X1947339D01*
X1945272D02*
Y1772043D01*
X1945371Y1771829*
X1945469Y1771757*
X1945666Y1771686*
X1945863*
X1946060Y1771757*
X1946158Y1771829*
X1946256Y1772043*
X1946256D02*
Y1772688D01*
Y1772187D02*
X1947339Y1771686D01*
X1945764Y1770970D02*
X1945666D01*
X1945469Y1770898*
X1945371Y1770827*
X1945272Y1770683*
Y1770397*
X1945371Y1770254*
X1945469Y1770182*
X1945666Y1770111*
X1945863*
X1946060Y1770182*
X1946355Y1770326*
X1947339Y1771041*
Y1770039*
X1945764Y1769323D02*
X1945666D01*
X1945469Y1769252*
X1945371Y1769180*
X1945272Y1769037*
Y1768751*
X1945371Y1768608*
X1945469Y1768536*
X1945666Y1768464*
X1945863*
X1946060Y1768536*
X1946355Y1768679*
X1947339Y1769395*
Y1768393*
X1962679Y1735445D02*
X1964746D01*
X1962679D02*
Y1734800D01*
X1962778Y1734586*
X1962876Y1734514*
X1963073Y1734443*
X1963270*
X1963467Y1734514*
X1963565Y1734586*
X1963663Y1734800*
Y1735445*
Y1734944D02*
X1964746Y1734443D01*
X1962974Y1732939D02*
X1962778Y1733011D01*
X1962679Y1733226*
Y1733369*
X1962778Y1733584*
X1963073Y1733727*
X1963565Y1733798*
X1964057*
X1964451Y1733727*
X1964648Y1733584*
X1964746Y1733369*
Y1733297*
X1964648Y1733083*
X1964451Y1732939*
X1964156Y1732868*
X1964057*
X1963762Y1732939*
X1963565Y1733083*
X1963467Y1733297*
Y1733369*
X1963565Y1733584*
X1963762Y1733727*
X1964057Y1733798*
X1962679Y1731508D02*
X1964057Y1732224D01*
Y1731150*
X1962679Y1731508D02*
X1964746D01*
X1945081Y1763547D02*
X1947148D01*
X1945081D02*
Y1762902D01*
X1945179Y1762688*
X1945277Y1762616*
X1945474Y1762544*
X1945671*
X1945868Y1762616*
X1945966Y1762688*
X1946065Y1762902*
Y1763547*
Y1763045D02*
X1947148Y1762544D01*
X1945376Y1761041D02*
X1945179Y1761113D01*
X1945081Y1761328*
Y1761471*
X1945179Y1761685*
X1945474Y1761829*
X1945966Y1761900*
X1946459*
X1946852Y1761829*
X1947049Y1761685*
X1947148Y1761471*
Y1761399*
X1947049Y1761184*
X1946852Y1761041*
X1946557Y1760970*
X1946459*
X1946163Y1761041*
X1945966Y1761184*
X1945868Y1761399*
Y1761471*
X1945966Y1761685*
X1946163Y1761829*
X1946459Y1761900*
X1945081Y1759395D02*
Y1760111D01*
X1945966Y1760182*
X1945868Y1760111*
X1945770Y1759896*
Y1759681*
X1945868Y1759466*
X1946065Y1759323*
X1946360Y1759252*
X1946557Y1759323*
X1946852Y1759395*
X1947049Y1759538*
X1947148Y1759753*
Y1759967*
X1947049Y1760182*
X1946951Y1760254*
X1946754Y1760325*
X1936031Y1783372D02*
Y1781306D01*
Y1783372D02*
X1935386D01*
X1935172Y1783274*
X1935100Y1783176*
X1935028Y1782979*
Y1782782*
X1935100Y1782585*
X1935172Y1782487*
X1935386Y1782388*
X1936031*
X1935530D02*
X1935028Y1781306D01*
X1933525Y1783077D02*
X1933597Y1783274D01*
X1933812Y1783372*
X1933955*
X1934169Y1783274*
X1934313Y1782979*
X1934384Y1782487*
Y1781995*
X1934313Y1781601*
X1934169Y1781404*
X1933955Y1781306*
X1933883*
X1933668Y1781404*
X1933525Y1781601*
X1933454Y1781896*
Y1781995*
X1933525Y1782290*
X1933668Y1782487*
X1933883Y1782585*
X1933955*
X1934169Y1782487*
X1934313Y1782290*
X1934384Y1781995*
X1931950Y1783077D02*
X1932022Y1783274D01*
X1932237Y1783372*
X1932380*
X1932595Y1783274*
X1932738Y1782979*
X1932809Y1782487*
Y1781995*
X1932738Y1781601*
X1932595Y1781404*
X1932380Y1781306*
X1932308*
X1932094Y1781404*
X1931950Y1781601*
X1931879Y1781896*
Y1781995*
X1931950Y1782290*
X1932094Y1782487*
X1932308Y1782585*
X1932380*
X1932595Y1782487*
X1932738Y1782290*
X1932809Y1781995*
X1928784Y1783181D02*
Y1781114D01*
Y1783181D02*
X1928140D01*
X1927925Y1783082*
X1927853Y1782984*
X1927782Y1782787*
Y1782590*
X1927853Y1782393*
X1927925Y1782295*
X1928140Y1782197*
X1928784*
X1928283D02*
X1927782Y1781114D01*
X1926279Y1782886D02*
X1926350Y1783082D01*
X1926565Y1783181*
X1926708*
X1926923Y1783082*
X1927066Y1782787*
X1927138Y1782295*
Y1781803*
X1927066Y1781409*
X1926923Y1781212*
X1926708Y1781114*
X1926636*
X1926422Y1781212*
X1926279Y1781409*
X1926207Y1781704*
Y1781803*
X1926279Y1782098*
X1926422Y1782295*
X1926636Y1782393*
X1926708*
X1926923Y1782295*
X1927066Y1782098*
X1927138Y1781803*
X1924561Y1783181D02*
X1925276Y1781114D01*
X1925563Y1783181D02*
X1924561D01*
X1928528Y1787333D02*
Y1785266D01*
Y1787333D02*
X1927884D01*
X1927669Y1787235*
X1927598Y1787136*
X1927526Y1786939*
Y1786743*
X1927598Y1786546*
X1927669Y1786447*
X1927884Y1786349*
X1928528*
X1928027D02*
X1927526Y1785266D01*
X1926023Y1787038D02*
X1926095Y1787235D01*
X1926309Y1787333*
X1926453*
X1926667Y1787235*
X1926810Y1786939*
X1926882Y1786447*
Y1785955*
X1926810Y1785561*
X1926667Y1785365*
X1926453Y1785266*
X1926381*
X1926166Y1785365*
X1926023Y1785561*
X1925951Y1785857*
Y1785955*
X1926023Y1786250*
X1926166Y1786447*
X1926381Y1786546*
X1926453*
X1926667Y1786447*
X1926810Y1786250*
X1926882Y1785955*
X1924949Y1787333D02*
X1925164Y1787235D01*
X1925236Y1787038*
Y1786841*
X1925164Y1786644*
X1925021Y1786546*
X1924735Y1786447*
X1924520Y1786349*
X1924377Y1786152*
X1924305Y1785955*
Y1785660*
X1924377Y1785463*
X1924448Y1785365*
X1924663Y1785266*
X1924949*
X1925164Y1785365*
X1925236Y1785463*
X1925307Y1785660*
Y1785955*
X1925236Y1786152*
X1925092Y1786349*
X1924878Y1786447*
X1924591Y1786546*
X1924448Y1786644*
X1924377Y1786841*
Y1787038*
X1924448Y1787235*
X1924663Y1787333*
X1924949*
X1946555Y1747383D02*
X1945982Y1745522D01*
X1945409Y1747383D02*
X1945982Y1745522D01*
X1944765Y1747028D02*
X1944622Y1747117D01*
X1944407Y1747383*
Y1745522*
X1943333Y1747383D02*
X1943548Y1747294D01*
X1943691Y1747028*
X1943763Y1746585*
Y1746320*
X1943691Y1745877*
X1943548Y1745611*
X1943333Y1745522*
X1943190*
X1942975Y1745611*
X1942832Y1745877*
X1942761Y1746320*
Y1746585*
X1942832Y1747028*
X1942975Y1747294*
X1943190Y1747383*
X1943333*
G54D150*
X1967108Y1694428D02*
Y1701028D01*
X1964108*
Y1694428*
X1967108*
X1960525Y1701067D02*
Y1694467D01*
X1963525*
Y1701067*
X1960525*
X1967057Y1693795D02*
X1960457D01*
Y1690795*
X1967057*
Y1693795*
G54D155*
X1815036Y1744419D02*
X1826536D01*
Y1728919*
X1815036*
Y1744419*
X1816369Y1765167D02*
Y1775207D01*
X1818141Y1776978*
X1824833*
X1826605Y1775207*
Y1765167*
X1816369Y1757687D02*
Y1747057D01*
X1826605*
Y1757687*
X1934505Y1747314D02*
Y1740917D01*
X1932733*
X1924269Y1747314D02*
Y1740917D01*
X1926041*
X1927078Y1726438D02*
X1946578D01*
Y1738938*
X1927078*
Y1726438*
X1944214Y1751197D02*
X1950611D01*
Y1749425*
X1944214Y1740961D02*
X1950611D01*
Y1742733*
G54D159*
X1828705Y1730498D02*
G03X1828705I-492J0D01*
G74*
G01X0Y0D02*
M02*
