*
*
G04 PADS 9.5 Build Number: 522968 generated Gerber (RS-274-X) file*
G04 PC Version=2.1*
*
%IN "LK02 Main board V0.3.pc"*%
*
%MOIN*%
*
%FSLAX35Y35*%
*
*
*
*
G04 PC Standard Apertures*
*
*
G04 Thermal Relief Aperture macro.*
%AMTER*
1,1,$1,0,0*
1,0,$1-$2,0,0*
21,0,$3,$4,0,0,45*
21,0,$3,$4,0,0,135*
%
*
*
G04 Annular Aperture macro.*
%AMANN*
1,1,$1,0,0*
1,0,$2,0,0*
%
*
*
G04 Odd Aperture macro.*
%AMODD*
1,1,$1,0,0*
1,0,$1-0.005,0,0*
%
*
*
G04 PC Custom Aperture Macros*
*
*
*
*
*
*
G04 PC Aperture Table*
*
%ADD010C,0.001*%
%ADD023C,0.01969*%
%ADD024C,0.01181*%
%ADD025C,0.00787*%
%ADD028C,0.00591*%
%ADD030C,0.01*%
%ADD031C,0.00394*%
%ADD050C,0.005*%
%ADD051C,0.00315*%
%ADD150C,0.004*%
%ADD152C,0.00984*%
%ADD153C,0.00787*%
%ADD154C,0.00709*%
%ADD155C,0.00787*%
%ADD156C,0.00394*%
%ADD190C,0.00354*%
%ADD201C,0.00039*%
*
*
*
*
G04 PC Circuitry*
G04 Layer Name LK02 Main board V0.3.pc - circuitry*
%LPD*%
*
*
G04 PC Custom Flashes*
G04 Layer Name LK02 Main board V0.3.pc - flashes*
%LPD*%
*
*
G04 PC Circuitry*
G04 Layer Name LK02 Main board V0.3.pc - circuitry*
%LPD*%
*
G54D10*
G01X1771749Y1800990D02*
Y1582728D01*
X1771749D02*
G75*
G03X1779624Y1574854I7875J-0D01*
G01X1960726*
G03X1968600Y1582728I-0J7874*
G01Y1801006*
G03X1961190Y1808417I-7410J0*
G01X1779176*
G03X1771749Y1800990I0J-7427*
G01X1789860Y1763830D02*
G03X1789860I-4331J0D01*
G01X1959151D02*
G03X1959151I-4331J0D01*
G01X1810450Y1671114D02*
G03X1810450I-7480J0D01*
G01X1914781Y1671035D02*
G03X1914781I-7480J0D01*
G01X1789860Y1582728D02*
G03X1789860I-4331J0D01*
G01X1959151D02*
G03X1959151I-4331J0D01*
G01X1771704Y1582727D02*
X1771706D01*
X1968554D02*
X1968557D01*
X1779578Y1574853D02*
X1779580D01*
X1779130Y1808416D02*
X1779133D01*
G54D23*
X1771704Y1800989D02*
Y1582727D01*
G03X1779578Y1574853I7874J0*
G01X1960680*
G03X1968554Y1582727I-0J7874*
G01Y1801006*
G03X1961144Y1808416I-7410J-0*
G01X1779130*
G03X1771704Y1800989I0J-7427*
G01X1789814Y1763830D02*
G03X1789814I-4331J0D01*
G01X1959105D02*
G03X1959105I-4331J0D01*
G01X1810404Y1671113D02*
G03X1810404I-7480J0D01*
G01X1914735Y1671034D02*
G03X1914735I-7480J0D01*
G01X1789814Y1582727D02*
G03X1789814I-4331J0D01*
G01X1959105D02*
G03X1959105I-4331J0D01*
G54D24*
G01X1774348Y1611519D02*
Y1637548D01*
X1793127D02*
G03X1774348I-9389J-715D01*
G01X1793127D02*
Y1611519D01*
X1774348D02*
G03X1793127I9390J390D01*
G01X1858757Y1607137D02*
X1858403D01*
Y1630602*
X1861395*
Y1634617*
X1861395D02*
X1885214D01*
X1885214D02*
Y1606743D01*
X1858757*
Y1607137*
X1774348Y1636526D02*
X1793127D01*
X1774348Y1635463D02*
X1793127D01*
X1774348Y1634400D02*
X1793127D01*
X1774348Y1633337D02*
X1793127D01*
X1774348Y1632274D02*
X1793127D01*
X1774348Y1631211D02*
X1793127D01*
X1774348Y1630148D02*
X1793127D01*
X1774348Y1629085D02*
X1793127D01*
X1774348Y1628022D02*
X1793127D01*
X1774348Y1626959D02*
X1793127D01*
X1774348Y1625896D02*
X1793127D01*
X1774348Y1624833D02*
X1793127D01*
X1774348Y1623770D02*
X1793127D01*
X1774348Y1622707D02*
X1793127D01*
X1774348Y1621644D02*
X1793127D01*
X1774348Y1620581D02*
X1793127D01*
X1774348Y1619518D02*
X1793127D01*
X1774348Y1618455D02*
X1793127D01*
X1774348Y1617392D02*
X1793127D01*
X1774348Y1616329D02*
X1793127D01*
X1774348Y1615266D02*
X1793127D01*
X1774348Y1614203D02*
X1793127D01*
X1774348Y1613140D02*
X1793127D01*
X1774348Y1612077D02*
X1793127D01*
X1774351Y1637589D02*
X1793124D01*
X1774383Y1611014D02*
X1793093D01*
X1774498Y1638652D02*
X1792977D01*
X1774546Y1609951D02*
X1792929D01*
X1774772Y1639715D02*
X1792703D01*
X1774839Y1608888D02*
X1792637D01*
X1775187Y1640778D02*
X1792289D01*
X1775274Y1607825D02*
X1792202D01*
X1775762Y1641841D02*
X1791713D01*
X1775875Y1606762D02*
X1791601D01*
X1776538Y1642904D02*
X1790937D01*
X1776684Y1605699D02*
X1790791D01*
X1777590Y1643967D02*
X1789885D01*
X1777786Y1604636D02*
X1789689D01*
X1779101Y1645030D02*
X1788374D01*
X1779399Y1603573D02*
X1788077D01*
X1782022Y1646093D02*
X1785453D01*
X1861395Y1634380D02*
X1885214D01*
X1861395Y1633317D02*
X1885214D01*
X1861395Y1632254D02*
X1885214D01*
X1861395Y1631191D02*
X1885214D01*
X1858403Y1630128D02*
X1885214D01*
X1858403Y1629065D02*
X1885214D01*
X1858403Y1628002D02*
X1885214D01*
X1858403Y1626939D02*
X1885214D01*
X1858403Y1625876D02*
X1885214D01*
X1858403Y1624813D02*
X1885214D01*
X1858403Y1623750D02*
X1885214D01*
X1858403Y1622687D02*
X1885214D01*
X1858403Y1621624D02*
X1885214D01*
X1858403Y1620561D02*
X1885214D01*
X1858403Y1619498D02*
X1885214D01*
X1858403Y1618435D02*
X1885214D01*
X1858403Y1617372D02*
X1885214D01*
X1858403Y1616309D02*
X1885214D01*
X1858403Y1615246D02*
X1885214D01*
X1858403Y1614183D02*
X1885214D01*
X1858403Y1613120D02*
X1885214D01*
X1858403Y1612057D02*
X1885214D01*
X1858403Y1610994D02*
X1885214D01*
X1858403Y1609931D02*
X1885214D01*
X1858403Y1608868D02*
X1885214D01*
X1858403Y1607805D02*
X1885214D01*
G54D25*
X1881693Y1732087D02*
G03X1881693I-559J0D01*
G54D28*
G01X1904353Y1803782D02*
X1926006D01*
X1885038Y1663968D02*
G03X1885038I-2926J0D01*
G01X1814033Y1804379D02*
X1835687D01*
X1873908Y1671317D02*
G03X1873908I-2926J0D01*
G01X1822754Y1691121D02*
Y1686779D01*
X1827065*
Y1691121*
X1822723Y1693492D02*
Y1697803D01*
X1827096*
Y1693492*
X1924026Y1677965D02*
Y1673623D01*
X1928337*
Y1677965*
X1923995Y1680336D02*
Y1684647D01*
X1928368*
Y1680336*
X1923719Y1656427D02*
X1928061D01*
Y1660738*
X1923719*
X1921348Y1656396D02*
X1917036D01*
Y1660769*
X1921348*
X1940270Y1659379D02*
Y1663429D01*
X1940272Y1663428D02*
G03X1935772Y1663432I-2252J-2332D01*
G01X1935770Y1663429D02*
Y1659379D01*
X1940270Y1656979D02*
Y1652929D01*
X1935770Y1652930D02*
G03X1940270I2250J3249D01*
G01X1935770Y1652929D02*
Y1656979D01*
X1876203Y1724533D02*
Y1728583D01*
X1876205Y1728582D02*
G03X1871706Y1728586I-2252J-2332D01*
G01X1871703Y1728583D02*
Y1724533D01*
X1876203Y1722133D02*
Y1718083D01*
X1871703Y1718084D02*
G03X1876204I2250J3249D01*
G01X1871703Y1718083D02*
Y1722133D01*
X1958379Y1653045D02*
X1954329D01*
X1954331Y1653046D02*
G03X1954327Y1648547I2332J-2251D01*
G01X1954329Y1648545D02*
X1958379D01*
X1960779Y1653045D02*
X1964829D01*
Y1648544D02*
G03Y1653045I-3250J2251D01*
G01Y1648545D02*
X1960779D01*
X1950803Y1636180D02*
Y1640230D01*
X1950805Y1640228D02*
G03X1946306Y1640232I-2252J-2332D01*
G01X1946303Y1640230D02*
Y1636180D01*
X1950803Y1633780D02*
Y1629730D01*
X1946303D02*
G03X1950803I2250J3250D01*
G01X1946303D02*
Y1633780D01*
X1896125Y1732838D02*
Y1736888D01*
X1896127Y1736887D02*
G03X1891627Y1736890I-2252J-2332D01*
G01X1891625Y1736888D02*
Y1732838D01*
X1896125Y1730438D02*
Y1726388D01*
X1891625D02*
G03X1896125I2250J3250D01*
G01X1891625D02*
Y1730438D01*
X1870494Y1755554D02*
G03X1870494I-2926J0D01*
G01X1919588Y1646247D02*
X1944352D01*
X1931840Y1646161D02*
Y1583082D01*
X1919501Y1582822D02*
X1944438D01*
X1892607Y1693808D02*
Y1689466D01*
X1896918*
Y1693808*
X1892576Y1696180D02*
Y1700491D01*
X1896949*
Y1696180*
X1902544Y1731582D02*
Y1730917D01*
X1914356*
Y1731582*
X1902544Y1742062D02*
Y1742728D01*
X1914356*
Y1742062*
X1902387Y1716740D02*
Y1716075D01*
X1914199*
Y1716740*
X1902387Y1727220D02*
Y1727886D01*
X1914199*
Y1727220*
X1854040Y1646924D02*
Y1642874D01*
X1854038Y1642876D02*
G03X1858537Y1642872I2252J2331D01*
G01X1858540Y1642874D02*
Y1646924D01*
X1854040Y1649324D02*
Y1653374D01*
X1858540D02*
G03X1854039I-2250J-3250D01*
G01X1858540D02*
Y1649324D01*
X1902404Y1802896D02*
Y1786046D01*
X1928310*
Y1802896*
X1935514*
Y1785574*
X1894766*
Y1802896*
X1902404*
X1812085Y1803493D02*
Y1786643D01*
X1837990*
Y1803493*
X1845195*
Y1786170*
X1804447*
Y1803493*
X1812085*
X1928310Y1802580D02*
X1935514D01*
X1928310Y1802049D02*
X1935514D01*
X1928310Y1801517D02*
X1935514D01*
X1928310Y1800986D02*
X1935514D01*
X1928310Y1800454D02*
X1935514D01*
X1928310Y1799923D02*
X1935514D01*
X1928310Y1799391D02*
X1935514D01*
X1928310Y1798860D02*
X1935514D01*
X1928310Y1798328D02*
X1935514D01*
X1928310Y1797797D02*
X1935514D01*
X1928310Y1797265D02*
X1935514D01*
X1928310Y1796734D02*
X1935514D01*
X1928310Y1796202D02*
X1935514D01*
X1928310Y1795671D02*
X1935514D01*
X1928310Y1795139D02*
X1935514D01*
X1928310Y1794608D02*
X1935514D01*
X1928310Y1794076D02*
X1935514D01*
X1928310Y1793545D02*
X1935514D01*
X1928310Y1793013D02*
X1935514D01*
X1928310Y1792482D02*
X1935514D01*
X1928310Y1791950D02*
X1935514D01*
X1928310Y1791419D02*
X1935514D01*
X1928310Y1790887D02*
X1935514D01*
X1928310Y1790356D02*
X1935514D01*
X1928310Y1789824D02*
X1935514D01*
X1928310Y1789293D02*
X1935514D01*
X1928310Y1788761D02*
X1935514D01*
X1928310Y1788230D02*
X1935514D01*
X1928310Y1787698D02*
X1935514D01*
X1928310Y1787167D02*
X1935514D01*
X1928310Y1786635D02*
X1935514D01*
X1928310Y1786104D02*
X1935514D01*
X1894766Y1802580D02*
X1902404D01*
X1894766Y1802049D02*
X1902404D01*
X1894766Y1801517D02*
X1902404D01*
X1894766Y1800986D02*
X1902404D01*
X1894766Y1800454D02*
X1902404D01*
X1894766Y1799923D02*
X1902404D01*
X1894766Y1799391D02*
X1902404D01*
X1894766Y1798860D02*
X1902404D01*
X1894766Y1798328D02*
X1902404D01*
X1894766Y1797797D02*
X1902404D01*
X1894766Y1797265D02*
X1902404D01*
X1894766Y1796734D02*
X1902404D01*
X1894766Y1796202D02*
X1902404D01*
X1894766Y1795671D02*
X1902404D01*
X1894766Y1795139D02*
X1902404D01*
X1894766Y1794608D02*
X1902404D01*
X1894766Y1794076D02*
X1902404D01*
X1894766Y1793545D02*
X1902404D01*
X1894766Y1793013D02*
X1902404D01*
X1894766Y1792482D02*
X1902404D01*
X1894766Y1791950D02*
X1902404D01*
X1894766Y1791419D02*
X1902404D01*
X1894766Y1790887D02*
X1902404D01*
X1894766Y1790356D02*
X1902404D01*
X1894766Y1789824D02*
X1902404D01*
X1894766Y1789293D02*
X1902404D01*
X1894766Y1788761D02*
X1902404D01*
X1894766Y1788230D02*
X1902404D01*
X1894766Y1787698D02*
X1902404D01*
X1894766Y1787167D02*
X1902404D01*
X1894766Y1786635D02*
X1902404D01*
X1894766Y1786104D02*
X1902404D01*
X1837990Y1803177D02*
X1845195D01*
X1837990Y1802645D02*
X1845195D01*
X1837990Y1802114D02*
X1845195D01*
X1837990Y1801582D02*
X1845195D01*
X1837990Y1801051D02*
X1845195D01*
X1837990Y1800519D02*
X1845195D01*
X1837990Y1799988D02*
X1845195D01*
X1837990Y1799456D02*
X1845195D01*
X1837990Y1798925D02*
X1845195D01*
X1837990Y1798393D02*
X1845195D01*
X1837990Y1797862D02*
X1845195D01*
X1837990Y1797330D02*
X1845195D01*
X1837990Y1796799D02*
X1845195D01*
X1837990Y1796267D02*
X1845195D01*
X1837990Y1795736D02*
X1845195D01*
X1837990Y1795204D02*
X1845195D01*
X1837990Y1794673D02*
X1845195D01*
X1837990Y1794141D02*
X1845195D01*
X1837990Y1793610D02*
X1845195D01*
X1837990Y1793078D02*
X1845195D01*
X1837990Y1792547D02*
X1845195D01*
X1837990Y1792015D02*
X1845195D01*
X1837990Y1791484D02*
X1845195D01*
X1837990Y1790952D02*
X1845195D01*
X1837990Y1790421D02*
X1845195D01*
X1837990Y1789889D02*
X1845195D01*
X1837990Y1789358D02*
X1845195D01*
X1837990Y1788826D02*
X1845195D01*
X1837990Y1788295D02*
X1845195D01*
X1837990Y1787763D02*
X1845195D01*
X1837990Y1787232D02*
X1845195D01*
X1837990Y1786700D02*
X1845195D01*
X1804447Y1803177D02*
X1812085D01*
X1804447Y1802645D02*
X1812085D01*
X1804447Y1802114D02*
X1812085D01*
X1804447Y1801582D02*
X1812085D01*
X1804447Y1801051D02*
X1812085D01*
X1804447Y1800519D02*
X1812085D01*
X1804447Y1799988D02*
X1812085D01*
X1804447Y1799456D02*
X1812085D01*
X1804447Y1798925D02*
X1812085D01*
X1804447Y1798393D02*
X1812085D01*
X1804447Y1797862D02*
X1812085D01*
X1804447Y1797330D02*
X1812085D01*
X1804447Y1796799D02*
X1812085D01*
X1804447Y1796267D02*
X1812085D01*
X1804447Y1795736D02*
X1812085D01*
X1804447Y1795204D02*
X1812085D01*
X1804447Y1794673D02*
X1812085D01*
X1804447Y1794141D02*
X1812085D01*
X1804447Y1793610D02*
X1812085D01*
X1804447Y1793078D02*
X1812085D01*
X1804447Y1792547D02*
X1812085D01*
X1804447Y1792015D02*
X1812085D01*
X1804447Y1791484D02*
X1812085D01*
X1804447Y1790952D02*
X1812085D01*
X1804447Y1790421D02*
X1812085D01*
X1804447Y1789889D02*
X1812085D01*
X1804447Y1789358D02*
X1812085D01*
X1804447Y1788826D02*
X1812085D01*
X1804447Y1788295D02*
X1812085D01*
X1804447Y1787763D02*
X1812085D01*
X1804447Y1787232D02*
X1812085D01*
X1804447Y1786700D02*
X1812085D01*
G54D30*
X1874374Y1586834D02*
Y1576834D01*
X1834374*
Y1586834*
X1874374*
X1864374D02*
Y1576834D01*
X1876162Y1784153D02*
X1864665D01*
Y1789703*
X1856397*
Y1803353*
X1865453*
Y1797143*
X1878582*
Y1803413*
X1887893*
Y1789633*
X1880012*
Y1784153*
X1876162*
X1886081Y1634457D02*
X1857735D01*
Y1606111*
X1886081*
Y1608847*
X1884861Y1609457*
X1886081Y1610068*
Y1634457*
X1774072Y1611510D02*
G03X1793748Y1612111I9839J257D01*
G01Y1612106D02*
X1793758Y1611507D01*
Y1636625*
X1793748Y1637224*
Y1637222D02*
G03X1774072Y1636621I-9839J-257D01*
G01Y1636625D02*
Y1611507D01*
X1771704Y1552743D02*
X1854371D01*
X1771704D02*
X1781704Y1555243D01*
Y1550243*
X1771704Y1552743*
X1968554D02*
X1885887D01*
X1968554D02*
X1958554Y1550243D01*
Y1555243*
X1968554Y1552743*
X1771704Y1577727D02*
Y1547743D01*
X1968554Y1577727D02*
Y1547743D01*
X1857401Y1555555D02*
X1855129D01*
X1854901Y1552743*
X1855129Y1553055*
X1855811Y1553368*
X1856492*
X1857174Y1553055*
X1857629Y1552430*
X1857856Y1551493*
X1857629Y1550868*
X1857401Y1549930*
X1856947Y1549305*
X1856265Y1548993*
X1855583*
X1854901Y1549305*
X1854674Y1549618*
X1854447Y1550243*
X1861265Y1555555D02*
X1860583Y1555243D01*
X1860129Y1554305*
X1859901Y1552743*
Y1551805*
X1860129Y1550243*
X1860583Y1549305*
X1861265Y1548993*
X1861720*
X1862401Y1549305*
X1862856Y1550243*
X1863083Y1551805*
Y1552743*
X1862856Y1554305*
X1862401Y1555243*
X1861720Y1555555*
X1861265*
X1865356Y1549618D02*
X1865129Y1549305D01*
X1865356Y1548993*
X1865583Y1549305*
X1865356Y1549618*
X1868992Y1555555D02*
X1868311Y1555243D01*
X1867856Y1554305*
X1867629Y1552743*
Y1551805*
X1867856Y1550243*
X1868311Y1549305*
X1868992Y1548993*
X1869447*
X1870129Y1549305*
X1870583Y1550243*
X1870811Y1551805*
Y1552743*
X1870583Y1554305*
X1870129Y1555243*
X1869447Y1555555*
X1868992*
X1872856Y1553368D02*
Y1548993D01*
Y1552118D02*
X1873538Y1553055D01*
X1873992Y1553368*
X1874674*
X1875129Y1553055*
X1875356Y1552118*
Y1548993*
Y1552118D02*
X1876038Y1553055D01*
X1876492Y1553368*
X1877174*
X1877629Y1553055*
X1877856Y1552118*
Y1548993*
X1879901Y1553368D02*
Y1548993D01*
Y1552118D02*
X1880583Y1553055D01*
X1881038Y1553368*
X1881720*
X1882174Y1553055*
X1882401Y1552118*
Y1548993*
Y1552118D02*
X1883083Y1553055D01*
X1883538Y1553368*
X1884220*
X1884674Y1553055*
X1884901Y1552118*
Y1548993*
X1752825Y1574853D02*
Y1680938D01*
Y1574853D02*
X1750325Y1584853D01*
X1755325*
X1752825Y1574853*
Y1808416D02*
Y1688590D01*
Y1808416D02*
X1755325Y1798416D01*
X1750325*
X1752825Y1808416*
X1774578Y1574853D02*
X1747825D01*
X1774130Y1808416D02*
X1747825D01*
X1737093Y1687576D02*
X1734820D01*
X1734593Y1684764*
X1734820Y1685076*
X1735502Y1685389*
X1736184*
X1736866Y1685076*
X1737320Y1684451*
X1737547Y1683514*
X1737320Y1682889*
X1737093Y1681951*
X1736638Y1681326*
X1735957Y1681014*
X1735275*
X1734593Y1681326*
X1734366Y1681639*
X1734138Y1682264*
X1742547Y1685389D02*
X1742320Y1684451D01*
X1741866Y1683826*
X1741184Y1683514*
X1740957*
X1740275Y1683826*
X1739820Y1684451*
X1739593Y1685389*
Y1685701*
X1739820Y1686639*
X1740275Y1687264*
X1740957Y1687576*
X1741184*
X1741866Y1687264*
X1742320Y1686639*
X1742547Y1685389*
Y1683826*
X1742320Y1682264*
X1741866Y1681326*
X1741184Y1681014*
X1740729*
X1740047Y1681326*
X1739820Y1681951*
X1744820Y1681639D02*
X1744593Y1681326D01*
X1744820Y1681014*
X1745047Y1681326*
X1744820Y1681639*
X1747547Y1687576D02*
X1750047D01*
X1748684Y1685076*
X1749366*
X1749820Y1684764*
X1750047Y1684451*
X1750275Y1683514*
Y1682889*
X1750047Y1681951*
X1749593Y1681326*
X1748911Y1681014*
X1748229*
X1747547Y1681326*
X1747320Y1681639*
X1747093Y1682264*
X1752320Y1685389D02*
Y1681014D01*
Y1684139D02*
X1753002Y1685076D01*
X1753457Y1685389*
X1754138*
X1754593Y1685076*
X1754820Y1684139*
Y1681014*
Y1684139D02*
X1755502Y1685076D01*
X1755957Y1685389*
X1756638*
X1757093Y1685076*
X1757320Y1684139*
Y1681014*
X1759366Y1685389D02*
Y1681014D01*
Y1684139D02*
X1760047Y1685076D01*
X1760502Y1685389*
X1761184*
X1761638Y1685076*
X1761866Y1684139*
Y1681014*
Y1684139D02*
X1762547Y1685076D01*
X1763002Y1685389*
X1763684*
X1764138Y1685076*
X1764366Y1684139*
Y1681014*
G54D31*
X1876833Y1581476D02*
G03X1876833I-2540J0D01*
G01X1830847Y1637652D02*
G03X1830847I-2540J0D01*
G01X1811470Y1645277D02*
G03X1811470I-2540J0D01*
G01X1872613Y1660127D02*
G03X1872613I-2540J0D01*
G01X1778515Y1774227D02*
G03X1778515I-2539J0D01*
G01X1817761Y1780098D02*
G03X1817761I-2539J0D01*
G01X1863779Y1738318D02*
G03X1863779I-2540J0D01*
G01X1946570Y1787891D02*
G03X1946570I-2539J0D01*
G01X1886833Y1581476D02*
G03X1886833I-2540J0D01*
G01X1896833D02*
G03X1896833I-2540J0D01*
G01X1906833D02*
G03X1906833I-2540J0D01*
G01X1916833D02*
G03X1916833I-2540J0D01*
G01X1832545Y1640358D02*
Y1638549D01*
X1832044Y1640358D02*
X1833046D01*
X1833691Y1640013D02*
X1833834Y1640099D01*
X1834048Y1640358*
Y1638549*
X1835122Y1640358D02*
X1834907Y1640272D01*
X1834764Y1640013*
X1834693Y1639583*
Y1639324*
X1834764Y1638894*
X1834907Y1638635*
X1835122Y1638549*
X1835265*
X1835480Y1638635*
X1835623Y1638894*
X1835695Y1639324*
Y1639583*
X1835623Y1640013*
X1835480Y1640272*
X1835265Y1640358*
X1835122*
X1813168Y1647982D02*
Y1646174D01*
X1812667Y1647982D02*
X1813669D01*
X1815172Y1647724D02*
X1815101Y1647896D01*
X1814886Y1647982*
X1814743*
X1814528Y1647896*
X1814385Y1647638*
X1814313Y1647207*
Y1646776*
X1814385Y1646432*
X1814528Y1646260*
X1814743Y1646174*
X1814814*
X1815029Y1646260*
X1815172Y1646432*
X1815244Y1646690*
Y1646776*
X1815172Y1647035*
X1815029Y1647207*
X1814814Y1647293*
X1814743*
X1814528Y1647207*
X1814385Y1647035*
X1814313Y1646776*
X1880944Y1660034D02*
X1880855Y1660280D01*
X1880676Y1660526*
X1880497Y1660649*
X1880139*
X1879960Y1660526*
X1879781Y1660280*
X1879691Y1660034*
X1879602Y1659665*
Y1659050*
X1879691Y1658681*
X1879781Y1658435*
X1879960Y1658189*
X1880139Y1658066*
X1880497*
X1880676Y1658189*
X1880855Y1658435*
X1880944Y1658681*
Y1659050*
X1880497D02*
X1880944D01*
X1881749Y1660649D02*
Y1658066D01*
Y1660649D02*
X1883002Y1658066D01*
Y1660649D02*
Y1658066D01*
X1883807Y1660649D02*
Y1658066D01*
Y1660649D02*
X1884434D01*
X1884702Y1660526*
X1884881Y1660280*
X1884971Y1660034*
X1885060Y1659665*
Y1659050*
X1884971Y1658681*
X1884881Y1658435*
X1884702Y1658189*
X1884434Y1658066*
X1883807*
G54D50*
X1832537Y1600681D02*
Y1584769D01*
X1823287D02*
G03X1832538I4625J3537D01*
G01X1823287D02*
Y1600681D01*
X1832532Y1600687D02*
G03X1823285Y1600679I-4620J-4278D01*
G01X1820076Y1596008D02*
Y1593813D01*
G03X1823076I1500J1750*
G01Y1596008*
X1820076Y1597508D02*
Y1599631D01*
X1823076Y1599632D02*
G03X1820077I-1500J-1438D01*
G01X1823076Y1599631D02*
Y1597508D01*
X1903967Y1626274D02*
X1901772D01*
G03Y1623274I1750J-1500*
G01X1903967*
X1905467Y1626274D02*
X1907591D01*
Y1623274D02*
G03Y1626273I-1438J1500D01*
G01Y1623274D02*
X1905467D01*
X1897433Y1606309D02*
X1899628D01*
G03Y1609309I-1750J1500*
G01X1897433*
X1895933Y1606309D02*
X1893810D01*
X1893809Y1609308D02*
G03Y1606309I1438J-1499D01*
G01X1893810Y1609309D02*
X1895933D01*
X1896051Y1632793D02*
X1893856D01*
G03Y1629793I1750J-1500*
G01X1896051*
X1897551Y1632793D02*
X1899675D01*
Y1629793D02*
G03Y1632792I-1438J1500D01*
G01Y1629793D02*
X1897551D01*
X1868206Y1647336D02*
Y1644836D01*
X1871206*
Y1647336*
X1868206Y1648836D02*
Y1651431D01*
X1871206*
Y1648836*
X1926412Y1648509D02*
X1928912D01*
Y1651509*
X1926412*
X1924912Y1648509D02*
X1922316D01*
Y1651509*
X1924912*
X1880636Y1673675D02*
X1882831D01*
G03Y1676674I-1750J1500*
G01Y1676675D02*
X1880636D01*
X1879136Y1673675D02*
X1877013D01*
X1877012Y1676674D02*
G03Y1673675I1438J-1499D01*
G01X1877013Y1676675D02*
X1879136D01*
X1781899Y1785245D02*
X1784094D01*
G03Y1788245I-1750J1500*
G01X1781899*
X1780399Y1785245D02*
X1778275D01*
Y1788245D02*
G03Y1785245I1438J-1500D01*
G01Y1788245D02*
X1780399D01*
X1916936Y1653855D02*
Y1637943D01*
X1907686D02*
G03X1916936I4625J3536D01*
G01X1907686D02*
Y1653855D01*
X1916930Y1653860D02*
G03X1907684Y1653852I-4619J-4277D01*
G01X1934735Y1660633D02*
Y1662828D01*
G03X1931735I-1500J-1750*
G01Y1660633*
X1934735Y1659133D02*
Y1657010D01*
X1931735Y1657009D02*
G03X1934734I1500J1438D01*
G01X1931735Y1657010D02*
Y1659133D01*
X1924074Y1694646D02*
X1939986D01*
X1939985Y1685396D02*
G03Y1694647I-3536J4625D01*
G01X1939986Y1685396D02*
X1924074D01*
X1924068Y1694641D02*
G03X1924076Y1685394I4278J-4620D01*
G01X1876270Y1760820D02*
Y1763015D01*
G03X1873270I-1500J-1750*
G01Y1760820*
X1876270Y1759320D02*
Y1757197D01*
X1873270Y1757196D02*
G03X1876269I1500J1438D01*
G01X1873270Y1757197D02*
Y1759320D01*
X1800939Y1616485D02*
Y1614290D01*
G03X1803939I1500J1750*
G01Y1616485*
X1800939Y1617985D02*
Y1620108D01*
X1803938Y1620109D02*
G03X1800939I-1499J-1438D01*
G01X1803939Y1620108D02*
Y1617985D01*
X1879841Y1725469D02*
Y1727664D01*
G03X1876841I-1500J-1750*
G01Y1725469*
X1879841Y1723969D02*
Y1721846D01*
X1876842Y1721845D02*
G03X1879841I1499J1438D01*
G01X1876841Y1721846D02*
Y1723969D01*
X1821693Y1637776D02*
Y1639971D01*
G03X1818693I-1500J-1750*
G01Y1637776*
X1821693Y1636276D02*
Y1634153D01*
X1818694Y1634152D02*
G03X1821693I1499J1438D01*
G01X1818693Y1634153D02*
Y1636276D01*
X1828260Y1668909D02*
X1830455D01*
G03Y1671909I-1750J1500*
G01X1828260*
X1826760Y1668909D02*
X1824637D01*
X1824636Y1671909D02*
G03Y1668910I1438J-1500D01*
G01X1824637Y1671909D02*
X1826760D01*
X1826794Y1668381D02*
X1824599D01*
G03Y1665381I1750J-1500*
G01X1826794*
X1828294Y1668381D02*
X1830418D01*
Y1665381D02*
G03Y1668380I-1438J1500D01*
G01Y1665381D02*
X1828294D01*
X1846542Y1676377D02*
X1848738D01*
G03Y1679377I-1750J1500*
G01X1846542*
X1845042Y1676377D02*
X1842919D01*
Y1679377D02*
G03Y1676378I1438J-1500D01*
G01Y1679377D02*
X1845042D01*
X1897405Y1600087D02*
X1899600D01*
G03Y1603087I-1750J1500*
G01X1897405*
X1895905Y1600087D02*
X1893781D01*
Y1603086D02*
G03Y1600087I1438J-1499D01*
G01Y1603087D02*
X1895905D01*
X1958397Y1656903D02*
X1956202D01*
G03Y1653903I1750J-1500*
G01X1958397*
X1959897Y1656903D02*
X1962021D01*
Y1653903D02*
G03Y1656902I-1438J1500D01*
G01Y1653903D02*
X1959897D01*
X1798646Y1617985D02*
Y1620180D01*
G03X1795646I-1500J-1750*
G01Y1617985*
X1798646Y1616485D02*
Y1614362D01*
X1795646Y1614361D02*
G03X1798645I1500J1438D01*
G01X1795646Y1614362D02*
Y1616485D01*
X1799835Y1621409D02*
X1802335D01*
Y1624409*
X1799835*
X1798335Y1621409D02*
X1795739D01*
Y1624409*
X1798335*
X1795700Y1627707D02*
Y1625207D01*
X1798700*
Y1627707*
X1795700Y1629207D02*
Y1631802D01*
X1798700*
Y1629207*
X1919798Y1716345D02*
Y1718845D01*
X1916798*
Y1716345*
X1919798Y1714845D02*
Y1712250D01*
X1916798*
Y1714845*
X1886907Y1723978D02*
Y1721478D01*
X1889907*
Y1723978*
X1886907Y1725478D02*
Y1728074D01*
X1889907*
Y1725478*
X1886154Y1725584D02*
Y1728084D01*
X1883154*
Y1725584*
X1886154Y1724084D02*
Y1721489D01*
X1883154*
Y1724084*
X1891089Y1734668D02*
Y1736863D01*
G03X1888089I-1500J-1750*
G01Y1734668*
X1891089Y1733168D02*
Y1731044D01*
X1888090D02*
G03X1891089I1499J1438D01*
G01X1888089D02*
Y1733168D01*
X1882469Y1730711D02*
Y1742443D01*
X1875933*
Y1730711*
X1882469*
X1896522Y1739476D02*
X1899022D01*
Y1742476*
X1896522*
X1895022Y1739476D02*
X1892426D01*
Y1742476*
X1895022*
X1852162Y1720783D02*
X1849967D01*
G03Y1717783I1750J-1500*
G01X1852162*
X1853662Y1720783D02*
X1855785D01*
X1855786Y1717783D02*
G03Y1720782I-1438J1500D01*
G01X1855785Y1717783D02*
X1853662D01*
X1845797Y1726332D02*
X1848297D01*
Y1729332*
X1845797*
X1844297Y1726332D02*
X1841701D01*
Y1729332*
X1844297*
X1845732Y1729902D02*
X1847927D01*
G03Y1732902I-1750J1500*
G01X1845732*
X1844232Y1729902D02*
X1842109D01*
X1842108Y1732902D02*
G03Y1729903I1438J-1500D01*
G01X1842109Y1732902D02*
X1844232D01*
X1844260Y1725522D02*
X1841760D01*
Y1722522*
X1844260*
X1845760Y1725522D02*
X1848356D01*
Y1722522*
X1845760*
X1859750Y1749514D02*
Y1751710D01*
G03X1856750I-1500J-1750*
G01Y1749514*
X1859750Y1748014D02*
Y1745891D01*
X1856751D02*
G03X1859750I1499J1438D01*
G01X1856750D02*
Y1748014D01*
X1859813Y1759111D02*
Y1761611D01*
X1856813*
Y1759111*
X1859813Y1757611D02*
Y1755015D01*
X1856813*
Y1757611*
X1871930Y1765469D02*
X1874125D01*
G03Y1768469I-1750J1500*
G01X1871930*
X1870430Y1765469D02*
X1868306D01*
Y1768468D02*
G03Y1765469I1438J-1499D01*
G01Y1768469D02*
X1870430D01*
X1846811Y1778720D02*
X1844311D01*
Y1775720*
X1846811*
X1848311Y1778720D02*
X1850907D01*
Y1775720*
X1848311*
X1855185Y1779969D02*
Y1782469D01*
X1852185*
Y1779969*
X1855185Y1778469D02*
Y1775874D01*
X1855185D02*
X1852185D01*
X1852185D02*
Y1778469D01*
X1848396Y1779569D02*
X1850591D01*
G03Y1782569I-1750J1500*
G01X1848396*
X1846896Y1779569D02*
X1844772D01*
Y1782568D02*
G03Y1779569I1438J-1499D01*
G01Y1782569D02*
X1846896D01*
X1839931Y1778436D02*
Y1776241D01*
G03X1842931I1500J1750*
G01Y1778436*
X1839931Y1779936D02*
Y1782060D01*
X1842931D02*
G03X1839932I-1500J-1438D01*
G01X1842931D02*
Y1779936D01*
X1845212Y1611078D02*
X1843017D01*
G03Y1608078I1750J-1500*
G01X1845212*
X1846712Y1611078D02*
X1848835D01*
X1848836Y1608079D02*
G03Y1611078I-1438J1499D01*
G01X1848835Y1608078D02*
X1846712D01*
X1779811Y1675015D02*
X1777615D01*
G03Y1672015I1750J-1500*
G01X1779811*
X1781311Y1675015D02*
X1783434D01*
Y1672016D02*
G03Y1675015I-1438J1499D01*
G01Y1672015D02*
X1781311D01*
X1845173Y1607377D02*
X1842978D01*
G03Y1604377I1750J-1500*
G01X1845173*
X1846673Y1607377D02*
X1848796D01*
X1848797Y1604378D02*
G03Y1607377I-1438J1499D01*
G01X1848796Y1604377D02*
X1846673D01*
X1832021Y1619261D02*
Y1617066D01*
G03X1835021I1500J1750*
G01Y1619261*
X1832021Y1620761D02*
Y1622885D01*
X1835021D02*
G03X1832022I-1500J-1438D01*
G01X1835021D02*
Y1620761D01*
X1872690Y1711781D02*
Y1709586D01*
G03X1875690I1500J1750*
G01Y1711781*
X1872690Y1713281D02*
Y1715404D01*
X1875690Y1715405D02*
G03X1872691I-1500J-1438D01*
G01X1875690Y1715404D02*
Y1713281D01*
X1876509Y1711820D02*
Y1709625D01*
G03X1879509I1500J1750*
G01Y1711820*
X1876509Y1713320D02*
Y1715444D01*
X1879509D02*
G03X1876510I-1500J-1438D01*
G01X1879509D02*
Y1713320D01*
X1914562Y1765538D02*
X1916757D01*
G03Y1768538I-1750J1500*
G01X1914562*
X1913062Y1765538D02*
X1910939D01*
X1910938Y1768537D02*
G03Y1765538I1438J-1499D01*
G01X1910939Y1768538D02*
X1913062D01*
X1902259Y1778519D02*
X1900064D01*
G03Y1775519I1750J-1500*
G01X1902259*
X1903759Y1778519D02*
X1905883D01*
Y1775520D02*
G03Y1778519I-1438J1499D01*
G01Y1775519D02*
X1903759D01*
X1798643Y1636942D02*
Y1639137D01*
G03X1795643I-1500J-1750*
G01Y1636942*
X1798643Y1635442D02*
Y1633319D01*
X1795644Y1633318D02*
G03X1798643I1499J1438D01*
G01X1795643Y1633319D02*
Y1635442D01*
X1842657Y1712173D02*
X1844852D01*
G03Y1715173I-1750J1500*
G01X1842657*
X1841157Y1712173D02*
X1839034D01*
X1839033Y1715172D02*
G03Y1712173I1438J-1499D01*
G01X1839034Y1715173D02*
X1841157D01*
X1776374Y1657797D02*
X1792286D01*
Y1648547D02*
G03Y1657798I-3536J4625D01*
G01Y1648547D02*
X1776374D01*
X1776369Y1657792D02*
G03X1776377Y1648545I4277J-4620D01*
G01X1876404Y1594935D02*
Y1597435D01*
X1873404*
Y1594935*
X1876404Y1593435D02*
Y1590839D01*
X1873404*
Y1593435*
X1903814Y1629541D02*
X1901314D01*
Y1626541*
X1903814*
X1905314Y1629541D02*
X1907910D01*
Y1626541*
X1905314*
X1870409Y1776058D02*
X1867909D01*
Y1773058*
X1870409*
X1871909Y1776058D02*
X1874505D01*
Y1773058*
X1871909*
X1871985Y1769134D02*
X1874485D01*
Y1772134*
X1871985*
X1870485Y1769134D02*
X1867889D01*
Y1772134*
X1870485*
X1910068Y1771992D02*
Y1769492D01*
X1913068*
Y1771992*
X1910068Y1773492D02*
Y1776088D01*
X1913068*
Y1773492*
X1917547Y1773531D02*
Y1776031D01*
X1914547*
Y1773531*
X1917547Y1772031D02*
Y1769436D01*
X1914547*
Y1772031*
X1796614Y1588362D02*
X1812526D01*
Y1579111D02*
G03Y1588362I-3537J4626D01*
G01Y1579112D02*
X1796614D01*
X1796608Y1588356D02*
G03X1796616Y1579110I4278J-4619D01*
G01X1852640Y1590937D02*
X1852526Y1591218D01*
X1852299Y1591499*
X1852072Y1591640*
X1851617*
X1851390Y1591499*
X1851163Y1591218*
X1851049Y1590937*
X1850936Y1590515*
Y1589812*
X1851049Y1589390*
X1851163Y1589108*
X1851390Y1588827*
X1851617Y1588687*
X1852072*
X1852299Y1588827*
X1852526Y1589108*
X1852640Y1589390*
X1854345Y1591640D02*
X1854117Y1591499D01*
X1853890Y1591218*
X1853776Y1590937*
X1853663Y1590515*
Y1589812*
X1853776Y1589390*
X1853890Y1589108*
X1854117Y1588827*
X1854345Y1588687*
X1854799*
X1855026Y1588827*
X1855254Y1589108*
X1855367Y1589390*
X1855481Y1589812*
Y1590515*
X1855367Y1590937*
X1855254Y1591218*
X1855026Y1591499*
X1854799Y1591640*
X1854345*
X1856504D02*
Y1588687D01*
Y1591640D02*
X1858095Y1588687D01*
Y1591640D02*
Y1588687D01*
X1860708Y1591640D02*
X1859572Y1588687D01*
X1859117Y1591640D02*
X1860708D01*
G54D51*
X1870427Y1660727D02*
Y1658660D01*
X1869926Y1660727D02*
X1870928D01*
X1872503Y1660038D02*
X1872431Y1659743D01*
X1872288Y1659546*
X1872073Y1659448*
X1872002*
X1871787Y1659546*
X1871644Y1659743*
X1871572Y1660038*
Y1660137*
X1871644Y1660432*
X1871787Y1660629*
X1872002Y1660727*
X1872073*
X1872288Y1660629*
X1872431Y1660432*
X1872503Y1660038*
Y1659546*
X1872431Y1659054*
X1872288Y1658759*
X1872073Y1658660*
X1871930*
X1871715Y1658759*
X1871644Y1658956*
G54D150*
X1889827Y1778677D02*
X1896427D01*
Y1775677*
X1889827*
Y1778677*
G54D152*
X1806493Y1626626D02*
G03X1806493I-492J0D01*
G54D153*
G01X1851360Y1657525D02*
Y1663825D01*
X1831674*
Y1657525*
X1851360*
X1831868Y1651029D02*
G03X1831868I-1601J0D01*
G01X1895567Y1774334D02*
X1889267D01*
Y1754648*
X1895567*
Y1774334*
X1903664Y1753241D02*
G03X1903664I-1601J0D01*
G01X1835191Y1761543D02*
Y1755243D01*
X1854877*
Y1761543*
X1835191*
X1857884Y1768039D02*
G03X1857884I-1600J0D01*
G01X1831528Y1698694D02*
Y1692394D01*
X1851214*
Y1698694*
X1831528*
X1854222Y1705190D02*
G03X1854222I-1601J0D01*
G01X1828541Y1629972D02*
X1829820D01*
Y1628693*
X1828541Y1609500D02*
X1829820D01*
Y1610779*
X1810627Y1609500D02*
X1809348D01*
Y1610779*
X1810627Y1629972D02*
X1809348D01*
Y1628693*
G54D154*
X1883905Y1610048D02*
G03X1883905I-1761J0D01*
G54D155*
G01X1781485Y1800766D02*
Y1800962D01*
X1788571*
Y1800766*
X1781485Y1788954D02*
Y1788758D01*
X1788571*
Y1788954*
X1952227Y1656539D02*
Y1662936D01*
X1950455*
X1941991Y1656539D02*
Y1662936D01*
X1943763*
X1954293Y1641886D02*
Y1635489D01*
X1956065*
X1964529Y1641886D02*
Y1635489D01*
X1962757*
X1881710Y1693908D02*
Y1693712D01*
X1874624*
Y1693908*
X1881710Y1705720D02*
Y1705916D01*
X1874624*
Y1705720*
X1860163Y1774858D02*
X1866855D01*
X1866068Y1778599D02*
X1866855D01*
Y1767181*
X1866068*
X1860950Y1778599D02*
X1860163D01*
Y1767181*
X1860950*
X1779860Y1671035D02*
Y1671231D01*
X1786946*
Y1671035*
X1779860Y1659223D02*
Y1659027D01*
X1786946*
Y1659223*
X1872182Y1681271D02*
X1871986D01*
Y1688357*
X1872182*
X1883994Y1681271D02*
X1884190D01*
Y1688357*
X1883994*
X1884151Y1718516D02*
Y1718712D01*
X1891237*
Y1718516*
X1884151Y1706704D02*
Y1706508D01*
X1891237*
Y1706704*
X1853490Y1733870D02*
Y1734066D01*
X1860576*
Y1733870*
X1853490Y1722058D02*
Y1721862D01*
X1860576*
Y1722058*
G54D156*
X1790343Y1788856D02*
G03X1790343I-197J0D01*
G01X1873246Y1705818D02*
G03X1873246I-197J0D01*
G01X1788718Y1659125D02*
G03X1788718I-197J0D01*
G01X1884289Y1689932D02*
G03X1884289I-197J0D01*
G01X1893009Y1706606D02*
G03X1893009I-197J0D01*
G01X1862348Y1721960D02*
G03X1862348I-197J0D01*
G54D190*
G01X1828589Y1592965D02*
X1828786Y1593037D01*
X1828983Y1593180*
X1829082Y1593323*
Y1593609*
X1828983Y1593753*
X1828786Y1593896*
X1828589Y1593967*
X1828294Y1594039*
X1827802*
X1827507Y1593967*
X1827310Y1593896*
X1827113Y1593753*
X1827015Y1593609*
Y1593323*
X1827113Y1593180*
X1827310Y1593037*
X1827507Y1592965*
X1829082Y1591390D02*
Y1592106D01*
X1828196Y1592178*
X1828294Y1592106*
X1828393Y1591891*
Y1591677*
X1828294Y1591462*
X1828097Y1591319*
X1827802Y1591247*
X1827605Y1591319*
X1827310Y1591390*
X1827113Y1591534*
X1827015Y1591748*
Y1591963*
X1827113Y1592178*
X1827212Y1592249*
X1827408Y1592321*
X1822111Y1597084D02*
X1822308Y1597156D01*
X1822505Y1597299*
X1822603Y1597442*
Y1597728*
X1822505Y1597872*
X1822308Y1598015*
X1822111Y1598086*
X1821816Y1598158*
X1821323*
X1821028Y1598086*
X1820831Y1598015*
X1820634Y1597872*
X1820536Y1597728*
Y1597442*
X1820634Y1597299*
X1820831Y1597156*
X1821028Y1597084*
X1822603Y1596082D02*
X1822505Y1596297D01*
X1822308Y1596368*
X1822111*
X1821914Y1596297*
X1821816Y1596154*
X1821717Y1595867*
X1821619Y1595653*
X1821422Y1595509*
X1821225Y1595438*
X1820930*
X1820733Y1595509*
X1820634Y1595581*
X1820536Y1595796*
Y1596082*
X1820634Y1596297*
X1820733Y1596368*
X1820930Y1596440*
X1821225*
X1821422Y1596368*
X1821619Y1596225*
X1821717Y1596010*
X1821816Y1595724*
X1821914Y1595581*
X1822111Y1595509*
X1822308*
X1822505Y1595581*
X1822603Y1595796*
Y1596082*
X1903687Y1625329D02*
X1903615Y1625526D01*
X1903472Y1625722*
X1903329Y1625821*
X1903043*
X1902900Y1625722*
X1902756Y1625526*
X1902685Y1625329*
X1902613Y1625033*
Y1624541*
X1902685Y1624246*
X1902756Y1624049*
X1902900Y1623852*
X1903043Y1623754*
X1903329*
X1903472Y1623852*
X1903615Y1624049*
X1903687Y1624246*
X1904403Y1625329D02*
Y1625427D01*
X1904474Y1625624*
X1904546Y1625722*
X1904689Y1625821*
X1904975*
X1905119Y1625722*
X1905190Y1625624*
X1905262Y1625427*
Y1625230*
X1905190Y1625033*
X1905047Y1624738*
X1904331Y1623754*
X1905333*
X1906980Y1625821D02*
X1906264Y1623754D01*
X1905978Y1625821D02*
X1906980D01*
X1895803Y1608410D02*
X1895731Y1608607D01*
X1895588Y1608804*
X1895445Y1608902*
X1895158*
X1895015Y1608804*
X1894872Y1608607*
X1894800Y1608410*
X1894729Y1608115*
Y1607622*
X1894800Y1607327*
X1894872Y1607130*
X1895015Y1606933*
X1895158Y1606835*
X1895445*
X1895588Y1606933*
X1895731Y1607130*
X1895803Y1607327*
X1896518Y1608410D02*
Y1608508D01*
X1896590Y1608705*
X1896662Y1608804*
X1896805Y1608902*
X1897091*
X1897234Y1608804*
X1897306Y1608705*
X1897377Y1608508*
Y1608311*
X1897306Y1608115*
X1897163Y1607819*
X1896447Y1606835*
X1897449*
X1898952Y1608607D02*
X1898881Y1608804D01*
X1898666Y1608902*
X1898523*
X1898308Y1608804*
X1898165Y1608508*
X1898093Y1608016*
Y1607524*
X1898165Y1607130*
X1898308Y1606933*
X1898523Y1606835*
X1898594*
X1898809Y1606933*
X1898952Y1607130*
X1899024Y1607426*
Y1607524*
X1898952Y1607819*
X1898809Y1608016*
X1898594Y1608115*
X1898523*
X1898308Y1608016*
X1898165Y1607819*
X1898093Y1607524*
X1896000Y1631979D02*
X1895928Y1632176D01*
X1895785Y1632373*
X1895642Y1632471*
X1895355*
X1895212Y1632373*
X1895069Y1632176*
X1894997Y1631979*
X1894926Y1631684*
Y1631192*
X1894997Y1630896*
X1895069Y1630699*
X1895212Y1630503*
X1895355Y1630404*
X1895642*
X1895785Y1630503*
X1895928Y1630699*
X1896000Y1630896*
X1897503Y1632176D02*
X1897431Y1632373D01*
X1897216Y1632471*
X1897073*
X1896859Y1632373*
X1896715Y1632077*
X1896644Y1631585*
Y1631093*
X1896715Y1630699*
X1896859Y1630503*
X1897073Y1630404*
X1897145*
X1897360Y1630503*
X1897503Y1630699*
X1897574Y1630995*
Y1631093*
X1897503Y1631388*
X1897360Y1631585*
X1897145Y1631684*
X1897073*
X1896859Y1631585*
X1896715Y1631388*
X1896644Y1631093*
X1898648Y1632471D02*
X1898433Y1632373D01*
X1898290Y1632077*
X1898219Y1631585*
Y1631290*
X1898290Y1630798*
X1898433Y1630503*
X1898648Y1630404*
X1898791*
X1899006Y1630503*
X1899149Y1630798*
X1899221Y1631290*
Y1631585*
X1899149Y1632077*
X1899006Y1632373*
X1898791Y1632471*
X1898648*
X1914164Y1795913D02*
X1915166Y1793846D01*
Y1795913D02*
X1914164Y1793846D01*
X1915954Y1795913D02*
X1916741D01*
X1916312Y1795126*
X1916526*
X1916669Y1795027*
X1916741Y1794929*
X1916813Y1794634*
Y1794437*
X1916741Y1794142*
X1916598Y1793945*
X1916383Y1793846*
X1916168*
X1915954Y1793945*
X1915882Y1794043*
X1915810Y1794240*
X1870827Y1650251D02*
X1868760D01*
X1870827D02*
Y1649607D01*
X1870729Y1649392*
X1870630Y1649320*
X1870434Y1649249*
X1870237*
X1870040Y1649320*
X1869941Y1649392*
X1869843Y1649607*
Y1650251*
Y1649750D02*
X1868760Y1649249D01*
X1870335Y1648533D02*
X1870434D01*
X1870630Y1648461*
X1870729Y1648390*
X1870827Y1648247*
Y1647960*
X1870729Y1647817*
X1870630Y1647746*
X1870434Y1647674*
X1870237*
X1870040Y1647746*
X1869745Y1647889*
X1868760Y1648605*
Y1647602*
X1870827Y1646529D02*
X1870729Y1646743D01*
X1870434Y1646887*
X1869941Y1646958*
X1869646*
X1869154Y1646887*
X1868859Y1646743*
X1868760Y1646529*
Y1646386*
X1868859Y1646171*
X1869154Y1646028*
X1869646Y1645956*
X1869941*
X1870434Y1646028*
X1870729Y1646171*
X1870827Y1646386*
Y1646529*
X1886744Y1664732D02*
Y1662665D01*
X1886243Y1664732D02*
X1887245D01*
X1888033D02*
X1888820D01*
X1888391Y1663945*
X1888605*
X1888749Y1663847*
X1888820Y1663748*
X1888892Y1663453*
Y1663256*
X1888820Y1662961*
X1888677Y1662764*
X1888462Y1662665*
X1888248*
X1888033Y1662764*
X1887961Y1662862*
X1887890Y1663059*
X1823497Y1796525D02*
X1824499Y1794458D01*
Y1796525D02*
X1823497Y1794458D01*
X1825859Y1796525D02*
X1825143Y1795147D01*
X1826217*
X1825859Y1796525D02*
Y1794458D01*
X1923274Y1651048D02*
Y1648981D01*
Y1651048D02*
X1923919D01*
X1924133Y1650950*
X1924205Y1650851*
X1924277Y1650654*
Y1650457*
X1924205Y1650261*
X1924133Y1650162*
X1923919Y1650064*
X1923274*
X1923775D02*
X1924277Y1648981D01*
X1924992Y1650556D02*
Y1650654D01*
X1925064Y1650851*
X1925136Y1650950*
X1925279Y1651048*
X1925565*
X1925708Y1650950*
X1925780Y1650851*
X1925851Y1650654*
Y1650457*
X1925780Y1650261*
X1925637Y1649965*
X1924921Y1648981*
X1925923*
X1927569Y1651048D02*
X1926853Y1648981D01*
X1926567Y1651048D02*
X1927569D01*
X1879799Y1675652D02*
X1879727Y1675849D01*
X1879584Y1676046*
X1879441Y1676144*
X1879155*
X1879012Y1676046*
X1878868Y1675849*
X1878797Y1675652*
X1878725Y1675357*
Y1674865*
X1878797Y1674569*
X1878868Y1674372*
X1879012Y1674176*
X1879155Y1674077*
X1879441*
X1879584Y1674176*
X1879727Y1674372*
X1879799Y1674569*
X1880443Y1675750D02*
X1880586Y1675849D01*
X1880801Y1676144*
Y1674077*
X1865058Y1672687D02*
Y1670620D01*
X1864557Y1672687D02*
X1865559D01*
X1866204Y1672293D02*
X1866347Y1672392D01*
X1866562Y1672687*
Y1670620*
X1780081Y1774672D02*
Y1772605D01*
X1779580Y1774672D02*
X1780582D01*
X1781298Y1774180D02*
Y1774278D01*
X1781369Y1774475*
X1781441Y1774574*
X1781584Y1774672*
X1781870*
X1782014Y1774574*
X1782085Y1774475*
X1782157Y1774278*
Y1774082*
X1782085Y1773885*
X1781942Y1773589*
X1781226Y1772605*
X1782228*
X1780992Y1787350D02*
X1780921Y1787547D01*
X1780778Y1787744*
X1780634Y1787842*
X1780348*
X1780205Y1787744*
X1780062Y1787547*
X1779990Y1787350*
X1779919Y1787055*
Y1786562*
X1779990Y1786267*
X1780062Y1786070*
X1780205Y1785873*
X1780348Y1785775*
X1780634*
X1780778Y1785873*
X1780921Y1786070*
X1780992Y1786267*
X1781708Y1787350D02*
Y1787448D01*
X1781780Y1787645*
X1781851Y1787744*
X1781994Y1787842*
X1782281*
X1782424Y1787744*
X1782496Y1787645*
X1782567Y1787448*
Y1787251*
X1782496Y1787055*
X1782352Y1786759*
X1781637Y1785775*
X1782639*
X1783570Y1796164D02*
Y1794688D01*
X1783642Y1794392*
X1783785Y1794195*
X1784000Y1794097*
X1784143*
X1784357Y1794195*
X1784501Y1794392*
X1784572Y1794688*
Y1796164*
X1785288Y1795672D02*
Y1795770D01*
X1785360Y1795967*
X1785431Y1796065*
X1785574Y1796164*
X1785861*
X1786004Y1796065*
X1786075Y1795967*
X1786147Y1795770*
Y1795573*
X1786075Y1795377*
X1785932Y1795081*
X1785216Y1794097*
X1786219*
X1825950Y1693149D02*
X1823883D01*
Y1692290*
X1825556Y1691646D02*
X1825655Y1691503D01*
X1825950Y1691288*
X1823883*
X1927169Y1680505D02*
X1925102D01*
Y1679646*
X1927169Y1678644D02*
X1927071Y1678859D01*
X1926874Y1678930*
X1926677*
X1926480Y1678859*
X1926382Y1678716*
X1926284Y1678429*
X1926185Y1678214*
X1925988Y1678071*
X1925791Y1678000*
X1925496*
X1925299Y1678071*
X1925201Y1678143*
X1925102Y1678358*
Y1678644*
X1925201Y1678859*
X1925299Y1678930*
X1925496Y1679002*
X1925791*
X1925988Y1678930*
X1926185Y1678787*
X1926284Y1678572*
X1926382Y1678286*
X1926480Y1678143*
X1926677Y1678071*
X1926874*
X1927071Y1678143*
X1927169Y1678358*
Y1678644*
X1921081Y1659696D02*
Y1657629D01*
X1921940*
X1923443Y1659401D02*
X1923371Y1659598D01*
X1923156Y1659696*
X1923013*
X1922799Y1659598*
X1922655Y1659302*
X1922584Y1658810*
Y1658318*
X1922655Y1657924*
X1922799Y1657727*
X1922799D02*
X1923013Y1657629D01*
X1923085*
X1923300Y1657727*
X1923300D02*
X1923443Y1657924D01*
X1923514Y1658220*
Y1658318*
X1923443Y1658613*
X1923300Y1658810*
X1923085Y1658909*
X1923013*
X1922799Y1658810*
X1922655Y1658613*
X1922584Y1658318*
X1909669Y1645979D02*
X1909598Y1646176D01*
X1909455Y1646373*
X1909311Y1646471*
X1909025*
X1908882Y1646373*
X1908739Y1646176*
X1908667Y1645979*
X1908596Y1645684*
Y1645192*
X1908667Y1644897*
X1908739Y1644700*
X1908882Y1644503*
X1909025Y1644404*
X1909311*
X1909455Y1644503*
X1909598Y1644700*
X1909669Y1644897*
X1910457Y1646471D02*
X1911244D01*
X1910815Y1645684*
X1911029*
X1911172Y1645585*
X1911244Y1645487*
X1911316Y1645192*
Y1644995*
X1911244Y1644700*
X1911101Y1644503*
X1910886Y1644404*
X1910671*
X1910457Y1644503*
X1910385Y1644601*
X1910313Y1644798*
X1912890Y1646471D02*
X1912175D01*
X1912103Y1645585*
X1912175Y1645684*
X1912389Y1645782*
X1912604*
X1912819Y1645684*
X1912962Y1645487*
X1913034Y1645192*
X1912962Y1644995*
X1912890Y1644700*
X1912747Y1644503*
X1912533Y1644404*
X1912318*
X1912103Y1644503*
X1912031Y1644601*
X1911960Y1644798*
X1933925Y1661188D02*
X1934122Y1661260D01*
X1934319Y1661403*
X1934417Y1661546*
Y1661832*
X1934319Y1661975*
X1934122Y1662119*
X1933925Y1662190*
X1933630Y1662262*
X1933138*
X1932842Y1662190*
X1932645Y1662119*
X1932449Y1661975*
X1932350Y1661832*
Y1661546*
X1932449Y1661403*
X1932645Y1661260*
X1932842Y1661188*
X1934417Y1659828D02*
X1933039Y1660544D01*
Y1659470*
X1934417Y1659828D02*
X1932350D01*
X1934417Y1657895D02*
Y1658611D01*
X1933531Y1658683*
X1933630Y1658611*
X1933728Y1658396*
Y1658182*
X1933630Y1657967*
X1933433Y1657824*
X1933138Y1657752*
X1932941Y1657824*
X1932645Y1657895*
X1932449Y1658038*
X1932350Y1658253*
Y1658468*
X1932449Y1658683*
X1932547Y1658754*
X1932744Y1658826*
X1938497Y1659522D02*
X1938694Y1659593D01*
X1938891Y1659737*
X1938990Y1659880*
Y1660166*
X1938891Y1660309*
X1938694Y1660452*
X1938497Y1660524*
X1938202Y1660596*
X1937710*
X1937415Y1660524*
X1937218Y1660452*
X1937021Y1660309*
X1936923Y1660166*
Y1659880*
X1937021Y1659737*
X1937218Y1659593*
X1937415Y1659522*
X1938990Y1658162D02*
X1937612Y1658878D01*
Y1657804*
X1938990Y1658162D02*
X1936923D01*
X1938990Y1657017D02*
Y1656229D01*
X1938202Y1656659*
Y1656444*
X1938104Y1656301*
X1938005Y1656229*
X1937710Y1656158*
X1937513*
X1937218Y1656229*
X1937021Y1656372*
X1936923Y1656587*
Y1656802*
X1937021Y1657017*
X1937119Y1657088*
X1937316Y1657160*
X1945864Y1659360D02*
X1945720Y1659261D01*
X1945577Y1659064*
X1945506Y1658867*
X1945434Y1658572*
Y1658080*
X1945506Y1657785*
X1945577Y1657588*
X1945720Y1657391*
X1945864Y1657293*
X1946150*
X1946293Y1657391*
X1946436Y1657588*
X1946508Y1657785*
X1946579Y1658080*
Y1658572*
X1946508Y1658867*
X1946436Y1659064*
X1946293Y1659261*
X1946150Y1659360*
X1945864*
X1946078Y1657686D02*
X1946508Y1657096D01*
X1947224Y1658966D02*
X1947367Y1659064D01*
X1947582Y1659360*
Y1657293*
X1930941Y1690101D02*
X1930869Y1690298D01*
X1930726Y1690495*
X1930583Y1690593*
X1930297*
X1930153Y1690495*
X1930010Y1690298*
X1929939Y1690101*
X1929867Y1689806*
Y1689314*
X1929939Y1689018*
X1930010Y1688822*
X1930153Y1688625*
X1930297Y1688526*
X1930583*
X1930726Y1688625*
X1930869Y1688822*
X1930941Y1689018*
X1931728Y1690593D02*
X1932516D01*
X1932086Y1689806*
X1932301*
X1932444Y1689707*
X1932516Y1689609*
X1932587Y1689314*
Y1689117*
X1932516Y1688822*
X1932372Y1688625*
X1932158Y1688526*
X1931943*
X1931728Y1688625*
X1931657Y1688723*
X1931585Y1688920*
X1933947Y1690593D02*
X1933231Y1689215D01*
X1934305*
X1933947Y1690593D02*
Y1688526D01*
X1875181Y1761265D02*
X1875378Y1761336D01*
X1875574Y1761479*
X1875673Y1761623*
Y1761909*
X1875574Y1762052*
X1875378Y1762195*
X1875181Y1762267*
X1874885Y1762338*
X1874393*
X1874098Y1762267*
X1873901Y1762195*
X1873704Y1762052*
X1873606Y1761909*
Y1761623*
X1873704Y1761479*
X1873901Y1761336*
X1874098Y1761265*
X1875279Y1760620D02*
X1875378Y1760477D01*
X1875673Y1760263*
X1873606*
X1875673Y1758616D02*
X1873606Y1759332D01*
X1875673Y1759618D02*
Y1758616D01*
X1803006Y1617692D02*
X1803202Y1617764D01*
X1803399Y1617907*
X1803498Y1618050*
Y1618336*
X1803399Y1618480*
X1803202Y1618623*
X1803006Y1618694*
X1802710Y1618766*
X1802218*
X1801923Y1618694*
X1801726Y1618623*
X1801529Y1618480*
X1801431Y1618336*
Y1618050*
X1801529Y1617907*
X1801726Y1617764*
X1801923Y1617692*
X1802809Y1616117D02*
X1802514Y1616189D01*
X1802317Y1616332*
X1802218Y1616547*
Y1616618*
X1802317Y1616833*
X1802514Y1616976*
X1802809Y1617048*
X1802907*
X1803202Y1616976*
X1803399Y1616833*
X1803498Y1616618*
Y1616547*
X1803399Y1616332*
X1803202Y1616189*
X1802809Y1616117*
X1802317*
X1801825Y1616189*
X1801529Y1616332*
X1801431Y1616547*
Y1616690*
X1801529Y1616905*
X1801726Y1616976*
X1878956Y1725542D02*
X1879153Y1725613D01*
X1879350Y1725757*
X1879448Y1725900*
Y1726186*
X1879350Y1726329*
X1879153Y1726472*
X1878956Y1726544*
X1878661Y1726616*
X1878169*
X1877873Y1726544*
X1877676Y1726472*
X1877480Y1726329*
X1877381Y1726186*
Y1725900*
X1877480Y1725757*
X1877676Y1725613*
X1877873Y1725542*
X1879054Y1724898D02*
X1879153Y1724754D01*
X1879448Y1724540*
X1877381*
X1879448Y1723752D02*
Y1722965D01*
X1878661Y1723394*
Y1723180*
X1878562Y1723036*
X1878464Y1722965*
X1878169Y1722893*
X1877972*
X1877676Y1722965*
X1877480Y1723108*
X1877381Y1723323*
Y1723538*
X1877480Y1723752*
X1877578Y1723824*
X1877775Y1723895*
X1874499Y1724156D02*
X1874674Y1724228D01*
X1874849Y1724371*
X1874936Y1724514*
Y1724800*
X1874849Y1724943*
X1874674Y1725087*
X1874499Y1725158*
X1874237Y1725230*
X1873800*
X1873538Y1725158*
X1873364Y1725087*
X1873189Y1724943*
X1873101Y1724800*
Y1724514*
X1873189Y1724371*
X1873364Y1724228*
X1873538Y1724156*
X1874674Y1722653D02*
X1874849Y1722724D01*
X1874936Y1722939*
Y1723082*
X1874849Y1723297*
X1874586Y1723440*
X1874150Y1723512*
X1873713*
X1873364Y1723440*
X1873189Y1723297*
X1873101Y1723082*
Y1723011*
X1873189Y1722796*
X1873364Y1722653*
X1873626Y1722581*
X1873713*
X1873975Y1722653*
X1874150Y1722796*
X1874237Y1723011*
Y1723082*
X1874150Y1723297*
X1873975Y1723440*
X1873713Y1723512*
X1874936Y1721794D02*
Y1721006D01*
X1874237Y1721436*
Y1721221*
X1874150Y1721078*
X1874062Y1721006*
X1873800Y1720935*
X1873626*
X1873364Y1721006*
X1873189Y1721150*
X1873101Y1721364*
Y1721579*
X1873189Y1721794*
X1873276Y1721865*
X1873451Y1721937*
X1819063Y1780822D02*
Y1778756D01*
X1818562Y1780822D02*
X1819564D01*
X1821139D02*
X1820423D01*
X1820351Y1779937*
X1820423Y1780035*
X1820638Y1780133*
X1820853*
X1821067Y1780035*
X1821210Y1779838*
X1821282Y1779543*
X1821210Y1779346*
X1821139Y1779051*
X1820996Y1778854*
X1820781Y1778756*
X1820566*
X1820351Y1778854*
X1820280Y1778952*
X1820208Y1779149*
X1820918Y1637445D02*
X1821115Y1637517D01*
X1821312Y1637660*
X1821411Y1637803*
Y1638089*
X1821312Y1638232*
X1821115Y1638376*
X1820918Y1638447*
X1820623Y1638519*
X1820131*
X1819836Y1638447*
X1819639Y1638376*
X1819442Y1638232*
X1819344Y1638089*
Y1637803*
X1819442Y1637660*
X1819639Y1637517*
X1819836Y1637445*
X1821115Y1635942D02*
X1821312Y1636013D01*
X1821411Y1636228*
Y1636371*
X1821312Y1636586*
X1821017Y1636729*
X1820525Y1636801*
X1820033*
X1819639Y1636729*
X1819442Y1636586*
X1819344Y1636371*
Y1636300*
X1819442Y1636085*
X1819639Y1635942*
X1819934Y1635870*
X1820033*
X1820328Y1635942*
X1820525Y1636085*
X1820623Y1636300*
Y1636371*
X1820525Y1636586*
X1820328Y1636729*
X1820033Y1636801*
X1826504Y1670966D02*
X1826432Y1671163D01*
X1826289Y1671360*
X1826146Y1671458*
X1825860*
X1825717Y1671360*
X1825573Y1671163*
X1825502Y1670966*
X1825430Y1670671*
Y1670179*
X1825502Y1669884*
X1825573Y1669687*
X1825717Y1669490*
X1825860Y1669391*
X1826146*
X1826289Y1669490*
X1826432Y1669687*
X1826504Y1669884*
X1827291Y1671458D02*
X1828079D01*
X1827649Y1670671*
X1827864*
X1828007Y1670573*
X1828079Y1670474*
X1828150Y1670179*
Y1669982*
X1828079Y1669687*
X1827936Y1669490*
X1827721Y1669391*
X1827506*
X1827291Y1669490*
X1827220Y1669588*
X1827148Y1669785*
X1829152Y1671458D02*
X1828938Y1671360D01*
X1828866Y1671163*
Y1670966*
X1828938Y1670769*
X1829081Y1670671*
X1829367Y1670573*
X1829582Y1670474*
X1829725Y1670277*
X1829797Y1670080*
Y1669785*
X1829725Y1669588*
X1829654Y1669490*
X1829439Y1669391*
X1829152*
X1828938Y1669490*
X1828866Y1669588*
X1828795Y1669785*
Y1670080*
X1828866Y1670277*
X1829009Y1670474*
X1829224Y1670573*
X1829510Y1670671*
X1829654Y1670769*
X1829725Y1670966*
Y1671163*
X1829654Y1671360*
X1829439Y1671458*
X1829152*
X1826690Y1667422D02*
X1826619Y1667619D01*
X1826476Y1667816*
X1826333Y1667914*
X1826046*
X1825903Y1667816*
X1825760Y1667619*
X1825688Y1667422*
X1825617Y1667127*
Y1666635*
X1825688Y1666340*
X1825760Y1666143*
X1825903Y1665946*
X1826046Y1665848*
X1826333*
X1826476Y1665946*
X1826619Y1666143*
X1826690Y1666340*
X1827478Y1667914D02*
X1828265D01*
X1827836Y1667127*
X1828051*
X1828194Y1667029*
X1828265Y1666930*
X1828337Y1666635*
Y1666438*
X1828265Y1666143*
X1828122Y1665946*
X1827907Y1665848*
X1827693*
X1827478Y1665946*
X1827406Y1666044*
X1827335Y1666241*
X1829912Y1667225D02*
X1829840Y1666930D01*
X1829697Y1666733*
X1829482Y1666635*
X1829411*
X1829196Y1666733*
X1829053Y1666930*
X1828981Y1667225*
Y1667324*
X1829053Y1667619*
X1829196Y1667816*
X1829411Y1667914*
X1829482*
X1829697Y1667816*
X1829840Y1667619*
X1829912Y1667225*
Y1666733*
X1829840Y1666241*
X1829697Y1665946*
X1829482Y1665848*
X1829339*
X1829124Y1665946*
X1829053Y1666143*
X1844648Y1678518D02*
X1844576Y1678714D01*
X1844433Y1678911*
X1844290Y1679010*
X1844004*
X1843860Y1678911*
X1843717Y1678714*
X1843646Y1678518*
X1843574Y1678222*
Y1677730*
X1843646Y1677435*
X1843717Y1677238*
X1843860Y1677041*
X1844004Y1676943*
X1844290*
X1844433Y1677041*
X1844576Y1677238*
X1844648Y1677435*
X1846008Y1679010D02*
X1845292Y1677632D01*
X1846366*
X1846008Y1679010D02*
Y1676943D01*
X1847010Y1678616D02*
X1847153Y1678714D01*
X1847368Y1679010*
Y1676943*
X1839665Y1658750D02*
X1841141D01*
X1841436Y1658822*
X1841633Y1658965*
X1841731Y1659180*
Y1659323*
X1841633Y1659537*
X1841436Y1659681*
X1841141Y1659752*
X1839665*
X1840157Y1660468D02*
X1840058D01*
X1839861Y1660540*
X1839763Y1660611*
X1839665Y1660754*
Y1661041*
X1839763Y1661184*
X1839861Y1661255*
X1840058Y1661327*
X1840255*
X1840452Y1661255*
X1840747Y1661112*
X1841731Y1660396*
Y1661399*
X1839665Y1662472D02*
X1839763Y1662258D01*
X1840058Y1662114*
X1840550Y1662043*
X1840846*
X1841338Y1662114*
X1841633Y1662258*
X1841731Y1662472*
Y1662616*
X1841731D02*
X1841633Y1662830D01*
X1841338Y1662973*
X1840846Y1663045*
X1840550*
X1840058Y1662973*
X1839763Y1662830*
X1839665Y1662616*
X1839665D02*
Y1662472D01*
X1895446Y1602225D02*
X1895374Y1602422D01*
X1895231Y1602619*
X1895088Y1602717*
X1894802*
X1894658Y1602619*
X1894515Y1602422*
X1894444Y1602225*
X1894372Y1601930*
Y1601438*
X1894444Y1601142*
X1894515Y1600946*
X1894658Y1600749*
X1894802Y1600650*
X1895088*
X1895231Y1600749*
X1895374Y1600946*
X1895446Y1601142*
X1897021Y1602717D02*
X1896305D01*
X1896233Y1601831*
X1896305Y1601930*
X1896520Y1602028*
X1896734*
X1896949Y1601930*
X1897092Y1601733*
X1897164Y1601438*
X1897092Y1601241*
X1897021Y1600946*
X1896878Y1600749*
X1896663Y1600650*
X1896448*
X1896233Y1600749*
X1896162Y1600847*
X1896090Y1601044*
X1898166Y1602717D02*
X1897951Y1602619D01*
X1897880Y1602422*
Y1602225*
X1897951Y1602028*
X1898094Y1601930*
X1898381Y1601831*
X1898595Y1601733*
X1898739Y1601536*
X1898810Y1601339*
Y1601044*
X1898739Y1600847*
X1898667Y1600749*
X1898452Y1600650*
X1898166*
X1897951Y1600749*
X1897880Y1600847*
X1897808Y1601044*
Y1601339*
X1897880Y1601536*
X1898023Y1601733*
X1898238Y1601831*
X1898524Y1601930*
X1898667Y1602028*
X1898739Y1602225*
Y1602422*
X1898667Y1602619*
X1898452Y1602717*
X1898166*
X1958185Y1655988D02*
X1958113Y1656163D01*
X1957970Y1656337*
X1957827Y1656425*
X1957541*
X1957398Y1656337*
X1957255Y1656163*
X1957255D02*
X1957183Y1655988D01*
X1957111Y1655726*
Y1655289*
X1957183Y1655027*
X1957255Y1654852*
X1957255D02*
X1957398Y1654678D01*
X1957541Y1654590*
X1957827*
X1957970Y1654678*
X1958113Y1654852*
X1958185Y1655027*
X1958901Y1655988D02*
Y1656075D01*
X1958972Y1656250*
X1959044Y1656337*
X1959187Y1656425*
X1959474*
X1959617Y1656337*
X1959688Y1656250*
X1959760Y1656075*
Y1655901*
X1959688Y1655726*
X1959545Y1655464*
X1958829Y1654590*
X1959831*
X1960834Y1656425D02*
X1960619Y1656337D01*
X1960547Y1656163*
Y1655988*
X1960619Y1655813*
X1960762Y1655726*
X1961048Y1655639*
X1961263Y1655551*
X1961406Y1655377*
X1961478Y1655202*
Y1654940*
X1961406Y1654765*
X1961335Y1654678*
X1961120Y1654590*
X1960834*
X1960619Y1654678*
X1960547Y1654765*
X1960476Y1654940*
Y1655202*
X1960547Y1655377*
X1960690Y1655551*
X1960905Y1655639*
X1961192Y1655726*
X1961335Y1655813*
X1961406Y1655988*
Y1656163*
X1961335Y1656337*
X1961120Y1656425*
X1960834*
X1958917Y1651433D02*
X1958846Y1651607D01*
X1958702Y1651782*
X1958559Y1651869*
X1958273*
X1958130Y1651782*
X1957987Y1651607*
X1957915Y1651433*
X1957843Y1651170*
Y1650734*
X1957915Y1650472*
X1957987Y1650297*
X1958130Y1650122*
X1958273Y1650035*
X1958559*
X1958702Y1650122*
X1958846Y1650297*
X1958917Y1650472*
X1959705Y1651869D02*
X1960492D01*
X1960063Y1651170*
X1960277*
X1960420Y1651083*
X1960492Y1650996*
X1960564Y1650734*
Y1650559*
X1960492Y1650297*
X1960349Y1650122*
X1960134Y1650035*
X1959919*
X1959705Y1650122*
X1959633Y1650210*
X1959561Y1650384*
X1961351Y1651869D02*
X1962138D01*
X1961709Y1651170*
X1961924*
X1962067Y1651083*
X1962138Y1650996*
X1962210Y1650734*
Y1650559*
X1962138Y1650297*
X1961995Y1650122*
X1961780Y1650035*
X1961566*
X1961351Y1650122*
X1961279Y1650210*
X1961208Y1650384*
X1957814Y1641603D02*
X1957671Y1641505D01*
X1957527Y1641308*
X1957456Y1641111*
X1957384Y1640816*
Y1640324*
X1957456Y1640028*
X1957527Y1639832*
X1957671Y1639635*
X1957814Y1639536*
X1958100*
X1958243Y1639635*
X1958386Y1639832*
X1958458Y1640028*
X1958530Y1640324*
Y1640816*
X1958458Y1641111*
X1958386Y1641308*
X1958243Y1641505*
X1958100Y1641603*
X1957814*
X1958028Y1639930D02*
X1958458Y1639339D01*
X1959245Y1641111D02*
Y1641210D01*
X1959317Y1641406*
X1959389Y1641505*
X1959532Y1641603*
X1959818*
X1959961Y1641505*
X1960033Y1641406*
X1960104Y1641210*
Y1641013*
X1960033Y1640816*
X1959890Y1640521*
X1959174Y1639536*
X1960176*
X1949359Y1636002D02*
X1949534Y1636074D01*
X1949709Y1636217*
X1949796Y1636360*
Y1636646*
X1949709Y1636790*
X1949534Y1636933*
X1949359Y1637004*
X1949097Y1637076*
X1948661*
X1948399Y1637004*
X1948224Y1636933*
X1948049Y1636790*
X1947962Y1636646*
Y1636360*
X1948049Y1636217*
X1948224Y1636074*
X1948399Y1636002*
X1949359Y1635286D02*
X1949447D01*
X1949622Y1635215*
X1949622D02*
X1949709Y1635143D01*
X1949796Y1635000*
Y1634714*
X1949709Y1634570*
X1949622Y1634499*
X1949622D02*
X1949447Y1634427D01*
X1949272*
X1949097Y1634499*
X1948835Y1634642*
X1947962Y1635358*
Y1634356*
X1949796Y1633568D02*
Y1632781D01*
X1949097Y1633210*
Y1632996*
X1949010Y1632853*
X1948923Y1632781*
X1948661Y1632709*
X1948486*
X1948224Y1632781*
X1948049Y1632924*
X1947962Y1633139*
Y1633354*
X1948049Y1633568*
X1948137Y1633640*
X1948311Y1633711*
X1797711Y1617736D02*
X1797908Y1617808D01*
X1798105Y1617951*
X1798203Y1618094*
Y1618380*
X1798105Y1618524*
X1797908Y1618667*
X1797711Y1618738*
X1797416Y1618810*
X1796924*
X1796628Y1618738*
X1796432Y1618667*
X1796235Y1618524*
X1796136Y1618380*
Y1618094*
X1796235Y1617951*
X1796432Y1617808*
X1796628Y1617736*
X1798203Y1616376D02*
X1796825Y1617092D01*
Y1616018*
X1798203Y1616376D02*
X1796136D01*
X1797795Y1624080D02*
Y1622013D01*
Y1624080D02*
X1798439D01*
X1798654Y1623982*
X1798725Y1623883*
X1798797Y1623687*
Y1623490*
X1798725Y1623293*
X1798654Y1623194*
X1798439Y1623096*
X1797795*
X1798296D02*
X1798797Y1622013D01*
X1799441Y1623687D02*
X1799584Y1623785D01*
X1799799Y1624080*
Y1622013*
X1798068Y1629796D02*
X1796001D01*
X1798068D02*
Y1629152D01*
X1797970Y1628937*
X1797871Y1628865*
X1797675Y1628794*
X1797478*
X1797281Y1628865*
X1797182Y1628937*
X1797084Y1629152*
Y1629796*
Y1629295D02*
X1796001Y1628794D01*
X1797576Y1628078D02*
X1797675D01*
X1797871Y1628006*
X1797970Y1627935*
X1798068Y1627792*
Y1627505*
X1797970Y1627362*
X1797871Y1627291*
X1797675Y1627219*
X1797478*
X1797281Y1627291*
X1796986Y1627434*
X1796001Y1628150*
Y1627148*
X1877067Y1701238D02*
Y1699762D01*
X1877139Y1699467*
X1877282Y1699270*
X1877497Y1699171*
X1877640*
X1877855Y1699270*
X1877998Y1699467*
X1878069Y1699762*
Y1701238*
X1879644D02*
X1878928D01*
X1878857Y1700353*
X1878928Y1700451*
X1879143Y1700549*
X1879358*
X1879573Y1700451*
X1879716Y1700254*
X1879787Y1699959*
X1879716Y1699762*
X1879644Y1699467*
X1879501Y1699270*
X1879286Y1699171*
X1879072*
X1878857Y1699270*
X1878785Y1699368*
X1878714Y1699565*
X1917314Y1714454D02*
X1919381D01*
X1917314D02*
Y1715098D01*
X1917413Y1715313*
X1917511Y1715384*
X1917708Y1715456*
X1917905*
X1918102Y1715384*
X1918200Y1715313*
X1918299Y1715098*
Y1714454*
Y1714955D02*
X1919381Y1715456D01*
X1918003Y1717031D02*
X1918299Y1716959D01*
X1918495Y1716816*
X1918594Y1716601*
Y1716530*
X1918495Y1716315*
X1918299Y1716172*
X1918003Y1716100*
X1917905*
X1917610Y1716172*
X1917413Y1716315*
X1917314Y1716530*
Y1716601*
X1917413Y1716816*
X1917610Y1716959*
X1918003Y1717031*
X1918495*
X1918988Y1716959*
X1919283Y1716816*
X1919381Y1716601*
Y1716458*
X1919283Y1716243*
X1919086Y1716172*
X1890765Y1765916D02*
Y1764439D01*
X1890836Y1764144*
X1890980Y1763947*
X1891194Y1763849*
X1891338*
X1891552Y1763947*
X1891695Y1764144*
X1891767Y1764439*
Y1765916*
X1892411Y1765522D02*
X1892554Y1765620D01*
X1892769Y1765916*
Y1763849*
X1893413Y1765522D02*
X1893557Y1765620D01*
X1893771Y1765916*
Y1763849*
X1889419Y1726162D02*
X1887352D01*
X1889419D02*
Y1725518D01*
X1889321Y1725303*
X1889222Y1725232*
X1889026Y1725160*
X1888829*
X1888632Y1725232*
X1888534Y1725303*
X1888435Y1725518*
Y1726162*
Y1725661D02*
X1887352Y1725160D01*
X1889419Y1723585D02*
Y1724301D01*
X1888534Y1724373*
X1888632Y1724301*
X1888730Y1724086*
Y1723872*
X1888632Y1723657*
X1888435Y1723514*
X1888140Y1723442*
X1887943Y1723514*
X1887648Y1723585*
X1887451Y1723729*
X1887352Y1723943*
Y1724158*
X1887451Y1724373*
X1887549Y1724444*
X1887746Y1724516*
X1885718Y1726087D02*
X1883651D01*
X1885718D02*
Y1725443D01*
X1885619Y1725228*
X1885521Y1725156*
X1885324Y1725085*
X1885127*
X1884930Y1725156*
X1884832Y1725228*
X1884734Y1725443*
Y1726087*
Y1725586D02*
X1883651Y1725085D01*
X1885423Y1723581D02*
X1885619Y1723653D01*
X1885718Y1723868*
Y1724011*
X1885619Y1724226*
X1885324Y1724369*
X1884832Y1724440*
X1884340*
X1883946Y1724369*
X1883749Y1724226*
X1883651Y1724011*
Y1723939*
X1883749Y1723725*
X1883946Y1723581*
X1884242Y1723510*
X1884340*
X1884635Y1723581*
X1884832Y1723725*
X1884930Y1723939*
Y1724011*
X1884832Y1724226*
X1884635Y1724369*
X1884340Y1724440*
X1894581Y1732766D02*
X1894756Y1732838D01*
X1894930Y1732981*
X1895018Y1733124*
Y1733411*
X1894930Y1733554*
X1894756Y1733697*
X1894581Y1733769*
X1894319Y1733840*
X1893882*
X1893620Y1733769*
X1893445Y1733697*
X1893271Y1733554*
X1893183Y1733411*
Y1733124*
X1893271Y1732981*
X1893445Y1732838*
X1893620Y1732766*
X1894756Y1731263D02*
X1894930Y1731335D01*
X1895018Y1731549*
Y1731693*
X1894930Y1731907*
X1894668Y1732051*
X1894231Y1732122*
X1893795*
X1893445Y1732051*
X1893271Y1731907*
X1893183Y1731693*
Y1731621*
X1893271Y1731406*
X1893445Y1731263*
X1893707Y1731192*
X1893795*
X1894057Y1731263*
X1894231Y1731406*
X1894319Y1731621*
Y1731693*
X1894231Y1731907*
X1894057Y1732051*
X1893795Y1732122*
X1894581Y1730476D02*
X1894668D01*
X1894843Y1730404*
X1894930Y1730333*
X1895018Y1730189*
Y1729903*
X1894930Y1729760*
X1894843Y1729688*
X1894668Y1729617*
X1894494*
X1894319Y1729688*
X1894057Y1729832*
X1893183Y1730547*
Y1729545*
X1890057Y1734800D02*
X1890254Y1734872D01*
X1890451Y1735015*
X1890549Y1735158*
Y1735444*
X1890451Y1735587*
X1890254Y1735730*
X1890057Y1735802*
X1889762Y1735874*
X1889270*
X1888974Y1735802*
X1888777Y1735730*
X1888581Y1735587*
X1888482Y1735444*
Y1735158*
X1888581Y1735015*
X1888777Y1734872*
X1888974Y1734800*
X1890155Y1734156D02*
X1890254Y1734013D01*
X1890549Y1733798*
X1888482*
X1890549Y1732223D02*
Y1732939D01*
X1889663Y1733010*
X1889762Y1732939*
X1889860Y1732724*
Y1732509*
X1889762Y1732295*
X1889565Y1732151*
X1889270Y1732080*
X1889073Y1732151*
X1888777Y1732223*
X1888581Y1732366*
X1888482Y1732581*
Y1732796*
X1888581Y1733010*
X1888679Y1733082*
X1888876Y1733154*
X1877804Y1738341D02*
Y1736864D01*
X1877876Y1736569*
X1878019Y1736372*
X1878234Y1736274*
X1878377*
X1878592Y1736372*
X1878735Y1736569*
X1878806Y1736864*
Y1738341*
X1880310Y1738045D02*
X1880238Y1738242D01*
X1880023Y1738341*
X1879880*
X1879665Y1738242*
X1879522Y1737947*
X1879451Y1737455*
Y1736963*
X1879522Y1736569*
X1879665Y1736372*
X1879880Y1736274*
X1879952*
X1880166Y1736372*
X1880310Y1736569*
X1880381Y1736864*
Y1736963*
X1880310Y1737258*
X1880166Y1737455*
X1879952Y1737553*
X1879880*
X1879665Y1737455*
X1879522Y1737258*
X1879451Y1736963*
X1894431Y1742141D02*
Y1740074D01*
Y1742141D02*
X1895075D01*
X1895290Y1742043*
X1895362Y1741944*
X1895433Y1741748*
X1895433D02*
Y1741551D01*
X1895362Y1741354*
X1895290Y1741255*
X1895075Y1741157*
X1894431*
X1894932D02*
X1895433Y1740074D01*
X1896436Y1742141D02*
X1896221Y1742043D01*
X1896149Y1741846*
Y1741649*
X1896221Y1741452*
X1896364Y1741354*
X1896650Y1741255*
X1896865Y1741157*
X1897008Y1740960*
X1897080Y1740763*
Y1740468*
X1897008Y1740271*
X1896937Y1740173*
X1896722Y1740074*
X1896436*
X1896221Y1740173*
X1896149Y1740271*
X1896078Y1740468*
Y1740763*
X1896149Y1740960*
X1896292Y1741157*
X1896507Y1741255*
X1896793Y1741354*
X1896937Y1741452*
X1897008Y1741649*
Y1741846*
X1896937Y1742043*
X1896722Y1742141*
X1896436*
X1852110Y1719838D02*
X1852038Y1720035D01*
X1851895Y1720231*
X1851752Y1720330*
X1851466*
X1851323Y1720231*
X1851179Y1720035*
X1851108Y1719838*
X1851036Y1719542*
Y1719050*
X1851108Y1718755*
X1851179Y1718558*
X1851323Y1718361*
X1851466Y1718263*
X1851752*
X1851895Y1718361*
X1852038Y1718558*
X1852110Y1718755*
X1852754Y1719936D02*
X1852897Y1720035D01*
X1853112Y1720330*
Y1718263*
X1854186Y1720330D02*
X1853971Y1720231D01*
X1853828Y1719936*
X1853756Y1719444*
Y1719149*
X1853828Y1718657*
X1853971Y1718361*
X1854186Y1718263*
X1854329*
X1854544Y1718361*
X1854687Y1718657*
X1854758Y1719149*
Y1719444*
X1854687Y1719936*
X1854544Y1720231*
X1854329Y1720330*
X1854186*
X1843611Y1728726D02*
Y1726659D01*
Y1728726D02*
X1844256D01*
X1844470Y1728627*
X1844542Y1728529*
X1844614Y1728332*
Y1728135*
X1844542Y1727938*
X1844470Y1727840*
X1844256Y1727742*
X1843611*
X1844112D02*
X1844614Y1726659D01*
X1845974Y1728726D02*
X1845258Y1727348D01*
X1846332*
X1845974Y1728726D02*
Y1726659D01*
X1844396Y1732070D02*
X1844324Y1732267D01*
X1844181Y1732464*
X1844038Y1732562*
X1843751*
X1843608Y1732464*
X1843465Y1732267*
X1843393Y1732070*
X1843322Y1731775*
Y1731283*
X1843393Y1730987*
X1843465Y1730790*
X1843608Y1730594*
X1843751Y1730495*
X1844038*
X1844181Y1730594*
X1844324Y1730790*
X1844396Y1730987*
X1845040Y1732168D02*
X1845183Y1732267D01*
X1845398Y1732562*
Y1730495*
X1846042Y1732168D02*
X1846185Y1732267D01*
X1846400Y1732562*
Y1730495*
X1843901Y1725107D02*
Y1723040D01*
Y1725107D02*
X1844545D01*
X1844760Y1725008*
X1844832Y1724910*
X1844903Y1724713*
Y1724516*
X1844832Y1724319*
X1844832D02*
X1844760Y1724221D01*
X1844545Y1724123*
X1843901*
X1844402D02*
X1844903Y1723040D01*
X1845690Y1725107D02*
X1846478D01*
X1846048Y1724319*
X1846048D02*
X1846263D01*
X1846263D02*
X1846406Y1724221D01*
X1846478Y1724123*
X1846549Y1723827*
Y1723631*
X1846478Y1723335*
X1846335Y1723138*
X1846120Y1723040*
X1845905*
X1845690Y1723138*
X1845619Y1723237*
X1845547Y1723434*
X1857666Y1748247D02*
X1857469Y1748176D01*
X1857273Y1748033*
X1857174Y1747890*
Y1747603*
X1857273Y1747460*
X1857469Y1747317*
X1857666Y1747245*
X1857961Y1747174*
X1858454*
X1858749Y1747245*
X1858946Y1747317*
X1859143Y1747460*
X1859241Y1747603*
Y1747890*
X1859143Y1748033*
X1858946Y1748176*
X1858749Y1748247*
X1857568Y1748892D02*
X1857469Y1749035D01*
X1857174Y1749250*
X1859241*
X1857469Y1750753D02*
X1857273Y1750681D01*
X1857174Y1750466*
Y1750323*
X1857273Y1750109*
X1857568Y1749965*
X1858060Y1749894*
X1858552*
X1858946Y1749965*
X1859143Y1750109*
X1859241Y1750323*
Y1750395*
X1859143Y1750610*
X1858946Y1750753*
X1858650Y1750824*
X1858552*
X1858257Y1750753*
X1858060Y1750610*
X1857961Y1750395*
Y1750323*
X1858060Y1750109*
X1858257Y1749965*
X1858552Y1749894*
X1857325Y1756668D02*
X1859392D01*
X1857325D02*
Y1757313D01*
X1857424Y1757527*
X1857522Y1757599*
X1857719Y1757671*
X1857916*
X1858113Y1757599*
X1858211Y1757527*
X1858309Y1757313*
Y1756668*
Y1757169D02*
X1859392Y1757671D01*
X1857719Y1758315D02*
X1857620Y1758458D01*
X1857325Y1758673*
X1859392*
X1857325Y1760033D02*
X1858703Y1759317D01*
Y1760391*
X1857325Y1760033D02*
X1859392D01*
X1866606Y1760971D02*
Y1758904D01*
X1866105Y1760971D02*
X1867107D01*
X1868753D02*
X1868038Y1758904D01*
X1867751Y1760971D02*
X1868753D01*
X1870249Y1767540D02*
X1870177Y1767737D01*
X1870034Y1767934*
X1869891Y1768033*
X1869605*
X1869461Y1767934*
X1869318Y1767737*
X1869247Y1767540*
X1869175Y1767245*
Y1766753*
X1869247Y1766458*
X1869318Y1766261*
X1869461Y1766064*
X1869605Y1765966*
X1869891*
X1870034Y1766064*
X1870177Y1766261*
X1870249Y1766458*
X1870893Y1767639D02*
X1871036Y1767737D01*
X1871251Y1768033*
Y1765966*
X1872253Y1768033D02*
X1872038Y1767934D01*
X1871967Y1767737*
Y1767540*
X1872038Y1767344*
X1872182Y1767245*
X1872468Y1767147*
X1872683Y1767048*
X1872826Y1766851*
X1872897Y1766655*
Y1766359*
X1872826Y1766163*
X1872754Y1766064*
X1872539Y1765966*
X1872253*
X1872038Y1766064*
X1871967Y1766163*
X1871895Y1766359*
Y1766655*
X1871967Y1766851*
X1872110Y1767048*
X1872325Y1767147*
X1872611Y1767245*
X1872754Y1767344*
X1872826Y1767540*
Y1767737*
X1872754Y1767934*
X1872539Y1768033*
X1872253*
X1845702Y1778245D02*
Y1776178D01*
Y1778245D02*
X1846346D01*
X1846561Y1778147*
X1846632Y1778049*
X1846704Y1777852*
Y1777655*
X1846632Y1777458*
X1846561Y1777360*
X1846346Y1777261*
X1845702*
X1846203D02*
X1846704Y1776178D01*
X1847348Y1777852D02*
X1847491Y1777950D01*
X1847706Y1778245*
Y1776178*
X1848494Y1778245D02*
X1849281D01*
X1848851Y1777458*
X1849066*
X1849209Y1777360*
X1849281Y1777261*
X1849353Y1776966*
Y1776769*
X1849281Y1776474*
X1849138Y1776277*
X1848923Y1776178*
X1848708*
X1848494Y1776277*
X1848422Y1776375*
X1848350Y1776572*
X1852628Y1777480D02*
X1854695D01*
X1852628D02*
Y1778124D01*
X1852727Y1778339*
X1852825Y1778411*
X1853022Y1778482*
X1853219*
X1853416Y1778411*
X1853514Y1778339*
X1853612Y1778124*
Y1777480*
Y1777981D02*
X1854695Y1778482D01*
X1853022Y1779127D02*
X1852923Y1779270D01*
X1852628Y1779485*
X1854695*
X1853120Y1780200D02*
X1853022D01*
X1852825Y1780272*
X1852727Y1780343*
X1852727D02*
X1852628Y1780487D01*
Y1780773*
X1852727Y1780916*
X1852825Y1780988*
X1853022Y1781059*
X1853219*
X1853416Y1780988*
X1853711Y1780845*
X1854695Y1780129*
Y1781131*
X1846568Y1781590D02*
X1846496Y1781787D01*
X1846353Y1781984*
X1846210Y1782082*
X1845923*
X1845780Y1781984*
X1845637Y1781787*
X1845566Y1781590*
X1845494Y1781295*
Y1780803*
X1845566Y1780507*
X1845637Y1780310*
X1845780Y1780114*
X1845923Y1780015*
X1846210*
X1846353Y1780114*
X1846496Y1780310*
X1846568Y1780507*
X1847283Y1781590D02*
Y1781688D01*
X1847355Y1781885*
X1847427Y1781984*
X1847570Y1782082*
X1847856*
X1847999Y1781984*
X1848071Y1781885*
X1848142Y1781688*
Y1781492*
X1848071Y1781295*
X1847928Y1780999*
X1847212Y1780015*
X1848214*
X1848930Y1781590D02*
Y1781688D01*
X1849001Y1781885*
X1849073Y1781984*
X1849216Y1782082*
X1849503*
X1849646Y1781984*
X1849717Y1781885*
X1849789Y1781688*
Y1781492*
X1849717Y1781295*
X1849574Y1780999*
X1848858Y1780015*
X1849860*
X1840885Y1778503D02*
X1840688Y1778432D01*
X1840491Y1778289*
X1840392Y1778145*
Y1777859*
X1840491Y1777716*
X1840688Y1777573*
X1840885Y1777501*
X1841180Y1777430*
X1841672*
X1841967Y1777501*
X1842164Y1777573*
X1842361Y1777716*
X1842459Y1777859*
Y1778145*
X1842361Y1778289*
X1842164Y1778432*
X1841967Y1778503*
X1840885Y1779219D02*
X1840786D01*
X1840589Y1779291*
X1840491Y1779362*
X1840392Y1779505*
Y1779792*
X1840491Y1779935*
X1840589Y1780007*
X1840786Y1780078*
X1840983*
X1841180Y1780007*
X1841475Y1779863*
X1842459Y1779148*
Y1780150*
X1840786Y1780794D02*
X1840688Y1780937D01*
X1840392Y1781152*
X1842459*
X1862523Y1771910D02*
X1864590D01*
X1862523D02*
Y1772411D01*
X1862622Y1772626*
X1862819Y1772769*
X1863015Y1772841*
X1863311Y1772913*
X1863803*
X1864098Y1772841*
X1864295Y1772769*
X1864492Y1772626*
X1864590Y1772411*
Y1771910*
X1862917Y1773557D02*
X1862819Y1773700D01*
X1862523Y1773915*
X1864590*
X1846976Y1760565D02*
X1845499D01*
X1845204Y1760494*
X1845007Y1760350*
X1844909Y1760136*
Y1759993*
X1844909D02*
X1845007Y1759778D01*
X1845204Y1759635*
X1845499Y1759563*
X1846976*
X1846582Y1758919D02*
X1846681Y1758776D01*
X1846976Y1758561*
X1844909*
X1846976Y1757487D02*
X1846877Y1757702D01*
X1846582Y1757845*
X1846090Y1757917*
X1845795*
X1845303Y1757845*
X1845007Y1757702*
X1844909Y1757487*
Y1757344*
X1845007Y1757129*
X1845303Y1756986*
X1845795Y1756914*
X1846090*
X1846582Y1756986*
X1846877Y1757129*
X1846976Y1757344*
Y1757487*
X1929988Y1648689D02*
X1929917Y1648886D01*
X1929774Y1649082*
X1929631Y1649181*
X1929344*
X1929201Y1649082*
X1929058Y1648886*
X1928986Y1648689*
X1928915Y1648393*
Y1647901*
X1928986Y1647606*
X1929058Y1647409*
X1929201Y1647212*
X1929344Y1647114*
X1929631*
X1929774Y1647212*
X1929917Y1647409*
X1929988Y1647606*
X1931062Y1649181D02*
X1930919Y1649082D01*
X1930776Y1648886*
X1930704Y1648689*
X1930633Y1648393*
Y1647901*
X1930704Y1647606*
X1930776Y1647409*
X1930919Y1647212*
X1931062Y1647114*
X1931349*
X1931349D02*
X1931492Y1647212D01*
X1931635Y1647409*
X1931706Y1647606*
X1931778Y1647901*
Y1648393*
X1931706Y1648689*
X1931635Y1648886*
X1931492Y1649082*
X1931349Y1649181*
X1931349D02*
X1931062D01*
X1932422D02*
Y1647114D01*
Y1649181D02*
X1933424Y1647114D01*
Y1649181D02*
Y1647114D01*
X1934140Y1648689D02*
Y1648787D01*
X1934212Y1648984*
X1934283Y1649082*
X1934427Y1649181*
X1934713*
X1934856Y1649082*
X1934928Y1648984*
X1934999Y1648787*
Y1648590*
X1934928Y1648393*
X1934784Y1648098*
X1934069Y1647114*
X1935071*
X1868546Y1621138D02*
Y1619662D01*
X1868618Y1619367*
X1868761Y1619170*
X1868976Y1619071*
X1869119*
X1869334Y1619170*
X1869477Y1619367*
X1869548Y1619662*
Y1621138*
X1870264Y1620646D02*
Y1620745D01*
X1870336Y1620942*
X1870407Y1621040*
X1870550Y1621138*
X1870837*
X1870980Y1621040*
X1871052Y1620942*
X1871123Y1620745*
Y1620548*
X1871052Y1620351*
X1870908Y1620056*
X1870193Y1619071*
X1871195*
X1872698Y1620843D02*
X1872626Y1621040D01*
X1872412Y1621138*
X1872268*
X1872054Y1621040*
X1871911Y1620745*
X1871839Y1620253*
Y1619760*
X1871911Y1619367*
X1872054Y1619170*
X1872268Y1619071*
X1872340*
X1872555Y1619170*
X1872698Y1619367*
X1872769Y1619662*
X1872769D02*
Y1619760D01*
X1872769D02*
X1872698Y1620056D01*
X1872555Y1620253*
X1872340Y1620351*
X1872268*
X1872054Y1620253*
X1871911Y1620056*
X1871839Y1619760*
X1895842Y1695940D02*
X1893775D01*
Y1695081*
X1895842Y1694294D02*
Y1693507D01*
X1895054Y1693936*
Y1693721*
X1894956Y1693578*
X1894858Y1693507*
X1894562Y1693435*
X1894366*
X1894070Y1693507*
X1893873Y1693650*
X1893775Y1693865*
Y1694079*
X1893873Y1694294*
X1893972Y1694366*
X1894169Y1694437*
X1782950Y1623555D02*
X1783935Y1624127D01*
X1785017*
X1782950Y1624700D02*
X1783935Y1624127D01*
X1783344Y1625344D02*
X1783246Y1625487D01*
X1782950Y1625702*
X1785017*
X1781086Y1666042D02*
Y1664566D01*
X1781157Y1664270*
X1781301Y1664074*
X1781515Y1663975*
X1781659*
X1781873Y1664074*
X1782016Y1664270*
X1782088Y1664566*
Y1666042*
X1782732Y1665648D02*
X1782875Y1665747D01*
X1783090Y1666042*
Y1663975*
X1784665Y1665353D02*
X1784593Y1665058D01*
X1784450Y1664861*
X1784235Y1664763*
X1784164*
X1783949Y1664861*
X1783806Y1665058*
X1783734Y1665353*
Y1665451*
X1783806Y1665747*
X1783949Y1665944*
X1784164Y1666042*
X1784235*
X1784450Y1665944*
X1784593Y1665747*
X1784665Y1665353*
Y1664861*
X1784593Y1664369*
X1784450Y1664074*
X1784235Y1663975*
X1784092*
X1783878Y1664074*
X1783806Y1664270*
X1907614Y1737984D02*
Y1736508D01*
X1907686Y1736213*
X1907829Y1736016*
X1908044Y1735918*
X1908187*
X1908402Y1736016*
X1908545Y1736213*
X1908616Y1736508*
Y1737984*
X1909618D02*
X1909404Y1737886D01*
X1909332Y1737689*
Y1737492*
X1909404Y1737295*
X1909547Y1737197*
X1909833Y1737099*
X1910048Y1737000*
X1910191Y1736803*
X1910263Y1736606*
Y1736311*
X1910191Y1736114*
X1910119Y1736016*
X1909905Y1735918*
X1909618*
X1909404Y1736016*
X1909332Y1736114*
X1909261Y1736311*
X1909261D02*
Y1736606D01*
X1909261D02*
X1909332Y1736803D01*
X1909475Y1737000*
X1909690Y1737099*
X1909976Y1737197*
X1910119Y1737295*
X1910191Y1737492*
Y1737689*
X1910119Y1737886*
X1909905Y1737984*
X1909618*
X1907377Y1723139D02*
Y1721662D01*
X1907377D02*
X1907448Y1721367D01*
X1907591Y1721170*
X1907806Y1721072*
X1907949*
X1908164Y1721170*
X1908307Y1721367*
X1908379Y1721662*
X1908379D02*
Y1723139D01*
X1909954Y1722450D02*
X1909882Y1722155D01*
X1909739Y1721958*
X1909524Y1721859*
X1909452*
X1909238Y1721958*
X1909095Y1722155*
X1909023Y1722450*
Y1722548*
X1909095Y1722844*
X1909238Y1723040*
X1909452Y1723139*
X1909524*
X1909739Y1723040*
X1909882Y1722844*
X1909954Y1722450*
Y1721958*
X1909882Y1721466*
X1909739Y1721170*
X1909524Y1721072*
X1909381*
X1909166Y1721170*
X1909095Y1721367*
X1877201Y1685568D02*
Y1684092D01*
X1877272Y1683796*
X1877415Y1683599*
X1877630Y1683501*
X1877773*
X1877988Y1683599*
X1878131Y1683796*
X1878203Y1684092*
Y1685568*
X1878847Y1685174D02*
X1878990Y1685273D01*
X1879205Y1685568*
Y1683501*
X1885938Y1713553D02*
Y1712077D01*
X1886009Y1711782*
X1886152Y1711585*
X1886367Y1711486*
X1886510*
X1886725Y1711585*
X1886868Y1711782*
X1886940Y1712077*
Y1713553*
X1888586D02*
X1887870Y1711486D01*
X1887584Y1713553D02*
X1888586D01*
X1891165Y1778218D02*
Y1776151D01*
Y1778218D02*
X1891809D01*
X1892024Y1778120*
X1892095Y1778021*
X1892167Y1777825*
Y1777628*
X1892095Y1777431*
X1892024Y1777332*
X1891809Y1777234*
X1891165*
X1891666D02*
X1892167Y1776151D01*
X1892811Y1777825D02*
X1892954Y1777923D01*
X1893169Y1778218*
Y1776151*
X1894243Y1778218D02*
X1894028Y1778120D01*
X1893885Y1777825*
X1893813Y1777332*
Y1777037*
X1893885Y1776545*
X1894028Y1776250*
X1894243Y1776151*
X1894386*
X1894601Y1776250*
X1894744Y1776545*
X1894816Y1777037*
Y1777332*
X1894744Y1777825*
X1894601Y1778120*
X1894386Y1778218*
X1894243*
X1855337Y1729956D02*
Y1728480D01*
X1855409Y1728185*
X1855552Y1727988*
X1855766Y1727889*
X1855910*
X1856124Y1727988*
X1856268Y1728185*
X1856339Y1728480*
Y1729956*
X1857699D02*
X1856983Y1728578D01*
X1858057*
X1857699Y1729956D02*
Y1727889D01*
X1842301Y1697655D02*
X1840824D01*
X1840529Y1697583*
X1840332Y1697440*
X1840234Y1697225*
Y1697082*
X1840332Y1696867*
X1840529Y1696724*
X1840824Y1696653*
X1842301*
X1841809Y1695937D02*
X1841907D01*
X1842104Y1695865*
X1842202Y1695794*
X1842301Y1695651*
Y1695364*
X1842202Y1695221*
X1842104Y1695149*
X1841907Y1695078*
X1841710*
X1841513Y1695149*
X1841218Y1695293*
X1840234Y1696008*
Y1695006*
X1841907Y1694362D02*
X1842005Y1694219D01*
X1842301Y1694004*
X1840234*
X1844598Y1610102D02*
X1844526Y1610299D01*
X1844383Y1610495*
X1844240Y1610594*
X1843954*
X1843810Y1610495*
X1843667Y1610299*
X1843596Y1610102*
X1843524Y1609807*
Y1609314*
X1843596Y1609019*
X1843667Y1608822*
X1843810Y1608625*
X1843954Y1608527*
X1844240*
X1844383Y1608625*
X1844526Y1608822*
X1844598Y1609019*
X1845314Y1610102D02*
Y1610200D01*
X1845385Y1610397*
X1845457Y1610495*
X1845600Y1610594*
X1845886*
X1846029Y1610495*
X1846101Y1610397*
X1846173Y1610200*
Y1610003*
X1846101Y1609807*
X1845958Y1609511*
X1845242Y1608527*
X1846244*
X1847819Y1610594D02*
X1847103D01*
X1847032Y1609708*
X1847103Y1609807*
X1847318Y1609905*
X1847533*
X1847747Y1609807*
X1847891Y1609610*
X1847962Y1609314*
X1847891Y1609118*
X1847819Y1608822*
X1847676Y1608625*
X1847461Y1608527*
X1847246*
X1847032Y1608625*
X1846960Y1608724*
X1846888Y1608921*
X1779807Y1677320D02*
X1779735Y1677517D01*
X1779735D02*
X1779592Y1677713D01*
X1779449Y1677812*
X1779163*
X1779020Y1677713*
X1778876Y1677517*
X1778876D02*
X1778805Y1677320D01*
X1778733Y1677024*
Y1676532*
X1778805Y1676237*
X1778876Y1676040*
X1779020Y1675843*
X1779163Y1675745*
X1779449*
X1779592Y1675843*
X1779735Y1676040*
X1779807Y1676237*
X1780594Y1677812D02*
X1781382D01*
X1780952Y1677024*
X1781167*
X1781310Y1676926*
X1781382Y1676828*
X1781453Y1676532*
Y1676335*
X1781382Y1676040*
X1781239Y1675843*
X1781024Y1675745*
X1780809*
X1780594Y1675843*
X1780523Y1675942*
X1780451Y1676139*
X1782169Y1677320D02*
Y1677418D01*
X1782241Y1677615*
X1782312Y1677713*
X1782456Y1677812*
X1782742*
X1782885Y1677713*
X1782957Y1677615*
X1783028Y1677418*
Y1677221*
X1782957Y1677024*
X1782813Y1676729*
X1782098Y1675745*
X1783100*
X1844558Y1606401D02*
X1844487Y1606598D01*
X1844344Y1606795*
X1844201Y1606893*
X1843914*
X1843771Y1606795*
X1843628Y1606598*
X1843556Y1606401*
X1843485Y1606106*
Y1605614*
X1843556Y1605318*
X1843628Y1605121*
X1843771Y1604925*
X1843914Y1604826*
X1844201*
X1844344Y1604925*
X1844487Y1605121*
X1844558Y1605318*
X1845919Y1606893D02*
X1845203Y1605515D01*
X1846276*
X1845919Y1606893D02*
Y1604826D01*
X1847636Y1606893D02*
X1846921Y1605515D01*
X1847994*
X1847636Y1606893D02*
Y1604826D01*
X1834076Y1620304D02*
X1834273Y1620376D01*
X1834470Y1620519*
X1834568Y1620662*
Y1620949*
X1834470Y1621092*
X1834273Y1621235*
X1834076Y1621307*
X1833781Y1621378*
X1833289*
X1832993Y1621307*
X1832797Y1621235*
X1832600Y1621092*
X1832501Y1620949*
Y1620662*
X1832600Y1620519*
X1832797Y1620376*
X1832993Y1620304*
X1834568Y1618658D02*
X1832501Y1619374D01*
X1834568Y1619660D02*
Y1618658D01*
X1874801Y1713531D02*
X1874998Y1713603D01*
X1875195Y1713746*
X1875293Y1713889*
Y1714175*
X1875195Y1714318*
X1874998Y1714462*
X1874801Y1714533*
X1874506Y1714605*
X1874014*
X1873719Y1714533*
X1873522Y1714462*
X1873325Y1714318*
X1873226Y1714175*
Y1713889*
X1873325Y1713746*
X1873522Y1713603*
X1873719Y1713531*
X1874900Y1712887D02*
X1874998Y1712744D01*
X1875293Y1712529*
X1873226*
X1874801Y1711813D02*
X1874900D01*
X1875097Y1711741*
X1875195Y1711670*
X1875293Y1711527*
Y1711240*
X1875195Y1711097*
X1875097Y1711026*
X1874900Y1710954*
X1874703*
X1874506Y1711026*
X1874211Y1711169*
X1873226Y1711885*
Y1710882*
X1878503Y1713380D02*
X1878700Y1713452D01*
X1878896Y1713595*
X1878995Y1713738*
Y1714024*
X1878896Y1714167*
X1878700Y1714311*
X1878503Y1714382*
X1878207Y1714454*
X1877715*
X1877420Y1714382*
X1877223Y1714311*
X1877026Y1714167*
X1876928Y1714024*
Y1713738*
X1877026Y1713595*
X1877223Y1713452*
X1877420Y1713380*
X1878601Y1712736D02*
X1878700Y1712593D01*
X1878995Y1712378*
X1876928*
X1878995Y1711018D02*
X1877617Y1711734D01*
Y1710660*
X1878995Y1711018D02*
X1876928D01*
X1912923Y1767658D02*
X1912851Y1767854D01*
X1912708Y1768051*
X1912565Y1768150*
X1912279*
X1912135Y1768051*
X1911992Y1767854*
X1911921Y1767658*
X1911849Y1767362*
Y1766870*
X1911921Y1766575*
X1911992Y1766378*
X1912135Y1766181*
X1912279Y1766083*
X1912565*
X1912708Y1766181*
X1912851Y1766378*
X1912923Y1766575*
X1913567Y1767756D02*
X1913710Y1767854D01*
X1913925Y1768150*
Y1766083*
X1915500Y1767461D02*
X1915428Y1767165D01*
X1915285Y1766969*
X1915070Y1766870*
X1914999*
X1914784Y1766969*
X1914641Y1767165*
X1914569Y1767461*
Y1767559*
X1914641Y1767854*
X1914784Y1768051*
X1914999Y1768150*
X1915070*
X1915285Y1768051*
X1915428Y1767854*
X1915500Y1767461*
Y1766969*
X1915428Y1766476*
X1915285Y1766181*
X1915070Y1766083*
X1914927*
X1914712Y1766181*
X1914641Y1766378*
X1901728Y1777524D02*
X1901656Y1777721D01*
X1901513Y1777918*
X1901370Y1778016*
X1901083*
X1900940Y1777918*
X1900797Y1777721*
X1900725Y1777524*
X1900654Y1777229*
Y1776737*
X1900725Y1776442*
X1900797Y1776245*
X1900940Y1776048*
X1901083Y1775949*
X1901370*
X1901513Y1776048*
X1901656Y1776245*
X1901728Y1776442*
X1902443Y1777524D02*
Y1777623D01*
X1902515Y1777820*
X1902587Y1777918*
X1902730Y1778016*
X1903016*
X1903159Y1777918*
X1903231Y1777820*
X1903302Y1777623*
Y1777426*
X1903231Y1777229*
X1903088Y1776934*
X1902372Y1775949*
X1903374*
X1904448Y1778016D02*
X1904233Y1777918D01*
X1904090Y1777623*
X1904018Y1777131*
Y1776835*
X1904090Y1776343*
X1904233Y1776048*
X1904448Y1775949*
X1904591*
X1904806Y1776048*
X1904949Y1776343*
X1905020Y1776835*
Y1777131*
X1904949Y1777623*
X1904806Y1777918*
X1904591Y1778016*
X1904448*
X1797651Y1636656D02*
X1797848Y1636728D01*
X1798044Y1636871*
X1798143Y1637014*
Y1637301*
X1798044Y1637444*
X1797848Y1637587*
X1797651Y1637659*
X1797355Y1637730*
X1796863*
X1796568Y1637659*
X1796371Y1637587*
X1796174Y1637444*
X1796076Y1637301*
Y1637014*
X1796174Y1636871*
X1796371Y1636728*
X1796568Y1636656*
X1798143Y1635869D02*
Y1635082D01*
X1797355Y1635511*
Y1635296*
X1797257Y1635153*
X1797159Y1635082*
X1796863Y1635010*
X1796666*
X1796371Y1635082*
X1796174Y1635225*
X1796076Y1635440*
Y1635654*
X1796174Y1635869*
X1796273Y1635941*
X1796470Y1636012*
X1840704Y1714192D02*
X1840633Y1714389D01*
X1840490Y1714586*
X1840346Y1714684*
X1840060*
X1839917Y1714586*
X1839774Y1714389*
X1839702Y1714192*
X1839631Y1713897*
Y1713405*
X1839702Y1713109*
X1839774Y1712913*
X1839917Y1712716*
X1840060Y1712617*
X1840346*
X1840490Y1712716*
X1840633Y1712913*
X1840704Y1713109*
X1842064Y1714684D02*
X1841348Y1713306D01*
X1842422*
X1842064Y1714684D02*
Y1712617D01*
X1843496Y1714684D02*
X1843281Y1714586D01*
X1843138Y1714290*
X1843066Y1713798*
Y1713503*
X1843138Y1713011*
X1843281Y1712716*
X1843496Y1712617*
X1843639*
X1843854Y1712716*
X1843997Y1713011*
X1844069Y1713503*
Y1713798*
X1843997Y1714290*
X1843854Y1714586*
X1843639Y1714684*
X1843496*
X1783506Y1653626D02*
X1783435Y1653823D01*
X1783292Y1654019*
X1783148Y1654118*
X1782862*
X1782719Y1654019*
X1782576Y1653823*
X1782504Y1653626*
X1782433Y1653330*
Y1652838*
X1782504Y1652543*
X1782576Y1652346*
X1782719Y1652149*
X1782862Y1652051*
X1783148*
X1783292Y1652149*
X1783435Y1652346*
X1783506Y1652543*
X1784294Y1654118D02*
X1785081D01*
X1784652Y1653330*
X1784866*
X1785010Y1653232*
X1785081Y1653134*
X1785153Y1652838*
Y1652641*
X1785081Y1652346*
X1784938Y1652149*
X1784723Y1652051*
X1784509*
X1784294Y1652149*
X1784222Y1652248*
X1784151Y1652445*
X1786656Y1653823D02*
X1786584Y1654019D01*
X1786370Y1654118*
X1786226*
X1786012Y1654019*
X1785869Y1653724*
X1785797Y1653232*
Y1652740*
X1785869Y1652346*
X1786012Y1652149*
X1786226Y1652051*
X1786298*
X1786513Y1652149*
X1786656Y1652346*
X1786728Y1652641*
Y1652740*
X1786656Y1653035*
X1786513Y1653232*
X1786298Y1653330*
X1786226*
X1786012Y1653232*
X1785869Y1653035*
X1785797Y1652740*
X1856909Y1648885D02*
X1857084Y1648956D01*
X1857258Y1649099*
X1857346Y1649243*
Y1649529*
X1857258Y1649672*
X1857084Y1649815*
X1856909Y1649887*
X1856647Y1649958*
X1856210*
X1855948Y1649887*
X1855773Y1649815*
X1855599Y1649672*
X1855511Y1649529*
Y1649243*
X1855599Y1649099*
X1855773Y1648956*
X1855948Y1648885*
X1856909Y1648169D02*
X1856996D01*
X1857171Y1648097*
X1857258Y1648026*
X1857346Y1647882*
Y1647596*
X1857258Y1647453*
X1857171Y1647381*
X1856996Y1647310*
X1856821*
X1856647Y1647381*
X1856385Y1647525*
X1855511Y1648240*
Y1647238*
X1857346Y1645878D02*
X1856123Y1646594D01*
Y1645520*
X1857346Y1645878D02*
X1855511D01*
X1875979Y1596298D02*
X1873912D01*
X1875979D02*
Y1595654D01*
X1875880Y1595439*
X1875782Y1595367*
X1875585Y1595296*
X1875388*
X1875191Y1595367*
X1875093Y1595439*
X1874995Y1595654*
Y1596298*
Y1595797D02*
X1873912Y1595296D01*
X1875979Y1593936D02*
X1874601Y1594652D01*
Y1593578*
X1875979Y1593936D02*
X1873912D01*
X1875979Y1592003D02*
Y1592719D01*
X1875093Y1592790*
X1875191Y1592719*
X1875290Y1592504*
Y1592289*
X1875191Y1592075*
X1874995Y1591931*
X1874699Y1591860*
X1874502Y1591931*
X1874207Y1592003*
X1874010Y1592146*
X1873912Y1592361*
Y1592576*
X1874010Y1592790*
X1874109Y1592862*
X1874306Y1592934*
X1902286Y1629186D02*
Y1627119D01*
Y1629186D02*
X1902930D01*
X1903145Y1629087*
X1903216Y1628989*
X1903288Y1628792*
Y1628595*
X1903216Y1628398*
X1903145Y1628300*
X1902930Y1628201*
X1902286*
X1902787D02*
X1903288Y1627119D01*
X1904648Y1629186D02*
X1903932Y1627808D01*
X1905006*
X1904648Y1629186D02*
Y1627119D01*
X1906509Y1628890D02*
X1906437Y1629087D01*
X1906223Y1629186*
X1906079*
X1905865Y1629087*
X1905722Y1628792*
X1905650Y1628300*
Y1627808*
X1905722Y1627414*
X1905865Y1627217*
X1906079Y1627119*
X1906151*
X1906366Y1627217*
X1906509Y1627414*
X1906581Y1627709*
Y1627808*
X1906509Y1628103*
X1906366Y1628300*
X1906151Y1628398*
X1906079*
X1905865Y1628300*
X1905722Y1628103*
X1905650Y1627808*
X1869713Y1775611D02*
Y1773544D01*
Y1775611D02*
X1870358D01*
X1870572Y1775513*
X1870644Y1775414*
X1870716Y1775217*
Y1775020*
X1870644Y1774824*
X1870572Y1774725*
X1870358Y1774627*
X1869713*
X1870215D02*
X1870716Y1773544D01*
X1871360Y1775217D02*
X1871503Y1775316D01*
X1871718Y1775611*
Y1773544*
X1872362Y1775217D02*
X1872505Y1775316D01*
X1872720Y1775611*
Y1773544*
X1869463Y1771659D02*
Y1769592D01*
Y1771659D02*
X1870108D01*
X1870322Y1771561*
X1870394Y1771462*
X1870465Y1771265*
Y1771069*
X1870394Y1770872*
X1870322Y1770773*
X1870108Y1770675*
X1869463*
X1869964D02*
X1870465Y1769592D01*
X1871110Y1771265D02*
X1871253Y1771364D01*
X1871468Y1771659*
Y1769592*
X1873042Y1771659D02*
X1872327D01*
X1872255Y1770773*
X1872327Y1770872*
X1872541Y1770970*
X1872756*
X1872971Y1770872*
X1873114Y1770675*
X1873186Y1770380*
X1873114Y1770183*
X1873042Y1769887*
X1872899Y1769691*
X1872685Y1769592*
X1872470*
X1872255Y1769691*
X1872183Y1769789*
X1872112Y1769986*
X1910537Y1771300D02*
X1912604D01*
X1910537D02*
Y1771944D01*
X1910635Y1772159*
X1910733Y1772230*
X1910930Y1772302*
X1911127*
X1911324Y1772230*
X1911422Y1772159*
X1911521Y1771944*
Y1771300*
Y1771801D02*
X1912604Y1772302D01*
X1910930Y1772946D02*
X1910832Y1773089D01*
X1910537Y1773304*
X1912604*
X1910537Y1774951D02*
X1912604Y1774235D01*
X1910537Y1773948D02*
Y1774951D01*
X1915106Y1771626D02*
X1917173D01*
X1915106D02*
Y1772271D01*
X1915204Y1772485*
X1915303Y1772557*
X1915499Y1772628*
X1915696*
X1915893Y1772557*
X1915992Y1772485*
X1916090Y1772271*
Y1771626*
Y1772127D02*
X1917173Y1772628D01*
X1915106Y1774275D02*
X1917173Y1773559D01*
X1915106Y1773273D02*
Y1774275D01*
X1817572Y1620788D02*
Y1619312D01*
X1817643Y1619017*
X1817787Y1618820*
X1818001Y1618721*
X1818145*
X1818359Y1618820*
X1818502Y1619017*
X1818574Y1619312*
Y1620788*
X1819361D02*
X1820149D01*
X1819719Y1620001*
X1819934*
X1820077Y1619902*
X1820149Y1619804*
X1820220Y1619509*
Y1619312*
X1820149Y1619017*
X1820006Y1618820*
X1819791Y1618721*
X1819576*
X1819361Y1618820*
X1819290Y1618918*
X1819218Y1619115*
X1864605Y1739530D02*
Y1737463D01*
X1864104Y1739530D02*
X1865106D01*
X1866466D02*
X1865750Y1738152D01*
X1866824*
X1866466Y1739530D02*
Y1737463D01*
X1943276Y1792894D02*
Y1790827D01*
X1942775Y1792894D02*
X1943777D01*
X1944780D02*
X1944565Y1792795D01*
X1944493Y1792598*
Y1792401*
X1944565Y1792205*
X1944708Y1792106*
X1944994Y1792008*
X1945209Y1791909*
X1945352Y1791712*
X1945424Y1791516*
Y1791220*
X1945352Y1791023*
X1945281Y1790925*
X1945066Y1790827*
X1944780*
X1944565Y1790925*
X1944493Y1791023*
X1944422Y1791220*
Y1791516*
X1944493Y1791712*
X1944636Y1791909*
X1944851Y1792008*
X1945137Y1792106*
X1945281Y1792205*
X1945352Y1792401*
Y1792598*
X1945281Y1792795*
X1945066Y1792894*
X1944780*
X1803375Y1584349D02*
X1803304Y1584546D01*
X1803160Y1584742*
X1803017Y1584841*
X1802731*
X1802588Y1584742*
X1802445Y1584546*
X1802373Y1584349*
X1802301Y1584053*
Y1583561*
X1802373Y1583266*
X1802445Y1583069*
X1802588Y1582872*
X1802731Y1582774*
X1803017*
X1803160Y1582872*
X1803304Y1583069*
X1803375Y1583266*
X1804735Y1584841D02*
X1804019Y1583463D01*
X1805093*
X1804735Y1584841D02*
Y1582774D01*
X1806095Y1584841D02*
X1805881Y1584742D01*
X1805881D02*
X1805809Y1584546D01*
Y1584349*
X1805881Y1584152*
X1805881D02*
X1806024Y1584053D01*
X1806310Y1583955*
X1806525Y1583857*
X1806668Y1583660*
X1806739Y1583463*
Y1583168*
X1806668Y1582971*
X1806596Y1582872*
X1806382Y1582774*
X1806095*
X1805881Y1582872*
X1805881D02*
X1805809Y1582971D01*
X1805737Y1583168*
Y1583463*
X1805809Y1583660*
X1805952Y1583857*
X1806167Y1583955*
X1806453Y1584053*
X1806596Y1584152*
X1806668Y1584349*
Y1584546*
X1806596Y1584742*
X1806382Y1584841*
X1806095*
G54D201*
X1870930Y1795728D02*
X1872058Y1793429D01*
Y1795728D02*
X1870930Y1793429D01*
X1872782Y1795290D02*
X1872943Y1795400D01*
X1873185Y1795728*
Y1793429*
G74*
X0Y0D02*
M02*
