*
*
G04 PADS 9.5 Build Number: 522968 generated Gerber (RS-274-X) file*
G04 PC Version=2.1*
*
%IN "laser sight 1V1.pcb"*%
*
%MOIN*%
*
%FSLAX35Y35*%
*
*
*
*
G04 PC Standard Apertures*
*
*
G04 Thermal Relief Aperture macro.*
%AMTER*
1,1,$1,0,0*
1,0,$1-$2,0,0*
21,0,$3,$4,0,0,45*
21,0,$3,$4,0,0,135*
%
*
*
G04 Annular Aperture macro.*
%AMANN*
1,1,$1,0,0*
1,0,$2,0,0*
%
*
*
G04 Odd Aperture macro.*
%AMODD*
1,1,$1,0,0*
1,0,$1-0.005,0,0*
%
*
*
G04 PC Custom Aperture Macros*
*
*
*
*
*
*
G04 PC Aperture Table*
*
%ADD010C,0.001*%
%ADD023C,0.01969*%
%ADD024C,0.01181*%
%ADD025C,0.00787*%
%ADD031C,0.00394*%
%ADD209C,0.02559*%
%ADD212C,0.006*%
*
*
*
*
G04 PC Circuitry*
G04 Layer Name laser sight 1V1.pcb - circuitry*
%LPD*%
*
*
G04 PC Custom Flashes*
G04 Layer Name laser sight 1V1.pcb - flashes*
%LPD*%
*
*
G04 PC Circuitry*
G04 Layer Name laser sight 1V1.pcb - circuitry*
%LPD*%
*
G54D10*
G54D23*
G01X2005515Y1594648D02*
X2005582Y1594714D01*
X2017084*
X2024948Y1602578*
Y1610953*
X2005515Y1594648D02*
X1984446D01*
X1971691Y1607403*
X1958858*
X1957920Y1606464*
X1957000*
X1955971Y1607494*
X2077161Y1585824D02*
Y1590326D01*
G75*
G03X2075337Y1590838I-984J-0D01*
G01X2069694Y1586784D02*
G03X2075337Y1590838I-1965J8689D01*
G01X2069694Y1586784D02*
G03X2069911Y1584840I217J-960D01*
G01X2076177*
G03X2077161Y1585824I0J984*
G01Y1600620D02*
Y1614176D01*
G03X2076177Y1615160I-984J0*
G01X2048631*
G03X2047746Y1613746I0J-984*
G01X2043535Y1610143D02*
G03X2047746Y1613746I1635J2351D01*
G01X2043535Y1610143D02*
G03X2042973Y1610319I-562J-808D01*
G01X2040259*
G03X2039563Y1610031I-0J-984*
G01X2032761Y1603229*
G03X2033109Y1601612I696J-696*
G01X2030461Y1596582D02*
G03X2033109Y1601612I1636J2351D01*
G01X2030461Y1596582D02*
G03X2029899Y1596758I-562J-808D01*
G01X2029344*
G03X2028648Y1596470I-0J-984*
G01X2025136Y1592958*
G03X2025832Y1591278I696J-696*
G01X2026232*
G03X2026860Y1591504I0J984*
G01X2029917Y1586713D02*
G03X2026860Y1591504I-1229J2587D01*
G01X2029917Y1586713D02*
G03X2030339Y1584840I422J-889D01*
G01X2065547*
G03X2065764Y1586784I-0J984*
G01X2075337Y1600108D02*
G03X2065764Y1586784I-7608J-4635D01*
G01X2075337Y1600108D02*
G03X2077161Y1600620I840J512D01*
G01X2036861Y1613480D02*
G03X2036165Y1615160I-696J696D01*
G01X2027051*
G03X2026513Y1613352I-0J-984*
G01X2027592Y1609853D02*
G03X2026513Y1613352I-2644J1100D01*
G01X2027592Y1609853D02*
G03X2027517Y1609475I909J-378D01*
G01Y1606512*
G03X2029197Y1605816I984J0*
G01X2036861Y1613480*
X2023384Y1613352D02*
G03X2022846Y1615160I-538J824D01*
G01X2021476*
G03X2020551Y1614512I0J-984*
G01X2015030Y1599321*
X2014782Y1598878D02*
G03X2015030Y1599321I-1241J984D01*
G01X2014782Y1598878D02*
G03X2015554Y1597283I772J-611D01*
G01X2015613*
G03X2016309Y1597571I-0J984*
G01X2022091Y1603354*
G03X2022380Y1604050I-696J696*
G01Y1609475*
G03X2022304Y1609853I-985J0*
G01X2023384Y1613352D02*
G03X2022304Y1609853I1564J-2399D01*
G01X1982700Y1600026D02*
G03X1984320Y1601060I696J696D01*
G01X1979419Y1614475*
G03X1978494Y1615121I-925J-338*
G01X1937292*
G03X1936673Y1613372I0J-984*
G01X1924544Y1600383D02*
G03X1936673Y1613372I6529J6061D01*
G01X1924544Y1600383D02*
G03X1922839Y1599713I-721J-670D01*
G01Y1585824*
G03X1923823Y1584840I984J-0*
G01X1980818*
G03X1981514Y1586520I-0J984*
G01X1980405Y1587628*
X1979826Y1589027D02*
G03X1980405Y1587628I1978J-0D01*
G01X1979826Y1589027D02*
Y1592142D01*
X1979841Y1592387D02*
G03X1979826Y1592142I1963J-245D01*
G01X1979841Y1592387D02*
G03X1979560Y1593205I-977J122D01*
G01X1971282Y1601482*
G03X1970586Y1601771I-696J-696*
G01X1954097*
G03X1953469Y1601544I0J-985*
G01X1952000Y1606590D02*
G03X1953469Y1601544I-359J-2841D01*
G01X1952000Y1606590D02*
G03X1953107Y1607548I123J976D01*
G01X1957129Y1610113D02*
G03X1953107Y1607548I-1158J-2619D01*
G01X1957129Y1610113D02*
G03X1957868Y1610090I398J900D01*
G01X1959958Y1610047D02*
G03X1957868Y1610090I-1100J-2644D01*
G01X1959958Y1610047D02*
G03X1960337Y1609971I379J909D01*
G01X1971691*
X1973507Y1609219D02*
G03X1971691Y1609971I-1816J-1816D01*
G01X1973507Y1609219D02*
X1982700Y1600026D01*
X1925472Y1613372D02*
G03X1924854Y1615121I-618J765D01*
G01X1923823*
G03X1922839Y1614137I-0J-984*
G01Y1613174*
G03X1924544Y1612505I984J0*
G01X1925472Y1613372D02*
G03X1924544Y1612505I5601J-6928D01*
G01X2027038Y1584840D02*
G03X2027460Y1586713I-0J984D01*
G01X2026860Y1587095D02*
G03X2027460Y1586713I1828J2205D01*
G01X2026860Y1587095D02*
G03X2026232Y1587322I-628J-757D01*
G01X2023344*
G03X2022648Y1587034I0J-984*
G01X2022135Y1586520*
G03X2022830Y1584840I695J-696*
G01X2027038*
X2021848Y1585885D02*
X2028020D01*
X1922843Y1614232D02*
X1925833D01*
X1923146Y1612460D02*
X1924500D01*
X1982667Y1600058D02*
X1984123D01*
X1980896Y1601830D02*
X1984039D01*
X1979124Y1603602D02*
X1983391D01*
X1977352Y1605373D02*
X1982744D01*
X1975581Y1607145D02*
X1982097D01*
X1922839Y1585885D02*
X1981800D01*
X1973809Y1608917D02*
X1981449D01*
X1938905Y1610688D02*
X1980802D01*
X1922839Y1587657D02*
X1980377D01*
X1937643Y1612460D02*
X1980155D01*
X1922839Y1591200D02*
X1979826D01*
X1922839Y1589429D02*
X1979826D01*
X1922839Y1592972D02*
X1979733D01*
X1936313Y1614232D02*
X1979507D01*
X1922839Y1594744D02*
X1978021D01*
X1922839Y1596515D02*
X1976250D01*
X1934653Y1598287D02*
X1974478D01*
X1937285Y1600058D02*
X1972706D01*
X1939631Y1608917D02*
X1953485D01*
X1939954Y1607145D02*
X1953013D01*
X1938693Y1601830D02*
X1949515D01*
X1939917Y1605373D02*
X1949283D01*
X1939516Y1603602D02*
X1948781D01*
X1922839Y1598287D02*
X1927493D01*
X1922901Y1600058D02*
X1924861D01*
X2020449Y1614232D02*
X2023828D01*
X2019805Y1612460D02*
X2022513D01*
X2018517Y1608917D02*
X2022380D01*
X2017873Y1607145D02*
X2022380D01*
X2017230Y1605373D02*
X2022380D01*
X2016586Y1603602D02*
X2022272D01*
X2019161Y1610688D02*
X2022097D01*
X2015942Y1601830D02*
X2020568D01*
X2015298Y1600058D02*
X2018796D01*
X2014570Y1598287D02*
X2017025D01*
X2026068Y1614232D02*
X2037148D01*
X2027384Y1612460D02*
X2035841D01*
X2027800Y1610688D02*
X2034069D01*
X2027517Y1608917D02*
X2032298D01*
X2027517Y1607145D02*
X2030526D01*
X2048034Y1612460D02*
X2077161D01*
X2047393Y1610688D02*
X2077161D01*
X2038449Y1608917D02*
X2077161D01*
X2036677Y1607145D02*
X2077161D01*
X2034906Y1605373D02*
X2077161D01*
X2071372Y1603602D02*
X2077161D01*
X2073969Y1601830D02*
X2077161D01*
X2047648Y1614232D02*
X2077160D01*
X2075368Y1600058D02*
X2076986D01*
X2029357Y1585885D02*
X2066529D01*
X2033134Y1603602D02*
X2064086D01*
X2031034Y1587657D02*
X2063454D01*
X2032768Y1601830D02*
X2061489D01*
X2031549Y1589429D02*
X2061185D01*
X2034730Y1600058D02*
X2060092D01*
X2030831Y1591200D02*
X2059912D01*
X2034887Y1598287D02*
X2059277D01*
X2025150Y1592972D02*
X2059179D01*
X2033631Y1596515D02*
X2058882D01*
X2026921Y1594744D02*
X2058851D01*
X2028696Y1596515D02*
X2030562D01*
X2074273Y1589429D02*
X2077161D01*
X2072004Y1587657D02*
X2077161D01*
X2068929Y1585885D02*
X2077161D01*
X2075726Y1591200D02*
X2076628D01*
G54D24*
X1986129Y1590953D02*
X2017410D01*
X2038950Y1612494*
X2045170*
X1999476Y1588001D02*
X2017103D01*
X2028035Y1598933*
X2031453*
G54D25*
X1981881Y1592219D02*
Y1593681D01*
X1971813Y1603749*
X1951641*
X1981804Y1589027D02*
Y1592142D01*
X1981881Y1592219*
X2018545Y1585727D02*
X2022117Y1589300D01*
X2028688*
X2018545Y1585727D02*
X1985103D01*
X1981804Y1589027*
G54D31*
X2075850Y1595473D02*
G03X2075850I-8121J0D01*
G01X1939194Y1606444D02*
G03X1939194I-8121J0D01*
G01X2077949Y1584249D02*
Y1615751D01*
G03X2077752Y1615948I-197J0*
G01X2020373*
G03X2020188Y1615818I0J-197*
G01X2014290Y1599590*
X2013541Y1599065D02*
G03X2014290Y1599590I-0J797D01*
G01X2013541Y1599065D02*
X1986445D01*
X1985696Y1599588D02*
G03X1986445Y1599065I749J274D01*
G01X1985696Y1599588D02*
X1979780Y1615779D01*
G03X1979595Y1615909I-185J-67*
G01X1922248*
G03X1922051Y1615712I0J-197*
G01Y1584249*
G03X1922248Y1584052I197J-0*
G01X2077752*
G03X2077949Y1584249I-0J197*
G01X2075850Y1595473D02*
G03X2075850I-8121J0D01*
G01X2043681Y1611047D02*
G03Y1613941I1489J1447D01*
G01Y1611047D02*
G03X2043540Y1611107I-141J-137D01*
G01X2039607*
G03X2039467Y1611049I-0J-197*
G01X2029075Y1600657*
G03X2029214Y1600321I139J-139*
G01X2030466*
G03X2030608Y1600380I0J197*
G01Y1597486D02*
G03Y1600380I1489J1447D01*
G01Y1597486D02*
G03X2030466Y1597546I-142J-137D01*
G01X2028692*
G03X2028552Y1597488I-0J-197*
G01X2021888Y1590823*
G03X2022040Y1590488I139J-139*
G01X2022117Y1590490D02*
G03X2022040Y1590488I0J-1190D01*
G01X2022117Y1590490D02*
X2026888D01*
G03X2027044Y1590567I-0J197*
G01Y1588033D02*
G03Y1590567I1644J1267D01*
G01Y1588032D02*
G03X2026888Y1588109I-156J-120D01*
G01X2022692*
G03X2022553Y1588052I-0J-197*
G01X2019387Y1584885*
X2018545Y1584537D02*
G03X2019387Y1584885I-0J1190D01*
G01X2018545Y1584537D02*
X1985103D01*
X1984261Y1584885D02*
G03X1985103Y1584537I842J842D01*
G01X1984261Y1584885D02*
X1980962Y1588185D01*
X1980613Y1589027D02*
G03X1980962Y1588185I1191J-0D01*
G01X1980613Y1589027D02*
Y1592142D01*
X1980680Y1592534D02*
G03X1980613Y1592142I1124J-392D01*
G01X1980680Y1592534D02*
G03X1980691Y1592599I-186J65D01*
G01Y1593106*
G03X1980633Y1593245I-197J0*
G01X1971378Y1602500*
G03X1971239Y1602558I-139J-139*
G01X1953442*
G03X1953286Y1602481I-0J-197*
G01Y1605016D02*
G03Y1602481I-1645J-1267D01*
G01Y1605016D02*
G03X1953442Y1604939I156J120D01*
G01X1955531*
G03X1955670Y1605275I0J197*
G01X1955503Y1605442*
G03X1955417Y1605493I-139J-139*
G01X1957340Y1609055D02*
G03X1955417Y1605493I-1369J-1561D01*
G01X1957340Y1609055D02*
G03X1957590Y1609047I130J148D01*
G01X1959882Y1609209D02*
G03X1957590Y1609047I-1024J-1806D01*
G01X1959882Y1609209D02*
G03X1959979Y1609184I97J172D01*
G01X1971691*
X1972950Y1608662D02*
G03X1971691Y1609184I-1259J-1259D01*
G01X1972950Y1608662D02*
X1985126Y1596486D01*
G03X1985265Y1596429I139J140*
G01X2005074*
G03X2005124Y1596435I-0J197*
G01X2005582Y1596495D02*
G03X2005124Y1596435I-0J-1781D01*
G01X2005582Y1596495D02*
X2016265D01*
G03X2016404Y1596553I-0J197*
G01X2023109Y1603258*
G03X2023167Y1603397I-139J139*
G01Y1609833*
G03X2023142Y1609930I-197J-0*
G01X2026755D02*
G03X2023142I-1807J1023D01*
G01X2026755D02*
G03X2026729Y1609833I171J-97D01*
G01Y1602710*
G03X2027065Y1602571I197J0*
G01X2037969Y1613475*
X2038950Y1613881D02*
G03X2037969Y1613475I0J-1387D01*
G01X2038950Y1613881D02*
X2043540D01*
G03X2043681Y1613941I-0J197*
G01X1939194Y1606444D02*
G03X1939194I-8121J0D01*
G01X2020139Y1615683D02*
X2077949D01*
X2020010Y1615329D02*
X2077949D01*
X2019881Y1614975D02*
X2077949D01*
X2019753Y1614620D02*
X2077949D01*
X2046252Y1614266D02*
X2077949D01*
X2046687Y1613912D02*
X2077949D01*
X2046954Y1613557D02*
X2077949D01*
X2047122Y1613203D02*
X2077949D01*
X2047216Y1612849D02*
X2077949D01*
X2047247Y1612494D02*
X2077949D01*
X2047216Y1612140D02*
X2077949D01*
X2047122Y1611786D02*
X2077949D01*
X2046954Y1611431D02*
X2077949D01*
X2046688Y1611077D02*
X2077949D01*
X2046254Y1610723D02*
X2077949D01*
X2038787Y1610368D02*
X2077949D01*
X2038433Y1610014D02*
X2077949D01*
X2038078Y1609660D02*
X2077949D01*
X2037724Y1609305D02*
X2077949D01*
X2037370Y1608951D02*
X2077949D01*
X2037015Y1608597D02*
X2077949D01*
X2036661Y1608242D02*
X2077949D01*
X2036307Y1607888D02*
X2077949D01*
X2035952Y1607534D02*
X2077949D01*
X2035598Y1607179D02*
X2077949D01*
X2035244Y1606825D02*
X2077949D01*
X2034889Y1606471D02*
X2077949D01*
X2034535Y1606116D02*
X2077949D01*
X2034181Y1605762D02*
X2077949D01*
X2033826Y1605408D02*
X2077949D01*
X2033472Y1605053D02*
X2077949D01*
X2033118Y1604699D02*
X2077949D01*
X2032763Y1604345D02*
X2077949D01*
X2032409Y1603990D02*
X2077949D01*
X2032055Y1603636D02*
X2077949D01*
X2069957Y1603282D02*
X2077949D01*
X2070950Y1602927D02*
X2077949D01*
X2071670Y1602573D02*
X2077949D01*
X2072250Y1602219D02*
X2077949D01*
X2072738Y1601864D02*
X2077949D01*
X2073160Y1601510D02*
X2077949D01*
X2073530Y1601156D02*
X2077949D01*
X2073857Y1600801D02*
X2077949D01*
X2074148Y1600447D02*
X2077949D01*
X2074407Y1600093D02*
X2077949D01*
X2074639Y1599738D02*
X2077949D01*
X2074846Y1599384D02*
X2077949D01*
X2075029Y1599030D02*
X2077949D01*
X2075192Y1598675D02*
X2077949D01*
X2075334Y1598321D02*
X2077949D01*
X2075457Y1597967D02*
X2077949D01*
X2075563Y1597613D02*
X2077949D01*
X2075651Y1597258D02*
X2077949D01*
X2075723Y1596904D02*
X2077949D01*
X2075778Y1596550D02*
X2077949D01*
X2075818Y1596195D02*
X2077949D01*
X2075841Y1595841D02*
X2077949D01*
X2075850Y1595487D02*
X2077949D01*
X2075843Y1595132D02*
X2077949D01*
X2075820Y1594778D02*
X2077949D01*
X2075782Y1594424D02*
X2077949D01*
X2075728Y1594069D02*
X2077949D01*
X2075657Y1593715D02*
X2077949D01*
X2075570Y1593361D02*
X2077949D01*
X2075466Y1593006D02*
X2077949D01*
X2075344Y1592652D02*
X2077949D01*
X2075203Y1592298D02*
X2077949D01*
X2075043Y1591943D02*
X2077949D01*
X2074861Y1591589D02*
X2077949D01*
X2074656Y1591235D02*
X2077949D01*
X2074427Y1590880D02*
X2077949D01*
X2074169Y1590526D02*
X2077949D01*
X2073881Y1590172D02*
X2077949D01*
X2073557Y1589817D02*
X2077949D01*
X2073191Y1589463D02*
X2077949D01*
X2072774Y1589109D02*
X2077949D01*
X2072291Y1588754D02*
X2077949D01*
X2071720Y1588400D02*
X2077949D01*
X2071013Y1588046D02*
X2077949D01*
X2070053Y1587691D02*
X2077949D01*
X2029366Y1587337D02*
X2077949D01*
X2021484Y1586983D02*
X2077949D01*
X2021129Y1586628D02*
X2077949D01*
X2020775Y1586274D02*
X2077949D01*
X2020421Y1585920D02*
X2077949D01*
X2020066Y1585565D02*
X2077949D01*
X2019712Y1585211D02*
X2077949D01*
X2019357Y1584857D02*
X2077949D01*
X1922051Y1584502D02*
X2077949D01*
X1922079Y1584148D02*
X2077921D01*
X2031700Y1603282D02*
X2065501D01*
X2030001Y1587691D02*
X2065405D01*
X2031346Y1602927D02*
X2064508D01*
X2030343Y1588046D02*
X2064444D01*
X2030992Y1602573D02*
X2063788D01*
X2030560Y1588400D02*
X2063738D01*
X2030637Y1602219D02*
X2063208D01*
X2030692Y1588754D02*
X2063167D01*
X2030283Y1601864D02*
X2062720D01*
X2030756Y1589109D02*
X2062684D01*
X2029929Y1601510D02*
X2062298D01*
X2030758Y1589463D02*
X2062267D01*
X2029574Y1601156D02*
X2061928D01*
X2030699Y1589817D02*
X2061901D01*
X2033003Y1600801D02*
X2061601D01*
X2030573Y1590172D02*
X2061577D01*
X2033518Y1600447D02*
X2061310D01*
X2030364Y1590526D02*
X2061289D01*
X2033819Y1600093D02*
X2061050D01*
X2030035Y1590880D02*
X2061031D01*
X2034011Y1599738D02*
X2060819D01*
X2029442Y1591235D02*
X2060802D01*
X2034124Y1599384D02*
X2060612D01*
X2022653Y1591589D02*
X2060597D01*
X2034171Y1599030D02*
X2060429D01*
X2023007Y1591943D02*
X2060415D01*
X2034157Y1598675D02*
X2060266D01*
X2023362Y1592298D02*
X2060254D01*
X2034081Y1598321D02*
X2060124D01*
X2023716Y1592652D02*
X2060114D01*
X2033934Y1597967D02*
X2060001D01*
X2024070Y1593006D02*
X2059992D01*
X2033699Y1597613D02*
X2059895D01*
X2024425Y1593361D02*
X2059888D01*
X2033324Y1597258D02*
X2059807D01*
X2024779Y1593715D02*
X2059801D01*
X2032536Y1596904D02*
X2059735D01*
X2025133Y1594069D02*
X2059730D01*
X2027614Y1596550D02*
X2059680D01*
X2025488Y1594424D02*
X2059676D01*
X2027259Y1596195D02*
X2059640D01*
X2025842Y1594778D02*
X2059638D01*
X2026905Y1595841D02*
X2059616D01*
X2026196Y1595132D02*
X2059615D01*
X2026551Y1595487D02*
X2059608D01*
X2019624Y1614266D02*
X2044088D01*
X2039141Y1610723D02*
X2044087D01*
X2019495Y1613912D02*
X2043645D01*
X2039503Y1611077D02*
X2043644D01*
X2019366Y1613557D02*
X2038059D01*
X2019237Y1613203D02*
X2037697D01*
X2025796Y1612849D02*
X2037343D01*
X2026340Y1612494D02*
X2036989D01*
X2026652Y1612140D02*
X2036634D01*
X2026851Y1611786D02*
X2036280D01*
X2026969Y1611431D02*
X2035926D01*
X2027021Y1611077D02*
X2035571D01*
X2027012Y1610723D02*
X2035217D01*
X2026941Y1610368D02*
X2034863D01*
X2026800Y1610014D02*
X2034508D01*
X2026729Y1609660D02*
X2034154D01*
X2026729Y1609305D02*
X2033800D01*
X2026729Y1608951D02*
X2033445D01*
X2026729Y1608597D02*
X2033091D01*
X2026729Y1608242D02*
X2032737D01*
X2026729Y1607888D02*
X2032382D01*
X2026729Y1607534D02*
X2032028D01*
X2026729Y1607179D02*
X2031674D01*
X2027968Y1596904D02*
X2031657D01*
X2026729Y1606825D02*
X2031319D01*
X2029220Y1600801D02*
X2031190D01*
X2026729Y1606471D02*
X2030965D01*
X2028322Y1597258D02*
X2030870D01*
X2029031Y1600447D02*
X2030676D01*
X2026729Y1606116D02*
X2030611D01*
X2026729Y1605762D02*
X2030256D01*
X2026729Y1605408D02*
X2029902D01*
X2026729Y1605053D02*
X2029548D01*
X2026729Y1604699D02*
X2029193D01*
X2026729Y1604345D02*
X2028839D01*
X2026729Y1603990D02*
X2028485D01*
X2026729Y1603636D02*
X2028130D01*
X2021838Y1587337D02*
X2028011D01*
X2022299Y1591235D02*
X2027935D01*
X2026729Y1603282D02*
X2027776D01*
X2026729Y1602927D02*
X2027422D01*
X2022192Y1587691D02*
X2027375D01*
X2021944Y1590880D02*
X2027342D01*
X2026785Y1602573D02*
X2027067D01*
X2022547Y1588046D02*
X2027033D01*
X2021910Y1590526D02*
X2027000D01*
X2019109Y1612849D02*
X2024100D01*
X2018980Y1612494D02*
X2023557D01*
X2018851Y1612140D02*
X2023244D01*
X2017950Y1609660D02*
X2023167D01*
X2017821Y1609305D02*
X2023167D01*
X2017692Y1608951D02*
X2023167D01*
X2017563Y1608597D02*
X2023167D01*
X2017435Y1608242D02*
X2023167D01*
X2017306Y1607888D02*
X2023167D01*
X2017177Y1607534D02*
X2023167D01*
X2017048Y1607179D02*
X2023167D01*
X2016919Y1606825D02*
X2023167D01*
X2016791Y1606471D02*
X2023167D01*
X2016662Y1606116D02*
X2023167D01*
X2016533Y1605762D02*
X2023167D01*
X2016404Y1605408D02*
X2023167D01*
X2016275Y1605053D02*
X2023167D01*
X2016147Y1604699D02*
X2023167D01*
X2016018Y1604345D02*
X2023167D01*
X2015889Y1603990D02*
X2023167D01*
X2015760Y1603636D02*
X2023167D01*
X2015632Y1603282D02*
X2023130D01*
X2018078Y1610014D02*
X2023096D01*
X2018722Y1611786D02*
X2023046D01*
X2018207Y1610368D02*
X2022956D01*
X2018594Y1611431D02*
X2022928D01*
X2018336Y1610723D02*
X2022885D01*
X2018465Y1611077D02*
X2022876D01*
X2015503Y1602927D02*
X2022779D01*
X2015374Y1602573D02*
X2022425D01*
X2015245Y1602219D02*
X2022070D01*
X2015116Y1601864D02*
X2021716D01*
X2014988Y1601510D02*
X2021362D01*
X2014859Y1601156D02*
X2021007D01*
X2014730Y1600801D02*
X2020653D01*
X2014601Y1600447D02*
X2020299D01*
X2014472Y1600093D02*
X2019944D01*
X2014344Y1599738D02*
X2019590D01*
X2014178Y1599384D02*
X2019236D01*
X1982582Y1599030D02*
X2018881D01*
X1982937Y1598675D02*
X2018527D01*
X1983291Y1598321D02*
X2018173D01*
X1983645Y1597967D02*
X2017818D01*
X1984000Y1597613D02*
X2017464D01*
X1984354Y1597258D02*
X2017110D01*
X1984708Y1596904D02*
X2016755D01*
X1985063Y1596550D02*
X2016401D01*
X1982228Y1599384D02*
X1985807D01*
X1981874Y1599738D02*
X1985641D01*
X1981519Y1600093D02*
X1985512D01*
X1981165Y1600447D02*
X1985382D01*
X1980811Y1600801D02*
X1985253D01*
X1980456Y1601156D02*
X1985123D01*
X1980102Y1601510D02*
X1984994D01*
X1979748Y1601864D02*
X1984865D01*
X1979393Y1602219D02*
X1984735D01*
X1979039Y1602573D02*
X1984606D01*
X1978685Y1602927D02*
X1984476D01*
X1978330Y1603282D02*
X1984347D01*
X1922051Y1584857D02*
X1984291D01*
X1977976Y1603636D02*
X1984217D01*
X1977622Y1603990D02*
X1984088D01*
X1977267Y1604345D02*
X1983958D01*
X1922051Y1585211D02*
X1983936D01*
X1976913Y1604699D02*
X1983829D01*
X1976559Y1605053D02*
X1983699D01*
X1922051Y1585565D02*
X1983582D01*
X1976204Y1605408D02*
X1983570D01*
X1975850Y1605762D02*
X1983440D01*
X1975496Y1606116D02*
X1983311D01*
X1922051Y1585920D02*
X1983227D01*
X1975141Y1606471D02*
X1983181D01*
X1974787Y1606825D02*
X1983052D01*
X1974433Y1607179D02*
X1982923D01*
X1922051Y1586274D02*
X1982873D01*
X1974078Y1607534D02*
X1982793D01*
X1973724Y1607888D02*
X1982664D01*
X1973370Y1608242D02*
X1982534D01*
X1922051Y1586628D02*
X1982519D01*
X1973015Y1608597D02*
X1982405D01*
X1972571Y1608951D02*
X1982275D01*
X1922051Y1586983D02*
X1982164D01*
X1959690Y1609305D02*
X1982146D01*
X1938530Y1609660D02*
X1982016D01*
X1938367Y1610014D02*
X1981887D01*
X1922051Y1587337D02*
X1981810D01*
X1938183Y1610368D02*
X1981757D01*
X1937975Y1610723D02*
X1981628D01*
X1937743Y1611077D02*
X1981498D01*
X1922051Y1587691D02*
X1981456D01*
X1937482Y1611431D02*
X1981369D01*
X1937190Y1611786D02*
X1981239D01*
X1936861Y1612140D02*
X1981110D01*
X1922051Y1588046D02*
X1981101D01*
X1936490Y1612494D02*
X1980981D01*
X1936066Y1612849D02*
X1980851D01*
X1922051Y1588400D02*
X1980792D01*
X1935574Y1613203D02*
X1980722D01*
X1922051Y1593006D02*
X1980691D01*
X1922051Y1592652D02*
X1980691D01*
X1922051Y1588754D02*
X1980645D01*
X1922051Y1592298D02*
X1980623D01*
X1922051Y1591943D02*
X1980613D01*
X1922051Y1591589D02*
X1980613D01*
X1922051Y1591235D02*
X1980613D01*
X1922051Y1590880D02*
X1980613D01*
X1922051Y1590526D02*
X1980613D01*
X1922051Y1590172D02*
X1980613D01*
X1922051Y1589817D02*
X1980613D01*
X1922051Y1589463D02*
X1980613D01*
X1922051Y1589109D02*
X1980613D01*
X1934991Y1613557D02*
X1980592D01*
X1922051Y1593361D02*
X1980518D01*
X1934264Y1613912D02*
X1980463D01*
X1933256Y1614266D02*
X1980333D01*
X1922051Y1614620D02*
X1980204D01*
X1922051Y1593715D02*
X1980163D01*
X1922051Y1614975D02*
X1980074D01*
X1922051Y1615329D02*
X1979945D01*
X1922051Y1615683D02*
X1979815D01*
X1922051Y1594069D02*
X1979809D01*
X1922051Y1594424D02*
X1979455D01*
X1922051Y1594778D02*
X1979100D01*
X1922051Y1595132D02*
X1978746D01*
X1922051Y1595487D02*
X1978392D01*
X1922051Y1595841D02*
X1978038D01*
X1922051Y1596195D02*
X1977683D01*
X1922051Y1596550D02*
X1977329D01*
X1922051Y1596904D02*
X1976975D01*
X1922051Y1597258D02*
X1976620D01*
X1922051Y1597613D02*
X1976266D01*
X1922051Y1597967D02*
X1975912D01*
X1922051Y1598321D02*
X1975557D01*
X1933439Y1598675D02*
X1975203D01*
X1934386Y1599030D02*
X1974849D01*
X1935086Y1599384D02*
X1974494D01*
X1935654Y1599738D02*
X1974140D01*
X1936134Y1600093D02*
X1973786D01*
X1936549Y1600447D02*
X1973431D01*
X1936913Y1600801D02*
X1973077D01*
X1937236Y1601156D02*
X1972723D01*
X1937523Y1601510D02*
X1972368D01*
X1952514Y1601864D02*
X1972014D01*
X1953045Y1602219D02*
X1971660D01*
X1956986Y1609305D02*
X1958027D01*
X1953256Y1605053D02*
X1955710D01*
X1952890Y1605408D02*
X1955538D01*
X1938673Y1609305D02*
X1954955D01*
X1952148Y1605762D02*
X1954825D01*
X1938797Y1608951D02*
X1954491D01*
X1939187Y1606116D02*
X1954417D01*
X1938903Y1608597D02*
X1954211D01*
X1939194Y1606471D02*
X1954164D01*
X1938992Y1608242D02*
X1954034D01*
X1939185Y1606825D02*
X1954005D01*
X1939064Y1607888D02*
X1953932D01*
X1939160Y1607179D02*
X1953918D01*
X1939120Y1607534D02*
X1953894D01*
X1939165Y1605762D02*
X1951134D01*
X1937779Y1601864D02*
X1950769D01*
X1939127Y1605408D02*
X1950393D01*
X1938008Y1602219D02*
X1950237D01*
X1939074Y1605053D02*
X1950026D01*
X1938212Y1602573D02*
X1949930D01*
X1939004Y1604699D02*
X1949795D01*
X1938393Y1602927D02*
X1949734D01*
X1938918Y1604345D02*
X1949652D01*
X1938553Y1603282D02*
X1949618D01*
X1938814Y1603990D02*
X1949579D01*
X1938693Y1603636D02*
X1949568D01*
X1922051Y1614266D02*
X1928890D01*
X1922051Y1598675D02*
X1928707D01*
X1922051Y1613912D02*
X1927882D01*
X1922051Y1599030D02*
X1927759D01*
X1922051Y1613557D02*
X1927155D01*
X1922051Y1599384D02*
X1927060D01*
X1922051Y1613203D02*
X1926571D01*
X1922051Y1599738D02*
X1926492D01*
X1922051Y1612849D02*
X1926080D01*
X1922051Y1600093D02*
X1926012D01*
X1922051Y1612494D02*
X1925656D01*
X1922051Y1600447D02*
X1925597D01*
X1922051Y1612140D02*
X1925285D01*
X1922051Y1600801D02*
X1925233D01*
X1922051Y1611786D02*
X1924956D01*
X1922051Y1601156D02*
X1924910D01*
X1922051Y1611431D02*
X1924664D01*
X1922051Y1601510D02*
X1924623D01*
X1922051Y1611077D02*
X1924403D01*
X1922051Y1601864D02*
X1924366D01*
X1922051Y1610723D02*
X1924171D01*
X1922051Y1602219D02*
X1924138D01*
X1922051Y1610368D02*
X1923963D01*
X1922051Y1602573D02*
X1923934D01*
X1922051Y1610014D02*
X1923779D01*
X1922051Y1602927D02*
X1923753D01*
X1922051Y1609660D02*
X1923616D01*
X1922051Y1603282D02*
X1923593D01*
X1922051Y1609305D02*
X1923473D01*
X1922051Y1603636D02*
X1923453D01*
X1922051Y1608951D02*
X1923349D01*
X1922051Y1603990D02*
X1923332D01*
X1922051Y1608597D02*
X1923243D01*
X1922051Y1604345D02*
X1923228D01*
X1922051Y1608242D02*
X1923154D01*
X1922051Y1604699D02*
X1923142D01*
X1922051Y1607888D02*
X1923082D01*
X1922051Y1605053D02*
X1923072D01*
X1922051Y1607534D02*
X1923026D01*
X1922051Y1605408D02*
X1923018D01*
X1922051Y1607179D02*
X1922985D01*
X1922051Y1605762D02*
X1922981D01*
X1922051Y1606825D02*
X1922961D01*
X1922051Y1606116D02*
X1922959D01*
X1922051Y1606471D02*
X1922952D01*
X1921282Y1616706D02*
X1980290D01*
X1986445Y1599862*
X2013541*
X2019677Y1616745*
X2078746*
Y1583255*
X1921254*
Y1616718*
X1921282*
Y1616706*
X2072035Y1595441D02*
G03X2072035I-4331J0D01*
G01X1935421Y1606465D02*
G03X1935421I-4331J0D01*
G54D209*
G01X1924370Y1588452D03*
X1929195Y1588546D03*
X1934020Y1588641D03*
X1938845Y1588735D03*
X1955183Y1588614D03*
X1961586Y1588670D03*
X1976523Y1588591D03*
X1976129Y1593434D03*
X1986129Y1590953D03*
X1999476Y1588001D03*
X2028688Y1589300D03*
X2052020Y1593616D03*
X2056956Y1587686D03*
X2056667Y1593591D03*
X2064762Y1585735D03*
X2076269Y1585799D03*
X1924316Y1595718D03*
X1929195Y1595736D03*
X1941169Y1601623D03*
X1938954Y1595773D03*
X1934074Y1595755D03*
X1951641Y1603749D03*
X1945817Y1601888D03*
X2019200Y1604497D03*
X2032097Y1598933D03*
X2052096Y1598549D03*
X2056667Y1598472D03*
X2076208Y1603591D03*
X1923264Y1613434D03*
X1941312Y1613474D03*
X1952563Y1613415D03*
X1946937Y1613444D03*
X1943531Y1605560D03*
X1958858Y1607403D03*
X1955971Y1607494D03*
X1958189Y1613385D03*
X1969440Y1613326D03*
X1963814Y1613356D03*
X1979043Y1607371D03*
X1975066Y1613297D03*
X2020460Y1609142D03*
X2021854Y1614045D03*
X2024948Y1610953D03*
X2031917Y1611426D03*
X2028177Y1614260D03*
X2045170Y1612494D03*
X2050263Y1614221D03*
X2047097Y1608979D03*
X2068334Y1614457D03*
X2072091Y1606054D03*
X2072270Y1610787D03*
X2067987Y1610769D03*
X2073019Y1614103D03*
X2076552Y1610805D03*
G54D212*
X2031909Y1598746D02*
Y1598860D01*
X2031836Y1598933*
X2031453*
X2031909Y1598746D02*
X2032097Y1598933D01*
G74*
X0Y0D02*
M02*
