%
T1C.01378F095S3
X010312Y010518
X010795Y010527
X011277Y010536
X01176Y010546
X010307Y011244
X010795Y011246
X011283Y011248
X011771Y01125
X011992Y011835
X012457Y011861
X012228Y012228
X010202Y013016
X012569Y013017
X012006Y01302
X013132Y013014
X013694Y013011
X014257Y013008
X014819Y013005
X013472Y012422
X013761Y012413
X013039Y012047
X014034Y010539
X013394Y010534
X015528Y010531
X016488Y010768
X015488Y011016
X01578Y012409
X015382Y013002
X020061Y013077
X019921Y012587
X019795Y012122
X017823Y010472
X020744Y010602
X021085Y011566
X022585Y01257
X02037Y012768
X021067Y012815
X022392Y012922
X020693Y013098
X024709Y013118
X022902Y013094
X025177Y013083
X025102Y012751
X024674Y012749
X025084Y012278
X023085Y011527
X023542Y01152
X023077Y011034
X023542Y011032
X023571Y010441
X024351Y010246
X025502Y010252
X025496Y012031
X02553Y012753
M30
