*
*
G04 PADS 9.5 Build Number: 522968 generated Gerber (RS-274-X) file*
G04 PC Version=2.1*
*
%IN "AD5420_POWER_V1.6.pcb"*%
*
%MOIN*%
*
%FSLAX35Y35*%
*
*
*
*
G04 PC Standard Apertures*
*
*
G04 Thermal Relief Aperture macro.*
%AMTER*
1,1,$1,0,0*
1,0,$1-$2,0,0*
21,0,$3,$4,0,0,45*
21,0,$3,$4,0,0,135*
%
*
*
G04 Annular Aperture macro.*
%AMANN*
1,1,$1,0,0*
1,0,$2,0,0*
%
*
*
G04 Odd Aperture macro.*
%AMODD*
1,1,$1,0,0*
1,0,$1-0.005,0,0*
%
*
*
G04 PC Custom Aperture Macros*
*
*
*
*
*
*
G04 PC Aperture Table*
*
%ADD010C,0.001*%
%ADD013R,0.07874X0.19685*%
%ADD014C,0.03937*%
%ADD015R,0.036X0.03*%
%ADD016R,0.11811X0.07087*%
%ADD017R,0.07087X0.11811*%
%ADD019R,0.03X0.036*%
%ADD020R,0.02X0.074*%
%ADD021O,0.02X0.074*%
%ADD024R,0.02953X0.09449*%
%ADD027R,0.036X0.036*%
%ADD028R,0.05X0.036*%
%ADD029R,0.056X0.05*%
%ADD030R,0.05512X0.0126*%
%ADD031R,0.022X0.08*%
%ADD032R,0.06299X0.09449*%
%ADD033R,0.036X0.05*%
%ADD077C,0.00394*%
%ADD080R,0.03543X0.04331*%
%ADD083R,0.02X0.02*%
%ADD084R,0.05X0.056*%
%ADD088R,0.01968X0.05512*%
%ADD089O,0.01968X0.05512*%
%ADD120R,0.01969X0.02362*%
%ADD121R,0.02362X0.01969*%
%ADD147O,0.055X0.083*%
%ADD148R,0.055X0.083*%
*
*
*
*
G04 PC Circuitry*
G04 Layer Name AD5420_POWER_V1.6.pcb - circuitry*
%LPD*%
*
*
G04 PC Custom Flashes*
G04 Layer Name AD5420_POWER_V1.6.pcb - flashes*
%LPD*%
*
*
G04 PC Circuitry*
G04 Layer Name AD5420_POWER_V1.6.pcb - circuitry*
%LPD*%
*
G54D10*
G54D13*
G01X2065433Y1615956D03*
X2048425Y1615759D03*
G54D14*
X2070917Y1614065D03*
X2057535Y1513759D03*
X2050768Y1515537D03*
X2060324Y1518614D03*
X2062499Y1544686D03*
G54D15*
X2039171Y1678926D03*
X2033171D03*
X1991960Y1591241D03*
X1997960D03*
X1996103Y1671749D03*
X2002103D03*
X2001866Y1677462D03*
X1995866D03*
X2001957Y1683099D03*
X1995957D03*
X1941810Y1567773D03*
X1947810D03*
X2033110Y1546949D03*
X2039110D03*
X2043708Y1665658D03*
X2037708D03*
X2039427Y1625075D03*
X2033427D03*
X2071741Y1636329D03*
X2065741D03*
X2071741Y1630731D03*
X2065741D03*
X1934484Y1664154D03*
X1940484D03*
X1940627Y1658716D03*
X1934627D03*
X1960296Y1649050D03*
X1966296D03*
X1938129Y1513860D03*
X1944129D03*
X2039467Y1561865D03*
X2033467D03*
X2021103Y1574247D03*
X2027103D03*
X2064522Y1601512D03*
X2070522D03*
X1980990Y1663234D03*
X1974990D03*
G54D16*
X2058351Y1643578D03*
Y1670350D03*
G54D17*
X2005964Y1636146D03*
X1979192D03*
X1927737Y1554115D03*
X1954509D03*
G54D19*
X2022625Y1674678D03*
Y1680678D03*
X2058319Y1601797D03*
Y1595797D03*
X2014434Y1574207D03*
Y1580207D03*
X2008282Y1580367D03*
Y1574367D03*
X1965447Y1662094D03*
Y1656094D03*
X2021518Y1649279D03*
Y1655279D03*
X2031992Y1665693D03*
Y1671693D03*
X1951477Y1685791D03*
Y1679791D03*
X2021518Y1635985D03*
Y1641985D03*
X1927850Y1664254D03*
Y1658254D03*
X2014816Y1655683D03*
Y1661683D03*
X1974619Y1585980D03*
Y1591980D03*
X1967971Y1586104D03*
Y1592104D03*
X1958173Y1625571D03*
Y1631571D03*
X1964048Y1625821D03*
Y1631821D03*
X1970467Y1625651D03*
Y1631651D03*
X2052905Y1595889D03*
Y1601889D03*
G54D20*
X2028837Y1634221D03*
G54D21*
X2033837D03*
X2038837D03*
X2043837D03*
Y1656821D03*
X2038837D03*
X2033837D03*
X2028837D03*
G54D24*
X1928102Y1674874D03*
X1933102D03*
X1938102D03*
X1943102Y1674795D03*
X1928142Y1690268D03*
X1933142D03*
X1938142D03*
X1943142D03*
G54D27*
X1935118Y1567838D03*
Y1575338D03*
X2016508Y1681642D03*
Y1674142D03*
X1998445Y1613777D03*
X2005945Y1613971D03*
G54D28*
X1927118Y1571588D03*
X2008508Y1677892D03*
G54D29*
X2064960Y1595625D03*
X2073960D03*
X1958017Y1642095D03*
X1967017D03*
G54D30*
X1988489Y1663548D03*
Y1660989D03*
Y1658430D03*
Y1655871D03*
X2006796D03*
Y1658430D03*
Y1660989D03*
Y1663548D03*
G54D31*
X1973036Y1562490D03*
X1978036D03*
X1983036D03*
X1988036D03*
X1993036D03*
X1998036D03*
X2003036D03*
X2008036D03*
X2013036D03*
G54D32*
X1965162Y1551466D03*
X2020989Y1551506D03*
G54D33*
X2002195Y1605777D03*
G54D77*
X1925728Y1706516D02*
G75*
G03X1920728Y1701516I0J-5000D01*
G01X1925728Y1706516D02*
X2074272D01*
X2079272Y1701516D02*
G03X2074272Y1706516I-5000J-0D01*
G01X2079272Y1701516D02*
Y1498484D01*
X2074272Y1493484D02*
G03X2079272Y1498484I-0J5000D01*
G01X2074272Y1493484D02*
X2035930D01*
Y1540335*
X1961075*
Y1493507*
X1925723*
X1920728Y1498478D02*
G03X1925725Y1493507I4988J17D01*
G01X1920728Y1498479D02*
Y1701516D01*
X1936988Y1589744D02*
G03X1936988I-4212J0D01*
G01X2041292D02*
G03X2041292I-4252J0D01*
G01X1995975Y1704544D02*
X1998993D01*
Y1690685*
X1995975*
Y1704544*
X2073503Y1686036D02*
X2003396D01*
Y1689372*
X2073503*
Y1686036*
G54D80*
X2001080Y1573502D03*
X2001040Y1582557D03*
X1986779Y1582645D03*
X1986818Y1573590D03*
X1993553Y1573628D03*
X1993514Y1582683D03*
G54D83*
X1977265Y1652049D03*
X1981083D03*
Y1657167D03*
X1977265D03*
X2038838Y1670738D03*
X2042657D03*
G54D84*
X1964554Y1679587D03*
Y1688587D03*
X1958480Y1679322D03*
Y1688322D03*
G54D88*
X2039234Y1618774D03*
G54D89*
X2035494D03*
X2031754D03*
Y1610113D03*
X2035494D03*
X2039234D03*
G54D120*
X2026807Y1617710D03*
Y1623025D03*
G54D121*
X2054703Y1635414D03*
X2049388D03*
G54D147*
X1932417Y1503490D03*
G54D148*
X1950417D03*
G74*
X0Y0D02*
M02*
