*
*
G04 PADS 9.5 Build Number: 522968 generated Gerber (RS-274-X) file*
G04 PC Version=2.1*
*
%IN "TX_3V0.pcb"*%
*
%MOIN*%
*
%FSLAX35Y35*%
*
*
*
*
G04 PC Standard Apertures*
*
*
G04 Thermal Relief Aperture macro.*
%AMTER*
1,1,$1,0,0*
1,0,$1-$2,0,0*
21,0,$3,$4,0,0,45*
21,0,$3,$4,0,0,135*
%
*
*
G04 Annular Aperture macro.*
%AMANN*
1,1,$1,0,0*
1,0,$2,0,0*
%
*
*
G04 Odd Aperture macro.*
%AMODD*
1,1,$1,0,0*
1,0,$1-0.005,0,0*
%
*
*
G04 PC Custom Aperture Macros*
*
*
*
*
*
*
G04 PC Aperture Table*
*
%ADD010C,0.001*%
%ADD011C,0.01*%
%ADD013R,0.05512X0.11417*%
%ADD020C,0.05512*%
%ADD021R,0.06299X0.0315*%
%ADD023R,0.02X0.02*%
%ADD025C,0.01969*%
%ADD027C,0.00787*%
%ADD032C,0.02362*%
%ADD034C,0.00591*%
%ADD058R,0.06299X0.1063*%
%ADD074R,0.01968X0.06*%
%ADD075R,0.02559X0.08858*%
%ADD076O,0.02559X0.08858*%
%ADD077R,0.03937X0.02756*%
%ADD078R,0.03937X0.04331*%
%ADD079R,0.04724X0.27559*%
%ADD080R,0.27559X0.04724*%
%ADD081R,0.07874X0.03937*%
%ADD082R,0.2126X0.23622*%
%ADD083C,0.06299*%
%ADD084C,0.03543*%
%ADD085C,0.00984*%
*
*
*
*
G04 PC Circuitry*
G04 Layer Name TX_3V0.pcb - circuitry*
%LPD*%
*
*
G04 PC Custom Flashes*
G04 Layer Name TX_3V0.pcb - flashes*
%LPD*%
*
*
G04 PC Circuitry*
G04 Layer Name TX_3V0.pcb - circuitry*
%LPD*%
*
G54D10*
G54D11*
G01X2008876Y1612287D02*
Y1613370D01*
X2010958Y1614370D02*
X2009876D01*
X2008876Y1616453D02*
Y1615370D01*
X1966437Y1586122D02*
X1967520D01*
X1968799Y1580610D02*
Y1581693D01*
Y1591634D02*
Y1590551D01*
X1966437Y1610728D02*
X1967520D01*
X1968799Y1605217D02*
Y1606299D01*
Y1616240D02*
Y1615157D01*
X1974961Y1639327D02*
Y1638244D01*
X1972878Y1637244D02*
X1973961D01*
G54D13*
X1987599Y1637402D03*
X2018701D03*
G54D20*
X1998150Y1601969D03*
X2008150D03*
X2003150Y1596969D03*
Y1606969D03*
G54D21*
X2005315Y1620039D03*
X2018701D03*
G54D23*
X1974961Y1637244D03*
X1978561D03*
X1999173Y1624685D03*
X1995573D03*
X1999134Y1620039D03*
X1995534D03*
X2005276Y1614370D03*
X2008876D03*
X1991417Y1624685D03*
X1987817D03*
X1978543Y1632992D03*
X1974943D03*
G54D25*
X1983937Y1565039D02*
X1990709D01*
X1978780Y1575827D02*
Y1578146D01*
X1978799Y1578166*
Y1586122*
X1978780Y1575827D02*
X1988228D01*
X1990709Y1578307*
Y1583150*
X1973799Y1586122D02*
Y1577441D01*
X1975413Y1575827*
X1978780*
X1968799Y1586122D02*
Y1589272D01*
X1968819Y1593465*
X1983799Y1586122D02*
Y1610728D01*
X1968799D02*
Y1607579D01*
X1968819Y1604409*
X1986063Y1626457D02*
X1987817Y1624702D01*
Y1624685*
X1982913Y1627323D02*
X1985197D01*
X1986063Y1626457*
X1983799Y1610728D02*
Y1614055D01*
X1987874*
X2008876Y1614370D02*
X2011181D01*
X2018701Y1620039D02*
X2022992D01*
X1971732Y1637244D02*
X1971929D01*
X1974961*
X1996260Y1642559D02*
Y1642756D01*
Y1646220*
X1996260*
X1994292Y1632478D02*
Y1637362D01*
X1996260Y1639330*
Y1642559*
Y1642326D02*
Y1642756D01*
X2000197Y1642326D02*
Y1646220D01*
X2000197*
X2004134Y1642326D02*
Y1646220D01*
X2004134*
X2006102Y1632480D02*
Y1627756D01*
X2008071Y1642326D02*
Y1646220D01*
X2008071*
X2010040Y1632478D02*
Y1627717D01*
X2011103Y1626654*
X2027795*
X2028268Y1626732*
X2012008Y1642326D02*
Y1646220D01*
X2012008*
G54D27*
X1978780Y1603701D02*
X1978819D01*
X1973465Y1623386D02*
Y1631513D01*
X1974943Y1632992*
X1978799Y1610728D02*
X1978819Y1610709D01*
Y1603701*
X1999425Y1624433D02*
X1995282Y1620291D01*
X1995534*
Y1620039*
X1991417Y1624685D02*
X1995573D01*
X1982913Y1619449D02*
X1987992D01*
X1991417Y1622874*
Y1624685*
X1983799Y1610728D02*
Y1614262D01*
X1984685Y1614764*
X1999173Y1624685D02*
Y1624433D01*
X1999425*
X1978543Y1632992D02*
X1978543D01*
Y1637244*
X1978561*
X1978543Y1632992D02*
X1981339Y1630197D01*
X1988291*
X1990574Y1627913*
X1996103*
X1998229Y1630039*
Y1632478*
X1994282D02*
X1994292D01*
X2002165Y1632480D02*
Y1626102D01*
X2003780Y1624488*
G54D32*
X1972874Y1554646D03*
X1964291Y1557953D03*
X1983543Y1554724D03*
X1991693Y1554843D03*
X1983937Y1565039D03*
X2003465Y1554724D03*
X2014528Y1555079D03*
X2035787Y1569291D03*
X2021417Y1555079D03*
X2029094Y1555197D03*
X2035866Y1558307D03*
X1964134Y1569764D03*
X1964409Y1581339D03*
X2035866D03*
X1963937Y1601969D03*
X1963819Y1590866D03*
X1978780Y1603701D03*
X1968819Y1593465D03*
Y1604409D03*
X2035984Y1590551D03*
X2035866Y1602087D03*
X1964488Y1629606D03*
X1964291Y1617087D03*
X1987874Y1614055D03*
X1986063Y1626457D03*
X2006102Y1627756D03*
X2003780Y1624488D03*
X2011181Y1614370D03*
X2035669Y1629567D03*
X2035866Y1610000D03*
X2035748Y1618268D03*
X2022992Y1620039D03*
X1964331Y1639803D03*
X1973110Y1645118D03*
X1971929Y1637244D03*
X1982283Y1645236D03*
X2000197Y1646220D03*
X1996260D03*
X2008071D03*
X2004134D03*
X2012008D03*
X2030236Y1645591D03*
X2023465Y1645472D03*
X2035748Y1641102D03*
G54D34*
X1960630Y1555512D02*
G75*
G03X1964567Y1551575I3937J-0D01*
G01X2035433*
G03X2039370Y1555512I0J3937*
G01Y1644488*
G03X2035433Y1648425I-3937J0*
G01X1964567*
G03X1960630Y1644488I-0J-3937*
G01Y1555512*
G54D58*
X2028307Y1610551D03*
X2017283D03*
X2028307Y1598268D03*
X2017283D03*
G54D74*
X2012008Y1642326D03*
X2010040Y1632478D03*
X2008071Y1642326D03*
X2006102Y1632480D03*
X2004134Y1642326D03*
X2002165Y1632480D03*
X2000197Y1642326D03*
X1998229Y1632478D03*
X1996260Y1642326D03*
X1994292Y1632478D03*
G54D75*
X1983799Y1610728D03*
G54D76*
X1978799D03*
X1973799D03*
X1968799D03*
Y1586122D03*
X1973799D03*
X1978799D03*
X1983799D03*
G54D77*
X1982913Y1619449D03*
Y1627323D03*
X1973465Y1623386D03*
G54D78*
X2028268Y1626732D03*
Y1620039D03*
G54D79*
X1964370Y1629528D03*
Y1569685D03*
X2035630D03*
Y1629528D03*
G54D80*
X2003150Y1555118D03*
G54D81*
X1990709Y1583150D03*
Y1565039D03*
G54D82*
X2019055Y1574094D03*
G54D83*
Y1579331D01*
X2028307Y1588583*
Y1598268*
Y1610551*
G54D84*
X2028268Y1620039D02*
X2028307Y1620000D01*
Y1610551*
G54D85*
X1998445Y1621161D02*
X2007972D01*
Y1618668*
X2005748Y1616444*
Y1607316*
X2009826Y1603238*
X2013038*
X2014769Y1604968*
Y1615256*
X2019744*
Y1593760*
X2015138*
Y1598038*
X2013491Y1599685*
X2008432*
X2001467Y1606651*
Y1617331*
X1998445Y1619078*
Y1621161*
X2014769Y1615018D02*
X2019744D01*
X2014769Y1614133D02*
X2019744D01*
X2014769Y1613247D02*
X2019744D01*
X2014769Y1612361D02*
X2019744D01*
X2014769Y1611475D02*
X2019744D01*
X2014769Y1610589D02*
X2019744D01*
X2014769Y1609703D02*
X2019744D01*
X2014769Y1608818D02*
X2019744D01*
X2014769Y1607932D02*
X2019744D01*
X2014769Y1607046D02*
X2019744D01*
X2014769Y1606160D02*
X2019744D01*
X2014769Y1605274D02*
X2019744D01*
X2014189Y1604388D02*
X2019744D01*
X2013303Y1603503D02*
X2019744D01*
X2005500Y1602617D02*
X2019744D01*
X2006386Y1601731D02*
X2019744D01*
X2007272Y1600845D02*
X2019744D01*
X2008158Y1599959D02*
X2019744D01*
X2014103Y1599073D02*
X2019744D01*
X2014989Y1598188D02*
X2019744D01*
X2015138Y1597302D02*
X2019744D01*
X2015138Y1596416D02*
X2019744D01*
X2015138Y1595530D02*
X2019744D01*
X2015138Y1594644D02*
X2019744D01*
X2004615Y1603503D02*
X2009561D01*
X2003729Y1604388D02*
X2008675D01*
X1998445Y1620333D02*
X2007972D01*
X1998445Y1619448D02*
X2007972D01*
X1999338Y1618562D02*
X2007866D01*
X2002843Y1605274D02*
X2007790D01*
X2000870Y1617676D02*
X2006980D01*
X2001957Y1606160D02*
X2006904D01*
X2001467Y1616790D02*
X2006094D01*
X2001467Y1607046D02*
X2006018D01*
X2001467Y1615904D02*
X2005748D01*
X2001467Y1615018D02*
X2005748D01*
X2001467Y1614133D02*
X2005748D01*
X2001467Y1613247D02*
X2005748D01*
X2001467Y1612361D02*
X2005748D01*
X2001467Y1611475D02*
X2005748D01*
X2001467Y1610589D02*
X2005748D01*
X2001467Y1609703D02*
X2005748D01*
X2001467Y1608818D02*
X2005748D01*
X2001467Y1607932D02*
X2005748D01*
X2038287Y1555512D02*
Y1644488D01*
G03X2035433Y1647342I-2854J0*
G01X2035433D02*
X1964567D01*
X1964567D02*
G03X1961713Y1644488I-0J-2854D01*
G01Y1555512*
G03X1964567Y1552658I2854J-0*
G01X1964567D02*
X2035433D01*
X2035433D02*
G03X2038287Y1555512I0J2854D01*
G01X2032540Y1610551D02*
Y1598268D01*
Y1588583*
X2031300Y1585590D02*
G03X2032540Y1588583I-2993J2993D01*
G01X2031300Y1585590D02*
X2030912Y1585202D01*
G03X2030768Y1584854I348J-348*
G01Y1562283*
X2029685Y1561201D02*
G03X2030768Y1562283I0J1082D01*
G01X2029685Y1561201D02*
X2008425D01*
X2007342Y1562283D02*
G03X2008425Y1561201I1083J0D01*
G01X2007342Y1562283D02*
Y1585906D01*
X2008425Y1586988D02*
G03X2007342Y1585906I0J-1082D01*
G01X2008425Y1586988D02*
X2020523D01*
G03X2020871Y1587132I0J492*
G01X2023931Y1590192*
G03X2024075Y1590540I-348J348*
G01Y1598268*
Y1610551*
Y1610580D02*
G03Y1610551I4232J-29D01*
G01Y1610580D02*
Y1610583D01*
Y1615866*
X2024910Y1616920D02*
G03X2024075Y1615866I248J-1054D01*
G01X2024910Y1616920D02*
G03X2025267Y1617548I-112J479D01*
G01X2025217Y1617874D02*
G03X2025267Y1617548I1082J-0D01*
G01X2025217Y1617874D02*
Y1622205D01*
X2025583Y1623017D02*
G03X2025217Y1622205I716J-812D01*
G01X2025583Y1623017D02*
G03Y1623755I-326J369D01*
G01X2025266Y1624242D02*
G03X2025583Y1623755I1033J325D01*
G01X2025266Y1624242D02*
G03X2024797Y1624587I-469J-148D01*
G01X2011103*
X2009641Y1625192D02*
G03X2011103Y1624587I1462J1462D01*
G01X2009641Y1625192D02*
X2008578Y1626255D01*
X2008542Y1626291D02*
G03X2008578Y1626255I1498J1426D01*
G01X2008542Y1626291D02*
G03X2007814Y1626274I-356J-339D01*
G01X2006415Y1625514D02*
G03X2007814Y1626274I-313J2242D01*
G01X2006415Y1625514D02*
G03X2006000Y1624930I67J-488D01*
G01X2005793Y1623453D02*
G03X2006000Y1624930I-2013J1035D01*
G01X2005793Y1623453D02*
G03X2006231Y1622736I438J-225D01*
G01X2007972*
X2008278Y1622706D02*
G03X2007972Y1622736I-306J-1545D01*
G01X2008278Y1622706D02*
G03X2008373Y1622697I95J483D01*
G01X2008464*
X2009547Y1621614D02*
G03X2008464Y1622697I-1083J0D01*
G01X2009547Y1621614D02*
Y1621190D01*
G03Y1621183I492J-0*
G01Y1621161D02*
G03Y1621183I-1575J0D01*
G01Y1621161D02*
Y1618668D01*
Y1618647D02*
G03Y1618668I-1575J21D01*
G01Y1618647D02*
G03Y1618640I492J-7D01*
G01Y1618464*
X2009182Y1617654D02*
G03X2009547Y1618464I-718J810D01*
G01X2009182Y1617654D02*
G03X2009143Y1617615I327J-368D01*
G01X2009086Y1617555D02*
G03X2009143Y1617615I-1114J1113D01*
G01X2009086Y1617555D02*
X2008824Y1617293D01*
G03X2009172Y1616453I348J-348*
G01X2009876*
X2010958Y1615370D02*
G03X2009876Y1616453I-1082J0D01*
G01X2010958Y1615370D02*
Y1613370D01*
X2009876Y1612287D02*
G03X2010958Y1613370I-0J1083D01*
G01X2009876Y1612287D02*
X2007876D01*
X2007834Y1612288D02*
G03X2007876Y1612287I42J1082D01*
G01X2007834Y1612288D02*
G03X2007323Y1611796I-19J-492D01*
G01Y1608172*
G03X2007467Y1607824I492J0*
G01X2009860Y1605431*
G03X2009974Y1605346I348J348*
G01X2010597Y1604926D02*
G03X2009974Y1605346I-2447J-2957D01*
G01X2010597Y1604926D02*
G03X2010911Y1604813I314J379D01*
G01X2012182*
G03X2012530Y1604957I0J492*
G01X2012907Y1605334*
G03X2013051Y1605682I-348J348*
G01Y1615866*
X2014134Y1616949D02*
G03X2013051Y1615866I-0J-1083D01*
G01X2014134Y1616949D02*
X2020433D01*
X2021515Y1615866D02*
G03X2020433Y1616949I-1082J0D01*
G01X2021515Y1615866D02*
Y1605236D01*
X2021380Y1604712D02*
G03X2021515Y1605236I-947J524D01*
G01X2021380Y1604712D02*
G03X2021319Y1604474I431J-238D01*
G01Y1604345*
G03X2021380Y1604107I492J-0*
G01X2021515Y1603583D02*
G03X2021380Y1604107I-1082J-0D01*
G01X2021515Y1603583D02*
Y1592953D01*
X2020433Y1591870D02*
G03X2021515Y1592953I-0J1083D01*
G01X2020433Y1591870D02*
X2014134D01*
X2013051Y1592953D02*
G03X2014134Y1591870I1083J-0D01*
G01X2013051Y1592953D02*
Y1597618D01*
G03X2012559Y1598110I-492J0*
G01X2008432*
X2008216Y1598125D02*
G03X2008432Y1598110I216J1560D01*
G01X2008216Y1598125D02*
G03X2008148Y1598130I-68J-487D01*
G01X2004353Y1601400D02*
G03X2008148Y1598130I3797J569D01*
G01X2004353Y1601400D02*
G03X2004214Y1601676I-487J-72D01*
G01X2002857Y1603033*
G03X2002582Y1603172I-348J-348*
G01X1999826Y1608889D02*
G03X2002582Y1603172I3324J-1920D01*
G01X1999826Y1608889D02*
G03X1999892Y1609135I-426J246D01*
G01Y1616139*
G03X1999646Y1616565I-492J-0*
G01X1997657Y1617715*
X1997383Y1617915D02*
G03X1997657Y1617715I1062J1163D01*
G01X1997383Y1617915D02*
G03X1996889Y1618017I-332J-363D01*
G01X1996534Y1617957D02*
G03X1996889Y1618017I-0J1082D01*
G01X1996534Y1617957D02*
X1994534D01*
X1993451Y1619039D02*
G03X1994534Y1617957I1083J0D01*
G01X1993451Y1619039D02*
Y1621039D01*
X1993960Y1621958D02*
G03X1993451Y1621039I574J-919D01*
G01X1993960Y1621958D02*
G03X1993972Y1622784I-261J417D01*
G01X1993832Y1622896D02*
G03X1993972Y1622784I741J789D01*
G01X1993832Y1622896D02*
G03X1993158I-337J-359D01*
G01X1993043Y1622802D02*
G03X1993158Y1622896I-626J883D01*
G01X1993043Y1622802D02*
G03X1992850Y1622519I285J-402D01*
G01X1992461Y1621830D02*
G03X1992850Y1622519I-1044J1044D01*
G01X1992461Y1621830D02*
X1989036Y1618405D01*
X1987992Y1617972D02*
G03X1989036Y1618405I0J1477D01*
G01X1987992Y1617972D02*
X1986342D01*
G03X1985886Y1617665I-0J-492*
G01X1985354Y1617097D02*
G03X1985886Y1617665I-472J974D01*
G01X1985354Y1617097D02*
G03X1985416Y1616186I215J-443D01*
G01X1985490Y1616159D02*
G03X1985416Y1616186I-411J-1002D01*
G01X1985490Y1616159D02*
G03X1985677Y1616122I187J455D01*
G01X1986851*
G03X1987034Y1616157I0J492*
G01Y1611953D02*
G03Y1616157I840J2102D01*
G01Y1611953D02*
G03X1986851Y1611988I-183J-457D01*
G01X1986654*
G03X1986161Y1611496I-0J-492*
G01Y1606299*
X1985958Y1605668D02*
G03X1986161Y1606299I-879J631D01*
G01X1985958Y1605668D02*
G03X1985866Y1605381I400J-287D01*
G01Y1590536*
G03X1985917Y1590318I492J-0*
G01X1986161Y1589272D02*
G03X1985917Y1590318I-2362J-0D01*
G01X1986161Y1589272D02*
Y1586689D01*
X1986161D02*
G03X1986690Y1586198I493J-0D01*
G01X1986772Y1586201D02*
G03X1986690Y1586198I-0J-1083D01*
G01X1986772Y1586201D02*
X1994646D01*
X1995728Y1585118D02*
G03X1994646Y1586201I-1082J0D01*
G01X1995728Y1585118D02*
Y1581181D01*
X1994646Y1580098D02*
G03X1995728Y1581181I-0J1083D01*
G01X1994646Y1580098D02*
X1993268D01*
G03X1992776Y1579606I-0J-492*
G01Y1578307*
X1992170Y1576846D02*
G03X1992776Y1578307I-1461J1461D01*
G01X1992170Y1576846D02*
X1989690Y1574365D01*
X1988228Y1573760D02*
G03X1989690Y1574365I0J2067D01*
G01X1988228Y1573760D02*
X1978780D01*
X1975413*
X1973952Y1574365D02*
G03X1975413Y1573760I1461J1462D01*
G01X1973952Y1574365D02*
X1972338Y1575979D01*
X1971732Y1577441D02*
G03X1972338Y1575979I2067J-0D01*
G01X1971732Y1577441D02*
Y1581493D01*
G03X1970819Y1581748I-492J-0*
G01X1966437Y1582972D02*
G03X1970819Y1581748I2362J0D01*
G01X1966437Y1582972D02*
Y1589272D01*
X1970868Y1590412D02*
G03X1966437Y1589272I-2069J-1140D01*
G01X1970868Y1590412D02*
G03X1971730I431J237D01*
G01X1975868D02*
G03X1971730I-2069J-1140D01*
G01X1975868D02*
G03X1976730I431J237D01*
G01X1980819Y1590496D02*
G03X1976730Y1590412I-2020J-1224D01*
G01X1980819Y1590496D02*
G03X1981732Y1590751I421J255D01*
G01Y1602460*
G03X1980801Y1602681I-492J-0*
G01X1977123Y1605243D02*
G03X1980801Y1602681I1657J-1542D01*
G01X1977123Y1605243D02*
G03X1977114Y1605924I-360J336D01*
G01X1976730Y1606439D02*
G03X1977114Y1605924I2069J1140D01*
G01X1976730Y1606439D02*
G03X1975868I-431J-238D01*
G01X1971730D02*
G03X1975868I2069J1140D01*
G01X1971730D02*
G03X1970868I-431J-238D01*
G01X1966437Y1607579D02*
G03X1970868Y1606439I2362J-0D01*
G01X1966437Y1607579D02*
Y1613878D01*
X1970868Y1615018D02*
G03X1966437Y1613878I-2069J-1140D01*
G01X1970868Y1615018D02*
G03X1971730I431J237D01*
G01X1975868D02*
G03X1971730I-2069J-1140D01*
G01X1975868D02*
G03X1976730I431J237D01*
G01X1980643Y1615354D02*
G03X1976730Y1615018I-1844J-1476D01*
G01X1980643Y1615354D02*
G03X1981494Y1615504I385J308D01*
G01X1981949Y1616078D02*
G03X1981494Y1615504I571J-921D01*
G01X1981949Y1616078D02*
G03X1981690Y1616988I-259J418D01*
G01X1980945*
X1979862Y1618071D02*
G03X1980945Y1616988I1083J-0D01*
G01X1979862Y1618071D02*
Y1620827D01*
X1980945Y1621909D02*
G03X1979862Y1620827I-0J-1082D01*
G01X1980945Y1621909D02*
X1984882D01*
X1985886Y1621233D02*
G03X1984882Y1621909I-1004J-406D01*
G01X1985886Y1621233D02*
G03X1986342Y1620925I456J184D01*
G01X1987177*
G03X1987525Y1621069I-0J492*
G01X1988218Y1621762*
G03X1987870Y1622602I-348J348*
G01X1986817*
X1985735Y1623666D02*
G03X1986817Y1622602I1082J19D01*
G01X1985735Y1623666D02*
G03X1985591Y1624006I-492J-8D01*
G01X1985325Y1624272*
G03X1985171Y1624376I-348J-348*
G01X1984584Y1624743D02*
G03X1985171Y1624376I1479J1714D01*
G01X1984584Y1624743D02*
G03X1984263Y1624862I-321J-373D01*
G01X1980945*
X1979862Y1625945D02*
G03X1980945Y1624862I1083J-0D01*
G01X1979862Y1625945D02*
Y1628701D01*
X1979936Y1629095D02*
G03X1979862Y1628701I1009J-394D01*
G01X1979936Y1629095D02*
G03X1979826Y1629622I-458J179D01*
G01X1978682Y1630765*
G03X1978334Y1630909I-348J-348*
G01X1977543*
X1976993Y1631060D02*
G03X1977543Y1630909I550J932D01*
G01X1976993Y1631060D02*
G03X1976493I-250J-424D01*
G01X1975943Y1630909D02*
G03X1976493Y1631060I0J1083D01*
G01X1975943Y1630909D02*
X1975433D01*
G03X1974941Y1630417I0J-492*
G01Y1626339*
G03X1975433Y1625846I492J-0*
G01X1976516Y1624764D02*
G03X1975433Y1625846I-1083J-0D01*
G01X1976516Y1624764D02*
Y1622008D01*
X1975433Y1620925D02*
G03X1976516Y1622008I0J1083D01*
G01X1975433Y1620925D02*
X1971496D01*
X1970413Y1622008D02*
G03X1971496Y1620925I1083J-0D01*
G01X1970413Y1622008D02*
Y1624764D01*
X1971496Y1625846D02*
G03X1970413Y1624764I0J-1082D01*
G01X1971496Y1625846D02*
G03X1971988Y1626339I0J493D01*
G01Y1631513*
X1972421Y1632557D02*
G03X1971988Y1631513I1044J-1044D01*
G01X1972421Y1632557D02*
X1972716Y1632853D01*
G03X1972861Y1633201I-348J348*
G01Y1633992*
X1973192Y1634772D02*
G03X1972861Y1633992I751J-780D01*
G01X1973192Y1634772D02*
G03X1973198Y1635476I-341J355D01*
G01X1972878Y1636244D02*
G03X1973198Y1635476I1083J0D01*
G01X1972878Y1636244D02*
Y1638244D01*
X1973961Y1639327D02*
G03X1972878Y1638244I-0J-1083D01*
G01X1973961Y1639327D02*
X1975961D01*
X1976511Y1639177D02*
G03X1975961Y1639327I-550J-933D01*
G01X1976511Y1639177D02*
G03X1977011I250J424D01*
G01X1977561Y1639327D02*
G03X1977011Y1639177I-0J-1083D01*
G01X1977561Y1639327D02*
X1979561D01*
X1980643Y1638244D02*
G03X1979561Y1639327I-1082J0D01*
G01X1980643Y1638244D02*
Y1636244D01*
X1980312Y1635464D02*
G03X1980643Y1636244I-751J780D01*
G01X1980312Y1635464D02*
G03X1980306Y1634760I341J-354D01*
G01X1980626Y1633992D02*
G03X1980306Y1634760I-1083J0D01*
G01X1980626Y1633992D02*
Y1633201D01*
G03X1980770Y1632853I492J0*
G01X1981806Y1631817*
G03X1982154Y1631673I348J348*
G01X1983268*
G03X1983760Y1632165I-0J492*
G01Y1643110*
X1984843Y1644193D02*
G03X1983760Y1643110I-0J-1083D01*
G01X1984843Y1644193D02*
X1990355D01*
X1990794Y1644100D02*
G03X1990355Y1644193I-439J-990D01*
G01X1990794Y1644100D02*
G03X1991471Y1644430I200J449D01*
G01X1991949Y1644803D02*
G03X1991471Y1644430I-0J-492D01*
G01X1991949Y1644803D02*
X2014350D01*
X2014828Y1644430D02*
G03X2014350Y1644803I-478J-119D01*
G01X2014828Y1644430D02*
G03X2015505Y1644100I477J119D01*
G01X2015945Y1644193D02*
G03X2015505Y1644100I-0J-1083D01*
G01X2015945Y1644193D02*
X2021457D01*
X2022539Y1643110D02*
G03X2021457Y1644193I-1082J0D01*
G01X2022539Y1643110D02*
Y1631693D01*
X2021457Y1630610D02*
G03X2022539Y1631693I-0J1083D01*
G01X2021457Y1630610D02*
X2015945D01*
X2015525Y1630695D02*
G03X2015945Y1630610I420J998D01*
G01X2015525Y1630695D02*
G03X2014843Y1630241I-190J-454D01*
G01Y1630138*
X2014518Y1629675D02*
G03X2014843Y1630138I-168J463D01*
G01X2014518Y1629675D02*
G03X2014686Y1628720I168J-462D01*
G01X2024756*
G03X2025238Y1629114I0J493*
G01X2026299Y1629980D02*
G03X2025238Y1629114I0J-1082D01*
G01X2026299Y1629980D02*
X2030236D01*
X2031319Y1628898D02*
G03X2030236Y1629980I-1083J-0D01*
G01X2031319Y1628898D02*
Y1624567D01*
X2030952Y1623755D02*
G03X2031319Y1624567I-716J812D01*
G01X2030952Y1623755D02*
G03Y1623017I326J-369D01*
G01X2031319Y1622205D02*
G03X2030952Y1623017I-1083J-0D01*
G01X2031319Y1622205D02*
Y1617874D01*
X2031272Y1617558D02*
G03X2031319Y1617874I-1036J316D01*
G01X2031272Y1617558D02*
G03X2031653Y1616931I471J-143D01*
G01X2032539Y1615866D02*
G03X2031653Y1616931I-1082J0D01*
G01X2032539Y1615866D02*
Y1610583D01*
Y1610579*
X2032540Y1610551D02*
G03X2032539Y1610579I-4233J0D01*
G01X2022052Y1644014D02*
X2038287D01*
X2022539Y1643129D02*
X2038287D01*
X2022539Y1642243D02*
X2038287D01*
X2022539Y1641357D02*
X2038287D01*
X2022539Y1640471D02*
X2038287D01*
X2022539Y1639585D02*
X2038287D01*
X2022539Y1638699D02*
X2038287D01*
X2022539Y1637814D02*
X2038287D01*
X2022539Y1636928D02*
X2038287D01*
X2022539Y1636042D02*
X2038287D01*
X2022539Y1635156D02*
X2038287D01*
X2022539Y1634270D02*
X2038287D01*
X2022539Y1633385D02*
X2038287D01*
X2022539Y1632499D02*
X2038287D01*
X2022536Y1631613D02*
X2038287D01*
X2021945Y1630727D02*
X2038287D01*
X2030767Y1629841D02*
X2038287D01*
X2031317Y1628955D02*
X2038287D01*
X2031319Y1628070D02*
X2038287D01*
X2031319Y1627184D02*
X2038287D01*
X2031319Y1626298D02*
X2038287D01*
X2031319Y1625412D02*
X2038287D01*
X2031318Y1624526D02*
X2038287D01*
X2030857Y1623640D02*
X2038287D01*
X2031169Y1622755D02*
X2038287D01*
X2031319Y1621869D02*
X2038287D01*
X2031319Y1620983D02*
X2038287D01*
X2031319Y1620097D02*
X2038287D01*
X2031319Y1619211D02*
X2038287D01*
X2031319Y1618325D02*
X2038287D01*
X2031251Y1617440D02*
X2038287D01*
X2032293Y1616554D02*
X2038287D01*
X2032539Y1615668D02*
X2038287D01*
X2032539Y1614782D02*
X2038287D01*
X2032539Y1613896D02*
X2038287D01*
X2032539Y1613010D02*
X2038287D01*
X2032539Y1612125D02*
X2038287D01*
X2032539Y1611239D02*
X2038287D01*
X2032540Y1610353D02*
X2038287D01*
X2032540Y1609467D02*
X2038287D01*
X2032540Y1608581D02*
X2038287D01*
X2032540Y1607696D02*
X2038287D01*
X2032540Y1606810D02*
X2038287D01*
X2032540Y1605924D02*
X2038287D01*
X2032540Y1605038D02*
X2038287D01*
X2032540Y1604152D02*
X2038287D01*
X2032540Y1603266D02*
X2038287D01*
X2032540Y1602381D02*
X2038287D01*
X2032540Y1601495D02*
X2038287D01*
X2032540Y1600609D02*
X2038287D01*
X2032540Y1599723D02*
X2038287D01*
X2032540Y1598837D02*
X2038287D01*
X2032540Y1597951D02*
X2038287D01*
X2032540Y1597066D02*
X2038287D01*
X2032540Y1596180D02*
X2038287D01*
X2032540Y1595294D02*
X2038287D01*
X2032540Y1594408D02*
X2038287D01*
X2032540Y1593522D02*
X2038287D01*
X2032540Y1592636D02*
X2038287D01*
X2032540Y1591751D02*
X2038287D01*
X2032540Y1590865D02*
X2038287D01*
X2032540Y1589979D02*
X2038287D01*
X2032540Y1589093D02*
X2038287D01*
X2032523Y1588207D02*
X2038287D01*
X2032347Y1587322D02*
X2038287D01*
X2031955Y1586436D02*
X2038287D01*
X2031260Y1585550D02*
X2038287D01*
X2030768Y1584664D02*
X2038287D01*
X2030768Y1583778D02*
X2038287D01*
X2030768Y1582892D02*
X2038287D01*
X2030768Y1582007D02*
X2038287D01*
X2030768Y1581121D02*
X2038287D01*
X2030768Y1580235D02*
X2038287D01*
X2030768Y1579349D02*
X2038287D01*
X2030768Y1578463D02*
X2038287D01*
X2030768Y1577577D02*
X2038287D01*
X2030768Y1576692D02*
X2038287D01*
X2030768Y1575806D02*
X2038287D01*
X2030768Y1574920D02*
X2038287D01*
X2030768Y1574034D02*
X2038287D01*
X2030768Y1573148D02*
X2038287D01*
X2030768Y1572262D02*
X2038287D01*
X2030768Y1571377D02*
X2038287D01*
X2030768Y1570491D02*
X2038287D01*
X2030768Y1569605D02*
X2038287D01*
X2030768Y1568719D02*
X2038287D01*
X2030768Y1567833D02*
X2038287D01*
X2030768Y1566948D02*
X2038287D01*
X2030768Y1566062D02*
X2038287D01*
X2030768Y1565176D02*
X2038287D01*
X2030768Y1564290D02*
X2038287D01*
X2030768Y1563404D02*
X2038287D01*
X2030768Y1562518D02*
X2038287D01*
X2030550Y1561633D02*
X2038287D01*
X1961713Y1560747D02*
X2038287D01*
X1961713Y1559861D02*
X2038287D01*
X1961713Y1558975D02*
X2038287D01*
X1961713Y1558089D02*
X2038287D01*
X1961713Y1557203D02*
X2038287D01*
X1961713Y1556318D02*
X2038287D01*
X1961714Y1555432D02*
X2038286D01*
X1961743Y1644900D02*
X2038257D01*
X1961881Y1554546D02*
X2038119D01*
X1962025Y1645786D02*
X2037975D01*
X1962395Y1553660D02*
X2037605D01*
X1962729Y1646672D02*
X2037271D01*
X1963759Y1552774D02*
X2036241D01*
X2014743Y1629841D02*
X2025768D01*
X2005879Y1623640D02*
X2025679D01*
X2006098Y1622755D02*
X2025367D01*
X2008971Y1617440D02*
X2025288D01*
X2009517Y1621869D02*
X2025217D01*
X2009547Y1620983D02*
X2025217D01*
X2009547Y1620097D02*
X2025217D01*
X2009547Y1619211D02*
X2025217D01*
X2009538Y1618325D02*
X2025217D01*
X2014267Y1628955D02*
X2025176D01*
X2006043Y1624526D02*
X2025033D01*
X2021269Y1616554D02*
X2024321D01*
X2021515Y1615668D02*
X2024075D01*
X2021515Y1614782D02*
X2024075D01*
X2021515Y1613896D02*
X2024075D01*
X2021515Y1613010D02*
X2024075D01*
X2021515Y1612125D02*
X2024075D01*
X2021515Y1611239D02*
X2024075D01*
X2021515Y1610353D02*
X2024075D01*
X2021515Y1609467D02*
X2024075D01*
X2021515Y1608581D02*
X2024075D01*
X2021515Y1607696D02*
X2024075D01*
X2021515Y1606810D02*
X2024075D01*
X2021515Y1605924D02*
X2024075D01*
X2021497Y1605038D02*
X2024075D01*
X2021358Y1604152D02*
X2024075D01*
X2021515Y1603266D02*
X2024075D01*
X2021515Y1602381D02*
X2024075D01*
X2021515Y1601495D02*
X2024075D01*
X2021515Y1600609D02*
X2024075D01*
X2021515Y1599723D02*
X2024075D01*
X2021515Y1598837D02*
X2024075D01*
X2021515Y1597951D02*
X2024075D01*
X2021515Y1597066D02*
X2024075D01*
X2021515Y1596180D02*
X2024075D01*
X2021515Y1595294D02*
X2024075D01*
X2021515Y1594408D02*
X2024075D01*
X2021515Y1593522D02*
X2024075D01*
X2021468Y1592636D02*
X2024075D01*
X1985866Y1591751D02*
X2024075D01*
X1985866Y1590865D02*
X2024075D01*
X1986053Y1589979D02*
X2023718D01*
X1986161Y1589093D02*
X2022832D01*
X1986161Y1588207D02*
X2021946D01*
X1986161Y1587322D02*
X2021061D01*
X2015256Y1630727D02*
X2015413D01*
X2008873Y1616554D02*
X2013297D01*
X1985866Y1592636D02*
X2013098D01*
X2010916Y1615668D02*
X2013051D01*
X2010958Y1614782D02*
X2013051D01*
X2010958Y1613896D02*
X2013051D01*
X2010897Y1613010D02*
X2013051D01*
X2007448Y1612125D02*
X2013051D01*
X2007323Y1611239D02*
X2013051D01*
X2007323Y1610353D02*
X2013051D01*
X2007323Y1609467D02*
X2013051D01*
X2007323Y1608581D02*
X2013051D01*
X2007595Y1607696D02*
X2013051D01*
X2008481Y1606810D02*
X2013051D01*
X2009367Y1605924D02*
X2013051D01*
X1985866Y1597066D02*
X2013051D01*
X1985866Y1596180D02*
X2013051D01*
X1985866Y1595294D02*
X2013051D01*
X1985866Y1594408D02*
X2013051D01*
X1985866Y1593522D02*
X2013051D01*
X1985866Y1597951D02*
X2012921D01*
X2010455Y1605038D02*
X2012611D01*
X2006177Y1625412D02*
X2009421D01*
X2007836Y1626298D02*
X2008536D01*
X1961713Y1561633D02*
X2007560D01*
X1986231Y1586436D02*
X2007481D01*
X1995639Y1585550D02*
X2007342D01*
X1995728Y1584664D02*
X2007342D01*
X1995728Y1583778D02*
X2007342D01*
X1995728Y1582892D02*
X2007342D01*
X1995728Y1582007D02*
X2007342D01*
X1995727Y1581121D02*
X2007342D01*
X1995172Y1580235D02*
X2007342D01*
X1992776Y1579349D02*
X2007342D01*
X1992776Y1578463D02*
X2007342D01*
X1992643Y1577577D02*
X2007342D01*
X1992016Y1576692D02*
X2007342D01*
X1991130Y1575806D02*
X2007342D01*
X1990245Y1574920D02*
X2007342D01*
X1989257Y1574034D02*
X2007342D01*
X1961713Y1573148D02*
X2007342D01*
X1961713Y1572262D02*
X2007342D01*
X1961713Y1571377D02*
X2007342D01*
X1961713Y1570491D02*
X2007342D01*
X1961713Y1569605D02*
X2007342D01*
X1961713Y1568719D02*
X2007342D01*
X1961713Y1567833D02*
X2007342D01*
X1961713Y1566948D02*
X2007342D01*
X1961713Y1566062D02*
X2007342D01*
X1961713Y1565176D02*
X2007342D01*
X1961713Y1564290D02*
X2007342D01*
X1961713Y1563404D02*
X2007342D01*
X1961713Y1562518D02*
X2007342D01*
X1985866Y1598837D02*
X2005929D01*
X1985866Y1599723D02*
X2005036D01*
X1985866Y1600609D02*
X2004560D01*
X1985866Y1601495D02*
X2004329D01*
X1985866Y1602381D02*
X2003510D01*
X1985866Y1603266D02*
X2002135D01*
X1985866Y1604152D02*
X2000541D01*
X1989463Y1615668D02*
X1999892D01*
X1990018Y1614782D02*
X1999892D01*
X1990132Y1613896D02*
X1999892D01*
X1989882Y1613010D02*
X1999892D01*
X1989056Y1612125D02*
X1999892D01*
X1986161Y1611239D02*
X1999892D01*
X1986161Y1610353D02*
X1999892D01*
X1986161Y1609467D02*
X1999892D01*
X1985866Y1605038D02*
X1999832D01*
X1986161Y1608581D02*
X1999666D01*
X1985087Y1616554D02*
X1999664D01*
X1986094Y1605924D02*
X1999456D01*
X1986161Y1607696D02*
X1999380D01*
X1986161Y1606810D02*
X1999314D01*
X1985762Y1617440D02*
X1998133D01*
X1992987Y1622755D02*
X1994012D01*
X1992499Y1621869D02*
X1993838D01*
X1988950Y1618325D02*
X1993720D01*
X1991614Y1620983D02*
X1993451D01*
X1990728Y1620097D02*
X1993451D01*
X1989843Y1619211D02*
X1993451D01*
X1985176Y1621869D02*
X1988298D01*
X1986111Y1620983D02*
X1987408D01*
X1976516Y1622755D02*
X1986264D01*
X1976516Y1623640D02*
X1985736D01*
X1976516Y1624526D02*
X1984881D01*
X1961713Y1644014D02*
X1984247D01*
X1961713Y1643129D02*
X1983760D01*
X1961713Y1642243D02*
X1983760D01*
X1961713Y1641357D02*
X1983760D01*
X1961713Y1640471D02*
X1983760D01*
X1961713Y1639585D02*
X1983760D01*
X1980543Y1638699D02*
X1983760D01*
X1980643Y1637814D02*
X1983760D01*
X1980643Y1636928D02*
X1983760D01*
X1980624Y1636042D02*
X1983760D01*
X1980163Y1635156D02*
X1983760D01*
X1980590Y1634270D02*
X1983760D01*
X1980626Y1633385D02*
X1983760D01*
X1981125Y1632499D02*
X1983760D01*
X1961713Y1616554D02*
X1982179D01*
X1980619Y1602381D02*
X1981732D01*
X1979288Y1601495D02*
X1981732D01*
X1961713Y1600609D02*
X1981732D01*
X1961713Y1599723D02*
X1981732D01*
X1961713Y1598837D02*
X1981732D01*
X1961713Y1597951D02*
X1981732D01*
X1961713Y1597066D02*
X1981732D01*
X1961713Y1596180D02*
X1981732D01*
X1961713Y1595294D02*
X1981732D01*
X1961713Y1594408D02*
X1981732D01*
X1961713Y1593522D02*
X1981732D01*
X1961713Y1592636D02*
X1981732D01*
X1961713Y1591751D02*
X1981732D01*
X1980543Y1590865D02*
X1981732D01*
X1980341Y1615668D02*
X1981565D01*
X1976507Y1621869D02*
X1980651D01*
X1961713Y1617440D02*
X1980065D01*
X1976300Y1625412D02*
X1980002D01*
X1974941Y1628955D02*
X1979893D01*
X1975782Y1620983D02*
X1979874D01*
X1974941Y1628070D02*
X1979862D01*
X1974941Y1627184D02*
X1979862D01*
X1974943Y1626298D02*
X1979862D01*
X1961713Y1620097D02*
X1979862D01*
X1961713Y1619211D02*
X1979862D01*
X1961713Y1618325D02*
X1979862D01*
X1974941Y1629841D02*
X1979606D01*
X1975051Y1630727D02*
X1978720D01*
X1961713Y1601495D02*
X1978271D01*
X1975341Y1615668D02*
X1977258D01*
X1975485Y1605924D02*
X1977114D01*
X1975543Y1590865D02*
X1977055D01*
X1961713Y1605038D02*
X1976953D01*
X1961713Y1602381D02*
X1976941D01*
X1961713Y1604152D02*
X1976561D01*
X1961713Y1603266D02*
X1976558D01*
X1976164Y1614782D02*
X1976434D01*
X1961713Y1574034D02*
X1974384D01*
X1961713Y1574920D02*
X1973397D01*
X1961713Y1635156D02*
X1973342D01*
X1961713Y1638699D02*
X1972978D01*
X1961713Y1634270D02*
X1972897D01*
X1961713Y1636042D02*
X1972897D01*
X1961713Y1637814D02*
X1972878D01*
X1961713Y1636928D02*
X1972878D01*
X1961713Y1633385D02*
X1972861D01*
X1961713Y1575806D02*
X1972511D01*
X1961713Y1632499D02*
X1972365D01*
X1970341Y1615668D02*
X1972258D01*
X1970485Y1605924D02*
X1972114D01*
X1970543Y1590865D02*
X1972055D01*
X1961713Y1631613D02*
X1971992D01*
X1961713Y1630727D02*
X1971988D01*
X1961713Y1629841D02*
X1971988D01*
X1961713Y1628955D02*
X1971988D01*
X1961713Y1628070D02*
X1971988D01*
X1961713Y1627184D02*
X1971988D01*
X1961713Y1626298D02*
X1971986D01*
X1961713Y1576692D02*
X1971873D01*
X1970266Y1581121D02*
X1971732D01*
X1961713Y1580235D02*
X1971732D01*
X1961713Y1579349D02*
X1971732D01*
X1961713Y1578463D02*
X1971732D01*
X1961713Y1577577D02*
X1971732D01*
X1971164Y1614782D02*
X1971434D01*
X1961713Y1620983D02*
X1971147D01*
X1961713Y1625412D02*
X1970629D01*
X1961713Y1621869D02*
X1970422D01*
X1961713Y1624526D02*
X1970413D01*
X1961713Y1623640D02*
X1970413D01*
X1961713Y1622755D02*
X1970413D01*
X1961713Y1581121D02*
X1967332D01*
X1961713Y1615668D02*
X1967258D01*
X1961713Y1605924D02*
X1967114D01*
X1961713Y1590865D02*
X1967055D01*
X1961713Y1582007D02*
X1966643D01*
X1961713Y1614782D02*
X1966617D01*
X1961713Y1606810D02*
X1966566D01*
X1961713Y1589979D02*
X1966545D01*
X1961713Y1582892D02*
X1966438D01*
X1961713Y1613896D02*
X1966437D01*
X1961713Y1613010D02*
X1966437D01*
X1961713Y1612125D02*
X1966437D01*
X1961713Y1611239D02*
X1966437D01*
X1961713Y1610353D02*
X1966437D01*
X1961713Y1609467D02*
X1966437D01*
X1961713Y1608581D02*
X1966437D01*
X1961713Y1607696D02*
X1966437D01*
X1961713Y1589093D02*
X1966437D01*
X1961713Y1588207D02*
X1966437D01*
X1961713Y1587322D02*
X1966437D01*
X1961713Y1586436D02*
X1966437D01*
X1961713Y1585550D02*
X1966437D01*
X1961713Y1584664D02*
X1966437D01*
X1961713Y1583778D02*
X1966437D01*
G74*
X0Y0D02*
M02*
