*
*
G04 PADS 9.5 Build Number: 522968 generated Gerber (RS-274-X) file*
G04 PC Version=2.1*
*
%IN "TX_3V0.pcb"*%
*
%MOIN*%
*
%FSLAX35Y35*%
*
*
*
*
G04 PC Standard Apertures*
*
*
G04 Thermal Relief Aperture macro.*
%AMTER*
1,1,$1,0,0*
1,0,$1-$2,0,0*
21,0,$3,$4,0,0,45*
21,0,$3,$4,0,0,135*
%
*
*
G04 Annular Aperture macro.*
%AMANN*
1,1,$1,0,0*
1,0,$2,0,0*
%
*
*
G04 Odd Aperture macro.*
%AMODD*
1,1,$1,0,0*
1,0,$1-0.005,0,0*
%
*
*
G04 PC Custom Aperture Macros*
*
*
*
*
*
*
G04 PC Aperture Table*
*
%ADD010C,0.001*%
%ADD011C,0.01*%
%ADD034C,0.00591*%
*
*
*
*
G04 PC Circuitry*
G04 Layer Name TX_3V0.pcb - circuitry*
%LPD*%
*
*
G04 PC Custom Flashes*
G04 Layer Name TX_3V0.pcb - flashes*
%LPD*%
*
*
G04 PC Circuitry*
G04 Layer Name TX_3V0.pcb - circuitry*
%LPD*%
*
G54D10*
G54D11*
G01X1824360Y1526356D02*
X1832360Y1534356D01*
X1824360D02*
X1832360Y1526356D01*
X1834360D02*
X1842360Y1534356D01*
X1834360D02*
X1842360Y1526356D01*
X1829360Y1521356D02*
X1837360Y1529356D01*
X1829360D02*
X1837360Y1521356D01*
X1829360Y1531356D02*
X1837360Y1539356D01*
X1829360D02*
X1837360Y1531356D01*
X1799085Y1483033D02*
X1807085D01*
X1803085Y1479033D02*
Y1487033D01*
X1790502Y1486341D02*
X1798502D01*
X1794502Y1482341D02*
Y1490341D01*
X1809754Y1483112D02*
X1817754D01*
X1813754Y1479112D02*
Y1487112D01*
X1817904Y1483230D02*
X1825904D01*
X1821904Y1479230D02*
Y1487230D01*
X1810148Y1493427D02*
X1818148D01*
X1814148Y1489427D02*
Y1497427D01*
X1829675Y1483112D02*
X1837675D01*
X1833675Y1479112D02*
Y1487112D01*
X1840738Y1483467D02*
X1848738D01*
X1844738Y1479467D02*
Y1487467D01*
X1861998Y1497679D02*
X1869998D01*
X1865998Y1493679D02*
Y1501679D01*
X1847628Y1483467D02*
X1855628D01*
X1851628Y1479467D02*
Y1487467D01*
X1855305Y1483585D02*
X1863305D01*
X1859305Y1479585D02*
Y1487585D01*
X1862077Y1486695D02*
X1870077D01*
X1866077Y1482695D02*
Y1490695D01*
X1790344Y1498152D02*
X1798344D01*
X1794344Y1494152D02*
Y1502152D01*
X1790620Y1509726D02*
X1798620D01*
X1794620Y1505726D02*
Y1513726D01*
X1862077Y1509726D02*
X1870077D01*
X1866077Y1505726D02*
Y1513726D01*
X1790148Y1530356D02*
X1798148D01*
X1794148Y1526356D02*
Y1534356D01*
X1790030Y1519254D02*
X1798030D01*
X1794030Y1515254D02*
Y1523254D01*
X1804990Y1532089D02*
X1812990D01*
X1808990Y1528089D02*
Y1536089D01*
X1795030Y1521852D02*
X1803030D01*
X1799030Y1517852D02*
Y1525852D01*
X1795030Y1532797D02*
X1803030D01*
X1799030Y1528797D02*
Y1536797D01*
X1862195Y1518939D02*
X1870195D01*
X1866195Y1514939D02*
Y1522939D01*
X1862077Y1530474D02*
X1870077D01*
X1866077Y1526474D02*
Y1534474D01*
X1790699Y1557994D02*
X1798699D01*
X1794699Y1553994D02*
Y1561994D01*
X1790502Y1545474D02*
X1798502D01*
X1794502Y1541474D02*
Y1549474D01*
X1814085Y1542443D02*
X1822085D01*
X1818085Y1538443D02*
Y1546443D01*
X1812274Y1554844D02*
X1820274D01*
X1816274Y1550844D02*
Y1558844D01*
X1832313Y1556144D02*
X1840313D01*
X1836313Y1552144D02*
Y1560144D01*
X1829990Y1552876D02*
X1837990D01*
X1833990Y1548876D02*
Y1556876D01*
X1837392Y1542758D02*
X1845392D01*
X1841392Y1538758D02*
Y1546758D01*
X1861880Y1557955D02*
X1869880D01*
X1865880Y1553955D02*
Y1561955D01*
X1862077Y1538388D02*
X1870077D01*
X1866077Y1534388D02*
Y1542388D01*
X1861959Y1546656D02*
X1869959D01*
X1865959Y1542656D02*
Y1550656D01*
X1849203Y1548427D02*
X1857203D01*
X1853203Y1544427D02*
Y1552427D01*
X1790541Y1568191D02*
X1798541D01*
X1794541Y1564191D02*
Y1572191D01*
X1799321Y1573506D02*
X1807321D01*
X1803321Y1569506D02*
Y1577506D01*
X1798140Y1565632D02*
X1806140D01*
X1802140Y1561632D02*
Y1569632D01*
X1808494Y1573624D02*
X1816494D01*
X1812494Y1569624D02*
Y1577624D01*
X1826407Y1574608D02*
X1834407D01*
X1830407Y1570608D02*
Y1578608D01*
X1822470Y1574608D02*
X1830470D01*
X1826470Y1570608D02*
Y1578608D01*
X1834281Y1574608D02*
X1842281D01*
X1838281Y1570608D02*
Y1578608D01*
X1830344Y1574608D02*
X1838344D01*
X1834344Y1570608D02*
Y1578608D01*
X1838219Y1574608D02*
X1846219D01*
X1842219Y1570608D02*
Y1578608D01*
X1856447Y1573978D02*
X1864447D01*
X1860447Y1569978D02*
Y1577978D01*
X1849675Y1573860D02*
X1857675D01*
X1853675Y1569860D02*
Y1577860D01*
X1861959Y1569490D02*
X1869959D01*
X1865959Y1565490D02*
Y1573490D01*
X1951470Y1720467D02*
X2209470D01*
X1951470Y1696467D02*
X2209470D01*
X1951470Y1672467D02*
X2209470D01*
X1951470Y1648467D02*
X2209470D01*
X1951470Y1720467D02*
Y1648467D01*
X2035470Y1720467D02*
Y1648467D01*
X2071470Y1720467D02*
Y1648467D01*
X2107470Y1720467D02*
Y1648467D01*
X2161470Y1720467D02*
Y1648467D01*
X2209470Y1720467D02*
Y1648467D01*
X1986970Y1709217D02*
X1986425Y1709967D01*
X1985607Y1710342*
X1984516*
X1983698Y1709967*
X1983152Y1709217*
Y1708467*
X1983425Y1707717*
X1983698Y1707342*
X1984243Y1706967*
X1985880Y1706217*
X1986425Y1705842*
X1986698Y1705467*
X1986970Y1704717*
Y1703592*
X1986425Y1702842*
X1985607Y1702467*
X1984516*
X1983698Y1702842*
X1983152Y1703592*
X1989425Y1710342D02*
Y1702467D01*
X1995698Y1710342D02*
X1991880Y1702467D01*
Y1710342D02*
X1995698D01*
X1991880Y1702467D02*
X1995698D01*
X1998152Y1710342D02*
Y1702467D01*
Y1710342D02*
X2001698D01*
X1998152Y1706592D02*
X2000334D01*
X1998152Y1702467D02*
X2001698D01*
X2045334Y1710342D02*
X2044789Y1709967D01*
X2044243Y1709217*
X2043970Y1708467*
X2043698Y1707342*
Y1705467*
X2043970Y1704342*
X2044243Y1703592*
X2044789Y1702842*
X2045334Y1702467*
X2046425*
X2046970Y1702842*
X2047516Y1703592*
X2047789Y1704342*
X2048061Y1705467*
Y1707342*
X2047789Y1708467*
X2047516Y1709217*
X2046970Y1709967*
X2046425Y1710342*
X2045334*
X2046152Y1703967D02*
X2047789Y1701717D01*
X2052425Y1710342D02*
Y1702467D01*
X2050516Y1710342D02*
X2054334D01*
X2056789D02*
X2058970Y1706592D01*
Y1702467*
X2061152Y1710342D02*
X2058970Y1706592D01*
X2083516Y1709217D02*
X2082970Y1709967D01*
X2082152Y1710342*
X2081061*
X2080243Y1709967*
X2079698Y1709217*
Y1708467*
X2079970Y1707717*
X2080243Y1707342*
X2080789Y1706967*
X2082425Y1706217*
X2082970Y1705842*
X2083243Y1705467*
X2083516Y1704717*
Y1703592*
X2082970Y1702842*
X2082152Y1702467*
X2081061*
X2080243Y1702842*
X2079698Y1703592*
X2085970Y1710342D02*
X2088152Y1706592D01*
Y1702467*
X2090334Y1710342D02*
X2088152Y1706592D01*
X2092789Y1710342D02*
Y1702467D01*
Y1710342D02*
X2094970Y1702467D01*
X2097152Y1710342D02*
X2094970Y1702467D01*
X2097152Y1710342D02*
Y1702467D01*
X2118970Y1710342D02*
Y1702467D01*
Y1710342D02*
X2121425D01*
X2122243Y1709967*
X2122516Y1709592*
X2122789Y1708842*
Y1707717*
X2122516Y1706967*
X2122243Y1706592*
X2121425Y1706217*
X2118970*
X2125243Y1710342D02*
Y1702467D01*
X2128516*
X2133152Y1710342D02*
X2130970Y1702467D01*
X2133152Y1710342D02*
X2135334Y1702467D01*
X2131789Y1705092D02*
X2134516D01*
X2139698Y1710342D02*
Y1702467D01*
X2137789Y1710342D02*
X2141607D01*
X2144061D02*
Y1702467D01*
Y1710342D02*
X2147607D01*
X2144061Y1706592D02*
X2146243D01*
X2144061Y1702467D02*
X2147607D01*
X2150061Y1710342D02*
Y1702467D01*
Y1710342D02*
X2151970D01*
X2152789Y1709967*
X2153334Y1709217*
X2153607Y1708467*
X2153880Y1707342*
Y1705467*
X2153607Y1704342*
X2153334Y1703592*
X2152789Y1702842*
X2151970Y1702467*
X2150061*
X2178152Y1710342D02*
Y1702467D01*
X2176243Y1710342D02*
X2180061D01*
X2184152D02*
X2183607Y1709967D01*
X2183061Y1709217*
X2182789Y1708467*
X2182516Y1707342*
Y1705467*
X2182789Y1704342*
X2183061Y1703592*
X2183607Y1702842*
X2184152Y1702467*
X2185243*
X2185789Y1702842*
X2186334Y1703592*
X2186607Y1704342*
X2186880Y1705467*
Y1707342*
X2186607Y1708467*
X2186334Y1709217*
X2185789Y1709967*
X2185243Y1710342*
X2184152*
X2189334D02*
Y1702467D01*
X2192607*
X1959107Y1686342D02*
X1958289Y1685967D01*
X1957743Y1684842*
X1957470Y1682967*
Y1681842*
X1957743Y1679967*
X1958289Y1678842*
X1959107Y1678467*
X1959652*
X1960470Y1678842*
X1961016Y1679967*
X1961289Y1681842*
Y1682967*
X1961016Y1684842*
X1960470Y1685967*
X1959652Y1686342*
X1959107*
X1964016Y1679217D02*
X1963743Y1678842D01*
X1964016Y1678467*
X1964289Y1678842*
X1964016Y1679217*
X1967289Y1686342D02*
X1970289D01*
X1968652Y1683342*
X1969470*
X1970016Y1682967*
X1970289Y1682592*
X1970561Y1681467*
Y1680717*
X1970289Y1679592*
X1969743Y1678842*
X1968925Y1678467*
X1968107*
X1967289Y1678842*
X1967016Y1679217*
X1966743Y1679967*
X2049834Y1686342D02*
X2047107Y1681092D01*
X2051198*
X2049834Y1686342D02*
Y1678467D01*
X2056380Y1686342D02*
X2053652Y1681092D01*
X2057743*
X2056380Y1686342D02*
Y1678467D01*
X2083470Y1684467D02*
X2095470D01*
X2089470Y1678467D02*
Y1690467D01*
X2116107Y1686342D02*
X2118289Y1682592D01*
Y1678467*
X2120470Y1686342D02*
X2118289Y1682592D01*
X2122925Y1686342D02*
Y1678467D01*
Y1686342D02*
X2126470D01*
X2122925Y1682592D02*
X2125107D01*
X2122925Y1678467D02*
X2126470D01*
X2132743Y1685217D02*
X2132198Y1685967D01*
X2131380Y1686342*
X2130289*
X2129470Y1685967*
X2128925Y1685217*
Y1684467*
X2129198Y1683717*
X2129470Y1683342*
X2130016Y1682967*
X2131652Y1682217*
X2132198Y1681842*
X2132470Y1681467*
X2132743Y1680717*
Y1679592*
X2132198Y1678842*
X2131380Y1678467*
X2130289*
X2129470Y1678842*
X2128925Y1679592*
X2169289Y1685217D02*
Y1678467D01*
X2166834Y1681842D02*
X2171743D01*
X2179107Y1687842D02*
X2174198Y1675842D01*
X2181561Y1681842D02*
X2186470D01*
X2190561Y1686342D02*
X2189743Y1685967D01*
X2189198Y1684842*
X2188925Y1682967*
Y1681842*
X2189198Y1679967*
X2189743Y1678842*
X2190561Y1678467*
X2191107*
X2191925Y1678842*
X2192470Y1679967*
X2192743Y1681842*
Y1682967*
X2192470Y1684842*
X2191925Y1685967*
X2191107Y1686342*
X2190561*
X2195470Y1679217D02*
X2195198Y1678842D01*
X2195470Y1678467*
X2195743Y1678842*
X2195470Y1679217*
X2199834Y1686342D02*
X2199016Y1685967D01*
X2198470Y1684842*
X2198198Y1682967*
Y1681842*
X2198470Y1679967*
X2199016Y1678842*
X2199834Y1678467*
X2200380*
X2201198Y1678842*
X2201743Y1679967*
X2202016Y1681842*
Y1682967*
X2201743Y1684842*
X2201198Y1685967*
X2200380Y1686342*
X2199834*
X1957470Y1660842D02*
X1958016Y1661217D01*
X1958834Y1662342*
Y1654467*
X2053107Y1662342D02*
X2050380Y1657092D01*
X2054470*
X2053107Y1662342D02*
Y1654467D01*
X2083470D02*
X2095470Y1666467D01*
X2083470D02*
X2095470Y1654467D01*
X2116107Y1662342D02*
X2118289Y1658592D01*
Y1654467*
X2120470Y1662342D02*
X2118289Y1658592D01*
X2122925Y1662342D02*
Y1654467D01*
Y1662342D02*
X2126470D01*
X2122925Y1658592D02*
X2125107D01*
X2122925Y1654467D02*
X2126470D01*
X2132743Y1661217D02*
X2132198Y1661967D01*
X2131380Y1662342*
X2130289*
X2129470Y1661967*
X2128925Y1661217*
Y1660467*
X2129198Y1659717*
X2129470Y1659342*
X2130016Y1658967*
X2131652Y1658217*
X2132198Y1657842*
X2132470Y1657467*
X2132743Y1656717*
Y1655592*
X2132198Y1654842*
X2131380Y1654467*
X2130289*
X2129470Y1654842*
X2128925Y1655592*
X2169289Y1661217D02*
Y1654467D01*
X2166834Y1657842D02*
X2171743D01*
X2179107Y1663842D02*
X2174198Y1651842D01*
X2181561Y1657842D02*
X2186470D01*
X2190561Y1662342D02*
X2189743Y1661967D01*
X2189198Y1660842*
X2188925Y1658967*
Y1657842*
X2189198Y1655967*
X2189743Y1654842*
X2190561Y1654467*
X2191107*
X2191925Y1654842*
X2192470Y1655967*
X2192743Y1657842*
Y1658967*
X2192470Y1660842*
X2191925Y1661967*
X2191107Y1662342*
X2190561*
X2195470Y1655217D02*
X2195198Y1654842D01*
X2195470Y1654467*
X2195743Y1654842*
X2195470Y1655217*
X2199834Y1662342D02*
X2199016Y1661967D01*
X2198470Y1660842*
X2198198Y1658967*
Y1657842*
X2198470Y1655967*
X2199016Y1654842*
X2199834Y1654467*
X2200380*
X2201198Y1654842*
X2201743Y1655967*
X2202016Y1657842*
Y1658967*
X2201743Y1660842*
X2201198Y1661967*
X2200380Y1662342*
X2199834*
G54D34*
X1790841Y1483900D02*
G75*
G03X1794778Y1479963I3937J-0D01*
G01X1865644*
G03X1869581Y1483900I-0J3937*
G01Y1572876*
G03X1865644Y1576813I-3937J-0*
G01X1794778*
G03X1790841Y1572876I-0J-3937*
G01Y1483900*
G74*
X0Y0D02*
M02*
