%
T1C.01181F095S3
X006972Y005268
X008039Y005276
X006114Y005598
X008079Y006307
X006098Y00678
X006126Y007937
X006067Y00889
X006567Y00915
X006079Y01
X007563Y010173
X006567Y010244
X008472Y011209
X006114Y011512
X008291Y012449
X006134Y012764
X006878Y013528
X006118Y013783
X006996Y014315
X007913Y014327
X009705Y014425
X009311Y014425
X010492Y014425
X010098Y014425
X010886Y014425
X010295Y012579
X010063Y012252
X010803Y01124
X008854Y005287
X010031Y005276
X011827Y005311
X011138Y005311
X012594Y005323
X013272Y005634
X013264Y006732
X013272Y007937
X013283Y008858
X013272Y010012
X013272Y010803
X01326Y01163
X011984Y011807
X013252Y01276
X01326Y013913
X012031Y01435
X012709Y014362
T2C.03937F197S55
X01Y0095
X0105Y01
X0095Y01
X01Y0105
M30
