*
*
G04 PADS 9.5 Build Number: 522968 generated Gerber (RS-274-X) file*
G04 PC Version=2.1*
*
%IN "TX_3V0.pcb"*%
*
%MOIN*%
*
%FSLAX35Y35*%
*
*
*
*
G04 PC Standard Apertures*
*
*
G04 Thermal Relief Aperture macro.*
%AMTER*
1,1,$1,0,0*
1,0,$1-$2,0,0*
21,0,$3,$4,0,0,45*
21,0,$3,$4,0,0,135*
%
*
*
G04 Annular Aperture macro.*
%AMANN*
1,1,$1,0,0*
1,0,$2,0,0*
%
*
*
G04 Odd Aperture macro.*
%AMODD*
1,1,$1,0,0*
1,0,$1-0.005,0,0*
%
*
*
G04 PC Custom Aperture Macros*
*
*
*
*
*
*
G04 PC Aperture Table*
*
%ADD010C,0.001*%
%ADD013R,0.05512X0.11417*%
%ADD021R,0.06299X0.0315*%
%ADD023R,0.02X0.02*%
%ADD034C,0.00591*%
%ADD058R,0.06299X0.1063*%
%ADD074R,0.01968X0.06*%
%ADD075R,0.02559X0.08858*%
%ADD076O,0.02559X0.08858*%
%ADD077R,0.03937X0.02756*%
%ADD078R,0.03937X0.04331*%
%ADD079R,0.04724X0.27559*%
%ADD080R,0.27559X0.04724*%
%ADD081R,0.07874X0.03937*%
%ADD082R,0.2126X0.23622*%
*
*
*
*
G04 PC Circuitry*
G04 Layer Name TX_3V0.pcb - circuitry*
%LPD*%
*
*
G04 PC Custom Flashes*
G04 Layer Name TX_3V0.pcb - flashes*
%LPD*%
*
*
G04 PC Circuitry*
G04 Layer Name TX_3V0.pcb - circuitry*
%LPD*%
*
G54D10*
G54D13*
G01X1987599Y1637402D03*
X2018701D03*
G54D21*
X2005315Y1620039D03*
X2018701D03*
G54D23*
X1974961Y1637244D03*
X1978561D03*
X1999173Y1624685D03*
X1995573D03*
X1999134Y1620039D03*
X1995534D03*
X2005276Y1614370D03*
X2008876D03*
X1991417Y1624685D03*
X1987817D03*
X1978543Y1632992D03*
X1974943D03*
G54D34*
X1960630Y1555512D02*
G75*
G03X1964567Y1551575I3937J-0D01*
G01X2035433*
G03X2039370Y1555512I0J3937*
G01Y1644488*
G03X2035433Y1648425I-3937J0*
G01X1964567*
G03X1960630Y1644488I-0J-3937*
G01Y1555512*
G54D58*
X2028307Y1610551D03*
X2017283D03*
X2028307Y1598268D03*
X2017283D03*
G54D74*
X2012008Y1642326D03*
X2010040Y1632478D03*
X2008071Y1642326D03*
X2006102Y1632480D03*
X2004134Y1642326D03*
X2002165Y1632480D03*
X2000197Y1642326D03*
X1998229Y1632478D03*
X1996260Y1642326D03*
X1994292Y1632478D03*
G54D75*
X1983799Y1610728D03*
G54D76*
X1978799D03*
X1973799D03*
X1968799D03*
Y1586122D03*
X1973799D03*
X1978799D03*
X1983799D03*
G54D77*
X1982913Y1619449D03*
Y1627323D03*
X1973465Y1623386D03*
G54D78*
X2028268Y1626732D03*
Y1620039D03*
G54D79*
X1964370Y1629528D03*
Y1569685D03*
X2035630D03*
Y1629528D03*
G54D80*
X2003150Y1555118D03*
G54D81*
X1990709Y1583150D03*
Y1565039D03*
G54D82*
X2019055Y1574094D03*
G74*
X0Y0D02*
M02*
