*
*
G04 PADS 9.5 Build Number: 522968 generated Gerber (RS-274-X) file*
G04 PC Version=2.1*
*
%IN "AD5420_POWER_V1.6.pcb"*%
*
%MOIN*%
*
%FSLAX35Y35*%
*
*
*
*
G04 PC Standard Apertures*
*
*
G04 Thermal Relief Aperture macro.*
%AMTER*
1,1,$1,0,0*
1,0,$1-$2,0,0*
21,0,$3,$4,0,0,45*
21,0,$3,$4,0,0,135*
%
*
*
G04 Annular Aperture macro.*
%AMANN*
1,1,$1,0,0*
1,0,$2,0,0*
%
*
*
G04 Odd Aperture macro.*
%AMODD*
1,1,$1,0,0*
1,0,$1-0.005,0,0*
%
*
*
G04 PC Custom Aperture Macros*
*
*
*
*
*
*
G04 PC Aperture Table*
*
%ADD010C,0.001*%
%ADD041C,0.01*%
%ADD077C,0.00394*%
*
*
*
*
G04 PC Circuitry*
G04 Layer Name AD5420_POWER_V1.6.pcb - circuitry*
%LPD*%
*
*
G04 PC Custom Flashes*
G04 Layer Name AD5420_POWER_V1.6.pcb - flashes*
%LPD*%
*
*
G04 PC Circuitry*
G04 Layer Name AD5420_POWER_V1.6.pcb - circuitry*
%LPD*%
*
G54D10*
G54D41*
G01X1875981Y1527132D02*
X1883981D01*
X1879981Y1523132D02*
Y1531132D01*
X1870981Y1527132D02*
X1878981D01*
X1874981Y1523132D02*
Y1531132D01*
X1865981Y1527132D02*
X1873981D01*
X1869981Y1523132D02*
Y1531132D01*
X1821323Y1361619D02*
X1829323Y1369619D01*
X1821323D02*
X1829323Y1361619D01*
X1836923D02*
X1844923Y1369619D01*
X1836923D02*
X1844923Y1361619D01*
X1837323Y1347619D02*
X1845323Y1355619D01*
X1837323D02*
X1845323Y1347619D01*
X1821323D02*
X1829323Y1355619D01*
X1821323D02*
X1829323Y1347619D01*
X1961298Y1522686D02*
X1969298D01*
Y1530686*
X1961298*
Y1522686*
X1965298Y1526686D02*
Y1530686D01*
X1892298Y1522686D02*
X1900298D01*
Y1530686*
X1892298*
Y1522686*
X1896298Y1526686D02*
Y1530686D01*
X1930989Y1321727D02*
X1934989Y1325727D01*
X1930989Y1329727*
X1926989Y1325727*
X1930989Y1321727*
Y1325727D02*
Y1329727D01*
X1935372Y1328967D02*
X1939372Y1332967D01*
X1935372Y1336967*
X1931372Y1332967*
X1935372Y1328967*
Y1332967D02*
Y1336967D01*
X1938193Y1325697D02*
X1942193Y1329697D01*
X1938193Y1333697*
X1934193Y1329697*
X1938193Y1325697*
Y1329697D02*
Y1333697D01*
X1954886Y1328797D02*
X1958886Y1332797D01*
X1954886Y1336797*
X1950886Y1332797*
X1954886Y1328797*
Y1332797D02*
Y1336797D01*
X1954806Y1333275D02*
X1958806Y1337275D01*
X1954806Y1341275*
X1950806Y1337275*
X1954806Y1333275*
Y1337275D02*
Y1341275D01*
X1965509Y1332935D02*
X1969509Y1336935D01*
X1965509Y1340935*
X1961509Y1336935*
X1965509Y1332935*
Y1336935D02*
Y1340935D01*
X1967057Y1324912D02*
X1971057Y1328912D01*
X1967057Y1332912*
X1963057Y1328912*
X1967057Y1324912*
Y1328912D02*
Y1332912D01*
X1942471Y1338899D02*
X1946471Y1342899D01*
X1942471Y1346899*
X1938471Y1342899*
X1942471Y1338899*
Y1342899D02*
Y1346899D01*
X1934754Y1335844D02*
X1938754Y1339844D01*
X1934754Y1343844*
X1930754Y1339844*
X1934754Y1335844*
Y1339844D02*
Y1343844D01*
X1952869Y1343588D02*
X1956869Y1347588D01*
X1952869Y1351588*
X1948869Y1347588*
X1952869Y1343588*
Y1347588D02*
Y1351588D01*
X1951159Y1334102D02*
X1955159Y1338102D01*
X1951159Y1342102*
X1947159Y1338102*
X1951159Y1334102*
Y1338102D02*
Y1342102D01*
X1954822Y1338539D02*
X1958822Y1342539D01*
X1954822Y1346539*
X1950822Y1342539*
X1954822Y1338539*
Y1342539D02*
Y1346539D01*
X1960051Y1343588D02*
X1964051Y1347588D01*
X1960051Y1351588*
X1956051Y1347588*
X1960051Y1343588*
Y1347588D02*
Y1351588D01*
X1938419Y1345643D02*
X1942419Y1349643D01*
X1938419Y1353643*
X1934419Y1349643*
X1938419Y1345643*
Y1349643D02*
Y1353643D01*
X1954897Y1348368D02*
X1958897Y1352368D01*
X1954897Y1356368*
X1950897Y1352368*
X1954897Y1348368*
Y1352368D02*
Y1356368D01*
X1955042Y1353614D02*
X1959042Y1357614D01*
X1955042Y1361614*
X1951042Y1357614*
X1955042Y1353614*
Y1357614D02*
Y1361614D01*
X1956159Y1359077D02*
X1960159Y1363077D01*
X1956159Y1367077*
X1952159Y1363077*
X1956159Y1359077*
Y1363077D02*
Y1367077D01*
X1967164Y1361601D02*
X1971164Y1365601D01*
X1967164Y1369601*
X1963164Y1365601*
X1967164Y1361601*
Y1365601D02*
Y1369601D01*
X1832370Y1372742D02*
X1836370Y1376742D01*
X1832370Y1380742*
X1828370Y1376742*
X1832370Y1372742*
Y1376742D02*
Y1380742D01*
X1868897Y1370013D02*
X1872897Y1374013D01*
X1868897Y1378013*
X1864897Y1374013*
X1868897Y1370013*
Y1374013D02*
Y1378013D01*
X1879886Y1373976D02*
X1883886Y1377976D01*
X1879886Y1381976*
X1875886Y1377976*
X1879886Y1373976*
Y1377976D02*
Y1381976D01*
X1903864Y1369888D02*
X1907864Y1373888D01*
X1903864Y1377888*
X1899864Y1373888*
X1903864Y1369888*
Y1373888D02*
Y1377888D01*
X1907350Y1368284D02*
X1911350Y1372284D01*
X1907350Y1376284*
X1903350Y1372284*
X1907350Y1368284*
Y1372284D02*
Y1376284D01*
X1928647Y1368187D02*
X1932647Y1372187D01*
X1928647Y1376187*
X1924647Y1372187*
X1928647Y1368187*
Y1372187D02*
Y1376187D01*
X1956035Y1364055D02*
X1960035Y1368055D01*
X1956035Y1372055*
X1952035Y1368055*
X1956035Y1364055*
Y1368055D02*
Y1372055D01*
X1955761Y1369655D02*
X1959761Y1373655D01*
X1955761Y1377655*
X1951761Y1373655*
X1955761Y1369655*
Y1373655D02*
Y1377655D01*
X1967066Y1371370D02*
X1971066Y1375370D01*
X1967066Y1379370*
X1963066Y1375370*
X1967066Y1371370*
Y1375370D02*
Y1379370D01*
X1967298Y1366521D02*
X1971298Y1370521D01*
X1967298Y1374521*
X1963298Y1370521*
X1967298Y1366521*
Y1370521D02*
Y1374521D01*
X1968082Y1373806D02*
X1972082Y1377806D01*
X1968082Y1381806*
X1964082Y1377806*
X1968082Y1373806*
Y1377806D02*
Y1381806D01*
X1829110Y1379098D02*
X1833110Y1383098D01*
X1829110Y1387098*
X1825110Y1383098*
X1829110Y1379098*
Y1383098D02*
Y1387098D01*
X1839441Y1379813D02*
X1843441Y1383813D01*
X1839441Y1387813*
X1835441Y1383813*
X1839441Y1379813*
Y1383813D02*
Y1387813D01*
X1872399Y1376643D02*
X1876399Y1380643D01*
X1872399Y1384643*
X1868399Y1380643*
X1872399Y1376643*
Y1380643D02*
Y1384643D01*
X1870425Y1375058D02*
X1874425Y1379058D01*
X1870425Y1383058*
X1866425Y1379058*
X1870425Y1375058*
Y1379058D02*
Y1383058D01*
X1864497Y1380385D02*
X1868497Y1384385D01*
X1864497Y1388385*
X1860497Y1384385*
X1864497Y1380385*
Y1384385D02*
Y1388385D01*
X1870425Y1378648D02*
X1874425Y1382648D01*
X1870425Y1386648*
X1866425Y1382648*
X1870425Y1378648*
Y1382648D02*
Y1386648D01*
X1875465Y1382752D02*
X1879465Y1386752D01*
X1875465Y1390752*
X1871465Y1386752*
X1875465Y1382752*
Y1386752D02*
Y1390752D01*
X1882964Y1376747D02*
X1886964Y1380747D01*
X1882964Y1384747*
X1878964Y1380747*
X1882964Y1376747*
Y1380747D02*
Y1384747D01*
X1874191Y1378883D02*
X1878191Y1382883D01*
X1874191Y1386883*
X1870191Y1382883*
X1874191Y1378883*
Y1382883D02*
Y1386883D01*
X1874603Y1374823D02*
X1878603Y1378823D01*
X1874603Y1382823*
X1870603Y1378823*
X1874603Y1374823*
Y1378823D02*
Y1382823D01*
X1885465Y1382735D02*
X1889465Y1386735D01*
X1885465Y1390735*
X1881465Y1386735*
X1885465Y1382735*
Y1386735D02*
Y1390735D01*
X1891861Y1374484D02*
X1895861Y1378484D01*
X1891861Y1382484*
X1887861Y1378484*
X1891861Y1374484*
Y1378484D02*
Y1382484D01*
X1894960Y1375018D02*
X1898960Y1379018D01*
X1894960Y1383018*
X1890960Y1379018*
X1894960Y1375018*
Y1379018D02*
Y1383018D01*
X1898544Y1374125D02*
X1902544Y1378125D01*
X1898544Y1382125*
X1894544Y1378125*
X1898544Y1374125*
Y1378125D02*
Y1382125D01*
X1901957Y1381912D02*
X1905957Y1385912D01*
X1901957Y1389912*
X1897957Y1385912*
X1901957Y1381912*
Y1385912D02*
Y1389912D01*
X1906766Y1378925D02*
X1910766Y1382925D01*
X1906766Y1386925*
X1902766Y1382925*
X1906766Y1378925*
Y1382925D02*
Y1386925D01*
X1909417Y1383287D02*
X1913417Y1387287D01*
X1909417Y1391287*
X1905417Y1387287*
X1909417Y1383287*
Y1387287D02*
Y1391287D01*
X1912589Y1383669D02*
X1916589Y1387669D01*
X1912589Y1391669*
X1908589Y1387669*
X1912589Y1383669*
Y1387669D02*
Y1391669D01*
X1919262Y1374929D02*
X1923262Y1378929D01*
X1919262Y1382929*
X1915262Y1378929*
X1919262Y1374929*
Y1378929D02*
Y1382929D01*
X1921013Y1378157D02*
X1925013Y1382157D01*
X1921013Y1386157*
X1917013Y1382157*
X1921013Y1378157*
Y1382157D02*
Y1386157D01*
X1955267Y1380032D02*
X1959267Y1384032D01*
X1955267Y1388032*
X1951267Y1384032*
X1955267Y1380032*
Y1384032D02*
Y1388032D01*
X1956173Y1382270D02*
X1960173Y1386270D01*
X1956173Y1390270*
X1952173Y1386270*
X1956173Y1382270*
Y1386270D02*
Y1390270D01*
X1832370Y1386884D02*
X1836370Y1390884D01*
X1832370Y1394884*
X1828370Y1390884*
X1832370Y1386884*
Y1390884D02*
Y1394884D01*
X1853584Y1393955D02*
X1857584Y1397955D01*
X1853584Y1401955*
X1849584Y1397955*
X1853584Y1393955*
Y1397955D02*
Y1401955D01*
X1846800Y1390642D02*
X1850800Y1394642D01*
X1846800Y1398642*
X1842800Y1394642*
X1846800Y1390642*
Y1394642D02*
Y1398642D01*
X1856454Y1386251D02*
X1860454Y1390251D01*
X1856454Y1394251*
X1852454Y1390251*
X1856454Y1386251*
Y1390251D02*
Y1394251D01*
X1861181Y1387112D02*
X1865181Y1391112D01*
X1861181Y1395112*
X1857181Y1391112*
X1861181Y1387112*
Y1391112D02*
Y1395112D01*
X1893057Y1393712D02*
X1897057Y1397712D01*
X1893057Y1401712*
X1889057Y1397712*
X1893057Y1393712*
Y1397712D02*
Y1401712D01*
X1908723Y1390596D02*
X1912723Y1394596D01*
X1908723Y1398596*
X1904723Y1394596*
X1908723Y1390596*
Y1394596D02*
Y1398596D01*
X1911693Y1389970D02*
X1915693Y1393970D01*
X1911693Y1397970*
X1907693Y1393970*
X1911693Y1389970*
Y1393970D02*
Y1397970D01*
X1913243Y1393769D02*
X1921243D01*
X1913243Y1401769*
X1921243*
X1913243Y1393769*
X1940772Y1386514D02*
X1944772Y1390514D01*
X1940772Y1394514*
X1936772Y1390514*
X1940772Y1386514*
Y1390514D02*
Y1394514D01*
X1940233Y1393282D02*
X1944233Y1397282D01*
X1940233Y1401282*
X1936233Y1397282*
X1940233Y1393282*
Y1397282D02*
Y1401282D01*
X1937429Y1393489D02*
X1941429Y1397489D01*
X1937429Y1401489*
X1933429Y1397489*
X1937429Y1393489*
Y1397489D02*
Y1401489D01*
X1939112Y1391331D02*
X1943112Y1395331D01*
X1939112Y1399331*
X1935112Y1395331*
X1939112Y1391331*
Y1395331D02*
Y1399331D01*
X1953857Y1387212D02*
X1957857Y1391212D01*
X1953857Y1395212*
X1949857Y1391212*
X1953857Y1387212*
Y1391212D02*
Y1395212D01*
X1959812Y1388149D02*
X1963812Y1392149D01*
X1959812Y1396149*
X1955812Y1392149*
X1959812Y1388149*
Y1392149D02*
Y1396149D01*
X1957268Y1388782D02*
X1961268Y1392782D01*
X1957268Y1396782*
X1953268Y1392782*
X1957268Y1388782*
Y1392782D02*
Y1396782D01*
X1966365Y1385547D02*
X1970365Y1389547D01*
X1966365Y1393547*
X1962365Y1389547*
X1966365Y1385547*
Y1389547D02*
Y1393547D01*
X1964880Y1386855D02*
X1968880Y1390855D01*
X1964880Y1394855*
X1960880Y1390855*
X1964880Y1386855*
Y1390855D02*
Y1394855D01*
X1966246Y1388302D02*
X1970246Y1392302D01*
X1966246Y1396302*
X1962246Y1392302*
X1966246Y1388302*
Y1392302D02*
Y1396302D01*
X1818228Y1401026D02*
X1822228Y1405026D01*
X1818228Y1409026*
X1814228Y1405026*
X1818228Y1401026*
Y1405026D02*
Y1409026D01*
X1832635Y1396601D02*
X1836635Y1400601D01*
X1832635Y1404601*
X1828635Y1400601*
X1832635Y1396601*
Y1400601D02*
Y1404601D01*
X1839639Y1401781D02*
X1843639Y1405781D01*
X1839639Y1409781*
X1835639Y1405781*
X1839639Y1401781*
Y1405781D02*
Y1409781D01*
X1839444Y1403953D02*
X1843444Y1407953D01*
X1839444Y1411953*
X1835444Y1407953*
X1839444Y1403953*
Y1407953D02*
Y1411953D01*
X1841838Y1403156D02*
X1845838Y1407156D01*
X1841838Y1411156*
X1837838Y1407156*
X1841838Y1403156*
Y1407156D02*
Y1411156D01*
X1846513Y1401026D02*
X1850513Y1405026D01*
X1846513Y1409026*
X1842513Y1405026*
X1846513Y1401026*
Y1405026D02*
Y1409026D01*
X1860411Y1403478D02*
X1864411Y1407478D01*
X1860411Y1411478*
X1856411Y1407478*
X1860411Y1403478*
Y1407478D02*
Y1411478D01*
X1867692Y1398072D02*
X1871692Y1402072D01*
X1867692Y1406072*
X1863692Y1402072*
X1867692Y1398072*
Y1402072D02*
Y1406072D01*
X1871209Y1394653D02*
X1875209Y1398653D01*
X1871209Y1402653*
X1867209Y1398653*
X1871209Y1394653*
Y1398653D02*
Y1402653D01*
X1882357Y1395212D02*
X1886357Y1399212D01*
X1882357Y1403212*
X1878357Y1399212*
X1882357Y1395212*
Y1399212D02*
Y1403212D01*
X1879257Y1394912D02*
X1883257Y1398912D01*
X1879257Y1402912*
X1875257Y1398912*
X1879257Y1394912*
Y1398912D02*
Y1402912D01*
X1890891Y1394169D02*
X1894891Y1398169D01*
X1890891Y1402169*
X1886891Y1398169*
X1890891Y1394169*
Y1398169D02*
Y1402169D01*
X1895956Y1394202D02*
X1899956Y1398202D01*
X1895956Y1402202*
X1891956Y1398202*
X1895956Y1394202*
Y1398202D02*
Y1402202D01*
X1942757Y1398242D02*
X1946757Y1402242D01*
X1942757Y1406242*
X1938757Y1402242*
X1942757Y1398242*
Y1402242D02*
Y1406242D01*
X1935772Y1400899D02*
X1939772Y1404899D01*
X1935772Y1408899*
X1931772Y1404899*
X1935772Y1400899*
Y1404899D02*
Y1408899D01*
X1939113Y1398026D02*
X1943113Y1402026D01*
X1939113Y1406026*
X1935113Y1402026*
X1939113Y1398026*
Y1402026D02*
Y1406026D01*
X1825443Y1405799D02*
X1829443Y1409799D01*
X1825443Y1413799*
X1821443Y1409799*
X1825443Y1405799*
Y1409799D02*
Y1413799D01*
X1841285Y1410079D02*
X1845285Y1414079D01*
X1841285Y1418079*
X1837285Y1414079*
X1841285Y1410079*
Y1414079D02*
Y1418079D01*
X1853340Y1410549D02*
X1857340Y1414549D01*
X1853340Y1418549*
X1849340Y1414549*
X1853340Y1410549*
Y1414549D02*
Y1418549D01*
X1872416Y1412100D02*
X1876416Y1416100D01*
X1872416Y1420100*
X1868416Y1416100*
X1872416Y1412100*
Y1416100D02*
Y1420100D01*
X1875189Y1409517D02*
X1879189Y1413517D01*
X1875189Y1417517*
X1871189Y1413517*
X1875189Y1409517*
Y1413517D02*
Y1417517D01*
X1882205Y1405561D02*
X1886205Y1409561D01*
X1882205Y1413561*
X1878205Y1409561*
X1882205Y1405561*
Y1409561D02*
Y1413561D01*
X1889857Y1409012D02*
X1893857Y1413012D01*
X1889857Y1417012*
X1885857Y1413012*
X1889857Y1409012*
Y1413012D02*
Y1417012D01*
X1903163Y1405701D02*
X1907163Y1409701D01*
X1903163Y1413701*
X1899163Y1409701*
X1903163Y1405701*
Y1409701D02*
Y1413701D01*
X1914859Y1407248D02*
X1918859Y1411248D01*
X1914859Y1415248*
X1910859Y1411248*
X1914859Y1407248*
Y1411248D02*
Y1415248D01*
X1925036Y1409080D02*
X1929036Y1413080D01*
X1925036Y1417080*
X1921036Y1413080*
X1925036Y1409080*
Y1413080D02*
Y1417080D01*
X1941990Y1404889D02*
X1945990Y1408889D01*
X1941990Y1412889*
X1937990Y1408889*
X1941990Y1404889*
Y1408889D02*
Y1412889D01*
X1935462Y1408953D02*
X1939462Y1412953D01*
X1935462Y1416953*
X1931462Y1412953*
X1935462Y1408953*
Y1412953D02*
Y1416953D01*
X1938596Y1408697D02*
X1942596Y1412697D01*
X1938596Y1416697*
X1934596Y1412697*
X1938596Y1408697*
Y1412697D02*
Y1416697D01*
X1939339Y1404956D02*
X1943339Y1408956D01*
X1939339Y1412956*
X1935339Y1408956*
X1939339Y1404956*
Y1408956D02*
Y1412956D01*
X1951395Y1408298D02*
X1955395Y1412298D01*
X1951395Y1416298*
X1947395Y1412298*
X1951395Y1408298*
Y1412298D02*
Y1416298D01*
X1949221Y1410630D02*
X1953221Y1414630D01*
X1949221Y1418630*
X1945221Y1414630*
X1949221Y1410630*
Y1414630D02*
Y1418630D01*
X1956382Y1408736D02*
X1960382Y1412736D01*
X1956382Y1416736*
X1952382Y1412736*
X1956382Y1408736*
Y1412736D02*
Y1416736D01*
X1961628Y1410236D02*
X1965628Y1414236D01*
X1961628Y1418236*
X1957628Y1414236*
X1961628Y1410236*
Y1414236D02*
Y1418236D01*
X1960622Y1412125D02*
X1964622Y1416125D01*
X1960622Y1420125*
X1956622Y1416125*
X1960622Y1412125*
Y1416125D02*
Y1420125D01*
X1959238Y1410499D02*
X1963238Y1414499D01*
X1959238Y1418499*
X1955238Y1414499*
X1959238Y1410499*
Y1414499D02*
Y1418499D01*
X1954017Y1413962D02*
X1958017Y1417962D01*
X1954017Y1421962*
X1950017Y1417962*
X1954017Y1413962*
Y1417962D02*
Y1421962D01*
X1820722Y1423475D02*
X1824722Y1427475D01*
X1820722Y1431475*
X1816722Y1427475*
X1820722Y1423475*
Y1427475D02*
Y1431475D01*
X1818228Y1415168D02*
X1822228Y1419168D01*
X1818228Y1423168*
X1814228Y1419168*
X1818228Y1415168*
Y1419168D02*
Y1423168D01*
X1832370Y1415168D02*
X1836370Y1419168D01*
X1832370Y1423168*
X1828370Y1419168*
X1832370Y1415168*
Y1419168D02*
Y1423168D01*
X1842576Y1420613D02*
X1846576Y1424613D01*
X1842576Y1428613*
X1838576Y1424613*
X1842576Y1420613*
Y1424613D02*
Y1428613D01*
X1848855Y1416134D02*
X1852855Y1420134D01*
X1848855Y1424134*
X1844855Y1420134*
X1848855Y1416134*
Y1420134D02*
Y1424134D01*
X1863726Y1421826D02*
X1867726Y1425826D01*
X1863726Y1429826*
X1859726Y1425826*
X1863726Y1421826*
Y1425826D02*
Y1429826D01*
X1860357Y1420512D02*
X1864357Y1424512D01*
X1860357Y1428512*
X1856357Y1424512*
X1860357Y1420512*
Y1424512D02*
Y1428512D01*
X1872905Y1416398D02*
X1876905Y1420398D01*
X1872905Y1424398*
X1868905Y1420398*
X1872905Y1416398*
Y1420398D02*
Y1424398D01*
X1867057Y1420412D02*
X1871057Y1424412D01*
X1867057Y1428412*
X1863057Y1424412*
X1867057Y1420412*
Y1424412D02*
Y1428412D01*
X1876009Y1421427D02*
X1880009Y1425427D01*
X1876009Y1429427*
X1872009Y1425427*
X1876009Y1421427*
Y1425427D02*
Y1429427D01*
X1875189Y1423659D02*
X1879189Y1427659D01*
X1875189Y1431659*
X1871189Y1427659*
X1875189Y1423659*
Y1427659D02*
Y1431659D01*
X1880323Y1415626D02*
X1884323Y1419626D01*
X1880323Y1423626*
X1876323Y1419626*
X1880323Y1415626*
Y1419626D02*
Y1423626D01*
X1893634Y1423664D02*
X1897634Y1427664D01*
X1893634Y1431664*
X1889634Y1427664*
X1893634Y1423664*
Y1427664D02*
Y1431664D01*
X1884622Y1420239D02*
X1888622Y1424239D01*
X1884622Y1428239*
X1880622Y1424239*
X1884622Y1420239*
Y1424239D02*
Y1428239D01*
X1898417Y1417429D02*
X1902417Y1421429D01*
X1898417Y1425429*
X1894417Y1421429*
X1898417Y1417429*
Y1421429D02*
Y1425429D01*
X1905014Y1423845D02*
X1909014Y1427845D01*
X1905014Y1431845*
X1901014Y1427845*
X1905014Y1423845*
Y1427845D02*
Y1431845D01*
X1913366Y1421074D02*
X1917366Y1425074D01*
X1913366Y1429074*
X1909366Y1425074*
X1913366Y1421074*
Y1425074D02*
Y1429074D01*
X1907214Y1421115D02*
X1911214Y1425115D01*
X1907214Y1429115*
X1903214Y1425115*
X1907214Y1421115*
Y1425115D02*
Y1429115D01*
X1906999Y1414741D02*
X1910999Y1418741D01*
X1906999Y1422741*
X1902999Y1418741*
X1906999Y1414741*
Y1418741D02*
Y1422741D01*
X1922946Y1419158D02*
X1926946Y1423158D01*
X1922946Y1427158*
X1918946Y1423158*
X1922946Y1419158*
Y1423158D02*
Y1427158D01*
X1934259Y1419902D02*
X1938259Y1423902D01*
X1934259Y1427902*
X1930259Y1423902*
X1934259Y1419902*
Y1423902D02*
Y1427902D01*
X1957255Y1414222D02*
X1961255Y1418222D01*
X1957255Y1422222*
X1953255Y1418222*
X1957255Y1414222*
Y1418222D02*
Y1422222D01*
X1818228Y1429310D02*
X1822228Y1433310D01*
X1818228Y1437310*
X1814228Y1433310*
X1818228Y1429310*
Y1433310D02*
Y1437310D01*
X1838212Y1426659D02*
X1842212Y1430659D01*
X1838212Y1434659*
X1834212Y1430659*
X1838212Y1426659*
Y1430659D02*
Y1434659D01*
X1842406Y1425812D02*
X1846406Y1429812D01*
X1842406Y1433812*
X1838406Y1429812*
X1842406Y1425812*
Y1429812D02*
Y1433812D01*
X1863669Y1432189D02*
X1867669Y1436189D01*
X1863669Y1440189*
X1859669Y1436189*
X1863669Y1432189*
Y1436189D02*
Y1440189D01*
X1871191Y1430919D02*
X1875191Y1434919D01*
X1871191Y1438919*
X1867191Y1434919*
X1871191Y1430919*
Y1434919D02*
Y1438919D01*
X1899592Y1432761D02*
X1903592Y1436761D01*
X1899592Y1440761*
X1895592Y1436761*
X1899592Y1432761*
Y1436761D02*
Y1440761D01*
X1898231Y1429673D02*
X1902231Y1433673D01*
X1898231Y1437673*
X1894231Y1433673*
X1898231Y1429673*
Y1433673D02*
Y1437673D01*
X1911094Y1426834D02*
X1915094Y1430834D01*
X1911094Y1434834*
X1907094Y1430834*
X1911094Y1426834*
Y1430834D02*
Y1434834D01*
X1916860Y1432407D02*
X1920860Y1436407D01*
X1916860Y1440407*
X1912860Y1436407*
X1916860Y1432407*
Y1436407D02*
Y1440407D01*
X1926270Y1430913D02*
X1930270Y1434913D01*
X1926270Y1438913*
X1922270Y1434913*
X1926270Y1430913*
Y1434913D02*
Y1438913D01*
X1934323Y1430867D02*
X1938323Y1434867D01*
X1934323Y1438867*
X1930323Y1434867*
X1934323Y1430867*
Y1434867D02*
Y1438867D01*
X1948904Y1432434D02*
X1952904Y1436434D01*
X1948904Y1440434*
X1944904Y1436434*
X1948904Y1432434*
Y1436434D02*
Y1440434D01*
X1818228Y1443453D02*
X1822228Y1447453D01*
X1818228Y1451453*
X1814228Y1447453*
X1818228Y1443453*
Y1447453D02*
Y1451453D01*
X1837126Y1437402D02*
X1841126Y1441402D01*
X1837126Y1445402*
X1833126Y1441402*
X1837126Y1437402*
Y1441402D02*
Y1445402D01*
X1847495Y1442578D02*
X1851495Y1446578D01*
X1847495Y1450578*
X1843495Y1446578*
X1847495Y1442578*
Y1446578D02*
Y1450578D01*
X1859650Y1443874D02*
X1863650Y1447874D01*
X1859650Y1451874*
X1855650Y1447874*
X1859650Y1443874*
Y1447874D02*
Y1451874D01*
X1855932Y1441929D02*
X1859932Y1445929D01*
X1855932Y1449929*
X1851932Y1445929*
X1855932Y1441929*
Y1445929D02*
Y1449929D01*
X1870995Y1442643D02*
X1874995Y1446643D01*
X1870995Y1450643*
X1866995Y1446643*
X1870995Y1442643*
Y1446643D02*
Y1450643D01*
X1867726Y1436382D02*
X1871726Y1440382D01*
X1867726Y1444382*
X1863726Y1440382*
X1867726Y1436382*
Y1440382D02*
Y1444382D01*
X1883465Y1443488D02*
X1887465Y1447488D01*
X1883465Y1451488*
X1879465Y1447488*
X1883465Y1443488*
Y1447488D02*
Y1451488D01*
X1883549Y1440594D02*
X1887549Y1444594D01*
X1883549Y1448594*
X1879549Y1444594*
X1883549Y1440594*
Y1444594D02*
Y1448594D01*
X1887574Y1443434D02*
X1891574Y1447434D01*
X1887574Y1451434*
X1883574Y1447434*
X1887574Y1443434*
Y1447434D02*
Y1451434D01*
X1894633Y1435567D02*
X1898633Y1439567D01*
X1894633Y1443567*
X1890633Y1439567*
X1894633Y1435567*
Y1439567D02*
Y1443567D01*
X1901231Y1443006D02*
X1905231Y1447006D01*
X1901231Y1451006*
X1897231Y1447006*
X1901231Y1443006*
Y1447006D02*
Y1451006D01*
X1910264Y1439382D02*
X1914264Y1443382D01*
X1910264Y1447382*
X1906264Y1443382*
X1910264Y1439382*
Y1443382D02*
Y1447382D01*
X1906810Y1443534D02*
X1910810Y1447534D01*
X1906810Y1451534*
X1902810Y1447534*
X1906810Y1443534*
Y1447534D02*
Y1451534D01*
X1916297Y1437934D02*
X1920297Y1441934D01*
X1916297Y1445934*
X1912297Y1441934*
X1916297Y1437934*
Y1441934D02*
Y1445934D01*
X1948750Y1437035D02*
X1952750Y1441035D01*
X1948750Y1445035*
X1944750Y1441035*
X1948750Y1437035*
Y1441035D02*
Y1445035D01*
X1966721Y1436382D02*
X1970721Y1440382D01*
X1966721Y1444382*
X1962721Y1440382*
X1966721Y1436382*
Y1440382D02*
Y1444382D01*
X1836863Y1445903D02*
X1840863Y1449903D01*
X1836863Y1453903*
X1832863Y1449903*
X1836863Y1445903*
Y1449903D02*
Y1453903D01*
X1845617Y1446422D02*
X1849617Y1450422D01*
X1845617Y1454422*
X1841617Y1450422*
X1845617Y1446422*
Y1450422D02*
Y1454422D01*
X1844420Y1448197D02*
X1848420Y1452197D01*
X1844420Y1456197*
X1840420Y1452197*
X1844420Y1448197*
Y1452197D02*
Y1456197D01*
X1846564Y1448351D02*
X1850564Y1452351D01*
X1846564Y1456351*
X1842564Y1452351*
X1846564Y1448351*
Y1452351D02*
Y1456351D01*
X1868306Y1452106D02*
X1872306Y1456106D01*
X1868306Y1460106*
X1864306Y1456106*
X1868306Y1452106*
Y1456106D02*
Y1460106D01*
X1891099Y1453375D02*
X1895099Y1457375D01*
X1891099Y1461375*
X1887099Y1457375*
X1891099Y1453375*
Y1457375D02*
Y1461375D01*
X1900848Y1451063D02*
X1904848Y1455063D01*
X1900848Y1459063*
X1896848Y1455063*
X1900848Y1451063*
Y1455063D02*
Y1459063D01*
X1898044Y1444499D02*
X1902044Y1448499D01*
X1898044Y1452499*
X1894044Y1448499*
X1898044Y1444499*
Y1448499D02*
Y1452499D01*
X1894519Y1445820D02*
X1898519Y1449820D01*
X1894519Y1453820*
X1890519Y1449820*
X1894519Y1445820*
Y1449820D02*
Y1453820D01*
X1903776Y1446735D02*
X1907776Y1450735D01*
X1903776Y1454735*
X1899776Y1450735*
X1903776Y1446735*
Y1450735D02*
Y1454735D01*
X1898897Y1448008D02*
X1902897Y1452008D01*
X1898897Y1456008*
X1894897Y1452008*
X1898897Y1448008*
Y1452008D02*
Y1456008D01*
X1918486Y1452184D02*
X1922486Y1456184D01*
X1918486Y1460184*
X1914486Y1456184*
X1918486Y1452184*
Y1456184D02*
Y1460184D01*
X1915815Y1445698D02*
X1919815Y1449698D01*
X1915815Y1453698*
X1911815Y1449698*
X1915815Y1445698*
Y1449698D02*
Y1453698D01*
X1915329Y1452455D02*
X1919329Y1456455D01*
X1915329Y1460455*
X1911329Y1456455*
X1915329Y1452455*
Y1456455D02*
Y1460455D01*
X1927365Y1453710D02*
X1931365Y1457710D01*
X1927365Y1461710*
X1923365Y1457710*
X1927365Y1453710*
Y1457710D02*
Y1461710D01*
X1949057Y1449919D02*
X1953057Y1453919D01*
X1949057Y1457919*
X1945057Y1453919*
X1949057Y1449919*
Y1453919D02*
Y1457919D01*
Y1445471D02*
X1953057Y1449471D01*
X1949057Y1453471*
X1945057Y1449471*
X1949057Y1445471*
Y1449471D02*
Y1453471D01*
X1952335Y1452976D02*
X1956335Y1456976D01*
X1952335Y1460976*
X1948335Y1456976*
X1952335Y1452976*
Y1456976D02*
Y1460976D01*
X1966721Y1450524D02*
X1970721Y1454524D01*
X1966721Y1458524*
X1962721Y1454524*
X1966721Y1450524*
Y1454524D02*
Y1458524D01*
X1965953Y1445858D02*
X1969953Y1449858D01*
X1965953Y1453858*
X1961953Y1449858*
X1965953Y1445858*
Y1449858D02*
Y1453858D01*
X1818228Y1457595D02*
X1822228Y1461595D01*
X1818228Y1465595*
X1814228Y1461595*
X1818228Y1457595*
Y1461595D02*
Y1465595D01*
X1839412Y1458249D02*
X1843412Y1462249D01*
X1839412Y1466249*
X1835412Y1462249*
X1839412Y1458249*
Y1462249D02*
Y1466249D01*
X1853143Y1459277D02*
X1857143Y1463277D01*
X1853143Y1467277*
X1849143Y1463277*
X1853143Y1459277*
Y1463277D02*
Y1467277D01*
X1846513Y1457595D02*
X1850513Y1461595D01*
X1846513Y1465595*
X1842513Y1461595*
X1846513Y1457595*
Y1461595D02*
Y1465595D01*
X1860335Y1459530D02*
X1864335Y1463530D01*
X1860335Y1467530*
X1856335Y1463530*
X1860335Y1459530*
Y1463530D02*
Y1467530D01*
X1881415Y1456972D02*
X1885415Y1460972D01*
X1881415Y1464972*
X1877415Y1460972*
X1881415Y1456972*
Y1460972D02*
Y1464972D01*
X1891078Y1458046D02*
X1895078Y1462046D01*
X1891078Y1466046*
X1887078Y1462046*
X1891078Y1458046*
Y1462046D02*
Y1466046D01*
X1916412Y1456341D02*
X1920412Y1460341D01*
X1916412Y1464341*
X1912412Y1460341*
X1916412Y1456341*
Y1460341D02*
Y1464341D01*
X1917638Y1463186D02*
X1921638Y1467186D01*
X1917638Y1471186*
X1913638Y1467186*
X1917638Y1463186*
Y1467186D02*
Y1471186D01*
X1940520Y1454448D02*
X1944520Y1458448D01*
X1940520Y1462448*
X1936520Y1458448*
X1940520Y1454448*
Y1458448D02*
Y1462448D01*
X1946348Y1454448D02*
X1950348Y1458448D01*
X1946348Y1462448*
X1942348Y1458448*
X1946348Y1454448*
Y1458448D02*
Y1462448D01*
X1818228Y1471737D02*
X1822228Y1475737D01*
X1818228Y1479737*
X1814228Y1475737*
X1818228Y1471737*
Y1475737D02*
Y1479737D01*
X1843826Y1472774D02*
X1847826Y1476774D01*
X1843826Y1480774*
X1839826Y1476774*
X1843826Y1472774*
Y1476774D02*
Y1480774D01*
X1839441Y1464666D02*
X1843441Y1468666D01*
X1839441Y1472666*
X1835441Y1468666*
X1839441Y1464666*
Y1468666D02*
Y1472666D01*
X1866475Y1471535D02*
X1870475Y1475535D01*
X1866475Y1479535*
X1862475Y1475535*
X1866475Y1471535*
Y1475535D02*
Y1479535D01*
X1881868Y1464666D02*
X1885868Y1468666D01*
X1881868Y1472666*
X1877868Y1468666*
X1881868Y1464666*
Y1468666D02*
Y1472666D01*
X1874797Y1471737D02*
X1878797Y1475737D01*
X1874797Y1479737*
X1870797Y1475737*
X1874797Y1471737*
Y1475737D02*
Y1479737D01*
X1892459Y1468169D02*
X1896459Y1472169D01*
X1892459Y1476169*
X1888459Y1472169*
X1892459Y1468169*
Y1472169D02*
Y1476169D01*
X1893978Y1473981D02*
X1897978Y1477981D01*
X1893978Y1481981*
X1889978Y1477981*
X1893978Y1473981*
Y1477981D02*
Y1481981D01*
X1922845Y1473522D02*
X1926845Y1477522D01*
X1922845Y1481522*
X1918845Y1477522*
X1922845Y1473522*
Y1477522D02*
Y1481522D01*
X1928367Y1466773D02*
X1932367Y1470773D01*
X1928367Y1474773*
X1924367Y1470773*
X1928367Y1466773*
Y1470773D02*
Y1474773D01*
X1931365Y1471737D02*
X1935365Y1475737D01*
X1931365Y1479737*
X1927365Y1475737*
X1931365Y1471737*
Y1475737D02*
Y1479737D01*
X1937056Y1473653D02*
X1941056Y1477653D01*
X1937056Y1481653*
X1933056Y1477653*
X1937056Y1473653*
Y1477653D02*
Y1481653D01*
X1938436Y1464666D02*
X1942436Y1468666D01*
X1938436Y1472666*
X1934436Y1468666*
X1938436Y1464666*
Y1468666D02*
Y1472666D01*
X1941640Y1469098D02*
X1945640Y1473098D01*
X1941640Y1477098*
X1937640Y1473098*
X1941640Y1469098*
Y1473098D02*
Y1477098D01*
X1966477Y1467118D02*
X1970477Y1471118D01*
X1966477Y1475118*
X1962477Y1471118*
X1966477Y1467118*
Y1471118D02*
Y1475118D01*
X1964171Y1472227D02*
X1968171Y1476227D01*
X1964171Y1480227*
X1960171Y1476227*
X1964171Y1472227*
Y1476227D02*
Y1480227D01*
X1839441Y1478808D02*
X1843441Y1482808D01*
X1839441Y1486808*
X1835441Y1482808*
X1839441Y1478808*
Y1482808D02*
Y1486808D01*
X1863994Y1476982D02*
X1867994Y1480982D01*
X1863994Y1484982*
X1859994Y1480982*
X1863994Y1476982*
Y1480982D02*
Y1484982D01*
X1879477Y1475143D02*
X1883477Y1479143D01*
X1879477Y1483143*
X1875477Y1479143*
X1879477Y1475143*
Y1479143D02*
Y1483143D01*
X1891132Y1478852D02*
X1895132Y1482852D01*
X1891132Y1486852*
X1887132Y1482852*
X1891132Y1478852*
Y1482852D02*
Y1486852D01*
X1883592Y1483936D02*
X1891592D01*
X1883592Y1491936*
X1891592*
X1883592Y1483936*
X1898532Y1474289D02*
X1902532Y1478289D01*
X1898532Y1482289*
X1894532Y1478289*
X1898532Y1474289*
Y1478289D02*
Y1482289D01*
X1918728Y1476013D02*
X1922728Y1480013D01*
X1918728Y1484013*
X1914728Y1480013*
X1918728Y1476013*
Y1480013D02*
Y1484013D01*
X1952579Y1478808D02*
X1956579Y1482808D01*
X1952579Y1486808*
X1948579Y1482808*
X1952579Y1478808*
Y1482808D02*
Y1486808D01*
X1960825Y1478547D02*
X1964825Y1482547D01*
X1960825Y1486547*
X1956825Y1482547*
X1960825Y1478547*
Y1482547D02*
Y1486547D01*
X1966721Y1478808D02*
X1970721Y1482808D01*
X1966721Y1486808*
X1962721Y1482808*
X1966721Y1478808*
Y1482808D02*
Y1486808D01*
X1816043Y1486831D02*
X1820043Y1490831D01*
X1816043Y1494831*
X1812043Y1490831*
X1816043Y1486831*
Y1490831D02*
Y1494831D01*
X1830247Y1492461D02*
X1834247Y1496461D01*
X1830247Y1500461*
X1826247Y1496461*
X1830247Y1492461*
Y1496461D02*
Y1500461D01*
X1839287Y1491090D02*
X1843287Y1495090D01*
X1839287Y1499090*
X1835287Y1495090*
X1839287Y1491090*
Y1495090D02*
Y1499090D01*
X1850175Y1489691D02*
X1854175Y1493691D01*
X1850175Y1497691*
X1846175Y1493691*
X1850175Y1489691*
Y1493691D02*
Y1497691D01*
X1845173Y1489970D02*
X1849173Y1493970D01*
X1845173Y1497970*
X1841173Y1493970*
X1845173Y1489970*
Y1493970D02*
Y1497970D01*
X1873432Y1493046D02*
X1877432Y1497046D01*
X1873432Y1501046*
X1869432Y1497046*
X1873432Y1493046*
Y1497046D02*
Y1501046D01*
X1903282Y1492695D02*
X1907282Y1496695D01*
X1903282Y1500695*
X1899282Y1496695*
X1903282Y1492695*
Y1496695D02*
Y1500695D01*
X1912605Y1487464D02*
X1916605Y1491464D01*
X1912605Y1495464*
X1908605Y1491464*
X1912605Y1487464*
Y1491464D02*
Y1495464D01*
X1910152Y1492950D02*
X1914152Y1496950D01*
X1910152Y1500950*
X1906152Y1496950*
X1910152Y1492950*
Y1496950D02*
Y1500950D01*
X1905430Y1493027D02*
X1909430Y1497027D01*
X1905430Y1501027*
X1901430Y1497027*
X1905430Y1493027*
Y1497027D02*
Y1501027D01*
X1917053Y1492372D02*
X1921053Y1496372D01*
X1917053Y1500372*
X1913053Y1496372*
X1917053Y1492372*
Y1496372D02*
Y1500372D01*
X1917223Y1485879D02*
X1921223Y1489879D01*
X1917223Y1493879*
X1913223Y1489879*
X1917223Y1485879*
Y1489879D02*
Y1493879D01*
X1928958Y1486924D02*
X1932958Y1490924D01*
X1928958Y1494924*
X1924958Y1490924*
X1928958Y1486924*
Y1490924D02*
Y1494924D01*
X1938913Y1486675D02*
X1942913Y1490675D01*
X1938913Y1494675*
X1934913Y1490675*
X1938913Y1486675*
Y1490675D02*
Y1494675D01*
X1945507Y1485879D02*
X1949507Y1489879D01*
X1945507Y1493879*
X1941507Y1489879*
X1945507Y1485879*
Y1489879D02*
Y1493879D01*
X1959650Y1485879D02*
X1963650Y1489879D01*
X1959650Y1493879*
X1955650Y1489879*
X1959650Y1485879*
Y1489879D02*
Y1493879D01*
X1966721Y1492950D02*
X1970721Y1496950D01*
X1966721Y1500950*
X1962721Y1496950*
X1966721Y1492950*
Y1496950D02*
Y1500950D01*
X1853213Y1496458D02*
X1857213Y1500458D01*
X1853213Y1504458*
X1849213Y1500458*
X1853213Y1496458*
Y1500458D02*
Y1504458D01*
X1844364Y1497038D02*
X1848364Y1501038D01*
X1844364Y1505038*
X1840364Y1501038*
X1844364Y1497038*
Y1501038D02*
Y1505038D01*
X1866826Y1499037D02*
X1870826Y1503037D01*
X1866826Y1507037*
X1862826Y1503037*
X1866826Y1499037*
Y1503037D02*
Y1507037D01*
X1868917Y1503388D02*
X1872917Y1507388D01*
X1868917Y1511388*
X1864917Y1507388*
X1868917Y1503388*
Y1507388D02*
Y1511388D01*
X1871943Y1500218D02*
X1875943Y1504218D01*
X1871943Y1508218*
X1867943Y1504218*
X1871943Y1500218*
Y1504218D02*
Y1508218D01*
X1898534Y1498509D02*
X1902534Y1502509D01*
X1898534Y1506509*
X1894534Y1502509*
X1898534Y1498509*
Y1502509D02*
Y1506509D01*
X1904209Y1494686D02*
X1908209Y1498686D01*
X1904209Y1502686*
X1900209Y1498686*
X1904209Y1494686*
Y1498686D02*
Y1502686D01*
X1920171Y1499095D02*
X1924171Y1503095D01*
X1920171Y1507095*
X1916171Y1503095*
X1920171Y1499095*
Y1503095D02*
Y1507095D01*
X1938290Y1499598D02*
X1942290Y1503598D01*
X1938290Y1507598*
X1934290Y1503598*
X1938290Y1499598*
Y1503598D02*
Y1507598D01*
X1948243Y1501427D02*
X1952243Y1505427D01*
X1948243Y1509427*
X1944243Y1505427*
X1948243Y1501427*
Y1505427D02*
Y1509427D01*
X1959650Y1500021D02*
X1963650Y1504021D01*
X1959650Y1508021*
X1955650Y1504021*
X1959650Y1500021*
Y1504021D02*
Y1508021D01*
X1965525Y1503839D02*
X1969525Y1507839D01*
X1965525Y1511839*
X1961525Y1507839*
X1965525Y1503839*
Y1507839D02*
Y1511839D01*
X1818071Y1507399D02*
X1822071Y1511399D01*
X1818071Y1515399*
X1814071Y1511399*
X1818071Y1507399*
Y1511399D02*
Y1515399D01*
X1823152Y1507583D02*
X1827152Y1511583D01*
X1823152Y1515583*
X1819152Y1511583*
X1823152Y1507583*
Y1511583D02*
Y1515583D01*
X1830835Y1510560D02*
X1834835Y1514560D01*
X1830835Y1518560*
X1826835Y1514560*
X1830835Y1510560*
Y1514560D02*
Y1518560D01*
X1830874Y1504340D02*
X1834874Y1508340D01*
X1830874Y1512340*
X1826874Y1508340*
X1830874Y1504340*
Y1508340D02*
Y1512340D01*
X1839621Y1512850D02*
X1843621Y1516850D01*
X1839621Y1520850*
X1835621Y1516850*
X1839621Y1512850*
Y1516850D02*
Y1520850D01*
X1883814Y1509537D02*
X1887814Y1513537D01*
X1883814Y1517537*
X1879814Y1513537*
X1883814Y1509537*
Y1513537D02*
Y1517537D01*
X1879317Y1513453D02*
X1883317Y1517453D01*
X1879317Y1521453*
X1875317Y1517453*
X1879317Y1513453*
Y1517453D02*
Y1521453D01*
X1903512Y1507379D02*
X1907512Y1511379D01*
X1903512Y1515379*
X1899512Y1511379*
X1903512Y1507379*
Y1511379D02*
Y1515379D01*
X1820583Y1521568D02*
X1824583Y1525568D01*
X1820583Y1529568*
X1816583Y1525568*
X1820583Y1521568*
Y1525568D02*
Y1529568D01*
X1841448Y1519408D02*
X1845448Y1523408D01*
X1841448Y1527408*
X1837448Y1523408*
X1841448Y1519408*
Y1523408D02*
Y1527408D01*
X1846357Y1522312D02*
X1850357Y1526312D01*
X1846357Y1530312*
X1842357Y1526312*
X1846357Y1522312*
Y1526312D02*
Y1530312D01*
X1870904Y1519401D02*
X1874904Y1523401D01*
X1870904Y1527401*
X1866904Y1523401*
X1870904Y1519401*
Y1523401D02*
Y1527401D01*
X1884975Y1519111D02*
X1888975Y1523111D01*
X1884975Y1527111*
X1880975Y1523111*
X1884975Y1519111*
Y1523111D02*
Y1527111D01*
X1819671Y1525914D02*
X1823671Y1529914D01*
X1819671Y1533914*
X1815671Y1529914*
X1819671Y1525914*
Y1529914D02*
Y1533914D01*
X1829685Y1527560D02*
X1833685Y1531560D01*
X1829685Y1535560*
X1825685Y1531560*
X1829685Y1527560*
Y1531560D02*
Y1535560D01*
X1842224Y1527714D02*
X1846224Y1531714D01*
X1842224Y1535714*
X1838224Y1531714*
X1842224Y1527714*
Y1531714D02*
Y1535714D01*
X1866902Y1527123D02*
X1870902Y1531123D01*
X1866902Y1535123*
X1862902Y1531123*
X1866902Y1527123*
Y1531123D02*
Y1535123D01*
X1874344Y1527197D02*
X1878344Y1531197D01*
X1874344Y1535197*
X1870344Y1531197*
X1874344Y1527197*
Y1531197D02*
Y1535197D01*
X1881922Y1527197D02*
X1885922Y1531197D01*
X1881922Y1535197*
X1877922Y1531197*
X1881922Y1527197*
Y1531197D02*
Y1535197D01*
X1929457Y1877773D02*
X2187457D01*
X1929457Y1853773D02*
X2187457D01*
X1929457Y1829773D02*
X2187457D01*
X1929457Y1805773D02*
X2187457D01*
X1929457Y1781773D02*
X2187457D01*
X1929457Y1757773D02*
X2187457D01*
X1929457Y1733773D02*
X2187457D01*
X1929457Y1877773D02*
Y1733773D01*
X2013457Y1877773D02*
Y1733773D01*
X2049457Y1877773D02*
Y1733773D01*
X2085457Y1877773D02*
Y1733773D01*
X2139457Y1877773D02*
Y1733773D01*
X2187457Y1877773D02*
Y1733773D01*
X1958275Y1859773D02*
X1959821Y1862148D01*
X1960184Y1864148*
Y1867398*
X1960548Y1867648*
X1967639*
X1968002Y1867398*
Y1864773*
X1967639Y1864523*
X1960184*
X1964275D02*
X1965002Y1862773D01*
X1966912Y1860898*
X1969184Y1859773*
X1975002Y1862398D02*
X1974275Y1863648D01*
X1973184Y1864523*
X1971639Y1866273D02*
X1981730D01*
X1979548Y1868023D02*
Y1859773D01*
X1979184Y1859523*
X1976548Y1860023*
X2018275Y1862773D02*
X2023548D01*
X2022821D02*
X2022002Y1861273D01*
X2020912Y1860398*
X2018639Y1859523*
X2022821D02*
X2020912Y1860648D01*
X2019002Y1861273*
Y1861523*
X2020184Y1862398*
X2020912Y1863648*
Y1863898D02*
Y1868023D01*
X2018639D02*
X2019366Y1866773D01*
X2022002D02*
X2022821Y1868023D01*
X2023548Y1866273D02*
X2018639D01*
X2018275Y1864148D02*
X2019821Y1865023D01*
X2020912Y1866273*
X2023184Y1864773*
X2023912D02*
X2024639Y1866523D01*
Y1868023*
Y1866523D02*
X2029548D01*
X2028821D02*
X2028002Y1863898D01*
X2026184Y1860898*
X2024275Y1859523*
X2029184D02*
X2027639Y1860898D01*
X2025821Y1863898*
X2025002Y1866523*
X2031639Y1859773D02*
X2042548D01*
X2041730Y1860898D02*
X2032366D01*
X2033184Y1862398D02*
Y1864148D01*
X2033548Y1864523*
X2041002*
X2041366Y1864148*
Y1862398*
X2041002Y1862148*
X2033548*
X2033184Y1862398*
Y1863273D02*
X2041366D01*
X2037275Y1864523D02*
Y1859773D01*
X2032002Y1865398D02*
X2042912D01*
X2033184Y1866523D02*
Y1867648D01*
X2033548Y1868023*
X2041002*
X2041366Y1867648*
Y1866523*
X2041002Y1866273*
X2033548*
X2033184Y1866523*
Y1867148D02*
X2041366D01*
X2055002Y1863273D02*
X2056548Y1864523D01*
X2057639Y1865898*
X2056548Y1864523D02*
Y1859523D01*
X2061002Y1861523D02*
X2059548Y1863023D01*
X2058821Y1864523D02*
X2065548D01*
X2064002Y1865648D02*
Y1859773D01*
X2063639Y1859523*
X2062184Y1859773*
X2061002Y1861523D02*
X2059548Y1863023D01*
X2054275Y1866523D02*
X2055821Y1867398D01*
X2056184Y1868273*
X2055821Y1867398D02*
X2059912D01*
X2058366Y1866273D02*
X2056912Y1867398D01*
X2061821Y1868273D02*
X2061366Y1867398D01*
X2060275Y1866523*
X2061366Y1867398D02*
X2065548D01*
X2064002Y1866273D02*
X2062912Y1867398D01*
X2067639Y1863898D02*
X2078184D01*
X2070639D02*
X2069912Y1862398D01*
X2070275Y1862148*
X2076275*
X2076639Y1861898*
X2076275Y1859773*
X2075912Y1859523*
X2072912Y1859773*
X2069548Y1865648D02*
Y1867398D01*
X2069912Y1867648*
X2076275*
X2076639Y1867398*
Y1865648*
X2076275Y1865398*
X2069912*
X2069548Y1865648*
X2114957Y1865773D02*
Y1866148D01*
X2115230Y1866898*
X2115502Y1867273*
X2116048Y1867648*
X2117139*
X2117684Y1867273*
X2117957Y1866898*
X2118230Y1866148*
Y1865398*
X2117957Y1864648*
X2117684Y1864273*
X2116593Y1863523*
Y1862398*
Y1860523D02*
X2116321Y1860148D01*
X2116593Y1859773*
X2116866Y1860148*
X2116593Y1860523*
X2120684Y1865773D02*
Y1866148D01*
X2120957Y1866898*
X2121230Y1867273*
X2121775Y1867648*
X2122866*
X2123412Y1867273*
X2123684Y1866898*
X2123957Y1866148*
Y1865398*
X2123684Y1864648*
X2123412Y1864273*
X2122321Y1863523*
Y1862398*
Y1860523D02*
X2122048Y1860148D01*
X2122321Y1859773*
X2122593Y1860148*
X2122321Y1860523*
X2156139Y1867648D02*
Y1859773D01*
X2154230Y1867648D02*
X2158048D01*
X2162139D02*
X2161593Y1867273D01*
X2161048Y1866523*
X2160775Y1865773*
X2160502Y1864648*
Y1862773*
X2160775Y1861648*
X2161048Y1860898*
X2161593Y1860148*
X2162139Y1859773*
X2163230*
X2163775Y1860148*
X2164321Y1860898*
X2164593Y1861648*
X2164866Y1862773*
Y1864648*
X2164593Y1865773*
X2164321Y1866523*
X2163775Y1867273*
X2163230Y1867648*
X2162139*
X2167321D02*
Y1859773D01*
X2170593*
X1937093Y1843648D02*
X1936275Y1843273D01*
X1935730Y1842148*
X1935457Y1840273*
Y1839148*
X1935730Y1837273*
X1936275Y1836148*
X1937093Y1835773*
X1937639*
X1938457Y1836148*
X1939002Y1837273*
X1939275Y1839148*
Y1840273*
X1939002Y1842148*
X1938457Y1843273*
X1937639Y1843648*
X1937093*
X1942002Y1836523D02*
X1941730Y1836148D01*
X1942002Y1835773*
X1942275Y1836148*
X1942002Y1836523*
X1948002Y1842523D02*
X1947730Y1843273D01*
X1946912Y1843648*
X1946366*
X1945548Y1843273*
X1945002Y1842148*
X1944730Y1840273*
Y1838398*
X1945002Y1836898*
X1945548Y1836148*
X1946366Y1835773*
X1946639*
X1947457Y1836148*
X1948002Y1836898*
X1948275Y1838023*
Y1838398*
X1948002Y1839523*
X1947457Y1840273*
X1946639Y1840648*
X1946366*
X1945548Y1840273*
X1945002Y1839523*
X1944730Y1838398*
X1954275Y1843648D02*
X1951548D01*
X1951275Y1840273*
X1951548Y1840648*
X1952366Y1841023*
X1953184*
X1954002Y1840648*
X1954548Y1839898*
X1954821Y1838773*
X1954548Y1838023*
X1954275Y1836898*
X1953730Y1836148*
X1952912Y1835773*
X1952093*
X1951275Y1836148*
X1951002Y1836523*
X1950730Y1837273*
X2029048Y1843648D02*
X2032048D01*
X2030412Y1840648*
X2031230*
X2031775Y1840273*
X2032048Y1839898*
X2032321Y1838773*
Y1838023*
X2032048Y1836898*
X2031502Y1836148*
X2030684Y1835773*
X2029866*
X2029048Y1836148*
X2028775Y1836523*
X2028502Y1837273*
X2061457Y1841773D02*
X2073457D01*
X2067457Y1835773D02*
Y1847773D01*
X2094093Y1843648D02*
X2096275Y1839898D01*
Y1835773*
X2098457Y1843648D02*
X2096275Y1839898D01*
X2100912Y1843648D02*
Y1835773D01*
Y1843648D02*
X2104457D01*
X2100912Y1839898D02*
X2103093D01*
X2100912Y1835773D02*
X2104457D01*
X2110730Y1842523D02*
X2110184Y1843273D01*
X2109366Y1843648*
X2108275*
X2107457Y1843273*
X2106912Y1842523*
Y1841773*
X2107184Y1841023*
X2107457Y1840648*
X2108002Y1840273*
X2109639Y1839523*
X2110184Y1839148*
X2110457Y1838773*
X2110730Y1838023*
Y1836898*
X2110184Y1836148*
X2109366Y1835773*
X2108275*
X2107457Y1836148*
X2106912Y1836898*
X2147275Y1842523D02*
Y1835773D01*
X2144821Y1839148D02*
X2149730D01*
X2157093Y1845148D02*
X2152184Y1833148D01*
X2159548Y1839148D02*
X2164457D01*
X2168548Y1843648D02*
X2167730Y1843273D01*
X2167184Y1842148*
X2166912Y1840273*
Y1839148*
X2167184Y1837273*
X2167730Y1836148*
X2168548Y1835773*
X2169093*
X2169912Y1836148*
X2170457Y1837273*
X2170730Y1839148*
Y1840273*
X2170457Y1842148*
X2169912Y1843273*
X2169093Y1843648*
X2168548*
X2173457Y1836523D02*
X2173184Y1836148D01*
X2173457Y1835773*
X2173730Y1836148*
X2173457Y1836523*
X2177821Y1843648D02*
X2177002Y1843273D01*
X2176457Y1842148*
X2176184Y1840273*
Y1839148*
X2176457Y1837273*
X2177002Y1836148*
X2177821Y1835773*
X2178366*
X2179184Y1836148*
X2179730Y1837273*
X2180002Y1839148*
Y1840273*
X2179730Y1842148*
X2179184Y1843273*
X2178366Y1843648*
X2177821*
X1937093Y1819648D02*
X1936275Y1819273D01*
X1935730Y1818148*
X1935457Y1816273*
Y1815148*
X1935730Y1813273*
X1936275Y1812148*
X1937093Y1811773*
X1937639*
X1938457Y1812148*
X1939002Y1813273*
X1939275Y1815148*
Y1816273*
X1939002Y1818148*
X1938457Y1819273*
X1937639Y1819648*
X1937093*
X1942002Y1812523D02*
X1941730Y1812148D01*
X1942002Y1811773*
X1942275Y1812148*
X1942002Y1812523*
X1946093Y1819648D02*
X1945275Y1819273D01*
X1945002Y1818523*
Y1817773*
X1945275Y1817023*
X1945821Y1816648*
X1946912Y1816273*
X1947730Y1815898*
X1948275Y1815148*
X1948548Y1814398*
Y1813273*
X1948275Y1812523*
X1948002Y1812148*
X1947184Y1811773*
X1946093*
X1945275Y1812148*
X1945002Y1812523*
X1944730Y1813273*
Y1814398*
X1945002Y1815148*
X1945548Y1815898*
X1946366Y1816273*
X1947457Y1816648*
X1948002Y1817023*
X1948275Y1817773*
Y1818523*
X1948002Y1819273*
X1947184Y1819648*
X1946093*
X1952366D02*
X1951548Y1819273D01*
X1951275Y1818523*
Y1817773*
X1951548Y1817023*
X1952093Y1816648*
X1953184Y1816273*
X1954002Y1815898*
X1954548Y1815148*
X1954821Y1814398*
Y1813273*
X1954548Y1812523*
X1954275Y1812148*
X1953457Y1811773*
X1952366*
X1951548Y1812148*
X1951275Y1812523*
X1951002Y1813273*
Y1814398*
X1951275Y1815148*
X1951821Y1815898*
X1952639Y1816273*
X1953730Y1816648*
X1954275Y1817023*
X1954548Y1817773*
Y1818523*
X1954275Y1819273*
X1953457Y1819648*
X1952366*
X1960821Y1817023D02*
X1960548Y1815898D01*
X1960002Y1815148*
X1959184Y1814773*
X1958912*
X1958093Y1815148*
X1957548Y1815898*
X1957275Y1817023*
Y1817398*
X1957548Y1818523*
X1958093Y1819273*
X1958912Y1819648*
X1959184*
X1960002Y1819273*
X1960548Y1818523*
X1960821Y1817023*
Y1815148*
X1960548Y1813273*
X1960002Y1812148*
X1959184Y1811773*
X1958639*
X1957821Y1812148*
X1957548Y1812898*
X2031093Y1819648D02*
X2028366Y1814398D01*
X2032457*
X2031093Y1819648D02*
Y1811773D01*
X2061457D02*
X2073457Y1823773D01*
X2061457D02*
X2073457Y1811773D01*
X2094093Y1819648D02*
X2096275Y1815898D01*
Y1811773*
X2098457Y1819648D02*
X2096275Y1815898D01*
X2100912Y1819648D02*
Y1811773D01*
Y1819648D02*
X2104457D01*
X2100912Y1815898D02*
X2103093D01*
X2100912Y1811773D02*
X2104457D01*
X2110730Y1818523D02*
X2110184Y1819273D01*
X2109366Y1819648*
X2108275*
X2107457Y1819273*
X2106912Y1818523*
Y1817773*
X2107184Y1817023*
X2107457Y1816648*
X2108002Y1816273*
X2109639Y1815523*
X2110184Y1815148*
X2110457Y1814773*
X2110730Y1814023*
Y1812898*
X2110184Y1812148*
X2109366Y1811773*
X2108275*
X2107457Y1812148*
X2106912Y1812898*
X2147275Y1818523D02*
Y1811773D01*
X2144821Y1815148D02*
X2149730D01*
X2157093Y1821148D02*
X2152184Y1809148D01*
X2159548Y1815148D02*
X2164457D01*
X2168548Y1819648D02*
X2167730Y1819273D01*
X2167184Y1818148*
X2166912Y1816273*
Y1815148*
X2167184Y1813273*
X2167730Y1812148*
X2168548Y1811773*
X2169093*
X2169912Y1812148*
X2170457Y1813273*
X2170730Y1815148*
Y1816273*
X2170457Y1818148*
X2169912Y1819273*
X2169093Y1819648*
X2168548*
X2173457Y1812523D02*
X2173184Y1812148D01*
X2173457Y1811773*
X2173730Y1812148*
X2173457Y1812523*
X2177821Y1819648D02*
X2177002Y1819273D01*
X2176457Y1818148*
X2176184Y1816273*
Y1815148*
X2176457Y1813273*
X2177002Y1812148*
X2177821Y1811773*
X2178366*
X2179184Y1812148*
X2179730Y1813273*
X2180002Y1815148*
Y1816273*
X2179730Y1818148*
X2179184Y1819273*
X2178366Y1819648*
X2177821*
X1935457Y1794148D02*
X1936002Y1794523D01*
X1936821Y1795648*
Y1787773*
X1939548Y1788523D02*
X1939275Y1788148D01*
X1939548Y1787773*
X1939821Y1788148*
X1939548Y1788523*
X1942548Y1793773D02*
Y1794148D01*
X1942821Y1794898*
X1943093Y1795273*
X1943639Y1795648*
X1944730*
X1945275Y1795273*
X1945548Y1794898*
X1945821Y1794148*
Y1793398*
X1945548Y1792648*
X1945002Y1791523*
X1942275Y1787773*
X1946093*
X2028775Y1793773D02*
Y1794148D01*
X2029048Y1794898*
X2029321Y1795273*
X2029866Y1795648*
X2030957*
X2031502Y1795273*
X2031775Y1794898*
X2032048Y1794148*
Y1793398*
X2031775Y1792648*
X2031230Y1791523*
X2028502Y1787773*
X2032321*
X2061457D02*
X2073457D01*
Y1799773*
X2061457*
Y1787773*
X2067457Y1793773D02*
Y1799773D01*
X2094093Y1795648D02*
X2096275Y1791898D01*
Y1787773*
X2098457Y1795648D02*
X2096275Y1791898D01*
X2100912Y1795648D02*
Y1787773D01*
Y1795648D02*
X2104457D01*
X2100912Y1791898D02*
X2103093D01*
X2100912Y1787773D02*
X2104457D01*
X2110730Y1794523D02*
X2110184Y1795273D01*
X2109366Y1795648*
X2108275*
X2107457Y1795273*
X2106912Y1794523*
Y1793773*
X2107184Y1793023*
X2107457Y1792648*
X2108002Y1792273*
X2109639Y1791523*
X2110184Y1791148*
X2110457Y1790773*
X2110730Y1790023*
Y1788898*
X2110184Y1788148*
X2109366Y1787773*
X2108275*
X2107457Y1788148*
X2106912Y1788898*
X2147275Y1794523D02*
Y1787773D01*
X2144821Y1791148D02*
X2149730D01*
X2157093Y1797148D02*
X2152184Y1785148D01*
X2159548Y1791148D02*
X2164457D01*
X2168548Y1795648D02*
X2167730Y1795273D01*
X2167184Y1794148*
X2166912Y1792273*
Y1791148*
X2167184Y1789273*
X2167730Y1788148*
X2168548Y1787773*
X2169093*
X2169912Y1788148*
X2170457Y1789273*
X2170730Y1791148*
Y1792273*
X2170457Y1794148*
X2169912Y1795273*
X2169093Y1795648*
X2168548*
X2173457Y1788523D02*
X2173184Y1788148D01*
X2173457Y1787773*
X2173730Y1788148*
X2173457Y1788523*
X2177821Y1795648D02*
X2177002Y1795273D01*
X2176457Y1794148*
X2176184Y1792273*
Y1791148*
X2176457Y1789273*
X2177002Y1788148*
X2177821Y1787773*
X2178366*
X2179184Y1788148*
X2179730Y1789273*
X2180002Y1791148*
Y1792273*
X2179730Y1794148*
X2179184Y1795273*
X2178366Y1795648*
X2177821*
X1937093Y1771648D02*
X1936275Y1771273D01*
X1935730Y1770148*
X1935457Y1768273*
Y1767148*
X1935730Y1765273*
X1936275Y1764148*
X1937093Y1763773*
X1937639*
X1938457Y1764148*
X1939002Y1765273*
X1939275Y1767148*
Y1768273*
X1939002Y1770148*
X1938457Y1771273*
X1937639Y1771648*
X1937093*
X1942002Y1764523D02*
X1941730Y1764148D01*
X1942002Y1763773*
X1942275Y1764148*
X1942002Y1764523*
X1945275Y1771648D02*
X1948275D01*
X1946639Y1768648*
X1947457*
X1948002Y1768273*
X1948275Y1767898*
X1948548Y1766773*
Y1766023*
X1948275Y1764898*
X1947730Y1764148*
X1946912Y1763773*
X1946093*
X1945275Y1764148*
X1945002Y1764523*
X1944730Y1765273*
X2023866Y1769773D02*
Y1770148D01*
X2024139Y1770898*
X2024412Y1771273*
X2024957Y1771648*
X2026048*
X2026593Y1771273*
X2026866Y1770898*
X2027139Y1770148*
Y1769398*
X2026866Y1768648*
X2026321Y1767523*
X2023593Y1763773*
X2027412*
X2033139Y1770523D02*
X2032866Y1771273D01*
X2032048Y1771648*
X2031502*
X2030684Y1771273*
X2030139Y1770148*
X2029866Y1768273*
Y1766398*
X2030139Y1764898*
X2030684Y1764148*
X2031502Y1763773*
X2031775*
X2032593Y1764148*
X2033139Y1764898*
X2033412Y1766023*
Y1766398*
X2033139Y1767523*
X2032593Y1768273*
X2031775Y1768648*
X2031502*
X2030684Y1768273*
X2030139Y1767523*
X2029866Y1766398*
X2035866Y1770148D02*
X2036412Y1770523D01*
X2037230Y1771648*
Y1763773*
X2067457D02*
X2073457Y1769773D01*
X2067457Y1775773*
X2061457Y1769773*
X2067457Y1763773*
Y1769773D02*
Y1775773D01*
X2094093Y1771648D02*
X2096275Y1767898D01*
Y1763773*
X2098457Y1771648D02*
X2096275Y1767898D01*
X2100912Y1771648D02*
Y1763773D01*
Y1771648D02*
X2104457D01*
X2100912Y1767898D02*
X2103093D01*
X2100912Y1763773D02*
X2104457D01*
X2110730Y1770523D02*
X2110184Y1771273D01*
X2109366Y1771648*
X2108275*
X2107457Y1771273*
X2106912Y1770523*
Y1769773*
X2107184Y1769023*
X2107457Y1768648*
X2108002Y1768273*
X2109639Y1767523*
X2110184Y1767148*
X2110457Y1766773*
X2110730Y1766023*
Y1764898*
X2110184Y1764148*
X2109366Y1763773*
X2108275*
X2107457Y1764148*
X2106912Y1764898*
X2147275Y1770523D02*
Y1763773D01*
X2144821Y1767148D02*
X2149730D01*
X2157093Y1773148D02*
X2152184Y1761148D01*
X2159548Y1767148D02*
X2164457D01*
X2168548Y1771648D02*
X2167730Y1771273D01*
X2167184Y1770148*
X2166912Y1768273*
Y1767148*
X2167184Y1765273*
X2167730Y1764148*
X2168548Y1763773*
X2169093*
X2169912Y1764148*
X2170457Y1765273*
X2170730Y1767148*
Y1768273*
X2170457Y1770148*
X2169912Y1771273*
X2169093Y1771648*
X2168548*
X2173457Y1764523D02*
X2173184Y1764148D01*
X2173457Y1763773*
X2173730Y1764148*
X2173457Y1764523*
X2177821Y1771648D02*
X2177002Y1771273D01*
X2176457Y1770148*
X2176184Y1768273*
Y1767148*
X2176457Y1765273*
X2177002Y1764148*
X2177821Y1763773*
X2178366*
X2179184Y1764148*
X2179730Y1765273*
X2180002Y1767148*
Y1768273*
X2179730Y1770148*
X2179184Y1771273*
X2178366Y1771648*
X2177821*
X1937093Y1747648D02*
X1936275Y1747273D01*
X1935730Y1746148*
X1935457Y1744273*
Y1743148*
X1935730Y1741273*
X1936275Y1740148*
X1937093Y1739773*
X1937639*
X1938457Y1740148*
X1939002Y1741273*
X1939275Y1743148*
Y1744273*
X1939002Y1746148*
X1938457Y1747273*
X1937639Y1747648*
X1937093*
X1942002Y1740523D02*
X1941730Y1740148D01*
X1942002Y1739773*
X1942275Y1740148*
X1942002Y1740523*
X1948002Y1746523D02*
X1947730Y1747273D01*
X1946912Y1747648*
X1946366*
X1945548Y1747273*
X1945002Y1746148*
X1944730Y1744273*
Y1742398*
X1945002Y1740898*
X1945548Y1740148*
X1946366Y1739773*
X1946639*
X1947457Y1740148*
X1948002Y1740898*
X1948275Y1742023*
Y1742398*
X1948002Y1743523*
X1947457Y1744273*
X1946639Y1744648*
X1946366*
X1945548Y1744273*
X1945002Y1743523*
X1944730Y1742398*
X2028775Y1745773D02*
Y1746148D01*
X2029048Y1746898*
X2029321Y1747273*
X2029866Y1747648*
X2030957*
X2031502Y1747273*
X2031775Y1746898*
X2032048Y1746148*
Y1745398*
X2031775Y1744648*
X2031230Y1743523*
X2028502Y1739773*
X2032321*
X2061457D02*
X2073457D01*
X2061457Y1751773*
X2073457*
X2061457Y1739773*
X2094093Y1747648D02*
X2096275Y1743898D01*
Y1739773*
X2098457Y1747648D02*
X2096275Y1743898D01*
X2100912Y1747648D02*
Y1739773D01*
Y1747648D02*
X2104457D01*
X2100912Y1743898D02*
X2103093D01*
X2100912Y1739773D02*
X2104457D01*
X2110730Y1746523D02*
X2110184Y1747273D01*
X2109366Y1747648*
X2108275*
X2107457Y1747273*
X2106912Y1746523*
Y1745773*
X2107184Y1745023*
X2107457Y1744648*
X2108002Y1744273*
X2109639Y1743523*
X2110184Y1743148*
X2110457Y1742773*
X2110730Y1742023*
Y1740898*
X2110184Y1740148*
X2109366Y1739773*
X2108275*
X2107457Y1740148*
X2106912Y1740898*
X2147275Y1746523D02*
Y1739773D01*
X2144821Y1743148D02*
X2149730D01*
X2157093Y1749148D02*
X2152184Y1737148D01*
X2159548Y1743148D02*
X2164457D01*
X2168548Y1747648D02*
X2167730Y1747273D01*
X2167184Y1746148*
X2166912Y1744273*
Y1743148*
X2167184Y1741273*
X2167730Y1740148*
X2168548Y1739773*
X2169093*
X2169912Y1740148*
X2170457Y1741273*
X2170730Y1743148*
Y1744273*
X2170457Y1746148*
X2169912Y1747273*
X2169093Y1747648*
X2168548*
X2173457Y1740523D02*
X2173184Y1740148D01*
X2173457Y1739773*
X2173730Y1740148*
X2173457Y1740523*
X2177821Y1747648D02*
X2177002Y1747273D01*
X2176457Y1746148*
X2176184Y1744273*
Y1743148*
X2176457Y1741273*
X2177002Y1740148*
X2177821Y1739773*
X2178366*
X2179184Y1740148*
X2179730Y1741273*
X2180002Y1743148*
Y1744273*
X2179730Y1746148*
X2179184Y1747273*
X2178366Y1747648*
X2177821*
G54D77*
X1818157Y1535561D02*
G75*
G03X1813157Y1530561I0J-5000D01*
G01X1818157Y1535561D02*
X1966700D01*
X1971700Y1530561D02*
G03X1966700Y1535561I-5000J0D01*
G01X1971700Y1530561D02*
Y1327530D01*
X1966700Y1322530D02*
G03X1971700Y1327530I0J5000D01*
G01X1966700Y1322530D02*
X1928359D01*
Y1369380*
X1853504*
Y1322552*
X1818152*
X1813157Y1327523D02*
G03X1818154Y1322552I4988J17D01*
G01X1813157Y1327525D02*
Y1530561D01*
X1829417Y1418789D02*
G03X1829417I-4213J0D01*
G01X1933721D02*
G03X1933721I-4252J0D01*
G01X1888403Y1533590D02*
X1891422D01*
Y1519730*
X1888403*
Y1533590*
X1965932Y1515081D02*
X1895824D01*
Y1518417*
X1965932*
Y1515081*
G74*
X0Y0D02*
M02*
