%
T1C.01181F0S0
X000291Y005793
X-000035Y006429
X000998Y0065
X000291Y007207
X000318Y008179
X-001123Y008621
X001018Y008697
X000999Y008914
X-000401Y009099
X-001123Y010036
X000291Y010036
X-000873Y010866
X000875Y011185
X-001123Y01145
X000767Y012259
X-001123Y012864
X000741Y013109
X-001123Y014278
X000996Y014344
X000998Y014985
X-001123Y015692
X000998Y0164
X-001341Y017202
X000983Y017628
X000079Y017765
X000142Y018953
X-001139Y019259
X-000631Y019277
X000138Y019575
X001016Y019804
X-000887Y020676
X-000979Y02111
X000023Y021275
X001277Y02129
X00169Y02075
X001199Y02046
X001491Y018223
X002376Y018165
X001572Y017516
X002072Y017488
X003454Y016217
X001437Y015796
X003088Y014472
X002369Y014446
X001706Y014278
X001711Y013354
X001496Y013338
X001616Y013161
X003019Y012906
X001804Y012777
X002648Y012712
X003421Y011738
X001295Y0111
X003427Y010701
X001312Y01058
X00309Y01057
X00194Y010132
X002388Y009574
X001183Y009527
X003095Y008867
X001238Y008834
X001706Y008621
X002413Y007914
X001734Y007583
X003172Y00723
X0027Y007144
X003504Y006557
X003944Y00552
X005043Y005916
X004515Y006001
X004097Y006025
X004294Y006183
X005351Y006193
X004097Y006384
X004473Y006407
X005601Y006792
X004601Y006794
X006143Y007936
X004175Y007984
X00498Y00801
X00529Y00804
X003824Y008326
X005275Y009075
X00604Y00942
X004573Y00947
X004296Y009729
X005087Y010081
X004345Y010159
X005517Y010543
X00376Y01056
X004655Y010662
X004573Y010885
X004173Y011611
X003827Y012157
X005409Y012578
X004154Y012783
X005812Y012862
X005401Y012868
X003885Y013729
X005196Y014216
X005241Y014985
X003702Y015672
X004534Y015692
X005002Y016033
X004398Y017823
X003737Y018422
X004249Y018541
X003946Y018858
X005436Y019473
X004986Y019864
X005552Y02043
X004145Y020459
X003744Y021231
X004489Y021238
X005246Y021238
X007406Y019257
X006908Y01837
X007475Y017987
X007597Y017822
X00807Y017814
X007383Y017788
X008315Y017265
X006168Y016404
X006908Y015948
X006452Y015917
X0063Y015336
X006162Y014323
X006164Y013856
X008587Y013764
X007139Y013625
X006944Y01332
X007432Y013192
X006506Y013101
X008636Y013089
X006859Y012969
X007735Y012872
X007177Y012819
X008081Y012457
X006518Y012075
X007014Y011795
X006877Y011486
X008164Y011202
X007556Y010903
X006418Y010885
X007776Y01063
X008391Y010626
X006896Y010262
X007754Y009993
X00854Y009244
X007371Y009089
X00665Y007939
X00636Y00789
X007927Y007578
X008224Y007516
X008313Y006886
X007996Y006848
X00725Y00671
X007731Y006411
X00655Y006021
X00624Y005967
X006909Y005931
X007441Y005508
X007789Y005347
X010153Y000692
X010874Y001088
X010592Y001416
X01053Y002103
X010896Y003083
X009919Y005338
X008981Y006012
X009156Y006335
X011131Y00717
X010965Y007652
X011078Y007847
X010797Y007868
X010966Y008321
X010632Y008609
X010988Y009014
X010914Y009388
X010601Y009414
X009558Y009427
X009349Y010435
X01048Y010509
X010487Y011606
X009681Y01161
X00874Y011759
X008684Y012312
X008903Y013737
X009791Y01389
X011106Y013964
X008696Y014153
X008818Y014837
X010898Y014985
X009891Y015196
X010191Y015692
X009339Y015871
X01076Y015884
X008927Y01612
X008777Y017107
X010946Y017186
X00995Y017211
X00876Y017756
X009071Y018428
X010883Y018479
X013607Y018903
X011879Y018662
X013019Y018521
X011605Y017107
X013019Y017107
X012312Y0164
X013137Y016374
X013471Y015742
X011218Y015429
X011689Y013964
X012288Y013816
X01196Y013511
X01365Y013105
X01196Y013066
X011929Y012222
X011945Y011762
X01278Y009941
X012456Y009915
X013117Y009731
X011976Y009582
X012978Y009569
X013217Y009542
X012693Y009392
X012194Y009349
X011253Y009008
X01133Y008343
X012781Y007397
X013036Y007334
X01244Y00724
X013542Y007204
X012672Y006746
X012581Y006522
X01263Y005484
X012658Y004924
X01267Y004427
X012559Y00388
X012544Y003356
X013059Y002878
X012341Y002878
X011301Y002409
X012537Y002373
X01217Y001929
X012535Y001846
X013605Y001812
X012543Y001399
X01376Y00101
X013771Y004679
X013784Y005171
X013761Y005656
X013863Y005899
X013691Y007073
X013679Y007349
X013726Y012157
X013726Y013571
X013702Y015231
X013726Y0164
X013726Y017814
T2C.02362F0S0
X008779Y007896
X005814Y016912
T3C.02559F0S0
X005052Y020832
X004552Y020832
X004052Y020832
T4C.035F0S0
X-000413Y003281
X001187Y003281
X-000413Y004681
X001147Y004681
T5C.04724F0S0
X006684Y020787
X013584Y020787
M30
