*
*
G04 PADS 9.5 Build Number: 522968 generated Gerber (RS-274-X) file*
G04 PC Version=2.1*
*
%IN "AD5420_POWER_V1.6.pcb"*%
*
%MOIN*%
*
%FSLAX35Y35*%
*
*
*
*
G04 PC Standard Apertures*
*
*
G04 Thermal Relief Aperture macro.*
%AMTER*
1,1,$1,0,0*
1,0,$1-$2,0,0*
21,0,$3,$4,0,0,45*
21,0,$3,$4,0,0,135*
%
*
*
G04 Annular Aperture macro.*
%AMANN*
1,1,$1,0,0*
1,0,$2,0,0*
%
*
*
G04 Odd Aperture macro.*
%AMODD*
1,1,$1,0,0*
1,0,$1-0.005,0,0*
%
*
*
G04 PC Custom Aperture Macros*
*
*
*
*
*
*
G04 PC Aperture Table*
*
%ADD010C,0.001*%
%ADD014C,0.03937*%
%ADD015R,0.036X0.03*%
%ADD019R,0.03X0.036*%
%ADD027R,0.036X0.036*%
%ADD029R,0.056X0.05*%
%ADD033R,0.036X0.05*%
%ADD035C,0.00984*%
%ADD036C,0.01181*%
%ADD037C,0.00787*%
%ADD038C,0.01575*%
%ADD039C,0.01378*%
%ADD040C,0.01969*%
%ADD041C,0.01*%
%ADD042R,0.09449X0.02953*%
%ADD043R,0.074X0.02*%
%ADD044O,0.074X0.02*%
%ADD077C,0.00394*%
%ADD083R,0.02X0.02*%
%ADD084R,0.05X0.056*%
%ADD087R,0.03543X0.03543*%
%ADD092C,0.0315*%
%ADD093C,0.02756*%
%ADD094C,0.03543*%
%ADD099C,0.02362*%
%ADD124R,0.06X0.06*%
%ADD125C,0.06*%
%ADD126C,0.0063*%
%ADD128C,0.01339*%
%ADD131O,0.03937X0.01181*%
%ADD132O,0.07087X0.09843*%
%ADD133C,0.01102*%
%ADD145C,0.00669*%
%ADD146C,0.01772*%
%ADD149C,0.00709*%
*
*
*
*
G04 PC Circuitry*
G04 Layer Name AD5420_POWER_V1.6.pcb - circuitry*
%LPD*%
*
*
G04 PC Custom Flashes*
G04 Layer Name AD5420_POWER_V1.6.pcb - flashes*
%LPD*%
*
*
G04 PC Circuitry*
G04 Layer Name AD5420_POWER_V1.6.pcb - circuitry*
%LPD*%
*
G54D10*
G54D14*
G01X1987552Y1698087D03*
G54D15*
X2051520Y1595411D03*
X2057520D03*
X2057601Y1601004D03*
X2051601D03*
X2057601Y1589419D03*
X2051601D03*
X2018744Y1586733D03*
X2024744D03*
X1963492Y1699924D03*
X1957492D03*
X1963492Y1694452D03*
X1957492D03*
X1963545Y1689045D03*
X1957545D03*
X1963502Y1683536D03*
X1957502D03*
X2067926Y1578461D03*
X2073926D03*
X2067926Y1572989D03*
X2073926D03*
X2073887Y1567083D03*
X2067887D03*
X2001972Y1601898D03*
X2007972D03*
X2024442Y1592658D03*
X2018442D03*
X2027270Y1579818D03*
X2021270D03*
X1933444Y1602169D03*
X1939444D03*
X1933237Y1609270D03*
X1939237D03*
X1933383Y1615890D03*
X1939383D03*
G54D19*
X2004648Y1574355D03*
Y1580355D03*
X2028034Y1567854D03*
Y1573854D03*
X1989929Y1580571D03*
Y1574571D03*
X1981632Y1574266D03*
Y1580266D03*
X1997614Y1580571D03*
Y1574571D03*
X2037997Y1559193D03*
Y1553193D03*
X1972052Y1544968D03*
Y1550968D03*
G54D27*
X2010021Y1594714D03*
X2002521Y1594908D03*
G54D29*
X1955888Y1607691D03*
X1946888D03*
G54D33*
X2006271Y1586714D03*
G54D35*
X2074830Y1496755D02*
X2077213Y1499138D01*
Y1521656*
X2074878Y1523991*
X2072816*
X2074830Y1496755D02*
X2043969D01*
X2039454Y1501270*
Y1521544*
X2039362Y1521637*
Y1550919*
X2037087Y1553193*
X2054702Y1503188D02*
X2051454D01*
X2045990Y1508651*
Y1520598*
X2066406Y1507940D02*
X2067166Y1508016D01*
X2070064Y1508306*
X2067166Y1508700D02*
X2066406Y1507940D01*
Y1508772*
X2066249*
X2066406Y1507940D02*
X2066249Y1507783D01*
Y1508695*
X2066249D02*
X2066171Y1508772D01*
X2066249*
X2070064Y1508306D02*
X2067166Y1508700D01*
X2073080Y1507890D02*
X2072664Y1508306D01*
X2070064*
X2042325Y1510799D02*
Y1557151D01*
X2042213Y1557263*
Y1567614*
X2054702Y1518543D02*
X2060440D01*
X2060440*
X2070064Y1523661D02*
X2070394Y1523991D01*
X2072816*
X2070064Y1523661D02*
X2072816Y1523991D01*
X1983036Y1557707D02*
X1979052D01*
X1978295Y1558464*
X1978371Y1558540*
Y1558952*
X1992997Y1556071D02*
X1993036Y1556111D01*
Y1557690*
X2009528Y1556867D02*
Y1559590D01*
X2008040Y1561078*
Y1571229*
X2004914Y1574355*
X2004648*
X2037997Y1553193D02*
X2037087D01*
X2034728*
X2013182Y1574739*
Y1578228*
X2054702Y1554369D02*
X2057950D01*
X2061428Y1557848*
Y1562167*
X2037997Y1559193D02*
Y1563737D01*
X2036408Y1565326*
X2042213Y1567614D02*
Y1572614D01*
X2039108Y1575720*
X2037708*
X2042213Y1567614D02*
X2039108Y1570720D01*
X2054702Y1559487D02*
X2052145Y1559881D01*
X2049482Y1561445*
X2048343Y1561469*
X1986828Y1572466D02*
X1985634D01*
X1983834Y1574266*
X1981632*
X1986828Y1572466D02*
Y1582581D01*
X1989928Y1570167D02*
X1989929Y1574271D01*
Y1574571*
X1986828Y1569867D02*
Y1572466D01*
X1989929Y1574571D02*
X1997614D01*
X2010689Y1580721D02*
X2013182Y1578228D01*
X2014570Y1579766*
Y1589696*
X2036845Y1575663D02*
X2036918Y1575720D01*
X2037708*
X2036918Y1575663D02*
Y1575720D01*
X2036408Y1575326D02*
X2036845Y1575663D01*
X2036408Y1570326D02*
X2039108Y1570720D01*
X2059008Y1575326D02*
X2058480Y1575854D01*
X2043343*
X2067926Y1572989D02*
X2067639Y1572701D01*
X2064275*
X2061650Y1575326*
X2059008*
X1986828Y1582581D02*
Y1585310D01*
X1987894Y1586376*
Y1590581*
X1986828Y1582581D02*
X1988215Y1583967D01*
X1997428*
X1997614Y1580571D02*
X1997428D01*
Y1583967*
X2010734Y1580655D02*
X2010689Y1580721D01*
X2004648Y1580355D02*
Y1586368D01*
X2005925*
X2006271Y1586714*
X2027270Y1579818D02*
X2035936D01*
X2036408Y1580289*
Y1580326*
X2024744Y1586733D02*
X2018818Y1592658D01*
X2018442*
X2061589Y1588917D02*
Y1589273D01*
X2057601*
Y1589419*
X1955673Y1595608D02*
X1956717D01*
X1959670Y1598562*
X1962177*
X1962251Y1598636*
X1967928Y1595467D02*
Y1602101D01*
X1963673Y1606357*
X1974628Y1595367D02*
X1972464Y1593203D01*
X1966991*
X1965582Y1594612*
Y1601889*
X1963673Y1603798*
X1994876Y1597575D02*
X1992373D01*
X1991313Y1598636*
X1987842*
X2002521Y1594908D02*
Y1595900D01*
X2002248Y1596174*
X2007972Y1601898*
X1951694Y1600722D02*
Y1600767D01*
X1949977*
X1955513Y1600722D02*
Y1600882D01*
X1961779*
X1962251Y1601195*
Y1606313D02*
Y1606357D01*
X1963673*
X1962251Y1603754D02*
Y1603798D01*
X1963673*
X1987842Y1606313D02*
X1987834Y1606305D01*
X1984497*
X1982968Y1607834*
Y1618817*
X1987842Y1601195D02*
X1991708D01*
X1992036Y1601523*
X1995081*
Y1601735*
X1994947Y1601869*
X1987842Y1603754D02*
X1991761D01*
X1994947Y1605688*
X1987842Y1608872D02*
X1993749D01*
X1995076Y1610199*
Y1610235*
X2007972Y1601898D02*
X2005803Y1604628D01*
X1987842Y1611431D02*
Y1617762D01*
X1986787Y1618817*
X1938406Y1685515D02*
X1944220Y1691329D01*
X1955261*
X1938446Y1679294D02*
X1942687Y1683536D01*
X1957502*
X1928154Y1696523D02*
X1931556Y1699924D01*
X1957492*
X1957545Y1689045D02*
X1956938D01*
X1955552Y1691037*
X1955261Y1691329*
X1957492Y1694452D02*
X1957442D01*
X1953928Y1697267*
G54D36*
X1972068Y1555340D02*
Y1556441D01*
X1972055Y1556455*
X1974552Y1558952*
X1990535Y1551701D02*
X1992975D01*
X1992997Y1551724*
Y1552252*
X2070206Y1560023D02*
Y1559565D01*
X2072451Y1561810*
X2070064Y1559739D02*
Y1559881D01*
X2070206Y1560023*
X2070064Y1559739D02*
X2070206Y1559881D01*
Y1559900D02*
X2072038Y1561810D01*
X2070064Y1559487D02*
Y1559739D01*
X2072038Y1561810D02*
X2073239Y1562933D01*
X2073817Y1563256*
X2072038Y1561810D02*
X2072451D01*
X2073936Y1560502D02*
Y1563256D01*
X2073817*
X2010021Y1594714D02*
X2012585Y1597278D01*
Y1598800*
X1946888Y1607691D02*
X1952114Y1612917D01*
Y1613148*
X1962251Y1611431D02*
X1960873D01*
X1959157Y1613148*
X1955933*
X1974870Y1700769D02*
X1976299Y1699340D01*
G54D37*
X2070064Y1518543D02*
X2066816D01*
X2067622*
X2067887Y1567083D02*
X2067809Y1567161D01*
X2066485*
X2063320Y1570326*
X2059008*
X2058971Y1570363*
X2049303*
X2046684Y1572981*
X2021270Y1579818D02*
X2021570Y1581251D01*
X2023641Y1583323*
Y1582190*
X2023628Y1582203*
X2022430*
X1950148Y1595567D02*
X1951854D01*
Y1595608*
X2024442Y1592658D02*
Y1596575D01*
X2022734Y1598283*
X2016562*
X2011989Y1602856*
Y1607995*
X2002161Y1617823*
Y1620704*
X2002090Y1620775*
X2001868Y1620553D02*
X2002090Y1620775D01*
X1991087Y1550342D02*
X1992290Y1551545D01*
X1994907Y1550342D02*
X1993704Y1551545D01*
X1994907Y1554163D02*
X1993704Y1552960D01*
X1991087Y1554163D02*
X1992290Y1552960D01*
X1972642Y1560862D02*
X1973845Y1559659D01*
X1972642Y1557042D02*
X1973845Y1558245D01*
X1976462Y1557042D02*
X1975259Y1558245D01*
X1976462Y1560862D02*
X1975259Y1559659D01*
X1930734Y1604579D02*
X1932084Y1603229D01*
X1930734Y1599758D02*
X1932084Y1601108D01*
X2007311Y1597425D02*
X2008748Y1595987D01*
X2007311Y1592004D02*
X2008748Y1593441D01*
X1992966Y1595667D02*
X1994169Y1594464D01*
X1992966Y1591846D02*
X1994169Y1593049D01*
X1950598Y1604280D02*
X1948956Y1605923D01*
X1930527Y1611680D02*
X1931876Y1610330D01*
X1930527Y1606859D02*
X1931876Y1608209D01*
X1930672Y1618301D02*
X1932022Y1616951D01*
X1930672Y1613480D02*
X1932022Y1614830D01*
X1984042Y1582976D02*
X1982693Y1581626D01*
X1979222Y1582976D02*
X1980571Y1581626D01*
X1979222Y1577555D02*
X1980571Y1578905D01*
X1984042Y1577555D02*
X1982693Y1578905D01*
X1992339Y1577861D02*
X1990989Y1579211D01*
X2064429Y1551638D02*
X2065772Y1550295D01*
X2064429Y1546864D02*
X2065772Y1548207D01*
X1954024Y1615058D02*
X1952821Y1613855D01*
X2075501Y1598057D02*
X2073858Y1596415D01*
X2068680Y1598057D02*
X2070323Y1596415D01*
X2068680Y1590636D02*
X2070323Y1592279D01*
X2075501Y1590636D02*
X2073858Y1592279D01*
X2065216Y1580871D02*
X2066565Y1579522D01*
X2065216Y1576051D02*
X2066565Y1577400D01*
X2063325Y1578709D02*
X2062415Y1579619D01*
X2063325Y1581943D02*
X2062415Y1581033D01*
X2054690Y1578709D02*
X2055600Y1579619D01*
X2064429Y1536284D02*
X2065772Y1534941D01*
X2064429Y1531510D02*
X2065772Y1532853D01*
X2064429Y1541402D02*
X2065772Y1540059D01*
X2064429Y1536628D02*
X2065772Y1537971D01*
X2064429Y1541746D02*
X2065772Y1543089D01*
X2060336Y1546864D02*
X2058994Y1548207D01*
X2060336Y1551638D02*
X2058994Y1550295D01*
X2060231Y1593001D02*
X2058881Y1594351D01*
X2060231Y1597822D02*
X2058881Y1596472D01*
X2054810Y1593001D02*
X2056160Y1594351D01*
X2054890Y1603415D02*
X2056240Y1602065D01*
X2060311Y1598594D02*
X2058961Y1599944D01*
X2060311Y1603415D02*
X2058961Y1602065D01*
X1964957Y1607544D02*
X1964047Y1608454D01*
G54D38*
X2030798Y1574213D02*
X2032248Y1575663D01*
X2036845*
X2028034Y1573854D02*
X2030438D01*
X2030798Y1574213*
X2036845Y1575663D02*
X2036918D01*
X2037652*
X2037708Y1575720*
X2036408Y1570326D02*
X2034685D01*
X2030798Y1574213*
X1943622Y1594451D02*
Y1594670D01*
X1939444Y1615829D02*
X1939383Y1615890D01*
X1946135D02*
X1946660Y1615955D01*
X2011780Y1669641D02*
X2024934Y1682794D01*
X2025410*
G54D39*
X1972052Y1544968D02*
X1976468D01*
X1976468*
X2000628Y1568667D02*
Y1570179D01*
X2026863Y1568815D02*
X2027524Y1568844D01*
X2028034Y1568867*
X2027524Y1568154D02*
X2028034Y1568867D01*
X2024814Y1568724D02*
X2026863Y1568815D01*
X2028034Y1567854D02*
X2027524Y1568154D01*
X2000628Y1570179D02*
Y1586713D01*
X1998720Y1588621*
Y1600793*
X2072091Y1585347D02*
X2070680Y1585453D01*
X1955888Y1607691D02*
X1955810Y1610659D01*
X1955810D02*
X1955933Y1610781D01*
Y1613148*
X1998720Y1614899D02*
Y1600793D01*
X2001972Y1601898*
X1962251Y1611431D02*
X1964995D01*
X1978119Y1624554*
X1995164*
X1998720Y1614899D02*
Y1620817D01*
X1996086Y1623451*
X1995164Y1624554*
X1995076Y1614054D02*
X1997875D01*
X1998720Y1614899*
X1995164Y1624554D02*
Y1658890D01*
G54D40*
X1948894Y1522574D02*
X1956738Y1530418D01*
Y1540137*
X1968199Y1551598*
X1979970*
X2046762Y1538982D02*
X2054702D01*
Y1539015*
X2070064Y1533897D02*
X2073410D01*
X2011435Y1544843D02*
X2014337Y1547745D01*
Y1550578*
X2070064Y1539015D02*
X2073410D01*
Y1544133D02*
X2070064D01*
X2014337Y1553880D02*
Y1550578D01*
X2010232*
X1994405Y1566405*
X1981412*
X1978774Y1569043*
X1978780Y1569049*
Y1569608*
X2054702Y1549251D02*
X2070064D01*
Y1549475*
X2070887Y1550298*
X2074699*
X2077500Y1553099*
Y1567554*
X2070064Y1554369D02*
Y1559312D01*
X2070206Y1559453*
X2045001Y1568444D02*
X2046887Y1567921D01*
X2047665*
X2047804Y1568237*
X2046747Y1567921D02*
X2046887D01*
X2046683Y1566285D02*
Y1567125D01*
X2046931Y1567573*
X2046887Y1567921*
X2070206Y1559900D02*
Y1560023D01*
Y1559881D02*
Y1559453D01*
X2070171Y1559487*
X2070064*
X2070206Y1559881D02*
Y1559900D01*
X2077500Y1567554D02*
Y1588637D01*
X2072091Y1594047*
Y1594347*
X2073887Y1567083D02*
Y1567554D01*
X2077500*
X1949409Y1578111D02*
X1943622Y1583498D01*
Y1594451*
X2067926Y1578461D02*
X2067626D01*
X2065708Y1580379*
X2073926Y1572989D02*
Y1578461D01*
X2073284*
Y1585347*
X2072091*
X1989623Y1580266D02*
X1989929Y1580571D01*
X1981632Y1580266D02*
Y1583359D01*
X1981647*
X1982760Y1584472*
X2059008Y1580326D02*
X2064477D01*
X2064530Y1580379*
X2065708*
X1943622Y1594670D02*
X1939444Y1598847D01*
X2057520Y1595411D02*
Y1598168D01*
X2057601Y1598248*
Y1601004*
X1952268Y1621438D02*
X1953157Y1622217D01*
Y1622451*
X2025410Y1682794D02*
X2074259D01*
X2076569Y1685104*
Y1694670*
X2073598Y1697641*
X2072870*
X2038560Y1496682D03*
X2042943Y1503922D03*
X2045764Y1500651D03*
X2062457Y1503752D03*
X2062377Y1508230D03*
X2073080Y1507890D03*
X2074628Y1499867D03*
X2050042Y1513854D03*
X2042325Y1510799D03*
X2060440Y1518543D03*
X2058730Y1509057D03*
X2062393Y1513494D03*
X2067622Y1518543D03*
X2045990Y1520598D03*
X2062468Y1523323D03*
X2062613Y1528569D03*
X2063730Y1534032D03*
X2074735Y1536556D03*
X1939942Y1547697D03*
X1976468Y1544968D03*
X1987457Y1548931D03*
X2011435Y1544843D03*
X2014921Y1543239D03*
X2036218Y1543142D03*
X2063606Y1539010D03*
X2063332Y1544610D03*
X2074637Y1546325D03*
X2074869Y1541476D03*
X2075653Y1548761D03*
X1936681Y1554053D03*
X1947013Y1554768D03*
X1979970Y1551598D03*
X1977996Y1550013D03*
X1972068Y1555340D03*
X1977996Y1553603D03*
X1983036Y1557707D03*
X1990535Y1551701D03*
X1981762Y1553838D03*
X1982174Y1549778D03*
X1993036Y1557690D03*
X1999432Y1549439D03*
X2002531Y1549973D03*
X2006115Y1549080D03*
X2009528Y1556867D03*
X2014337Y1553880D03*
X2016988Y1558242D03*
X2020160Y1558624D03*
X2026833Y1549884D03*
X2028584Y1553112D03*
X2062838Y1554987D03*
X2063744Y1557225D03*
X1939942Y1561839D03*
X1961155Y1568910D03*
X1954371Y1565597D03*
X1964026Y1561205D03*
X1968752Y1562067D03*
X2000628Y1568667D03*
X2016295Y1565550D03*
X2019264Y1564925D03*
X2048343Y1561469D03*
X2047804Y1568237D03*
X2045001Y1568444D03*
X2046683Y1566285D03*
X2061428Y1562167D03*
X2067383Y1563104D03*
X2064839Y1563737D03*
X2073936Y1560502D03*
X2072451Y1561810D03*
X2073817Y1563256D03*
X1925800Y1575981D03*
X1940206Y1571556D03*
X1947210Y1576736D03*
X1947015Y1578908D03*
X1949409Y1578111D03*
X1954084Y1575981D03*
X1967983Y1578433D03*
X1975263Y1573027D03*
X1978780Y1569608D03*
X1989928Y1570167D03*
X1986828Y1569867D03*
X1998463Y1569124D03*
X2003527Y1569157D03*
X2050328Y1573197D03*
X2043343Y1575854D03*
X2046684Y1572981D03*
X1933014Y1580754D03*
X1948856Y1585033D03*
X1960912Y1585504D03*
X1979987Y1587055D03*
X1982760Y1584472D03*
X1989776Y1580516D03*
X1997428Y1583967D03*
X2010734Y1580655D03*
X2022430Y1582203D03*
X2032607Y1584035D03*
X2049561Y1579844D03*
X2043034Y1583907D03*
X2046167Y1583651D03*
X2046910Y1579911D03*
X2058967Y1583252D03*
X2056792Y1585585D03*
X2063953Y1583691D03*
X2069199Y1585191D03*
X2068194Y1587079D03*
X2066809Y1585453D03*
X2061589Y1588917D03*
X1928293Y1598430D03*
X1925800Y1590123D03*
X1939942D03*
X1950148Y1595567D03*
X1956426Y1591088D03*
X1971297Y1596781D03*
X1967928Y1595467D03*
X1980476Y1591353D03*
X1974628Y1595367D03*
X1983580Y1596382D03*
X1982760Y1598614D03*
X1987894Y1590581D03*
X2001205Y1598619D03*
X1992194Y1595193D03*
X2005988Y1592384D03*
X2012585Y1598800D03*
X2020937Y1596029D03*
X2014785Y1596070D03*
X2014570Y1589696D03*
X2030517Y1594113D03*
X2041830Y1594857D03*
X2064826Y1589177D03*
X1925800Y1604265D03*
X1945783Y1601613D03*
X1949977Y1600767D03*
X1971240Y1607144D03*
X1978762Y1605874D03*
X2007164Y1607716D03*
X2005803Y1604628D03*
X2018665Y1601789D03*
X2024431Y1607361D03*
X2033841Y1605868D03*
X2041894Y1605822D03*
X2056475Y1607389D03*
X1925800Y1618407D03*
X1944697Y1612357D03*
X1955066Y1617533D03*
X1967221Y1618829D03*
X1963503Y1616884D03*
X1978566Y1617598D03*
X1975297Y1611336D03*
X1991036Y1618443D03*
X1991120Y1615549D03*
X1995145Y1618389D03*
X2002204Y1610522D03*
X2008803Y1617961D03*
X2017835Y1614336D03*
X2014381Y1618489D03*
X2023868Y1612889D03*
X2056321Y1611990D03*
X2074292Y1611336D03*
X1944434Y1620857D03*
X1953189Y1621376D03*
X1951992Y1623151D03*
X1954136Y1623305D03*
X1975877Y1627061D03*
X1998670Y1628330D03*
X2008419Y1626018D03*
X2005615Y1619454D03*
X2002090Y1620775D03*
X2011347Y1621690D03*
X2006468Y1622963D03*
X2026057Y1627139D03*
X2023386Y1620653D03*
X2022900Y1627410D03*
X2034936Y1628665D03*
X2056628Y1624874D03*
Y1620426D03*
X2059907Y1627930D03*
X2074292Y1625478D03*
X2073524Y1620813D03*
X1925800Y1632550D03*
X1946984Y1633204D03*
X1960715Y1634231D03*
X1954084Y1632550D03*
X1967906Y1634485D03*
X1988986Y1631927D03*
X1998649Y1633001D03*
X2023983Y1631296D03*
X2025209Y1638141D03*
X2048091Y1629403D03*
X2053919D03*
X1925800Y1646692D03*
X1951397Y1647729D03*
X1947013Y1639621D03*
X1974046Y1646490D03*
X1989439Y1639621D03*
X1982368Y1646692D03*
X2000030Y1643124D03*
X2001549Y1648936D03*
X2030416Y1648477D03*
X2035938Y1641728D03*
X2038937Y1646692D03*
X2044627Y1648608D03*
X2046008Y1639621D03*
X2049211Y1644053D03*
X2074049Y1642073D03*
X2071742Y1647182D03*
X1947013Y1653763D03*
X1971565Y1651937D03*
X1987048Y1650098D03*
X1998703Y1653807D03*
X2006103Y1649244D03*
X2026299Y1650968D03*
X2060150Y1653763D03*
X2068396Y1653502D03*
X2074292Y1653763D03*
X1923614Y1661786D03*
X1937818Y1667416D03*
X1946858Y1666045D03*
X1957746Y1664646D03*
X1952744Y1664925D03*
X1981003Y1668001D03*
X2010853Y1667650D03*
X2020176Y1662419D03*
X2017723Y1667905D03*
X2013001Y1667982D03*
X2024624Y1667327D03*
X2024795Y1660834D03*
X2036529Y1661879D03*
X2046484Y1661630D03*
X2053079Y1660834D03*
X2067221D03*
X2074292Y1667905D03*
X1960784Y1671413D03*
X1951935Y1671993D03*
X1974397Y1673991D03*
X1976488Y1678343D03*
X1979514Y1675172D03*
X2006106Y1673464D03*
X2011780Y1669641D03*
X2027742Y1674050D03*
X2045861Y1674553D03*
X2055814Y1676382D03*
X2067221Y1674976D03*
X2073096Y1678794D03*
X1925642Y1682354D03*
X1930723Y1682538D03*
X1938406Y1685515D03*
X1938446Y1679294D03*
X1947192Y1687805D03*
X1991385Y1684492D03*
X1986888Y1688408D03*
X2011083Y1682334D03*
X1928154Y1696523D03*
X1949019Y1694363D03*
X1953928Y1697267D03*
X1978475Y1694356D03*
X1992546Y1694066D03*
X1927242Y1700869D03*
X1937256Y1702515D03*
X1949795Y1702669D03*
X1974473Y1702078D03*
X1981915Y1702151D03*
X1989493D03*
G54D41*
X2048394Y1567195D02*
Y1567789D01*
X2046517Y1567976*
Y1565779*
X2048394Y1567195*
X2046517Y1567578D02*
X2048394D01*
X2046517Y1566678D02*
X2047709D01*
X1938276Y1589744D02*
G75*
G03X1938276I-5500J0D01*
G01X2042580D02*
G03X2042580I-5540J0D01*
G01X2076275Y1589978D02*
Y1589979D01*
Y1590208*
G03X2075443Y1590582I-500J-0*
G01X2075323Y1590488D02*
G03X2075443Y1590582I-732J1059D01*
G01X2075323Y1590488D02*
G03X2075374Y1589634I284J-411D01*
G01X2075503Y1589559D02*
G03X2075374Y1589634I-912J-1412D01*
G01X2075503Y1589559D02*
G03X2076275Y1589978I272J419D01*
G01X2041740Y1495261D02*
G03X2042093Y1496114I-0J500D01*
G01X2042093D02*
X2038196Y1500012D01*
X2038130Y1500082D02*
G03X2038196Y1500012I1324J1188D01*
G01X2038130Y1500082D02*
G03X2037258Y1499748I-372J-334D01*
G01X2037252Y1495761*
X2037252*
G03X2037752Y1495261I500J-0*
G01X2041740*
X2071985Y1498535D02*
G03X2072462Y1499185I-0J500D01*
G01X2072357Y1499914D02*
G03X2072462Y1499185I2271J-47D01*
G01X2072357Y1499914D02*
G03X2071857Y1500424I-500J10D01*
G01X2065339*
X2064052Y1501712D02*
G03X2065339Y1500424I1287J-0D01*
G01X2064052Y1501712D02*
Y1504665D01*
X2064315Y1505444D02*
G03X2064052Y1504665I1024J-779D01*
G01X2064315Y1505444D02*
G03Y1506050I-398J303D01*
G01X2064052Y1506830D02*
G03X2064315Y1506050I1287J-0D01*
G01X2064052Y1506830D02*
Y1509783D01*
X2064315Y1510562D02*
G03X2064052Y1509783I1024J-779D01*
G01X2064315Y1510562D02*
G03Y1511168I-398J303D01*
G01X2064052Y1511948D02*
G03X2064315Y1511168I1287J0D01*
G01X2064052Y1511948D02*
Y1514901D01*
X2064315Y1515681D02*
G03X2064052Y1514901I1024J-780D01*
G01X2064315Y1515681D02*
G03Y1516286I-398J302D01*
G01X2064052Y1517066D02*
G03X2064315Y1516286I1287J0D01*
G01X2064052Y1517066D02*
Y1520019D01*
X2064315Y1520799D02*
G03X2064052Y1520019I1024J-780D01*
G01X2064315Y1520799D02*
G03Y1521404I-398J303D01*
G01X2064052Y1522184D02*
G03X2064315Y1521404I1287J0D01*
G01X2064052Y1522184D02*
Y1525137D01*
X2064315Y1525917D02*
G03X2064052Y1525137I1024J-780D01*
G01X2064315Y1525917D02*
G03Y1526523I-398J303D01*
G01X2064052Y1527302D02*
G03X2064315Y1526523I1287J0D01*
G01X2064052Y1527302D02*
Y1530255D01*
X2064315Y1531035D02*
G03X2064052Y1530255I1024J-780D01*
G01X2064315Y1531035D02*
G03Y1531641I-398J303D01*
G01X2064052Y1532420D02*
G03X2064315Y1531641I1287J0D01*
G01X2064052Y1532420D02*
Y1535373D01*
X2064315Y1536153D02*
G03X2064052Y1535373I1024J-780D01*
G01X2064315Y1536153D02*
G03Y1536759I-398J303D01*
G01X2064052Y1537539D02*
G03X2064315Y1536759I1287J-0D01*
G01X2064052Y1537539D02*
Y1540491D01*
X2064315Y1541271D02*
G03X2064052Y1540491I1024J-780D01*
G01X2064315Y1541271D02*
G03Y1541877I-398J303D01*
G01X2064184Y1542088D02*
G03X2064315Y1541877I1155J569D01*
G01X2064184Y1542088D02*
G03X2063663Y1542362I-449J-220D01*
G01X2062030Y1542748D02*
G03X2063663Y1542362I1302J1862D01*
G01X2062030Y1542748D02*
G03X2061483Y1542765I-286J-409D01*
G01X2061007Y1542571D02*
G03X2061483Y1542765I-358J1562D01*
G01X2061007Y1542571D02*
G03X2060646Y1542244I112J-487D01*
G01X2060604Y1542137D02*
G03X2060646Y1542244I-1178J520D01*
G01X2060604Y1542137D02*
G03X2060686Y1541604I457J-202D01*
G01X2061107Y1540491D02*
G03X2060686Y1541604I-1681J0D01*
G01X2061107Y1540491D02*
Y1537539D01*
X2060885Y1536704D02*
G03X2061107Y1537539I-1459J835D01*
G01X2060885Y1536704D02*
G03Y1536208I434J-248D01*
G01X2061107Y1535373D02*
G03X2060885Y1536208I-1681J0D01*
G01X2061107Y1535373D02*
Y1532420D01*
X2060885Y1531586D02*
G03X2061107Y1532420I-1459J834D01*
G01X2060885Y1531586D02*
G03Y1531090I434J-248D01*
G01X2061107Y1530255D02*
G03X2060885Y1531090I-1681J0D01*
G01X2061107Y1530255D02*
Y1527302D01*
X2060686Y1526190D02*
G03X2061107Y1527302I-1260J1112D01*
G01X2060686Y1526190D02*
G03X2060604Y1525657I375J-331D01*
G01X2060713Y1525137D02*
G03X2060604Y1525657I-1287J0D01*
G01X2060713Y1525137D02*
Y1522184D01*
X2060530Y1521523D02*
G03X2060713Y1522184I-1104J661D01*
G01X2060530Y1521523D02*
G03X2060866Y1520774I429J-257D01*
G01X2060865Y1516311D02*
G03X2060866Y1520774I-425J2232D01*
G01X2060865Y1516311D02*
G03X2060530Y1515563I94J-491D01*
G01X2060713Y1514901D02*
G03X2060530Y1515563I-1287J-0D01*
G01X2060713Y1514901D02*
Y1511948D01*
X2060450Y1511168D02*
G03X2060713Y1511948I-1024J780D01*
G01X2060450Y1511168D02*
G03Y1510562I398J-303D01*
G01X2060523Y1510457D02*
G03X2060450Y1510562I-1097J-674D01*
G01X2060523Y1510457D02*
G03X2060549Y1510419I426J262D01*
G01X2060765Y1508047D02*
G03X2060549Y1510419I-2035J1010D01*
G01X2060765Y1508047D02*
G03X2060713Y1507825I448J-222D01*
G01Y1506830*
X2060450Y1506050D02*
G03X2060713Y1506830I-1024J780D01*
G01X2060450Y1506050D02*
G03Y1505444I398J-303D01*
G01X2060713Y1504665D02*
G03X2060450Y1505444I-1287J-0D01*
G01X2060713Y1504665D02*
Y1501712D01*
X2059426Y1500424D02*
G03X2060713Y1501712I-0J1288D01*
G01X2059426Y1500424D02*
X2049977D01*
X2048690Y1501712D02*
G03X2049977Y1500424I1287J-0D01*
G01X2048690Y1501712D02*
Y1503228D01*
G03X2048543Y1503582I-500J0*
G01X2044732Y1507393*
X2044221Y1508460D02*
G03X2044732Y1507393I1769J191D01*
G01X2044221Y1508460D02*
G03X2043472Y1508838I-497J-54D01*
G01X2041840Y1508580D02*
G03X2043472Y1508838I485J2219D01*
G01X2041840Y1508580D02*
G03X2041234Y1508091I-106J-489D01*
G01Y1502214*
G03X2041380Y1501861I500J0*
G01X2044560Y1498681*
G03X2044914Y1498535I354J354*
G01X2071985*
X2064315Y1556625D02*
G03Y1557231I-398J303D01*
G01X2064131Y1557566D02*
G03X2064315Y1557231I1208J445D01*
G01X2064131Y1557566D02*
G03X2063172Y1557493I-469J-173D01*
G01X2062687Y1556590D02*
G03X2063172Y1557493I-1259J1258D01*
G01X2062687Y1556590D02*
X2060860Y1554763D01*
G03X2060713Y1554409I353J-354*
G01Y1552893*
X2060450Y1552113D02*
G03X2060713Y1552893I-1024J780D01*
G01X2060450Y1552113D02*
G03Y1551507I398J-303D01*
G01X2060713Y1550728D02*
G03X2060450Y1551507I-1287J-0D01*
G01X2060713Y1550728D02*
Y1547775D01*
X2060451Y1546996D02*
G03X2060713Y1547775I-1025J779D01*
G01X2060451Y1546996D02*
G03X2060915Y1546198I399J-302D01*
G01X2061125Y1546212D02*
G03X2060915Y1546198I0J-1602D01*
G01X2061125Y1546212D02*
X2061526D01*
G03X2061852Y1546333I0J500*
G01X2063551Y1546871D02*
G03X2061852Y1546333I-219J-2261D01*
G01X2063551Y1546871D02*
G03X2064086Y1547482I48J498D01*
G01X2064052Y1547775D02*
G03X2064086Y1547482I1287J-0D01*
G01X2064052Y1547775D02*
Y1550728D01*
X2064315Y1551507D02*
G03X2064052Y1550728I1024J-779D01*
G01X2064315Y1551507D02*
G03Y1552113I-398J303D01*
G01X2064052Y1552893D02*
G03X2064315Y1552113I1287J-0D01*
G01X2064052Y1552893D02*
Y1555846D01*
X2064315Y1556625D02*
G03X2064052Y1555846I1024J-779D01*
G01X2065196Y1575379D02*
G03Y1576071I-361J346D01*
G01X2064839Y1576961D02*
G03X2065196Y1576071I1287J0D01*
G01X2064839Y1576961D02*
Y1579405D01*
G03X2063867Y1579570I-500J0*
G01X2062719Y1578274D02*
G03X2063867Y1579570I-1011J2052D01*
G01X2062719Y1578274D02*
G03Y1577378I221J-448D01*
G01X2063970Y1575662D02*
G03X2062719Y1577378I-2262J-336D01*
G01X2063970Y1575662D02*
G03X2064111Y1575382I495J73D01*
G01X2064318Y1575175*
G03X2065079Y1575237I354J353*
G01X2065196Y1575379D02*
G03X2065079Y1575237I930J-890D01*
G01X2066191Y1581249D02*
G03X2066273Y1582242I-0J500D01*
G01X2063742Y1586546D02*
G03X2066273Y1582242I3067J-1093D01*
G01X2063742Y1586546D02*
G03X2062968Y1587111I-471J168D01*
G01X2060597Y1586873D02*
G03X2062968Y1587111I992J2044D01*
G01X2060597Y1586873D02*
G03X2060105Y1586842I-218J-450D01*
G01X2059478Y1586634D02*
G03X2060105Y1586842I-77J1285D01*
G01X2059478Y1586634D02*
G03X2059019Y1586036I31J-499D01*
G01X2059042Y1585896D02*
G03X2059019Y1586036I-2250J-311D01*
G01X2059042Y1585896D02*
G03X2059435Y1585475I496J69D01*
G01X2061235Y1583138D02*
G03X2059435Y1585475I-2268J114D01*
G01X2061235Y1583138D02*
G03X2061730Y1582613I500J-25D01*
G01X2063980Y1580591D02*
G03X2061730Y1582613I-2272J-265D01*
G01X2063980Y1580591D02*
G03X2064938Y1580457I496J58D01*
G01X2066126Y1581249D02*
G03X2064938Y1580457I-0J-1288D01*
G01X2066126Y1581249D02*
X2066191D01*
X2076271Y1598489D02*
X2076271D01*
X2076234Y1679127*
G03X2075548Y1679591I-500J-0*
G01X2074259Y1679342D02*
G03X2075548Y1679591I0J3452D01*
G01X2074259Y1679342D02*
X2026293D01*
G03X2025939Y1679195I-0J-500*
G01X2016567Y1669823*
G03X2016421Y1669470I354J-353*
G01Y1668494*
G03X2016425Y1668430I500J0*
G01Y1667534D02*
G03Y1668430I-3424J448D01*
G01Y1667534D02*
G03X2016421Y1667469I496J-65D01*
G01Y1667203*
X2013755Y1664537D02*
G03X2016421Y1667203I0J2666D01*
G01X2013755Y1664537D02*
X2013254D01*
G03X2013222Y1664536I0J-500*
G01X2012780D02*
G03X2013222I221J3446D01*
G01X2012780D02*
G03X2012748Y1664537I-32J-499D01*
G01X2012457*
G03X2012254Y1664494I0J-500*
G01X2008251Y1669919D02*
G03X2012254Y1664494I2602J-2269D01*
G01X2008251Y1669919D02*
G03X2008369Y1670171I-377J329D01*
G01X2010221Y1672722D02*
G03X2008369Y1670171I1559J-3081D01*
G01X2010221Y1672722D02*
G03X2010349Y1672814I-225J446D01*
G01X2020915Y1683380*
G03X2020562Y1684234I-354J354*
G01X1995371Y1684296*
Y1689279*
G03X1995180Y1689672I-500J0*
G01X1994687Y1690685D02*
G03X1995180Y1689672I1288J0D01*
G01X1994687Y1690685D02*
Y1704190D01*
G03X1994186Y1704690I-500J-0*
G01X1971551Y1704657*
G03X1971052Y1704157I1J-500*
G01Y1699384*
X1971052D02*
G03X1971198Y1699031I500J0D01*
G01X1973639Y1696590*
G03X1974493Y1696944I354J354*
G01Y1699859*
X1975780Y1701146D02*
G03X1974493Y1699859I0J-1287D01*
G01X1975780Y1701146D02*
X1979324D01*
X1979848Y1701034D02*
G03X1979324Y1701146I-524J-1175D01*
G01X1979848Y1701034D02*
G03X1980256I204J457D01*
G01X1980780Y1701146D02*
G03X1980256Y1701034I0J-1287D01*
G01X1980780Y1701146D02*
X1984324D01*
X1985157Y1700840D02*
G03X1984324Y1701146I-833J-981D01*
G01X1985157Y1700840D02*
G03X1985757Y1700804I324J381D01*
G01Y1695371D02*
G03Y1700804I1795J2716D01*
G01Y1695371D02*
G03X1985157Y1695335I-276J-417D01*
G01X1984324Y1695028D02*
G03X1985157Y1695335I-0J1287D01*
G01X1984324Y1695028D02*
X1980780D01*
X1980256Y1695140D02*
G03X1980780Y1695028I524J1175D01*
G01X1980256Y1695140D02*
G03X1979848I-204J-457D01*
G01X1979324Y1695028D02*
G03X1979848Y1695140I-0J1287D01*
G01X1979324Y1695028D02*
X1976408D01*
G03X1976055Y1694175I0J-500*
G01X2020981Y1649248*
X2021450Y1648115D02*
G03X2020981Y1649248I-1602J0D01*
G01X2021450Y1648115D02*
Y1626549D01*
G03X2021597Y1626196I500J0*
G01X2021676Y1626117*
X2022145Y1624983D02*
G03X2021676Y1626117I-1602J0D01*
G01X2022145Y1624983D02*
Y1610857D01*
X2021676Y1609724D02*
G03X2022145Y1610857I-1133J1133D01*
G01X2021676Y1609724D02*
X2017985Y1606033D01*
G03X2017838Y1605680I353J-353*
G01Y1604541*
G03X2018397Y1604045I500J0*
G01X2020107Y1603544D02*
G03X2018397Y1604045I-1442J-1755D01*
G01X2020107Y1603544D02*
G03X2020425Y1603431I318J387D01*
G01X2048723*
G03X2049025Y1603532I0J500*
G01X2049801Y1603792D02*
G03X2049025Y1603532I-0J-1288D01*
G01X2049801Y1603792D02*
X2053401D01*
X2054265Y1603459D02*
G03X2053401Y1603792I-864J-955D01*
G01X2054265Y1603459D02*
G03X2054936I336J370D01*
G01X2055801Y1603792D02*
G03X2054936Y1603459I-0J-1288D01*
G01X2055801Y1603792D02*
X2059401D01*
X2060688Y1602504D02*
G03X2059401Y1603792I-1287J0D01*
G01X2060688Y1602504D02*
Y1599504D01*
X2060257Y1598543D02*
G03X2060688Y1599504I-856J961D01*
G01X2060257Y1598543D02*
G03X2060235Y1597818I333J-373D01*
G01X2060608Y1596911D02*
G03X2060235Y1597818I-1288J0D01*
G01X2060608Y1596911D02*
Y1593911D01*
X2060053Y1592853D02*
G03X2060608Y1593911I-733J1058D01*
G01X2060053Y1592853D02*
G03X2060075Y1592016I284J-412D01*
G01X2060581Y1591433D02*
G03X2060075Y1592016I-1180J-514D01*
G01X2060581Y1591433D02*
G03X2061138Y1591143I458J200D01*
G01X2063788Y1588348D02*
G03X2061138Y1591143I-2199J569D01*
G01X2063788Y1588348D02*
G03X2064610Y1587854I484J-125D01*
G01X2065859Y1588568D02*
G03X2064610Y1587854I950J-3115D01*
G01X2065859Y1588568D02*
G03X2066105Y1588735I-146J478D01*
G01X2068343Y1589740D02*
G03X2066105Y1588735I-149J-2661D01*
G01X2068343Y1589740D02*
G03X2068713Y1590605I28J500D01*
G01X2068303Y1591547D02*
G03X2068713Y1590605I1288J-0D01*
G01X2068303Y1591547D02*
Y1597147D01*
X2069591Y1598434D02*
G03X2068303Y1597147I-0J-1287D01*
G01X2069591Y1598434D02*
X2074591D01*
X2075441Y1598114D02*
G03X2074591Y1598434I-850J-967D01*
G01X2075441Y1598114D02*
G03X2076271Y1598489I330J375D01*
G01X1976422Y1547239D02*
G03X1976697Y1548149I-10J500D01*
G01X1975943Y1549040D02*
G03X1976697Y1548149I2053J973D01*
G01X1975943Y1549040D02*
G03X1975492Y1549326I-451J-214D01*
G01X1975306*
G03X1974816Y1548922I0J-500*
G01X1974506Y1548303D02*
G03X1974816Y1548922I-954J865D01*
G01X1974506Y1548303D02*
G03Y1547632I371J-335D01*
G01X1974744Y1547255D02*
G03X1974506Y1547632I-1192J-487D01*
G01X1974744Y1547255D02*
G03X1975206Y1546944I462J189D01*
G01X1975223*
G03X1975448Y1546997I0J500*
G01X1976422Y1547239D02*
G03X1975448Y1546997I46J-2271D01*
G01X2015601Y1594916D02*
G03X2015400Y1595667I-404J294D01*
G01X2014539Y1596259D02*
G03X2015400Y1595667I2023J2024D01*
G01X2014539Y1596259D02*
X2013962Y1596835D01*
G03X2013109Y1596482I-353J-353*
G01Y1594744*
G03X2013646Y1594245I500J0*
G01X2013761Y1594250D02*
G03X2013646Y1594245I4J-1602D01*
G01X2013761Y1594250D02*
X2014957Y1594253D01*
G03X2015428Y1594586I-1J500*
G01X2015601Y1594916D02*
G03X2015428Y1594586I1041J-758D01*
G01X2009624Y1590773D02*
G03X2009271Y1591627I-353J354D01*
G01X2008221*
X2006934Y1592914D02*
G03X2008221Y1591627I1287J0D01*
G01X2006934Y1592914D02*
Y1596514D01*
X2007078Y1597107D02*
G03X2006934Y1596514I1143J-593D01*
G01X2007078Y1597107D02*
G03X2006281Y1597690I-444J230D01*
G01X2005752Y1597162*
G03X2005607Y1596780I354J-354*
G01X2005609Y1596708D02*
G03X2005607Y1596780I-1288J0D01*
G01X2005609Y1596708D02*
Y1593108D01*
X2004321Y1591821D02*
G03X2005609Y1593108I0J1287D01*
G01X2004321Y1591821D02*
X2001590D01*
G03X2001090Y1591321I0J-500*
G01Y1589810*
G03X2001236Y1589457I500J0*
G01X2002304Y1588389*
X2002326Y1588367D02*
G03X2002304Y1588389I-1698J-1654D01*
G01X2002326Y1588367D02*
G03X2003184Y1588716I358J349D01*
G01Y1589214*
X2004471Y1590502D02*
G03X2003184Y1589214I0J-1288D01*
G01X2004471Y1590502D02*
X2008071D01*
X2008688Y1590344D02*
G03X2008071Y1590502I-617J-1130D01*
G01X2008688Y1590344D02*
G03X2009281Y1590430I239J439D01*
G01X2009624Y1590773*
X2011789Y1597802D02*
G03X2012142Y1598655I-0J500D01*
G01X2011349Y1599449*
G03X2010653Y1599460I-354J-354*
G01X2009772Y1599111D02*
G03X2010653Y1599460I-0J1287D01*
G01X2009772Y1599111D02*
X2007908D01*
G03X2007555Y1598964I0J-500*
G01X2007045Y1598455*
G03X2007629Y1597657I354J-354*
G01X2008221Y1597802D02*
G03X2007629Y1597657I0J-1288D01*
G01X2008221Y1597802D02*
X2011789D01*
X2009127Y1605186D02*
Y1606603D01*
G03X2008980Y1606956I-500J-0*
G01X2001944Y1613993*
G03X2001090Y1613639I-354J-354*
G01Y1605579*
G03X2001590Y1605079I500J0*
G01X2003199*
G03X2003669Y1605408I0J500*
G01X2008028Y1605085D02*
G03X2003669Y1605408I-2225J-457D01*
G01X2008028Y1605085D02*
G03X2008518Y1604686I490J101D01*
G01X2008627*
G03X2009127Y1605186I-0J500*
G01X2018673Y1611254D02*
G03X2018232Y1612100I-354J353D01*
G01X2016027Y1615711D02*
G03X2018232Y1612100I1808J-1375D01*
G01X2016027Y1615711D02*
G03X2015404Y1616460I-398J303D01*
G01X2012139Y1618854D02*
G03X2015404Y1616460I2242J-365D01*
G01X2012139Y1618854D02*
G03X2011592Y1619431I-493J80D01*
G01X2009624Y1623170D02*
G03X2011592Y1619431I1723J-1480D01*
G01X2009624Y1623170D02*
G03X2009745Y1623496I-379J326D01*
G01Y1647746*
G03X2009599Y1648099I-500J-0*
G01X1999366Y1658344*
G03X1998526Y1658105I-353J-353*
G01X1997671Y1656516D02*
G03X1998526Y1658105I-2507J2374D01*
G01X1997671Y1656516D02*
G03X1997534Y1656172I363J-344D01*
G01Y1625596*
G03X1997650Y1625275I500J-0*
G01X1997822Y1625069*
G03X1997853Y1625036I384J321*
G01X1999331Y1623558*
G03X1999989Y1623515I353J353*
G01X2005209Y1619293D02*
G03X1999989Y1623515I-3119J1482D01*
G01X2005209Y1619293D02*
G03X2005307Y1618725I451J-214D01*
G01X2014013Y1610019*
X2014807Y1608499D02*
G03X2014013Y1610019I-2818J-504D01*
G01X2014807Y1608499D02*
G03X2015652Y1608233I492J88D01*
G01X2018673Y1611254*
X1995159Y1577236D02*
G03Y1577907I-370J335D01*
G01X1994826Y1578771D02*
G03X1995159Y1577907I1288J0D01*
G01X1994826Y1578771D02*
Y1581687D01*
G03X1994326Y1582187I-500J0*
G01X1993216*
G03X1992716Y1581687I0J-500*
G01Y1578771*
X1992383Y1577907D02*
G03X1992716Y1578771I-954J864D01*
G01X1992383Y1577907D02*
G03Y1577236I370J-336D01*
G01X1992669Y1576717D02*
G03X1992383Y1577236I-1240J-346D01*
G01X1992669Y1576717D02*
G03X1993151Y1576351I482J134D01*
G01X1993151D02*
X1994392D01*
G03X1994873Y1576717I-0J500*
G01X1995159Y1577236D02*
G03X1994873Y1576717I955J-865D01*
G01X1996794Y1586148D02*
G03X1997014Y1586976I-139J480D01*
G01X1996350Y1588621D02*
G03X1997014Y1586976I2370J0D01*
G01X1996350Y1588621D02*
Y1590969D01*
G03X1995850Y1591469I-500J0*
G01X1993876*
X1992589Y1592756D02*
G03X1993876Y1591469I1287J0D01*
G01X1992589Y1592756D02*
Y1594756D01*
X1992651Y1595151D02*
G03X1992589Y1594756I1225J-395D01*
G01X1992651Y1595151D02*
G03X1992218Y1595803I-476J153D01*
G01X1991705Y1595926D02*
G03X1992218Y1595803I668J1649D01*
G01X1991705Y1595926D02*
G03X1991034Y1595592I-188J-463D01*
G01X1990803Y1595066D02*
G03X1991034Y1595592I-1583J1011D01*
G01X1990803Y1595066D02*
G03Y1594528I421J-269D01*
G01X1990234Y1591937D02*
G03X1990803Y1594528I-1014J1581D01*
G01X1990234Y1591937D02*
G03X1990033Y1591347I270J-421D01*
G01X1989763Y1589289D02*
G03X1990033Y1591347I-1869J1292D01*
G01X1989763Y1589289D02*
G03X1989674Y1589004I411J-285D01*
G01Y1586376*
X1989671Y1586275D02*
G03X1989674Y1586376I-1777J101D01*
G01X1989671Y1586275D02*
G03X1990170Y1585746I499J-29D01*
G01X1995852*
G03X1996136Y1585835I-0J500*
G01X1996794Y1586148D02*
G03X1996136Y1585835I634J-2181D01*
G01X1985049Y1577155D02*
Y1577376D01*
G03X1984152Y1577681I-500J-0*
G01X1984086Y1577601D02*
G03X1984152Y1577681I-954J865D01*
G01X1984086Y1577601D02*
G03Y1576930I371J-335D01*
G01X1984152Y1576851D02*
G03X1984086Y1576930I-1020J-785D01*
G01X1984152Y1576851D02*
G03X1985049Y1577155I397J304D01*
G01X1951698Y1603010D02*
G03X1952017Y1603895I0J500D01*
G01X1951601Y1604407D02*
G03X1952017Y1603895I1487J784D01*
G01X1951601Y1604407D02*
G03X1950747Y1604459I-443J-233D01*
G01X1950141Y1603986D02*
G03X1950747Y1604459I-453J1205D01*
G01X1950141Y1603986D02*
G03X1950256Y1603021I176J-468D01*
G01X1950378Y1603003D02*
G03X1950256Y1603021I-401J-2236D01*
G01X1950378Y1603003D02*
G03X1950530Y1602999I88J492D01*
G01X1950694Y1603010D02*
G03X1950530Y1602999I-0J-1288D01*
G01X1950694Y1603010D02*
X1951698D01*
X1949276Y1602928D02*
G03X1949122Y1603903I-154J475D01*
G01X1944213*
G03X1943713Y1603403I-0J-500*
G01Y1600669*
X1943605Y1599945D02*
G03X1943713Y1600669I-2361J724D01*
G01X1943605Y1599945D02*
G03X1943729Y1599445I478J-146D01*
G01X1946063Y1597111*
X1946915Y1595708D02*
G03X1946063Y1597111I-3293J-1038D01*
G01X1946915Y1595708D02*
G03X1947889Y1595806I476J150D01*
G01X1949294Y1597672D02*
G03X1947889Y1595806I854J-2105D01*
G01X1949294Y1597672D02*
G03X1949263Y1598610I-188J464D01*
G01X1949276Y1602928D02*
G03X1949263Y1598610I701J-2161D01*
G01X2037582Y1542781D02*
Y1549606D01*
G03X2037082Y1550106I-500J0*
G01X2036497*
X2035257Y1551048D02*
G03X2036497Y1550106I1240J345D01*
G01X2035257Y1551048D02*
G03X2034775Y1551414I-482J-134D01*
G01X2034728*
X2033469Y1551935D02*
G03X2034728Y1551414I1259J1258D01*
G01X2033469Y1551935D02*
X2011924Y1573481D01*
X2011402Y1574739D02*
G03X2011924Y1573481I1780J0D01*
G01X2011402Y1574739D02*
Y1577283D01*
G03X2011256Y1577637I-500J0*
G01X2010615Y1578278*
G03X2010347Y1578417I-354J-354*
G01X2009071Y1582202D02*
G03X2010347Y1578417I1663J-1547D01*
G01X2009071Y1582202D02*
G03X2009146Y1582778I-366J341D01*
X2009719Y1582688I350J357*
G01X2012010Y1582535D02*
G03X2009719Y1582688I-1276J-1880D01*
G01X2012010Y1582535D02*
G03X2012791Y1582949I281J414D01*
G01Y1588119*
G03X2012702Y1588404I-500J0*
G01X2012675Y1588443D02*
G03X2012702Y1588404I1895J1253D01*
G01X2012675Y1588443D02*
G03X2011905Y1588521I-417J-275D01*
G01X2009505Y1586122*
G03X2009359Y1585768I354J-354*
G01Y1584214*
X2009097Y1583437D02*
G03X2009359Y1584214I-1026J777D01*
G01X2009097Y1583437D02*
G03X2009055Y1582900I399J-302D01*
X2008527Y1583010I-350J-357*
G01X2008071Y1582927D02*
G03X2008527Y1583010I0J1287D01*
G01X2008071Y1582927D02*
X2007914D01*
G03X2007420Y1582351I0J-500*
G01X2007435Y1582155D02*
G03X2007420Y1582351I-1287J-0D01*
G01X2007435Y1582155D02*
Y1578555D01*
X2007102Y1577691D02*
G03X2007435Y1578555I-954J864D01*
G01X2007102Y1577691D02*
G03Y1577019I370J-336D01*
G01X2007435Y1576155D02*
G03X2007102Y1577019I-1287J-0D01*
G01X2007435Y1576155D02*
Y1574558D01*
G03X2007582Y1574204I500J-0*
G01X2009298Y1572487*
X2009820Y1571229D02*
G03X2009298Y1572487I-1780J-0D01*
G01X2009820Y1571229D02*
Y1562022D01*
G03X2009966Y1561669I500J0*
G01X2010787Y1560848*
X2011308Y1559590D02*
G03X2010787Y1560848I-1780J-0D01*
G01X2011308Y1559590D02*
Y1558444D01*
G03X2011397Y1558159I500J-0*
G01X2007660D02*
G03X2011397I1868J-1292D01*
G01X2007660D02*
G03X2007749Y1558444I-411J285D01*
G01Y1558646*
G03X2007602Y1558999I-500J-0*
G01X2006782Y1559820*
X2006261Y1561078D02*
G03X2006782Y1559820I1779J-0D01*
G01X2006261Y1561078D02*
Y1566914D01*
G03X2005408Y1567268I-500J-0*
G01X2004510Y1566679D02*
G03X2005408Y1567268I-983J2478D01*
G01X2004510Y1566679D02*
G03X2004372Y1566596I185J-464D01*
G01X2003160Y1566153D02*
G03X2004372Y1566596I-0J1878D01*
G01X2003160Y1566153D02*
X2001595D01*
G03X2001442Y1566129I-0J-500*
G01X1999814D02*
G03X2001442I814J2538D01*
G01X1999814D02*
G03X1999662Y1566153I-152J-476D01*
G01X1998751*
X1997540Y1566596D02*
G03X1998751Y1566153I1211J1435D01*
G01X1997540Y1566596D02*
G03X1997414Y1566673I-323J-382D01*
G01X1996313Y1570700D02*
G03X1997414Y1566674I2150J-1576D01*
G01X1996313Y1570700D02*
G03X1995967Y1571492I-403J296D01*
G01X1994873Y1572426D02*
G03X1995967Y1571492I1241J345D01*
G01X1994873Y1572426D02*
G03X1994392Y1572792I-481J-134D01*
G01X1993151*
X1993151D02*
G03X1992669Y1572426I-0J-500D01*
G01X1992167Y1571717D02*
G03X1992669Y1572426I-738J1054D01*
G01X1992167Y1571717D02*
G03X1991999Y1571102I287J-409D01*
G01X1988839Y1568173D02*
G03X1991999Y1571102I1089J1994D01*
G01X1988839Y1568173D02*
G03X1988280Y1568119I-240J-438D01*
G01X1984663Y1570554D02*
G03X1988280Y1568119I2165J-687D01*
G01X1984663Y1570554D02*
G03X1984504Y1571091I-477J151D01*
G01X1984376Y1571207D02*
G03X1984504Y1571091I1258J1259D01*
G01X1984376Y1571207D02*
X1984336Y1571247D01*
G03X1983745Y1571333I-354J-354*
G01X1983132Y1571178D02*
G03X1983745Y1571333I0J1288D01*
G01X1983132Y1571178D02*
X1980132D01*
X1978845Y1572466D02*
G03X1980132Y1571178I1287J-0D01*
G01X1978845Y1572466D02*
Y1576066D01*
X1979178Y1576930D02*
G03X1978845Y1576066I954J-864D01*
G01X1979178Y1576930D02*
G03Y1577601I-371J336D01*
G01X1978845Y1578466D02*
G03X1979178Y1577601I1287J-0D01*
G01X1978845Y1578466D02*
Y1582066D01*
X1980132Y1583353D02*
G03X1978845Y1582066I0J-1287D01*
G01X1980132Y1583353D02*
X1983132D01*
X1984152Y1582851D02*
G03X1983132Y1583353I-1020J-785D01*
G01X1984152Y1582851D02*
G03X1985049Y1583155I397J304D01*
G01Y1585310*
X1985570Y1586568D02*
G03X1985049Y1585310I1258J-1258D01*
G01X1985570Y1586568D02*
X1985968Y1586966D01*
G03X1986115Y1587320I-353J354*
G01Y1589004*
G03X1986026Y1589289I-500J0*
G01X1985741Y1591304D02*
G03X1986026Y1589289I2153J-723D01*
G01X1985741Y1591304D02*
G03X1985519Y1591895I-474J159D01*
G01X1984881Y1594528D02*
G03X1985519Y1591895I1583J-1010D01*
G01X1984881Y1594528D02*
G03Y1595066I-421J269D01*
G01Y1597087D02*
G03Y1595066I1583J-1010D01*
G01Y1597087D02*
G03Y1597625I-421J269D01*
G01Y1599646D02*
G03Y1597625I1583J-1010D01*
G01Y1599646D02*
G03Y1600184I-421J269D01*
G01Y1602205D02*
G03Y1600184I1583J-1010D01*
G01Y1602205D02*
G03Y1602743I-421J269D01*
G01X1984602Y1603995D02*
G03X1984881Y1602743I1862J-241D01*
G01X1984602Y1603995D02*
G03X1984192Y1604552I-496J64D01*
G01X1983239Y1605047D02*
G03X1984192Y1604552I1258J1258D01*
G01X1983239Y1605047D02*
X1981710Y1606576D01*
X1981188Y1607834D02*
G03X1981710Y1606576I1780J-0D01*
G01X1981188Y1607834D02*
Y1616569D01*
G03X1981046Y1616918I-500J-0*
G01X1980681Y1617817D02*
G03X1981046Y1616918I1287J-0D01*
G01X1980681Y1617817D02*
Y1619817D01*
X1981968Y1621104D02*
G03X1980681Y1619817I-0J-1287D01*
G01X1981968Y1621104D02*
X1983968D01*
X1984623Y1620925D02*
G03X1983968Y1621104I-655J-1108D01*
G01X1984623Y1620925D02*
G03X1985132I254J431D01*
G01X1985787Y1621104D02*
G03X1985132Y1620925I-0J-1287D01*
G01X1985787Y1621104D02*
X1987787D01*
X1989074Y1619817D02*
G03X1987787Y1621104I-1287J-0D01*
G01X1989074Y1619817D02*
Y1619243D01*
G03X1989194Y1618918I500J0*
G01X1989622Y1617762D02*
G03X1989194Y1618918I-1780J-0D01*
G01X1989622Y1617762D02*
Y1613631D01*
G03X1989932Y1613169I500J0*
G01X1991085Y1611210D02*
G03X1989932Y1613169I-1865J221D01*
G01X1991085Y1611210D02*
G03X1991581Y1610651I496J-59D01*
G01X1992288*
G03X1992788Y1611151I0J500*
G01Y1611235*
X1992835Y1611581D02*
G03X1992788Y1611235I1241J-346D01*
G01X1992835Y1611581D02*
G03X1992749Y1612022I-481J134D01*
G01X1992394Y1613054D02*
G03X1992749Y1612022I1682J0D01*
G01X1992394Y1613054D02*
Y1615054D01*
X1994076Y1616735D02*
G03X1992394Y1615054I-0J-1681D01*
G01X1994076Y1616735D02*
X1995850D01*
G03X1996350Y1617235I-0J500*
G01Y1619628*
G03X1996203Y1619982I-500J-0*
G01X1994410Y1621775*
X1994268Y1621931D02*
G03X1994410Y1621775I1818J1520D01*
G01X1994268Y1621931D02*
X1994206Y1622005D01*
G03X1993822Y1622184I-384J-321*
G01X1979307*
G03X1978954Y1622038I0J-500*
G01X1966671Y1609755*
X1965828Y1609212D02*
G03X1966671Y1609755I-833J2219D01*
G01X1965828Y1609212D02*
G03X1965505Y1608771I176J-468D01*
G01X1965221Y1607875D02*
G03X1965505Y1608771I-1592J997D01*
G01X1965221Y1607875D02*
G03X1965291Y1607256I423J-266D01*
G01X1969187Y1603360*
X1969708Y1602101D02*
G03X1969187Y1603360I-1780J0D01*
G01X1969708Y1602101D02*
Y1597044D01*
G03X1969797Y1596759I500J-0*
G01X1970200Y1595479D02*
G03X1969797Y1596759I-2272J-12D01*
G01X1970200Y1595479D02*
G03X1970700Y1594982I500J3D01*
G01X1971520*
G03X1971873Y1595129I-0J500*
G01X1972255Y1595510*
G03X1972393Y1595774I-353J354*
G01X1975036Y1593132D02*
G03X1972393Y1595774I-408J2235D01*
G01X1975036Y1593132D02*
G03X1974772Y1592994I89J-492D01*
G01X1973722Y1591944*
X1972464Y1591423D02*
G03X1973722Y1591944I0J1780D01*
G01X1972464Y1591423D02*
X1966991D01*
X1965733Y1591944D02*
G03X1966991Y1591423I1258J1259D01*
G01X1965733Y1591944D02*
X1965574Y1592104D01*
G03X1964886Y1592122I-354J-354*
G01X1963629Y1591640D02*
G03X1964886Y1592122I0J1878D01*
G01X1963629Y1591640D02*
X1960873D01*
X1959098Y1594130D02*
G03X1960873Y1591640I1775J-612D01*
G01X1959098Y1594130D02*
G03X1958272Y1594647I-472J163D01*
G01X1958011Y1594386*
G03X1957892Y1594194I354J-353*
G01X1956673Y1593321D02*
G03X1957892Y1594194I-0J1287D01*
G01X1956673Y1593321D02*
X1954673D01*
X1954018Y1593500D02*
G03X1954673Y1593321I655J1108D01*
G01X1954018Y1593500D02*
G03X1953509I-255J-431D01*
G01X1952854Y1593321D02*
G03X1953509Y1593500I-0J1287D01*
G01X1952854Y1593321D02*
X1950854D01*
X1950685Y1593332D02*
G03X1950854Y1593321I169J1276D01*
G01X1950685Y1593332D02*
G03X1950534Y1593329I-66J-496D01*
G01X1948038Y1594726D02*
G03X1950534Y1593329I2110J841D01*
G01X1948038Y1594726D02*
G03X1947073Y1594529I-465J-185D01*
G01X1947074Y1594451D02*
G03X1947073Y1594529I-3452J-0D01*
G01X1947074Y1594451D02*
Y1585219D01*
G03X1947234Y1584853I500J-0*
G01X1948919Y1583284*
G03X1949260Y1583150I341J366*
G01X1949674*
X1952339Y1580485D02*
G03X1949674Y1583150I-2665J-0D01*
G01X1952339Y1580485D02*
Y1580075D01*
G03X1952406Y1579827I500J0*
G01Y1576395D02*
G03Y1579827I-2997J1716D01*
G01Y1576395D02*
G03X1952339Y1576146I433J-249D01*
G01Y1575899*
X1949674Y1573234D02*
G03X1952339Y1575899I0J2665D01*
G01X1949674Y1573234D02*
X1945967D01*
X1943301Y1575899D02*
G03X1945967Y1573234I2666J0D01*
G01X1943301Y1575899D02*
Y1578861D01*
G03X1943142Y1579227I-500J0*
G01X1941269Y1580970*
X1940169Y1583498D02*
G03X1941269Y1580970I3453J-0D01*
G01X1940169Y1583498D02*
Y1593033D01*
G03X1940022Y1593386I-500J-0*
G01X1937896Y1595512*
G03X1937772Y1595603I-354J-353*
G01X1935795Y1598847D02*
G03X1937772Y1595603I3649J-0D01*
G01X1935795Y1598847D02*
Y1598854D01*
G03X1935690Y1599160I-500J0*
G01X1935673Y1599182D02*
G03X1935690Y1599160I1971J1487D01*
G01X1935673Y1599182D02*
G03X1935266Y1599381I-399J-301D01*
G01X1935244D02*
G03X1935266I0J1288D01*
G01X1935244D02*
X1931644D01*
X1930357Y1600669D02*
G03X1931644Y1599381I1287J-0D01*
G01X1930357Y1600669D02*
Y1603669D01*
X1931644Y1604956D02*
G03X1930357Y1603669I0J-1287D01*
G01X1931644Y1604956D02*
X1935244D01*
X1935266D02*
G03X1935244I-22J-1287D01*
G01X1935266D02*
G03X1935673Y1605155I8J500D01*
G01X1935690Y1605177D02*
G03X1935673Y1605155I1954J-1508D01*
G01X1935690Y1605177D02*
G03X1935795Y1605483I-395J306D01*
G01Y1605715*
G03X1935656Y1606061I-500J-0*
G01X1935466Y1606283D02*
G03X1935656Y1606061I1971J1487D01*
G01X1935466Y1606283D02*
G03X1935058Y1606482I-399J-301D01*
G01X1935037D02*
G03X1935058I0J1288D01*
G01X1935037D02*
X1931437D01*
X1930150Y1607770D02*
G03X1931437Y1606482I1287J-0D01*
G01X1930150Y1607770D02*
Y1610770D01*
X1931437Y1612057D02*
G03X1930150Y1610770I0J-1287D01*
G01X1931437Y1612057D02*
X1935037D01*
X1935058D02*
G03X1935037I-21J-1287D01*
G01X1935058D02*
G03X1935466Y1612256I9J500D01*
G01X1935496Y1612294D02*
G03X1935466Y1612256I1941J-1524D01*
G01X1935495Y1612294D02*
G03X1935102Y1613103I-393J309D01*
G01X1931583*
X1930295Y1614390D02*
G03X1931583Y1613103I1288J0D01*
G01X1930295Y1614390D02*
Y1617390D01*
X1931583Y1618678D02*
G03X1930295Y1617390I-0J-1288D01*
G01X1931583Y1618678D02*
X1935183D01*
X1935204D02*
G03X1935183I-21J-1288D01*
G01X1935204D02*
G03X1935612Y1618876I8J499D01*
G01X1937583Y1619859D02*
G03X1935612Y1618876I-0J-2469D01*
G01X1937583Y1619859D02*
X1941183D01*
X1942296Y1619594D02*
G03X1941183Y1619859I-1113J-2204D01*
G01X1942296Y1619594D02*
G03X1942521Y1619540I225J446D01*
G01X1944877*
G03X1945230Y1619686I-0J500*
G01X1947050Y1621505*
X1947051Y1621506*
X1948393Y1622848*
G03X1948539Y1623195I-354J353*
G01X1950451Y1626241D02*
G03X1948539Y1623195I1541J-3090D01*
G01X1950451Y1626241D02*
G03X1950533Y1626293I-223J448D01*
G01X1952158Y1626846D02*
G03X1950533Y1626293I0J-2666D01*
G01X1952158Y1626846D02*
X1953189D01*
G03X1953303Y1626859I0J500*
G01X1955066Y1626835D02*
G03X1953303Y1626859I-930J-3530D01*
G01X1955066Y1626835D02*
G03X1955127Y1626823I127J483D01*
G01X1957190Y1625312D02*
G03X1955127Y1626823I-2414J-1132D01*
G01X1957190Y1625312D02*
G03X1957220Y1625257I452J212D01*
G01X1957483Y1621851D02*
G03X1957220Y1625257I-3347J1454D01*
G01X1957483Y1621851D02*
G03X1957442Y1621652I459J-199D01*
G01Y1621438*
X1955689Y1618933D02*
G03X1957442Y1621438I-913J2505D01*
G01X1955689Y1618933D02*
G03X1955523Y1618832I172J-469D01*
G01X1953990Y1618018D02*
G03X1955523Y1618832I-801J3358D01*
G01X1953990Y1618018D02*
G03X1953753Y1617885I117J-486D01*
G01X1952211Y1616344*
Y1616343D02*
X1952156Y1616289D01*
G03X1952510Y1615435I354J-354*
G01X1953114*
X1953459Y1615388D02*
G03X1953114Y1615435I-345J-1240D01*
G01X1953459Y1615388D02*
G03X1953901Y1615475I135J481D01*
G01X1954933Y1615829D02*
G03X1953901Y1615475I-0J-1681D01*
G01X1954933Y1615829D02*
X1956933D01*
X1957913Y1615513D02*
G03X1956933Y1615829I-980J-1365D01*
G01X1957913Y1615513D02*
G03X1958205Y1615419I292J406D01*
G01X1959157*
X1960763Y1614754D02*
G03X1959157Y1615419I-1606J-1606D01*
G01X1960763Y1614754D02*
X1961587Y1613931D01*
G03X1961994Y1613787I353J353*
G01X1962251Y1613801D02*
G03X1961994Y1613787I0J-2370D01*
G01X1962251Y1613801D02*
X1963806D01*
G03X1964160Y1613948I0J500*
G01X1976443Y1626230*
X1978119Y1626924D02*
G03X1976443Y1626230I-0J-2370D01*
G01X1978119Y1626924D02*
X1992293D01*
G03X1992793Y1627424I0J500*
G01Y1656172*
G03X1992656Y1656516I-500J0*
G01X1994382Y1662254D02*
G03X1992656Y1656516I782J-3364D01*
G01X1994382Y1662254D02*
G03X1994623Y1663094I-113J487D01*
G01X1975737Y1682005*
G03X1975383Y1682151I-354J-354*
G01X1971552*
G03X1971052Y1681651I-0J-500*
G01Y1657023*
X1924496*
G03X1923996Y1656523I-0J-500*
G01Y1546974*
G03X1924496Y1546474I500J0*
G01X1959656*
G03X1960009Y1546621I-0J500*
G01X1966593Y1553204*
X1968199Y1553870D02*
G03X1966593Y1553204I0J-2272D01*
G01X1968199Y1553870D02*
X1969759D01*
G03X1969981Y1553922I-0J500*
G01X1970552Y1554055D02*
G03X1969981Y1553922I-0J-1287D01*
G01X1970552Y1554055D02*
X1973552D01*
X1974123Y1553922D02*
G03X1973552Y1554055I-571J-1154D01*
G01X1974123Y1553922D02*
G03X1974345Y1553870I222J448D01*
G01X1975333*
G03X1975813Y1554231I-0J500*
G01X1977200Y1555730D02*
G03X1975813Y1554231I796J-2127D01*
G01X1977200Y1555730D02*
G03X1977121Y1556689I-176J468D01*
G01X1976716Y1556844D02*
G03X1977121Y1556689I655J1108D01*
G01X1976716Y1556844D02*
G03X1976207I-255J-431D01*
G01X1975552Y1556665D02*
G03X1976207Y1556844I-0J1287D01*
G01X1975552Y1556665D02*
X1973552D01*
X1972265Y1557952D02*
G03X1973552Y1556665I1287J-0D01*
G01X1972265Y1557952D02*
Y1559952D01*
X1973552Y1561239D02*
G03X1972265Y1559952I-0J-1287D01*
G01X1973552Y1561239D02*
X1975552D01*
X1976207Y1561060D02*
G03X1975552Y1561239I-655J-1108D01*
G01X1976207Y1561060D02*
G03X1976716I254J431D01*
G01X1977371Y1561239D02*
G03X1976716Y1561060I-0J-1287D01*
G01X1977371Y1561239D02*
X1979371D01*
X1980658Y1559977D02*
G03X1979371Y1561239I-1287J-25D01*
G01X1980658Y1559977D02*
G03X1981158Y1559486I500J9D01*
G01X1981460*
G03X1981744Y1559575I-0J500*
G01X1983978Y1555640D02*
G03X1981744Y1559575I-942J2067D01*
G01X1983978Y1555639D02*
G03X1983748Y1554942I207J-455D01*
G01X1983461Y1552329D02*
G03X1983748Y1554942I-1699J1509D01*
G01X1983461Y1552329D02*
G03X1983535Y1551597I374J-332D01*
G01X1980895Y1547901D02*
G03X1983535Y1551597I1279J1877D01*
G01X1980895Y1547901D02*
G03X1980614Y1547987I-281J-414D01*
G01X1979138*
G03X1978932Y1547943I0J-500*
G01X1978043Y1547742D02*
G03X1978932Y1547943I-47J2271D01*
G01X1978043Y1547742D02*
G03X1977767Y1546832I10J-500D01*
G01X1978060Y1546589D02*
G03X1977767Y1546832I-1592J-1621D01*
G01X1978060Y1546589D02*
G03X1978410Y1546445I350J356D01*
G01X2011893*
X2009979Y1543025*
G03X2010415Y1542281I436J-244*
G01X2037082*
G03X2037582Y1542781I0J500*
G01X2055296Y1572378D02*
G03Y1573274I-221J448D01*
G01X2054528Y1573889D02*
G03X2055296Y1573274I1780J1437D01*
G01X2054528Y1573889D02*
G03X2054139Y1574074I-389J-315D01*
G01X2049392*
G03X2048903Y1573467I-0J-500*
G01X2048940Y1573254D02*
G03X2048903Y1573467I-2256J-273D01*
G01X2048940Y1573254D02*
G03X2049082Y1572960I496J60D01*
G01X2049852Y1572190*
G03X2050206Y1572044I354J354*
G01X2054619*
G03X2054922Y1572146I0J500*
G01X2055296Y1572378D02*
G03X2054922Y1572146I1012J-2052D01*
G01X2054586Y1577633D02*
G03X2054895Y1578527I0J500D01*
G01X2054178Y1581162D02*
G03X2054895Y1578527I2130J-836D01*
G01X2054178Y1581162D02*
G03X2053713Y1581844I-465J182D01*
G01X2050056*
X2048923Y1582314D02*
G03X2050056Y1581844I1133J1133D01*
G01X2048923Y1582314D02*
X2044994Y1586243D01*
X2044524Y1587376D02*
G03X2044994Y1586243I1603J-0D01*
G01X2044524Y1587376D02*
Y1594907D01*
G03X2044378Y1595260I-500J-0*
G01X2043188Y1596450*
G03X2042835Y1596596I-353J-354*
G01X2031200*
G03X2030846Y1596450I-0J-500*
G01X2029771Y1595374*
G03X2029624Y1595021I353J-353*
G01Y1584268*
X2029453Y1583548D02*
G03X2029624Y1584268I-1431J720D01*
G01X2029453Y1583548D02*
G03X2029449Y1583540I447J-224D01*
G01X2029297Y1583286D02*
G03X2029449Y1583540I-1293J946D01*
G01X2029297Y1583286D02*
G03X2029524Y1582523I404J-295D01*
G01X2030228Y1581880D02*
G03X2029524Y1582523I-1158J-562D01*
G01X2030228Y1581880D02*
G03X2030678Y1581598I450J218D01*
G01X2031556*
G03X2031942Y1581780I-0J500*
G01X2033708Y1582613D02*
G03X2031942Y1581780I-0J-2287D01*
G01X2033708Y1582613D02*
X2039108D01*
X2040119Y1578274D02*
G03X2039108Y1582613I-1011J2052D01*
G01X2040119Y1578274D02*
G03Y1577378I221J-448D01*
G01X2040673Y1576994D02*
G03X2040119Y1577378I-1565J-1668D01*
G01X2040673Y1576994D02*
G03X2041435Y1577087I342J364D01*
G01X2044636Y1577722D02*
G03X2041435Y1577087I-1293J-1868D01*
G01X2044636Y1577722D02*
G03X2044920Y1577633I284J411D01*
G01X2054586*
X2055068Y1591978D02*
G03X2055046Y1592815I-284J411D01*
G01X2054856Y1592957D02*
G03X2055046Y1592815I864J954D01*
G01X2054856Y1592957D02*
G03X2054185I-336J-370D01*
G01X2054053Y1592853D02*
G03X2054185Y1592957I-733J1058D01*
G01X2054053Y1592853D02*
G03X2054075Y1592016I284J-412D01*
G01X2054265Y1591873D02*
G03X2054075Y1592016I-864J-954D01*
G01X2054265Y1591873D02*
G03X2054936I336J371D01*
G01X2055068Y1591978D02*
G03X2054936Y1591873I733J-1059D01*
G01X1954801Y1685955D02*
G03X1954813Y1686657I-350J357D01*
G01X1954458Y1687545D02*
G03X1954813Y1686657I1287J-0D01*
G01X1954458Y1687545D02*
Y1689049D01*
G03X1953958Y1689549I-500J0*
G01X1945164*
G03X1944811Y1689403I0J-500*
G01X1941358Y1685950*
G03X1941925Y1685144I353J-354*
G01X1942687Y1685316D02*
G03X1941925Y1685144I0J-1780D01*
G01X1942687Y1685316D02*
X1954094D01*
G03X1954544Y1685598I-0J500*
G01X1954801Y1685955D02*
G03X1954544Y1685598I901J-919D01*
G01X1967992Y1702027D02*
Y1704283D01*
G03X1967492Y1704783I-500J-0*
G01X1924096*
G03X1923842Y1704713I-0J-500*
X1923109Y1704146I1886J-3197*
X1922961Y1703792I352J-354*
G01Y1660612*
G03X1923461Y1660112I500J0*
G01X1967492*
G03X1967992Y1660612I-0J500*
G01Y1681434*
G03X1967492Y1681934I-500J-0*
G01X1966985*
G03X1966515Y1681602I0J-500*
G01X1965302Y1680749D02*
G03X1966515Y1681602I0J1287D01*
G01X1965302Y1680749D02*
X1961702D01*
X1960838Y1681082D02*
G03X1961702Y1680749I864J954D01*
G01X1960838Y1681082D02*
G03X1960167I-336J-370D01*
G01X1959302Y1680749D02*
G03X1960167Y1681082I0J1287D01*
G01X1959302Y1680749D02*
X1955702D01*
X1954544Y1681475D02*
G03X1955702Y1680749I1158J561D01*
G01X1954544Y1681475D02*
G03X1954094Y1681757I-450J-218D01*
G01X1943632*
G03X1943278Y1681610I-0J-500*
G01X1940819Y1679151*
G03X1940681Y1678887I353J-354*
G01X1938038Y1681529D02*
G03X1940681Y1678887I408J-2235D01*
G01X1938038Y1681529D02*
G03X1938302Y1681668I-89J492D01*
G01X1939038Y1682404*
G03X1938634Y1683255I-353J353*
G01X1937999Y1687750D02*
G03X1938634Y1683255I407J-2235D01*
G01X1937999Y1687750D02*
G03X1938263Y1687888I-90J492D01*
G01X1942962Y1692587*
X1944220Y1693108D02*
G03X1942962Y1692587I-0J-1779D01*
G01X1944220Y1693108D02*
X1953904D01*
G03X1954404Y1693608I0J500*
G01Y1694365*
G03X1954217Y1694755I-500J0*
G01X1954046Y1694892*
G03X1953769Y1695001I-313J-390*
G01X1951678Y1697577D02*
G03X1953769Y1695001I2250J-310D01*
G01X1951678Y1697577D02*
G03X1951183Y1698145I-495J68D01*
G01X1932500*
G03X1932146Y1697998I0J-500*
G01X1930528Y1696379*
G03X1930389Y1696116I353J-353*
G01X1927747Y1698758D02*
G03X1930389Y1696116I407J-2235D01*
G01X1927747Y1698758D02*
G03X1928011Y1698896I-90J492D01*
G01X1930297Y1701183*
X1931556Y1701704D02*
G03X1930297Y1701183I-0J-1780D01*
G01X1931556Y1701704D02*
X1954083D01*
G03X1954533Y1701986I0J500*
G01X1955692Y1702712D02*
G03X1954533Y1701986I-0J-1288D01*
G01X1955692Y1702712D02*
X1959292D01*
X1960156Y1702379D02*
G03X1959292Y1702712I-864J-955D01*
G01X1960156Y1702379D02*
G03X1960827I336J370D01*
G01X1961692Y1702712D02*
G03X1960827Y1702379I-0J-1288D01*
G01X1961692Y1702712D02*
X1965292D01*
X1966504Y1701858D02*
G03X1965292Y1702712I-1212J-434D01*
G01X1966504Y1701858D02*
G03X1966974Y1701527I470J169D01*
G01X1967492*
G03X1967992Y1702027I-0J500*
G01X2043662Y1614583D02*
G03X2040895Y1617351I-1384J1384D01*
G01X2043662Y1614583D02*
X2042662Y1613583D01*
X2039895Y1616351D02*
G03X2042662Y1613583I1383J-1384D01*
G01X2039895Y1616351D02*
X2040895Y1617351D01*
X1995280Y1557337D02*
G03X1990768Y1557559I-2244J353D01*
G01X1995280Y1557337D02*
G03X1995277Y1557207I494J-78D01*
G01X1995284Y1557071D02*
G03X1995277Y1557207I-1287J0D01*
G01X1995284Y1557071D02*
Y1555071D01*
X1995105Y1554416D02*
G03X1995284Y1555071I-1108J655D01*
G01X1995105Y1554416D02*
G03Y1553908I431J-254D01*
G01X1995284Y1553252D02*
G03X1995105Y1553908I-1287J0D01*
G01X1995284Y1553252D02*
Y1551252D01*
X1993997Y1549965D02*
G03X1995284Y1551252I-0J1287D01*
G01X1993997Y1549965D02*
X1991997D01*
X1990709Y1551252D02*
G03X1991997Y1549965I1288J0D01*
G01X1990709Y1551252D02*
Y1553252D01*
X1990889Y1553908D02*
G03X1990709Y1553252I1108J-656D01*
G01X1990889Y1553908D02*
G03Y1554416I-431J254D01*
G01X1990709Y1555071D02*
G03X1990889Y1554416I1288J0D01*
G01X1990709Y1555071D02*
Y1557071D01*
X1990753Y1557402D02*
G03X1990709Y1557071I1244J-331D01*
G01X1990753Y1557402D02*
G03X1990768Y1557559I-484J128D01*
G01X1938276Y1589744D02*
G03X1938276I-5500J0D01*
G01X2042580D02*
G03X2042580I-5540J0D01*
G01X2053838Y1592459D02*
X2055279D01*
X2043888Y1578059D02*
X2055081D01*
X2040942Y1578959D02*
X2054473D01*
X2040966Y1581659D02*
X2054101D01*
X2041347Y1579859D02*
X2054068D01*
X2041354Y1580759D02*
X2054062D01*
X2039602Y1582559D02*
X2048677D01*
X2029408Y1583459D02*
X2047777D01*
X2038340Y1584359D02*
X2046877D01*
X2040292Y1585259D02*
X2045977D01*
X2041263Y1586159D02*
X2045077D01*
X2041886Y1587059D02*
X2044556D01*
X2040249Y1594259D02*
X2044524D01*
X2041237Y1593359D02*
X2044524D01*
X2041869Y1592459D02*
X2044524D01*
X2042274Y1591559D02*
X2044524D01*
X2042504Y1590659D02*
X2044524D01*
X2042580Y1589759D02*
X2044524D01*
X2042509Y1588859D02*
X2044524D01*
X2042284Y1587959D02*
X2044524D01*
X2038207Y1595159D02*
X2044456D01*
X2030456Y1596059D02*
X2043579D01*
X2039898Y1578059D02*
X2042798D01*
X2040476Y1577159D02*
X2041484D01*
X2029644Y1595159D02*
X2035874D01*
X2029624Y1584359D02*
X2035741D01*
X2029624Y1594259D02*
X2033831D01*
X2029624Y1585259D02*
X2033789D01*
X2029448Y1582559D02*
X2033213D01*
X2029624Y1593359D02*
X2032843D01*
X2029624Y1586159D02*
X2032817D01*
X2029624Y1592459D02*
X2032212D01*
X2029624Y1587059D02*
X2032195D01*
X2029624Y1591559D02*
X2031807D01*
X2029624Y1587959D02*
X2031796D01*
X2030438Y1581659D02*
X2031796D01*
X2029624Y1590659D02*
X2031577D01*
X2029624Y1588859D02*
X2031572D01*
X2029624Y1589759D02*
X2031501D01*
X2049383Y1572659D02*
X2055546D01*
X2048892Y1573559D02*
X2054855D01*
X1984386Y1549259D02*
X2037582D01*
X1983949Y1548359D02*
X2037582D01*
X1977603Y1547459D02*
X2037582D01*
X1978093Y1546559D02*
X2037582D01*
X2011453Y1545659D02*
X2037582D01*
X2010949Y1544759D02*
X2037582D01*
X2010446Y1543859D02*
X2037582D01*
X2009948Y1542959D02*
X2037582D01*
X1994677Y1550159D02*
X2036130D01*
X1995270Y1551059D02*
X2035253D01*
X1995284Y1551959D02*
X2033445D01*
X1995284Y1552859D02*
X2032545D01*
X1995180Y1553759D02*
X2031645D01*
X2010064Y1554659D02*
X2030745D01*
X2011386Y1555559D02*
X2029845D01*
X2011763Y1556459D02*
X2028945D01*
X2011746Y1557359D02*
X2028045D01*
X2011343Y1558259D02*
X2027145D01*
X2011308Y1559159D02*
X2026245D01*
X2011245Y1560059D02*
X2025345D01*
X2010676Y1560959D02*
X2024445D01*
X2009847Y1561859D02*
X2023545D01*
X2009820Y1562759D02*
X2022645D01*
X2009820Y1563659D02*
X2021745D01*
X2009820Y1564559D02*
X2020845D01*
X2009820Y1565459D02*
X2019945D01*
X2009820Y1566359D02*
X2019045D01*
X2009820Y1567259D02*
X2018145D01*
X2009820Y1568159D02*
X2017245D01*
X2009820Y1569059D02*
X2016345D01*
X2009820Y1569959D02*
X2015445D01*
X2009820Y1570859D02*
X2014545D01*
X2009739Y1571759D02*
X2013645D01*
X2011343Y1587959D02*
X2012791D01*
X2010443Y1587059D02*
X2012791D01*
X2009543Y1586159D02*
X2012791D01*
X2009359Y1585259D02*
X2012791D01*
X2009359Y1584359D02*
X2012791D01*
X2009114Y1583459D02*
X2012791D01*
X2009126Y1572659D02*
X2012745D01*
X2011974Y1582559D02*
X2012604D01*
X2008226Y1573559D02*
X2011850D01*
X2007445Y1574459D02*
X2011425D01*
X2007012Y1577159D02*
X2011402D01*
X2007431Y1576259D02*
X2011402D01*
X2007435Y1575359D02*
X2011402D01*
X2007336Y1578059D02*
X2010834D01*
X2007435Y1578959D02*
X2009223D01*
X2007432Y1582559D02*
X2009204D01*
X1995217Y1554659D02*
X2008993D01*
X2007435Y1581659D02*
X2008697D01*
X2007435Y1579859D02*
X2008607D01*
X2007435Y1580759D02*
X2008465D01*
X1995236Y1558259D02*
X2007714D01*
X1995284Y1555559D02*
X2007671D01*
X1994769Y1559159D02*
X2007442D01*
X1995284Y1557359D02*
X2007311D01*
X1995284Y1556459D02*
X2007294D01*
X1980654Y1560059D02*
X2006581D01*
X1980173Y1560959D02*
X2006265D01*
X2004016Y1566359D02*
X2006261D01*
X1923996Y1565459D02*
X2006261D01*
X1923996Y1564559D02*
X2006261D01*
X1923996Y1563659D02*
X2006261D01*
X1923996Y1562759D02*
X2006261D01*
X1923996Y1561859D02*
X2006261D01*
X2005399Y1567259D02*
X2006122D01*
X1923996Y1566359D02*
X1997895D01*
X1923996Y1567259D02*
X1996558D01*
X1992092Y1570859D02*
X1996391D01*
X1989074Y1619459D02*
X1996350D01*
X1989433Y1618559D02*
X1996350D01*
X1989622Y1617659D02*
X1996350D01*
X1989622Y1616759D02*
X1996002D01*
X1990991Y1568159D02*
X1995978D01*
X1992191Y1569959D02*
X1995932D01*
X1988954Y1620359D02*
X1995826D01*
X1991912Y1569059D02*
X1995798D01*
X1992224Y1571759D02*
X1995318D01*
X1978175Y1621259D02*
X1994926D01*
X1971052Y1662659D02*
X1994763D01*
X1992811Y1572659D02*
X1994731D01*
X1971052Y1663559D02*
X1994158D01*
X1979151Y1622159D02*
X1993978D01*
X1971052Y1664459D02*
X1993260D01*
X1971052Y1661759D02*
X1993242D01*
X1991097Y1611359D02*
X1992794D01*
X1923996Y1655459D02*
X1992793D01*
X1923996Y1654559D02*
X1992793D01*
X1923996Y1653659D02*
X1992793D01*
X1923996Y1652759D02*
X1992793D01*
X1923996Y1651859D02*
X1992793D01*
X1923996Y1650959D02*
X1992793D01*
X1923996Y1650059D02*
X1992793D01*
X1923996Y1649159D02*
X1992793D01*
X1923996Y1648259D02*
X1992793D01*
X1923996Y1647359D02*
X1992793D01*
X1923996Y1646459D02*
X1992793D01*
X1923996Y1645559D02*
X1992793D01*
X1923996Y1644659D02*
X1992793D01*
X1923996Y1643759D02*
X1992793D01*
X1923996Y1642859D02*
X1992793D01*
X1923996Y1641959D02*
X1992793D01*
X1923996Y1641059D02*
X1992793D01*
X1923996Y1640159D02*
X1992793D01*
X1923996Y1639259D02*
X1992793D01*
X1923996Y1638359D02*
X1992793D01*
X1923996Y1637459D02*
X1992793D01*
X1923996Y1636559D02*
X1992793D01*
X1923996Y1635659D02*
X1992793D01*
X1923996Y1634759D02*
X1992793D01*
X1923996Y1633859D02*
X1992793D01*
X1923996Y1632959D02*
X1992793D01*
X1923996Y1632059D02*
X1992793D01*
X1923996Y1631159D02*
X1992793D01*
X1923996Y1630259D02*
X1992793D01*
X1923996Y1629359D02*
X1992793D01*
X1923996Y1628459D02*
X1992793D01*
X1923996Y1627559D02*
X1992793D01*
X1923996Y1656359D02*
X1992757D01*
X1989622Y1615859D02*
X1992600D01*
X1990905Y1612259D02*
X1992594D01*
X1989622Y1614959D02*
X1992394D01*
X1989622Y1614059D02*
X1992394D01*
X1989955Y1613159D02*
X1992394D01*
X1971052Y1665359D02*
X1992361D01*
X1971052Y1660859D02*
X1992327D01*
X1971052Y1657259D02*
X1992120D01*
X1971052Y1659959D02*
X1991880D01*
X1971052Y1658159D02*
X1991789D01*
X1971052Y1659059D02*
X1991715D01*
X1971052Y1666259D02*
X1991462D01*
X1984414Y1550159D02*
X1991317D01*
X1984783Y1559159D02*
X1991304D01*
X1985240Y1558259D02*
X1990837D01*
X1984033Y1553759D02*
X1990813D01*
X1983880Y1554659D02*
X1990777D01*
X1985281Y1557359D02*
X1990742D01*
X1984050Y1551059D02*
X1990724D01*
X1984935Y1556459D02*
X1990709D01*
X1983854Y1555559D02*
X1990709D01*
X1983812Y1552859D02*
X1990709D01*
X1983336Y1551959D02*
X1990709D01*
X1971052Y1667159D02*
X1990563D01*
X1971052Y1668059D02*
X1989664D01*
X1988335Y1568159D02*
X1988865D01*
X1971052Y1668959D02*
X1988765D01*
X1971052Y1669859D02*
X1987866D01*
X1971052Y1670759D02*
X1986968D01*
X1947074Y1588859D02*
X1986115D01*
X1947074Y1587959D02*
X1986115D01*
X1971052Y1671659D02*
X1986069D01*
X1947074Y1587059D02*
X1986042D01*
X1947074Y1589759D02*
X1985776D01*
X1973147Y1591559D02*
X1985757D01*
X1947074Y1590659D02*
X1985624D01*
X1923996Y1568159D02*
X1985330D01*
X1947074Y1586159D02*
X1985265D01*
X1971052Y1672559D02*
X1985170D01*
X1947074Y1585259D02*
X1985049D01*
X1947764Y1584359D02*
X1985049D01*
X1948731Y1583459D02*
X1985049D01*
X1969689Y1602359D02*
X1984946D01*
X1974237Y1592459D02*
X1984913D01*
X1969708Y1599659D02*
X1984889D01*
X1976891Y1595159D02*
X1984825D01*
X1976249Y1596959D02*
X1984806D01*
X1969708Y1597859D02*
X1984754D01*
X1976612Y1594259D02*
X1984739D01*
X1923996Y1569059D02*
X1984705D01*
X1969708Y1600559D02*
X1984697D01*
X1923996Y1570859D02*
X1984662D01*
X1969280Y1603259D02*
X1984652D01*
X1969708Y1601459D02*
X1984605D01*
X1968387Y1604159D02*
X1984596D01*
X1975691Y1593359D02*
X1984593D01*
X1969708Y1598759D02*
X1984590D01*
X1976792Y1596059D02*
X1984586D01*
X1923996Y1569959D02*
X1984559D01*
X1971052Y1673459D02*
X1984271D01*
X1971052Y1674359D02*
X1983372D01*
X1967487Y1605059D02*
X1983226D01*
X1971052Y1675259D02*
X1982473D01*
X1966587Y1605959D02*
X1982326D01*
X1971052Y1676159D02*
X1981575D01*
X1965687Y1606859D02*
X1981479D01*
X1965167Y1607759D02*
X1981190D01*
X1972775Y1615859D02*
X1981188D01*
X1971875Y1614959D02*
X1981188D01*
X1970975Y1614059D02*
X1981188D01*
X1970075Y1613159D02*
X1981188D01*
X1969175Y1612259D02*
X1981188D01*
X1968275Y1611359D02*
X1981188D01*
X1967375Y1610459D02*
X1981188D01*
X1966449Y1609559D02*
X1981188D01*
X1965495Y1608659D02*
X1981188D01*
X1973675Y1616759D02*
X1981151D01*
X1977275Y1620359D02*
X1980800D01*
X1974575Y1617659D02*
X1980690D01*
X1976375Y1619459D02*
X1980681D01*
X1975475Y1618559D02*
X1980681D01*
X1971052Y1677059D02*
X1980676D01*
X1971052Y1677959D02*
X1979777D01*
X1952728Y1577159D02*
X1979296D01*
X1923996Y1571759D02*
X1979056D01*
X1951348Y1582559D02*
X1978943D01*
X1952862Y1578059D02*
X1978910D01*
X1971052Y1678859D02*
X1978878D01*
X1952352Y1576259D02*
X1978859D01*
X1952067Y1581659D02*
X1978845D01*
X1952325Y1580759D02*
X1978845D01*
X1952389Y1579859D02*
X1978845D01*
X1952756Y1578959D02*
X1978845D01*
X1952284Y1575359D02*
X1978845D01*
X1951917Y1574459D02*
X1978845D01*
X1950950Y1573559D02*
X1978845D01*
X1923996Y1572659D02*
X1978845D01*
X1971052Y1679759D02*
X1977979D01*
X1923996Y1556459D02*
X1977451D01*
X1971052Y1680659D02*
X1977080D01*
X1955756Y1626659D02*
X1977029D01*
X1923996Y1555559D02*
X1976842D01*
X1971052Y1681559D02*
X1976181D01*
X1923996Y1554659D02*
X1975985D01*
X1956924Y1625759D02*
X1975972D01*
X1957438Y1624859D02*
X1975072D01*
X1957726Y1623959D02*
X1974172D01*
X1957777Y1623059D02*
X1973272D01*
X1969715Y1596959D02*
X1973008D01*
X1923996Y1560959D02*
X1972750D01*
X1970121Y1596059D02*
X1972465D01*
X1923996Y1557359D02*
X1972409D01*
X1957601Y1622159D02*
X1972372D01*
X1923996Y1560059D02*
X1972269D01*
X1923996Y1559159D02*
X1972265D01*
X1923996Y1558259D02*
X1972265D01*
X1970318Y1595159D02*
X1971904D01*
X1957436Y1621259D02*
X1971472D01*
X1957214Y1620359D02*
X1970572D01*
X1956563Y1619459D02*
X1969672D01*
X1955185Y1618559D02*
X1968772D01*
X1953527Y1617659D02*
X1967872D01*
X1923996Y1553759D02*
X1967500D01*
X1952627Y1616759D02*
X1966972D01*
X1947074Y1591559D02*
X1966308D01*
X1923996Y1552859D02*
X1966248D01*
X1952015Y1615859D02*
X1966072D01*
X1923996Y1551959D02*
X1965348D01*
X1960527Y1614959D02*
X1965172D01*
X1923996Y1551059D02*
X1964448D01*
X1961458Y1614059D02*
X1964272D01*
X1923996Y1550159D02*
X1963548D01*
X1923996Y1549259D02*
X1962648D01*
X1923996Y1548359D02*
X1961748D01*
X1923996Y1547459D02*
X1960848D01*
X1924217Y1546559D02*
X1959935D01*
X1947074Y1592459D02*
X1959322D01*
X1957919Y1594259D02*
X1959124D01*
X1956985Y1593359D02*
X1959002D01*
X1953166D02*
X1954360D01*
X1923996Y1626659D02*
X1951179D01*
X1923996Y1625759D02*
X1949729D01*
X1947074Y1593359D02*
X1949615D01*
X1923996Y1624859D02*
X1948991D01*
X1923996Y1623959D02*
X1948635D01*
X1923996Y1623059D02*
X1948519D01*
X1947074Y1594259D02*
X1948291D01*
X1923996Y1622159D02*
X1947704D01*
X1923996Y1621259D02*
X1946804D01*
X1923996Y1620359D02*
X1945904D01*
X1923996Y1573559D02*
X1944691D01*
X1923996Y1574459D02*
X1943724D01*
X1923996Y1575359D02*
X1943357D01*
X1923996Y1578059D02*
X1943301D01*
X1923996Y1577159D02*
X1943301D01*
X1923996Y1576259D02*
X1943301D01*
X1923996Y1578959D02*
X1943292D01*
X1923996Y1579859D02*
X1942463D01*
X1923996Y1580759D02*
X1941496D01*
X1923996Y1581659D02*
X1940699D01*
X1923996Y1582559D02*
X1940299D01*
X1923996Y1583459D02*
X1940169D01*
X1937559Y1592459D02*
X1940169D01*
X1937967Y1591559D02*
X1940169D01*
X1938199Y1590659D02*
X1940169D01*
X1938276Y1589759D02*
X1940169D01*
X1938204Y1588859D02*
X1940169D01*
X1937978Y1587959D02*
X1940169D01*
X1937576Y1587059D02*
X1940169D01*
X1936947Y1586159D02*
X1940169D01*
X1935959Y1585259D02*
X1940169D01*
X1933895Y1584359D02*
X1940169D01*
X1936921Y1593359D02*
X1940047D01*
X1935916Y1594259D02*
X1939149D01*
X1933738Y1595159D02*
X1938249D01*
X1923996Y1596059D02*
X1937089D01*
X1923996Y1596959D02*
X1936321D01*
X1923996Y1619459D02*
X1936236D01*
X1923996Y1597859D02*
X1935931D01*
X1923996Y1598759D02*
X1935796D01*
X1923996Y1605959D02*
X1935731D01*
X1923996Y1605059D02*
X1935579D01*
X1923996Y1612259D02*
X1935469D01*
X1923996Y1595159D02*
X1931813D01*
X1923996Y1584359D02*
X1931656D01*
X1923996Y1613159D02*
X1931206D01*
X1923996Y1618559D02*
X1931043D01*
X1923996Y1599659D02*
X1930845D01*
X1923996Y1606859D02*
X1930527D01*
X1923996Y1604159D02*
X1930454D01*
X1923996Y1600559D02*
X1930362D01*
X1923996Y1603259D02*
X1930357D01*
X1923996Y1602359D02*
X1930357D01*
X1923996Y1601459D02*
X1930357D01*
X1923996Y1614059D02*
X1930339D01*
X1923996Y1617659D02*
X1930324D01*
X1923996Y1616759D02*
X1930295D01*
X1923996Y1615859D02*
X1930295D01*
X1923996Y1614959D02*
X1930295D01*
X1923996Y1611359D02*
X1930293D01*
X1923996Y1607759D02*
X1930150D01*
X1923996Y1610459D02*
X1930150D01*
X1923996Y1609559D02*
X1930150D01*
X1923996Y1608659D02*
X1930150D01*
X1923996Y1594259D02*
X1929635D01*
X1923996Y1585259D02*
X1929592D01*
X1923996Y1593359D02*
X1928631D01*
X1923996Y1586159D02*
X1928604D01*
X1923996Y1592459D02*
X1927992D01*
X1923996Y1587059D02*
X1927975D01*
X1923996Y1591559D02*
X1927584D01*
X1923996Y1587959D02*
X1927573D01*
X1923996Y1590659D02*
X1927352D01*
X1923996Y1588859D02*
X1927347D01*
X1923996Y1589759D02*
X1927276D01*
X1943713Y1603259D02*
X1949601D01*
X1945315Y1597859D02*
X1949522D01*
X1944415Y1598759D02*
X1948914D01*
X1943713Y1602359D02*
X1948357D01*
X1946206Y1596959D02*
X1948352D01*
X1943602Y1599659D02*
X1947994D01*
X1946782Y1596059D02*
X1947930D01*
X1943713Y1601459D02*
X1947814D01*
X1943710Y1600559D02*
X1947715D01*
X1949889Y1603259D02*
X1952131D01*
X1950458Y1604159D02*
X1951761D01*
X1983968Y1577159D02*
X1985049D01*
X1989674Y1587059D02*
X1996937D01*
X1989678Y1586159D02*
X1996827D01*
X1989674Y1587959D02*
X1996444D01*
X1990165Y1590659D02*
X1996350D01*
X1990012Y1589759D02*
X1996350D01*
X1989674Y1588859D02*
X1996350D01*
X1990005Y1591559D02*
X1993403D01*
X1990859Y1595159D02*
X1992653D01*
X1990771Y1592459D02*
X1992623D01*
X1990945Y1594259D02*
X1992589D01*
X1991091Y1593359D02*
X1992589D01*
X1992447Y1577159D02*
X1995095D01*
X1992501Y1578059D02*
X1995041D01*
X1992716Y1581659D02*
X1994826D01*
X1992716Y1580759D02*
X1994826D01*
X1992716Y1579859D02*
X1994826D01*
X1992716Y1578959D02*
X1994826D01*
X2012673Y1611359D02*
X2018754D01*
X2013573Y1610459D02*
X2017878D01*
X2014386Y1609559D02*
X2016978D01*
X2011773Y1612259D02*
X2016916D01*
X2008173Y1615859D02*
X2016104D01*
X2014773Y1608659D02*
X2016078D01*
X2010873Y1613159D02*
X2015893D01*
X2009073Y1614959D02*
X2015651D01*
X2009973Y1614059D02*
X2015581D01*
X2007273Y1616759D02*
X2012909D01*
X2006373Y1617659D02*
X2012267D01*
X2005473Y1618559D02*
X2012111D01*
X2005282Y1619459D02*
X2010915D01*
X1997534Y1647359D02*
X2009745D01*
X1997534Y1646459D02*
X2009745D01*
X1997534Y1645559D02*
X2009745D01*
X1997534Y1644659D02*
X2009745D01*
X1997534Y1643759D02*
X2009745D01*
X1997534Y1642859D02*
X2009745D01*
X1997534Y1641959D02*
X2009745D01*
X1997534Y1641059D02*
X2009745D01*
X1997534Y1640159D02*
X2009745D01*
X1997534Y1639259D02*
X2009745D01*
X1997534Y1638359D02*
X2009745D01*
X1997534Y1637459D02*
X2009745D01*
X1997534Y1636559D02*
X2009745D01*
X1997534Y1635659D02*
X2009745D01*
X1997534Y1634759D02*
X2009745D01*
X1997534Y1633859D02*
X2009745D01*
X1997534Y1632959D02*
X2009745D01*
X1997534Y1632059D02*
X2009745D01*
X1997534Y1631159D02*
X2009745D01*
X1997534Y1630259D02*
X2009745D01*
X1997534Y1629359D02*
X2009745D01*
X1997534Y1628459D02*
X2009745D01*
X1997534Y1627559D02*
X2009745D01*
X1997534Y1626659D02*
X2009745D01*
X1997534Y1625759D02*
X2009745D01*
X1998029Y1624859D02*
X2009745D01*
X2003425Y1623959D02*
X2009745D01*
X2004679Y1623059D02*
X2009535D01*
X2005518Y1620359D02*
X2009506D01*
X1997534Y1648259D02*
X2009439D01*
X2005253Y1622159D02*
X2009125D01*
X2005509Y1621259D02*
X2009117D01*
X1997534Y1649159D02*
X2008540D01*
X1997534Y1650059D02*
X2007641D01*
X1997534Y1650959D02*
X2006742D01*
X1997534Y1651859D02*
X2005843D01*
X1997534Y1652759D02*
X2004944D01*
X1997534Y1653659D02*
X2004046D01*
X1997534Y1654559D02*
X2003147D01*
X1997534Y1655459D02*
X2002248D01*
X1997570Y1656359D02*
X2001349D01*
X1998929Y1623959D02*
X2000756D01*
X1998207Y1657259D02*
X2000450D01*
X1998542Y1658159D02*
X1999551D01*
X2007643Y1605959D02*
X2009127D01*
X2008034Y1605059D02*
X2009111D01*
X2006228Y1606859D02*
X2009056D01*
X2001090Y1607759D02*
X2008177D01*
X2001090Y1608659D02*
X2007277D01*
X2001090Y1609559D02*
X2006377D01*
X2001090Y1610459D02*
X2005477D01*
X2001090Y1606859D02*
X2005377D01*
X2001090Y1611359D02*
X2004577D01*
X2001090Y1605959D02*
X2003962D01*
X2001090Y1612259D02*
X2003677D01*
X2001090Y1613159D02*
X2002777D01*
X2001319Y1614059D02*
X2001861D01*
X2007350Y1598759D02*
X2012038D01*
X2006961Y1597859D02*
X2012022D01*
X2001151Y1591559D02*
X2009522D01*
X2001090Y1590659D02*
X2009510D01*
X2005433Y1592459D02*
X2007017D01*
X2005629Y1596959D02*
X2007013D01*
X2005609Y1596059D02*
X2006934D01*
X2005609Y1595159D02*
X2006934D01*
X2005609Y1594259D02*
X2006934D01*
X2005609Y1593359D02*
X2006934D01*
X2001093Y1589759D02*
X2003305D01*
X2001834Y1588859D02*
X2003184D01*
X2013109Y1595159D02*
X2015694D01*
X2013486Y1594259D02*
X2015038D01*
X2013109Y1596059D02*
X2014760D01*
X2013460Y1596959D02*
X2013757D01*
X1974638Y1547459D02*
X1976826D01*
X1974554Y1548359D02*
X1976439D01*
X1975056Y1549259D02*
X1975742D01*
X2060450Y1598759D02*
X2076271D01*
X2060688Y1599659D02*
X2076270D01*
X2060688Y1600559D02*
X2076270D01*
X2060688Y1601459D02*
X2076270D01*
X2060688Y1602359D02*
X2076269D01*
X2060443Y1603259D02*
X2076269D01*
X2018015Y1604159D02*
X2076268D01*
X2017838Y1605059D02*
X2076268D01*
X2017924Y1605959D02*
X2076268D01*
X2018811Y1606859D02*
X2076267D01*
X2019711Y1607759D02*
X2076267D01*
X2020611Y1608659D02*
X2076266D01*
X2021511Y1609559D02*
X2076266D01*
X2022095Y1610459D02*
X2076265D01*
X2022145Y1611359D02*
X2076265D01*
X2022145Y1612259D02*
X2076265D01*
X2042027Y1613159D02*
X2076264D01*
X2043138Y1614059D02*
X2076264D01*
X2043956Y1614959D02*
X2076263D01*
X2044232Y1615859D02*
X2076263D01*
X2044067Y1616759D02*
X2076263D01*
X2043261Y1617659D02*
X2076262D01*
X2022145Y1618559D02*
X2076262D01*
X2022145Y1619459D02*
X2076261D01*
X2022145Y1620359D02*
X2076261D01*
X2022145Y1621259D02*
X2076261D01*
X2022145Y1622159D02*
X2076260D01*
X2022145Y1623059D02*
X2076260D01*
X2022145Y1623959D02*
X2076259D01*
X2022145Y1624859D02*
X2076259D01*
X2021945Y1625759D02*
X2076259D01*
X2021450Y1626659D02*
X2076258D01*
X2021450Y1627559D02*
X2076258D01*
X2021450Y1628459D02*
X2076257D01*
X2021450Y1629359D02*
X2076257D01*
X2021450Y1630259D02*
X2076256D01*
X2021450Y1631159D02*
X2076256D01*
X2021450Y1632059D02*
X2076256D01*
X2021450Y1632959D02*
X2076255D01*
X2021450Y1633859D02*
X2076255D01*
X2021450Y1634759D02*
X2076254D01*
X2021450Y1635659D02*
X2076254D01*
X2021450Y1636559D02*
X2076254D01*
X2021450Y1637459D02*
X2076253D01*
X2021450Y1638359D02*
X2076253D01*
X2021450Y1639259D02*
X2076252D01*
X2021450Y1640159D02*
X2076252D01*
X2021450Y1641059D02*
X2076252D01*
X2021450Y1641959D02*
X2076251D01*
X2021450Y1642859D02*
X2076251D01*
X2021450Y1643759D02*
X2076250D01*
X2021450Y1644659D02*
X2076250D01*
X2021450Y1645559D02*
X2076250D01*
X2021450Y1646459D02*
X2076249D01*
X2021450Y1647359D02*
X2076249D01*
X2021444Y1648259D02*
X2076248D01*
X2021064Y1649159D02*
X2076248D01*
X2020170Y1650059D02*
X2076247D01*
X2019270Y1650959D02*
X2076247D01*
X2018370Y1651859D02*
X2076247D01*
X2017470Y1652759D02*
X2076246D01*
X2016570Y1653659D02*
X2076246D01*
X2015670Y1654559D02*
X2076245D01*
X2014770Y1655459D02*
X2076245D01*
X2013870Y1656359D02*
X2076245D01*
X2012970Y1657259D02*
X2076244D01*
X2012070Y1658159D02*
X2076244D01*
X2011170Y1659059D02*
X2076243D01*
X2010270Y1659959D02*
X2076243D01*
X2009370Y1660859D02*
X2076243D01*
X2008470Y1661759D02*
X2076242D01*
X2007570Y1662659D02*
X2076242D01*
X2006670Y1663559D02*
X2076241D01*
X2012173Y1664459D02*
X2076241D01*
X2015681Y1665359D02*
X2076241D01*
X2016248Y1666259D02*
X2076240D01*
X2016420Y1667159D02*
X2076240D01*
X2016453Y1668059D02*
X2076239D01*
X2016421Y1668959D02*
X2076239D01*
X2016603Y1669859D02*
X2076238D01*
X2017503Y1670759D02*
X2076238D01*
X2018403Y1671659D02*
X2076238D01*
X2019303Y1672559D02*
X2076237D01*
X2020203Y1673459D02*
X2076237D01*
X2021103Y1674359D02*
X2076236D01*
X2022003Y1675259D02*
X2076236D01*
X2022903Y1676159D02*
X2076236D01*
X2023803Y1677059D02*
X2076235D01*
X2024703Y1677959D02*
X2076235D01*
X2025603Y1678859D02*
X2076234D01*
X2063046Y1590659D02*
X2068658D01*
X2060198Y1597859D02*
X2068518D01*
X2063698Y1589759D02*
X2068510D01*
X2060607Y1596959D02*
X2068303D01*
X2060608Y1596059D02*
X2068303D01*
X2060608Y1595159D02*
X2068303D01*
X2060608Y1594259D02*
X2068303D01*
X2060484Y1593359D02*
X2068303D01*
X2059838Y1592459D02*
X2068303D01*
X2060518Y1591559D02*
X2068303D01*
X2063860Y1588859D02*
X2066210D01*
X2063847Y1587959D02*
X2064730D01*
X2022145Y1617659D02*
X2041296D01*
X2022145Y1613159D02*
X2040529D01*
X2022145Y1616759D02*
X2040303D01*
X2022145Y1614059D02*
X2039545D01*
X2022145Y1615859D02*
X2039537D01*
X2022145Y1614959D02*
X2039322D01*
X1986870Y1683359D02*
X2020894D01*
X1987770Y1682459D02*
X2019994D01*
X1988670Y1681559D02*
X2019094D01*
X1989570Y1680659D02*
X2018194D01*
X1990470Y1679759D02*
X2017294D01*
X1991370Y1678859D02*
X2016394D01*
X1992270Y1677959D02*
X2015494D01*
X1993170Y1677059D02*
X2014594D01*
X1994070Y1676159D02*
X2013694D01*
X1994970Y1675259D02*
X2012794D01*
X1995870Y1674359D02*
X2011894D01*
X1996770Y1673459D02*
X2010994D01*
X1985970Y1684259D02*
X2010266D01*
X1997670Y1672559D02*
X2009935D01*
X2005770Y1664459D02*
X2009534D01*
X1998570Y1671659D02*
X2008979D01*
X1999470Y1670759D02*
X2008514D01*
X2004870Y1665359D02*
X2008270D01*
X2000370Y1669859D02*
X2008200D01*
X2003970Y1666259D02*
X2007693D01*
X2001270Y1668959D02*
X2007658D01*
X2003070Y1667159D02*
X2007436D01*
X2002170Y1668059D02*
X2007425D01*
X1981470Y1688759D02*
X1995371D01*
X1982370Y1687859D02*
X1995371D01*
X1983270Y1686959D02*
X1995371D01*
X1984170Y1686059D02*
X1995371D01*
X1985070Y1685159D02*
X1995371D01*
X1980570Y1689659D02*
X1995196D01*
X1979670Y1690559D02*
X1994693D01*
X1971052Y1704059D02*
X1994687D01*
X1971052Y1703159D02*
X1994687D01*
X1971052Y1702259D02*
X1994687D01*
X1971052Y1701359D02*
X1994687D01*
X1989782Y1700459D02*
X1994687D01*
X1990456Y1699559D02*
X1994687D01*
X1990757Y1698659D02*
X1994687D01*
X1990791Y1697759D02*
X1994687D01*
X1990567Y1696859D02*
X1994687D01*
X1990016Y1695959D02*
X1994687D01*
X1988749Y1695059D02*
X1994687D01*
X1976070Y1694159D02*
X1994687D01*
X1976970Y1693259D02*
X1994687D01*
X1977870Y1692359D02*
X1994687D01*
X1978770Y1691459D02*
X1994687D01*
X1984605Y1695059D02*
X1986355D01*
X1979605D02*
X1980499D01*
X1971052Y1700459D02*
X1974641D01*
X1971052Y1699559D02*
X1974493D01*
X1971570Y1698659D02*
X1974493D01*
X1972470Y1697759D02*
X1974493D01*
X1973370Y1696859D02*
X1974486D01*
X2063566Y1581659D02*
X2066683D01*
X2062202Y1582559D02*
X2065317D01*
X2063954Y1580759D02*
X2065116D01*
X2061229Y1583459D02*
X2064235D01*
X2060950Y1584359D02*
X2063743D01*
X2062897Y1587059D02*
X2063633D01*
X2059009Y1586159D02*
X2063631D01*
X2060031Y1585259D02*
X2063559D01*
X2064134Y1575359D02*
X2065178D01*
X2063796Y1576259D02*
X2065047D01*
X2063542Y1578959D02*
X2064839D01*
X2062498Y1578059D02*
X2064839D01*
X2063076Y1577159D02*
X2064839D01*
X2064129Y1579859D02*
X2064548D01*
X2060371Y1551959D02*
X2064394D01*
X2063139Y1557359D02*
X2064229D01*
X2062556Y1556459D02*
X2064208D01*
X2060670Y1551059D02*
X2064095D01*
X2060674Y1547459D02*
X2064090D01*
X2060713Y1552859D02*
X2064052D01*
X2061656Y1555559D02*
X2064052D01*
X2060780Y1554659D02*
X2064052D01*
X2060713Y1553759D02*
X2064052D01*
X2060713Y1550159D02*
X2064052D01*
X2060713Y1549259D02*
X2064052D01*
X2060713Y1548359D02*
X2064052D01*
X2060368Y1546559D02*
X2062166D01*
X2044382Y1498859D02*
X2072453D01*
X2043482Y1499759D02*
X2072359D01*
X2060167Y1500659D02*
X2064598D01*
X2060479Y1515959D02*
X2064417D01*
X2060826Y1531259D02*
X2064411D01*
X2060863Y1536659D02*
X2064374D01*
X2060468Y1521359D02*
X2064346D01*
X2060453Y1510559D02*
X2064313D01*
X2060457Y1506059D02*
X2064308D01*
X2060561Y1525859D02*
X2064274D01*
X2060969Y1541159D02*
X2064239D01*
X2060577Y1542059D02*
X2064199D01*
X2061017Y1526759D02*
X2064172D01*
X2060615Y1505159D02*
X2064151D01*
X2060617Y1511459D02*
X2064148D01*
X2061660Y1520459D02*
X2064130D01*
X2061062Y1535759D02*
X2064111D01*
X2061087Y1532159D02*
X2064079D01*
X2061965Y1516859D02*
X2064069D01*
X2060704Y1515059D02*
X2064062D01*
X2060704Y1501559D02*
X2064061D01*
X2061104Y1530359D02*
X2064056D01*
X2061107Y1540259D02*
X2064052D01*
X2061107Y1539359D02*
X2064052D01*
X2061107Y1538459D02*
X2064052D01*
X2061107Y1537559D02*
X2064052D01*
X2061107Y1534859D02*
X2064052D01*
X2061107Y1533959D02*
X2064052D01*
X2061107Y1533059D02*
X2064052D01*
X2061107Y1529459D02*
X2064052D01*
X2061107Y1528559D02*
X2064052D01*
X2061107Y1527659D02*
X2064052D01*
X2060713Y1524959D02*
X2064052D01*
X2060713Y1524059D02*
X2064052D01*
X2060713Y1523159D02*
X2064052D01*
X2060713Y1522259D02*
X2064052D01*
X2062472Y1519559D02*
X2064052D01*
X2062709Y1518659D02*
X2064052D01*
X2062573Y1517759D02*
X2064052D01*
X2060713Y1514159D02*
X2064052D01*
X2060713Y1513259D02*
X2064052D01*
X2060713Y1512359D02*
X2064052D01*
X2060921Y1509659D02*
X2064052D01*
X2060983Y1508759D02*
X2064052D01*
X2060715Y1507859D02*
X2064052D01*
X2060713Y1506959D02*
X2064052D01*
X2060713Y1504259D02*
X2064052D01*
X2060713Y1503359D02*
X2064052D01*
X2060713Y1502459D02*
X2064052D01*
X2042582Y1500659D02*
X2049236D01*
X2041682Y1501559D02*
X2048699D01*
X2041234Y1502459D02*
X2048690D01*
X2041234Y1503359D02*
X2048672D01*
X2041234Y1504259D02*
X2047866D01*
X2041234Y1505159D02*
X2046966D01*
X2041234Y1506059D02*
X2046066D01*
X2041234Y1506959D02*
X2045166D01*
X2041234Y1507859D02*
X2044397D01*
X2043325Y1508759D02*
X2044078D01*
X2037253Y1496159D02*
X2042048D01*
X2037254Y1497059D02*
X2041148D01*
X2037255Y1497959D02*
X2040248D01*
X2037256Y1498859D02*
X2039348D01*
X2037258Y1499759D02*
X2038448D01*
X2075221Y1589759D02*
X2076224D01*
X2075560Y1590659D02*
X2075990D01*
X1923175Y1704211D02*
X1967992D01*
X1922961Y1703311D02*
X1967992D01*
X1966119Y1702411D02*
X1967992D01*
X1965697Y1680811D02*
X1967992D01*
X1941579Y1679911D02*
X1967992D01*
X1940720Y1679011D02*
X1967992D01*
X1940385Y1678111D02*
X1967992D01*
X1939350Y1677211D02*
X1967992D01*
X1922961Y1676311D02*
X1967992D01*
X1922961Y1675411D02*
X1967992D01*
X1922961Y1674511D02*
X1967992D01*
X1922961Y1673611D02*
X1967992D01*
X1922961Y1672711D02*
X1967992D01*
X1922961Y1671811D02*
X1967992D01*
X1922961Y1670911D02*
X1967992D01*
X1922961Y1670011D02*
X1967992D01*
X1922961Y1669111D02*
X1967992D01*
X1922961Y1668211D02*
X1967992D01*
X1922961Y1667311D02*
X1967992D01*
X1922961Y1666411D02*
X1967992D01*
X1922961Y1665511D02*
X1967992D01*
X1922961Y1664611D02*
X1967992D01*
X1922961Y1663711D02*
X1967992D01*
X1922961Y1662811D02*
X1967992D01*
X1922961Y1661911D02*
X1967992D01*
X1922961Y1661011D02*
X1967992D01*
X1966569Y1681711D02*
X1967908D01*
X1959697Y1680811D02*
X1961308D01*
X1960119Y1702411D02*
X1960864D01*
X1942479Y1680811D02*
X1955308D01*
X1922961Y1702411D02*
X1954864D01*
X1928671Y1694311D02*
X1954404D01*
X1922961Y1693411D02*
X1954364D01*
X1943422Y1681711D02*
X1954303D01*
X1930009Y1695211D02*
X1952963D01*
X1930388Y1696111D02*
X1951973D01*
X1931159Y1697011D02*
X1951671D01*
X1932059Y1697911D02*
X1951606D01*
X1922961Y1692511D02*
X1942885D01*
X1922961Y1691611D02*
X1941985D01*
X1922961Y1690711D02*
X1941085D01*
X1922961Y1689811D02*
X1940185D01*
X1922961Y1688911D02*
X1939285D01*
X1922961Y1682611D02*
X1939163D01*
X1922961Y1688011D02*
X1938385D01*
X1922961Y1681711D02*
X1938345D01*
X1922961Y1677211D02*
X1937541D01*
X1922961Y1683511D02*
X1937337D01*
X1922961Y1687111D02*
X1936790D01*
X1922961Y1680811D02*
X1936754D01*
X1922961Y1678111D02*
X1936507D01*
X1922961Y1684411D02*
X1936421D01*
X1922961Y1679911D02*
X1936259D01*
X1922961Y1686211D02*
X1936244D01*
X1922961Y1679011D02*
X1936192D01*
X1922961Y1685311D02*
X1936144D01*
X1922961Y1701511D02*
X1930749D01*
X1922961Y1700611D02*
X1929726D01*
X1922961Y1699711D02*
X1928826D01*
X1922961Y1698811D02*
X1927897D01*
X1922961Y1694311D02*
X1927638D01*
X1922961Y1697911D02*
X1926356D01*
X1922961Y1695211D02*
X1926300D01*
X1922961Y1697011D02*
X1925936D01*
X1922961Y1696111D02*
X1925920D01*
X1941619Y1686211D02*
X1954940D01*
X1942519Y1687111D02*
X1954533D01*
X1944319Y1688911D02*
X1954458D01*
X1943419Y1688011D02*
X1954458D01*
X1941301Y1685311D02*
X1942554D01*
G54D42*
X2070064Y1559487D03*
Y1554369D03*
Y1549251D03*
Y1544133D03*
Y1539015D03*
Y1533897D03*
Y1528779D03*
Y1523661D03*
Y1518543D03*
Y1513424D03*
Y1508306D03*
Y1503188D03*
X2054702D03*
Y1508306D03*
Y1513424D03*
Y1518543D03*
Y1523661D03*
Y1528779D03*
Y1533897D03*
Y1539015D03*
Y1544133D03*
Y1549251D03*
Y1554369D03*
Y1559487D03*
G54D43*
X2036408Y1565326D03*
G54D44*
Y1570326D03*
Y1575326D03*
Y1580326D03*
X2059008D03*
Y1575326D03*
Y1570326D03*
Y1565326D03*
G54D77*
X1952158Y1624180D02*
X1954776D01*
Y1621438*
X1952158*
Y1624180*
X2011137Y1669945D02*
X2013755D01*
Y1667203*
X2011137*
Y1669945*
X1998751Y1570179D02*
X2003160D01*
Y1568031*
X1998751*
Y1570179*
X1945967Y1580485D02*
X1949674D01*
Y1575899*
X1945967*
Y1580485*
X1977885Y1554057D02*
X1981593D01*
Y1549472*
X1977885*
Y1554057*
X1952158Y1623917D02*
X1954776D01*
X1952158Y1623562D02*
X1954776D01*
X1952158Y1623208D02*
X1954776D01*
X1952158Y1622854D02*
X1954776D01*
X1952158Y1622499D02*
X1954776D01*
X1952158Y1622145D02*
X1954776D01*
X1952158Y1621791D02*
X1954776D01*
X2011137Y1669682D02*
X2013755D01*
X2011137Y1669327D02*
X2013755D01*
X2011137Y1668973D02*
X2013755D01*
X2011137Y1668619D02*
X2013755D01*
X2011137Y1668264D02*
X2013755D01*
X2011137Y1667910D02*
X2013755D01*
X2011137Y1667556D02*
X2013755D01*
X1998751Y1570155D02*
X2003160D01*
X1998751Y1569801D02*
X2003160D01*
X1998751Y1569447D02*
X2003160D01*
X1998751Y1569092D02*
X2003160D01*
X1998751Y1568738D02*
X2003160D01*
X1998751Y1568384D02*
X2003160D01*
X1945967Y1580150D02*
X1949674D01*
X1945967Y1579796D02*
X1949674D01*
X1945967Y1579441D02*
X1949674D01*
X1945967Y1579087D02*
X1949674D01*
X1945967Y1578733D02*
X1949674D01*
X1945967Y1578378D02*
X1949674D01*
X1945967Y1578024D02*
X1949674D01*
X1945967Y1577670D02*
X1949674D01*
X1945967Y1577315D02*
X1949674D01*
X1945967Y1576961D02*
X1949674D01*
X1945967Y1576607D02*
X1949674D01*
X1945967Y1576252D02*
X1949674D01*
X1977885Y1553722D02*
X1981593D01*
X1977885Y1553368D02*
X1981593D01*
X1977885Y1553014D02*
X1981593D01*
X1977885Y1552659D02*
X1981593D01*
X1977885Y1552305D02*
X1981593D01*
X1977885Y1551951D02*
X1981593D01*
X1977885Y1551596D02*
X1981593D01*
X1977885Y1551242D02*
X1981593D01*
X1977885Y1550888D02*
X1981593D01*
X1977885Y1550533D02*
X1981593D01*
X1977885Y1550179D02*
X1981593D01*
X1977885Y1549825D02*
X1981593D01*
X1925728Y1706516D02*
G03X1920728Y1701516I0J-5000D01*
G01X1925728Y1706516D02*
X2074272D01*
X2079272Y1701516D02*
G03X2074272Y1706516I-5000J-0D01*
G01X2079272Y1701516D02*
Y1498484D01*
X2074272Y1493484D02*
G03X2079272Y1498484I-0J5000D01*
G01X2074272Y1493484D02*
X2035930D01*
Y1540335*
X1961075*
Y1493507*
X1925723*
X1920728Y1498478D02*
G03X1925725Y1493507I4988J17D01*
G01X1920728Y1498479D02*
Y1701516D01*
X1936988Y1589744D02*
G03X1936988I-4212J0D01*
G01X2041292D02*
G03X2041292I-4252J0D01*
G01X1995975Y1704544D02*
X1998993D01*
Y1690685*
X1995975*
Y1704544*
X2073503Y1686036D02*
X2003396D01*
Y1689372*
X2073503*
Y1686036*
G54D83*
X1986787Y1618817D03*
X1982968D03*
X1994876Y1593756D03*
Y1597575D03*
X1994947Y1605688D03*
Y1601869D03*
X1995076Y1614054D03*
Y1610235D03*
X1955933Y1613148D03*
X1952114D03*
X1955513Y1600722D03*
X1951694D03*
X1955673Y1595608D03*
X1951854D03*
X1978371Y1558952D03*
X1974552D03*
X1992997Y1556071D03*
Y1552252D03*
G54D84*
X2072091Y1585347D03*
Y1594347D03*
G54D87*
X1982552Y1698087D03*
X1977552D03*
G54D92*
X2070680Y1585453D02*
X2066809D01*
G54D93*
X2073410Y1533897D02*
Y1539015D01*
X2070064Y1544133D02*
Y1549251D01*
X2073410Y1539015D02*
Y1544133D01*
G54D94*
X2024814Y1568724D03*
X1995164Y1658890D03*
G54D99*
X2054702Y1528779D02*
X2048796D01*
X2046762Y1530813*
Y1534756*
Y1538982*
X2054702Y1533897D02*
Y1534756D01*
X2046762*
X2045001Y1568444D02*
X2046747Y1567921D01*
X2045385Y1567751*
X2046683Y1566285D02*
X2048199D01*
X2048598Y1566380*
X2054277*
X2059008Y1565326D02*
X2056308D01*
X2054277Y1566380*
X2068674Y1562956D02*
X2065930D01*
X2065782Y1563104*
X2067383D02*
X2065782D01*
X2067383*
X2065782D02*
X2064003Y1564883D01*
Y1565211*
X2063889Y1565326*
X2059008*
X1939444Y1598847D02*
Y1602169D01*
Y1615829*
X1939383Y1615890D02*
X1946135D01*
X1946660Y1615955D02*
X1949631Y1618924D01*
X1953157Y1622451*
X1952268Y1621438D02*
X1954136Y1623305D01*
G54D124*
X1932894Y1536574D03*
Y1522574D03*
G54D125*
X1948494Y1536574D03*
X1948894Y1522574D03*
G54D126*
X2054702Y1508306D02*
Y1509057D01*
X2058730*
X2074628Y1499867D02*
X2074324D01*
Y1503188*
X2070064*
X2054702Y1513424D02*
Y1513854D01*
X2050042*
X2054702Y1544133D02*
X2060649D01*
X2061125Y1544610*
X2063332*
X2006271Y1586714D02*
X2007831D01*
X2013765Y1592648*
X2018442Y1592658*
X2022430Y1582203D02*
X2023360Y1583133D01*
X2026905*
X2028004Y1584232*
Y1584251*
X2028022Y1584268*
Y1595892*
X2030329Y1598199*
X2043706*
X2058967Y1583252D02*
Y1583398D01*
X2058918Y1583447*
X2050056*
X2046127Y1587376*
Y1595777*
X2043706Y1598199*
X2056792Y1585585D02*
X2049888D01*
X2047524Y1587948*
Y1596591*
X2044360Y1599755*
X2017750*
X2016236Y1601270*
Y1606550*
X2020543Y1610857*
Y1624983*
X2019848Y1625678*
Y1648115*
X1968039Y1699924*
X1963492*
X2017835Y1614336D02*
Y1647639D01*
X1971003Y1694452*
X1963492*
X2014381Y1618489D02*
Y1649069D01*
X1974406Y1689045*
X1963545*
X2011347Y1621690D02*
Y1648616D01*
X1976254Y1683754*
X1967750*
X1963502Y1683536D02*
X1967532D01*
X1967750Y1683754*
G54D128*
X2041278Y1614967D02*
X2042278Y1615967D01*
G54D131*
X1987842Y1611431D03*
Y1608872D03*
Y1606313D03*
Y1603754D03*
Y1601195D03*
Y1598636D03*
Y1596077D03*
Y1593518D03*
X1962251D03*
Y1596077D03*
Y1598636D03*
Y1601195D03*
Y1603754D03*
Y1606313D03*
Y1608872D03*
Y1611431D03*
G54D132*
X2072870Y1697641D03*
X2003870D03*
G54D133*
X2026863Y1568815D02*
X2022187Y1573491D01*
X2017702Y1577707*
Y1582867*
X2017740Y1586733*
X2018744*
X2027524Y1568154D02*
X2026863Y1568815D01*
G54D145*
X2051601Y1589419D02*
Y1592375D01*
X2051520Y1592455*
Y1595411*
Y1598169*
X2051601Y1598249*
Y1601004*
G54D146*
X2046762Y1538982D02*
Y1551279D01*
X2045385Y1552655*
Y1567751*
G54D149*
X2051601Y1601004D02*
X2050816Y1601789D01*
X2018665*
G74*
X0Y0D02*
M02*
