*
*
G04 PADS 9.5 Build Number: 522968 generated Gerber (RS-274-X) file*
G04 PC Version=2.1*
*
%IN "AD5420_POWER_V1.6.pcb"*%
*
%MOIN*%
*
%FSLAX35Y35*%
*
*
*
*
G04 PC Standard Apertures*
*
*
G04 Thermal Relief Aperture macro.*
%AMTER*
1,1,$1,0,0*
1,0,$1-$2,0,0*
21,0,$3,$4,0,0,45*
21,0,$3,$4,0,0,135*
%
*
*
G04 Annular Aperture macro.*
%AMANN*
1,1,$1,0,0*
1,0,$2,0,0*
%
*
*
G04 Odd Aperture macro.*
%AMODD*
1,1,$1,0,0*
1,0,$1-0.005,0,0*
%
*
*
G04 PC Custom Aperture Macros*
*
*
*
*
*
*
G04 PC Aperture Table*
*
%ADD010C,0.001*%
%ADD049C,0.04937*%
%ADD050R,0.046X0.04*%
%ADD054R,0.04X0.046*%
%ADD062R,0.046X0.046*%
%ADD064R,0.066X0.06*%
%ADD068R,0.046X0.06*%
%ADD070R,0.10449X0.03953*%
%ADD071R,0.084X0.03*%
%ADD072O,0.084X0.03*%
%ADD077C,0.00394*%
%ADD103R,0.03X0.03*%
%ADD104R,0.06X0.066*%
%ADD107R,0.04543X0.04543*%
%ADD139R,0.07X0.07*%
%ADD140C,0.07*%
%ADD141O,0.04937X0.02181*%
%ADD142O,0.08087X0.10843*%
*
*
*
*
G04 PC Circuitry*
G04 Layer Name AD5420_POWER_V1.6.pcb - circuitry*
%LPD*%
*
*
G04 PC Custom Flashes*
G04 Layer Name AD5420_POWER_V1.6.pcb - flashes*
%LPD*%
*
*
G04 PC Circuitry*
G04 Layer Name AD5420_POWER_V1.6.pcb - circuitry*
%LPD*%
*
G54D10*
G54D49*
G01X1987552Y1698087D03*
G54D50*
X2051520Y1595411D03*
X2057520D03*
X2057601Y1601004D03*
X2051601D03*
X2057601Y1589419D03*
X2051601D03*
X2018744Y1586733D03*
X2024744D03*
X1963492Y1699924D03*
X1957492D03*
X1963492Y1694452D03*
X1957492D03*
X1963545Y1689045D03*
X1957545D03*
X1963502Y1683536D03*
X1957502D03*
X2067926Y1578461D03*
X2073926D03*
X2067926Y1572989D03*
X2073926D03*
X2073887Y1567083D03*
X2067887D03*
X2001972Y1601898D03*
X2007972D03*
X2024442Y1592658D03*
X2018442D03*
X2027270Y1579818D03*
X2021270D03*
X1933444Y1602169D03*
X1939444D03*
X1933237Y1609270D03*
X1939237D03*
X1933383Y1615890D03*
X1939383D03*
G54D54*
X2004648Y1574355D03*
Y1580355D03*
X2028034Y1567854D03*
Y1573854D03*
X1989929Y1580571D03*
Y1574571D03*
X1981632Y1574266D03*
Y1580266D03*
X1997614Y1580571D03*
Y1574571D03*
X2037997Y1559193D03*
Y1553193D03*
X1972052Y1544968D03*
Y1550968D03*
G54D62*
X2010021Y1594714D03*
X2002521Y1594908D03*
G54D64*
X1955888Y1607691D03*
X1946888D03*
G54D68*
X2006271Y1586714D03*
G54D70*
X2070064Y1559487D03*
Y1554369D03*
Y1549251D03*
Y1544133D03*
Y1539015D03*
Y1533897D03*
Y1528779D03*
Y1523661D03*
Y1518543D03*
Y1513424D03*
Y1508306D03*
Y1503188D03*
X2054702D03*
Y1508306D03*
Y1513424D03*
Y1518543D03*
Y1523661D03*
Y1528779D03*
Y1533897D03*
Y1539015D03*
Y1544133D03*
Y1549251D03*
Y1554369D03*
Y1559487D03*
G54D71*
X2036408Y1565326D03*
G54D72*
Y1570326D03*
Y1575326D03*
Y1580326D03*
X2059008D03*
Y1575326D03*
Y1570326D03*
Y1565326D03*
G54D77*
X1921936Y1650983D02*
X1925522D01*
Y1602293*
X1920883*
Y1651010*
X1921936*
Y1650983*
X1920883Y1650835D02*
X1925522D01*
X1920883Y1650481D02*
X1925522D01*
X1920883Y1650127D02*
X1925522D01*
X1920883Y1649772D02*
X1925522D01*
X1920883Y1649418D02*
X1925522D01*
X1920883Y1649064D02*
X1925522D01*
X1920883Y1648709D02*
X1925522D01*
X1920883Y1648355D02*
X1925522D01*
X1920883Y1648001D02*
X1925522D01*
X1920883Y1647646D02*
X1925522D01*
X1920883Y1647292D02*
X1925522D01*
X1920883Y1646938D02*
X1925522D01*
X1920883Y1646583D02*
X1925522D01*
X1920883Y1646229D02*
X1925522D01*
X1920883Y1645875D02*
X1925522D01*
X1920883Y1645520D02*
X1925522D01*
X1920883Y1645166D02*
X1925522D01*
X1920883Y1644812D02*
X1925522D01*
X1920883Y1644457D02*
X1925522D01*
X1920883Y1644103D02*
X1925522D01*
X1920883Y1643749D02*
X1925522D01*
X1920883Y1643394D02*
X1925522D01*
X1920883Y1643040D02*
X1925522D01*
X1920883Y1642686D02*
X1925522D01*
X1920883Y1642331D02*
X1925522D01*
X1920883Y1641977D02*
X1925522D01*
X1920883Y1641623D02*
X1925522D01*
X1920883Y1641268D02*
X1925522D01*
X1920883Y1640914D02*
X1925522D01*
X1920883Y1640560D02*
X1925522D01*
X1920883Y1640205D02*
X1925522D01*
X1920883Y1639851D02*
X1925522D01*
X1920883Y1639497D02*
X1925522D01*
X1920883Y1639142D02*
X1925522D01*
X1920883Y1638788D02*
X1925522D01*
X1920883Y1638434D02*
X1925522D01*
X1920883Y1638079D02*
X1925522D01*
X1920883Y1637725D02*
X1925522D01*
X1920883Y1637371D02*
X1925522D01*
X1920883Y1637016D02*
X1925522D01*
X1920883Y1636662D02*
X1925522D01*
X1920883Y1636308D02*
X1925522D01*
X1920883Y1635953D02*
X1925522D01*
X1920883Y1635599D02*
X1925522D01*
X1920883Y1635245D02*
X1925522D01*
X1920883Y1634890D02*
X1925522D01*
X1920883Y1634536D02*
X1925522D01*
X1920883Y1634182D02*
X1925522D01*
X1920883Y1633827D02*
X1925522D01*
X1920883Y1633473D02*
X1925522D01*
X1920883Y1633119D02*
X1925522D01*
X1920883Y1632764D02*
X1925522D01*
X1920883Y1632410D02*
X1925522D01*
X1920883Y1632056D02*
X1925522D01*
X1920883Y1631701D02*
X1925522D01*
X1920883Y1631347D02*
X1925522D01*
X1920883Y1630993D02*
X1925522D01*
X1920883Y1630638D02*
X1925522D01*
X1920883Y1630284D02*
X1925522D01*
X1920883Y1629930D02*
X1925522D01*
X1920883Y1629575D02*
X1925522D01*
X1920883Y1629221D02*
X1925522D01*
X1920883Y1628867D02*
X1925522D01*
X1920883Y1628512D02*
X1925522D01*
X1920883Y1628158D02*
X1925522D01*
X1920883Y1627804D02*
X1925522D01*
X1920883Y1627449D02*
X1925522D01*
X1920883Y1627095D02*
X1925522D01*
X1920883Y1626741D02*
X1925522D01*
X1920883Y1626386D02*
X1925522D01*
X1920883Y1626032D02*
X1925522D01*
X1920883Y1625678D02*
X1925522D01*
X1920883Y1625323D02*
X1925522D01*
X1920883Y1624969D02*
X1925522D01*
X1920883Y1624615D02*
X1925522D01*
X1920883Y1624260D02*
X1925522D01*
X1920883Y1623906D02*
X1925522D01*
X1920883Y1623552D02*
X1925522D01*
X1920883Y1623197D02*
X1925522D01*
X1920883Y1622843D02*
X1925522D01*
X1920883Y1622489D02*
X1925522D01*
X1920883Y1622134D02*
X1925522D01*
X1920883Y1621780D02*
X1925522D01*
X1920883Y1621426D02*
X1925522D01*
X1920883Y1621071D02*
X1925522D01*
X1920883Y1620717D02*
X1925522D01*
X1920883Y1620363D02*
X1925522D01*
X1920883Y1620008D02*
X1925522D01*
X1920883Y1619654D02*
X1925522D01*
X1920883Y1619300D02*
X1925522D01*
X1920883Y1618945D02*
X1925522D01*
X1920883Y1618591D02*
X1925522D01*
X1920883Y1618237D02*
X1925522D01*
X1920883Y1617882D02*
X1925522D01*
X1920883Y1617528D02*
X1925522D01*
X1920883Y1617174D02*
X1925522D01*
X1920883Y1616819D02*
X1925522D01*
X1920883Y1616465D02*
X1925522D01*
X1920883Y1616111D02*
X1925522D01*
X1920883Y1615756D02*
X1925522D01*
X1920883Y1615402D02*
X1925522D01*
X1920883Y1615048D02*
X1925522D01*
X1920883Y1614693D02*
X1925522D01*
X1920883Y1614339D02*
X1925522D01*
X1920883Y1613985D02*
X1925522D01*
X1920883Y1613630D02*
X1925522D01*
X1920883Y1613276D02*
X1925522D01*
X1920883Y1612922D02*
X1925522D01*
X1920883Y1612567D02*
X1925522D01*
X1920883Y1612213D02*
X1925522D01*
X1920883Y1611859D02*
X1925522D01*
X1920883Y1611504D02*
X1925522D01*
X1920883Y1611150D02*
X1925522D01*
X1920883Y1610796D02*
X1925522D01*
X1920883Y1610441D02*
X1925522D01*
X1920883Y1610087D02*
X1925522D01*
X1920883Y1609733D02*
X1925522D01*
X1920883Y1609378D02*
X1925522D01*
X1920883Y1609024D02*
X1925522D01*
X1920883Y1608670D02*
X1925522D01*
X1920883Y1608315D02*
X1925522D01*
X1920883Y1607961D02*
X1925522D01*
X1920883Y1607607D02*
X1925522D01*
X1920883Y1607252D02*
X1925522D01*
X1920883Y1606898D02*
X1925522D01*
X1920883Y1606544D02*
X1925522D01*
X1920883Y1606190D02*
X1925522D01*
X1920883Y1605835D02*
X1925522D01*
X1920883Y1605481D02*
X1925522D01*
X1920883Y1605127D02*
X1925522D01*
X1920883Y1604772D02*
X1925522D01*
X1920883Y1604418D02*
X1925522D01*
X1920883Y1604064D02*
X1925522D01*
X1920883Y1603709D02*
X1925522D01*
X1920883Y1603355D02*
X1925522D01*
X1920883Y1603001D02*
X1925522D01*
X1920883Y1602646D02*
X1925522D01*
X1925728Y1706516D02*
G75*
G03X1920728Y1701516I0J-5000D01*
G01X1925728Y1706516D02*
X2074272D01*
X2079272Y1701516D02*
G03X2074272Y1706516I-5000J-0D01*
G01X2079272Y1701516D02*
Y1498484D01*
X2074272Y1493484D02*
G03X2079272Y1498484I-0J5000D01*
G01X2074272Y1493484D02*
X2035930D01*
Y1540335*
X1961075*
Y1493507*
X1925723*
X1920728Y1498478D02*
G03X1925725Y1493507I4988J17D01*
G01X1920728Y1498479D02*
Y1701516D01*
X1936988Y1589744D02*
G03X1936988I-4212J0D01*
G01X2041292D02*
G03X2041292I-4252J0D01*
G01X1995975Y1704544D02*
X1998993D01*
Y1690685*
X1995975*
Y1704544*
X2073503Y1686036D02*
X2003396D01*
Y1689372*
X2073503*
Y1686036*
G54D103*
X1986787Y1618817D03*
X1982968D03*
X1994876Y1593756D03*
Y1597575D03*
X1994947Y1605688D03*
Y1601869D03*
X1995076Y1614054D03*
Y1610235D03*
X1955933Y1613148D03*
X1952114D03*
X1955513Y1600722D03*
X1951694D03*
X1955673Y1595608D03*
X1951854D03*
X1978371Y1558952D03*
X1974552D03*
X1992997Y1556071D03*
Y1552252D03*
G54D104*
X2072091Y1585347D03*
Y1594347D03*
G54D107*
X1982552Y1698087D03*
X1977552D03*
G54D139*
X1932894Y1536574D03*
Y1522574D03*
G54D140*
X1948494Y1536574D03*
X1948894Y1522574D03*
G54D141*
X1987842Y1611431D03*
Y1608872D03*
Y1606313D03*
Y1603754D03*
Y1601195D03*
Y1598636D03*
Y1596077D03*
Y1593518D03*
X1962251D03*
Y1596077D03*
Y1598636D03*
Y1601195D03*
Y1603754D03*
Y1606313D03*
Y1608872D03*
Y1611431D03*
G54D142*
X2072870Y1697641D03*
X2003870D03*
G74*
X0Y0D02*
M02*
