*
*
G04 PADS 9.5 Build Number: 522968 generated Gerber (RS-274-X) file*
G04 PC Version=2.1*
*
%IN "laser sight 1V1.pcb"*%
*
%MOIN*%
*
%FSLAX35Y35*%
*
*
*
*
G04 PC Standard Apertures*
*
*
G04 Thermal Relief Aperture macro.*
%AMTER*
1,1,$1,0,0*
1,0,$1-$2,0,0*
21,0,$3,$4,0,0,45*
21,0,$3,$4,0,0,135*
%
*
*
G04 Annular Aperture macro.*
%AMANN*
1,1,$1,0,0*
1,0,$2,0,0*
%
*
*
G04 Odd Aperture macro.*
%AMODD*
1,1,$1,0,0*
1,0,$1-0.005,0,0*
%
*
*
G04 PC Custom Aperture Macros*
*
*
*
*
*
*
G04 PC Aperture Table*
*
%ADD010C,0.001*%
%ADD030C,0.01*%
%ADD031C,0.00394*%
*
*
*
*
G04 PC Circuitry*
G04 Layer Name laser sight 1V1.pcb - circuitry*
%LPD*%
*
*
G04 PC Custom Flashes*
G04 Layer Name laser sight 1V1.pcb - flashes*
%LPD*%
*
*
G04 PC Circuitry*
G04 Layer Name laser sight 1V1.pcb - circuitry*
%LPD*%
*
G54D10*
G54D30*
G01X1811809Y1522641D02*
X1819809D01*
X1815809Y1518641D02*
Y1526641D01*
X1816634Y1522736D02*
X1824634D01*
X1820634Y1518736D02*
Y1526736D01*
X1821459Y1522830D02*
X1829459D01*
X1825459Y1518830D02*
Y1526830D01*
X1826284Y1522925D02*
X1834284D01*
X1830284Y1518925D02*
Y1526925D01*
X1842623Y1522804D02*
X1850623D01*
X1846623Y1518804D02*
Y1526804D01*
X1849025Y1522860D02*
X1857025D01*
X1853025Y1518860D02*
Y1526860D01*
X1863962Y1522781D02*
X1871962D01*
X1867962Y1518781D02*
Y1526781D01*
X1863569Y1527623D02*
X1871569D01*
X1867569Y1523623D02*
Y1531623D01*
X1873569Y1525143D02*
X1881569D01*
X1877569Y1521143D02*
Y1529143D01*
X1886915Y1522190D02*
X1894915D01*
X1890915Y1518190D02*
Y1526190D01*
X1916128Y1523489D02*
X1924128D01*
X1920128Y1519489D02*
Y1527489D01*
X1939460Y1527806D02*
X1947460D01*
X1943460Y1523806D02*
Y1531806D01*
X1944395Y1521875D02*
X1952395D01*
X1948395Y1517875D02*
Y1525875D01*
X1944106Y1527781D02*
X1952106D01*
X1948106Y1523781D02*
Y1531781D01*
X1952201Y1519924D02*
X1960201D01*
X1956201Y1515924D02*
Y1523924D01*
X1963708Y1519989D02*
X1971708D01*
X1967708Y1515989D02*
Y1523989D01*
X1811755Y1529907D02*
X1819755D01*
X1815755Y1525907D02*
Y1533907D01*
X1816634Y1529926D02*
X1824634D01*
X1820634Y1525926D02*
Y1533926D01*
X1828608Y1535812D02*
X1836608D01*
X1832608Y1531812D02*
Y1539812D01*
X1826393Y1529962D02*
X1834393D01*
X1830393Y1525962D02*
Y1533962D01*
X1821513Y1529944D02*
X1829513D01*
X1825513Y1525944D02*
Y1533944D01*
X1839080Y1537938D02*
X1847080D01*
X1843080Y1533938D02*
Y1541938D01*
X1833256Y1536077D02*
X1841256D01*
X1837256Y1532077D02*
Y1540077D01*
X1906639Y1538686D02*
X1914639D01*
X1910639Y1534686D02*
Y1542686D01*
X1919536Y1533123D02*
X1927536D01*
X1923536Y1529123D02*
Y1537123D01*
X1939535Y1532739D02*
X1947535D01*
X1943535Y1528739D02*
Y1536739D01*
X1944106Y1532661D02*
X1952106D01*
X1948106Y1528661D02*
Y1536661D01*
X1963647Y1537781D02*
X1971647D01*
X1967647Y1533781D02*
Y1541781D01*
X1810703Y1547623D02*
X1818703D01*
X1814703Y1543623D02*
Y1551623D01*
X1828751Y1547663D02*
X1836751D01*
X1832751Y1543663D02*
Y1551663D01*
X1840002Y1547604D02*
X1848002D01*
X1844002Y1543604D02*
Y1551604D01*
X1834377Y1547634D02*
X1842377D01*
X1838377Y1543634D02*
Y1551634D01*
X1830970Y1539749D02*
X1838970D01*
X1834970Y1535749D02*
Y1543749D01*
X1846297Y1541592D02*
X1854297D01*
X1850297Y1537592D02*
Y1545592D01*
X1843410Y1541683D02*
X1851410D01*
X1847410Y1537683D02*
Y1545683D01*
X1845628Y1547575D02*
X1853628D01*
X1849628Y1543575D02*
Y1551575D01*
X1856879Y1547516D02*
X1864879D01*
X1860879Y1543516D02*
Y1551516D01*
X1851253Y1547545D02*
X1859253D01*
X1855253Y1543545D02*
Y1551545D01*
X1866482Y1541560D02*
X1874482D01*
X1870482Y1537560D02*
Y1545560D01*
X1862505Y1547486D02*
X1870505D01*
X1866505Y1543486D02*
Y1551486D01*
X1907899Y1543332D02*
X1915899D01*
X1911899Y1539332D02*
Y1547332D01*
X1909293Y1548235D02*
X1917293D01*
X1913293Y1544235D02*
Y1552235D01*
X1912387Y1545143D02*
X1920387D01*
X1916387Y1541143D02*
Y1549143D01*
X1919356Y1545615D02*
X1927356D01*
X1923356Y1541615D02*
Y1549615D01*
X1915616Y1548450D02*
X1923616D01*
X1919616Y1544450D02*
Y1552450D01*
X1932609Y1546683D02*
X1940609D01*
X1936609Y1542683D02*
Y1550683D01*
X1937702Y1548410D02*
X1945702D01*
X1941702Y1544410D02*
Y1552410D01*
X1934536Y1543168D02*
X1942536D01*
X1938536Y1539168D02*
Y1547168D01*
X1955773Y1548647D02*
X1963773D01*
X1959773Y1544647D02*
Y1552647D01*
X1959530Y1540243D02*
X1967530D01*
X1963530Y1536243D02*
Y1544243D01*
X1959709Y1544976D02*
X1967709D01*
X1963709Y1540976D02*
Y1548976D01*
X1955426Y1544959D02*
X1963426D01*
X1959426Y1540959D02*
Y1548959D01*
X1960458Y1548292D02*
X1968458D01*
X1964458Y1544292D02*
Y1552292D01*
X1963991Y1544994D02*
X1971991D01*
X1967991Y1540994D02*
Y1548994D01*
X1930797Y1683576D02*
X2188797D01*
X1930797Y1659576D02*
X2188797D01*
X1930797Y1635576D02*
X2188797D01*
X1930797Y1683576D02*
Y1635576D01*
X2014797Y1683576D02*
Y1635576D01*
X2050797Y1683576D02*
Y1635576D01*
X2086797Y1683576D02*
Y1635576D01*
X2140797Y1683576D02*
Y1635576D01*
X2188797Y1683576D02*
Y1635576D01*
X1966297Y1672326D02*
X1965751Y1673076D01*
X1964933Y1673451*
X1963842*
X1963024Y1673076*
X1962479Y1672326*
Y1671576*
X1962751Y1670826*
X1963024Y1670451*
X1963570Y1670076*
X1965206Y1669326*
X1965751Y1668951*
X1966024Y1668576*
X1966297Y1667826*
Y1666701*
X1965751Y1665951*
X1964933Y1665576*
X1963842*
X1963024Y1665951*
X1962479Y1666701*
X1968751Y1673451D02*
Y1665576D01*
X1975024Y1673451D02*
X1971206Y1665576D01*
Y1673451D02*
X1975024D01*
X1971206Y1665576D02*
X1975024D01*
X1977479Y1673451D02*
Y1665576D01*
Y1673451D02*
X1981024D01*
X1977479Y1669701D02*
X1979660D01*
X1977479Y1665576D02*
X1981024D01*
X2024660Y1673451D02*
X2024115Y1673076D01*
X2023570Y1672326*
X2023297Y1671576*
X2023024Y1670451*
Y1668576*
X2023297Y1667451*
X2023570Y1666701*
X2024115Y1665951*
X2024660Y1665576*
X2025751*
X2026297Y1665951*
X2026842Y1666701*
X2027115Y1667451*
X2027388Y1668576*
Y1670451*
X2027115Y1671576*
X2026842Y1672326*
X2026297Y1673076*
X2025751Y1673451*
X2024660*
X2025479Y1667076D02*
X2027115Y1664826D01*
X2031751Y1673451D02*
Y1665576D01*
X2029842Y1673451D02*
X2033660D01*
X2036115D02*
X2038297Y1669701D01*
Y1665576*
X2040479Y1673451D02*
X2038297Y1669701D01*
X2062842Y1672326D02*
X2062297Y1673076D01*
X2061479Y1673451*
X2060388*
X2059570Y1673076*
X2059024Y1672326*
Y1671576*
X2059297Y1670826*
X2059570Y1670451*
X2060115Y1670076*
X2061751Y1669326*
X2062297Y1668951*
X2062570Y1668576*
X2062842Y1667826*
Y1666701*
X2062297Y1665951*
X2061479Y1665576*
X2060388*
X2059570Y1665951*
X2059024Y1666701*
X2065297Y1673451D02*
X2067479Y1669701D01*
Y1665576*
X2069660Y1673451D02*
X2067479Y1669701D01*
X2072115Y1673451D02*
Y1665576D01*
Y1673451D02*
X2074297Y1665576D01*
X2076479Y1673451D02*
X2074297Y1665576D01*
X2076479Y1673451D02*
Y1665576D01*
X2098297Y1673451D02*
Y1665576D01*
Y1673451D02*
X2100751D01*
X2101570Y1673076*
X2101842Y1672701*
X2102115Y1671951*
Y1670826*
X2101842Y1670076*
X2101570Y1669701*
X2100751Y1669326*
X2098297*
X2104570Y1673451D02*
Y1665576D01*
X2107842*
X2112479Y1673451D02*
X2110297Y1665576D01*
X2112479Y1673451D02*
X2114660Y1665576D01*
X2111115Y1668201D02*
X2113842D01*
X2119024Y1673451D02*
Y1665576D01*
X2117115Y1673451D02*
X2120933D01*
X2123388D02*
Y1665576D01*
Y1673451D02*
X2126933D01*
X2123388Y1669701D02*
X2125570D01*
X2123388Y1665576D02*
X2126933D01*
X2129388Y1673451D02*
Y1665576D01*
Y1673451D02*
X2131297D01*
X2132115Y1673076*
X2132660Y1672326*
X2132933Y1671576*
X2133206Y1670451*
Y1668576*
X2132933Y1667451*
X2132660Y1666701*
X2132115Y1665951*
X2131297Y1665576*
X2129388*
X2157479Y1673451D02*
Y1665576D01*
X2155570Y1673451D02*
X2159388D01*
X2163479D02*
X2162933Y1673076D01*
X2162388Y1672326*
X2162115Y1671576*
X2161842Y1670451*
Y1668576*
X2162115Y1667451*
X2162388Y1666701*
X2162933Y1665951*
X2163479Y1665576*
X2164570*
X2165115Y1665951*
X2165660Y1666701*
X2165933Y1667451*
X2166206Y1668576*
Y1670451*
X2165933Y1671576*
X2165660Y1672326*
X2165115Y1673076*
X2164570Y1673451*
X2163479*
X2168660D02*
Y1665576D01*
X2171933*
X1938433Y1649451D02*
X1937615Y1649076D01*
X1937070Y1647951*
X1936797Y1646076*
Y1644951*
X1937070Y1643076*
X1937615Y1641951*
X1938433Y1641576*
X1938979*
X1939797Y1641951*
X1940342Y1643076*
X1940615Y1644951*
Y1646076*
X1940342Y1647951*
X1939797Y1649076*
X1938979Y1649451*
X1938433*
X1943342Y1642326D02*
X1943070Y1641951D01*
X1943342Y1641576*
X1943615Y1641951*
X1943342Y1642326*
X1946615Y1649451D02*
X1949615D01*
X1947979Y1646451*
X1948797*
X1949342Y1646076*
X1949615Y1645701*
X1949888Y1644576*
Y1643826*
X1949615Y1642701*
X1949070Y1641951*
X1948251Y1641576*
X1947433*
X1946615Y1641951*
X1946342Y1642326*
X1946070Y1643076*
X1955888Y1649451D02*
X1953160D01*
X1952888Y1646076*
X1953160Y1646451*
X1953979Y1646826*
X1954797*
X1955615Y1646451*
X1956160Y1645701*
X1956433Y1644576*
X1956160Y1643826*
X1955888Y1642701*
X1955342Y1641951*
X1954524Y1641576*
X1953706*
X1952888Y1641951*
X1952615Y1642326*
X1952342Y1643076*
X2029979Y1649451D02*
X2027251D01*
X2026979Y1646076*
X2027251Y1646451*
X2028070Y1646826*
X2028888*
X2029706Y1646451*
X2030251Y1645701*
X2030524Y1644576*
X2030251Y1643826*
X2029979Y1642701*
X2029433Y1641951*
X2028615Y1641576*
X2027797*
X2026979Y1641951*
X2026706Y1642326*
X2026433Y1643076*
X2035706Y1649451D02*
X2032979Y1644201D01*
X2037070*
X2035706Y1649451D02*
Y1641576D01*
X2062797Y1647576D02*
X2074797D01*
X2068797Y1641576D02*
Y1653576D01*
X2095433Y1649451D02*
X2097615Y1645701D01*
Y1641576*
X2099797Y1649451D02*
X2097615Y1645701D01*
X2102251Y1649451D02*
Y1641576D01*
Y1649451D02*
X2105797D01*
X2102251Y1645701D02*
X2104433D01*
X2102251Y1641576D02*
X2105797D01*
X2112070Y1648326D02*
X2111524Y1649076D01*
X2110706Y1649451*
X2109615*
X2108797Y1649076*
X2108251Y1648326*
Y1647576*
X2108524Y1646826*
X2108797Y1646451*
X2109342Y1646076*
X2110979Y1645326*
X2111524Y1644951*
X2111797Y1644576*
X2112070Y1643826*
Y1642701*
X2111524Y1641951*
X2110706Y1641576*
X2109615*
X2108797Y1641951*
X2108251Y1642701*
X2148615Y1648326D02*
Y1641576D01*
X2146160Y1644951D02*
X2151070D01*
X2158433Y1650951D02*
X2153524Y1638951D01*
X2160888Y1644951D02*
X2165797D01*
X2169888Y1649451D02*
X2169070Y1649076D01*
X2168524Y1647951*
X2168251Y1646076*
Y1644951*
X2168524Y1643076*
X2169070Y1641951*
X2169888Y1641576*
X2170433*
X2171251Y1641951*
X2171797Y1643076*
X2172070Y1644951*
Y1646076*
X2171797Y1647951*
X2171251Y1649076*
X2170433Y1649451*
X2169888*
X2174797Y1642326D02*
X2174524Y1641951D01*
X2174797Y1641576*
X2175070Y1641951*
X2174797Y1642326*
X2179160Y1649451D02*
X2178342Y1649076D01*
X2177797Y1647951*
X2177524Y1646076*
Y1644951*
X2177797Y1643076*
X2178342Y1641951*
X2179160Y1641576*
X2179706*
X2180524Y1641951*
X2181070Y1643076*
X2181342Y1644951*
Y1646076*
X2181070Y1647951*
X2180524Y1649076*
X2179706Y1649451*
X2179160*
G54D31*
X1812721Y1550895D02*
X1871729D01*
X1877884Y1534051*
X1904980*
X1911116Y1550934*
X1970185*
Y1517445*
X1812694*
Y1550907*
X1812721*
Y1550895*
X1963474Y1529630D02*
G75*
G03X1963474I-4331J0D01*
G01X1826860Y1540654D02*
G03X1826860I-4331J0D01*
G74*
G01X0Y0D02*
M02*
