*
*
G04 PADS 9.5 Build Number: 522968 generated Gerber (RS-274-X) file*
G04 PC Version=2.1*
*
%IN "laser sight 1V1.pcb"*%
*
%MOIN*%
*
%FSLAX35Y35*%
*
*
*
*
G04 PC Standard Apertures*
*
*
G04 Thermal Relief Aperture macro.*
%AMTER*
1,1,$1,0,0*
1,0,$1-$2,0,0*
21,0,$3,$4,0,0,45*
21,0,$3,$4,0,0,135*
%
*
*
G04 Annular Aperture macro.*
%AMANN*
1,1,$1,0,0*
1,0,$2,0,0*
%
*
*
G04 Odd Aperture macro.*
%AMODD*
1,1,$1,0,0*
1,0,$1-0.005,0,0*
%
*
*
G04 PC Custom Aperture Macros*
*
*
*
*
*
*
G04 PC Aperture Table*
*
%ADD010C,0.001*%
%ADD030C,0.01*%
%ADD031C,0.00394*%
%ADD034R,0.03X0.03*%
%ADD104R,0.03X0.03*%
%ADD106R,0.046X0.046*%
%ADD107R,0.046X0.06*%
%ADD169R,0.04543X0.0474*%
%ADD202R,0.02X0.08874*%
%ADD203O,0.02X0.08874*%
%ADD204R,0.08087X0.12811*%
%ADD210O,0.06906X0.12811*%
%ADD211R,0.03362X0.02969*%
*
*
*
*
G04 PC Circuitry*
G04 Layer Name laser sight 1V1.pcb - circuitry*
%LPD*%
*
*
G04 PC Custom Flashes*
G04 Layer Name laser sight 1V1.pcb - flashes*
%LPD*%
*
*
G04 PC Circuitry*
G04 Layer Name laser sight 1V1.pcb - circuitry*
%LPD*%
*
G54D10*
G01X1935951Y1583275D02*
X1935954D01*
X2093443D02*
X2093445D01*
X1935951D02*
X1935954D01*
X1935979Y1616725D02*
X1935981D01*
G54D30*
X1935951Y1575607D02*
X1996015D01*
X1935951D02*
X1945951Y1578107D01*
Y1573107*
X1935951Y1575607*
X2093443D02*
X2033379D01*
X2093443D02*
X2083443Y1573107D01*
Y1578107*
X2093443Y1575607*
X1935951Y1578275D02*
Y1570607D01*
X2093443Y1578275D02*
Y1570607D01*
X2001288Y1578420D02*
X1999015Y1574045D01*
X2002424*
X2001288Y1578420D02*
Y1571857D01*
X2005833Y1578420D02*
X2005152Y1578107D01*
X2004697Y1577170*
X2004470Y1575607*
Y1574670*
X2004697Y1573107*
X2005152Y1572170*
X2005833Y1571857*
X2006288*
X2006970Y1572170*
X2007424Y1573107*
X2007652Y1574670*
Y1575607*
X2007424Y1577170*
X2006970Y1578107*
X2006288Y1578420*
X2005833*
X2009924Y1572482D02*
X2009697Y1572170D01*
X2009924Y1571857*
X2010152Y1572170*
X2009924Y1572482*
X2013561Y1578420D02*
X2012879Y1578107D01*
X2012424Y1577170*
X2012197Y1575607*
Y1574670*
X2012424Y1573107*
X2012879Y1572170*
X2013561Y1571857*
X2014015*
X2014697Y1572170*
X2015152Y1573107*
X2015379Y1574670*
Y1575607*
X2015152Y1577170*
X2014697Y1578107*
X2014015Y1578420*
X2013561*
X2017424Y1576232D02*
Y1571857D01*
Y1574982D02*
X2018106Y1575920D01*
X2018561Y1576232*
X2019242*
X2019697Y1575920*
X2019924Y1574982*
Y1571857*
Y1574982D02*
X2020606Y1575920D01*
X2021061Y1576232*
X2021742*
X2022197Y1575920*
X2022424Y1574982*
Y1571857*
X2024470Y1576232D02*
Y1571857D01*
Y1574982D02*
X2025152Y1575920D01*
X2025606Y1576232*
X2026288*
X2026742Y1575920*
X2026970Y1574982*
Y1571857*
Y1574982D02*
X2027652Y1575920D01*
X2028106Y1576232*
X2028788*
X2029242Y1575920*
X2029470Y1574982*
Y1571857*
X1919026Y1583275D02*
Y1568275D01*
Y1583275D02*
X1921526Y1573275D01*
X1916526*
X1919026Y1583275*
Y1616725D02*
Y1631725D01*
Y1616725D02*
X1916526Y1626725D01*
X1921526*
X1919026Y1616725*
X1930951Y1583275D02*
X1914026D01*
X1930979Y1616725D02*
X1914026D01*
X1907694Y1605257D02*
X1907012Y1604945D01*
X1906785Y1604320*
Y1603695*
X1907012Y1603070*
X1907467Y1602757*
X1908376Y1602445*
X1909057Y1602132*
X1909512Y1601507*
X1909739Y1600882*
Y1599945*
X1909512Y1599320*
X1909285Y1599007*
X1908603Y1598695*
X1907694*
X1907012Y1599007*
X1906785Y1599320*
X1906557Y1599945*
Y1600882*
X1906785Y1601507*
X1907239Y1602132*
X1907921Y1602445*
X1908830Y1602757*
X1909285Y1603070*
X1909512Y1603695*
Y1604320*
X1909285Y1604945*
X1908603Y1605257*
X1907694*
X1912012Y1599320D02*
X1911785Y1599007D01*
X1912012Y1598695*
X1912239Y1599007*
X1912012Y1599320*
X1917239Y1605257D02*
X1914967D01*
X1914739Y1602445*
X1914967Y1602757*
X1915648Y1603070*
X1916330*
X1917012Y1602757*
X1917467Y1602132*
X1917694Y1601195*
X1917467Y1600570*
X1917239Y1599632*
X1916785Y1599007*
X1916103Y1598695*
X1915421*
X1914739Y1599007*
X1914512Y1599320*
X1914285Y1599945*
X1919739Y1603070D02*
Y1598695D01*
Y1601820D02*
X1920421Y1602757D01*
X1920876Y1603070*
X1921557*
X1922012Y1602757*
X1922239Y1601820*
Y1598695*
Y1601820D02*
X1922921Y1602757D01*
X1923376Y1603070*
X1924057*
X1924512Y1602757*
X1924739Y1601820*
Y1598695*
X1926785Y1603070D02*
Y1598695D01*
Y1601820D02*
X1927467Y1602757D01*
X1927921Y1603070*
X1928603*
X1929057Y1602757*
X1929285Y1601820*
Y1598695*
Y1601820D02*
X1929967Y1602757D01*
X1930421Y1603070*
X1931103*
X1931557Y1602757*
X1931785Y1601820*
Y1598695*
G54D31*
X1935994Y1616695D02*
X1995003D01*
X2001157Y1599851*
X2028253*
X2034389Y1616734*
X2093458*
Y1583245*
X1935967*
Y1616707*
X1935994*
Y1616695*
X2086747Y1595431D02*
G75*
G03X2086747I-4330J0D01*
G01X1950133Y1606454D02*
G03X1950133I-4331J0D01*
G01X1935979Y1616725D02*
X1994987D01*
X2001142Y1599881*
X2028238*
X2034374Y1616764*
X2093443*
Y1583275*
X1935951*
Y1616737*
X1935979*
Y1616725*
X2086732Y1595461D02*
G03X2086732I-4331J0D01*
G01X1950118Y1606484D02*
G03X1950118I-4331J0D01*
G54D34*
G01X2038823Y1589144D03*
X2043823D03*
X2065876Y1588862D03*
X2062058D03*
X2057014Y1588721D03*
X2052014D03*
X2050252Y1593923D03*
Y1598923D03*
X2059113Y1607160D03*
X2054113D03*
X2078294Y1610595D03*
Y1605595D03*
G54D104*
X2039443Y1607849D03*
X2043043D03*
G54D106*
X2073795Y1603015D03*
X2066295D03*
X2062720Y1594266D03*
X2055220D03*
G54D107*
X2070045Y1611015D03*
X2058970Y1602266D03*
G54D169*
X2045949Y1603625D03*
X2038469D03*
X2042209Y1593783D03*
G54D202*
X1968767Y1600168D03*
G54D203*
X1970736D03*
X1972704D03*
X1974673D03*
X1976641D03*
G54D204*
X1961680Y1592294D03*
X1983728D03*
G54D210*
X1999936Y1591150D03*
X2013715D03*
X2027495D03*
G54D211*
X2059604Y1611529D03*
X2054289D03*
G74*
X0Y0D02*
M02*
