*
*
G04 PADS 9.5 Build Number: 522968 generated Gerber (RS-274-X) file*
G04 PC Version=2.1*
*
%IN "laser sight 1V1.pcb"*%
*
%MOIN*%
*
%FSLAX35Y35*%
*
*
*
*
G04 PC Standard Apertures*
*
*
G04 Thermal Relief Aperture macro.*
%AMTER*
1,1,$1,0,0*
1,0,$1-$2,0,0*
21,0,$3,$4,0,0,45*
21,0,$3,$4,0,0,135*
%
*
*
G04 Annular Aperture macro.*
%AMANN*
1,1,$1,0,0*
1,0,$2,0,0*
%
*
*
G04 Odd Aperture macro.*
%AMODD*
1,1,$1,0,0*
1,0,$1-0.005,0,0*
%
*
*
G04 PC Custom Aperture Macros*
*
*
*
*
*
*
G04 PC Aperture Table*
*
%ADD010C,0.001*%
%ADD011R,0.02X0.02*%
%ADD023C,0.01969*%
%ADD024C,0.01181*%
%ADD025C,0.00787*%
%ADD031C,0.00394*%
%ADD052R,0.02X0.02*%
%ADD054R,0.036X0.036*%
%ADD055R,0.036X0.05*%
%ADD162R,0.03543X0.0374*%
%ADD179C,0.00197*%
%ADD192R,0.01X0.07874*%
%ADD193O,0.01X0.07874*%
%ADD194R,0.07087X0.11811*%
%ADD195C,0.01008*%
%ADD207O,0.05906X0.11811*%
%ADD208R,0.02362X0.01969*%
%ADD209C,0.02559*%
%ADD212C,0.006*%
*
*
*
*
G04 PC Circuitry*
G04 Layer Name laser sight 1V1.pcb - circuitry*
%LPD*%
*
*
G04 PC Custom Flashes*
G04 Layer Name laser sight 1V1.pcb - flashes*
%LPD*%
*
*
G04 PC Circuitry*
G04 Layer Name laser sight 1V1.pcb - circuitry*
%LPD*%
*
G54D10*
G54D11*
G01X2024111Y1589155D03*
X2029111D03*
X2051164Y1588873D03*
X2047345D03*
X2042302Y1588732D03*
X2037302D03*
X2035539Y1593933D03*
Y1598933D03*
X2044400Y1607170D03*
X2039400D03*
X2063581Y1610606D03*
Y1605606D03*
G54D23*
X2027496Y1593794D02*
X2032676D01*
X2035539Y1593918*
Y1593933*
X2023756Y1603636D02*
X2024544D01*
Y1604522*
X2024716Y1607859*
X2024731*
X1953062Y1600717D02*
Y1604162D01*
X1951440*
Y1600717*
X1953062*
X1982500Y1595756D02*
X1987726D01*
Y1586655*
X1982500*
Y1595756*
X1996723Y1595895D02*
X2001949D01*
Y1586867*
X1996723*
Y1595895*
X2010337D02*
X2015564D01*
Y1586867*
X2010337*
Y1595895*
X2024556Y1611353D02*
X2024868D01*
Y1603118*
X2024556*
Y1611353*
X1951440Y1602487D02*
X1953062D01*
X1982500Y1595512D02*
X1987726D01*
X1982500Y1593740D02*
X1987726D01*
X1982500Y1591969D02*
X1987726D01*
X1982500Y1590197D02*
X1987726D01*
X1982500Y1588425D02*
X1987726D01*
X1996723Y1595724D02*
X2001949D01*
X1996723Y1593952D02*
X2001949D01*
X1996723Y1592180D02*
X2001949D01*
X1996723Y1590409D02*
X2001949D01*
X1996723Y1588637D02*
X2001949D01*
X2010337Y1595724D02*
X2015564D01*
X2010337Y1593952D02*
X2015564D01*
X2010337Y1592180D02*
X2015564D01*
X2010337Y1590409D02*
X2015564D01*
X2010337Y1588637D02*
X2015564D01*
X2024556Y1610203D02*
X2024868D01*
X2024556Y1608431D02*
X2024868D01*
X2024556Y1606660D02*
X2024868D01*
X2024556Y1604888D02*
X2024868D01*
X2077161Y1585824D02*
Y1590335D01*
G75*
G03X2075334Y1590843I-984J-0D01*
G01X2069791Y1586781D02*
G03X2075334Y1590843I-2087J8660D01*
G01X2069791Y1586781D02*
G03X2070022Y1584840I231J-957D01*
G01X2076177*
G03X2077161Y1585824I0J984*
G01X2065386Y1584840D02*
G03X2065617Y1586781I0J984D01*
G01X2059280Y1598337D02*
G03X2065617Y1586781I8424J-2896D01*
G01X2059280Y1598337D02*
G03X2058349Y1599641I-931J320D01*
G01X2057282*
X2056080Y1600194D02*
G03X2057282Y1599641I1202J1032D01*
G01X2056080Y1600194D02*
G03X2054585I-748J-640D01*
G01X2053382Y1599641D02*
G03X2054585Y1600194I0J1585D01*
G01X2053382Y1599641D02*
X2049782D01*
X2048994Y1599851D02*
G03X2049782Y1599641I788J1375D01*
G01X2048994Y1599851D02*
G03X2047567Y1599296I-489J-854D01*
G01X2046057Y1598192D02*
G03X2047567Y1599296I0J1584D01*
G01X2046057Y1598192D02*
X2044613D01*
G03X2043730Y1596774I0J-984*
G01X2043892Y1596076D02*
G03X2043730Y1596774I-1585J0D01*
G01X2043892Y1596076D02*
Y1594375D01*
G03X2044180Y1593679I984J0*
G01X2044181Y1593678*
G03X2044877Y1593390I696J696*
G01X2045002*
X2046540Y1592753D02*
G03X2045002Y1593390I-1538J-1538D01*
G01X2046540Y1592753D02*
X2047548Y1591745D01*
G03X2048244Y1591457I696J696*
G01X2048345*
X2049929Y1589873D02*
G03X2048345Y1591457I-1584J-0D01*
G01X2049929Y1589873D02*
Y1587873D01*
X2049301Y1586609D02*
G03X2049929Y1587873I-956J1264D01*
G01X2049301Y1586609D02*
G03X2049894Y1584840I593J-785D01*
G01X2065386*
X2077161Y1600547D02*
Y1614176D01*
G03X2076177Y1615160I-984J0*
G01X2059617*
G03X2058665Y1613927I0J-984*
G01X2058717Y1613526D02*
G03X2058665Y1613927I-1585J-0D01*
G01X2058717Y1613526D02*
Y1608656D01*
G03X2059956Y1607706I984J0*
G01X2060521Y1607780D02*
G03X2059956Y1607706I0J-2174D01*
G01X2060521Y1607780D02*
X2061190D01*
G03X2061723Y1607937I0J985*
G01X2062581Y1608190D02*
G03X2061723Y1607937I0J-1584D01*
G01X2062581Y1608190D02*
X2064581D01*
X2066166Y1606606D02*
G03X2064581Y1608190I-1585J-0D01*
G01X2066166Y1606606D02*
Y1605318D01*
G03X2067205Y1604335I984J-0*
G01X2075334Y1600039D02*
G03X2067205Y1604335I-7630J-4598D01*
G01X2075334Y1600039D02*
G03X2077161Y1600547I843J508D01*
G01X2051227Y1606410D02*
G03X2052110Y1607828I-0J984D01*
G01X2052001Y1608119D02*
G03X2052110Y1607828I1531J407D01*
G01X2052001Y1608119D02*
G03X2051050Y1608851I-951J-253D01*
G01X2050059*
X2048871Y1609204D02*
G03X2050059Y1608851I1188J1822D01*
G01X2048871Y1609204D02*
G03X2048333Y1609364I-538J-824D01*
G01X2047960*
G03X2046979Y1608300I0J-984*
G01X2046985Y1608170D02*
G03X2046979Y1608300I-1585J0D01*
G01X2046985Y1608170D02*
Y1606644D01*
G03X2048664Y1605947I984J0*
G01X2049782Y1606410D02*
G03X2048664Y1605947I0J-1584D01*
G01X2049782Y1606410D02*
X2051227D01*
X2040152Y1597661D02*
G03X2041035Y1599078I-0J984D01*
G01X2040873Y1599776D02*
G03X2041035Y1599078I1584J0D01*
G01X2040873Y1599776D02*
Y1603191D01*
G03X2039193Y1603887I-984J0*
G01X2038002Y1602696*
G03X2037714Y1602000I696J-696*
G01Y1601325*
G03X2037871Y1600791I984J-0*
G01X2038123Y1599933D02*
G03X2037871Y1600791I-1584J0D01*
G01X2038123Y1599933D02*
Y1598645D01*
G03X2039108Y1597661I985J-0*
G01X2040152*
X2037183Y1613543D02*
G03X2036429Y1615160I-754J633D01*
G01X2027051*
G03X2026513Y1613352I-0J-984*
G01X2027532Y1609719D02*
G03X2026513Y1613352I-2584J1234D01*
G01X2027532Y1609719D02*
G03X2027436Y1609294I888J-425D01*
G01Y1607852*
G03X2028821Y1606953I984J0*
G01X2029465Y1607090D02*
G03X2028821Y1606953I-0J-1584D01*
G01X2029465Y1607090D02*
X2033008D01*
X2034206Y1606543D02*
G03X2033008Y1607090I-1198J-1037D01*
G01X2034206Y1606543D02*
G03X2035646Y1606491I744J644D01*
G01X2036528Y1607373*
G03X2036816Y1608069I-696J696*
G01Y1608170*
X2036996Y1608903D02*
G03X2036816Y1608170I1404J-733D01*
G01X2036996Y1608903D02*
G03X2036994Y1609817I-873J455D01*
G01X2036811Y1610555D02*
G03X2036994Y1609817I1584J-0D01*
G01X2036811Y1610555D02*
Y1612523D01*
X2037183Y1613543D02*
G03X2036811Y1612523I1212J-1020D01*
G01X2023536Y1598501D02*
G03X2022840Y1600182I-696J696D01*
G01X2021985*
X2020401Y1601766D02*
G03X2021985Y1600182I1584J-0D01*
G01X2020401Y1601766D02*
Y1605506D01*
X2021379Y1606970D02*
G03X2020401Y1605506I606J-1464D01*
G01X2021379Y1606970D02*
G03X2021987Y1607879I-376J909D01*
G01Y1611353*
X2022996Y1613394D02*
G03X2021987Y1611353I1560J-2041D01*
G01X2022996Y1613394D02*
G03X2022399Y1615160I-597J782D01*
G01X2021476*
G03X2020551Y1614512I0J-984*
G01X2015183Y1599742*
G03X2015957Y1598433I925J-336*
G01X2018132Y1595895D02*
G03X2015957Y1598433I-2568J0D01*
G01X2018132Y1595895D02*
Y1593899D01*
G03X2018626Y1593046I984J0*
G01X2019080Y1592698D02*
G03X2018626Y1593046I-1537J-1538D01*
G01X2019080Y1592698D02*
X2020546Y1591232D01*
G03X2022226Y1591928I696J696*
G01Y1596412*
X2022778Y1597744D02*
G03X2022226Y1596412I1333J-1332D01*
G01X2022778Y1597744D02*
X2023536Y1598501D01*
X2007976Y1596906D02*
G03X2007071Y1598278I-905J387D01*
G01X2005215*
G03X2004311Y1596906I0J-985*
G01X2004518Y1595895D02*
G03X2004311Y1596906I-2569J0D01*
G01X2004518Y1595895D02*
Y1586867D01*
X2004405Y1586113D02*
G03X2004518Y1586867I-2456J754D01*
G01X2004405Y1586113D02*
G03X2005346Y1584840I941J-289D01*
G01X2006941*
G03X2007882Y1586113I-0J984*
G01X2007768Y1586867D02*
G03X2007882Y1586113I2569J-0D01*
G01X2007768Y1586867D02*
Y1595895D01*
X2007976Y1596906D02*
G03X2007768Y1595895I2361J-1011D01*
G01X1994361Y1596906D02*
G03X1993456Y1598278I-905J387D01*
G01X1990929*
G03X1990042Y1596867I0J-985*
G01X1990295Y1595756D02*
G03X1990042Y1596867I-2569J-0D01*
G01X1990295Y1595756D02*
Y1586655D01*
X1990224Y1586054D02*
G03X1990295Y1586655I-2498J601D01*
G01X1990224Y1586054D02*
G03X1991181Y1584840I957J-230D01*
G01X1993326*
G03X1994267Y1586113I0J984*
G01X1994154Y1586867D02*
G03X1994267Y1586113I2569J-0D01*
G01X1994154Y1586867D02*
Y1595895D01*
X1994361Y1596906D02*
G03X1994154Y1595895I2362J-1011D01*
G01X1984100Y1598509D02*
G03X1984780Y1599800I-244J953D01*
G01X1979419Y1614475*
G03X1978494Y1615121I-925J-338*
G01X1937335*
G03X1936713Y1613374I-0J-984*
G01X1924546Y1600420D02*
G03X1936713Y1613374I6544J6045D01*
G01X1924546Y1600420D02*
G03X1922839Y1599752I-723J-668D01*
G01Y1585824*
G03X1923823Y1584840I984J-0*
G01X1940921*
G03X1941881Y1586044I0J984*
G01X1941840Y1586399D02*
G03X1941881Y1586044I1585J-0D01*
G01X1941840Y1586399D02*
Y1598210D01*
X1943425Y1599794D02*
G03X1941840Y1598210I-0J-1584D01*
G01X1943425Y1599794D02*
X1947887D01*
G03X1948871Y1600778I-0J984*
G01Y1602905*
G03X1948847Y1603121I-984J-0*
G01X1948897Y1604567D02*
G03X1948847Y1603121I2744J-818D01*
G01X1948897Y1604567D02*
G03X1948919Y1604658I-943J281D01*
G01X1951440Y1606731D02*
G03X1948919Y1604658I-0J-2569D01*
G01X1951440Y1606731D02*
X1951869D01*
G03X1952853Y1607715I-0J984*
G01Y1608989*
X1954536Y1610672D02*
G03X1952853Y1608989I-0J-1683D01*
G01X1954536Y1610672D02*
X1960363D01*
X1962046Y1608989D02*
G03X1960363Y1610672I-1683J-0D01*
G01X1962046Y1608989D02*
Y1606201D01*
X1961553Y1605011D02*
G03X1962046Y1606201I-1190J1190D01*
G01X1961553Y1605011D02*
X1960379Y1603837D01*
G03X1960090Y1603141I696J-696*
G01Y1596139*
X1958408Y1594457D02*
G03X1960090Y1596139I-0J1682D01*
G01X1958408Y1594457D02*
X1955455D01*
X1954814Y1594583D02*
G03X1955455Y1594457I641J1556D01*
G01X1954814Y1594583D02*
G03X1954440Y1594657I-374J-910D01*
G01X1953555*
X1953262Y1594684D02*
G03X1953555Y1594657I293J1557D01*
G01X1953262Y1594684D02*
G03X1952096Y1593717I-182J-967D01*
G01Y1586399*
X1952055Y1586044D02*
G03X1952096Y1586399I-1544J355D01*
G01X1952055Y1586044D02*
G03X1953015Y1584840I960J-220D01*
G01X1962969*
G03X1963928Y1586044I-0J984*
G01X1963888Y1586399D02*
G03X1963928Y1586044I1584J-0D01*
G01X1963888Y1586399D02*
Y1598210D01*
X1965472Y1599794D02*
G03X1963888Y1598210I-0J-1584D01*
G01X1965472Y1599794D02*
X1972559D01*
X1974143Y1598210D02*
G03X1972559Y1599794I-1584J-0D01*
G01X1974143Y1598210D02*
Y1586399D01*
X1974103Y1586044D02*
G03X1974143Y1586399I-1544J355D01*
G01X1974103Y1586044D02*
G03X1975062Y1584840I959J-220D01*
G01X1979046*
G03X1980002Y1586054I-0J984*
G01X1979931Y1586655D02*
G03X1980002Y1586054I2569J-0D01*
G01X1979931Y1586655D02*
Y1595756D01*
X1982500Y1598324D02*
G03X1979931Y1595756I-0J-2568D01*
G01X1982500Y1598324D02*
X1983354D01*
G03X1983688Y1598382I0J984*
G01X1984100Y1598509D02*
G03X1983688Y1598382I1123J-4396D01*
G01X1925467Y1613374D02*
G03X1924845Y1615121I-622J763D01*
G01X1923823*
G03X1922839Y1614137I-0J-984*
G01Y1613177*
G03X1924546Y1612509I984J-0*
G01X1925467Y1613374D02*
G03X1924546Y1612509I5623J-6909D01*
G01X2044796Y1584840D02*
G03X2045390Y1586609I-0J984D01*
G01X2044761Y1587873D02*
G03X2045390Y1586609I1584J-0D01*
G01X2044761Y1587873D02*
Y1587974D01*
G03X2044472Y1588669I-984J-0*
G01X2044390Y1588752*
G03X2043694Y1589040I-696J-696*
G01X2043568*
X2042031Y1589677D02*
G03X2043568Y1589040I1537J1538D01*
G01X2042031Y1589677D02*
X2041566Y1590142D01*
G03X2039886Y1589446I-696J-696*
G01Y1587732*
X2039363Y1586555D02*
G03X2039886Y1587732I-1061J1177D01*
G01X2039363Y1586555D02*
G03X2040022Y1584840I659J-731D01*
G01X2044796*
X2039243Y1586426D02*
X2045575D01*
X2039886Y1588197D02*
X2044735D01*
X2040037Y1589969D02*
X2041739D01*
X1923071Y1614772D02*
X1925597D01*
X1922855Y1613001D02*
X1925037D01*
X1974018Y1598827D02*
X1984608D01*
X1960090Y1600599D02*
X1984489D01*
X1960090Y1602371D02*
X1983841D01*
X1960684Y1604142D02*
X1983194D01*
X1962021Y1605914D02*
X1982547D01*
X1962046Y1607686D02*
X1981899D01*
X1961980Y1609457D02*
X1981252D01*
X1938617Y1611229D02*
X1980605D01*
X1974143Y1597056D02*
X1980284D01*
X1937143Y1613001D02*
X1979957D01*
X1974143Y1586426D02*
X1979941D01*
X1974143Y1595284D02*
X1979931D01*
X1974143Y1593512D02*
X1979931D01*
X1974143Y1591741D02*
X1979931D01*
X1974143Y1589969D02*
X1979931D01*
X1974143Y1588197D02*
X1979931D01*
X1936583Y1614772D02*
X1979246D01*
X1960090Y1598827D02*
X1964013D01*
X1960090Y1597056D02*
X1963888D01*
X1959857Y1595284D02*
X1963888D01*
X1952096Y1593512D02*
X1963888D01*
X1952096Y1591741D02*
X1963888D01*
X1952096Y1589969D02*
X1963888D01*
X1952096Y1588197D02*
X1963888D01*
X1952096Y1586426D02*
X1963888D01*
X1939481Y1609457D02*
X1952920D01*
X1939914Y1607686D02*
X1952853D01*
X1939981Y1605914D02*
X1949561D01*
X1939002Y1602371D02*
X1948871D01*
X1937795Y1600599D02*
X1948855D01*
X1939690Y1604142D02*
X1948805D01*
X1935676Y1598827D02*
X1941966D01*
X1922839Y1597056D02*
X1941840D01*
X1922839Y1595284D02*
X1941840D01*
X1922839Y1593512D02*
X1941840D01*
X1922839Y1591741D02*
X1941840D01*
X1922839Y1589969D02*
X1941840D01*
X1922839Y1588197D02*
X1941840D01*
X1922839Y1586426D02*
X1941840D01*
X1922839Y1598827D02*
X1926504D01*
X1923321Y1600599D02*
X1924325D01*
X1989974Y1597056D02*
X1994412D01*
X1990285Y1586426D02*
X1994192D01*
X1990295Y1595284D02*
X1994154D01*
X1990295Y1593512D02*
X1994154D01*
X1990295Y1591741D02*
X1994154D01*
X1990295Y1589969D02*
X1994154D01*
X1990295Y1588197D02*
X1994154D01*
X2004260Y1597056D02*
X2008026D01*
X2004480Y1586426D02*
X2007807D01*
X2004518Y1595284D02*
X2007768D01*
X2004518Y1593512D02*
X2007768D01*
X2004518Y1591741D02*
X2007768D01*
X2004518Y1589969D02*
X2007768D01*
X2004518Y1588197D02*
X2007768D01*
X2015312Y1598827D02*
X2023752D01*
X2020693Y1614772D02*
X2023182D01*
X2020002Y1613001D02*
X2022585D01*
X2017855Y1597056D02*
X2022340D01*
X2018132Y1595284D02*
X2022226D01*
X2018212Y1593512D02*
X2022226D01*
X2020038Y1591741D02*
X2022208D01*
X2019358Y1611229D02*
X2021987D01*
X2018714Y1609457D02*
X2021987D01*
X2018070Y1607686D02*
X2021968D01*
X2015494Y1600599D02*
X2020913D01*
X2017426Y1605914D02*
X2020454D01*
X2016782Y1604142D02*
X2020401D01*
X2016138Y1602371D02*
X2020401D01*
X2026267Y1614772D02*
X2037213D01*
X2027450Y1609457D02*
X2037102D01*
X2026951Y1613001D02*
X2036885D01*
X2027799Y1611229D02*
X2036811D01*
X2027450Y1607686D02*
X2036738D01*
X2038123Y1598827D02*
X2041119D01*
X2037786Y1602371D02*
X2040873D01*
X2037977Y1600599D02*
X2040873D01*
X2039635Y1604142D02*
X2040143D01*
X2046985Y1607686D02*
X2052167D01*
X2047309Y1605914D02*
X2048628D01*
X2058717Y1613001D02*
X2077161D01*
X2058717Y1611229D02*
X2077161D01*
X2058717Y1609457D02*
X2077161D01*
X2065741Y1607686D02*
X2077161D01*
X2066166Y1605914D02*
X2077161D01*
X2069613Y1604142D02*
X2077161D01*
X2073302Y1602371D02*
X2077161D01*
X2074967Y1600599D02*
X2077161D01*
X2058834Y1614772D02*
X2076960D01*
X2059538Y1607686D02*
X2059864D01*
X2049115Y1586426D02*
X2066165D01*
X2049929Y1588197D02*
X2062519D01*
X2049926Y1589969D02*
X2060675D01*
X2047553Y1591741D02*
X2059601D01*
X2047326Y1598827D02*
X2059318D01*
X2044402Y1593512D02*
X2059007D01*
X2043641Y1597056D02*
X2058943D01*
X2043892Y1595284D02*
X2058797D01*
X2074734Y1589969D02*
X2077161D01*
X2072890Y1588197D02*
X2077161D01*
X2069243Y1586426D02*
X2077161D01*
G54D24*
X2012782Y1591160D02*
X2017543D01*
X2022019Y1586683*
X2031693*
X2033741Y1588732*
X2037302*
X2040507Y1594276D02*
X2043568Y1591215D01*
X2045002*
X2047345Y1588873*
X2037302Y1588732D02*
Y1591071D01*
X2040507Y1594276*
X2032097Y1598933D02*
X2035539D01*
Y1603309*
X2039400Y1607170*
X2044257Y1602276D02*
X2044400D01*
Y1607170*
X2044257Y1602276D02*
X2047023D01*
X2047772Y1603026*
X2051582*
X2059082D02*
Y1604167D01*
X2060521Y1605606*
X2063581*
X2039400Y1607170D02*
Y1609274D01*
X2039577Y1609451*
Y1611539*
X2044892D02*
Y1612215D01*
X2045170Y1612494*
X2044892Y1611539D02*
X2049546D01*
X2050059Y1611026*
X2055332*
G54D25*
X2028688Y1589300D02*
Y1589191D01*
X2029111*
Y1589155*
X1951641Y1603749D02*
Y1601192D01*
X1952655Y1600178*
X1954055*
G54D31*
X1939211Y1606465D02*
G03X1939211I-8121J0D01*
G01X2077949Y1584249D02*
Y1615751D01*
G03X2077752Y1615948I-197J0*
G01X2020373*
G03X2020188Y1615818I0J-197*
G01X2014290Y1599590*
X2013541Y1599065D02*
G03X2014290Y1599590I-0J797D01*
G01X2013541Y1599065D02*
X1986445D01*
X1985696Y1599588D02*
G03X1986445Y1599065I749J274D01*
G01X1985696Y1599588D02*
X1979780Y1615779D01*
G03X1979595Y1615909I-185J-67*
G01X1922248*
G03X1922051Y1615712I0J-197*
G01Y1584249*
G03X1922248Y1584052I197J-0*
G01X2077752*
G03X2077949Y1584249I-0J197*
G01X2061066Y1600119D02*
G03X2062014Y1601235I6638J-4678D01*
G01X2061066Y1600119D02*
G03X2060900Y1600429I-161J113D01*
G01X2060882D02*
G03X2060900I0J797D01*
G01X2060882D02*
X2057282D01*
X2056486Y1601226D02*
G03X2057282Y1600429I796J-0D01*
G01X2056486Y1601226D02*
Y1604826D01*
X2057282Y1605622D02*
G03X2056486Y1604826I0J-796D01*
G01X2057282Y1605622D02*
X2058494D01*
G03X2058634Y1605680I0J197*
G01X2059540Y1606587*
X2060521Y1606993D02*
G03X2059540Y1606587I0J-1387D01*
G01X2060521Y1606993D02*
X2061778D01*
G03X2061937Y1607074I-0J197*
G01X2062581Y1607402D02*
G03X2061937Y1607074I0J-796D01*
G01X2062581Y1607402D02*
X2064581D01*
X2065378Y1606606D02*
G03X2064581Y1607402I-797J-0D01*
G01X2065378Y1606606D02*
Y1604606D01*
X2064581Y1603809D02*
G03X2065378Y1604606I0J797D01*
G01X2064581Y1603809D02*
X2062581D01*
X2062016Y1604044D02*
G03X2062581Y1603809I565J562D01*
G01X2062016Y1604044D02*
G03X2061679Y1603906I-140J-138D01*
G01Y1601375*
G03X2062014Y1601235I197J0*
G01X2049142Y1589873D02*
Y1587873D01*
X2048345Y1587076D02*
G03X2049142Y1587873I0J797D01*
G01X2048345Y1587076D02*
X2046345D01*
X2045548Y1587873D02*
G03X2046345Y1587076I797J-0D01*
G01X2045548Y1587873D02*
Y1588626D01*
G03X2045491Y1588765I-197J-0*
G01X2044485Y1589770*
G03X2044346Y1589828I-139J-139*
G01X2043568*
X2042587Y1590234D02*
G03X2043568Y1589828I981J981D01*
G01X2042587Y1590234D02*
X2041200Y1591622D01*
G03X2041061Y1591679I-139J-139*
G01X2039954*
G03X2039815Y1591622I0J-196*
G01X2038814Y1590621*
G03X2038824Y1590333I139J-139*
G01X2039099Y1589732D02*
G03X2038824Y1590333I-797J-0D01*
G01X2039099Y1589732D02*
Y1587732D01*
X2038302Y1586935D02*
G03X2039099Y1587732I-0J797D01*
G01X2038302Y1586935D02*
X2036302D01*
X2035657Y1587263D02*
G03X2036302Y1586935I645J469D01*
G01X2035657Y1587263D02*
G03X2035498Y1587344I-159J-116D01*
G01X2034398*
X2034398D02*
G03X2034258Y1587286I-0J-197D01*
G01X2032674Y1585702*
X2031693Y1585296D02*
G03X2032674Y1585702I0J1387D01*
G01X2031693Y1585296D02*
X2022019D01*
X2021038Y1585702D02*
G03X2022019Y1585296I981J981D01*
G01X2021038Y1585702D02*
X2017681Y1589060D01*
G03X2017345Y1588921I-139J-139*
G01Y1586867*
X2015564Y1585085D02*
G03X2017345Y1586867I-0J1782D01*
G01X2015564Y1585085D02*
X2014917D01*
G03X2014811Y1585054I0J-196*
G01X2010753D02*
G03X2014811I2029J3154D01*
G01X2010753D02*
G03X2010647Y1585085I-106J-165D01*
G01X2010337*
X2008556Y1586867D02*
G03X2010337Y1585085I1781J-0D01*
G01X2008556Y1586867D02*
Y1595895D01*
X2010337Y1597676D02*
G03X2008556Y1595895I-0J-1781D01*
G01X2010337Y1597676D02*
X2011584D01*
G03X2011644Y1597686I-0J197*
G01X2013921D02*
G03X2011644I-1139J-3573D01*
G01X2013921D02*
G03X2013981Y1597676I60J187D01*
G01X2015564*
X2017345Y1595895D02*
G03X2015564Y1597676I-1781J0D01*
G01X2017345Y1595895D02*
Y1592745D01*
G03X2017542Y1592548I197J-0*
G01X2017543*
X2018524Y1592141D02*
G03X2017543Y1592548I-981J-981D01*
G01X2018524Y1592141D02*
X2021978Y1588687D01*
G03X2022314Y1588826I139J139*
G01Y1590155*
X2022875Y1590916D02*
G03X2022314Y1590155I236J-761D01*
G01X2022875Y1590916D02*
G03X2023014Y1591104I-58J188D01*
G01Y1596412*
X2023335Y1597187D02*
G03X2023014Y1596412I776J-775D01*
G01X2023335Y1597187D02*
X2028610Y1602463D01*
G03X2028668Y1602602I-139J139*
G01Y1605506*
X2029465Y1606303D02*
G03X2028668Y1605506I-0J-797D01*
G01X2029465Y1606303D02*
X2033008D01*
X2033805Y1605506D02*
G03X2033008Y1606303I-797J-0D01*
G01X2033805Y1605506D02*
Y1603691D01*
G03X2034193Y1603644I197J0*
G01X2034558Y1604290D02*
G03X2034193Y1603644I981J-981D01*
G01X2034558Y1604290D02*
X2037546Y1607278D01*
G03X2037603Y1607417I-139J139*
G01Y1608170*
X2037932Y1608815D02*
G03X2037603Y1608170I468J-645D01*
G01X2037932Y1608815D02*
G03X2038013Y1608974I-116J159D01*
G01Y1609274*
X2038066Y1609654D02*
G03X2038013Y1609274I1334J-380D01*
G01X2038066Y1609654D02*
G03X2037979Y1609875I-190J53D01*
G01X2037599Y1610555D02*
G03X2037979Y1609875I796J-0D01*
G01X2037599Y1610555D02*
Y1612523D01*
X2038395Y1613320D02*
G03X2037599Y1612523I0J-797D01*
G01X2038395Y1613320D02*
X2040758D01*
X2041555Y1612523D02*
G03X2040758Y1613320I-797J0D01*
G01X2041555Y1612523D02*
Y1610555D01*
X2041081Y1609826D02*
G03X2041555Y1610555I-323J729D01*
G01X2041081Y1609826D02*
G03X2040964Y1609647I80J-179D01*
G01Y1609451*
X2040880Y1608976D02*
G03X2040964Y1609451I-1303J475D01*
G01X2040880Y1608976D02*
G03X2040934Y1608762I185J-67D01*
G01X2041197Y1608170D02*
G03X2040934Y1608762I-797J0D01*
G01X2041197Y1608170D02*
Y1606170D01*
X2040400Y1605373D02*
G03X2041197Y1606170I0J797D01*
G01X2040400Y1605373D02*
X2039647D01*
G03X2039508Y1605316I0J-196*
G01X2036984Y1602792*
G03X2036926Y1602653I139J-139*
G01Y1600737*
G03X2037008Y1600578I197J0*
G01X2037336Y1599933D02*
G03X2037008Y1600578I-797J0D01*
G01X2037336Y1599933D02*
Y1597933D01*
X2036539Y1597136D02*
G03X2037336Y1597933I0J797D01*
G01X2036539Y1597136D02*
X2034539D01*
X2033894Y1597465D02*
G03X2034539Y1597136I645J468D01*
G01X2033894Y1597465D02*
G03X2033735Y1597546I-159J-116D01*
G01X2033727*
G03X2033586Y1597486I-0J-197*
G01X2030876Y1600613D02*
G03X2033586Y1597486I1221J-1680D01*
G01X2030876Y1600613D02*
G03X2030760Y1600969I-116J159D01*
G01X2030301*
G03X2030162Y1600911I-0J-197*
G01X2026047Y1596797*
G03X2026186Y1596461I139J-139*
G01X2029268*
X2030060Y1595750D02*
G03X2029268Y1596461I-792J-86D01*
G01X2030060Y1595750D02*
G03X2030256Y1595575I196J22D01*
G01X2032633*
G03X2032641I-0J197*
G01X2034134Y1595640*
G03X2034207Y1595658I-9J197*
G01X2034539Y1595730D02*
G03X2034207Y1595658I0J-797D01*
G01X2034539Y1595730D02*
X2036539D01*
X2037336Y1594933D02*
G03X2036539Y1595730I-797J0D01*
G01X2037336Y1594933D02*
Y1593542D01*
G03X2037672Y1593403I197J0*
G01X2037853Y1593584*
G03X2037911Y1593723I-139J139*
G01Y1596076*
X2038707Y1596873D02*
G03X2037911Y1596076I0J-797D01*
G01X2038707Y1596873D02*
X2042307D01*
X2043104Y1596076D02*
G03X2042307Y1596873I-797J0D01*
G01X2043104Y1596076D02*
Y1593723D01*
G03X2043162Y1593584I197J0*
G01X2044085Y1592660*
G03X2044225Y1592603I140J140*
G01X2045002*
X2045983Y1592196D02*
G03X2045002Y1592603I-981J-981D01*
G01X2045983Y1592196D02*
X2047453Y1590727D01*
G03X2047592Y1590669I139J139*
G01X2048345*
X2049142Y1589873D02*
G03X2048345Y1590669I-797J-0D01*
G01X2054179Y1604826D02*
Y1601226D01*
X2053382Y1600429D02*
G03X2054179Y1601226I0J797D01*
G01X2053382Y1600429D02*
X2049782D01*
X2048986Y1601226D02*
G03X2049782Y1600429I796J-0D01*
G01X2048986Y1601226D02*
Y1601441D01*
G03X2048789Y1601638I-197J0*
G01X2048428*
G03X2048289Y1601580I0J-197*
G01X2048004Y1601295*
X2047048Y1600889D02*
G03X2048004Y1601295I-25J1387D01*
G01X2047048Y1600889D02*
G03X2046854Y1600692I3J-197D01*
G01Y1599776*
X2046057Y1598979D02*
G03X2046854Y1599776I0J797D01*
G01X2046057Y1598979D02*
X2042457D01*
X2041661Y1599776D02*
G03X2042457Y1598979I796J0D01*
G01X2041661Y1599776D02*
Y1604776D01*
X2042457Y1605573D02*
G03X2041661Y1604776I0J-797D01*
G01X2042457Y1605573D02*
X2042491D01*
G03X2042671Y1605849I-0J197*
G01X2042603Y1606170D02*
G03X2042671Y1605849I797J0D01*
G01X2042603Y1606170D02*
Y1608170D01*
X2043400Y1608967D02*
G03X2042603Y1608170I0J-797D01*
G01X2043400Y1608967D02*
X2045400D01*
X2046197Y1608170D02*
G03X2045400Y1608967I-797J0D01*
G01X2046197Y1608170D02*
Y1606170D01*
X2046119Y1605826D02*
G03X2046197Y1606170I-719J344D01*
G01X2046119Y1605826D02*
G03X2046249Y1605550I177J-85D01*
G01X2046854Y1604776D02*
G03X2046249Y1605550I-797J0D01*
G01X2046854Y1604776D02*
Y1604436D01*
G03X2047141Y1604261I197J0*
G01X2047772Y1604413D02*
G03X2047141Y1604261I-0J-1387D01*
G01X2047772Y1604413D02*
X2048789D01*
G03X2048986Y1604610I-0J197*
G01Y1604826*
X2049782Y1605622D02*
G03X2048986Y1604826I0J-796D01*
G01X2049782Y1605622D02*
X2053382D01*
X2054179Y1604826D02*
G03X2053382Y1605622I-797J-0D01*
G01X2057929Y1613526D02*
Y1608526D01*
X2057132Y1607729D02*
G03X2057929Y1608526I0J797D01*
G01X2057132Y1607729D02*
X2053532D01*
X2052736Y1608526D02*
G03X2053532Y1607729I796J-0D01*
G01X2052736Y1608526D02*
Y1609441D01*
G03X2052539Y1609638I-197J0*
G01X2050059*
X2049078Y1610044D02*
G03X2050059Y1609638I981J982D01*
G01X2049078Y1610044D02*
X2049029Y1610094D01*
G03X2048890Y1610152I-139J-139*
G01X2046865*
G03X2046708Y1610074I-0J-197*
G01X2046073Y1609758D02*
G03X2046708Y1610074I-0J797D01*
G01X2046073Y1609758D02*
X2043710D01*
X2042914Y1610555D02*
G03X2043710Y1609758I796J-0D01*
G01X2042914Y1610555D02*
Y1612523D01*
X2043159Y1613099D02*
G03X2042914Y1612523I551J-576D01*
G01X2043159Y1613099D02*
G03X2043209Y1613177I-136J142D01*
G01X2047165Y1613069D02*
G03X2043209Y1613177I-1995J-575D01*
G01X2047165Y1613069D02*
G03X2047355Y1612927I190J54D01*
G01X2049546*
X2050527Y1612520D02*
G03X2049546Y1612927I-981J-981D01*
G01X2050527Y1612520D02*
X2050576Y1612471D01*
G03X2050716Y1612413I140J139*
G01X2052539*
G03X2052736Y1612610I-0J197*
G01Y1613526*
X2053532Y1614322D02*
G03X2052736Y1613526I0J-796D01*
G01X2053532Y1614322D02*
X2057132D01*
X2057929Y1613526D02*
G03X2057132Y1614322I-797J-0D01*
G01X2026681Y1609810D02*
G03X2025940Y1612777I-1733J1143D01*
G01X2026681Y1609810D02*
G03X2026649Y1609701I165J-109D01*
G01Y1603118*
X2026357Y1602141D02*
G03X2026649Y1603118I-1489J977D01*
G01X2026357Y1602141D02*
G03X2026325Y1602033I165J-108D01*
G01Y1601766*
X2025528Y1600969D02*
G03X2026325Y1601766I-0J797D01*
G01X2025528Y1600969D02*
X2021985D01*
X2021188Y1601766D02*
G03X2021985Y1600969I797J-0D01*
G01X2021188Y1601766D02*
Y1605506D01*
X2021985Y1606303D02*
G03X2021188Y1605506I-0J-797D01*
G01X2021985Y1606303D02*
X2022578D01*
G03X2022775Y1606500I-0J197*
G01Y1611353*
X2024556Y1613134D02*
G03X2022775Y1611353I-0J-1781D01*
G01X2024556Y1613134D02*
X2024868D01*
X2025918Y1612791D02*
G03X2024868Y1613134I-1050J-1438D01*
G01X2025918Y1612791D02*
G03X2025940Y1612777I116J159D01*
G01X2003730Y1595895D02*
Y1586867D01*
X2001949Y1585085D02*
G03X2003730Y1586867I0J1782D01*
G01X2001949Y1585085D02*
X2001138D01*
G03X2001031Y1585054I-0J-196*
G01X1996974D02*
G03X2001031I2029J3154D01*
G01X1996974D02*
G03X1996867Y1585085I-107J-165D01*
G01X1996723*
X1994941Y1586867D02*
G03X1996723Y1585085I1782J-0D01*
G01X1994941Y1586867D02*
Y1595895D01*
X1996723Y1597676D02*
G03X1994941Y1595895I-0J-1781D01*
G01X1996723Y1597676D02*
X1997804D01*
G03X1997864Y1597686I0J197*
G01X2000141D02*
G03X1997864I-1138J-3573D01*
G01X2000141D02*
G03X2000201Y1597676I60J187D01*
G01X2001949*
X2003730Y1595895D02*
G03X2001949Y1597676I-1781J0D01*
G01X1989508Y1595756D02*
Y1586655D01*
X1987726Y1584874D02*
G03X1989508Y1586655I0J1781D01*
G01X1987726Y1584874D02*
X1986987D01*
G03X1986899Y1584853I-0J-197*
G01X1983548D02*
G03X1986899I1675J3355D01*
G01X1983548D02*
G03X1983460Y1584874I-88J-176D01*
G01X1982500*
X1980719Y1586655D02*
G03X1982500Y1584874I1781J-0D01*
G01X1980719Y1586655D02*
Y1595756D01*
X1982500Y1597537D02*
G03X1980719Y1595756I-0J-1781D01*
G01X1982500Y1597537D02*
X1983653D01*
G03X1983731Y1597553I-0J197*
G01X1986715D02*
G03X1983731I-1492J-3440D01*
G01X1986715D02*
G03X1986793Y1597537I78J181D01*
G01X1987726*
X1989508Y1595756D02*
G03X1987726Y1597537I-1782J-0D01*
G01X1973355Y1598210D02*
Y1586399D01*
X1972559Y1585602D02*
G03X1973355Y1586399I-0J797D01*
G01X1972559Y1585602D02*
X1965472D01*
X1964675Y1586399D02*
G03X1965472Y1585602I797J-0D01*
G01X1964675Y1586399D02*
Y1598210D01*
X1965472Y1599007D02*
G03X1964675Y1598210I-0J-797D01*
G01X1965472Y1599007D02*
X1972559D01*
X1973355Y1598210D02*
G03X1972559Y1599007I-796J-0D01*
G01X1961259Y1608989D02*
Y1606201D01*
X1960996Y1605568D02*
G03X1961259Y1606201I-633J633D01*
G01X1960996Y1605568D02*
X1959361Y1603932D01*
G03X1959303Y1603793I139J-139*
G01Y1596139*
X1958408Y1595244D02*
G03X1959303Y1596139I-0J895D01*
G01X1958408Y1595244D02*
X1955455D01*
X1954907Y1595431D02*
G03X1955455Y1595244I548J708D01*
G01X1954907Y1595431D02*
G03X1954741Y1595466I-120J-156D01*
G01X1954555Y1595444D02*
G03X1954741Y1595466I-0J797D01*
G01X1954555Y1595444D02*
X1953555D01*
X1952758Y1596241D02*
G03X1953555Y1595444I797J0D01*
G01X1952758Y1596241D02*
Y1598739D01*
G03X1952561Y1598936I-197J0*
G01X1951440*
X1951360Y1598938D02*
G03X1951440Y1598936I80J1779D01*
G01X1951360Y1598938D02*
G03X1951185Y1598636I-9J-197D01*
G01X1951308Y1598210D02*
G03X1951185Y1598636I-797J-0D01*
G01X1951308Y1598210D02*
Y1586399D01*
X1950511Y1585602D02*
G03X1951308Y1586399I0J797D01*
G01X1950511Y1585602D02*
X1943425D01*
X1942628Y1586399D02*
G03X1943425Y1585602I797J-0D01*
G01X1942628Y1586399D02*
Y1598210D01*
X1943425Y1599007D02*
G03X1942628Y1598210I-0J-797D01*
G01X1943425Y1599007D02*
X1950166D01*
G03X1950293Y1599354I0J196*
G01X1949658Y1600717D02*
G03X1950293Y1599354I1782J0D01*
G01X1949658Y1600717D02*
Y1603103D01*
G03X1949650Y1603159I-196J-0*
G01X1949672Y1604409D02*
G03X1949650Y1603159I1969J-660D01*
G01X1949672Y1604409D02*
G03X1949680Y1604440I-186J62D01*
G01X1951440Y1605943D02*
G03X1949680Y1604440I-0J-1781D01*
G01X1951440Y1605943D02*
X1953062D01*
X1953669Y1605837D02*
G03X1953062Y1605943I-607J-1675D01*
G01X1953669Y1605837D02*
G03X1953880Y1606156I67J185D01*
G01X1953640Y1606765D02*
G03X1953880Y1606156I896J0D01*
G01X1953640Y1606765D02*
Y1608989D01*
X1954536Y1609884D02*
G03X1953640Y1608989I-0J-895D01*
G01X1954536Y1609884D02*
X1960363D01*
X1961259Y1608989D02*
G03X1960363Y1609884I-896J-0D01*
G01X1939211Y1606465D02*
G03X1939211I-8121J0D01*
G01X2020146Y1615704D02*
X2077949D01*
X2020018Y1615349D02*
X2077949D01*
X2019889Y1614995D02*
X2077949D01*
X2019760Y1614641D02*
X2077949D01*
X2057370Y1614286D02*
X2077949D01*
X2057818Y1613932D02*
X2077949D01*
X2057928Y1613578D02*
X2077949D01*
X2057929Y1613223D02*
X2077949D01*
X2057929Y1612869D02*
X2077949D01*
X2057929Y1612515D02*
X2077949D01*
X2057929Y1612160D02*
X2077949D01*
X2057929Y1611806D02*
X2077949D01*
X2057929Y1611452D02*
X2077949D01*
X2057929Y1611097D02*
X2077949D01*
X2057929Y1610743D02*
X2077949D01*
X2057929Y1610389D02*
X2077949D01*
X2057929Y1610034D02*
X2077949D01*
X2057929Y1609680D02*
X2077949D01*
X2057929Y1609326D02*
X2077949D01*
X2057929Y1608971D02*
X2077949D01*
X2057929Y1608617D02*
X2077949D01*
X2057885Y1608263D02*
X2077949D01*
X2057636Y1607908D02*
X2077949D01*
X2046197Y1607554D02*
X2077949D01*
X2065113Y1607200D02*
X2077949D01*
X2065341Y1606845D02*
X2077949D01*
X2065378Y1606491D02*
X2077949D01*
X2065378Y1606137D02*
X2077949D01*
X2065378Y1605782D02*
X2077949D01*
X2065378Y1605428D02*
X2077949D01*
X2065378Y1605074D02*
X2077949D01*
X2065378Y1604719D02*
X2077949D01*
X2065341Y1604365D02*
X2077949D01*
X2065112Y1604011D02*
X2077949D01*
X2061679Y1603656D02*
X2077949D01*
X2069742Y1603302D02*
X2077949D01*
X2070802Y1602948D02*
X2077949D01*
X2071550Y1602593D02*
X2077949D01*
X2072147Y1602239D02*
X2077949D01*
X2072647Y1601885D02*
X2077949D01*
X2073077Y1601530D02*
X2077949D01*
X2073454Y1601176D02*
X2077949D01*
X2073787Y1600822D02*
X2077949D01*
X2074083Y1600467D02*
X2077949D01*
X2074347Y1600113D02*
X2077949D01*
X2074582Y1599759D02*
X2077949D01*
X2074792Y1599404D02*
X2077949D01*
X2074979Y1599050D02*
X2077949D01*
X2075144Y1598696D02*
X2077949D01*
X2075289Y1598341D02*
X2077949D01*
X2075416Y1597987D02*
X2077949D01*
X2075524Y1597633D02*
X2077949D01*
X2075614Y1597278D02*
X2077949D01*
X2075688Y1596924D02*
X2077949D01*
X2075746Y1596570D02*
X2077949D01*
X2075788Y1596215D02*
X2077949D01*
X2075814Y1595861D02*
X2077949D01*
X2075825Y1595507D02*
X2077949D01*
X2075820Y1595152D02*
X2077949D01*
X2075800Y1594798D02*
X2077949D01*
X2075764Y1594444D02*
X2077949D01*
X2075712Y1594089D02*
X2077949D01*
X2075644Y1593735D02*
X2077949D01*
X2075559Y1593381D02*
X2077949D01*
X2075458Y1593026D02*
X2077949D01*
X2075338Y1592672D02*
X2077949D01*
X2075200Y1592318D02*
X2077949D01*
X2075043Y1591963D02*
X2077949D01*
X2074864Y1591609D02*
X2077949D01*
X2074663Y1591255D02*
X2077949D01*
X2074437Y1590900D02*
X2077949D01*
X2074184Y1590546D02*
X2077949D01*
X2073900Y1590192D02*
X2077949D01*
X2073582Y1589837D02*
X2077949D01*
X2073223Y1589483D02*
X2077949D01*
X2072813Y1589129D02*
X2077949D01*
X2072342Y1588774D02*
X2077949D01*
X2071785Y1588420D02*
X2077949D01*
X2071103Y1588066D02*
X2077949D01*
X2070195Y1587711D02*
X2077949D01*
X2068479Y1587357D02*
X2077949D01*
X2038624Y1587003D02*
X2077949D01*
X2033620Y1586648D02*
X2077949D01*
X2033266Y1586294D02*
X2077949D01*
X2032912Y1585940D02*
X2077949D01*
X2032541Y1585585D02*
X2077949D01*
X2016269Y1585231D02*
X2077949D01*
X2014504Y1584877D02*
X2077949D01*
X2013475Y1584522D02*
X2077949D01*
X1922069Y1584168D02*
X2077931D01*
X2048953Y1587357D02*
X2066930D01*
X2061679Y1603302D02*
X2065666D01*
X2049125Y1587711D02*
X2065214D01*
X2061679Y1602948D02*
X2064606D01*
X2049142Y1588066D02*
X2064305D01*
X2061679Y1602593D02*
X2063858D01*
X2049142Y1588420D02*
X2063623D01*
X2061679Y1602239D02*
X2063262D01*
X2049142Y1588774D02*
X2063067D01*
X2061679Y1601885D02*
X2062762D01*
X2049142Y1589129D02*
X2062595D01*
X2061679Y1601530D02*
X2062331D01*
X2049142Y1589483D02*
X2062186D01*
X2061710Y1604011D02*
X2062051D01*
X2046197Y1607200D02*
X2062050D01*
X2049142Y1589837D02*
X2061826D01*
X2049075Y1590192D02*
X2061508D01*
X2048771Y1590546D02*
X2061224D01*
X2046854Y1600113D02*
X2061062D01*
X2047279Y1590900D02*
X2060971D01*
X2046854Y1599759D02*
X2060826D01*
X2046925Y1591255D02*
X2060745D01*
X2046762Y1599404D02*
X2060616D01*
X2046571Y1591609D02*
X2060544D01*
X2046385Y1599050D02*
X2060429D01*
X2046216Y1591963D02*
X2060366D01*
X2037336Y1598696D02*
X2060264D01*
X2045845Y1592318D02*
X2060208D01*
X2037336Y1598341D02*
X2060119D01*
X2044074Y1592672D02*
X2060070D01*
X2037336Y1597987D02*
X2059993D01*
X2043719Y1593026D02*
X2059951D01*
X2046197Y1606845D02*
X2059898D01*
X2037277Y1597633D02*
X2059885D01*
X2043365Y1593381D02*
X2059849D01*
X2036993Y1597278D02*
X2059794D01*
X2043104Y1593735D02*
X2059764D01*
X2032620Y1596924D02*
X2059720D01*
X2043104Y1594089D02*
X2059697D01*
X2042933Y1596570D02*
X2059662D01*
X2043104Y1594444D02*
X2059645D01*
X2043092Y1596215D02*
X2059620D01*
X2043104Y1594798D02*
X2059609D01*
X2043104Y1595861D02*
X2059594D01*
X2043104Y1595152D02*
X2059588D01*
X2043104Y1595507D02*
X2059584D01*
X2046197Y1606491D02*
X2059444D01*
X2046196Y1606137D02*
X2059090D01*
X2046104Y1605782D02*
X2058736D01*
X2053628Y1600467D02*
X2057037D01*
X2053904Y1605428D02*
X2056761D01*
X2054069Y1600822D02*
X2056595D01*
X2054140Y1605074D02*
X2056525D01*
X2054178Y1601176D02*
X2056487D01*
X2054179Y1604719D02*
X2056486D01*
X2054179Y1604365D02*
X2056486D01*
X2054179Y1604011D02*
X2056486D01*
X2054179Y1603656D02*
X2056486D01*
X2054179Y1603302D02*
X2056486D01*
X2054179Y1602948D02*
X2056486D01*
X2054179Y1602593D02*
X2056486D01*
X2054179Y1602239D02*
X2056486D01*
X2054179Y1601885D02*
X2056486D01*
X2054179Y1601530D02*
X2056486D01*
X2046219Y1614286D02*
X2053295D01*
X2046197Y1607908D02*
X2053028D01*
X2046668Y1613932D02*
X2052847D01*
X2046192Y1608263D02*
X2052780D01*
X2046941Y1613578D02*
X2052737D01*
X2047114Y1613223D02*
X2052736D01*
X2049941Y1612869D02*
X2052736D01*
X2040958Y1609326D02*
X2052736D01*
X2040879Y1608971D02*
X2052736D01*
X2046060Y1608617D02*
X2052736D01*
X2050532Y1612515D02*
X2052711D01*
X2040967Y1609680D02*
X2049721D01*
X2046854Y1600467D02*
X2049537D01*
X2046516Y1605428D02*
X2049261D01*
X2046903Y1600822D02*
X2049095D01*
X2046676Y1610034D02*
X2049089D01*
X2046797Y1605074D02*
X2049025D01*
X2047868Y1601176D02*
X2048987D01*
X2046854Y1604719D02*
X2048986D01*
X2048239Y1601530D02*
X2048964D01*
X2046868Y1604365D02*
X2047410D01*
X2039005Y1587357D02*
X2045737D01*
X2039099Y1587711D02*
X2045565D01*
X2039099Y1588420D02*
X2045548D01*
X2039099Y1588066D02*
X2045548D01*
X2039099Y1588774D02*
X2045481D01*
X2039099Y1589129D02*
X2045127D01*
X2039099Y1589483D02*
X2044772D01*
X2019631Y1614286D02*
X2044122D01*
X2019502Y1613932D02*
X2043672D01*
X2039092Y1589837D02*
X2043406D01*
X2019374Y1613578D02*
X2043399D01*
X2041139Y1613223D02*
X2043226D01*
X2041361Y1610034D02*
X2043107D01*
X2041476Y1612869D02*
X2042992D01*
X2041537Y1610389D02*
X2042931D01*
X2041555Y1612515D02*
X2042914D01*
X2041555Y1612160D02*
X2042914D01*
X2041555Y1611806D02*
X2042914D01*
X2041555Y1611452D02*
X2042914D01*
X2041555Y1611097D02*
X2042914D01*
X2041555Y1610743D02*
X2042914D01*
X2041060Y1608617D02*
X2042740D01*
X2041096Y1605782D02*
X2042687D01*
X2038952Y1590192D02*
X2042632D01*
X2041192Y1608263D02*
X2042609D01*
X2041196Y1606137D02*
X2042604D01*
X2041197Y1607908D02*
X2042603D01*
X2041197Y1607554D02*
X2042603D01*
X2041197Y1607200D02*
X2042603D01*
X2041197Y1606845D02*
X2042603D01*
X2041197Y1606491D02*
X2042603D01*
X2038767Y1590546D02*
X2042276D01*
X2037336Y1599050D02*
X2042130D01*
X2040690Y1605428D02*
X2041999D01*
X2039094Y1590900D02*
X2041921D01*
X2037336Y1599404D02*
X2041753D01*
X2039266Y1605074D02*
X2041718D01*
X2037336Y1599759D02*
X2041661D01*
X2038911Y1604719D02*
X2041661D01*
X2038557Y1604365D02*
X2041661D01*
X2038203Y1604011D02*
X2041661D01*
X2037848Y1603656D02*
X2041661D01*
X2037494Y1603302D02*
X2041661D01*
X2037140Y1602948D02*
X2041661D01*
X2036926Y1602593D02*
X2041661D01*
X2036926Y1602239D02*
X2041661D01*
X2036926Y1601885D02*
X2041661D01*
X2036926Y1601530D02*
X2041661D01*
X2036926Y1601176D02*
X2041661D01*
X2036926Y1600822D02*
X2041661D01*
X2037130Y1600467D02*
X2041661D01*
X2037315Y1600113D02*
X2041661D01*
X2039448Y1591255D02*
X2041567D01*
X2039802Y1591609D02*
X2041213D01*
X2026010Y1596570D02*
X2038082D01*
X2026649Y1609680D02*
X2038071D01*
X2019245Y1613223D02*
X2038014D01*
X2026649Y1609326D02*
X2038014D01*
X2026649Y1608971D02*
X2038013D01*
X2029843Y1596215D02*
X2037923D01*
X2030040Y1595861D02*
X2037911D01*
X2037092Y1595507D02*
X2037911D01*
X2037305Y1595152D02*
X2037911D01*
X2037336Y1594798D02*
X2037911D01*
X2037336Y1594444D02*
X2037911D01*
X2037336Y1594089D02*
X2037911D01*
X2037336Y1593735D02*
X2037911D01*
X2026810Y1610034D02*
X2037792D01*
X2026649Y1608617D02*
X2037740D01*
X2025803Y1612869D02*
X2037677D01*
X2037420Y1593381D02*
X2037645D01*
X2026946Y1610389D02*
X2037616D01*
X2026649Y1608263D02*
X2037609D01*
X2026649Y1607908D02*
X2037603D01*
X2026649Y1607554D02*
X2037603D01*
X2026317Y1612515D02*
X2037599D01*
X2026638Y1612160D02*
X2037599D01*
X2026842Y1611806D02*
X2037599D01*
X2026964Y1611452D02*
X2037599D01*
X2027020Y1611097D02*
X2037599D01*
X2027014Y1610743D02*
X2037599D01*
X2026649Y1607200D02*
X2037468D01*
X2026649Y1606845D02*
X2037113D01*
X2026649Y1606491D02*
X2036759D01*
X2033495Y1606137D02*
X2036405D01*
X2033755Y1605782D02*
X2036050D01*
X2033975Y1587003D02*
X2035980D01*
X2033805Y1605428D02*
X2035696D01*
X2033805Y1605074D02*
X2035342D01*
X2033805Y1604719D02*
X2034987D01*
X2033805Y1604365D02*
X2034633D01*
X2033805Y1604011D02*
X2034342D01*
X2033808Y1603656D02*
X2034196D01*
X2033351Y1597278D02*
X2034085D01*
X2026174Y1596924D02*
X2031573D01*
X2030072Y1600822D02*
X2030951D01*
X2026529Y1597278D02*
X2030843D01*
X2029718Y1600467D02*
X2030697D01*
X2026883Y1597633D02*
X2030478D01*
X2029363Y1600113D02*
X2030388D01*
X2027237Y1597987D02*
X2030248D01*
X2029009Y1599759D02*
X2030191D01*
X2027592Y1598341D02*
X2030106D01*
X2028655Y1599404D02*
X2030074D01*
X2027946Y1598696D02*
X2030034D01*
X2028300Y1599050D02*
X2030024D01*
X2026649Y1606137D02*
X2028978D01*
X2026649Y1605782D02*
X2028717D01*
X2026649Y1605428D02*
X2028668D01*
X2026649Y1605074D02*
X2028668D01*
X2026649Y1604719D02*
X2028668D01*
X2026649Y1604365D02*
X2028668D01*
X2026649Y1604011D02*
X2028668D01*
X2026649Y1603656D02*
X2028668D01*
X2026649Y1603302D02*
X2028668D01*
X2026641Y1602948D02*
X2028668D01*
X2026570Y1602593D02*
X2028668D01*
X2026417Y1602239D02*
X2028387D01*
X2026325Y1601885D02*
X2028032D01*
X2026289Y1601530D02*
X2027678D01*
X2026064Y1601176D02*
X2027324D01*
X2014737Y1600822D02*
X2026969D01*
X2014609Y1600467D02*
X2026615D01*
X2014480Y1600113D02*
X2026261D01*
X2014351Y1599759D02*
X2025906D01*
X2014193Y1599404D02*
X2025552D01*
X1959303Y1599050D02*
X2025198D01*
X1973190Y1598696D02*
X2024843D01*
X1973344Y1598341D02*
X2024489D01*
X1973355Y1597987D02*
X2024135D01*
X2015956Y1597633D02*
X2023780D01*
X2019116Y1612869D02*
X2023620D01*
X2016686Y1597278D02*
X2023426D01*
X2018987Y1612515D02*
X2023205D01*
X2017018Y1596924D02*
X2023141D01*
X2017212Y1596570D02*
X2023025D01*
X2017316Y1596215D02*
X2023014D01*
X2017345Y1595861D02*
X2023014D01*
X2017345Y1595507D02*
X2023014D01*
X2017345Y1595152D02*
X2023014D01*
X2017345Y1594798D02*
X2023014D01*
X2017345Y1594444D02*
X2023014D01*
X2017345Y1594089D02*
X2023014D01*
X2017345Y1593735D02*
X2023014D01*
X2017345Y1593381D02*
X2023014D01*
X2017345Y1593026D02*
X2023014D01*
X2017359Y1592672D02*
X2023014D01*
X2018308Y1592318D02*
X2023014D01*
X2018702Y1591963D02*
X2023014D01*
X2019056Y1591609D02*
X2023014D01*
X2019410Y1591255D02*
X2023014D01*
X2018858Y1612160D02*
X2022968D01*
X2018730Y1611806D02*
X2022833D01*
X2019765Y1590900D02*
X2022830D01*
X2018601Y1611452D02*
X2022777D01*
X2018472Y1611097D02*
X2022775D01*
X2018343Y1610743D02*
X2022775D01*
X2018215Y1610389D02*
X2022775D01*
X2018086Y1610034D02*
X2022775D01*
X2017957Y1609680D02*
X2022775D01*
X2017828Y1609326D02*
X2022775D01*
X2017699Y1608971D02*
X2022775D01*
X2017571Y1608617D02*
X2022775D01*
X2017442Y1608263D02*
X2022775D01*
X2017313Y1607908D02*
X2022775D01*
X2017184Y1607554D02*
X2022775D01*
X2017055Y1607200D02*
X2022775D01*
X2016927Y1606845D02*
X2022775D01*
X2016798Y1606491D02*
X2022775D01*
X2020119Y1590546D02*
X2022417D01*
X2020473Y1590192D02*
X2022315D01*
X2020828Y1589837D02*
X2022314D01*
X2021182Y1589483D02*
X2022314D01*
X2021536Y1589129D02*
X2022314D01*
X2021891Y1588774D02*
X2022307D01*
X2016669Y1606137D02*
X2021498D01*
X2014866Y1601176D02*
X2021449D01*
X2016540Y1605782D02*
X2021237D01*
X2014995Y1601530D02*
X2021224D01*
X2016412Y1605428D02*
X2021188D01*
X2016283Y1605074D02*
X2021188D01*
X2016154Y1604719D02*
X2021188D01*
X2016025Y1604365D02*
X2021188D01*
X2015896Y1604011D02*
X2021188D01*
X2015768Y1603656D02*
X2021188D01*
X2015639Y1603302D02*
X2021188D01*
X2015510Y1602948D02*
X2021188D01*
X2015381Y1602593D02*
X2021188D01*
X2015253Y1602239D02*
X2021188D01*
X2015124Y1601885D02*
X2021188D01*
X2016801Y1585585D02*
X2021171D01*
X2017085Y1585940D02*
X2020801D01*
X2017250Y1586294D02*
X2020447D01*
X2017331Y1586648D02*
X2020092D01*
X2017345Y1587003D02*
X2019738D01*
X2017345Y1587357D02*
X2019384D01*
X2017345Y1587711D02*
X2019029D01*
X2017345Y1588066D02*
X2018675D01*
X2017345Y1588420D02*
X2018321D01*
X2017345Y1588774D02*
X2017966D01*
X1999695Y1584522D02*
X2012090D01*
X2000725Y1584877D02*
X2011060D01*
X2002341Y1597633D02*
X2009945D01*
X2002655Y1585231D02*
X2009632D01*
X2003071Y1597278D02*
X2009215D01*
X2003187Y1585585D02*
X2009100D01*
X2003403Y1596924D02*
X2008883D01*
X2003470Y1585940D02*
X2008816D01*
X2003598Y1596570D02*
X2008689D01*
X2003636Y1586294D02*
X2008650D01*
X2003701Y1596215D02*
X2008585D01*
X2003717Y1586648D02*
X2008569D01*
X2003730Y1595861D02*
X2008556D01*
X2003730Y1595507D02*
X2008556D01*
X2003730Y1595152D02*
X2008556D01*
X2003730Y1594798D02*
X2008556D01*
X2003730Y1594444D02*
X2008556D01*
X2003730Y1594089D02*
X2008556D01*
X2003730Y1593735D02*
X2008556D01*
X2003730Y1593381D02*
X2008556D01*
X2003730Y1593026D02*
X2008556D01*
X2003730Y1592672D02*
X2008556D01*
X2003730Y1592318D02*
X2008556D01*
X2003730Y1591963D02*
X2008556D01*
X2003730Y1591609D02*
X2008556D01*
X2003730Y1591255D02*
X2008556D01*
X2003730Y1590900D02*
X2008556D01*
X2003730Y1590546D02*
X2008556D01*
X2003730Y1590192D02*
X2008556D01*
X2003730Y1589837D02*
X2008556D01*
X2003730Y1589483D02*
X2008556D01*
X2003730Y1589129D02*
X2008556D01*
X2003730Y1588774D02*
X2008556D01*
X2003730Y1588420D02*
X2008556D01*
X2003730Y1588066D02*
X2008556D01*
X2003730Y1587711D02*
X2008556D01*
X2003730Y1587357D02*
X2008556D01*
X2003730Y1587003D02*
X2008556D01*
X1985916Y1584522D02*
X1998310D01*
X1987829Y1584877D02*
X1997281D01*
X1986516Y1597633D02*
X1996331D01*
X1988797Y1585231D02*
X1996017D01*
X1988651Y1597278D02*
X1995600D01*
X1989151Y1585585D02*
X1995485D01*
X1989071Y1596924D02*
X1995269D01*
X1989358Y1585940D02*
X1995202D01*
X1989311Y1596570D02*
X1995074D01*
X1989471Y1586294D02*
X1995036D01*
X1989447Y1596215D02*
X1994970D01*
X1989508Y1586648D02*
X1994955D01*
X1989504Y1595861D02*
X1994941D01*
X1989508Y1595507D02*
X1994941D01*
X1989508Y1595152D02*
X1994941D01*
X1989508Y1594798D02*
X1994941D01*
X1989508Y1594444D02*
X1994941D01*
X1989508Y1594089D02*
X1994941D01*
X1989508Y1593735D02*
X1994941D01*
X1989508Y1593381D02*
X1994941D01*
X1989508Y1593026D02*
X1994941D01*
X1989508Y1592672D02*
X1994941D01*
X1989508Y1592318D02*
X1994941D01*
X1989508Y1591963D02*
X1994941D01*
X1989508Y1591609D02*
X1994941D01*
X1989508Y1591255D02*
X1994941D01*
X1989508Y1590900D02*
X1994941D01*
X1989508Y1590546D02*
X1994941D01*
X1989508Y1590192D02*
X1994941D01*
X1989508Y1589837D02*
X1994941D01*
X1989508Y1589483D02*
X1994941D01*
X1989508Y1589129D02*
X1994941D01*
X1989508Y1588774D02*
X1994941D01*
X1989508Y1588420D02*
X1994941D01*
X1989508Y1588066D02*
X1994941D01*
X1989508Y1587711D02*
X1994941D01*
X1989508Y1587357D02*
X1994941D01*
X1989508Y1587003D02*
X1994941D01*
X1959303Y1599404D02*
X1985792D01*
X1959303Y1599759D02*
X1985634D01*
X1959303Y1600113D02*
X1985505D01*
X1959303Y1600467D02*
X1985375D01*
X1959303Y1600822D02*
X1985246D01*
X1959303Y1601176D02*
X1985116D01*
X1959303Y1601530D02*
X1984987D01*
X1959303Y1601885D02*
X1984857D01*
X1959303Y1602239D02*
X1984728D01*
X1959303Y1602593D02*
X1984598D01*
X1922051Y1584522D02*
X1984531D01*
X1959303Y1602948D02*
X1984469D01*
X1959303Y1603302D02*
X1984339D01*
X1959303Y1603656D02*
X1984210D01*
X1959439Y1604011D02*
X1984080D01*
X1959793Y1604365D02*
X1983951D01*
X1973355Y1597633D02*
X1983930D01*
X1960148Y1604719D02*
X1983821D01*
X1960502Y1605074D02*
X1983692D01*
X1960856Y1605428D02*
X1983562D01*
X1961155Y1605782D02*
X1983433D01*
X1961256Y1606137D02*
X1983304D01*
X1961259Y1606491D02*
X1983174D01*
X1961259Y1606845D02*
X1983045D01*
X1961259Y1607200D02*
X1982915D01*
X1961259Y1607554D02*
X1982786D01*
X1961259Y1607908D02*
X1982656D01*
X1961259Y1608263D02*
X1982527D01*
X1922051Y1584877D02*
X1982397D01*
X1961259Y1608617D02*
X1982397D01*
X1961259Y1608971D02*
X1982268D01*
X1961193Y1609326D02*
X1982138D01*
X1960933Y1609680D02*
X1982009D01*
X1938384Y1610034D02*
X1981879D01*
X1938200Y1610389D02*
X1981750D01*
X1937993Y1610743D02*
X1981620D01*
X1973355Y1597278D02*
X1981576D01*
X1937760Y1611097D02*
X1981491D01*
X1922051Y1585231D02*
X1981430D01*
X1937499Y1611452D02*
X1981362D01*
X1937207Y1611806D02*
X1981232D01*
X1973355Y1596924D02*
X1981155D01*
X1936879Y1612160D02*
X1981103D01*
X1922051Y1585585D02*
X1981075D01*
X1936507Y1612515D02*
X1980973D01*
X1973355Y1596570D02*
X1980916D01*
X1973210Y1585940D02*
X1980869D01*
X1936083Y1612869D02*
X1980844D01*
X1973355Y1596215D02*
X1980779D01*
X1973349Y1586294D02*
X1980756D01*
X1973355Y1595861D02*
X1980722D01*
X1973355Y1586648D02*
X1980719D01*
X1973355Y1595507D02*
X1980719D01*
X1973355Y1595152D02*
X1980719D01*
X1973355Y1594798D02*
X1980719D01*
X1973355Y1594444D02*
X1980719D01*
X1973355Y1594089D02*
X1980719D01*
X1973355Y1593735D02*
X1980719D01*
X1973355Y1593381D02*
X1980719D01*
X1973355Y1593026D02*
X1980719D01*
X1973355Y1592672D02*
X1980719D01*
X1973355Y1592318D02*
X1980719D01*
X1973355Y1591963D02*
X1980719D01*
X1973355Y1591609D02*
X1980719D01*
X1973355Y1591255D02*
X1980719D01*
X1973355Y1590900D02*
X1980719D01*
X1973355Y1590546D02*
X1980719D01*
X1973355Y1590192D02*
X1980719D01*
X1973355Y1589837D02*
X1980719D01*
X1973355Y1589483D02*
X1980719D01*
X1973355Y1589129D02*
X1980719D01*
X1973355Y1588774D02*
X1980719D01*
X1973355Y1588420D02*
X1980719D01*
X1973355Y1588066D02*
X1980719D01*
X1973355Y1587711D02*
X1980719D01*
X1973355Y1587357D02*
X1980719D01*
X1973355Y1587003D02*
X1980719D01*
X1935592Y1613223D02*
X1980714D01*
X1935008Y1613578D02*
X1980585D01*
X1934282Y1613932D02*
X1980455D01*
X1933274Y1614286D02*
X1980326D01*
X1922051Y1614641D02*
X1980196D01*
X1922051Y1614995D02*
X1980067D01*
X1922051Y1615349D02*
X1979937D01*
X1922051Y1615704D02*
X1979808D01*
X1959303Y1598696D02*
X1964840D01*
X1951163Y1585940D02*
X1964821D01*
X1959303Y1598341D02*
X1964686D01*
X1951301Y1586294D02*
X1964682D01*
X1959303Y1597987D02*
X1964675D01*
X1959303Y1597633D02*
X1964675D01*
X1959303Y1597278D02*
X1964675D01*
X1959303Y1596924D02*
X1964675D01*
X1959303Y1596570D02*
X1964675D01*
X1959303Y1596215D02*
X1964675D01*
X1959259Y1595861D02*
X1964675D01*
X1959041Y1595507D02*
X1964675D01*
X1951308Y1595152D02*
X1964675D01*
X1951308Y1594798D02*
X1964675D01*
X1951308Y1594444D02*
X1964675D01*
X1951308Y1594089D02*
X1964675D01*
X1951308Y1593735D02*
X1964675D01*
X1951308Y1593381D02*
X1964675D01*
X1951308Y1593026D02*
X1964675D01*
X1951308Y1592672D02*
X1964675D01*
X1951308Y1592318D02*
X1964675D01*
X1951308Y1591963D02*
X1964675D01*
X1951308Y1591609D02*
X1964675D01*
X1951308Y1591255D02*
X1964675D01*
X1951308Y1590900D02*
X1964675D01*
X1951308Y1590546D02*
X1964675D01*
X1951308Y1590192D02*
X1964675D01*
X1951308Y1589837D02*
X1964675D01*
X1951308Y1589483D02*
X1964675D01*
X1951308Y1589129D02*
X1964675D01*
X1951308Y1588774D02*
X1964675D01*
X1951308Y1588420D02*
X1964675D01*
X1951308Y1588066D02*
X1964675D01*
X1951308Y1587711D02*
X1964675D01*
X1951308Y1587357D02*
X1964675D01*
X1951308Y1587003D02*
X1964675D01*
X1951308Y1586648D02*
X1964675D01*
X1938547Y1609680D02*
X1953967D01*
X1939204Y1606137D02*
X1953896D01*
X1938690Y1609326D02*
X1953706D01*
X1939211Y1606491D02*
X1953684D01*
X1938814Y1608971D02*
X1953640D01*
X1938920Y1608617D02*
X1953640D01*
X1939009Y1608263D02*
X1953640D01*
X1939082Y1607908D02*
X1953640D01*
X1939137Y1607554D02*
X1953640D01*
X1939178Y1607200D02*
X1953640D01*
X1939202Y1606845D02*
X1953640D01*
X1951308Y1595507D02*
X1953246D01*
X1951308Y1595861D02*
X1952854D01*
X1951308Y1596215D02*
X1952758D01*
X1951160Y1598696D02*
X1952758D01*
X1951297Y1598341D02*
X1952758D01*
X1951308Y1597987D02*
X1952758D01*
X1951308Y1597633D02*
X1952758D01*
X1951308Y1597278D02*
X1952758D01*
X1951308Y1596924D02*
X1952758D01*
X1951308Y1596570D02*
X1952758D01*
X1939182Y1605782D02*
X1950699D01*
X1934402Y1599050D02*
X1950289D01*
X1935103Y1599404D02*
X1950236D01*
X1939144Y1605428D02*
X1950186D01*
X1935670Y1599759D02*
X1949938D01*
X1939091Y1605074D02*
X1949909D01*
X1936150Y1600113D02*
X1949764D01*
X1939021Y1604719D02*
X1949748D01*
X1936566Y1600467D02*
X1949676D01*
X1938410Y1602948D02*
X1949658D01*
X1938229Y1602593D02*
X1949658D01*
X1938025Y1602239D02*
X1949658D01*
X1937796Y1601885D02*
X1949658D01*
X1937540Y1601530D02*
X1949658D01*
X1937253Y1601176D02*
X1949658D01*
X1936930Y1600822D02*
X1949658D01*
X1938935Y1604365D02*
X1949658D01*
X1938570Y1603302D02*
X1949613D01*
X1938831Y1604011D02*
X1949581D01*
X1938710Y1603656D02*
X1949567D01*
X1933455Y1598696D02*
X1942793D01*
X1922051Y1585940D02*
X1942773D01*
X1922051Y1598341D02*
X1942639D01*
X1922051Y1586294D02*
X1942635D01*
X1922051Y1597987D02*
X1942628D01*
X1922051Y1597633D02*
X1942628D01*
X1922051Y1597278D02*
X1942628D01*
X1922051Y1596924D02*
X1942628D01*
X1922051Y1596570D02*
X1942628D01*
X1922051Y1596215D02*
X1942628D01*
X1922051Y1595861D02*
X1942628D01*
X1922051Y1595507D02*
X1942628D01*
X1922051Y1595152D02*
X1942628D01*
X1922051Y1594798D02*
X1942628D01*
X1922051Y1594444D02*
X1942628D01*
X1922051Y1594089D02*
X1942628D01*
X1922051Y1593735D02*
X1942628D01*
X1922051Y1593381D02*
X1942628D01*
X1922051Y1593026D02*
X1942628D01*
X1922051Y1592672D02*
X1942628D01*
X1922051Y1592318D02*
X1942628D01*
X1922051Y1591963D02*
X1942628D01*
X1922051Y1591609D02*
X1942628D01*
X1922051Y1591255D02*
X1942628D01*
X1922051Y1590900D02*
X1942628D01*
X1922051Y1590546D02*
X1942628D01*
X1922051Y1590192D02*
X1942628D01*
X1922051Y1589837D02*
X1942628D01*
X1922051Y1589483D02*
X1942628D01*
X1922051Y1589129D02*
X1942628D01*
X1922051Y1588774D02*
X1942628D01*
X1922051Y1588420D02*
X1942628D01*
X1922051Y1588066D02*
X1942628D01*
X1922051Y1587711D02*
X1942628D01*
X1922051Y1587357D02*
X1942628D01*
X1922051Y1587003D02*
X1942628D01*
X1922051Y1586648D02*
X1942628D01*
X1922051Y1614286D02*
X1928906D01*
X1922051Y1598696D02*
X1928725D01*
X1922051Y1613932D02*
X1927898D01*
X1922051Y1599050D02*
X1927777D01*
X1922051Y1613578D02*
X1927172D01*
X1922051Y1599404D02*
X1927077D01*
X1922051Y1613223D02*
X1926588D01*
X1922051Y1599759D02*
X1926510D01*
X1922051Y1612869D02*
X1926097D01*
X1922051Y1600113D02*
X1926030D01*
X1922051Y1612515D02*
X1925673D01*
X1922051Y1600467D02*
X1925614D01*
X1922051Y1612160D02*
X1925301D01*
X1922051Y1600822D02*
X1925250D01*
X1922051Y1611806D02*
X1924973D01*
X1922051Y1601176D02*
X1924927D01*
X1922051Y1611452D02*
X1924681D01*
X1922051Y1601530D02*
X1924640D01*
X1922051Y1611097D02*
X1924420D01*
X1922051Y1601885D02*
X1924384D01*
X1922051Y1610743D02*
X1924187D01*
X1922051Y1602239D02*
X1924155D01*
X1922051Y1610389D02*
X1923980D01*
X1922051Y1602593D02*
X1923951D01*
X1922051Y1610034D02*
X1923796D01*
X1922051Y1602948D02*
X1923770D01*
X1922051Y1609680D02*
X1923633D01*
X1922051Y1603302D02*
X1923610D01*
X1922051Y1609326D02*
X1923490D01*
X1922051Y1603656D02*
X1923470D01*
X1922051Y1608971D02*
X1923366D01*
X1922051Y1604011D02*
X1923349D01*
X1922051Y1608617D02*
X1923260D01*
X1922051Y1604365D02*
X1923245D01*
X1922051Y1608263D02*
X1923171D01*
X1922051Y1604719D02*
X1923159D01*
X1922051Y1607908D02*
X1923098D01*
X1922051Y1605074D02*
X1923089D01*
X1922051Y1607554D02*
X1923042D01*
X1922051Y1605428D02*
X1923036D01*
X1922051Y1607200D02*
X1923002D01*
X1922051Y1605782D02*
X1922998D01*
X1922051Y1606845D02*
X1922978D01*
X1922051Y1606137D02*
X1922976D01*
X1922051Y1606491D02*
X1922969D01*
X1921282Y1616706D02*
X1980290D01*
X1986445Y1599862*
X2013541*
X2019677Y1616745*
X2078746*
Y1583255*
X1921254*
Y1616718*
X1921282*
Y1616706*
X2072035Y1595441D02*
G03X2072035I-4331J0D01*
G01X1935421Y1606465D02*
G03X1935421I-4331J0D01*
G54D52*
G01X2024731Y1607859D03*
X2028331D03*
G54D54*
X2059082Y1603026D03*
X2051582D03*
X2048007Y1594276D03*
X2040507D03*
G54D55*
X2055332Y1611026D03*
X2044257Y1602276D03*
G54D162*
X2031236Y1603636D03*
X2023756D03*
X2027496Y1593794D03*
G54D179*
X1958408Y1596139D02*
Y1604245D01*
X1960363Y1606201*
Y1608989*
X1954536*
Y1606765*
X1955455Y1605847*
Y1596139*
X1958408*
X1954536Y1608934D02*
X1960363D01*
X1954536Y1608738D02*
X1960363D01*
X1954536Y1608541D02*
X1960363D01*
X1954536Y1608344D02*
X1960363D01*
X1954536Y1608147D02*
X1960363D01*
X1954536Y1607950D02*
X1960363D01*
X1954536Y1607753D02*
X1960363D01*
X1954536Y1607557D02*
X1960363D01*
X1954536Y1607360D02*
X1960363D01*
X1954536Y1607163D02*
X1960363D01*
X1954536Y1606966D02*
X1960363D01*
X1954536Y1606769D02*
X1960363D01*
X1954729Y1606572D02*
X1960363D01*
X1954926Y1606375D02*
X1960363D01*
X1955123Y1606179D02*
X1960341D01*
X1955320Y1605982D02*
X1960144D01*
X1955455Y1605785D02*
X1959947D01*
X1955455Y1605588D02*
X1959750D01*
X1955455Y1605391D02*
X1959553D01*
X1955455Y1605194D02*
X1959357D01*
X1955455Y1604997D02*
X1959160D01*
X1955455Y1604801D02*
X1958963D01*
X1955455Y1604604D02*
X1958766D01*
X1955455Y1604407D02*
X1958569D01*
X1955455Y1604210D02*
X1958408D01*
X1955455Y1604013D02*
X1958408D01*
X1955455Y1603816D02*
X1958408D01*
X1955455Y1603620D02*
X1958408D01*
X1955455Y1603423D02*
X1958408D01*
X1955455Y1603226D02*
X1958408D01*
X1955455Y1603029D02*
X1958408D01*
X1955455Y1602832D02*
X1958408D01*
X1955455Y1602635D02*
X1958408D01*
X1955455Y1602438D02*
X1958408D01*
X1955455Y1602242D02*
X1958408D01*
X1955455Y1602045D02*
X1958408D01*
X1955455Y1601848D02*
X1958408D01*
X1955455Y1601651D02*
X1958408D01*
X1955455Y1601454D02*
X1958408D01*
X1955455Y1601257D02*
X1958408D01*
X1955455Y1601060D02*
X1958408D01*
X1955455Y1600864D02*
X1958408D01*
X1955455Y1600667D02*
X1958408D01*
X1955455Y1600470D02*
X1958408D01*
X1955455Y1600273D02*
X1958408D01*
X1955455Y1600076D02*
X1958408D01*
X1955455Y1599879D02*
X1958408D01*
X1955455Y1599683D02*
X1958408D01*
X1955455Y1599486D02*
X1958408D01*
X1955455Y1599289D02*
X1958408D01*
X1955455Y1599092D02*
X1958408D01*
X1955455Y1598895D02*
X1958408D01*
X1955455Y1598698D02*
X1958408D01*
X1955455Y1598501D02*
X1958408D01*
X1955455Y1598305D02*
X1958408D01*
X1955455Y1598108D02*
X1958408D01*
X1955455Y1597911D02*
X1958408D01*
X1955455Y1597714D02*
X1958408D01*
X1955455Y1597517D02*
X1958408D01*
X1955455Y1597320D02*
X1958408D01*
X1955455Y1597123D02*
X1958408D01*
X1955455Y1596927D02*
X1958408D01*
X1955455Y1596730D02*
X1958408D01*
X1955455Y1596533D02*
X1958408D01*
X1955455Y1596336D02*
X1958408D01*
X1954668Y1606634D02*
Y1608989D01*
X1954864Y1606437D02*
Y1608989D01*
X1955061Y1606240D02*
Y1608989D01*
X1955258Y1606043D02*
Y1608989D01*
X1955455Y1596139D02*
Y1608989D01*
X1955652Y1596139D02*
Y1608989D01*
X1955849Y1596139D02*
Y1608989D01*
X1956046Y1596139D02*
Y1608989D01*
X1956242Y1596139D02*
Y1608989D01*
X1956439Y1596139D02*
Y1608989D01*
X1956636Y1596139D02*
Y1608989D01*
X1956833Y1596139D02*
Y1608989D01*
X1957030Y1596139D02*
Y1608989D01*
X1957227Y1596139D02*
Y1608989D01*
X1957423Y1596139D02*
Y1608989D01*
X1957620Y1596139D02*
Y1608989D01*
X1957817Y1596139D02*
Y1608989D01*
X1958014Y1596139D02*
Y1608989D01*
X1958211Y1596139D02*
Y1608989D01*
X1958408Y1604245D02*
Y1608989D01*
X1958605Y1604442D02*
Y1608989D01*
X1958801Y1604639D02*
Y1608989D01*
X1958998Y1604836D02*
Y1608989D01*
X1959195Y1605033D02*
Y1608989D01*
X1959392Y1605230D02*
Y1608989D01*
X1959589Y1605427D02*
Y1608989D01*
X1959786Y1605623D02*
Y1608989D01*
X1959983Y1605820D02*
Y1608989D01*
X1960179Y1606017D02*
Y1608989D01*
G54D192*
X1954055Y1600178D03*
G54D193*
X1956023D03*
X1957992D03*
X1959960D03*
X1961929D03*
G54D194*
X1946968Y1592304D03*
X1969015D03*
G54D195*
X1957992Y1600178D02*
Y1604686D01*
X1958858Y1605553*
Y1607403*
X1955971Y1607494D02*
Y1605191D01*
X1955971D02*
X1956023Y1605139D01*
Y1602894*
G54D207*
X1985223Y1591160D03*
X1999003D03*
X2012782D03*
G54D208*
X2044892Y1611539D03*
X2039577D03*
G54D209*
X1924370Y1588452D03*
X1929195Y1588546D03*
X1934020Y1588641D03*
X1938845Y1588735D03*
X1955183Y1588614D03*
X1961586Y1588670D03*
X1976523Y1588591D03*
X1976129Y1593434D03*
X1986129Y1590953D03*
X1999476Y1588001D03*
X2028688Y1589300D03*
X2052020Y1593616D03*
X2056956Y1587686D03*
X2056667Y1593591D03*
X2064762Y1585735D03*
X2076269Y1585799D03*
X1924316Y1595718D03*
X1929195Y1595736D03*
X1941169Y1601623D03*
X1938954Y1595773D03*
X1934074Y1595755D03*
X1951641Y1603749D03*
X1945817Y1601888D03*
X2019200Y1604497D03*
X2032097Y1598933D03*
X2052096Y1598549D03*
X2056667Y1598472D03*
X2076208Y1603591D03*
X1923264Y1613434D03*
X1941312Y1613474D03*
X1952563Y1613415D03*
X1946937Y1613444D03*
X1943531Y1605560D03*
X1958858Y1607403D03*
X1955971Y1607494D03*
X1958189Y1613385D03*
X1969440Y1613326D03*
X1963814Y1613356D03*
X1979043Y1607371D03*
X1975066Y1613297D03*
X2020460Y1609142D03*
X2021854Y1614045D03*
X2024948Y1610953D03*
X2031917Y1611426D03*
X2028177Y1614260D03*
X2045170Y1612494D03*
X2050263Y1614221D03*
X2047097Y1608979D03*
X2068334Y1614457D03*
X2072091Y1606054D03*
X2072270Y1610787D03*
X2067987Y1610769D03*
X2073019Y1614103D03*
X2076552Y1610805D03*
G54D212*
X2024111Y1589155D02*
Y1596412D01*
X2031236Y1603537*
Y1603636*
X1956023Y1600178D02*
Y1602894D01*
X2023756Y1603636D02*
X2024769D01*
X2024731Y1607859D02*
X2024785D01*
Y1610953*
X2024948*
X2063581Y1610606D02*
X2065581D01*
X2065970Y1610994*
X2068107*
G74*
X0Y0D02*
M02*
