*
*
G04 PADS 9.5 Build Number: 522968 generated Gerber (RS-274-X) file*
G04 PC Version=2.1*
*
%IN "AD5420_POWER_V1.6.pcb"*%
*
%MOIN*%
*
%FSLAX35Y35*%
*
*
*
*
G04 PC Standard Apertures*
*
*
G04 Thermal Relief Aperture macro.*
%AMTER*
1,1,$1,0,0*
1,0,$1-$2,0,0*
21,0,$3,$4,0,0,45*
21,0,$3,$4,0,0,135*
%
*
*
G04 Annular Aperture macro.*
%AMANN*
1,1,$1,0,0*
1,0,$2,0,0*
%
*
*
G04 Odd Aperture macro.*
%AMODD*
1,1,$1,0,0*
1,0,$1-0.005,0,0*
%
*
*
G04 PC Custom Aperture Macros*
*
*
*
*
*
*
G04 PC Aperture Table*
*
%ADD010C,0.001*%
%ADD049C,0.04937*%
%ADD050R,0.046X0.04*%
%ADD054R,0.04X0.046*%
%ADD062R,0.046X0.046*%
%ADD063R,0.06X0.046*%
%ADD064R,0.066X0.06*%
%ADD070R,0.10449X0.03953*%
%ADD071R,0.084X0.03*%
%ADD072O,0.084X0.03*%
%ADD077C,0.00394*%
%ADD104R,0.06X0.066*%
%ADD107R,0.04543X0.04543*%
%ADD112R,0.08874X0.07*%
%ADD113O,0.10843X0.08087*%
*
*
*
*
G04 PC Circuitry*
G04 Layer Name AD5420_POWER_V1.6.pcb - circuitry*
%LPD*%
*
*
G04 PC Custom Flashes*
G04 Layer Name AD5420_POWER_V1.6.pcb - flashes*
%LPD*%
*
*
G04 PC Circuitry*
G04 Layer Name AD5420_POWER_V1.6.pcb - circuitry*
%LPD*%
*
G54D10*
G54D49*
G01X1953977Y1535325D03*
Y1522726D03*
Y1514065D03*
Y1505403D03*
X1933977Y1505522D03*
Y1514183D03*
Y1522844D03*
Y1535443D03*
X2009818Y1697911D03*
G54D50*
X2055935Y1600836D03*
X2049935D03*
X2049974Y1595461D03*
X2055974D03*
X2055811Y1606478D03*
X2049811D03*
X1993308Y1693292D03*
X1987308D03*
X1993361Y1687884D03*
X1987361D03*
X1993308Y1698764D03*
X1987308D03*
X1993319Y1682376D03*
X1987319D03*
X2067926Y1578461D03*
X2073926D03*
X2067926Y1572989D03*
X2073926D03*
X2073887Y1567083D03*
X2067887D03*
X1944931Y1552978D03*
X1938931D03*
X1944931Y1547369D03*
X1938931D03*
X1948797Y1562088D03*
X1942797D03*
X1948797Y1570133D03*
X1942797D03*
X2035011Y1554023D03*
X2029011D03*
X2035180Y1559587D03*
X2029180D03*
X1943743Y1584477D03*
X1949743D03*
X2034670Y1548151D03*
X2028670D03*
X2003404Y1593846D03*
X2009404D03*
X2055935Y1589642D03*
X2049935D03*
G54D54*
X2028649Y1568213D03*
Y1574213D03*
X2036854Y1691653D03*
Y1697653D03*
X2045826Y1694208D03*
Y1700208D03*
G54D62*
X2025081Y1597588D03*
Y1590088D03*
G54D63*
X2017081Y1593838D03*
G54D64*
X1949030Y1578216D03*
X1940030D03*
G54D70*
X2070064Y1559487D03*
Y1554369D03*
Y1549251D03*
Y1544133D03*
Y1539015D03*
Y1533897D03*
Y1528779D03*
Y1523661D03*
Y1518543D03*
Y1513424D03*
Y1508306D03*
Y1503188D03*
X2054702D03*
Y1508306D03*
Y1513424D03*
Y1518543D03*
Y1523661D03*
Y1528779D03*
Y1533897D03*
Y1539015D03*
Y1544133D03*
Y1549251D03*
Y1554369D03*
Y1559487D03*
G54D71*
X2036408Y1565326D03*
G54D72*
Y1570326D03*
Y1575326D03*
Y1580326D03*
X2059008D03*
Y1575326D03*
Y1570326D03*
Y1565326D03*
G54D77*
X1925728Y1706516D02*
G75*
G03X1920728Y1701516I0J-5000D01*
G01X1925728Y1706516D02*
X2074272D01*
X2079272Y1701516D02*
G03X2074272Y1706516I-5000J-0D01*
G01X2079272Y1701516D02*
Y1498484D01*
X2074272Y1493484D02*
G03X2079272Y1498484I-0J5000D01*
G01X2074272Y1493484D02*
X2035930D01*
Y1540335*
X1961075*
Y1493507*
X1925723*
X1920728Y1498478D02*
G03X1925725Y1493507I4988J17D01*
G01X1920728Y1498479D02*
Y1701516D01*
X1936988Y1589744D02*
G03X1936988I-4212J0D01*
G01X2041292D02*
G03X2041292I-4252J0D01*
G01X2059221Y1679165D02*
X2063320Y1679103D01*
Y1701741*
X2059234*
X2059221Y1679165*
X2075730Y1672685D02*
X2078185D01*
Y1676714*
X2066304*
Y1672736*
X2075730Y1672685*
X1922800Y1599141D02*
X1934890D01*
X1934890D02*
Y1596542D01*
X1934890D02*
X1922800D01*
Y1599141*
X1937938Y1644439D02*
X1941848D01*
Y1604496*
X1937938*
Y1644439*
X1936932Y1648045D02*
X1924703D01*
Y1651789*
X1936932*
Y1648045*
G54D104*
X2072091Y1585347D03*
Y1594347D03*
G54D107*
X2004818Y1697911D03*
X1999818D03*
G54D112*
X1959412Y1550491D03*
Y1560491D03*
Y1570491D03*
Y1580491D03*
X2019608Y1580452D03*
Y1570452D03*
Y1560452D03*
Y1550452D03*
G54D113*
X2070891Y1698192D03*
X2070969Y1681145D03*
X1929712Y1605892D03*
X1929751Y1641915D03*
G74*
X0Y0D02*
M02*
