*
*
G04 PADS 9.5 Build Number: 522968 generated Gerber (RS-274-X) file*
G04 PC Version=2.1*
*
%IN "AD5420_POWER_V1.6.pcb"*%
*
%MOIN*%
*
%FSLAX35Y35*%
*
*
*
*
G04 PC Standard Apertures*
*
*
G04 Thermal Relief Aperture macro.*
%AMTER*
1,1,$1,0,0*
1,0,$1-$2,0,0*
21,0,$3,$4,0,0,45*
21,0,$3,$4,0,0,135*
%
*
*
G04 Annular Aperture macro.*
%AMANN*
1,1,$1,0,0*
1,0,$2,0,0*
%
*
*
G04 Odd Aperture macro.*
%AMODD*
1,1,$1,0,0*
1,0,$1-0.005,0,0*
%
*
*
G04 PC Custom Aperture Macros*
*
*
*
*
*
*
G04 PC Aperture Table*
*
%ADD010C,0.001*%
%ADD037C,0.00787*%
%ADD041C,0.01*%
%ADD074C,0.00984*%
%ADD075C,0.005*%
%ADD076C,0.007*%
%ADD077C,0.00394*%
%ADD078C,0.00591*%
%ADD079C,0.00591*%
%ADD114C,0.00512*%
*
*
*
*
G04 PC Circuitry*
G04 Layer Name AD5420_POWER_V1.6.pcb - circuitry*
%LPD*%
*
*
G04 PC Custom Flashes*
G04 Layer Name AD5420_POWER_V1.6.pcb - flashes*
%LPD*%
*
*
G04 PC Circuitry*
G04 Layer Name AD5420_POWER_V1.6.pcb - circuitry*
%LPD*%
*
G54D10*
G54D37*
G01X2049690Y1641216D02*
Y1672712D01*
X2067013*
Y1641216*
X2049690*
X2055497Y1638102D02*
X2059926D01*
X2057711Y1636491D02*
Y1639713D01*
X2054751Y1655306D02*
X2061751D01*
X2055138Y1658838D02*
G75*
G03X2061137I2999J3587D01*
G01X2058371Y1658298D02*
Y1663298D01*
X2058414Y1655294D02*
Y1650294D01*
X2000183Y1604100D02*
X1968687D01*
Y1621423*
X2000183*
Y1604100*
X2003297Y1609907D02*
Y1614336D01*
X2004908Y1612122D02*
X2001686D01*
X1986093Y1609162D02*
Y1616162D01*
X1982561Y1609548D02*
G03Y1615547I-3587J3000D01*
G01X1983101Y1612781D02*
X1978101D01*
X1986104Y1612825D02*
X1991104D01*
X1980650Y1675436D02*
X2012146D01*
Y1658113*
X1980650*
Y1675436*
X1977537Y1669629D02*
Y1665200D01*
X1975926Y1667415D02*
X1979147D01*
X1994741Y1670375D02*
Y1663375D01*
X1998272Y1669988D02*
G03Y1663989I3588J-2999D01*
G01X1997733Y1666755D02*
X2002733D01*
X1994729Y1666712D02*
X1989729D01*
X1933111Y1540285D02*
Y1500403D01*
X1953968*
Y1540285*
X1933111*
X1972886Y1567540D02*
X1971036Y1569390D01*
X1974736*
X1972886Y1567540*
X2041884Y1618774D02*
G03X2041884I-681J0D01*
G54D41*
G01X1981839Y1591974D02*
Y1589474D01*
X1986839*
X1981839Y1597974D02*
Y1600474D01*
X1986839*
X1990839Y1594474D02*
Y1595474D01*
X1950446Y1551340D02*
X1952946D01*
Y1556340*
X1944446Y1551340D02*
X1941946D01*
Y1556340*
X1947946Y1560340D02*
X1946946D01*
X1961536Y1566427D02*
Y1546227D01*
X2024493*
Y1566427*
X1961536*
X2029629Y1699246D02*
X2027129D01*
Y1694246*
X2035629Y1699246D02*
X2038129D01*
Y1694246*
X2032129Y1690246D02*
X2033129D01*
X2076796Y1702247D02*
Y1677208D01*
X2065300*
Y1702247*
X2076796*
X2040174Y1616104D02*
Y1612714D01*
X2031094*
Y1616104*
X2040174*
X1923925Y1601561D02*
Y1645852D01*
X1935421*
Y1601561*
X1923925*
G54D74*
X2070078Y1626783D02*
Y1605129D01*
X2043700*
Y1626783*
X2070078*
X2049825Y1593083D02*
Y1603595D01*
X2054353*
Y1593083*
X2049825*
X2067619Y1530003D02*
Y1540515D01*
X2072146*
Y1530003*
X2067619*
X2076977Y1552301D02*
Y1541789D01*
X2072449*
Y1552301*
X2076977*
X2066914Y1541695D02*
Y1552207D01*
X2071441*
Y1541695*
X2066914*
X2047774Y1526172D02*
Y1536684D01*
X2052301*
Y1526172*
X2047774*
X2009564Y1572064D02*
Y1582575D01*
X2014091*
Y1572064*
X2009564*
X1973288Y1682515D02*
X1983800D01*
Y1677988*
X1973288*
Y1682515*
X1983761Y1683381D02*
X1973249D01*
Y1687909*
X1983761*
Y1683381*
X2041915Y1663192D02*
X2031404D01*
Y1667720*
X2041915*
Y1663192*
X2041703Y1622674D02*
X2031191D01*
Y1627201*
X2041703*
Y1622674*
X2018422Y1646276D02*
Y1656788D01*
X2022950*
Y1646276*
X2018422*
X2074017Y1633927D02*
X2063505D01*
Y1638455*
X2074017*
Y1633927*
X2025522Y1663354D02*
Y1673865D01*
X2030049*
Y1663354*
X2025522*
X2074017Y1628329D02*
X2063505D01*
Y1632857*
X2074017*
Y1628329*
X1959666Y1651854D02*
X1970178D01*
Y1647326*
X1959666*
Y1651854*
X1958839Y1688066D02*
Y1677554D01*
X1954312*
Y1688066*
X1958839*
X1953879D02*
Y1677554D01*
X1949351*
Y1688066*
X1953879*
X1959666Y1656735D02*
X1970178D01*
Y1652208*
X1959666*
Y1656735*
X1989587Y1635751D02*
X2000099D01*
Y1631224*
X1989587*
Y1635751*
X1930251Y1666529D02*
Y1656018D01*
X1925724*
Y1666529*
X1930251*
X1932208Y1666556D02*
X1942720D01*
Y1662028*
X1932208*
Y1666556*
X1941938Y1655818D02*
X1931426D01*
Y1660346*
X1941938*
Y1655818*
X1959666Y1641696D02*
X1970178D01*
Y1637169*
X1959666*
Y1641696*
Y1646696D02*
X1970178D01*
Y1642169*
X1959666*
Y1646696*
X2017146Y1656742D02*
Y1646230D01*
X2012619*
Y1656742*
X2017146*
X1989587Y1641224D02*
X2000099D01*
Y1636696*
X1989587*
Y1641224*
X1942519Y1576679D02*
Y1587191D01*
X1947047*
Y1576679*
X1942519*
X1948858Y1576522D02*
Y1587033D01*
X1953385*
Y1576522*
X1948858*
X1976203Y1601200D02*
Y1590688D01*
X1971675*
Y1601200*
X1976203*
X2063634Y1566834D02*
Y1577345D01*
X2068162*
Y1566834*
X2063634*
X2042298Y1558581D02*
X2031786D01*
Y1563108*
X2042298*
Y1558581*
X2047813Y1537629D02*
Y1548141D01*
X2052341*
Y1537629*
X2047813*
X1994704Y1594284D02*
X2005216D01*
Y1589756*
X1994704*
Y1594284*
X2015562Y1572322D02*
Y1582834D01*
X2020090*
Y1572322*
X2015562*
X1949955Y1568737D02*
X1939443D01*
Y1573264*
X1949955*
Y1568737*
X1931972Y1545889D02*
Y1556401D01*
X1936499*
Y1545889*
X1931972*
X2024522Y1673865D02*
Y1663354D01*
X2019994*
Y1673865*
X2024522*
X2024450Y1701809D02*
Y1691297D01*
X2019922*
Y1701809*
X2024450*
X2035087Y1688273D02*
Y1677762D01*
X2030560*
Y1688273*
X2035087*
X2055325Y1688308D02*
Y1677796D01*
X2050797*
Y1688308*
X2055325*
X2014320Y1681898D02*
X2024831D01*
Y1677371*
X2014320*
Y1681898*
X2014291Y1691434D02*
Y1701945D01*
X2018818*
Y1691434*
X2014291*
X2036154Y1677762D02*
Y1688273D01*
X2040682*
Y1677762*
X2036154*
X2014303Y1687688D02*
X2024814D01*
Y1683161*
X2014303*
Y1687688*
X2041349Y1677762D02*
Y1688273D01*
X2045876*
Y1677762*
X2041349*
X2060135Y1603444D02*
Y1592932D01*
X2055607*
Y1603444*
X2060135*
X2062246Y1603914D02*
X2072758D01*
Y1599386*
X2062246*
Y1603914*
X2040847Y1566497D02*
X2030335D01*
Y1571024*
X2040847*
Y1566497*
X2030335Y1576703D02*
X2040847D01*
Y1572175*
X2030335*
Y1576703*
X2008796Y1589929D02*
Y1600441D01*
X2013323*
Y1589929*
X2008796*
X1983383Y1646920D02*
X1972871D01*
Y1651448*
X1983383*
Y1646920*
X2053704Y1519718D02*
X2043192D01*
Y1524246*
X2053704*
Y1519718*
X1950136Y1563330D02*
X1939624D01*
Y1567857*
X1950136*
Y1563330*
G54D75*
X1991099Y1629225D02*
Y1623225D01*
X1993099Y1629225D02*
Y1623225D01*
X1984099Y1629225D02*
X2000099D01*
Y1623225*
X1984099*
Y1629225*
X1963509Y1636074D02*
Y1630074D01*
X1965509Y1636074D02*
Y1630074D01*
X1956509Y1636074D02*
X1972509D01*
Y1630074*
X1956509*
Y1636074*
X2067442Y1598380D02*
Y1592380D01*
X2069442Y1598380D02*
Y1592380D01*
X2060442Y1598380D02*
X2076442D01*
Y1592380*
X2060442*
Y1598380*
X1965654Y1681977D02*
X1971654D01*
X1965654Y1683977D02*
X1971654D01*
X1965654Y1674977D02*
Y1690977D01*
X1971654*
Y1674977*
X1965654*
X1959580Y1681712D02*
X1965580D01*
X1959580Y1683712D02*
X1965580D01*
X1959580Y1674712D02*
Y1690712D01*
X1965580*
Y1674712*
X1959580*
G54D76*
X2029837Y1642021D02*
G03X2029837I-1250J0D01*
G01X2026837Y1639021D02*
X2045837D01*
Y1652021*
X2026837*
Y1639021*
G54D77*
X2050257Y1520225D02*
Y1517641D01*
Y1520225D02*
X2051062D01*
X2051330Y1520102*
X2051420Y1519979*
X2051509Y1519732*
Y1519363*
X2051420Y1519117*
X2051330Y1518994*
X2051062Y1518871*
X2050257*
X2052315Y1520225D02*
Y1517641D01*
Y1520225D02*
X2053120D01*
X2053388Y1520102*
X2053478Y1519979*
X2053567Y1519732*
Y1519486*
X2053478Y1519240*
X2053388Y1519117*
X2053120Y1518994*
X2052315D02*
X2053120D01*
X2053388Y1518871*
X2053478Y1518748*
X2053567Y1518502*
Y1518133*
X2053478Y1517887*
X2053388Y1517764*
X2053120Y1517641*
X2052315*
X2054552Y1520225D02*
X2055536D01*
X2054999Y1519240*
X2055267*
X2055446Y1519117*
X2055536Y1518994*
X2055625Y1518625*
Y1518379*
X2055536Y1518010*
X2055357Y1517764*
X2055088Y1517641*
X2054820*
X2054552Y1517764*
X2054462Y1517887*
X2054373Y1518133*
X2050454Y1514673D02*
Y1512090D01*
Y1514673D02*
X2051259D01*
X2051527Y1514550*
X2051617Y1514427*
X2051706Y1514181*
Y1513812*
X2051617Y1513566*
X2051527Y1513443*
X2051259Y1513320*
X2050454*
X2052512Y1514673D02*
Y1512090D01*
Y1514673D02*
X2053317D01*
X2053585Y1514550*
X2053675Y1514427*
X2053764Y1514181*
Y1513935*
X2053675Y1513689*
X2053585Y1513566*
X2053317Y1513443*
X2052512D02*
X2053317D01*
X2053585Y1513320*
X2053675Y1513197*
X2053764Y1512951*
Y1512582*
X2053675Y1512336*
X2053585Y1512213*
X2053317Y1512090*
X2052512*
X2055464Y1514673D02*
X2054570Y1512951D01*
X2055912*
X2055464Y1514673D02*
Y1512090D01*
X2050572Y1509634D02*
Y1507050D01*
Y1509634D02*
X2051377D01*
X2051645Y1509511*
X2051735Y1509388*
X2051824Y1509142*
Y1508773*
X2051735Y1508527*
X2051645Y1508404*
X2051377Y1508281*
X2050572*
X2052630Y1509634D02*
Y1507050D01*
Y1509634D02*
X2053435D01*
X2053703Y1509511*
X2053793Y1509388*
X2053882Y1509142*
Y1508896*
X2053793Y1508650*
X2053703Y1508527*
X2053435Y1508404*
X2052630D02*
X2053435D01*
X2053703Y1508281*
X2053793Y1508158*
X2053882Y1507912*
Y1507543*
X2053793Y1507296*
X2053703Y1507173*
X2053435Y1507050*
X2052630*
X2055851Y1509634D02*
X2054956D01*
X2054867Y1508527*
X2054956Y1508650*
X2055224Y1508773*
X2055493*
X2055761Y1508650*
X2055940Y1508404*
X2056030Y1508035*
X2055940Y1507789*
X2055851Y1507419*
X2055672Y1507173*
X2055403Y1507050*
X2055135*
X2054867Y1507173*
X2054777Y1507296*
X2054688Y1507543*
X1973285Y1568099D02*
Y1565515D01*
X1972658Y1568099D02*
X1973911D01*
X1974716D02*
X1975969Y1565515D01*
Y1568099D02*
X1974716Y1565515D01*
X1978385Y1568591D02*
X1976774Y1564654D01*
X1979190Y1568099D02*
Y1565515D01*
Y1568099D02*
X1979995D01*
X1980264Y1567976*
X1980353Y1567853*
X1980443Y1567606*
Y1567360*
X1980353Y1567114*
X1980264Y1566991*
X1979995Y1566868*
X1979190D02*
X1979995D01*
X1980264Y1566745*
X1980353Y1566622*
X1980443Y1566376*
Y1566007*
X1980353Y1565761*
X1980264Y1565638*
X1979995Y1565515*
X1979190*
X1974154Y1546327D02*
Y1543743D01*
Y1546327D02*
X1974960D01*
X1975228Y1546204*
X1975318Y1546081*
X1975407Y1545835*
Y1545589*
X1975318Y1545343*
X1975228Y1545220*
X1974960Y1545097*
X1974154*
X1974781D02*
X1975407Y1543743D01*
X1976212Y1546327D02*
X1977465Y1543743D01*
Y1546327D02*
X1976212Y1543743D01*
X1979881Y1546819D02*
X1978270Y1542882D01*
X1981402Y1546327D02*
X1980686Y1543743D01*
X1981402Y1546327D02*
X1982118Y1543743D01*
X1980955Y1544605D02*
X1981849D01*
X1925728Y1706516D02*
G03X1920728Y1701516I0J-5000D01*
G01X1925728Y1706516D02*
X2074272D01*
X2079272Y1701516D02*
G03X2074272Y1706516I-5000J-0D01*
G01X2079272Y1701516D02*
Y1498484D01*
X2074272Y1493484D02*
G03X2079272Y1498484I-0J5000D01*
G01X2074272Y1493484D02*
X2035930D01*
Y1540335*
X1961075*
Y1493507*
X1925723*
X1920728Y1498478D02*
G03X1925725Y1493507I4988J17D01*
G01X1920728Y1498479D02*
Y1701516D01*
X1936988Y1589744D02*
G03X1936988I-4212J0D01*
G01X2041292D02*
G03X2041292I-4252J0D01*
G01X2059221Y1679165D02*
X2063320Y1679103D01*
Y1701741*
X2059234*
X2059221Y1679165*
X2075730Y1672685D02*
X2078185D01*
Y1676714*
X2066304*
Y1672736*
X2075730Y1672685*
X1922800Y1599141D02*
X1934890D01*
X1934890D02*
Y1596542D01*
X1934890D02*
X1922800D01*
Y1599141*
X1937938Y1644439D02*
X1941848D01*
Y1604496*
X1937938*
Y1644439*
X1936932Y1648045D02*
X1924703D01*
Y1651789*
X1936932*
Y1648045*
G54D78*
X1925622Y1669874D02*
Y1695228D01*
X1945425*
Y1669795*
X1925622*
X1994627Y1655318D02*
X2003288D01*
Y1642720*
X1994627*
Y1655318*
X1993643Y1656106D02*
G03X1993643I-985J0D01*
G01X2027102Y1584444D02*
X2020803D01*
Y1569483*
X2027102*
Y1584444*
X2021984Y1574995D02*
X2025921Y1578932D01*
X2021984*
X2025921Y1574995*
X2021984*
X2025921Y1577357D02*
X2025527Y1576963D01*
X2022378*
X2021984Y1576570*
X2023953Y1579326D02*
Y1580113D01*
Y1574601D02*
Y1573814D01*
X2047290Y1701142D02*
G03X2049061I885J0D01*
G01X2048431*
Y1690512*
X2047919*
Y1701142*
X2047290*
X1978717Y1640839D02*
X1976354D01*
Y1636839*
X1978717*
X1981217Y1640839D02*
X1983579D01*
Y1636839*
X1981217*
Y1641957D02*
X1983579D01*
Y1645957*
X1981217*
X1978717Y1641957D02*
X1976354D01*
Y1645957*
X1978717*
X1993035Y1588182D02*
X1986736D01*
Y1573221*
X1993035*
Y1588182*
X1987917Y1578733D02*
X1991854Y1582670D01*
X1987917*
X1991854Y1578733*
X1987917*
X1991854Y1581095D02*
X1991460Y1580701D01*
X1988311*
X1987917Y1580308*
X1989886Y1583063D02*
Y1583851D01*
Y1578339D02*
Y1577552D01*
X2000635Y1573266D02*
X2006934D01*
Y1588226*
X2000635*
Y1573266*
X2005753Y1582714D02*
X2001816Y1578777D01*
X2005753*
X2001816Y1582714*
X2005753*
X2001816Y1580352D02*
X2002209Y1580746D01*
X2005359*
X2005753Y1581140*
X2003784Y1578384D02*
Y1577596D01*
Y1583108D02*
Y1583896D01*
X1994198Y1573208D02*
X2000497D01*
Y1588169*
X1994198*
Y1573208*
X1999316Y1582657D02*
X1995379Y1578720D01*
X1999316*
X1995379Y1582657*
X1999316*
X1995379Y1580294D02*
X1995772Y1580688D01*
X1998922*
X1999316Y1581082*
X1997347Y1578326D02*
Y1577539D01*
Y1583050D02*
Y1583838D01*
X2035429Y1672674D02*
X2033067D01*
Y1668674*
X2035429*
X2037929Y1672674D02*
X2040291D01*
Y1668674*
X2037929*
X2050935Y1635470D02*
X2059951D01*
Y1631927*
X2050935*
Y1635470*
X2049636Y1635392D02*
Y1631766D01*
X2028330Y1626170D02*
Y1617154D01*
X2024787*
Y1626170*
X2028330*
X2028251Y1627439D02*
X2024625D01*
X2054706Y1600911D02*
X2056221D01*
X2055394Y1599395*
X2055808*
X2056083Y1599206*
X2056221Y1599016*
X2056359Y1598448*
Y1598069*
X2056221Y1597501*
X2055946Y1597122*
X2055532Y1596932*
X2055119*
X2054706Y1597122*
X2054568Y1597311*
X2054430Y1597690*
X2057599Y1600911D02*
X2058702Y1596932D01*
X2059804Y1600911D02*
X2058702Y1596932D01*
X2062973Y1600911D02*
X2061595Y1596932D01*
X2061044Y1600911D02*
X2062973D01*
G54D79*
X1955233Y1701127D02*
Y1695960D01*
Y1701127D02*
X1956844D01*
X1957381Y1700881*
X1957559Y1700635*
X1957738Y1700143*
Y1699405*
X1957559Y1698913*
X1957381Y1698667*
X1956844Y1698420*
X1955233*
X1959528Y1696452D02*
X1959349Y1696206D01*
X1959528Y1695960*
X1959707Y1696206*
X1959528Y1696452*
X1964002Y1699897D02*
X1963823Y1700389D01*
X1963465Y1700881*
X1963107Y1701127*
X1962391*
X1962033Y1700881*
X1961675Y1700389*
X1961496Y1699897*
X1961318Y1699159*
Y1697928*
X1961496Y1697190*
X1961675Y1696698*
X1962033Y1696206*
X1962391Y1695960*
X1963107*
X1963465Y1696206*
X1963823Y1696698*
X1964002Y1697190*
X1965791Y1696452D02*
X1965612Y1696206D01*
X1965791Y1695960*
X1965970Y1696206*
X1965791Y1696452*
X1969371Y1701127D02*
X1967581Y1697682D01*
X1970265*
X1969371Y1701127D02*
Y1695960D01*
X1972771Y1701127D02*
X1972234Y1700881D01*
X1972055Y1700389*
Y1699897*
X1972234Y1699405*
X1972592Y1699159*
X1973308Y1698913*
X1973844Y1698667*
X1974202Y1698174*
X1974381Y1697682*
Y1696944*
X1974202Y1696452*
X1974023Y1696206*
X1973486Y1695960*
X1972771*
X1972234Y1696206*
X1972055Y1696452*
X1971876Y1696944*
Y1697682*
X1972055Y1698174*
X1972413Y1698667*
X1972950Y1698913*
X1973665Y1699159*
X1974023Y1699405*
X1974202Y1699897*
Y1700389*
X1974023Y1700881*
X1973486Y1701127*
X1972771*
X1978318D02*
X1976529D01*
X1976350Y1698913*
X1976529Y1699159*
X1977066Y1699405*
X1977602*
X1978139Y1699159*
X1978497Y1698667*
X1978676Y1697928*
X1978497Y1697436*
X1978318Y1696698*
X1977960Y1696206*
X1977423Y1695960*
X1976887*
X1976350Y1696206*
X1976171Y1696452*
X1975992Y1696944*
X1980287Y1694976D02*
X1984045D01*
X1985119Y1701127D02*
X1986550Y1695960D01*
X1987982Y1701127D02*
X1986550Y1695960D01*
X1989592Y1700143D02*
X1989950Y1700389D01*
X1990487Y1701127*
Y1695960*
X1992277Y1696452D02*
X1992098Y1696206D01*
X1992277Y1695960*
X1992456Y1696206*
X1992277Y1696452*
X1996214Y1700389D02*
X1996035Y1700881D01*
X1995498Y1701127*
X1995140*
X1994603Y1700881*
X1994245Y1700143*
X1994066Y1698913*
Y1697682*
X1994245Y1696698*
X1994603Y1696206*
X1995140Y1695960*
X1995319*
X1995856Y1696206*
X1996214Y1696698*
X1996393Y1697436*
Y1697682*
X1996214Y1698420*
X1995856Y1698913*
X1995319Y1699159*
X1995140*
X1994603Y1698913*
X1994245Y1698420*
X1994066Y1697682*
X1985366Y1687062D02*
Y1687308D01*
X1985545Y1687800*
X1985724Y1688046*
X1986082Y1688293*
X1986798*
X1987156Y1688046*
X1987335Y1687800*
X1987514Y1687308*
Y1686816*
X1987335Y1686324*
X1986977Y1685586*
X1985187Y1683125*
X1987693*
X1990377Y1688293D02*
X1989840Y1688046D01*
X1989482Y1687308*
X1989303Y1686078*
Y1685340*
X1989482Y1684109*
X1989840Y1683371*
X1990377Y1683125*
X1990735*
X1991272Y1683371*
X1991630Y1684109*
X1991808Y1685340*
Y1686078*
X1991630Y1687308*
X1991272Y1688046*
X1990735Y1688293*
X1990377*
X1993419Y1687308D02*
X1993777Y1687554D01*
X1994314Y1688293*
Y1683125*
X1998072Y1687554D02*
X1997893Y1688046D01*
X1997356Y1688293*
X1996998*
X1996461Y1688046*
X1996103Y1687308*
X1995924Y1686078*
Y1684848*
X1996103Y1683863*
X1996461Y1683371*
X1996998Y1683125*
X1997177*
X1997714Y1683371*
X1998072Y1683863*
X1998251Y1684602*
Y1684848*
X1998072Y1685586*
X1997714Y1686078*
X1997177Y1686324*
X1996998*
X1996461Y1686078*
X1996103Y1685586*
X1995924Y1684848*
X2000935Y1688293D02*
X2000398Y1688046D01*
X2000040Y1687308*
X1999861Y1686078*
Y1685340*
X2000040Y1684109*
X2000398Y1683371*
X2000935Y1683125*
X2001293*
X2001830Y1683371*
X2002188Y1684109*
X2002367Y1685340*
Y1686078*
X2002188Y1687308*
X2001830Y1688046*
X2001293Y1688293*
X2000935*
X2004156Y1687062D02*
Y1687308D01*
X2004335Y1687800*
X2004514Y1688046*
X2004872Y1688293*
X2005588*
X2005946Y1688046*
X2006125Y1687800*
X2006304Y1687308*
Y1686816*
X2006125Y1686324*
X2005767Y1685586*
X2003977Y1683125*
X2006483*
X2008093Y1687308D02*
X2008451Y1687554D01*
X2008988Y1688293*
Y1683125*
X2012925Y1686570D02*
X2012746Y1685832D01*
X2012388Y1685340*
X2011851Y1685094*
X2011672*
X2011136Y1685340*
X2010778Y1685832*
X2010599Y1686570*
Y1686816*
X2010778Y1687554*
X2011136Y1688046*
X2011672Y1688293*
X2011851*
X2012388Y1688046*
X2012746Y1687554*
X2012925Y1686570*
Y1685340*
X2012746Y1684109*
X2012388Y1683371*
X2011851Y1683125*
X2011494*
X2010957Y1683371*
X2010778Y1683863*
G54D114*
X2011847Y1703847D02*
X1998005D01*
X1997793Y1703742D02*
G03X2012089Y1703754I7153J-5391D01*
G01X1929635Y1563536D02*
Y1573247D01*
X1936868*
Y1563536*
X1929635*
X1930676Y1566879D02*
X1935163D01*
X1934789Y1569126D02*
X1932974Y1567311D01*
X1930935Y1569350*
X1934864*
G74*
X0Y0D02*
M02*
