*
*
G04 PADS 9.5 Build Number: 522968 generated Gerber (RS-274-X) file*
G04 PC Version=2.1*
*
%IN "LK02 Main board 3V0.pcb"*%
*
%MOIN*%
*
%FSLAX35Y35*%
*
*
*
*
G04 PC Standard Apertures*
*
*
G04 Thermal Relief Aperture macro.*
%AMTER*
1,1,$1,0,0*
1,0,$1-$2,0,0*
21,0,$3,$4,0,0,45*
21,0,$3,$4,0,0,135*
%
*
*
G04 Annular Aperture macro.*
%AMANN*
1,1,$1,0,0*
1,0,$2,0,0*
%
*
*
G04 Odd Aperture macro.*
%AMODD*
1,1,$1,0,0*
1,0,$1-0.005,0,0*
%
*
*
G04 PC Custom Aperture Macros*
*
*
*
*
*
*
G04 PC Aperture Table*
*
%ADD010C,0.001*%
%ADD011R,0.02X0.02*%
%ADD023C,0.01969*%
%ADD024C,0.01181*%
%ADD025C,0.00787*%
%ADD027C,0.01575*%
%ADD030C,0.01*%
%ADD031C,0.00394*%
%ADD052R,0.02X0.02*%
%ADD054R,0.036X0.036*%
%ADD055R,0.036X0.05*%
%ADD063R,0.0374X0.03543*%
%ADD073R,0.07087X0.06299*%
%ADD080R,0.0315X0.06299*%
%ADD082R,0.03937X0.04331*%
%ADD094R,0.1063X0.06299*%
%ADD137C,0.06*%
%ADD162R,0.03543X0.0374*%
%ADD174R,0.03X0.038*%
%ADD175R,0.038X0.03*%
%ADD202R,0.05906X0.05906*%
%ADD203C,0.05906*%
%ADD208R,0.06X0.05*%
%ADD211R,0.05X0.06*%
%ADD220O,0.01575X0.02362*%
%ADD226C,0.03543*%
%ADD227R,0.02756X0.03937*%
%ADD228R,0.1X0.07874*%
%ADD229R,0.07874X0.04921*%
%ADD230R,0.04921X0.07874*%
%ADD231R,0.07874X0.1*%
%ADD232C,0.07874*%
*
*
*
*
G04 PC Circuitry*
G04 Layer Name LK02 Main board 3V0.pcb - circuitry*
%LPD*%
*
*
G04 PC Custom Flashes*
G04 Layer Name LK02 Main board 3V0.pcb - flashes*
%LPD*%
*
*
G04 PC Circuitry*
G04 Layer Name LK02 Main board 3V0.pcb - circuitry*
%LPD*%
*
G54D10*
G54D11*
G01X1887490Y1685573D03*
Y1681754D03*
X1925273Y1620505D03*
Y1616686D03*
X1898932Y1590966D03*
X1895113D03*
X1826767Y1614642D03*
X1822948D03*
X1826767Y1624566D03*
X1822948D03*
G54D23*
X1866695Y1584929D02*
X1885268D01*
X1886260Y1585920*
Y1585945*
X1895224Y1585919D02*
X1886286D01*
X1886260Y1585945*
X1819685Y1619567D02*
X1823055D01*
X1909787Y1636651D02*
Y1636654D01*
X1907441*
X1964942Y1639119D02*
X1960853Y1639081D01*
X1959033*
Y1639084*
X1960853Y1639081D02*
X1962911D01*
X1931947Y1640102D02*
X1934489Y1642645D01*
X1947171*
X1931947Y1640102D02*
X1884028D01*
X1860035Y1664095*
Y1671017*
X1947171Y1642645D02*
X1947165D01*
Y1645433*
X1947126Y1645669*
Y1645787*
X1790203Y1650021D02*
X1790198D01*
Y1657587*
Y1678443*
X1808760Y1697004*
Y1783484*
X1928858Y1655903D02*
Y1677892D01*
X1931673Y1680707*
Y1698169*
X1946987Y1713483*
X1949409*
X1940039Y1666654D02*
X1940081D01*
Y1671484*
X1940081*
X1960385Y1668040D02*
X1963022D01*
X1963063Y1668081*
X1960394Y1668031D02*
X1960385Y1668040D01*
X1958439*
X1950138Y1675255D02*
Y1675655D01*
X1945936Y1679857*
Y1689090*
X1954691Y1675225D02*
X1954662Y1675255D01*
X1950138*
X1843622Y1693858D02*
X1837196Y1687432D01*
X1824042*
X1821417Y1690057*
Y1693780*
X1962165Y1684213D02*
X1962158Y1684205D01*
X1957122*
X1955941Y1685386*
Y1688997*
X1821417Y1693780D02*
X1821503Y1693866D01*
Y1696269*
X1823439*
X1843622Y1693858D02*
X1843617Y1696269D01*
X1843601*
X1847483D02*
Y1696285D01*
X1843601Y1696269D02*
Y1696285D01*
X1847483*
X1945936Y1695783D02*
Y1699803D01*
X1955941Y1695690D02*
X1955960Y1695710D01*
Y1703447*
X1777974Y1708884D02*
X1782846D01*
X1801694Y1727732*
Y1734451*
X1803266Y1736024*
X1832862Y1699864D02*
X1832862D01*
Y1705551*
X1832835*
X1950827Y1701890D02*
Y1712065D01*
X1949409Y1713483*
X1949454Y1713527*
Y1733410*
X1935118Y1727677D02*
X1932554D01*
X1930915Y1729316*
Y1731301*
X1944522Y1727661D02*
X1944506Y1727677D01*
X1935118*
X1958780Y1727559D02*
X1958770Y1727568D01*
X1954496*
X1803266Y1736024D02*
X1802536D01*
X1787698Y1750862*
X1777858*
X1803266Y1736024D02*
X1805591D01*
X1944522Y1738307D02*
Y1741782D01*
X1944452Y1741853*
X1944449Y1738307D02*
X1944522D01*
Y1734354*
X1954496Y1738307D02*
Y1741849D01*
X1954499Y1741853*
X1949454Y1733410D02*
X1949449Y1733415D01*
Y1755276*
X1954449Y1738307D02*
X1954496D01*
Y1734261*
X1913504Y1747362D02*
X1913499Y1747367D01*
X1910782*
Y1743084D02*
Y1747367D01*
X1918714Y1743448D02*
Y1749459D01*
X1918732Y1749478*
X1924224Y1753098D02*
Y1756131D01*
X1924134Y1756220*
X1927824Y1753098D02*
Y1757616D01*
X1918732Y1753078D02*
X1924110D01*
X1924130Y1753098*
X1918732Y1753078D02*
Y1757442D01*
X1918697Y1757478*
X1831378Y1779409D02*
X1824281D01*
Y1779415*
X1879556Y1778824D02*
Y1770640D01*
Y1770694*
X1886060*
X1892614Y1778173D02*
X1892540D01*
Y1782849*
X1892614Y1770693D02*
X1886062D01*
X1886060Y1770694*
X1912953Y1778543D02*
X1913079D01*
Y1782816*
X1913081*
X1923549Y1779246D02*
Y1782816D01*
X1916681*
X1939691Y1779246D02*
X1936654D01*
Y1785827*
X1808760Y1783484D02*
X1807677Y1784567D01*
X1824281Y1788415D02*
X1824129D01*
Y1795215*
X1892540Y1782849D02*
Y1789830D01*
X1902907Y1782832D02*
X1899532D01*
X1899515Y1782849*
X1896140*
X1902907Y1782832D02*
X1902910D01*
Y1790023*
X1913081Y1782816D02*
X1909802D01*
X1909786Y1782832*
X1906507*
X1913081Y1782816D02*
Y1790065D01*
X1913113*
X1824113Y1799150D02*
X1824129D01*
Y1795215D02*
X1824113D01*
Y1799150*
X1866518Y1793192D02*
Y1796151D01*
X1867098Y1796732*
X1867098D02*
X1871614D01*
X1793819Y1586339D03*
X1821535Y1583583D03*
X1834685D03*
X1847874Y1583543D03*
X1886260Y1585945D03*
X1892283Y1581024D03*
X1901535Y1580984D03*
X1901181Y1585906D03*
X1926181Y1585787D03*
X1920827Y1583465D03*
X1920709Y1586811D03*
X1944882Y1588937D03*
X1940945Y1589213D03*
X1892008Y1590236D03*
X1901457Y1590945D03*
X1898819Y1598465D03*
X1931575Y1598740D03*
X1944961Y1592323D03*
X1941024Y1592283D03*
X1954331Y1594331D03*
X1960787Y1599252D03*
X1827520Y1609134D03*
X1824016Y1609055D03*
X1832913Y1609134D03*
X1847638Y1607441D03*
X1852638Y1607559D03*
X1857638Y1607520D03*
X1931181Y1604961D03*
X1954528Y1601339D03*
X1960748Y1601772D03*
X1819685Y1619567D03*
X1819724Y1614646D03*
X1830197Y1619567D03*
X1830276Y1614606D03*
X1855413Y1619590D03*
X1850118Y1617756D03*
X1885079Y1612835D03*
X1943386Y1612913D03*
Y1615315D03*
X1950787Y1615748D03*
X1960591Y1614252D03*
X1819724Y1623898D03*
X1830236Y1624528D03*
X1850079Y1620118D03*
X1869331Y1629528D03*
X1910013Y1625465D03*
X1910068Y1628956D03*
X1927523Y1625742D03*
X1919100Y1625576D03*
X1927523Y1628790D03*
X1919100Y1628956D03*
X1948110Y1628465D03*
Y1621693D03*
X1961270Y1629197D03*
X1959113Y1629195D03*
X1782953Y1637126D03*
X1786890Y1636890D03*
X1826654Y1632480D03*
X1907441Y1636654D03*
X1917323D03*
X1954488Y1634685D03*
X1949073Y1639090D03*
X1964942Y1639119D03*
X1959113Y1631256D03*
X1961270Y1631266D03*
X1786772Y1639724D03*
X1782913Y1639606D03*
X1782795Y1642874D03*
X1786614D03*
X1790906Y1639724D03*
X1790787Y1642874D03*
X1930000Y1644606D03*
X1947126Y1645787D03*
X1956850Y1642677D03*
X1812402Y1652126D03*
X1840157Y1659488D03*
X1843622D03*
X1853189D03*
X1912323Y1657598D03*
X1917323Y1658228D03*
X1922913Y1655866D03*
X1938858Y1657323D03*
X1952953Y1656024D03*
X1960590Y1651791D03*
X1833346Y1666614D03*
X1843622Y1663346D03*
X1840118D03*
X1853268D03*
X1877087Y1659961D03*
X1937126Y1662559D03*
X1940039Y1666654D03*
X1955039Y1663543D03*
X1960591Y1661732D03*
X1960394Y1668031D03*
X1841654Y1678346D03*
X1849567D03*
X1857926Y1670928D03*
X1857903Y1673221D03*
X1855700Y1670951D03*
X1855745Y1673221D03*
X1860035Y1671017D03*
X1860071Y1673241D03*
X1887480Y1674291D03*
X1936387Y1675164D03*
X1954691Y1675225D03*
X1966260Y1674291D03*
X1833780Y1679843D03*
X1858268Y1685236D03*
X1873733Y1681062D03*
X1873697Y1683279D03*
X1873701Y1685472D03*
X1876350Y1681025D03*
Y1683242D03*
X1876299Y1685394D03*
X1891457Y1688268D03*
X1928071Y1687244D03*
X1922480Y1686850D03*
X1937087Y1688701D03*
X1950906Y1683031D03*
X1962165Y1684213D03*
X1825748Y1692047D03*
X1821417Y1693780D03*
X1831063D03*
X1828504Y1691969D03*
X1843622Y1693858D03*
X1848858Y1690787D03*
X1852677Y1699488D03*
X1849724Y1696260D03*
X1865827Y1693307D03*
X1863622Y1699370D03*
X1864252Y1695984D03*
X1874724Y1697638D03*
X1872677Y1692047D03*
X1874724Y1693898D03*
X1884409Y1696732D03*
X1892598Y1696850D03*
X1888543Y1696811D03*
X1902047Y1695748D03*
X1902441Y1698898D03*
X1916378Y1696969D03*
X1925984Y1696850D03*
X1937638Y1698504D03*
X1822362Y1708386D03*
X1819291Y1708583D03*
X1819488Y1704331D03*
X1825276Y1702283D03*
X1819291Y1699843D03*
X1832835Y1705551D03*
X1846969Y1705827D03*
X1843583Y1702283D03*
X1866024Y1702323D03*
Y1705394D03*
X1874843Y1707008D03*
X1874252Y1704055D03*
X1884449Y1705000D03*
X1884409Y1700669D03*
X1892598Y1705079D03*
X1888504Y1704961D03*
X1892559Y1700787D03*
X1888543Y1700748D03*
X1902008Y1702008D03*
X1910591Y1701811D03*
X1922520Y1705315D03*
X1928701Y1708031D03*
X1945945Y1699803D03*
X1940866Y1703465D03*
X1950827Y1701890D03*
X1955906Y1699803D03*
X1961496Y1703465D03*
X1819291Y1716260D03*
X1825315Y1718346D03*
X1829685Y1710276D03*
X1835787Y1715906D03*
X1829055Y1718661D03*
X1832835Y1710197D03*
X1842874Y1713898D03*
X1852165Y1709803D03*
X1849606Y1716181D03*
X1849173Y1712598D03*
X1852244Y1718071D03*
X1865079Y1713661D03*
X1876929Y1710118D03*
X1878465Y1715315D03*
X1880709Y1717559D03*
X1883583Y1715276D03*
X1891457Y1713780D03*
X1897754Y1710903D03*
X1903386Y1712165D03*
X1916929Y1718583D03*
X1940984Y1719331D03*
X1940866Y1715197D03*
X1955866Y1716575D03*
X1959961Y1713465D03*
X1823976Y1725984D03*
X1820019Y1725893D03*
X1829055Y1721457D03*
X1845630Y1726535D03*
X1840945Y1721457D03*
X1850866Y1721417D03*
X1903701Y1720591D03*
X1935118Y1727677D03*
X1958780Y1727559D03*
X1805591Y1736024D03*
X1821969Y1737244D03*
X1865354Y1732008D03*
X1874252Y1738583D03*
X1877008Y1735669D03*
X1904724Y1738661D03*
X1937126Y1731299D03*
X1944449Y1738307D03*
X1939016Y1738465D03*
X1954449Y1738307D03*
X1805236Y1739685D03*
X1836378Y1740709D03*
X1829646Y1740472D03*
X1847520Y1741063D03*
X1843701Y1740984D03*
X1850276Y1741024D03*
X1865866Y1743268D03*
X1860276Y1743425D03*
X1913504Y1747362D03*
X1961457Y1747638D03*
X1960799Y1741879D03*
X1840197Y1758465D03*
X1863937Y1758386D03*
X1875787Y1757717D03*
X1884409Y1754882D03*
X1879882Y1753425D03*
X1910709Y1757402D03*
X1924134Y1756220D03*
X1939488Y1755315D03*
X1949449Y1755276D03*
X1954488Y1755433D03*
X1805984Y1763819D03*
X1815984Y1767480D03*
X1811535Y1763898D03*
X1863622Y1763976D03*
X1869528Y1762165D03*
X1895197Y1762598D03*
X1889961Y1764961D03*
X1907008Y1762874D03*
X1931575Y1763425D03*
X1795984Y1776654D03*
X1826378Y1771575D03*
X1831378Y1779409D03*
X1888780Y1777598D03*
X1907874Y1771772D03*
X1912953Y1778543D03*
X1937729Y1770715D03*
X1807677Y1784567D03*
X1866535Y1780591D03*
X1936654Y1785827D03*
X1871614Y1796732D03*
X1878504Y1796811D03*
X1954370Y1797047D03*
X1797874Y1804409D03*
X1801811Y1804449D03*
X1805748Y1804488D03*
X1809646Y1804528D03*
X1820433Y1804134D03*
X1835315D03*
X1897717Y1801181D03*
X1908071Y1801024D03*
X1919606Y1802480D03*
X1938622Y1805236D03*
X1942598D03*
X1946535D03*
X1950433D03*
G54D24*
X1866495Y1599729D02*
Y1603418D01*
X1862394Y1607520*
X1857638*
X1875114Y1599653D02*
X1875122Y1599661D01*
X1881123*
X1875114Y1599653D02*
X1866495D01*
Y1599729*
G54D25*
X1793819Y1586339D02*
X1793780D01*
Y1586368*
X1802833Y1586366D02*
Y1586368D01*
X1793780*
X1815228Y1583595D02*
X1809834D01*
Y1583695*
X1807164Y1586366*
X1802833*
X1821535Y1583583D02*
X1828028D01*
Y1583595*
X1821535Y1583583D02*
X1815228D01*
Y1583595*
X1834685Y1583583D02*
X1828028D01*
Y1583595*
X1834685Y1583583D02*
X1841233D01*
Y1583595*
X1847874Y1583543D02*
X1841233D01*
Y1583595*
X1847874Y1583543D02*
X1854365D01*
Y1583595*
X1895220Y1580973D02*
Y1581024D01*
X1892283*
X1901181Y1585906D02*
X1898824D01*
Y1585919*
X1898820Y1580973D02*
Y1580984D01*
X1901535*
X1895223Y1593483D02*
X1895220Y1593486D01*
Y1595899*
X1895113Y1590966D02*
X1895223Y1591076D01*
Y1593483*
X1901457Y1590945D02*
X1898932D01*
Y1590966*
X1898820Y1595899D02*
X1898819D01*
Y1598465*
X1935897Y1598755D02*
X1937432Y1600290D01*
Y1604040*
X1931575Y1598740D02*
X1934024D01*
X1934039Y1598755*
X1935897*
X1940272Y1596590D02*
X1938062D01*
X1935897Y1598755*
X1802633Y1601166D02*
X1804110D01*
X1811999Y1609055*
X1824016*
X1815228Y1599737D02*
Y1604627D01*
X1817277Y1606677*
X1825062*
X1827520Y1609134*
X1828028Y1599737D02*
Y1604248D01*
X1832913Y1609134*
X1841233Y1599737D02*
Y1604858D01*
X1843816Y1607441*
X1847638*
X1854365Y1599737D02*
Y1605832D01*
X1852638Y1607559*
X1877186Y1609110D02*
Y1612299D01*
X1877149Y1612336*
Y1614557*
X1885060Y1609110D02*
X1885079D01*
Y1612835*
X1916828Y1605331D02*
X1921176D01*
X1925273Y1609428*
Y1616686*
X1931181Y1604961D02*
Y1606627D01*
X1929313Y1608495*
X1823055Y1619567D02*
X1823060Y1619572D01*
X1822948Y1614642D02*
Y1614646D01*
X1819724*
X1830197Y1619567D02*
X1826660D01*
Y1619572*
X1830276Y1614606D02*
X1826767D01*
Y1614642*
X1846217Y1619374D02*
Y1620118D01*
X1850079*
X1850118Y1617756D02*
X1850079Y1620118D01*
X1877149Y1618157D02*
Y1643882D01*
X1849567Y1671465*
Y1678346*
X1929328Y1616793D02*
Y1612095D01*
X1935641*
X1936582Y1613036*
X1929313Y1612095D02*
X1929328D01*
X1950787Y1615748D02*
Y1619633D01*
X1954428Y1623274*
Y1623471*
X1960591Y1614252D02*
Y1617733D01*
X1960670Y1617812*
Y1621308*
X1826656Y1629534D02*
X1826654D01*
Y1632480*
X1822948Y1624566D02*
Y1626996D01*
X1823056Y1627104*
Y1629534*
X1830236Y1624528D02*
X1826767D01*
Y1624566*
X1852859Y1625807D02*
Y1626207D01*
X1850691Y1628374*
X1846217*
X1852859Y1619607D02*
Y1620118D01*
X1850079*
X1948110Y1628465D02*
Y1630931D01*
X1947865*
X1954428Y1623471D02*
Y1623668D01*
X1950491Y1627606*
Y1632403*
X1913387Y1636651D02*
X1917320D01*
X1917323Y1636654*
X1947171Y1639045D02*
X1949027D01*
X1949073Y1639090*
X1950491Y1632403D02*
X1952772Y1634685D01*
X1954488*
X1954939Y1639080D02*
X1949073Y1639090D01*
X1951021Y1639089D02*
X1949075D01*
X1949073Y1639090*
X1924835Y1644574D02*
X1927409D01*
X1927441Y1644606*
X1930000*
X1921235Y1644574D02*
Y1648421D01*
X1924835D02*
Y1650362D01*
X1924835*
Y1652303*
X1921235Y1648421D02*
X1914533D01*
X1912323Y1650631*
Y1657598*
X1930000Y1644606D02*
X1931743Y1646349D01*
Y1654832*
X1956850Y1642677D02*
X1956848Y1642680D01*
X1954939*
X1956850Y1642677D02*
X1959026D01*
X1959033Y1642684*
X1954939Y1642680D02*
X1954930Y1642689D01*
X1951021*
X1962911Y1642681D02*
Y1649470D01*
X1960590Y1651791*
X1793798Y1657587D02*
Y1659437D01*
X1793088Y1660147*
Y1661997*
X1793798Y1657587D02*
X1801386D01*
X1805003Y1650221D02*
Y1655364D01*
X1804986Y1655381*
Y1657587*
X1805003Y1650221D02*
Y1650236D01*
X1810512*
X1812402Y1652126*
X1917318Y1652268D02*
Y1654086D01*
X1917317*
Y1655903*
X1917323Y1655909*
Y1658228*
X1922876Y1655903D02*
X1922876D01*
X1924835*
X1922913Y1655866D02*
X1922913D01*
X1922876Y1655903*
X1920918Y1652268D02*
X1920953Y1652303D01*
X1924835*
X1928858*
X1920917Y1655903D02*
X1922876D01*
X1931743Y1654832D02*
X1930671Y1655903D01*
X1928858*
X1952953Y1656024D02*
Y1657447D01*
X1957238Y1661732*
X1960591*
X1779389Y1666415D02*
Y1672434D01*
X1777974Y1673849*
Y1678884*
X1793088Y1665597D02*
Y1678111D01*
X1797613Y1682635*
X1830987*
X1937126Y1662559D02*
X1941001D01*
X1941005Y1662563*
X1944896*
Y1666991*
X1944886Y1667002*
Y1671430*
X1950138Y1669055D02*
X1952121D01*
X1954691Y1671625*
X1948496Y1662563D02*
X1954059D01*
X1955039Y1663543*
X1887480Y1674291D02*
Y1678010D01*
X1887490Y1678020*
Y1681754*
X1881163Y1674250D02*
X1885059D01*
X1885100Y1674291*
X1887480*
X1939813Y1675084D02*
X1936342D01*
X1936387Y1675164*
X1939813Y1675084D02*
X1940081D01*
X1944886Y1675030D02*
X1944831Y1675084D01*
X1939813*
X1956558Y1671625D02*
X1960407D01*
X1963063Y1674281*
X1956558Y1671625D02*
X1956572Y1671640D01*
X1958439*
X1954691Y1671625D02*
X1956558D01*
X1963063Y1674281D02*
X1966250D01*
X1966260Y1674291*
X1833780Y1679843D02*
X1830987Y1682635D01*
X1886600Y1688307D02*
X1888779Y1690485D01*
X1904554*
X1914678Y1700609*
Y1701848*
X1932160Y1719331*
X1940984*
X1886600Y1688307D02*
X1860796D01*
X1850088Y1699015*
Y1702707*
X1846969Y1705827*
X1891481Y1681923D02*
X1891302Y1681744D01*
X1889411*
X1889401Y1681754*
X1887490*
X1891481Y1685523D02*
X1891457D01*
Y1688268*
X1928071Y1687244D02*
X1926235Y1689080D01*
Y1690936*
X1922480Y1686850D02*
Y1688787D01*
X1922495Y1688802*
Y1690936*
X1823439Y1696272D02*
Y1696269D01*
X1825303*
X1831004Y1696263D02*
X1831005Y1696264D01*
X1831014*
X1831004Y1696263D02*
X1829150D01*
X1829144Y1696269*
X1831014Y1696264D02*
X1832862D01*
X1831063Y1693780D02*
Y1696215D01*
X1831014Y1696264*
X1849724Y1696260D02*
X1847483D01*
Y1696269*
X1864252Y1695984D02*
X1865269D01*
X1867187Y1697902*
X1874724Y1697638D02*
X1871052D01*
X1870787Y1697902*
X1885854Y1689882D02*
X1888085Y1692113D01*
X1903954*
X1912977Y1701136*
Y1702507*
X1927815Y1717345*
Y1746704*
X1938709Y1757598*
X1956615*
X1885854Y1689882D02*
X1862283D01*
X1852677Y1699488*
X1902047Y1695748D02*
X1897520Y1700276D01*
Y1703220*
X1892453Y1708286*
X1882794*
X1878465Y1712615*
Y1715315*
X1916378Y1696969D02*
Y1700371D01*
X1918755Y1702748*
X1922495Y1696842D02*
X1925984D01*
Y1696850*
X1918755Y1690936D02*
Y1696279D01*
X1922270Y1699795*
X1923675*
X1926235Y1702354*
Y1702748*
X1922495Y1690936D02*
Y1696842D01*
X1822362Y1708386D02*
Y1709699D01*
X1825322Y1712659*
X1819291Y1708583D02*
Y1710420D01*
X1821522Y1712651*
X1825276Y1702283D02*
Y1704320D01*
X1825272*
X1819291Y1699843D02*
X1821503D01*
Y1699869*
X1821672Y1704320D02*
Y1704331D01*
X1819488*
X1821503Y1699869D02*
X1825303D01*
X1825276*
Y1702283*
X1825303Y1699869D02*
X1829144D01*
X1847483D02*
X1843601D01*
Y1699882*
X1843583*
Y1702283*
X1863858Y1704488D02*
Y1710141D01*
X1865079Y1711362*
Y1713661*
X1866024Y1702323D02*
X1863858Y1704488D01*
X1866024Y1705394D02*
Y1708426D01*
X1867244Y1709646*
X1874843Y1707008D02*
X1870963Y1710887D01*
Y1716095*
X1847520Y1739539*
Y1741063*
X1874252Y1704055D02*
X1869285Y1709022D01*
Y1715400*
X1843701Y1740984*
X1904587Y1701810D02*
Y1702008D01*
X1902008*
X1908187Y1701810D02*
Y1701811D01*
X1910591*
X1922495Y1702748D02*
Y1705290D01*
X1922520Y1705315*
X1945945Y1699807D02*
X1945936Y1699815D01*
Y1699803*
X1945945*
Y1699807*
X1942262Y1703447D02*
X1942245Y1703465D01*
X1940866*
X1955906Y1699803D02*
X1955941D01*
Y1703428*
X1955960Y1703447*
X1955857Y1709558D02*
X1958264D01*
X1959961Y1711255*
Y1713465*
X1959560Y1703447D02*
X1961479D01*
X1961496Y1703465*
X1825322Y1716259D02*
Y1718339D01*
X1825315Y1718346*
X1821522Y1716251D02*
X1821512Y1716260D01*
X1819291*
X1829685Y1710276D02*
Y1712659D01*
X1829090*
X1835787Y1715906D02*
Y1723972D01*
X1824469Y1735291*
Y1754932*
X1820529Y1758871*
Y1795215*
X1832835Y1710197D02*
X1832795D01*
Y1712603*
X1832803Y1716203D02*
Y1722425D01*
X1829243Y1725984*
X1823976*
X1832803Y1712603D02*
X1832795D01*
X1829090Y1716259D02*
X1829055D01*
Y1718661*
X1842874Y1713898D02*
X1838071Y1718701D01*
Y1726450*
X1826378Y1738143*
Y1771575*
X1849606Y1716181D02*
X1846906D01*
Y1716199*
X1849173Y1712598D02*
X1846906D01*
Y1712599*
X1867244Y1709646D02*
Y1714558D01*
X1855267Y1726535*
X1845630*
X1876929Y1710118D02*
X1873962Y1713086D01*
Y1717338*
X1850276Y1741024*
X1891457Y1713780D02*
Y1716983D01*
X1891452*
X1897754Y1710903D02*
X1882404D01*
X1880709Y1712598*
Y1717559*
X1903386Y1712165D02*
Y1712337D01*
X1882455Y1733267*
X1876346*
X1870241Y1739373*
X1856890*
X1853034Y1743228*
X1918739Y1718572D02*
X1916940D01*
X1916929Y1718583*
X1955857Y1713158D02*
Y1716566D01*
X1955866Y1716575*
X1821509Y1721374D02*
X1820019Y1722864D01*
Y1725893*
X1825109Y1721374D02*
Y1721376D01*
X1828975*
X1829055Y1721457*
X1843198Y1721443D02*
Y1721457D01*
X1840945*
X1850866Y1721417D02*
X1848853D01*
X1848827Y1721443*
X1846798*
X1891445Y1720576D02*
X1891452D01*
Y1720583*
X1918739Y1722172D02*
X1918714Y1722198D01*
Y1730062*
X1837736Y1738543D02*
X1842421Y1743228D01*
X1853034*
X1837736Y1738543D02*
X1831524D01*
X1829646Y1740472*
X1874252Y1738583D02*
X1901438Y1765769D01*
X1914730*
X1877008Y1735669D02*
X1904213Y1762874D01*
X1907008*
X1904724Y1738661D02*
Y1743448D01*
X1904712*
Y1730062D02*
Y1731636D01*
X1907985Y1734909*
X1910782*
Y1739484*
X1918714Y1730062D02*
X1912030D01*
X1910782Y1731309*
X1937232Y1734901D02*
X1937236Y1734905D01*
X1939395*
X1937232Y1734901D02*
Y1736263D01*
X1937244Y1736275*
Y1736701*
X1939008Y1738465*
X1939016*
X1937125Y1731301D02*
X1939390D01*
X1939395Y1731305*
X1937126Y1731299D02*
X1937125Y1731301D01*
X1930915Y1734901D02*
X1937867Y1741853D01*
X1940852*
X1935073Y1734901D02*
X1937232D01*
X1935073Y1731301D02*
X1937125D01*
X1836378Y1740709D02*
X1840472Y1744803D01*
X1853810*
X1865866Y1743268D02*
X1874043Y1751445D01*
Y1751447*
X1883296Y1760700*
Y1760798*
X1895197Y1762598D02*
X1873701Y1741102D01*
X1857511*
X1853810Y1744803*
X1904712Y1743448D02*
Y1747750D01*
X1907929Y1750967*
X1910782*
X1940852Y1741853D02*
Y1753952D01*
X1939488Y1755315*
X1958099Y1741853D02*
X1960799Y1741879D01*
X1954378Y1747564D02*
Y1747603D01*
X1957654*
X1961457Y1747638*
Y1752757*
X1956615Y1757598*
X1875787Y1757717D02*
Y1760798D01*
X1875816*
X1910782Y1750967D02*
Y1754155D01*
X1910709Y1754229*
Y1757402*
X1927824Y1757616D02*
Y1758634D01*
X1924130Y1753098D02*
X1924224D01*
X1954378Y1751164D02*
X1954488Y1751275D01*
Y1755433*
X1918330Y1765769D02*
X1924074D01*
Y1766634*
X1918697Y1761078D02*
X1921044Y1763425D01*
X1931575*
Y1766634*
X1931574*
X1866535Y1780591D02*
Y1785075D01*
X1866518Y1785092*
Y1789592*
X1820529Y1799150D02*
Y1804038D01*
X1820433Y1804134*
X1897717Y1801047D02*
Y1801181D01*
X1897717*
X1908071Y1801024D02*
Y1801028D01*
X1908009Y1801089*
G54D27*
X1945945Y1699807D02*
Y1703447D01*
X1945862*
G54D30*
X1774806Y1653803D02*
Y1638053D01*
X1776424Y1636434*
X1789946*
X1791994Y1638482*
Y1653803*
X1774806*
X1844128Y1622051D02*
Y1616599D01*
X1850233*
X1851838Y1618205*
X1855606*
X1856240Y1618838*
Y1620621*
X1855699Y1621162*
X1850903*
X1850014Y1622051*
X1844128*
X1914606Y1611309D02*
X1908178Y1617737D01*
Y1629885*
X1928345*
Y1624083*
X1929912Y1622516*
X1938208*
Y1618972*
X1932044*
X1931185Y1619831*
X1921545*
X1920241Y1618527*
Y1611547*
X1914606*
Y1611309*
X1914418Y1582820D02*
X1925627D01*
X1926852Y1584044*
Y1587336*
X1925627Y1588561*
X1914418*
Y1582820*
X1942829Y1618772D02*
X1942783Y1631588D01*
X1945143*
Y1618272*
X1948118*
Y1607538*
X1949309Y1606347*
Y1595097*
X1946414Y1592202*
Y1588282*
X1946062Y1587930*
X1940181*
X1939597Y1588514*
Y1592633*
X1939964Y1593000*
X1944297*
Y1600417*
X1942829Y1601885*
X1942829D02*
Y1618772D01*
X1952903Y1631882D02*
X1961827D01*
Y1624272*
X1960074*
Y1628453*
X1952903*
Y1631882*
X1854857Y1669694D02*
X1860733D01*
Y1674766*
X1866390Y1680424*
X1883638*
Y1683483*
X1885184Y1685029*
X1892178*
Y1686174*
X1865680*
X1854857Y1675351*
Y1669694*
X1774806Y1653533D02*
X1791994D01*
X1774806Y1652633D02*
X1791994D01*
X1774806Y1651733D02*
X1791994D01*
X1774806Y1650833D02*
X1791994D01*
X1774806Y1649933D02*
X1791994D01*
X1774806Y1649033D02*
X1791994D01*
X1774806Y1648133D02*
X1791994D01*
X1774806Y1647233D02*
X1791994D01*
X1774806Y1646333D02*
X1791994D01*
X1774806Y1645433D02*
X1791994D01*
X1774806Y1644533D02*
X1791994D01*
X1774806Y1643633D02*
X1791994D01*
X1774806Y1642733D02*
X1791994D01*
X1774806Y1641833D02*
X1791994D01*
X1774806Y1640933D02*
X1791994D01*
X1774806Y1640033D02*
X1791994D01*
X1774806Y1639133D02*
X1791994D01*
X1774806Y1638233D02*
X1791745D01*
X1775526Y1637333D02*
X1790845D01*
X1844128Y1620198D02*
X1856240D01*
X1844128Y1619298D02*
X1856240D01*
X1844128Y1618398D02*
X1855799D01*
X1844128Y1621098D02*
X1855763D01*
X1844128Y1617498D02*
X1851131D01*
X1844128Y1621998D02*
X1850068D01*
X1908178Y1622108D02*
X1938208D01*
X1908178Y1621208D02*
X1938208D01*
X1908178Y1620308D02*
X1938208D01*
X1931608Y1619408D02*
X1938208D01*
X1908178Y1623008D02*
X1929420D01*
X1908178Y1623908D02*
X1928520D01*
X1908178Y1629308D02*
X1928345D01*
X1908178Y1628408D02*
X1928345D01*
X1908178Y1627508D02*
X1928345D01*
X1908178Y1626608D02*
X1928345D01*
X1908178Y1625708D02*
X1928345D01*
X1908178Y1624808D02*
X1928345D01*
X1908178Y1619408D02*
X1921123D01*
X1908178Y1618508D02*
X1920241D01*
X1908307Y1617608D02*
X1920241D01*
X1909207Y1616708D02*
X1920241D01*
X1910107Y1615808D02*
X1920241D01*
X1911007Y1614908D02*
X1920241D01*
X1911907Y1614008D02*
X1920241D01*
X1912807Y1613108D02*
X1920241D01*
X1913707Y1612208D02*
X1920241D01*
X1914418Y1587318D02*
X1926852D01*
X1914418Y1586418D02*
X1926852D01*
X1914418Y1585518D02*
X1926852D01*
X1914418Y1584618D02*
X1926852D01*
X1914418Y1583718D02*
X1926526D01*
X1914418Y1588218D02*
X1925969D01*
X1942829Y1605929D02*
X1949309D01*
X1942829Y1605029D02*
X1949309D01*
X1942829Y1604129D02*
X1949309D01*
X1942829Y1603229D02*
X1949309D01*
X1942829Y1602329D02*
X1949309D01*
X1943284Y1601429D02*
X1949309D01*
X1944184Y1600529D02*
X1949309D01*
X1944297Y1599629D02*
X1949309D01*
X1944297Y1598729D02*
X1949309D01*
X1944297Y1597829D02*
X1949309D01*
X1944297Y1596929D02*
X1949309D01*
X1944297Y1596029D02*
X1949309D01*
X1944297Y1595129D02*
X1949309D01*
X1942829Y1606829D02*
X1948827D01*
X1944297Y1594229D02*
X1948441D01*
X1942829Y1617629D02*
X1948118D01*
X1942829Y1616729D02*
X1948118D01*
X1942829Y1615829D02*
X1948118D01*
X1942829Y1614929D02*
X1948118D01*
X1942829Y1614029D02*
X1948118D01*
X1942829Y1613129D02*
X1948118D01*
X1942829Y1612229D02*
X1948118D01*
X1942829Y1611329D02*
X1948118D01*
X1942829Y1610429D02*
X1948118D01*
X1942829Y1609529D02*
X1948118D01*
X1942829Y1608629D02*
X1948118D01*
X1942829Y1607729D02*
X1948118D01*
X1944297Y1593329D02*
X1947541D01*
X1939597Y1592429D02*
X1946641D01*
X1939597Y1591529D02*
X1946414D01*
X1939597Y1590629D02*
X1946414D01*
X1939597Y1589729D02*
X1946414D01*
X1939597Y1588829D02*
X1946414D01*
X1942785Y1631129D02*
X1945143D01*
X1942788Y1630229D02*
X1945143D01*
X1942791Y1629329D02*
X1945143D01*
X1942794Y1628429D02*
X1945143D01*
X1942797Y1627529D02*
X1945143D01*
X1942801Y1626629D02*
X1945143D01*
X1942804Y1625729D02*
X1945143D01*
X1942807Y1624829D02*
X1945143D01*
X1942810Y1623929D02*
X1945143D01*
X1942813Y1623029D02*
X1945143D01*
X1942817Y1622129D02*
X1945143D01*
X1942820Y1621229D02*
X1945143D01*
X1942823Y1620329D02*
X1945143D01*
X1942826Y1619429D02*
X1945143D01*
X1942829Y1618529D02*
X1945143D01*
X1952903Y1631471D02*
X1961827D01*
X1952903Y1630571D02*
X1961827D01*
X1952903Y1629671D02*
X1961827D01*
X1952903Y1628771D02*
X1961827D01*
X1960074Y1627871D02*
X1961827D01*
X1960074Y1626971D02*
X1961827D01*
X1960074Y1626071D02*
X1961827D01*
X1960074Y1625171D02*
X1961827D01*
X1865399Y1685893D02*
X1892178D01*
X1864499Y1684993D02*
X1885148D01*
X1863599Y1684093D02*
X1884248D01*
X1862699Y1683193D02*
X1883638D01*
X1861799Y1682293D02*
X1883638D01*
X1860899Y1681393D02*
X1883638D01*
X1859999Y1680493D02*
X1883638D01*
X1859099Y1679593D02*
X1865560D01*
X1858199Y1678693D02*
X1864660D01*
X1857299Y1677793D02*
X1863760D01*
X1856399Y1676893D02*
X1862860D01*
X1855499Y1675993D02*
X1861960D01*
X1854857Y1675093D02*
X1861060D01*
X1854857Y1674193D02*
X1860733D01*
X1854857Y1673293D02*
X1860733D01*
X1854857Y1672393D02*
X1860733D01*
X1854857Y1671493D02*
X1860733D01*
X1854857Y1670593D02*
X1860733D01*
X1784106Y1615921D02*
G75*
G03X1784106I-4681J0D01*
G01X1957035Y1797047D02*
G03X1957035I-2665J0D01*
G01X1791248Y1763780D02*
G03X1791248I-5815J0D01*
G01X1854831Y1709803D02*
G03X1854831I-2666J0D01*
G01X1968004Y1580709D02*
Y1637261D01*
G03X1967099Y1637554I-500J-0*
G01X1964967Y1636454D02*
G03X1967099Y1637554I-25J2665D01*
G01X1964967Y1636454D02*
X1964365Y1636448D01*
G03X1964264Y1636437I5J-500*
G01X1963911Y1636400D02*
G03X1964264Y1636437I-0J1681D01*
G01X1963911Y1636400D02*
X1961911D01*
X1961709Y1636412D02*
G03X1961911Y1636400I202J1669D01*
G01X1961709Y1636412D02*
G03X1961649Y1636415I-60J-497D01*
G01X1960853*
X1960264*
G03X1960211Y1636412I0J-500*
G01X1960033Y1636403D02*
G03X1960211Y1636412I-0J1681D01*
G01X1960033Y1636403D02*
X1958033D01*
X1957517Y1636484D02*
G03X1958033Y1636403I516J1600D01*
G01X1957517Y1636484D02*
G03X1956910Y1635799I-153J-476D01*
G01X1957152Y1634582D02*
G03X1956910Y1635799I-2664J103D01*
G01X1957152Y1634582D02*
G03X1957651Y1634063I499J-19D01*
G01X1961827*
X1964008Y1631882D02*
G03X1961827Y1634063I-2181J-0D01*
G01X1964008Y1631882D02*
Y1624272D01*
X1961827Y1622091D02*
G03X1964008Y1624272I-0J2181D01*
G01X1961827Y1622091D02*
X1960074D01*
X1959074Y1622333D02*
G03X1960074Y1622091I1000J1939D01*
G01X1959074Y1622333D02*
G03X1959034Y1622352I-229J-444D01*
G01X1958828Y1622453D02*
G03X1959034Y1622352I842J1455D01*
G01X1958828Y1622453D02*
G03X1958078Y1622020I-250J-433D01*
G01Y1621306*
X1956397Y1619625D02*
G03X1958078Y1621306I-0J1681D01*
G01X1956397Y1619625D02*
X1953920D01*
G03X1953566Y1619478I0J-500*
G01X1953009Y1618920*
G03X1952862Y1618567I353J-353*
G01Y1617589*
G03X1952956Y1617298I500J0*
G01X1950797Y1613083D02*
G03X1952956Y1617298I-10J2665D01*
G01X1950797Y1613083D02*
G03X1950299Y1612583I2J-500D01*
G01Y1608649*
G03X1950445Y1608295I500J-0*
G01X1950851Y1607889*
X1951490Y1606347D02*
G03X1950851Y1607889I-2181J-0D01*
G01X1951490Y1606347D02*
Y1603231D01*
G03X1952391Y1602932I500J-0*
G01X1957115Y1601980D02*
G03X1952391Y1602932I-2587J-641D01*
G01X1957115Y1601980D02*
G03X1958097Y1602049I485J121D01*
G01X1963209Y1600749D02*
G03X1958097Y1602049I-2461J1023D01*
G01X1963209Y1600749D02*
G03X1963216Y1600351I462J-192D01*
G01X1958326Y1600275D02*
G03X1963216Y1600351I2461J-1023D01*
G01X1958326Y1600275D02*
G03X1958320Y1600673I-462J191D01*
G01X1958161Y1601130D02*
G03X1958320Y1600673I2587J642D01*
G01X1958161Y1601130D02*
G03X1957178Y1601061I-485J-121D01*
G01X1952391Y1599745D02*
G03X1957178Y1601061I2137J1594D01*
G01X1952391Y1599745D02*
G03X1951490Y1599446I-401J-299D01*
G01Y1595097*
X1950851Y1593555D02*
G03X1951490Y1595097I-1542J1542D01*
G01X1950851Y1593555D02*
X1948741Y1591445D01*
G03X1948595Y1591091I354J-354*
G01Y1588282*
X1947956Y1586739D02*
G03X1948595Y1588282I-1542J1543D01*
G01X1947956Y1586739D02*
X1947605Y1586388D01*
X1946062Y1585749D02*
G03X1947605Y1586388I0J2181D01*
G01X1946062Y1585749D02*
X1940181D01*
X1938638Y1586388D02*
G03X1940181Y1585749I1543J1542D01*
G01X1938638Y1586388D02*
X1938055Y1586971D01*
X1937416Y1588514D02*
G03X1938055Y1586971I2181J-0D01*
G01X1937416Y1588514D02*
Y1592633D01*
X1938055Y1594175D02*
G03X1937416Y1592633I1542J-1542D01*
G01X1938055Y1594175D02*
X1938422Y1594542D01*
X1939964Y1595181D02*
G03X1938422Y1594542I0J-2181D01*
G01X1939964Y1595181D02*
X1941616D01*
G03X1942116Y1595681I-0J500*
G01Y1599306*
G03X1941969Y1599660I-500J-0*
G01X1941286Y1600343*
X1940647Y1601885D02*
G03X1941286Y1600343I2182J-0D01*
G01X1940647Y1601885D02*
Y1609892D01*
G03X1939759Y1610206I-500J-0*
G01X1938452Y1609583D02*
G03X1939759Y1610206I0J1681D01*
G01X1938452Y1609583D02*
X1934712D01*
X1933703Y1609920D02*
G03X1934712Y1609583I1009J1344D01*
G01X1933703Y1609920D02*
G03X1933403Y1610020I-300J-400D01*
G01X1932494*
G03X1931994Y1609514I0J-500*
G01Y1609495D02*
G03Y1609514I-1681J-0D01*
G01Y1609495D02*
Y1608955D01*
G03X1932141Y1608601I500J0*
G01X1932648Y1608094*
X1933251Y1606775D02*
G03X1932648Y1608094I-2070J-148D01*
G01X1933251Y1606775D02*
G03X1933344Y1606519I498J36D01*
G01X1928534Y1605273D02*
G03X1933344Y1606519I2647J-312D01*
G01X1928534Y1605273D02*
G03X1928101Y1605827I-497J58D01*
G01X1926632Y1607495D02*
G03X1928101Y1605827I1681J-0D01*
G01X1926632Y1607495D02*
Y1609495D01*
X1926749Y1610111D02*
G03X1926632Y1609495I1564J-616D01*
G01X1926749Y1610111D02*
G03Y1610478I-465J184D01*
G01X1926632Y1611095D02*
G03X1926749Y1610478I1681J-0D01*
G01X1926632Y1611095D02*
Y1613095D01*
X1926998Y1614142D02*
G03X1926632Y1613095I1315J-1047D01*
G01X1926998Y1614142D02*
G03X1927002Y1614761I-391J312D01*
G01X1926647Y1615793D02*
G03X1927002Y1614761I1681J0D01*
G01X1926647Y1615793D02*
Y1617150D01*
G03X1926147Y1617650I-500J-0*
G01X1922922*
G03X1922422Y1617150I0J-500*
G01Y1611547*
X1920241Y1609366D02*
G03X1922422Y1611547I0J2181D01*
G01X1920241Y1609366D02*
X1915709D01*
G03X1915503Y1609322I-0J-500*
G01X1913063Y1609767D02*
G03X1915503Y1609322I1543J1542D01*
G01X1913063Y1609767D02*
X1906636Y1616195D01*
X1905997Y1617737D02*
G03X1906636Y1616195I2181J0D01*
G01X1905997Y1617737D02*
Y1629885D01*
X1908178Y1632066D02*
G03X1905997Y1629885I-0J-2181D01*
G01X1908178Y1632066D02*
X1928345D01*
X1930526Y1629885D02*
G03X1928345Y1632066I-2181J0D01*
G01X1930526Y1629885D02*
Y1625197D01*
G03X1931026Y1624697I500J-0*
G01X1938208*
X1939769Y1624039D02*
G03X1938208Y1624697I-1561J-1523D01*
G01X1939769Y1624039D02*
G03X1940627Y1624388I358J349D01*
G01Y1624390*
X1940627D02*
X1940602Y1631580D01*
X1942783Y1633769D02*
G03X1940602Y1631580I-0J-2181D01*
G01X1942783Y1633769D02*
X1945143D01*
X1946050Y1633572D02*
G03X1945143Y1633769I-907J-1984D01*
G01X1946050Y1633572D02*
G03X1946397Y1633546I208J454D01*
G01X1946865Y1633612D02*
G03X1946397Y1633546I-0J-1681D01*
G01X1946865Y1633612D02*
X1948565D01*
G03X1948939Y1633780I-0J500*
G01X1949023Y1633871D02*
G03X1948939Y1633780I1468J-1468D01*
G01X1949023Y1633871D02*
X1951305Y1636152D01*
X1952668Y1636757D02*
G03X1951305Y1636152I104J-2072D01*
G01X1952668Y1636757D02*
G03X1952934Y1636850I-26J500D01*
G01X1955703Y1637058D02*
G03X1952934Y1636850I-1215J-2373D01*
G01X1955703Y1637058D02*
G03X1956412Y1637636I227J445D01*
G01X1956352Y1638084D02*
G03X1956412Y1637636I1681J0D01*
G01X1956352Y1638084D02*
Y1639499D01*
G03X1955852Y1639999I-500J-0*
G01X1953939*
X1953193Y1640173D02*
G03X1953939Y1639999I746J1507D01*
G01X1953193Y1640173D02*
G03X1952753Y1640175I-222J-448D01*
G01X1952021Y1640008D02*
G03X1952753Y1640175I0J1681D01*
G01X1952021Y1640008D02*
X1950021D01*
X1949344Y1640150D02*
G03X1950021Y1640008I677J1539D01*
G01X1949344Y1640150D02*
G03X1948920Y1640140I-201J-458D01*
G01X1948171Y1639963D02*
G03X1948920Y1640140I-0J1682D01*
G01X1948171Y1639963D02*
X1946171D01*
X1945969Y1639976D02*
G03X1946171Y1639963I202J1669D01*
G01X1945969Y1639976D02*
G03X1945909Y1639979I-60J-497D01*
G01X1935801*
G03X1935447Y1639833I-0J-500*
G01X1933832Y1638217*
X1931947Y1637437D02*
G03X1933832Y1638217I0J2665D01*
G01X1931947Y1637437D02*
X1912968D01*
G03X1912468Y1636937I-0J-500*
G01Y1635651*
X1910787Y1633970D02*
G03X1912468Y1635651I-0J1681D01*
G01X1910787Y1633970D02*
X1908787D01*
X1908569Y1633984D02*
G03X1908787Y1633970I218J1667D01*
G01X1908569Y1633984D02*
G03X1908504Y1633988I-65J-496D01*
G01X1907441*
X1904786Y1636892D02*
G03X1907441Y1633988I2655J-238D01*
G01X1904786Y1636892D02*
G03X1904288Y1637437I-498J45D01*
G01X1884028*
X1882143Y1638217D02*
G03X1884028Y1637437I1885J1885D01*
G01X1882143Y1638217D02*
X1880077Y1640283D01*
G03X1879224Y1639930I-353J-353*
G01Y1620666*
G03X1879363Y1620320I500J-0*
G01X1879830Y1619157D02*
G03X1879363Y1620320I-1681J-0D01*
G01X1879830Y1619157D02*
Y1617157D01*
X1879713Y1616540D02*
G03X1879830Y1617157I-1564J617D01*
G01X1879713Y1616540D02*
G03Y1616173I465J-183D01*
G01X1879830Y1615557D02*
G03X1879713Y1616173I-1681J-0D01*
G01X1879830Y1615557D02*
Y1613557D01*
X1879664Y1612828D02*
G03X1879830Y1613557I-1515J729D01*
G01X1879664Y1612828D02*
G03X1879759Y1612260I451J-216D01*
G01X1880245Y1611078D02*
G03X1879759Y1612260I-1681J0D01*
G01X1880245Y1611078D02*
Y1607141D01*
X1878564Y1605460D02*
G03X1880245Y1607141I-0J1681D01*
G01X1878564Y1605460D02*
X1875808D01*
X1874127Y1607141D02*
G03X1875808Y1605460I1681J0D01*
G01X1874127Y1607141D02*
Y1611078D01*
X1874575Y1612221D02*
G03X1874127Y1611078I1233J-1143D01*
G01X1874575Y1612221D02*
G03X1874653Y1612789I-367J340D01*
G01X1874468Y1613557D02*
G03X1874653Y1612789I1681J-0D01*
G01X1874468Y1613557D02*
Y1615557D01*
X1874585Y1616173D02*
G03X1874468Y1615557I1564J-616D01*
G01X1874585Y1616173D02*
G03Y1616540I-465J184D01*
G01X1874468Y1617157D02*
G03X1874585Y1616540I1681J-0D01*
G01X1874468Y1617157D02*
Y1619157D01*
X1874935Y1620320D02*
G03X1874468Y1619157I1214J-1163D01*
G01X1874935Y1620320D02*
G03X1875074Y1620666I-361J346D01*
G01Y1642816*
G03X1874928Y1643169I-500J-0*
G01X1856214Y1661884*
G03X1855451Y1661817I-354J-354*
G01X1855347Y1661679D02*
G03X1855451Y1661817I-2079J1667D01*
G01X1855347Y1661679D02*
G03X1855335Y1661069I390J-313D01*
G01X1851110Y1661156D02*
G03X1855335Y1661069I2079J-1668D01*
G01X1851110Y1661156D02*
G03X1851122Y1661765I-390J313D01*
G01X1851738Y1665529D02*
G03X1851122Y1661765I1530J-2183D01*
G01X1851738Y1665529D02*
G03X1851805Y1666292I-287J410D01*
G01X1848100Y1669997*
X1847492Y1671465D02*
G03X1848100Y1669997I2075J-0D01*
G01X1847492Y1671465D02*
Y1676505D01*
G03X1847399Y1676796I-500J0*
G01X1851735D02*
G03X1847399I-2168J1550D01*
G01X1851735D02*
G03X1851642Y1676505I407J-291D01*
G01Y1672531*
G03X1851788Y1672178I500J0*
G01X1851822Y1672144*
G03X1852676Y1672497I354J353*
G01Y1675351*
X1853314Y1676893D02*
G03X1852676Y1675351I1543J-1542D01*
G01X1853314Y1676893D02*
X1861800Y1685379D01*
G03X1861447Y1686232I-353J353*
G01X1860796*
X1859329Y1686840D02*
G03X1860796Y1686232I1467J1467D01*
G01X1859329Y1686840D02*
X1852040Y1694129D01*
G03X1851376Y1694168I-354J-353*
G01X1850633Y1693754D02*
G03X1851376Y1694168I-909J2506D01*
G01X1850633Y1693754D02*
G03X1850497Y1692890I171J-470D01*
G01X1846270Y1691425D02*
G03X1850497Y1692890I2588J-638D01*
G01X1846270Y1691425D02*
G03X1845431Y1691898I-485J119D01*
G01X1839080Y1685547*
X1837196Y1684766D02*
G03X1839080Y1685547I-0J2666D01*
G01X1837196Y1684766D02*
X1832997D01*
G03X1832643Y1683913I-0J-500*
G01X1833945Y1682612*
G03X1834216Y1682472I353J353*
G01X1831150Y1679406D02*
G03X1834216Y1682472I2630J437D01*
G01X1831150Y1679406D02*
G03X1831011Y1679677I-493J-82D01*
G01X1830274Y1680414*
G03X1829920Y1680561I-354J-353*
G01X1805810*
G03X1805655Y1679585I0J-500*
G01X1796599Y1664660D02*
G03X1805655Y1679585I6275J6403D01*
G01X1796599Y1664660D02*
G03X1795754Y1664371I-349J-357D01*
G01X1795652Y1663981D02*
G03X1795754Y1664371I-1564J616D01*
G01X1795652Y1663981D02*
G03Y1663614I465J-184D01*
G01X1795769Y1662997D02*
G03X1795652Y1663614I-1681J0D01*
G01X1795769Y1662997D02*
Y1660997D01*
X1795705Y1660537D02*
G03X1795769Y1660997I-1617J460D01*
G01X1795705Y1660537D02*
G03X1795723Y1660213I481J-136D01*
G01X1795777Y1660061D02*
G03X1795723Y1660213I-1979J-624D01*
G01X1795777Y1660061D02*
G03X1795920Y1659839I477J151D01*
G01X1795961Y1659801D02*
G03X1795920Y1659839I-1163J-1214D01*
G01X1795961Y1659801D02*
G03X1796307Y1659662I346J361D01*
G01X1798877*
G03X1799223Y1659801I0J500*
G01X1800386Y1660269D02*
G03X1799223Y1659801I0J-1682D01*
G01X1800386Y1660269D02*
X1802386D01*
X1804067Y1658587D02*
G03X1802386Y1660269I-1681J0D01*
G01X1804067Y1658587D02*
Y1656587D01*
X1802386Y1654906D02*
G03X1804067Y1656587I0J1681D01*
G01X1802386Y1654906D02*
X1800386D01*
X1799223Y1655374D02*
G03X1800386Y1654906I1163J1213D01*
G01X1799223Y1655374D02*
G03X1798877Y1655513I-346J-361D01*
G01X1796307*
G03X1795961Y1655374I0J-500*
G01X1794798Y1654906D02*
G03X1795961Y1655374I0J1681D01*
G01X1794798Y1654906D02*
X1794798D01*
G03X1794309Y1654304I0J-500*
G01X1794345Y1653958D02*
G03X1794309Y1654304I-1681J-0D01*
G01X1794345Y1653958D02*
Y1646084D01*
X1794214Y1645434D02*
G03X1794345Y1646084I-1550J650D01*
G01X1794214Y1645434D02*
G03X1794175Y1645241I461J-193D01*
G01Y1638482*
X1793537Y1636940D02*
G03X1794175Y1638482I-1543J1542D01*
G01X1793537Y1636940D02*
X1791488Y1634892D01*
X1789946Y1634253D02*
G03X1791488Y1634892I0J2181D01*
G01X1789946Y1634253D02*
X1787315D01*
G03X1787248Y1634249I-0J-500*
G01X1786532D02*
G03X1787248I358J2641D01*
G01X1786532D02*
G03X1786465Y1634253I-67J-496D01*
G01X1776424*
X1774882Y1634892D02*
G03X1776424Y1634253I1542J1542D01*
G01X1774882Y1634892D02*
X1773263Y1636511D01*
X1773055Y1636752D02*
G03X1773263Y1636511I1751J1301D01*
G01X1773055Y1636752D02*
G03X1772154Y1636454I-401J-298D01*
G01Y1580709*
G03X1776772Y1576091I4618J-0*
G01X1783750*
G03X1783883Y1577072I0J500*
G01X1786983D02*
G03X1783883I-1550J5605D01*
G01X1786983D02*
G03X1787116Y1576091I133J-481D01*
G01X1953041*
G03X1953175Y1577072I0J500*
G01X1956274D02*
G03X1953175I-1550J5605D01*
G01X1956274D02*
G03X1956407Y1576091I133J-481D01*
G01X1963386*
G03X1968004Y1580709I-0J4618*
G01X1831127Y1611112D02*
G03X1830711Y1611977I-335J371D01*
G01X1829714Y1612001D02*
G03X1830711Y1611977I562J2605D01*
G01X1829714Y1612001D02*
G03X1829279Y1611136I-105J-489D01*
G01X1829791Y1610529D02*
G03X1829279Y1611136I-2271J-1395D01*
G01X1829791Y1610529D02*
G03X1830643I426J262D01*
G01X1831127Y1611112D02*
G03X1830643Y1610529I1786J-1978D01*
G01X1968004Y1640978D02*
Y1801181D01*
G03X1963386Y1805799I-4618J0*
G01X1776772*
G03X1772154Y1801181I-0J-4618*
G01Y1655531*
G03X1773051Y1655229I500J0*
G01X1774069Y1655861D02*
G03X1773051Y1655229I320J-1651D01*
G01X1774069Y1655861D02*
G03X1774128Y1655876I-96J490D01*
G01X1774806Y1655984D02*
G03X1774128Y1655876I-0J-2181D01*
G01X1774806Y1655984D02*
X1787020D01*
G03X1787519Y1656508I-0J500*
G01X1787517Y1656587D02*
G03X1787519Y1656508I1681J0D01*
G01X1787517Y1656587D02*
Y1658587D01*
X1787529Y1658789D02*
G03X1787517Y1658587I1669J-202D01*
G01X1787529Y1658789D02*
G03X1787533Y1658849I-496J60D01*
G01Y1678443*
X1788314Y1680327D02*
G03X1787533Y1678443I1884J-1884D01*
G01X1788314Y1680327D02*
X1805948Y1697962D01*
G03X1806094Y1698315I-354J353*
G01Y1732858*
G03X1805594Y1733358I-500J0*
G01X1805590*
X1804859*
G03X1804359Y1732858I-0J-500*
G01Y1727732*
X1803578Y1725847D02*
G03X1804359Y1727732I-1884J1885D01*
G01X1803578Y1725847D02*
X1784731Y1706999D01*
X1783059Y1706227D02*
G03X1784731Y1706999I-213J2657D01*
G01X1783059Y1706227D02*
G03X1782601Y1705775I40J-498D01*
G01X1780927Y1704250D02*
G03X1782601Y1705775I0J1681D01*
G01X1780927Y1704250D02*
X1779611D01*
G03X1779451Y1703276I-0J-500*
G01X1779026Y1694371D02*
G03X1779451Y1703276I-1052J4513D01*
G01X1779026Y1694371D02*
G03Y1693397I113J-487D01*
G01X1776923D02*
G03X1779026I1051J-4513D01*
G01X1776923D02*
G03Y1694371I-113J487D01*
G01X1776497Y1703276D02*
G03X1776923Y1694371I1477J-4392D01*
G01X1776497Y1703276D02*
G03X1776338Y1704250I-159J474D01*
G01X1775022*
X1773341Y1705931D02*
G03X1775022Y1704250I1681J0D01*
G01X1773341Y1705931D02*
Y1711837D01*
X1775022Y1713518D02*
G03X1773341Y1711837I-0J-1681D01*
G01X1775022Y1713518D02*
X1780927D01*
X1782258Y1712864D02*
G03X1780927Y1713518I-1331J-1027D01*
G01X1782258Y1712864D02*
G03X1783008Y1712815I396J305D01*
G01X1798882Y1728689*
G03X1799028Y1729043I-354J354*
G01Y1734451*
X1799153Y1735256D02*
G03X1799028Y1734451I2541J-805D01*
G01X1799153Y1735256D02*
G03X1799030Y1735761I-477J151D01*
G01X1786740Y1748050*
G03X1786387Y1748197I-353J-353*
G01X1782982*
G03X1782484Y1747745I-0J-500*
G01X1780811Y1746228D02*
G03X1782484Y1747745I0J1681D01*
G01X1780811Y1746228D02*
X1779495D01*
G03X1779335Y1745254I-0J-500*
G01X1778910Y1736349D02*
G03X1779335Y1745254I-1052J4513D01*
G01X1778910Y1736349D02*
G03Y1735375I113J-487D01*
G01X1776807D02*
G03X1778910I1051J-4513D01*
G01X1776807D02*
G03Y1736349I-113J487D01*
G01X1776382Y1745254D02*
G03X1776807Y1736349I1476J-4392D01*
G01X1776382Y1745254D02*
G03X1776222Y1746228I-160J474D01*
G01X1774906*
X1773225Y1747909D02*
G03X1774906Y1746228I1681J0D01*
G01X1773225Y1747909D02*
Y1753815D01*
X1774906Y1755496D02*
G03X1773225Y1753815I-0J-1681D01*
G01X1774906Y1755496D02*
X1780811D01*
X1782484Y1753979D02*
G03X1780811Y1755496I-1673J-164D01*
G01X1782484Y1753979D02*
G03X1782982Y1753527I498J48D01*
G01X1787698*
X1789583Y1752747D02*
G03X1787698Y1753527I-1885J-1885D01*
G01X1789583Y1752747D02*
X1803494Y1738835D01*
G03X1803847Y1738689I353J354*
G01X1805591*
X1805590*
X1805594*
G03X1806094Y1739189I0J500*
G01Y1760678*
G03X1805656Y1761174I-500J-0*
G01Y1766464D02*
G03Y1761174I328J-2645D01*
G01Y1766464D02*
G03X1806094Y1766960I-62J496D01*
G01Y1782173*
G03X1805948Y1782527I-500J0*
G01X1805792Y1782682*
X1809562Y1786452D02*
G03X1805792Y1782682I-1885J-1885D01*
G01X1809562Y1786452D02*
X1810645Y1785369D01*
X1811425Y1783484D02*
G03X1810645Y1785369I-2665J0D01*
G01X1811425Y1783484D02*
Y1767039D01*
G03X1811864Y1766543I500J-0*
G01Y1761253D02*
G03Y1766543I-329J2645D01*
G01Y1761253D02*
G03X1811425Y1760756I61J-497D01*
G01Y1697004*
X1810645Y1695120D02*
G03X1811425Y1697004I-1885J1884D01*
G01X1810645Y1695120D02*
X1801089Y1685564D01*
G03X1801442Y1684710I353J-354*
G01X1821787*
G03X1822141Y1685564I0J500*
G01X1819533Y1688172*
X1818752Y1690057D02*
G03X1819533Y1688172I2665J-0D01*
G01X1818752Y1690057D02*
Y1693780D01*
X1818824Y1694397D02*
G03X1818752Y1693780I2593J-617D01*
G01X1818824Y1694397D02*
G03X1818838Y1694513I-486J116D01*
G01Y1695007*
G03X1818834Y1695067I-500J0*
G01X1818822Y1695269D02*
G03X1818834Y1695067I1681J0D01*
G01X1818822Y1695269D02*
Y1697269D01*
X1820503Y1698950D02*
G03X1818822Y1697269I0J-1681D01*
G01X1820503Y1698950D02*
X1822503D01*
X1822705Y1698938D02*
G03X1822503Y1698950I-202J-1669D01*
G01X1822705Y1698938D02*
G03X1822765Y1698934I60J496D01*
G01X1823439*
X1823797Y1698910D02*
G03X1823439Y1698934I-358J-2641D01*
G01X1823797Y1698910D02*
G03X1823965Y1698916I68J496D01*
G01X1824303Y1698950D02*
G03X1823965Y1698916I-0J-1681D01*
G01X1824303Y1698950D02*
X1826303D01*
X1827012Y1698793D02*
G03X1826303Y1698950I-709J-1524D01*
G01X1827012Y1698793D02*
G03X1827434I211J453D01*
G01X1828144Y1698950D02*
G03X1827434Y1698793I0J-1681D01*
G01X1828144Y1698950D02*
X1829681D01*
G03X1830181Y1699450I-0J500*
G01Y1700864*
X1830193Y1701063D02*
G03X1830181Y1700864I1669J-199D01*
G01X1830193Y1701063D02*
G03X1830196Y1701122I-497J59D01*
G01Y1705139*
G03X1830192Y1705204I-500J0*
G01X1830528Y1706886D02*
G03X1830192Y1705204I2307J-1335D01*
G01X1830528Y1706886D02*
G03X1830030Y1707633I-433J251D01*
G01X1827101Y1709621D02*
G03X1830030Y1707633I2584J655D01*
G01X1827101Y1709621D02*
G03X1826549Y1709993I-484J-123D01*
G01X1826322Y1709978D02*
G03X1826549Y1709993I0J1681D01*
G01X1826322Y1709978D02*
X1825783D01*
G03X1825429Y1709831I-0J-500*
G01X1825085Y1709487*
G03X1824952Y1709015I353J-354*
G01X1824299Y1706555D02*
G03X1824952Y1709015I-1937J1831D01*
G01X1824299Y1706555D02*
G03X1824206Y1706007I363J-344D01*
G01X1824353Y1705320D02*
G03X1824206Y1706007I-1681J0D01*
G01X1824353Y1705320D02*
Y1703320D01*
X1822672Y1701639D02*
G03X1824353Y1703320I-0J1681D01*
G01X1822672Y1701639D02*
X1820672D01*
X1820215Y1701702D02*
G03X1820672Y1701639I457J1618D01*
G01X1820215Y1701702D02*
G03X1819986Y1701712I-136J-481D01*
G01X1817434Y1706030D02*
G03X1819986Y1701712I2054J-1699D01*
G01X1817434Y1706030D02*
G03X1817403Y1706701I-385J318D01*
G01X1817123Y1710133D02*
G03X1817403Y1706701I2168J-1550D01*
G01X1817123Y1710133D02*
G03X1817217Y1710423I-406J291D01*
G01X1817824Y1711887D02*
G03X1817217Y1710423I1467J-1467D01*
G01X1817824Y1711887D02*
X1818694Y1712757D01*
G03X1818840Y1713111I-354J354*
G01Y1713241*
G03X1818491Y1713718I-500J-0*
G01X1818697Y1718858D02*
G03X1818491Y1713718I594J-2598D01*
G01X1818697Y1718858D02*
G03X1819027Y1719581I-111J488D01*
G01X1818828Y1720374D02*
G03X1819027Y1719581I1681J0D01*
G01X1818828Y1720374D02*
Y1720914D01*
G03X1818681Y1721268I-500J0*
G01X1818552Y1721397*
X1817944Y1722864D02*
G03X1818552Y1721397I2075J-0D01*
G01X1817944Y1722864D02*
Y1724052D01*
G03X1817851Y1724342I-500J-0*
G01X1821637Y1728011D02*
G03X1817851Y1724342I-1618J-2118D01*
G01X1821637Y1728011D02*
G03X1822262Y1728025I304J397D01*
G01X1825527Y1728152D02*
G03X1822262Y1728025I-1551J-2168D01*
G01X1825527Y1728152D02*
G03X1825818Y1728059I291J407D01*
G01X1827559*
G03X1827912Y1728913I-0J500*
G01X1823001Y1733823*
X1822394Y1735291D02*
G03X1823001Y1733823I2075J-0D01*
G01X1822394Y1735291D02*
Y1753865D01*
G03X1822247Y1754219I-500J0*
G01X1819062Y1757404*
X1818454Y1758871D02*
G03X1819062Y1757404I2075J0D01*
G01X1818454Y1758871D02*
Y1792706D01*
G03X1818315Y1793052I-500J0*
G01X1817848Y1794215D02*
G03X1818315Y1793052I1681J0D01*
G01X1817848Y1794215D02*
Y1796215D01*
X1819529Y1797897D02*
G03X1817848Y1796215I-0J-1682D01*
G01X1819529Y1797897D02*
X1820948D01*
G03X1821448Y1798397I-0J500*
G01Y1800150*
X1823129Y1801831D02*
G03X1821448Y1800150I-0J-1681D01*
G01X1823129Y1801831D02*
X1825129D01*
X1826810Y1800150D02*
G03X1825129Y1801831I-1681J-0D01*
G01X1826810Y1800150D02*
Y1798150D01*
X1826786Y1797865D02*
G03X1826810Y1798150I-1657J285D01*
G01X1826786Y1797865D02*
G03X1826779Y1797780I493J-85D01*
G01Y1796585*
G03X1826786Y1796500I500J-0*
G01X1826810Y1796215D02*
G03X1826786Y1796500I-1681J0D01*
G01X1826810Y1796215D02*
Y1794215D01*
X1826798Y1794014D02*
G03X1826810Y1794215I-1669J201D01*
G01X1826798Y1794014D02*
G03X1826794Y1793954I496J-60D01*
G01Y1793535*
G03X1827177Y1793049I500J-0*
G01X1828462Y1791415D02*
G03X1827177Y1793049I-1681J-0D01*
G01X1828462Y1791415D02*
Y1785415D01*
X1828001Y1784259D02*
G03X1828462Y1785415I-1220J1156D01*
G01X1828001Y1784259D02*
G03Y1783571I363J-344D01*
G01X1828457Y1782538D02*
G03X1828001Y1783571I-1676J-123D01*
G01X1828457Y1782538D02*
G03X1828956Y1782075I499J37D01*
G01X1831378*
Y1776744D02*
G03Y1782075I-0J2665D01*
G01Y1776744D02*
X1828955D01*
G03X1828457Y1776283I0J-500*
G01X1827501Y1774896D02*
G03X1828457Y1776283I-720J1519D01*
G01X1827501Y1774896D02*
G03X1827504Y1773991I214J-452D01*
G01X1828546Y1770024D02*
G03X1827504Y1773991I-2168J1551D01*
G01X1828546Y1770024D02*
G03X1828453Y1769734I407J-290D01*
G01Y1743561*
G03X1829062Y1743073I500J0*
G01X1832255Y1741016D02*
G03X1829062Y1743073I-2609J-544D01*
G01X1832255Y1741016D02*
G03X1832744Y1740618I489J102D01*
G01X1833239*
G03X1833735Y1741053I0J500*
G01X1835941Y1743338D02*
G03X1833735Y1741053I437J-2629D01*
G01X1835941Y1743338D02*
G03X1836213Y1743478I-82J493D01*
G01X1839005Y1746270*
X1840472Y1746878D02*
G03X1839005Y1746270I0J-2075D01*
G01X1840472Y1746878D02*
X1853810D01*
X1855278Y1746270D02*
G03X1853810Y1746878I-1468J-1467D01*
G01X1855278Y1746270D02*
X1858224Y1743324D01*
G03X1858578Y1743177I354J353*
G01X1862727*
G03X1863223Y1743613I0J500*
G01X1865429Y1745897D02*
G03X1863223Y1743613I437J-2629D01*
G01X1865429Y1745897D02*
G03X1865701Y1746037I-82J493D01*
G01X1872507Y1752843*
G03X1872520Y1752857I-354J353*
G01X1872576Y1752914D02*
G03X1872520Y1752857I1467J-1467D01*
G01X1872576Y1752914D02*
X1879696Y1760035D01*
G03X1879843Y1760389I-353J354*
G01Y1762668*
X1881524Y1764349D02*
G03X1879843Y1762668I0J-1681D01*
G01X1881524Y1764349D02*
X1885067D01*
X1886748Y1762668D02*
G03X1885067Y1764349I-1681J0D01*
G01X1886748Y1762668D02*
Y1758928D01*
X1886636Y1758325D02*
G03X1886748Y1758928I-1569J603D01*
G01X1886636Y1758325D02*
G03X1887457Y1757792I467J-179D01*
G01X1892428Y1762764*
G03X1892568Y1763035I-354J353*
G01X1896826Y1764708D02*
G03X1892568Y1763035I-1629J-2110D01*
G01X1896826Y1764708D02*
G03X1897485Y1764750I306J396D01*
G01X1899971Y1767236*
X1901438Y1767844D02*
G03X1899971Y1767236I0J-2075D01*
G01X1901438Y1767844D02*
X1912221D01*
G03X1912567Y1767983I-0J500*
G01X1913730Y1768450D02*
G03X1912567Y1767983I-0J-1681D01*
G01X1913730Y1768450D02*
X1915730D01*
X1916346Y1768333D02*
G03X1915730Y1768450I-616J-1564D01*
G01X1916346Y1768333D02*
G03X1916713I184J465D01*
G01X1917330Y1768450D02*
G03X1916713Y1768333I-0J-1681D01*
G01X1917330Y1768450D02*
X1919330D01*
X1919942Y1768335D02*
G03X1919330Y1768450I-612J-1566D01*
G01X1919942Y1768335D02*
G03X1920616Y1768716I182J465D01*
G01X1922274Y1770115D02*
G03X1920616Y1768716I-0J-1681D01*
G01X1922274Y1770115D02*
X1925874D01*
X1927555Y1768434D02*
G03X1925874Y1770115I-1681J-0D01*
G01X1927555Y1768434D02*
Y1764834D01*
X1927080Y1763663D02*
G03X1927555Y1764834I-1206J1171D01*
G01X1927080Y1763663D02*
G03X1927439Y1762815I359J-348D01*
G01X1929624*
X1931305Y1761134D02*
G03X1929624Y1762815I-1681J-0D01*
G01X1931305Y1761134D02*
Y1756134D01*
X1930676Y1754823D02*
G03X1931305Y1756134I-1052J1311D01*
G01X1930676Y1754823D02*
G03X1930489Y1754433I313J-390D01*
G01Y1754360*
G03X1930493Y1754300I500J0*
G01X1930505Y1754098D02*
G03X1930493Y1754300I-1681J0D01*
G01X1930505Y1754098D02*
Y1753535D01*
G03X1931358Y1753182I500J0*
G01X1937242Y1759066*
X1938709Y1759673D02*
G03X1937242Y1759066I0J-2075D01*
G01X1938709Y1759673D02*
X1949540D01*
G03X1949951Y1760459I0J500*
G01X1958527Y1759380D02*
G03X1949951Y1760459I-3803J4400D01*
G01X1958527Y1759380D02*
G03X1958500Y1758648I326J-379D01*
G01X1962924Y1754224*
X1963532Y1752757D02*
G03X1962924Y1754224I-2075J-0D01*
G01X1963532Y1752757D02*
Y1749479D01*
G03X1963625Y1749188I500J-0*
G01X1959926Y1745456D02*
G03X1963625Y1749188I1531J2182D01*
G01X1959926Y1745456D02*
G03X1959635Y1745546I-287J-410D01*
G01X1957672Y1745528*
X1957654D02*
G03X1957672I-0J2075D01*
G01X1957654D02*
X1956926D01*
G03X1956571Y1745380I0J-500*
G01X1956306Y1745163D02*
G03X1956571Y1745380I-928J1401D01*
G01X1956306Y1745163D02*
G03X1956334Y1744312I276J-417D01*
G01X1957181Y1742853D02*
G03X1956334Y1744312I-1682J-0D01*
G01X1957181Y1742853D02*
Y1740853D01*
X1957166Y1740632D02*
G03X1957181Y1740853I-1667J221D01*
G01X1957166Y1740632D02*
G03X1957162Y1740566I496J-66D01*
G01Y1738307*
Y1738250*
G03X1957387Y1737832I500J0*
G01X1958146Y1736427D02*
G03X1957387Y1737832I-1681J-0D01*
G01X1958146Y1736427D02*
Y1732096D01*
X1957878Y1731185D02*
G03X1958146Y1732096I-1413J911D01*
G01X1957878Y1731185D02*
G03Y1730644I421J-270D01*
G01X1957959Y1730504D02*
G03X1957878Y1730644I-1494J-770D01*
G01X1957959Y1730504D02*
G03X1958403Y1730234I444J230D01*
G01X1958770*
X1960655Y1729453D02*
G03X1958770Y1730234I-1885J-1885D01*
G01X1960655Y1729453D02*
X1960664Y1729444D01*
X1958576Y1724901D02*
G03X1960664Y1729444I204J2658D01*
G01X1958576Y1724901D02*
G03X1958538Y1724903I-38J-498D01*
G01X1958403*
G03X1957959Y1724632I0J-500*
G01X1956465Y1723722D02*
G03X1957959Y1724632I-0J1681D01*
G01X1956465Y1723722D02*
X1952619D01*
G03X1952119Y1723222I0J-500*
G01Y1714749*
G03X1952266Y1714396I500J0*
G01X1952376Y1714285*
G03X1953218Y1714529I354J354*
G01X1953412Y1715016D02*
G03X1953218Y1714529I1445J-858D01*
G01X1953412Y1715016D02*
G03X1953437Y1715477I-430J255D01*
G01X1958531Y1716504D02*
G03X1953437Y1715477I-2665J71D01*
G01X1958531Y1716504D02*
G03X1959177Y1716012I499J-14D01*
G01X1962129Y1711914D02*
G03X1959177Y1716012I-2168J1551D01*
G01X1962129Y1711914D02*
G03X1962035Y1711623I406J-291D01*
G01Y1711255*
X1961428Y1709788D02*
G03X1962035Y1711255I-1467J1467D01*
G01X1961428Y1709788D02*
X1959731Y1708091D01*
X1958348Y1707485D02*
G03X1959731Y1708091I-84J2073D01*
G01X1958348Y1707485D02*
G03X1958022Y1707346I21J-499D01*
G01X1957457Y1706988D02*
G03X1958022Y1707346I-600J1570D01*
G01X1957457Y1706988D02*
G03X1957481Y1706045I179J-467D01*
G01X1958641Y1704447D02*
G03X1957481Y1706045I-1681J0D01*
G01X1958641Y1704447D02*
Y1702447D01*
X1958629Y1702245D02*
G03X1958641Y1702447I-1669J202D01*
G01X1958629Y1702245D02*
G03X1958625Y1702186I496J-59D01*
G01Y1699667*
G03X1958846Y1699252I500J-0*
G01X1959590Y1697856D02*
G03X1958846Y1699252I-1681J-0D01*
G01X1959590Y1697856D02*
Y1693525D01*
X1959322Y1692615D02*
G03X1959590Y1693525I-1413J910D01*
G01X1959322Y1692615D02*
G03Y1692073I421J-271D01*
G01X1959590Y1691163D02*
G03X1959322Y1692073I-1681J-0D01*
G01X1959590Y1691163D02*
Y1687370D01*
G03X1960090Y1686870I500J0*
G01X1961947*
G03X1961982Y1686872I0J500*
G01X1964050Y1682328D02*
G03X1961982Y1686872I-1885J1885D01*
G01X1964050Y1682328D02*
X1964043Y1682320D01*
X1962158Y1681540D02*
G03X1964043Y1682320I-0J2665D01*
G01X1962158Y1681540D02*
X1957122D01*
X1955237Y1682320D02*
G03X1957122Y1681540I1885J1885D01*
G01X1955237Y1682320D02*
X1954415Y1683142D01*
G03X1953563Y1682827I-353J-353*
G01X1950442Y1680407D02*
G03X1953563Y1682827I464J2624D01*
G01X1950442Y1680407D02*
G03X1950002Y1679561I-87J-493D01*
G01X1950580Y1678982*
G03X1950934Y1678836I354J354*
G01X1951638*
X1953008Y1678130D02*
G03X1951638Y1678836I-1370J-975D01*
G01X1953008Y1678130D02*
G03X1953415Y1677920I407J290D01*
G01X1954662*
X1954909Y1677909D02*
G03X1954662Y1677920I-247J-2654D01*
G01X1954909Y1677909D02*
G03X1954956Y1677907I47J498D01*
G01X1955691*
X1957372Y1676225D02*
G03X1955691Y1677907I-1681J0D01*
G01X1957372Y1676225D02*
Y1674225D01*
X1955691Y1672544D02*
G03X1957372Y1674225I0J1681D01*
G01X1955691Y1672544D02*
X1953691D01*
X1953464Y1672560D02*
G03X1953691Y1672544I227J1665D01*
G01X1953464Y1672560D02*
G03X1952993Y1672360I-67J-496D01*
G01X1951638Y1671674D02*
G03X1952993Y1672360I0J1681D01*
G01X1951638Y1671674D02*
X1948638D01*
X1948198Y1671732D02*
G03X1948638Y1671674I440J1623D01*
G01X1948198Y1671732D02*
G03X1947567Y1671250I-131J-482D01*
G01Y1670430*
X1947100Y1669267D02*
G03X1947567Y1670430I-1214J1163D01*
G01X1947100Y1669267D02*
G03X1946961Y1668921I361J-346D01*
G01Y1667224*
G03X1946963Y1667179I500J-0*
G01X1946971Y1666991D02*
G03X1946963Y1667179I-2075J0D01*
G01X1946971Y1666991D02*
Y1665744D01*
G03X1947477Y1665244I500J0*
G01X1947496D02*
G03X1947477I0J-1681D01*
G01X1947496D02*
X1949496D01*
X1950660Y1664777D02*
G03X1949496Y1665244I-1164J-1214D01*
G01X1950660Y1664777D02*
G03X1951005Y1664638I345J361D01*
G01X1952305*
G03X1952737Y1664886I0J500*
G01X1955246Y1666201D02*
G03X1952737Y1664886I-207J-2658D01*
G01X1955246Y1666201D02*
G03X1955779Y1666777I39J498D01*
G01X1955758Y1667040D02*
G03X1955779Y1666777I1681J0D01*
G01X1955758Y1667040D02*
Y1669040D01*
X1957439Y1670721D02*
G03X1955758Y1669040I0J-1681D01*
G01X1957439Y1670721D02*
X1959439D01*
X1959641Y1670709D02*
G03X1959439Y1670721I-202J-1669D01*
G01X1959641Y1670709D02*
G03X1959701Y1670705I60J496D01*
G01X1959758*
G03X1960171Y1670925I-0J500*
G01X1961563Y1671662D02*
G03X1960171Y1670925I-0J-1681D01*
G01X1961563Y1671662D02*
X1964563D01*
X1966244Y1669981D02*
G03X1964563Y1671662I-1681J0D01*
G01X1966244Y1669981D02*
Y1666181D01*
X1964563Y1664500D02*
G03X1966244Y1666181I-0J1681D01*
G01X1964563Y1664500D02*
X1962799D01*
G03X1962450Y1663642I-0J-500*
G01X1959040Y1659564D02*
G03X1962450Y1663642I1551J2168D01*
G01X1959040Y1659564D02*
G03X1958749Y1659657I-291J-407D01*
G01X1958304*
G03X1957951Y1659511I0J-500*
G01X1955652Y1657213*
G03X1955524Y1656727I354J-354*
G01X1950822Y1657626D02*
G03X1955524Y1656727I2131J-1602D01*
G01X1950822Y1657626D02*
G03X1950914Y1657833I-399J300D01*
G01X1951486Y1658914D02*
G03X1950914Y1657833I1467J-1467D01*
G01X1951486Y1658914D02*
X1952206Y1659635D01*
G03X1951852Y1660488I-354J353*
G01X1951005*
G03X1950660Y1660349I0J-500*
G01X1949496Y1659882D02*
G03X1950660Y1660349I0J1681D01*
G01X1949496Y1659882D02*
X1947496D01*
X1946880Y1659999D02*
G03X1947496Y1659882I616J1564D01*
G01X1946880Y1659999D02*
G03X1946513I-184J-465D01*
G01X1945896Y1659882D02*
G03X1946513Y1659999I0J1681D01*
G01X1945896Y1659882D02*
X1943896D01*
X1942733Y1660349D02*
G03X1943896Y1659882I1163J1214D01*
G01X1942733Y1660349D02*
G03X1942387Y1660488I-346J-361D01*
G01X1941146*
G03X1941118I-0J-500*
G01X1941001Y1660484D02*
G03X1941118Y1660488I0J2075D01*
G01X1941001Y1660484D02*
X1938967D01*
G03X1938676Y1660391I0J-500*
G01X1937032Y1665223D02*
G03X1938676Y1660391I94J-2664D01*
G01X1937032Y1665223D02*
G03X1937492Y1665870I-18J499D01*
G01X1937409Y1667083D02*
G03X1937492Y1665870I2630J-429D01*
G01X1937409Y1667083D02*
G03X1937415Y1667163I-494J80D01*
G01Y1670228*
G03X1937412Y1670287I-500J0*
G01X1937400Y1670484D02*
G03X1937412Y1670287I1681J0D01*
G01X1937400Y1670484D02*
Y1672484D01*
X1939081Y1674165D02*
G03X1937400Y1672484I0J-1681D01*
G01X1939081Y1674165D02*
X1941081D01*
X1942187Y1673751D02*
G03X1941081Y1674165I-1106J-1267D01*
G01X1942187Y1673751D02*
G03X1942830Y1673738I329J376D01*
G01X1943886Y1674111D02*
G03X1942830Y1673738I-0J-1681D01*
G01X1943886Y1674111D02*
X1945886D01*
X1946326Y1674052D02*
G03X1945886Y1674111I-440J-1622D01*
G01X1946326Y1674052D02*
G03X1946957Y1674535I131J483D01*
G01Y1674860*
G03X1946811Y1675213I-500J-0*
G01X1944051Y1677972*
X1943271Y1679857D02*
G03X1944051Y1677972I2665J-0D01*
G01X1943271Y1679857D02*
Y1685102D01*
G03X1943045Y1685520I-500J-0*
G01X1942287Y1686925D02*
G03X1943045Y1685520I1681J-0D01*
G01X1942287Y1686925D02*
Y1691256D01*
X1942554Y1692166D02*
G03X1942287Y1691256I1414J-910D01*
G01X1942554Y1692166D02*
G03Y1692708I-420J271D01*
G01X1942287Y1693618D02*
G03X1942554Y1692708I1681J-0D01*
G01X1942287Y1693618D02*
Y1697949D01*
X1943045Y1699354D02*
G03X1942287Y1697949I923J-1405D01*
G01X1943045Y1699354D02*
G03X1943271Y1699772I-274J418D01*
G01Y1699803*
X1943444Y1700748D02*
G03X1943271Y1699803I2492J-945D01*
G01X1943444Y1700748D02*
G03X1943476Y1700925I-468J177D01*
G01Y1701351*
G03X1943409Y1701602I-500J-0*
G01X1943181Y1702447D02*
G03X1943409Y1701602I1681J0D01*
G01X1943181Y1702447D02*
Y1704447D01*
X1943194Y1704655D02*
G03X1943181Y1704447I1668J-208D01*
G01X1943194Y1704655D02*
G03X1942344Y1705071I-496J62D01*
G01X1938870Y1701597*
G03X1938973Y1700811I354J-354*
G01X1935331Y1697168D02*
G03X1938973Y1700811I2307J1336D01*
G01X1935331Y1697168D02*
G03X1934545Y1697271I-433J-250D01*
G01X1934485Y1697212*
G03X1934339Y1696858I354J-354*
G01Y1680707*
X1933558Y1678823D02*
G03X1934339Y1680707I-1885J1884D01*
G01X1933558Y1678823D02*
X1931670Y1676935D01*
G03X1931524Y1676581I354J-354*
G01Y1658094*
G03X1931761Y1657669I500J0*
G01X1932138Y1657371D02*
G03X1931761Y1657669I-1467J-1468D01*
G01X1932138Y1657371D02*
X1933210Y1656299D01*
X1933817Y1654832D02*
G03X1933210Y1656299I-2074J-0D01*
G01X1933817Y1654832D02*
Y1646349D01*
X1933770Y1645908D02*
G03X1933817Y1646349I-2027J441D01*
G01X1933770Y1645908D02*
G03X1934295Y1645303I489J-107D01*
G01X1934489Y1645310D02*
G03X1934295Y1645303I0J-2665D01*
G01X1934489Y1645310D02*
X1943961D01*
G03X1944461Y1645806I-0J500*
G01X1949787Y1645932D02*
G03X1944461Y1645806I-2661J-145D01*
G01X1949787Y1645932D02*
G03X1949793Y1645877I500J27D01*
G01X1949794Y1645871*
X1949794*
X1949805Y1645801D02*
G03X1949794Y1645871I-2640J-368D01*
G01X1949805Y1645801D02*
G03X1950300Y1645370I495J69D01*
G01X1952021*
X1952767Y1645195D02*
G03X1952021Y1645370I-746J-1506D01*
G01X1952767Y1645195D02*
G03X1953207Y1645193I222J448D01*
G01X1953939Y1645361D02*
G03X1953207Y1645193I-0J-1681D01*
G01X1953939Y1645361D02*
X1955939D01*
X1956297Y1645322D02*
G03X1955939Y1645361I-358J-1642D01*
G01X1956297Y1645322D02*
G03X1956474Y1645316I107J489D01*
G01X1957354Y1645295D02*
G03X1956474Y1645316I-504J-2618D01*
G01X1957354Y1645295D02*
G03X1957582Y1645304I95J491D01*
G01X1958033Y1645365D02*
G03X1957582Y1645304I-0J-1681D01*
G01X1958033Y1645365D02*
X1960033D01*
X1961714Y1643684D02*
G03X1960033Y1645365I-1681J0D01*
G01X1961714Y1643684D02*
Y1642262D01*
G03X1962214Y1641762I500J-0*
G01X1962507*
G03X1962512I0J500*
G01X1964917Y1641784*
X1967099Y1640684D02*
G03X1964917Y1641784I-2157J-1565D01*
G01X1967099Y1640684D02*
G03X1968004Y1640978I405J294D01*
G01X1871251Y1694299D02*
G03X1870983Y1695221I-268J422D01*
G01X1869787*
X1868106Y1696902D02*
G03X1869787Y1695221I1681J0D01*
G01X1868106Y1696902D02*
Y1698902D01*
X1868212Y1699491D02*
G03X1868106Y1698902I1575J-589D01*
G01X1868212Y1699491D02*
G03X1867472Y1700086I-468J175D01*
G01X1863394Y1701886D02*
G03X1867472Y1700086I2630J437D01*
G01X1863394Y1701886D02*
G03X1863255Y1702158I-493J-82D01*
G01X1862391Y1703021*
X1861783Y1704488D02*
G03X1862391Y1703021I2075J0D01*
G01X1861783Y1704488D02*
Y1710141D01*
X1862391Y1711608D02*
G03X1861783Y1710141I1467J-1467D01*
G01X1862391Y1711608D02*
X1862626Y1711843D01*
G03X1862716Y1712428I-353J354*
G01X1862966Y1715286D02*
G03X1862716Y1712428I2113J-1625D01*
G01X1862966Y1715286D02*
G03X1862923Y1715945I-396J305D01*
G01X1854554Y1724314*
G03X1854200Y1724461I-354J-353*
G01X1852751*
G03X1852453Y1723559I-0J-500*
G01X1851698Y1718885D02*
G03X1852453Y1723559I-832J2532D01*
G01X1851698Y1718885D02*
G03X1851499Y1718058I156J-475D01*
G01X1848819Y1713635D02*
G03X1851499Y1718058I787J2546D01*
G01X1848819Y1713635D02*
G03X1848496Y1713625I-147J-478D01*
G01X1847906Y1713518D02*
G03X1848496Y1713625I0J1681D01*
G01X1847906Y1713518D02*
X1845915D01*
G03X1845434Y1713157I-0J-500*
G01X1840245Y1713461D02*
G03X1845434Y1713157I2629J437D01*
G01X1840245Y1713461D02*
G03X1840105Y1713732I-494J-82D01*
G01X1838979Y1714858*
G03X1838177Y1714726I-353J-354*
G01X1835953Y1713245D02*
G03X1838177Y1714726I-166J2661D01*
G01X1835953Y1713245D02*
G03X1835484Y1712746I31J-499D01*
G01Y1711603*
X1835417Y1711135D02*
G03X1835484Y1711603I-1614J468D01*
G01X1835417Y1711135D02*
G03X1835414Y1710869I481J-139D01*
G01X1834657Y1708251D02*
G03X1835414Y1710869I-1822J1946D01*
G01X1834657Y1708251D02*
G03X1834661Y1707518I341J-365D01*
G01X1835527Y1705551D02*
G03X1834661Y1707518I-2665J0D01*
G01X1835527Y1705551D02*
Y1701130D01*
G03X1835531Y1701069I500J-0*
G01X1835543Y1700864D02*
G03X1835531Y1701069I-1681J0D01*
G01X1835543Y1700864D02*
Y1698864D01*
X1835426Y1698248D02*
G03X1835543Y1698864I-1564J616D01*
G01X1835426Y1698248D02*
G03Y1697881I465J-184D01*
G01X1835543Y1697264D02*
G03X1835426Y1697881I-1681J0D01*
G01X1835543Y1697264D02*
Y1695264D01*
X1834088Y1693599D02*
G03X1835543Y1695264I-226J1665D01*
G01X1834088Y1693599D02*
G03X1833667Y1693210I67J-496D01*
G01X1831323Y1691127D02*
G03X1833667Y1693210I-260J2653D01*
G01X1831323Y1691127D02*
G03X1830919Y1690841I49J-498D01*
G01X1830906Y1690814D02*
G03X1830919Y1690841I-2402J1155D01*
G01X1830906Y1690814D02*
G03X1831357Y1690097I451J-217D01*
G01X1835885*
G03X1836238Y1690244I-0J500*
G01X1840777Y1694783*
G03X1840923Y1695167I-353J353*
G01X1840920Y1695269D02*
G03X1840923Y1695167I1681J0D01*
G01X1840920Y1695269D02*
Y1697269D01*
X1842601Y1698950D02*
G03X1840920Y1697269I-0J-1681D01*
G01X1842601Y1698950D02*
X1844601D01*
X1847483*
X1847513*
G03X1848013Y1699450I0J500*
G01Y1701641*
G03X1847867Y1701994I-500J-0*
G01X1846803Y1703058*
G03X1846532Y1703197I-353J-354*
G01X1849598Y1706264D02*
G03X1846532Y1703197I-2629J-437D01*
G01X1849598Y1706264D02*
G03X1849738Y1705992I493J82D01*
G01X1851555Y1704174*
X1852163Y1702707D02*
G03X1851555Y1704174I-2075J0D01*
G01X1852163Y1702707D02*
Y1702654D01*
G03X1852665Y1702154I500J-0*
G01X1855306Y1699925D02*
G03X1852665Y1702154I-2629J-437D01*
G01X1855307Y1699925D02*
G03X1855446Y1699653I493J82D01*
G01X1862312Y1692787*
G03X1863165Y1693167I354J354*
G01X1868394Y1692591D02*
G03X1863165Y1693167I-2567J716D01*
G01X1868394Y1692591D02*
G03X1868876Y1691957I482J-134D01*
G01X1869538*
G03X1870034Y1692392I0J500*
G01X1871251Y1694299D02*
G03X1870034Y1692392I1426J-2252D01*
G01X1882258Y1752594D02*
G03X1882300Y1753253I-354J353D01*
G01X1881746Y1754989D02*
G03X1882300Y1753253I2663J-107D01*
G01X1881746Y1754989D02*
G03X1880893Y1755363I-499J21D01*
G01X1875579Y1750049*
G03X1875566Y1750035I354J-353*
G01X1875510Y1749978D02*
G03X1875566Y1750035I-1467J1467D01*
G01X1875510Y1749978D02*
X1869563Y1744031D01*
G03X1869917Y1743177I354J-354*
G01X1872634*
G03X1872988Y1743324I0J500*
G01X1882258Y1752594*
X1851933Y1728610D02*
G03X1852287Y1729464I0J500D01*
G01X1843536Y1738215*
G03X1843264Y1738355I-354J-353*
G01X1841866Y1739051D02*
G03X1843264Y1738355I1835J1933D01*
G01X1841866Y1739051D02*
G03X1841169Y1739041I-344J-363D01*
G01X1839203Y1737076*
X1837736Y1736468D02*
G03X1839203Y1737076I0J2075D01*
G01X1837736Y1736468D02*
X1832194D01*
G03X1831840Y1735615I-0J-500*
G01X1839538Y1727917*
X1840146Y1726450D02*
G03X1839538Y1727917I-2075J0D01*
G01X1840146Y1726450D02*
Y1719767D01*
G03X1840292Y1719414I500J0*
G01X1843039Y1716667*
G03X1843311Y1716527I354J353*
G01X1843591Y1716465D02*
G03X1843311Y1716527I-717J-2567D01*
G01X1843591Y1716465D02*
G03X1844225Y1716946I134J481D01*
G01Y1717199*
X1844742Y1718412D02*
G03X1844225Y1717199I1164J-1213D01*
G01X1844742Y1718412D02*
G03X1844717Y1719155I-346J360D01*
G01X1844117Y1720443D02*
G03X1844717Y1719155I1681J0D01*
G01X1844117Y1720443D02*
Y1722443D01*
X1844469Y1723473D02*
G03X1844117Y1722443I1329J-1030D01*
G01X1844469Y1723473D02*
G03X1844319Y1724215I-395J306D01*
G01X1847180Y1728704D02*
G03X1844319Y1724215I-1550J-2169D01*
G01X1847180Y1728704D02*
G03X1847471Y1728610I291J406D01*
G01X1851933*
X1829737Y1721238D02*
G03X1830218Y1722075I128J483D01*
G01X1828530Y1723763*
G03X1828177Y1723909I-353J-354*
G01X1825818*
G03X1825527Y1723816I-0J-500*
G01X1824526Y1723376D02*
G03X1825527Y1723816I-550J2608D01*
G01X1824526Y1723376D02*
G03X1824143Y1722769I103J-489D01*
G01X1824190Y1722374D02*
G03X1824143Y1722769I-1681J0D01*
G01X1824190Y1722374D02*
Y1721450D01*
G03X1824789Y1720959I500J-0*
G01X1826710Y1720618D02*
G03X1824789Y1720959I-1395J-2272D01*
G01X1826710Y1720618D02*
G03X1827300Y1720668I261J426D01*
G01X1829737Y1721238D02*
G03X1827300Y1720668I-682J-2577D01*
G01X1891917Y1719664D02*
G03X1892271Y1720517I0J500D01*
G01X1881742Y1731046*
G03X1881389Y1731193I-353J-353*
G01X1876346*
X1874879Y1731800D02*
G03X1876346Y1731193I1467J1467D01*
G01X1874879Y1731800D02*
X1869528Y1737151D01*
G03X1869175Y1737298I-353J-353*
G01X1858143*
G03X1857789Y1736444I-0J-500*
G01X1875429Y1718805*
X1876004Y1717705D02*
G03X1875429Y1718805I-2042J-367D01*
G01X1876004Y1717705D02*
G03X1876807Y1717402I492J89D01*
G01X1877779Y1717891D02*
G03X1876807Y1717402I686J-2576D01*
G01X1877779Y1717891D02*
G03X1878133Y1718245I-129J483D01*
G01X1882877Y1716009D02*
G03X1878133Y1718245I-2168J1550D01*
G01X1882877Y1716009D02*
G03X1882783Y1715718I406J-291D01*
G01Y1713665*
G03X1882930Y1713311I500J-0*
G01X1883117Y1713124*
G03X1883470Y1712978I353J354*
G01X1888306*
G03X1888803Y1713526I-0J500*
G01X1888986Y1714779D02*
G03X1888803Y1713526I2471J-999D01*
G01X1888986Y1714779D02*
G03X1888965Y1715199I-464J187D01*
G01X1888771Y1715983D02*
G03X1888965Y1715199I1681J-0D01*
G01X1888771Y1715983D02*
Y1717983D01*
X1890452Y1719664D02*
G03X1888771Y1717983I0J-1681D01*
G01X1890452Y1719664D02*
X1891917D01*
X1899065Y1694187D02*
G03X1899536Y1694855I-0J500D01*
G01X1899418Y1695311D02*
G03X1899536Y1694855I2629J437D01*
G01X1899418Y1695311D02*
G03X1899278Y1695583I-493J-82D01*
G01X1896053Y1698808*
X1895445Y1700276D02*
G03X1896053Y1698808I2075J-0D01*
G01X1895445Y1700276D02*
Y1702153D01*
G03X1895298Y1702507I-500J0*
G01X1891740Y1706065*
G03X1891387Y1706211I-353J-354*
G01X1882794*
X1881327Y1706819D02*
G03X1882794Y1706211I1467J1467D01*
G01X1881327Y1706819D02*
X1879708Y1708438D01*
G03X1878971Y1708405I-353J-354*
G01X1877835Y1707611D02*
G03X1878971Y1708405I-906J2507D01*
G01X1877835Y1707611D02*
G03X1877506Y1707120I170J-470D01*
G01X1876893Y1705305D02*
G03X1877506Y1707120I-2050J1703D01*
G01X1876893Y1705305D02*
G03X1876800Y1704838I385J-320D01*
G01X1871623Y1703618D02*
G03X1876800Y1704838I2629J437D01*
G01X1871623Y1703618D02*
G03X1871483Y1703890I-494J-82D01*
G01X1869541Y1705831*
G03X1868688Y1705465I-353J-353*
G01X1868354Y1704101D02*
G03X1868688Y1705465I-2330J1293D01*
G01X1868354Y1704101D02*
G03Y1703616I438J-243D01*
G01X1868389Y1701094D02*
G03X1868354Y1703616I-2365J1229D01*
G01X1868389Y1701094D02*
G03X1869051Y1700414I443J-231D01*
G01X1869787Y1700583D02*
G03X1869051Y1700414I0J-1681D01*
G01X1869787Y1700583D02*
X1871787D01*
X1872958Y1700109D02*
G03X1871787Y1700583I-1171J-1207D01*
G01X1872958Y1700109D02*
G03X1873530Y1700021I348J359D01*
G01X1874713Y1694972D02*
G03X1873530Y1700021I11J2666D01*
G01X1874713Y1694972D02*
G03X1874390Y1694089I-2J-500D01*
G01X1875320Y1692392D02*
G03X1874390Y1694089I-2643J-345D01*
G01X1875320Y1692392D02*
G03X1875816Y1691957I496J65D01*
G01X1884788*
G03X1885141Y1692103I-0J500*
G01X1886618Y1693580*
X1888085Y1694187D02*
G03X1886618Y1693580I0J-2074D01*
G01X1888085Y1694187D02*
X1899065D01*
X1927740Y1749564D02*
G03X1927387Y1750417I-353J353D01*
G01X1926824*
X1926207Y1750534D02*
G03X1926824Y1750417I617J1564D01*
G01X1926207Y1750534D02*
G03X1925840I-183J-465D01*
G01X1925224Y1750417D02*
G03X1925840Y1750534I-0J1681D01*
G01X1925224Y1750417D02*
X1924278D01*
G03X1924252I0J-500*
G01X1924110Y1750413D02*
G03X1924252Y1750417I-0J2665D01*
G01X1924110Y1750413D02*
X1921913D01*
G03X1921413Y1749913I0J-500*
G01Y1748478*
X1921387Y1748181D02*
G03X1921413Y1748478I-1655J297D01*
G01X1921387Y1748181D02*
G03X1921379Y1748092I492J-89D01*
G01Y1748090*
G03X1921514Y1747748I500J-0*
G01X1921970Y1746597D02*
G03X1921514Y1747748I-1681J0D01*
G01X1921970Y1746597D02*
Y1740298D01*
X1920289Y1738617D02*
G03X1921970Y1740298I-0J1681D01*
G01X1920289Y1738617D02*
X1917139D01*
X1915457Y1740298D02*
G03X1917139Y1738617I1682J0D01*
G01X1915457Y1740298D02*
Y1744550D01*
G03X1914728Y1744994I-500J0*
G01X1913887Y1744724D02*
G03X1914728Y1744994I-383J2638D01*
G01X1913887Y1744724D02*
G03X1913460Y1744196I72J-494D01*
G01X1913464Y1744084D02*
G03X1913460Y1744196I-1682J-0D01*
G01X1913464Y1744084D02*
Y1742084D01*
X1913346Y1741467D02*
G03X1913464Y1742084I-1564J617D01*
G01X1913346Y1741467D02*
G03Y1741100I466J-183D01*
G01X1913464Y1740484D02*
G03X1913346Y1741100I-1682J-0D01*
G01X1913464Y1740484D02*
Y1738484D01*
X1913140Y1737492D02*
G03X1913464Y1738484I-1358J992D01*
G01X1913140Y1737492D02*
G03Y1736902I403J-295D01*
G01X1913464Y1735909D02*
G03X1913140Y1736901I-1682J0D01*
G01X1913464Y1735909D02*
Y1733909D01*
X1913346Y1733293D02*
G03X1913464Y1733909I-1564J616D01*
G01X1913346Y1733293D02*
G03Y1732926I466J-184D01*
G01X1913445Y1732562D02*
G03X1913346Y1732926I-1663J-253D01*
G01X1913445Y1732562D02*
G03X1913939Y1732137I494J75D01*
G01X1914957*
G03X1915457Y1732637I0J500*
G01Y1733211*
X1917139Y1734892D02*
G03X1915457Y1733211I-0J-1681D01*
G01X1917139Y1734892D02*
X1920289D01*
X1921970Y1733211D02*
G03X1920289Y1734892I-1681J0D01*
G01X1921970Y1733211D02*
Y1726912D01*
X1921059Y1725418D02*
G03X1921970Y1726912I-770J1494D01*
G01X1921059Y1725418D02*
G03X1920788Y1724974I229J-444D01*
G01Y1724707*
G03X1920933Y1724356I500J0*
G01X1921420Y1723172D02*
G03X1920933Y1724356I-1681J0D01*
G01X1921420Y1723172D02*
Y1721172D01*
X1921303Y1720556D02*
G03X1921420Y1721172I-1564J616D01*
G01X1921303Y1720556D02*
G03Y1720189I465J-184D01*
G01X1921420Y1719572D02*
G03X1921303Y1720189I-1681J0D01*
G01X1921420Y1719572D02*
Y1717572D01*
X1919739Y1715891D02*
G03X1921420Y1717572I0J1681D01*
G01X1919739Y1715891D02*
X1917739D01*
X1917393Y1715927D02*
G03X1917739Y1715891I346J1645D01*
G01X1917393Y1715927D02*
G03X1917233Y1715935I-103J-489D01*
G01X1915774Y1720985D02*
G03X1917233Y1715935I1155J-2402D01*
G01X1915774Y1720985D02*
G03X1916058Y1721436I-216J451D01*
G01Y1723172*
X1916506Y1724315D02*
G03X1916058Y1723172I1233J-1143D01*
G01X1916506Y1724315D02*
G03X1916639Y1724654I-367J339D01*
G01Y1724974*
G03X1916368Y1725418I-500J-0*
G01X1915457Y1726912D02*
G03X1916368Y1725418I1682J0D01*
G01X1915457Y1726912D02*
Y1727487D01*
G03X1914957Y1727987I-500J-0*
G01X1912030*
X1910660Y1728504D02*
G03X1912030Y1727987I1370J1558D01*
G01X1910660Y1728504D02*
G03X1910330Y1728628I-330J-376D01*
G01X1909782*
X1908769Y1728968D02*
G03X1909782Y1728628I1013J1341D01*
G01X1908769Y1728968D02*
G03X1907968Y1728569I-301J-399D01*
G01Y1726912*
X1906287Y1725231D02*
G03X1907968Y1726912I-0J1681D01*
G01X1906287Y1725231D02*
X1903137D01*
X1901456Y1726912D02*
G03X1903137Y1725231I1681J0D01*
G01X1901456Y1726912D02*
Y1733211D01*
X1903137Y1734892D02*
G03X1901456Y1733211I-0J-1681D01*
G01X1903137Y1734892D02*
X1904827D01*
G03X1905180Y1735039I-0J500*
G01X1906518Y1736377*
X1907873Y1736981D02*
G03X1906518Y1736377I112J-2072D01*
G01X1907873Y1736981D02*
G03X1908290Y1737710I-27J499D01*
G01X1908101Y1738484D02*
G03X1908290Y1737710I1681J-0D01*
G01X1908101Y1738484D02*
Y1740484D01*
X1908218Y1741100D02*
G03X1908101Y1740484I1564J-616D01*
G01X1908218Y1741100D02*
G03Y1741467I-465J184D01*
G01X1908101Y1742084D02*
G03X1908218Y1741467I1681J-0D01*
G01X1908101Y1742084D02*
Y1744084D01*
X1908113Y1744285D02*
G03X1908101Y1744084I1669J-201D01*
G01X1908113Y1744285D02*
G03X1908117Y1744345I-496J60D01*
G01Y1746105*
G03X1908113Y1746165I-500J0*
G01X1908101Y1746367D02*
G03X1908113Y1746165I1681J-0D01*
G01X1908101Y1746367D02*
Y1748367D01*
X1909782Y1750048D02*
G03X1908101Y1748367I0J-1681D01*
G01X1909782Y1750048D02*
X1911782D01*
X1911984Y1750036D02*
G03X1911782Y1750048I-202J-1669D01*
G01X1911984Y1750036D02*
G03X1912044Y1750032I60J496D01*
G01X1913499*
X1915227Y1749396D02*
G03X1913499Y1750032I-1728J-2029D01*
G01X1915227Y1749396D02*
G03X1916051Y1749777I324J381D01*
G01Y1750478*
X1916168Y1751095D02*
G03X1916051Y1750478I1564J-617D01*
G01X1916168Y1751095D02*
G03Y1751462I-465J183D01*
G01X1916051Y1752078D02*
G03X1916168Y1751462I1681J0D01*
G01X1916051Y1752078D02*
Y1754078D01*
X1916063Y1754280D02*
G03X1916051Y1754078I1669J-202D01*
G01X1916063Y1754280D02*
G03X1916067Y1754340I-496J60D01*
G01Y1756007*
G03X1916055Y1756115I-500J0*
G01X1916016Y1756478D02*
G03X1916055Y1756115I1681J-0D01*
G01X1916016Y1756478D02*
Y1758478D01*
X1917697Y1760159D02*
G03X1916016Y1758478I-0J-1681D01*
G01X1917697Y1760159D02*
X1919697D01*
X1921378Y1758478D02*
G03X1919697Y1760159I-1681J-0D01*
G01X1921378Y1758478D02*
Y1758441D01*
G03X1922234Y1758090I500J-0*
G01X1923889Y1758875D02*
G03X1922234Y1758090I245J-2655D01*
G01X1923889Y1758875D02*
G03X1924342Y1759372I-46J497D01*
G01X1924343D02*
Y1761134D01*
X1924817Y1762304D02*
G03X1924343Y1761134I1207J-1170D01*
G01X1924817Y1762304D02*
G03X1924458Y1763152I-359J348D01*
G01X1922274*
X1921166Y1763569D02*
G03X1922274Y1763152I1108J1265D01*
G01X1921166Y1763569D02*
G03X1920492Y1763554I-329J-377D01*
G01X1919330Y1763088D02*
G03X1920492Y1763554I-0J1681D01*
G01X1919330Y1763088D02*
X1917330D01*
X1916713Y1763205D02*
G03X1917330Y1763088I617J1564D01*
G01X1916713Y1763205D02*
G03X1916346I-183J-465D01*
G01X1915730Y1763088D02*
G03X1916346Y1763205I-0J1681D01*
G01X1915730Y1763088D02*
X1913730D01*
X1912567Y1763555D02*
G03X1913730Y1763088I1163J1214D01*
G01X1912567Y1763555D02*
G03X1912221Y1763694I-346J-361D01*
G01X1910157*
G03X1909660Y1763143I0J-500*
G01X1905513Y1760667D02*
G03X1909660Y1763143I1495J2207D01*
G01X1905513Y1760667D02*
G03X1904879Y1760607I-280J-414D01*
G01X1880469Y1736196*
G03X1880822Y1735342I353J-354*
G01X1882455*
X1883922Y1734735D02*
G03X1882455Y1735342I-1467J-1468D01*
G01X1883922Y1734735D02*
X1903766Y1714891D01*
G03X1904004Y1714758I354J354*
G01X1901254Y1710566D02*
G03X1904004Y1714758I2132J1599D01*
G01X1901254Y1710566D02*
G03X1900364Y1710366I-400J-301D01*
G01X1896511Y1708545D02*
G03X1900364Y1710366I1243J2358D01*
G01X1896511Y1708545D02*
G03X1895925Y1707749I-233J-442D01*
G01X1898987Y1704687*
X1899395Y1704107D02*
G03X1898987Y1704687I-1875J-887D01*
G01X1899395Y1704107D02*
G03X1900188Y1703956I452J214D01*
G01X1902989Y1704486D02*
G03X1900188Y1703956I-981J-2478D01*
G01X1902989Y1704486D02*
G03X1903268Y1704460I184J465D01*
G01X1903587Y1704491D02*
G03X1903268Y1704460I0J-1681D01*
G01X1903587Y1704491D02*
X1905587D01*
X1907268Y1702810D02*
G03X1905587Y1704491I-1681J-0D01*
G01X1907268Y1702810D02*
Y1700810D01*
X1905587Y1699129D02*
G03X1907268Y1700810I0J1681D01*
G01X1905587Y1699129D02*
X1903587D01*
X1903384Y1699141D02*
G03X1903587Y1699129I203J1669D01*
G01X1903384Y1699141D02*
G03X1903057Y1699068I-61J-496D01*
X1902827Y1699311I-456J-203*
G01X1902790Y1699330D02*
G03X1902827Y1699311I797J1480D01*
G01X1902790Y1699330D02*
G03X1902467Y1699382I-237J-440D01*
G01X1902462D02*
G03X1902467I-454J2626D01*
G01X1902462D02*
G03X1902194Y1698535I86J-493D01*
G01X1902212Y1698517*
G03X1902484Y1698377I354J354*
G01X1902513Y1698372D02*
G03X1902484Y1698377I-466J-2624D01*
G01X1902513Y1698372D02*
G03X1902867Y1698441I88J493D01*
X1903122Y1698187I456J204*
G01X1904554Y1696654D02*
G03X1903122Y1698187I-2507J-906D01*
G01X1904554Y1696654D02*
G03X1905378Y1696470I470J170D01*
G01X1910756Y1701849*
G03X1910903Y1702202I-353J353*
G01Y1702507*
X1911510Y1703975D02*
G03X1910903Y1702507I1467J-1468D01*
G01X1911510Y1703975D02*
X1925594Y1718058D01*
G03X1925740Y1718411I-354J353*
G01Y1746704*
X1926348Y1748171D02*
G03X1925740Y1746704I1467J-1467D01*
G01X1926348Y1748171D02*
X1927740Y1749564D01*
X1946789Y1716570D02*
Y1723315D01*
G03X1946289Y1723815I-500J-0*
G01X1942554*
X1941053Y1724737D02*
G03X1942554Y1723815I1501J759D01*
G01X1941053Y1724737D02*
G03X1940607Y1725012I-446J-225D01*
G01X1935118*
X1932554*
X1930732Y1725733D02*
G03X1932554Y1725012I1822J1944D01*
G01X1930732Y1725733D02*
G03X1929890Y1725368I-342J-365D01*
G01Y1721200*
G03X1930734Y1720837I500J0*
G01X1932160Y1721406D02*
G03X1930734Y1720837I0J-2075D01*
G01X1932160Y1721406D02*
X1939143D01*
G03X1939434Y1721499I0J500*
G01Y1717163D02*
G03Y1721499I1550J2168D01*
G01Y1717163D02*
G03X1939143Y1717256I-291J-407D01*
G01X1933227*
G03X1932873Y1717109I-0J-500*
G01X1920885Y1705121*
G03X1920820Y1704494I353J-354*
G01X1921224Y1703141D02*
G03X1920820Y1704494I-2469J0D01*
G01X1921224Y1703141D02*
Y1702354D01*
X1921223Y1702318D02*
G03X1921224Y1702354I-2468J36D01*
G01X1921223Y1702318D02*
G03X1921829Y1701822I500J-7D01*
G01X1922270Y1701870D02*
G03X1921829Y1701822I0J-2075D01*
G01X1922270Y1701870D02*
X1922609D01*
G03X1922962Y1702016I-0J500*
G01X1923620Y1702673*
G03X1923766Y1703027I-354J354*
G01Y1703141*
X1928704D02*
G03X1923766I-2469J0D01*
G01X1928704D02*
Y1702354D01*
X1926880Y1699971D02*
G03X1928704Y1702354I-645J2383D01*
G01X1926880Y1699971D02*
G03X1926657Y1699842I131J-482D01*
G01X1925143Y1698328*
X1923675Y1697720D02*
G03X1925143Y1698328I0J2075D01*
G01X1923675Y1697720D02*
X1923337D01*
G03X1922983Y1697573I-0J-500*
G01X1920976Y1695566*
G03X1920830Y1695213I354J-353*
G01Y1692807*
G03X1920896Y1692558I500J-0*
G01X1921224Y1691329D02*
G03X1920896Y1692558I-2469J0D01*
G01X1921224Y1691329D02*
Y1690542D01*
X1916286D02*
G03X1921224I2469J0D01*
G01X1916286D02*
Y1691329D01*
X1916614Y1692558D02*
G03X1916286Y1691329I2141J-1229D01*
G01X1916614Y1692558D02*
G03X1916680Y1692807I-434J249D01*
G01Y1693809*
G03X1916211Y1694308I-500J0*
G01X1913919Y1695940D02*
G03X1916211Y1694308I2459J1029D01*
G01X1913919Y1695940D02*
G03X1913104Y1696101I-461J-193D01*
G01X1906021Y1689018*
X1904554Y1688411D02*
G03X1906021Y1689018I0J2074D01*
G01X1904554Y1688411D02*
X1894602D01*
G03X1894105Y1687967I-0J-500*
G01X1894037Y1687601D02*
G03X1894105Y1687967I-2580J667D01*
G01X1894037Y1687601D02*
G03X1894085Y1687233I485J-125D01*
G01X1894359Y1686174D02*
G03X1894085Y1687233I-2181J-0D01*
G01X1894359Y1686174D02*
Y1685029D01*
X1894055Y1683918D02*
G03X1894359Y1685029I-1877J1111D01*
G01X1894055Y1683918D02*
G03X1894025Y1683860I430J-255D01*
G01X1892481Y1682842D02*
G03X1894025Y1683860I-0J1681D01*
G01X1892481Y1682842D02*
X1890481D01*
X1890357Y1682847D02*
G03X1890481Y1682842I124J1676D01*
G01X1890357Y1682847D02*
G03X1890320Y1682848I-37J-499D01*
G01X1886319*
G03X1885819Y1682348I0J-500*
G01Y1680424*
X1883638Y1678242D02*
G03X1885819Y1680424I0J2182D01*
G01X1883638Y1678242D02*
X1867501D01*
G03X1867147Y1678096I-0J-500*
G01X1863060Y1674009*
G03X1862914Y1673655I354J-354*
G01Y1669694*
X1862740Y1668842D02*
G03X1862914Y1669694I-2007J852D01*
G01X1862740Y1668842D02*
G03X1862701Y1668647I461J-195D01*
G01Y1665406*
G03X1862847Y1665053I500J0*
G01X1884986Y1642914*
G03X1885339Y1642767I353J353*
G01X1918076*
G03X1918571Y1643338I-0J500*
G01X1918554Y1643574D02*
G03X1918571Y1643338I1681J0D01*
G01X1918554Y1643574D02*
Y1645574D01*
X1918567Y1645784D02*
G03X1918554Y1645574I1668J-210D01*
G01X1918567Y1645784D02*
G03X1918071Y1646346I-496J62D01*
G01X1914533*
X1913066Y1646954D02*
G03X1914533Y1646346I1467J1467D01*
G01X1913066Y1646954D02*
X1910856Y1649164D01*
X1910248Y1650631D02*
G03X1910856Y1649164I2075J0D01*
G01X1910248Y1650631D02*
Y1655757D01*
G03X1910155Y1656048I-500J0*
G01X1914226Y1659464D02*
G03X1910155Y1656048I-1903J-1866D01*
G01X1914226Y1659464D02*
G03X1915016Y1659564I357J350D01*
G01X1919921Y1657635D02*
G03X1915016Y1659564I-2598J593D01*
G01X1919921Y1657635D02*
G03X1919929Y1657381I488J-112D01*
G01X1919999Y1656903D02*
G03X1919929Y1657381I-1682J0D01*
G01X1919999Y1656903D02*
Y1655449D01*
G03X1920499Y1654949I500J0*
G01X1921918*
X1922629Y1654791D02*
G03X1921918Y1654949I-711J-1523D01*
G01X1922629Y1654791D02*
G03X1923068Y1654800I211J453D01*
G01X1923835Y1654985D02*
G03X1923068Y1654800I0J-1682D01*
G01X1923835Y1654985D02*
X1925677D01*
G03X1926177Y1655485I0J500*
G01Y1656903*
X1926189Y1657105D02*
G03X1926177Y1656903I1669J-202D01*
G01X1926189Y1657105D02*
G03X1926193Y1657165I-496J60D01*
G01Y1677892*
X1926974Y1679777D02*
G03X1926193Y1677892I1884J-1885D01*
G01X1926974Y1679777D02*
X1928861Y1681665D01*
G03X1929008Y1682018I-353J353*
G01Y1684109*
G03X1928439Y1684604I-500J0*
G01X1925442Y1686807D02*
G03X1928439Y1684604I2629J437D01*
G01X1925442Y1686807D02*
G03X1925302Y1687079I-494J-82D01*
G01X1924768Y1687613*
X1924160Y1689068D02*
G03X1924768Y1687613I2075J12D01*
G01X1924160Y1689068D02*
G03X1924094Y1689314I-500J-3D01*
G01X1923766Y1690542D02*
G03X1924094Y1689314I2469J0D01*
G01X1923766Y1690542D02*
Y1691329D01*
X1928125Y1692917D02*
G03X1923766Y1691329I-1890J-1588D01*
G01X1928125Y1692917D02*
G03X1929008Y1693239I383J322D01*
G01Y1698169*
X1929789Y1700054D02*
G03X1929008Y1698169I1884J-1885D01*
G01X1929789Y1700054D02*
X1945102Y1715367D01*
X1946399Y1716082D02*
G03X1945102Y1715367I588J-2599D01*
G01X1946399Y1716082D02*
G03X1946789Y1716570I-110J488D01*
G01X1946783Y1744869D02*
Y1755024D01*
G03X1946283Y1755524I-500J-0*
G01X1939776*
G03X1939422Y1755377I-0J-500*
G01X1930036Y1745991*
G03X1929890Y1745637I354J-354*
G01Y1734482*
G03X1930390Y1733982I500J-0*
G01X1931892*
G03X1932392Y1734482I-0J500*
G01Y1735901*
X1934073Y1737582D02*
G03X1932392Y1735901I-0J-1681D01*
G01X1934073Y1737582D02*
X1935071D01*
G03X1935493Y1737814I0J500*
G01X1935777Y1738168D02*
G03X1935493Y1737814I1467J-1467D01*
G01X1935777Y1738168D02*
X1936248Y1738639D01*
G03X1936388Y1738909I-353J354*
G01X1940920Y1740329D02*
G03X1936388Y1738909I-1904J-1864D01*
G01X1940920Y1740329D02*
G03X1941776Y1740719I357J350D01*
G01X1941770Y1740853D02*
G03X1941776Y1740719I1682J-0D01*
G01X1941770Y1740853D02*
Y1742853D01*
X1943452Y1744534D02*
G03X1941770Y1742853I-0J-1681D01*
G01X1943452Y1744534D02*
X1945452D01*
X1946093Y1744407D02*
G03X1945452Y1744534I-641J-1554D01*
G01X1946093Y1744407D02*
G03X1946783Y1744869I190J462D01*
G01X1950779Y1622766D02*
Y1624177D01*
G03X1950632Y1624530I-500J-0*
G01X1949375Y1625787*
G03X1948878Y1625912I-353J-354*
G01X1947870Y1625810D02*
G03X1948878Y1625912I240J2655D01*
G01X1947869Y1625810D02*
G03X1947324Y1625312I-45J-498D01*
G01Y1620953*
G03X1947824Y1620453I500J0*
G01X1948118*
X1948474Y1620424D02*
G03X1948118Y1620453I-356J-2152D01*
G01X1948474Y1620424D02*
G03X1948989Y1620668I81J493D01*
G01X1949320Y1621101D02*
G03X1948989Y1620668I1467J-1468D01*
G01X1949320Y1621101D02*
X1950632Y1622412D01*
Y1622413D02*
G03X1950779Y1622766I-353J353D01*
G01X1900777Y1578429D02*
G03X1903052Y1583176I758J2555D01*
G01X1900776Y1578429D02*
G03X1900448Y1578414I-142J-479D01*
G01X1899820Y1578292D02*
G03X1900448Y1578414I0J1681D01*
G01X1899820Y1578292D02*
X1897820D01*
X1896139Y1579973D02*
G03X1897820Y1578292I1681J0D01*
G01X1896139Y1579973D02*
Y1581973D01*
X1896246Y1582563D02*
G03X1896139Y1581973I1574J-590D01*
G01X1896246Y1582563D02*
G03X1895777Y1583238I-469J175D01*
G01X1894224*
X1894023Y1583250D02*
G03X1894224Y1583238I201J1669D01*
G01X1894023Y1583250D02*
G03X1893963Y1583254I-60J-496D01*
G01X1887570*
G03X1887216Y1583107I-0J-500*
G01X1887153Y1583044*
X1885268Y1582263D02*
G03X1887153Y1583044I0J2666D01*
G01X1885268Y1582263D02*
X1872696D01*
G03X1872223Y1581925I0J-500*
G01X1870632Y1580787D02*
G03X1872223Y1581925I0J1681D01*
G01X1870632Y1580787D02*
X1862758D01*
X1861077Y1582468D02*
G03X1862758Y1580787I1681J0D01*
G01X1861077Y1582468D02*
Y1587389D01*
X1862758Y1589070D02*
G03X1861077Y1587389I0J-1681D01*
G01X1862758Y1589070D02*
X1870632D01*
X1872223Y1587932D02*
G03X1870632Y1589070I-1591J-543D01*
G01X1872223Y1587932D02*
G03X1872696Y1587594I473J162D01*
G01X1883936*
G03X1884303Y1587755I-0J500*
G01X1886600Y1588588D02*
G03X1884303Y1587755I-340J-2643D01*
G01X1886600Y1588588D02*
G03X1886664Y1588584I64J496D01*
G01X1892118*
G03X1892575Y1589286I-0J500*
G01X1892432Y1589966D02*
G03X1892575Y1589286I1681J-0D01*
G01X1892432Y1589966D02*
Y1591966D01*
X1892911Y1593142D02*
G03X1892432Y1591966I1202J-1176D01*
G01X1892911Y1593142D02*
G03X1892936Y1593814I-357J349D01*
G01X1892539Y1594899D02*
G03X1892936Y1593814I1681J0D01*
G01X1892539Y1594899D02*
Y1596899D01*
X1894220Y1598580D02*
G03X1892539Y1596899I0J-1681D01*
G01X1894220Y1598580D02*
X1896220D01*
X1897901Y1596899D02*
G03X1896220Y1598580I-1681J0D01*
G01X1897901Y1596899D02*
Y1594899D01*
X1897798Y1594319D02*
G03X1897901Y1594899I-1578J580D01*
G01X1897798Y1594319D02*
G03X1898267Y1593647I469J-172D01*
G01X1899932*
X1900510Y1593544D02*
G03X1899932Y1593647I-578J-1578D01*
G01X1900510Y1593544D02*
G03X1900804Y1593529I172J470D01*
G01X1902947Y1588735D02*
G03X1900804Y1593529I-1490J2210D01*
G01X1902947Y1588735D02*
G03X1902904Y1587939I280J-414D01*
G01X1902996Y1583953D02*
G03X1902904Y1587939I-1815J1953D01*
G01X1902996Y1583953D02*
G03X1903052Y1583176I340J-366D01*
G01X1884182Y1601629D02*
Y1597692D01*
X1882501Y1596011D02*
G03X1884182Y1597692I-0J1681D01*
G01X1882501Y1596011D02*
X1879745D01*
X1878182Y1597073D02*
G03X1879745Y1596011I1563J619D01*
G01X1878182Y1597073D02*
G03X1877717Y1597389I-465J-184D01*
G01X1875324*
G03X1875286Y1597388I-0J-500*
G01X1875114Y1597381D02*
G03X1875286Y1597388I0J2272D01*
G01X1875114Y1597381D02*
X1872579D01*
G03X1872087Y1596970I-0J-500*
G01X1870432Y1595587D02*
G03X1872087Y1596970I0J1681D01*
G01X1870432Y1595587D02*
X1862558D01*
X1861744Y1595797D02*
G03X1862558Y1595587I814J1471D01*
G01X1861744Y1595797D02*
G03X1861012Y1595461I-242J-437D01*
G01X1859365Y1594119D02*
G03X1861012Y1595461I0J1681D01*
G01X1859365Y1594119D02*
X1849365D01*
X1848158Y1594630D02*
G03X1849365Y1594119I1207J1170D01*
G01X1848158Y1594630D02*
G03X1847440I-359J-348D01*
G01X1846233Y1594119D02*
G03X1847440Y1594630I-0J1681D01*
G01X1846233Y1594119D02*
X1836233D01*
X1834998Y1594659D02*
G03X1836233Y1594119I1235J1141D01*
G01X1834998Y1594659D02*
G03X1834263I-368J-339D01*
G01X1833028Y1594119D02*
G03X1834263Y1594659I-0J1681D01*
G01X1833028Y1594119D02*
X1823028D01*
X1821949Y1594511D02*
G03X1823028Y1594119I1079J1289D01*
G01X1821949Y1594510D02*
G03X1821307I-321J-383D01*
G01X1820228Y1594119D02*
G03X1821307Y1594511I0J1681D01*
G01X1820228Y1594119D02*
X1810228D01*
X1808547Y1595800D02*
G03X1810228Y1594119I1681J-0D01*
G01X1808547Y1595800D02*
Y1597100D01*
G03X1807708Y1597468I-500J-0*
G01X1806570Y1597024D02*
G03X1807708Y1597468I0J1681D01*
G01X1806570Y1597024D02*
X1798696D01*
X1797015Y1598705D02*
G03X1798696Y1597024I1681J0D01*
G01X1797015Y1598705D02*
Y1603626D01*
X1798696Y1605308D02*
G03X1797015Y1603626I0J-1682D01*
G01X1798696Y1605308D02*
X1805110D01*
G03X1805464Y1605454I-0J500*
G01X1810460Y1610451*
G03X1810185Y1611298I-353J353*
G01X1813544Y1612044D02*
G03X1810185Y1611298I-2623J3877D01*
G01X1813544Y1612044D02*
G03X1813824Y1611130I280J-414D01*
G01X1822175*
G03X1822465Y1611223I-0J500*
G01X1824099Y1611719D02*
G03X1822465Y1611223I-83J-2664D01*
G01X1824099Y1611719D02*
G03X1824493Y1612545I16J500D01*
G01X1824086Y1613642D02*
G03X1824493Y1612545I1681J0D01*
G01X1824086Y1613642D02*
Y1615642D01*
X1824188Y1616219D02*
G03X1824086Y1615642I1579J-577D01*
G01X1824188Y1616219D02*
G03X1823718Y1616891I-470J172D01*
G01X1822060*
X1821894Y1616899D02*
G03X1822060Y1616891I166J1673D01*
G01X1821894Y1616899D02*
G03X1821845Y1616902I-49J-497D01*
G01X1819685*
Y1622232D02*
G03Y1616902I0J-2665D01*
G01Y1622232D02*
X1819933D01*
G03X1820395Y1622923I-0J500*
G01X1820267Y1623566D02*
G03X1820395Y1622923I1681J-0D01*
G01X1820267Y1623566D02*
Y1625566D01*
X1820735Y1626730D02*
G03X1820267Y1625566I1213J-1164D01*
G01X1820735Y1626730D02*
G03X1820874Y1627061I-360J346D01*
G01X1820877Y1627113D02*
G03X1820874Y1627061I2071J-117D01*
G01X1820877Y1627113D02*
G03X1820762Y1627460I-500J28D01*
G01X1820374Y1628534D02*
G03X1820762Y1627460I1682J-0D01*
G01X1820374Y1628534D02*
Y1630534D01*
X1822056Y1632215D02*
G03X1820374Y1630534I-0J-1681D01*
G01X1822056Y1632215D02*
X1824056D01*
X1825737Y1630534D02*
G03X1824056Y1632215I-1681J-0D01*
G01X1825737Y1630534D02*
Y1628534D01*
X1825623Y1627927D02*
G03X1825737Y1628534I-1567J607D01*
G01X1825623Y1627927D02*
G03X1826090Y1627247I467J-180D01*
G01X1827767*
X1828664Y1626988D02*
G03X1827767Y1627247I-897J-1422D01*
G01X1828664Y1626988D02*
G03X1829137Y1626955I266J423D01*
G01X1831875Y1622426D02*
G03X1829137Y1626955I-1639J2102D01*
G01X1831875Y1622426D02*
G03X1831869Y1621642I308J-394D01*
G01X1831885Y1617505D02*
G03X1831869Y1621642I-1688J2062D01*
G01X1831885Y1617505D02*
G03X1831898Y1616721I317J-387D01*
G01X1832062Y1612628D02*
G03X1831898Y1616721I-1786J1978D01*
G01X1832062Y1612628D02*
G03X1832478Y1611764I335J-371D01*
G01X1833350Y1606505D02*
G03X1832478Y1611763I-437J2629D01*
G01X1833350Y1606505D02*
G03X1833079Y1606365I82J-494D01*
G01X1832909Y1606196*
G03X1833209Y1605345I354J-354*
G01X1834263Y1604814D02*
G03X1833209Y1605345I-1235J-1140D01*
G01X1834263Y1604814D02*
G03X1834998I367J339D01*
G01X1836233Y1605355D02*
G03X1834998Y1604814I-0J-1681D01*
G01X1836233Y1605355D02*
X1838859D01*
G03X1839320Y1605661I-0J500*
G01X1839766Y1606325D02*
G03X1839320Y1605661I1467J-1467D01*
G01X1839766Y1606325D02*
X1842349Y1608908D01*
X1843816Y1609516D02*
G03X1842349Y1608908I-0J-2075D01*
G01X1843816Y1609516D02*
X1845797D01*
G03X1846087Y1609609I-0J500*
G01X1849704Y1609124D02*
G03X1846087Y1609609I-2066J-1683D01*
G01X1849704Y1609124D02*
G03X1850494Y1609143I388J316D01*
G01X1854756Y1609177D02*
G03X1850494Y1609143I-2118J-1618D01*
G01X1854756Y1609177D02*
G03X1855546Y1609171I397J304D01*
G01X1858925Y1609854D02*
G03X1855546Y1609171I-1287J-2334D01*
G01X1858925Y1609854D02*
G03X1859167Y1609791I242J437D01*
G01X1862394*
X1864000Y1609126D02*
G03X1862394Y1609791I-1606J-1606D01*
G01X1864000Y1609126D02*
X1868101Y1605024D01*
X1868629Y1604199D02*
G03X1868101Y1605024I-2134J-781D01*
G01X1868629Y1604199D02*
G03X1869098Y1603870I469J171D01*
G01X1870432*
X1872103Y1602371D02*
G03X1870432Y1603870I-1671J-182D01*
G01X1872103Y1602371D02*
G03X1872601Y1601925I498J54D01*
G01X1874913*
G03X1874951Y1601926I-0J500*
G01X1875122Y1601932D02*
G03X1874951Y1601926I0J-2271D01*
G01X1875122Y1601932D02*
X1877717D01*
G03X1878182Y1602248I-0J500*
G01X1879745Y1603310D02*
G03X1878182Y1602248I-0J-1681D01*
G01X1879745Y1603310D02*
X1882501D01*
X1884182Y1601629D02*
G03X1882501Y1603310I-1681J0D01*
G01X1858421Y1620621D02*
Y1618838D01*
X1857782Y1617296D02*
G03X1858421Y1618838I-1542J1542D01*
G01X1857782Y1617296D02*
X1857148Y1616662D01*
X1855606Y1616024D02*
G03X1857148Y1616662I-0J2181D01*
G01X1855606Y1616024D02*
X1852949D01*
G03X1852595Y1615877I0J-500*
G01X1851775Y1615057*
X1850233Y1614418D02*
G03X1851775Y1615057I-0J2181D01*
G01X1850233Y1614418D02*
X1844128D01*
X1841947Y1616599D02*
G03X1844128Y1614418I2181J-0D01*
G01X1841947Y1616599D02*
Y1622051D01*
X1842116Y1622894D02*
G03X1841947Y1622051I2012J-843D01*
G01X1842116Y1622894D02*
G03X1842128Y1622924I-461J193D01*
G01X1842806Y1623787D02*
G03X1842128Y1622924I911J-1413D01*
G01X1842806Y1623787D02*
G03X1842832Y1623806I-271J421D01*
G01X1844128Y1624232D02*
G03X1842832Y1623806I0J-2181D01*
G01X1844128Y1624232D02*
X1850014D01*
X1851557Y1623593D02*
G03X1850014Y1624232I-1543J-1542D01*
G01X1851557Y1623593D02*
X1851660Y1623490D01*
G03X1852014Y1623343I354J353*
G01X1855699*
X1857241Y1622704D02*
G03X1855699Y1623343I-1542J-1542D01*
G01X1857241Y1622704D02*
X1857782Y1622163D01*
X1858421Y1620621D02*
G03X1857782Y1622163I-2181J0D01*
G01X1845735Y1661722D02*
G03X1842147Y1665566I-2113J1624D01*
G01X1845735Y1661722D02*
G03Y1661113I397J-305D01*
G01X1842163Y1657257D02*
G03X1845735Y1661113I1459J2231D01*
G01X1842163Y1657257D02*
G03X1841616I-273J-418D01*
G01X1838028Y1661091D02*
G03X1841616Y1657257I2129J-1603D01*
G01X1838028Y1661091D02*
G03X1838022Y1661700I-400J301D01*
G01X1841593Y1665566D02*
G03X1838022Y1661700I-1475J-2220D01*
G01X1841593Y1665566D02*
G03X1842147I277J417D01*
G01X1784106Y1615921D02*
G03X1784106I-4681J0D01*
G01X1929033Y1587336D02*
Y1584044D01*
X1928394Y1582502D02*
G03X1929033Y1584044I-1542J1542D01*
G01X1928394Y1582502D02*
X1927169Y1581277D01*
X1925627Y1580639D02*
G03X1927169Y1581277I-0J2181D01*
G01X1925627Y1580639D02*
X1914418D01*
X1912237Y1582820D02*
G03X1914418Y1580639I2181J-0D01*
G01X1912237Y1582820D02*
Y1588561D01*
X1914418Y1590742D02*
G03X1912237Y1588561I0J-2181D01*
G01X1914418Y1590742D02*
X1925627D01*
X1927169Y1590103D02*
G03X1925627Y1590742I-1542J-1542D01*
G01X1927169Y1590103D02*
X1928394Y1588878D01*
X1929033Y1587336D02*
G03X1928394Y1588878I-2181J-0D01*
G01X1957035Y1797047D02*
G03X1957035I-2665J0D01*
G01X1945309Y1784246D02*
Y1774246D01*
X1943628Y1772565D02*
G03X1945309Y1774246I0J1681D01*
G01X1943628Y1772565D02*
X1940592D01*
G03X1940139Y1771852I-0J-500*
G01X1935384Y1771983D02*
G03X1940139Y1771852I2345J-1268D01*
G01X1935384Y1771983D02*
G03X1935130Y1772685I-439J238D01*
G01X1934073Y1774246D02*
G03X1935130Y1772685I1681J0D01*
G01X1934073Y1774246D02*
Y1778519D01*
G03X1934060Y1778634I-500J-0*
G01X1933988Y1779246D02*
G03X1934060Y1778634I2666J0D01*
G01X1933988Y1779246D02*
Y1785827D01*
X1939270Y1786333D02*
G03X1933988Y1785827I-2616J-506D01*
G01X1939270Y1786333D02*
G03X1939761Y1785927I491J94D01*
G01X1943628*
X1945309Y1784246D02*
G03X1943628Y1785927I-1681J0D01*
G01X1929167Y1784246D02*
Y1774246D01*
X1927486Y1772565D02*
G03X1929167Y1774246I0J1681D01*
G01X1927486Y1772565D02*
X1919612D01*
X1917931Y1774246D02*
G03X1919612Y1772565I1681J0D01*
G01X1917931Y1774246D02*
Y1779634D01*
G03X1917431Y1780134I-500J0*
G01X1916244*
G03X1915744Y1779634I0J-500*
G01Y1778543*
X1913079Y1775878D02*
G03X1915744Y1778543I-0J2665D01*
G01X1913079Y1775878D02*
X1912953D01*
X1910393Y1779288D02*
G03X1912953Y1775878I2560J-745D01*
G01X1910393Y1779288D02*
G03X1910413Y1779427I-480J139D01*
G01Y1779650*
G03X1909913Y1780150I-500J0*
G01X1909802*
X1909533Y1780164D02*
G03X1909802Y1780150I269J2652D01*
G01X1909533Y1780164D02*
G03X1909483Y1780166I-50J-498D01*
G01X1907769*
G03X1907709Y1780163I-0J-500*
G01X1907507Y1780151D02*
G03X1907709Y1780163I0J1681D01*
G01X1907507Y1780151D02*
X1905507D01*
X1904891Y1780268D02*
G03X1905507Y1780151I616J1564D01*
G01X1904891Y1780268D02*
G03X1904524I-184J-465D01*
G01X1903907Y1780151D02*
G03X1904524Y1780268I0J1681D01*
G01X1903907Y1780151D02*
X1901907D01*
X1901706Y1780163D02*
G03X1901907Y1780151I201J1669D01*
G01X1901706Y1780163D02*
G03X1901646Y1780166I-60J-497D01*
G01X1899532*
X1899256Y1780181D02*
G03X1899532Y1780166I276J2651D01*
G01X1899256Y1780181D02*
G03X1899204Y1780183I-52J-498D01*
G01X1897402*
G03X1897342Y1780180I-0J-500*
G01X1897140Y1780168D02*
G03X1897342Y1780180I0J1681D01*
G01X1897140Y1780168D02*
X1896665D01*
G03X1896165Y1779668I-0J-500*
G01Y1776402*
X1895208Y1774884D02*
G03X1896165Y1776402I-724J1518D01*
G01X1895208Y1774884D02*
G03Y1773982I215J-451D01*
G01X1896165Y1772465D02*
G03X1895208Y1773982I-1681J-0D01*
G01X1896165Y1772465D02*
Y1768922D01*
X1894484Y1767240D02*
G03X1896165Y1768922I-0J1682D01*
G01X1894484Y1767240D02*
X1890744D01*
X1889451Y1767847D02*
G03X1890744Y1767240I1293J1075D01*
G01X1889451Y1767847D02*
G03X1889066Y1768028I-385J-319D01*
G01X1886062*
X1885985Y1768029D02*
G03X1886062Y1768028I77J2664D01*
G01X1885985Y1768029D02*
G03X1885971I-14J-500D01*
G01X1883120*
G03X1882709Y1767814I0J-500*
G01X1881327Y1767089D02*
G03X1882709Y1767814I0J1681D01*
G01X1881327Y1767089D02*
X1877784D01*
X1876103Y1768770D02*
G03X1877784Y1767089I1681J0D01*
G01X1876103Y1768770D02*
Y1772510D01*
X1876283Y1773268D02*
G03X1876103Y1772510I1501J-758D01*
G01X1876283Y1773268D02*
G03X1875837Y1773994I-446J226D01*
G01X1874241*
X1872559Y1775675D02*
G03X1874241Y1773994I1682J-0D01*
G01X1872559Y1775675D02*
Y1781974D01*
X1874241Y1783655D02*
G03X1872559Y1781974I-0J-1681D01*
G01X1874241Y1783655D02*
X1884871D01*
X1886552Y1781974D02*
G03X1884871Y1783655I-1681J-0D01*
G01X1886552Y1781974D02*
Y1775675D01*
X1885803Y1774276D02*
G03X1886552Y1775675I-932J1399D01*
G01X1885803Y1774276D02*
G03X1886077Y1773360I277J-416D01*
G01X1886137Y1773359D02*
G03X1886077Y1773360I-77J-2665D01*
G01X1886137Y1773359D02*
G03X1886151Y1773358I14J499D01*
G01X1889066*
G03X1889451Y1773539I0J500*
G01X1890020Y1773982D02*
G03X1889451Y1773539I724J-1517D01*
G01X1890020Y1773982D02*
G03Y1774884I-216J451D01*
G01X1889063Y1776402D02*
G03X1890020Y1774884I1681J-0D01*
G01X1889063Y1776402D02*
Y1779945D01*
X1889684Y1781250D02*
G03X1889063Y1779945I1060J-1305D01*
G01X1889684Y1781250D02*
G03X1889867Y1781686I-315J388D01*
G01X1889859Y1781849D02*
G03X1889867Y1781686I1681J-0D01*
G01X1889859Y1781849D02*
Y1783849D01*
X1889871Y1784050D02*
G03X1889859Y1783849I1669J-201D01*
G01X1889871Y1784050D02*
G03X1889875Y1784110I-496J60D01*
G01Y1784500*
G03X1889375Y1785000I-500J-0*
G01X1888997*
X1887404Y1786142D02*
G03X1888997Y1785000I1593J539D01*
G01X1887404Y1786142D02*
G03X1886458Y1786147I-473J-160D01*
G01X1884871Y1785018D02*
G03X1886458Y1786147I-0J1681D01*
G01X1884871Y1785018D02*
X1874241D01*
X1872678Y1786080D02*
G03X1874241Y1785018I1563J619D01*
G01X1872678Y1786080D02*
G03X1872213Y1786395I-465J-185D01*
G01X1871987*
X1868534Y1789848D02*
G03X1871987Y1786395I3453J0D01*
G01X1868534Y1789848D02*
Y1790073D01*
G03X1867916Y1790559I-500J0*
G01X1867518Y1790511D02*
G03X1867916Y1790559I-0J1681D01*
G01X1867518Y1790511D02*
X1865518D01*
X1863836Y1792192D02*
G03X1865518Y1790511I1682J0D01*
G01X1863836Y1792192D02*
Y1794192D01*
X1863849Y1794394D02*
G03X1863836Y1794192I1669J-202D01*
G01X1863849Y1794394D02*
G03X1863852Y1794454I-497J60D01*
G01Y1796151*
X1864633Y1798036D02*
G03X1863852Y1796151I1885J-1885D01*
G01X1864633Y1798036D02*
X1865214Y1798617D01*
X1867098Y1799398D02*
G03X1865214Y1798617I0J-2666D01*
G01X1867098Y1799398D02*
X1869247D01*
G03X1869546Y1799497I-0J500*
G01X1871614Y1800185D02*
G03X1869546Y1799497I0J-3453D01*
G01X1871614Y1800185D02*
X1871987D01*
X1874810Y1798721D02*
G03X1871987Y1800185I-2823J-1989D01*
G01X1874810Y1798721D02*
G03X1875634Y1798731I409J288D01*
G01X1881957Y1796811D02*
G03X1875634Y1798731I-3453J0D01*
G01X1881957Y1796811D02*
Y1795179D01*
G03X1882457Y1794679I500J-0*
G01X1884871*
X1886463Y1793536D02*
G03X1884871Y1794679I-1592J-538D01*
G01X1886463Y1793536D02*
G03X1887409Y1793532I474J160D01*
G01X1888997Y1794661D02*
G03X1887409Y1793532I-0J-1681D01*
G01X1888997Y1794661D02*
X1896084D01*
X1897284Y1794157D02*
G03X1896084Y1794661I-1200J-1177D01*
G01X1897284Y1794157D02*
G03X1898037Y1794201I357J350D01*
G01X1899367Y1794854D02*
G03X1898037Y1794201I-0J-1681D01*
G01X1899367Y1794854D02*
X1906454D01*
X1907639Y1794365D02*
G03X1906454Y1794854I-1185J-1192D01*
G01X1907639Y1794365D02*
G03X1908353Y1794375I352J355D01*
G01X1909570Y1794896D02*
G03X1908353Y1794375I-0J-1681D01*
G01X1909570Y1794896D02*
X1916657D01*
X1918338Y1793215D02*
G03X1916657Y1794896I-1681J-0D01*
G01X1918338Y1793215D02*
Y1786916D01*
X1918256Y1786396D02*
G03X1918338Y1786916I-1599J520D01*
G01X1918256Y1786396D02*
G03X1918933Y1785784I475J-155D01*
G01X1919612Y1785927D02*
G03X1918933Y1785784I0J-1681D01*
G01X1919612Y1785927D02*
X1927486D01*
X1929167Y1784246D02*
G03X1927486Y1785927I-1681J0D01*
G01X1791248Y1763780D02*
G03X1791248I-5815J0D01*
G01X1866870Y1762370D02*
G03X1867212Y1763486I2658J-205D01*
G01X1866870Y1762370D02*
G03X1865937Y1762656I-499J38D01*
G01X1866280Y1763772D02*
G03X1865937Y1762656I-2658J204D01*
G01X1866280Y1763772D02*
G03X1867212Y1763486I498J-38D01*
G01X1906007Y1776205D02*
Y1772662D01*
X1904326Y1770980D02*
G03X1906007Y1772662I-0J1682D01*
G01X1904326Y1770980D02*
X1900586D01*
X1898905Y1772662D02*
G03X1900586Y1770980I1681J-0D01*
G01X1898905Y1772662D02*
Y1776205D01*
X1900586Y1777886D02*
G03X1898905Y1776205I-0J-1681D01*
G01X1900586Y1777886D02*
X1904326D01*
X1906007Y1776205D02*
G03X1904326Y1777886I-1681J-0D01*
G01X1854831Y1709803D02*
G03X1854831I-2666J0D01*
G01X1947324Y1624090D02*
X1950779D01*
X1947324Y1623190D02*
X1950779D01*
X1947324Y1622290D02*
X1950510D01*
X1947324Y1624990D02*
X1950172D01*
X1947324Y1621390D02*
X1949610D01*
X1948801Y1625890D02*
X1949225D01*
X1947635Y1620490D02*
X1948816D01*
X1938636Y1754590D02*
X1946783D01*
X1937736Y1753690D02*
X1946783D01*
X1936836Y1752790D02*
X1946783D01*
X1935936Y1751890D02*
X1946783D01*
X1935036Y1750990D02*
X1946783D01*
X1934136Y1750090D02*
X1946783D01*
X1933236Y1749190D02*
X1946783D01*
X1932336Y1748290D02*
X1946783D01*
X1931436Y1747390D02*
X1946783D01*
X1930536Y1746490D02*
X1946783D01*
X1929890Y1745590D02*
X1946783D01*
X1929890Y1744690D02*
X1946751D01*
X1939597Y1755490D02*
X1946463D01*
X1929890Y1743790D02*
X1942056D01*
X1929890Y1742890D02*
X1941771D01*
X1929890Y1741990D02*
X1941770D01*
X1939473Y1741090D02*
X1941770D01*
X1941172Y1740190D02*
X1941382D01*
X1929890Y1741090D02*
X1938558D01*
X1929890Y1740190D02*
X1936985D01*
X1929890Y1739290D02*
X1936482D01*
X1929890Y1738390D02*
X1936000D01*
X1929890Y1737490D02*
X1933526D01*
X1929890Y1736590D02*
X1932540D01*
X1929890Y1735690D02*
X1932392D01*
X1929890Y1734790D02*
X1932392D01*
X1929890Y1723090D02*
X1946789D01*
X1929890Y1722190D02*
X1946789D01*
X1942791Y1721290D02*
X1946789D01*
X1943430Y1720390D02*
X1946789D01*
X1943645Y1719490D02*
X1946789D01*
X1943545Y1718590D02*
X1946789D01*
X1943085Y1717690D02*
X1946789D01*
X1941791Y1716790D02*
X1946789D01*
X1931654Y1715890D02*
X1945843D01*
X1930754Y1714990D02*
X1944725D01*
X1929854Y1714090D02*
X1943825D01*
X1928954Y1713190D02*
X1942925D01*
X1928054Y1712290D02*
X1942025D01*
X1929890Y1723990D02*
X1941805D01*
X1927154Y1711390D02*
X1941125D01*
X1929890Y1724890D02*
X1940934D01*
X1926254Y1710490D02*
X1940225D01*
X1932554Y1716790D02*
X1940178D01*
X1925354Y1709590D02*
X1939325D01*
X1924454Y1708690D02*
X1938425D01*
X1923554Y1707790D02*
X1937525D01*
X1922654Y1706890D02*
X1936625D01*
X1921754Y1705990D02*
X1935725D01*
X1927750Y1705090D02*
X1934825D01*
X1928469Y1704190D02*
X1933925D01*
X1928699Y1703290D02*
X1933025D01*
X1928704Y1702390D02*
X1932125D01*
X1929890Y1721290D02*
X1931479D01*
X1928547Y1701490D02*
X1931225D01*
X1930122Y1725790D02*
X1930657D01*
X1927962Y1700590D02*
X1930325D01*
X1926505Y1699690D02*
X1929485D01*
X1925605Y1698790D02*
X1929081D01*
X1924499Y1697890D02*
X1929008D01*
X1922400Y1696990D02*
X1929008D01*
X1921500Y1696090D02*
X1929008D01*
X1920830Y1695190D02*
X1929008D01*
X1920830Y1694290D02*
X1929008D01*
X1927594Y1693390D02*
X1929008D01*
X1893807Y1683490D02*
X1929008D01*
X1885882Y1682590D02*
X1929008D01*
X1894264Y1684390D02*
X1928921D01*
X1885819Y1681690D02*
X1928885D01*
X1885819Y1680790D02*
X1927987D01*
X1885753Y1679890D02*
X1927087D01*
X1885282Y1678990D02*
X1926430D01*
X1894359Y1685290D02*
X1926258D01*
X1867142Y1678090D02*
X1926200D01*
X1866242Y1677190D02*
X1926193D01*
X1865342Y1676290D02*
X1926193D01*
X1864442Y1675390D02*
X1926193D01*
X1863542Y1674490D02*
X1926193D01*
X1862914Y1673590D02*
X1926193D01*
X1862914Y1672690D02*
X1926193D01*
X1862914Y1671790D02*
X1926193D01*
X1862914Y1670890D02*
X1926193D01*
X1862914Y1669990D02*
X1926193D01*
X1862829Y1669090D02*
X1926193D01*
X1862701Y1668190D02*
X1926193D01*
X1862701Y1667290D02*
X1926193D01*
X1862701Y1666390D02*
X1926193D01*
X1862701Y1665490D02*
X1926193D01*
X1863309Y1664590D02*
X1926193D01*
X1864209Y1663690D02*
X1926193D01*
X1865109Y1662790D02*
X1926193D01*
X1866009Y1661890D02*
X1926193D01*
X1866909Y1660990D02*
X1926193D01*
X1919230Y1660090D02*
X1926193D01*
X1919809Y1659190D02*
X1926193D01*
X1919987Y1658290D02*
X1926193D01*
X1919927Y1657390D02*
X1926193D01*
X1919999Y1656490D02*
X1926177D01*
X1919999Y1655590D02*
X1926177D01*
X1894359Y1686190D02*
X1925623D01*
X1894157Y1687090D02*
X1925290D01*
X1920830Y1693390D02*
X1924876D01*
X1920857Y1705090D02*
X1924720D01*
X1894108Y1687990D02*
X1924469D01*
X1920589Y1688890D02*
X1924169D01*
X1920933Y1692490D02*
X1924056D01*
X1920989Y1704190D02*
X1924000D01*
X1921106Y1689790D02*
X1923884D01*
X1921210Y1691590D02*
X1923780D01*
X1921219Y1703290D02*
X1923771D01*
X1921224Y1690690D02*
X1923766D01*
X1921224Y1702390D02*
X1923337D01*
X1882209Y1645690D02*
X1918558D01*
X1883109Y1644790D02*
X1918554D01*
X1884009Y1643890D02*
X1918554D01*
X1884909Y1642990D02*
X1918492D01*
X1905881Y1688890D02*
X1916920D01*
X1910393Y1693390D02*
X1916680D01*
X1909493Y1692490D02*
X1916576D01*
X1906793Y1689790D02*
X1916404D01*
X1911293Y1694290D02*
X1916317D01*
X1908593Y1691590D02*
X1916300D01*
X1907693Y1690690D02*
X1916286D01*
X1913269Y1660090D02*
X1915416D01*
X1912193Y1695190D02*
X1914392D01*
X1913093Y1696090D02*
X1913821D01*
X1881309Y1646590D02*
X1913557D01*
X1880409Y1647490D02*
X1912530D01*
X1879509Y1648390D02*
X1911630D01*
X1867809Y1660090D02*
X1911377D01*
X1878609Y1649290D02*
X1910740D01*
X1877709Y1650190D02*
X1910295D01*
X1872309Y1655590D02*
X1910248D01*
X1873209Y1654690D02*
X1910248D01*
X1874109Y1653790D02*
X1910248D01*
X1875009Y1652890D02*
X1910248D01*
X1875909Y1651990D02*
X1910248D01*
X1876809Y1651090D02*
X1910248D01*
X1868709Y1659190D02*
X1910185D01*
X1871409Y1656490D02*
X1909899D01*
X1869609Y1658290D02*
X1909749D01*
X1870509Y1657390D02*
X1909666D01*
X1921446Y1750090D02*
X1927856D01*
X1921413Y1749190D02*
X1927367D01*
X1921403Y1748290D02*
X1926467D01*
X1921771Y1747390D02*
X1925857D01*
X1921970Y1746490D02*
X1925740D01*
X1921970Y1745590D02*
X1925740D01*
X1921970Y1744690D02*
X1925740D01*
X1921970Y1743790D02*
X1925740D01*
X1921970Y1742890D02*
X1925740D01*
X1921970Y1741990D02*
X1925740D01*
X1921970Y1741090D02*
X1925740D01*
X1921966Y1740190D02*
X1925740D01*
X1921634Y1739290D02*
X1925740D01*
X1913461Y1738390D02*
X1925740D01*
X1913139Y1737490D02*
X1925740D01*
X1913319Y1736590D02*
X1925740D01*
X1913464Y1735690D02*
X1925740D01*
X1920866Y1734790D02*
X1925740D01*
X1921826Y1733890D02*
X1925740D01*
X1921970Y1732990D02*
X1925740D01*
X1921970Y1732090D02*
X1925740D01*
X1921970Y1731190D02*
X1925740D01*
X1921970Y1730290D02*
X1925740D01*
X1921970Y1729390D02*
X1925740D01*
X1921970Y1728490D02*
X1925740D01*
X1921970Y1727590D02*
X1925740D01*
X1921955Y1726690D02*
X1925740D01*
X1921541Y1725790D02*
X1925740D01*
X1920788Y1724890D02*
X1925740D01*
X1921208Y1723990D02*
X1925740D01*
X1921420Y1723090D02*
X1925740D01*
X1921420Y1722190D02*
X1925740D01*
X1921420Y1721290D02*
X1925740D01*
X1921268Y1720390D02*
X1925740D01*
X1921420Y1719490D02*
X1925740D01*
X1921420Y1718590D02*
X1925740D01*
X1921420Y1717690D02*
X1925226D01*
X1909667Y1762690D02*
X1924957D01*
X1909443Y1761790D02*
X1924476D01*
X1908788Y1760890D02*
X1924343D01*
X1920430Y1759990D02*
X1924343D01*
X1921227Y1716790D02*
X1924326D01*
X1921262Y1759090D02*
X1924255D01*
X1902767Y1715890D02*
X1923426D01*
X1903667Y1714990D02*
X1922526D01*
X1921445Y1758190D02*
X1922338D01*
X1905229Y1714090D02*
X1921626D01*
X1920534Y1763590D02*
X1921140D01*
X1905846Y1713190D02*
X1920726D01*
X1906048Y1712290D02*
X1919826D01*
X1905936Y1711390D02*
X1918926D01*
X1905459Y1710490D02*
X1918026D01*
X1904074Y1709590D02*
X1917126D01*
X1904263Y1759990D02*
X1916963D01*
X1893767Y1724890D02*
X1916639D01*
X1913464Y1734790D02*
X1916562D01*
X1894667Y1723990D02*
X1916270D01*
X1899239Y1708690D02*
X1916226D01*
X1903363Y1759090D02*
X1916131D01*
X1895263Y1750990D02*
X1916131D01*
X1899763Y1755490D02*
X1916067D01*
X1898863Y1754590D02*
X1916067D01*
X1896163Y1751890D02*
X1916062D01*
X1895567Y1723090D02*
X1916058D01*
X1896467Y1722190D02*
X1916058D01*
X1897963Y1753690D02*
X1916051D01*
X1897063Y1752790D02*
X1916051D01*
X1894363Y1750090D02*
X1916051D01*
X1897367Y1721290D02*
X1916036D01*
X1900663Y1756390D02*
X1916018D01*
X1902463Y1758190D02*
X1916016D01*
X1901563Y1757290D02*
X1916016D01*
X1907539Y1725790D02*
X1915887D01*
X1913464Y1739290D02*
X1915793D01*
X1913463Y1733890D02*
X1915601D01*
X1907953Y1726690D02*
X1915472D01*
X1913464Y1740190D02*
X1915461D01*
X1913464Y1743790D02*
X1915457D01*
X1913464Y1742890D02*
X1915457D01*
X1913461Y1741990D02*
X1915457D01*
X1913350Y1741090D02*
X1915457D01*
X1913326Y1732990D02*
X1915457D01*
X1907968Y1727590D02*
X1915447D01*
X1913764Y1744690D02*
X1915437D01*
X1895888Y1707790D02*
X1915326D01*
X1898267Y1720390D02*
X1914970D01*
X1901867Y1716790D02*
X1914956D01*
X1896783Y1706890D02*
X1914426D01*
X1899167Y1719490D02*
X1914423D01*
X1900967Y1717690D02*
X1914418D01*
X1900067Y1718590D02*
X1914264D01*
X1897683Y1705990D02*
X1913526D01*
X1898583Y1705090D02*
X1912626D01*
X1909852Y1763590D02*
X1912525D01*
X1906547Y1704190D02*
X1911726D01*
X1907198Y1703290D02*
X1911056D01*
X1907268Y1702390D02*
X1910903D01*
X1907968Y1728490D02*
X1910675D01*
X1907268Y1701490D02*
X1910398D01*
X1907254Y1700590D02*
X1909498D01*
X1906841Y1699690D02*
X1908598D01*
X1881763Y1737490D02*
X1908346D01*
X1893463Y1749190D02*
X1908317D01*
X1885363Y1741090D02*
X1908215D01*
X1889863Y1745590D02*
X1908117D01*
X1888963Y1744690D02*
X1908117D01*
X1886263Y1741990D02*
X1908104D01*
X1882663Y1738390D02*
X1908104D01*
X1892563Y1748290D02*
X1908101D01*
X1891663Y1747390D02*
X1908101D01*
X1890763Y1746490D02*
X1908101D01*
X1888063Y1743790D02*
X1908101D01*
X1887163Y1742890D02*
X1908101D01*
X1884463Y1740190D02*
X1908101D01*
X1883563Y1739290D02*
X1908101D01*
X1902058Y1698790D02*
X1907698D01*
X1903633Y1697890D02*
X1906798D01*
X1880863Y1736590D02*
X1906769D01*
X1904405Y1696990D02*
X1905898D01*
X1880346Y1735690D02*
X1905832D01*
X1900073Y1709590D02*
X1902698D01*
X1883864Y1734790D02*
X1902560D01*
X1892867Y1725790D02*
X1901885D01*
X1884767Y1733890D02*
X1901599D01*
X1891967Y1726690D02*
X1901471D01*
X1885667Y1732990D02*
X1901456D01*
X1886567Y1732090D02*
X1901456D01*
X1887467Y1731190D02*
X1901456D01*
X1888367Y1730290D02*
X1901456D01*
X1889267Y1729390D02*
X1901456D01*
X1890167Y1728490D02*
X1901456D01*
X1891067Y1727590D02*
X1901456D01*
X1900407Y1710490D02*
X1901313D01*
X1899353Y1704190D02*
X1900478D01*
X1875780Y1695190D02*
X1899441D01*
X1874246Y1694290D02*
X1899369D01*
X1876895Y1696090D02*
X1898771D01*
X1877310Y1696990D02*
X1897871D01*
X1877378Y1697890D02*
X1896971D01*
X1877128Y1698790D02*
X1896071D01*
X1876425Y1699690D02*
X1895529D01*
X1874977Y1701490D02*
X1895445D01*
X1868413Y1700590D02*
X1895445D01*
X1876333Y1702390D02*
X1895385D01*
X1876805Y1703290D02*
X1894515D01*
X1876914Y1704190D02*
X1893615D01*
X1876789Y1705090D02*
X1892715D01*
X1877306Y1705990D02*
X1891815D01*
X1874979Y1693390D02*
X1886429D01*
X1875305Y1692490D02*
X1885529D01*
X1877505Y1706890D02*
X1881255D01*
X1878227Y1707790D02*
X1880355D01*
X1868556Y1701490D02*
X1873527D01*
X1868688Y1702390D02*
X1872170D01*
X1868507Y1703290D02*
X1871699D01*
X1868402Y1704190D02*
X1871183D01*
X1868672Y1705090D02*
X1870283D01*
X1873843Y1720390D02*
X1892363D01*
X1872943Y1721290D02*
X1891498D01*
X1872043Y1722190D02*
X1890598D01*
X1882546Y1719490D02*
X1889708D01*
X1871143Y1723090D02*
X1889698D01*
X1882783Y1714990D02*
X1889022D01*
X1883166Y1718590D02*
X1888885D01*
X1882783Y1714090D02*
X1888810D01*
X1870243Y1723990D02*
X1888798D01*
X1882814Y1715890D02*
X1888774D01*
X1883371Y1717690D02*
X1888771D01*
X1883261Y1716790D02*
X1888771D01*
X1883051Y1713190D02*
X1888715D01*
X1869343Y1724890D02*
X1887898D01*
X1868443Y1725790D02*
X1886998D01*
X1867543Y1726690D02*
X1886098D01*
X1866643Y1727590D02*
X1885198D01*
X1865743Y1728490D02*
X1884298D01*
X1864843Y1729390D02*
X1883398D01*
X1863943Y1730290D02*
X1882498D01*
X1863043Y1731190D02*
X1881437D01*
X1874743Y1719490D02*
X1878872D01*
X1875616Y1718590D02*
X1878251D01*
X1876007Y1717690D02*
X1877256D01*
X1862143Y1732090D02*
X1874589D01*
X1861243Y1732990D02*
X1873689D01*
X1860343Y1733890D02*
X1872789D01*
X1859443Y1734790D02*
X1871889D01*
X1858543Y1735690D02*
X1870989D01*
X1857688Y1736590D02*
X1870089D01*
X1829494Y1721290D02*
X1830118D01*
X1824190Y1722190D02*
X1830103D01*
X1824172Y1723090D02*
X1829203D01*
X1824216Y1721290D02*
X1828616D01*
X1838065Y1729390D02*
X1852348D01*
X1837165Y1730290D02*
X1851460D01*
X1836265Y1731190D02*
X1850560D01*
X1835365Y1732090D02*
X1849660D01*
X1834465Y1732990D02*
X1848760D01*
X1833565Y1733890D02*
X1847860D01*
X1832665Y1734790D02*
X1846960D01*
X1831778Y1735690D02*
X1846060D01*
X1838437Y1736590D02*
X1845160D01*
X1841116Y1718590D02*
X1844861D01*
X1840146Y1723990D02*
X1844527D01*
X1840229Y1719490D02*
X1844413D01*
X1842016Y1717690D02*
X1844299D01*
X1839617Y1737490D02*
X1844260D01*
X1840146Y1723090D02*
X1844246D01*
X1842916Y1716790D02*
X1844200D01*
X1840146Y1720390D02*
X1844117D01*
X1840146Y1722190D02*
X1844117D01*
X1840146Y1721290D02*
X1844117D01*
X1838965Y1728490D02*
X1843818D01*
X1840146Y1724890D02*
X1843533D01*
X1839804Y1727590D02*
X1843182D01*
X1840517Y1738390D02*
X1843088D01*
X1840146Y1725790D02*
X1843071D01*
X1840132Y1726690D02*
X1842969D01*
X1878320Y1752790D02*
X1882379D01*
X1879220Y1753690D02*
X1882025D01*
X1880120Y1754590D02*
X1881760D01*
X1877420Y1751890D02*
X1881555D01*
X1881109Y1755490D02*
X1881384D01*
X1876520Y1750990D02*
X1880655D01*
X1875620Y1750090D02*
X1879755D01*
X1874723Y1749190D02*
X1878855D01*
X1873823Y1748290D02*
X1877955D01*
X1872923Y1747390D02*
X1877055D01*
X1872023Y1746490D02*
X1876155D01*
X1871123Y1745590D02*
X1875255D01*
X1870223Y1744690D02*
X1874355D01*
X1869430Y1743790D02*
X1873455D01*
X1868304Y1694290D02*
X1871237D01*
X1867713Y1695190D02*
X1871156D01*
X1868491Y1693390D02*
X1870375D01*
X1868377Y1692490D02*
X1870049D01*
X1859009Y1696090D02*
X1868315D01*
X1866441Y1699690D02*
X1868244D01*
X1856309Y1698790D02*
X1868106D01*
X1857209Y1697890D02*
X1868106D01*
X1858109Y1696990D02*
X1868106D01*
X1855413Y1699690D02*
X1865606D01*
X1855104Y1700590D02*
X1863998D01*
X1859909Y1695190D02*
X1863941D01*
X1854437Y1701490D02*
X1863492D01*
X1860809Y1694290D02*
X1863349D01*
X1861709Y1693390D02*
X1863163D01*
X1852238Y1702390D02*
X1863022D01*
X1852256Y1715890D02*
X1862970D01*
X1851991Y1714990D02*
X1862768D01*
X1853124Y1712290D02*
X1862764D01*
X1845445Y1713190D02*
X1862455D01*
X1851259Y1714090D02*
X1862448D01*
X1854307Y1711390D02*
X1862202D01*
X1852079Y1703290D02*
X1862164D01*
X1852201Y1716790D02*
X1862078D01*
X1854741Y1710490D02*
X1861813D01*
X1851539Y1704190D02*
X1861805D01*
X1854822Y1709590D02*
X1861783D01*
X1854587Y1708690D02*
X1861783D01*
X1853913Y1707790D02*
X1861783D01*
X1849412Y1706890D02*
X1861783D01*
X1849739Y1705990D02*
X1861783D01*
X1850639Y1705090D02*
X1861783D01*
X1851803Y1717690D02*
X1861178D01*
X1851388Y1718590D02*
X1860278D01*
X1852708Y1719490D02*
X1859378D01*
X1853326Y1720390D02*
X1858478D01*
X1853528Y1721290D02*
X1857578D01*
X1853417Y1722190D02*
X1856678D01*
X1852941Y1723090D02*
X1855778D01*
X1852252Y1723990D02*
X1854878D01*
X1845000Y1712290D02*
X1851207D01*
X1848771Y1707790D02*
X1850418D01*
X1843778Y1711390D02*
X1850024D01*
X1835033Y1708690D02*
X1849743D01*
X1835484Y1710490D02*
X1849590D01*
X1835430Y1709590D02*
X1849508D01*
X1835527Y1701490D02*
X1848013D01*
X1835543Y1700590D02*
X1848013D01*
X1835543Y1699690D02*
X1848013D01*
X1835527Y1702390D02*
X1847471D01*
X1835527Y1703290D02*
X1846150D01*
X1834508Y1707790D02*
X1845166D01*
X1835527Y1704190D02*
X1844865D01*
X1835166Y1706890D02*
X1844525D01*
X1835527Y1705090D02*
X1844407D01*
X1835491Y1705990D02*
X1844308D01*
X1835470Y1711390D02*
X1841970D01*
X1835542Y1698790D02*
X1841885D01*
X1835422Y1697890D02*
X1841039D01*
X1835542Y1695190D02*
X1840922D01*
X1835543Y1696990D02*
X1840920D01*
X1835543Y1696090D02*
X1840920D01*
X1835484Y1712290D02*
X1840748D01*
X1835754Y1713190D02*
X1840304D01*
X1835232Y1694290D02*
X1840285D01*
X1837739Y1714090D02*
X1839747D01*
X1833746Y1693390D02*
X1839385D01*
X1838508Y1714990D02*
X1838744D01*
X1833396Y1692490D02*
X1838485D01*
X1832583Y1691590D02*
X1837585D01*
X1830866Y1690690D02*
X1836685D01*
X1826775Y1800490D02*
X1968004D01*
X1955168Y1799590D02*
X1968004D01*
X1956469Y1798690D02*
X1968004D01*
X1956930Y1797790D02*
X1968004D01*
X1957031Y1796890D02*
X1968004D01*
X1956817Y1795990D02*
X1968004D01*
X1956180Y1795090D02*
X1968004D01*
X1918026Y1794190D02*
X1968004D01*
X1918336Y1793290D02*
X1968004D01*
X1918338Y1792390D02*
X1968004D01*
X1918338Y1791490D02*
X1968004D01*
X1918338Y1790590D02*
X1968004D01*
X1918338Y1789690D02*
X1968004D01*
X1918338Y1788790D02*
X1968004D01*
X1938341Y1787890D02*
X1968004D01*
X1939052Y1786990D02*
X1968004D01*
X1939392Y1786090D02*
X1968004D01*
X1945019Y1785190D02*
X1968004D01*
X1945309Y1784290D02*
X1968004D01*
X1945309Y1783390D02*
X1968004D01*
X1945309Y1782490D02*
X1968004D01*
X1945309Y1781590D02*
X1968004D01*
X1945309Y1780690D02*
X1968004D01*
X1945309Y1779790D02*
X1968004D01*
X1945309Y1778890D02*
X1968004D01*
X1945309Y1777990D02*
X1968004D01*
X1945309Y1777090D02*
X1968004D01*
X1945309Y1776190D02*
X1968004D01*
X1945309Y1775290D02*
X1968004D01*
X1945309Y1774390D02*
X1968004D01*
X1945130Y1773490D02*
X1968004D01*
X1943918Y1772590D02*
X1968004D01*
X1940209Y1771690D02*
X1968004D01*
X1940393Y1770790D02*
X1968004D01*
X1940263Y1769890D02*
X1968004D01*
X1957305Y1768990D02*
X1968004D01*
X1958627Y1768090D02*
X1968004D01*
X1959434Y1767190D02*
X1968004D01*
X1959969Y1766290D02*
X1968004D01*
X1960312Y1765390D02*
X1968004D01*
X1960496Y1764490D02*
X1968004D01*
X1960536Y1763590D02*
X1968004D01*
X1960436Y1762690D02*
X1968004D01*
X1960189Y1761790D02*
X1968004D01*
X1959771Y1760890D02*
X1968004D01*
X1959135Y1759990D02*
X1968004D01*
X1958361Y1759090D02*
X1968004D01*
X1958958Y1758190D02*
X1968004D01*
X1959858Y1757290D02*
X1968004D01*
X1960758Y1756390D02*
X1968004D01*
X1961658Y1755490D02*
X1968004D01*
X1962558Y1754590D02*
X1968004D01*
X1963310Y1753690D02*
X1968004D01*
X1963531Y1752790D02*
X1968004D01*
X1963532Y1751890D02*
X1968004D01*
X1963532Y1750990D02*
X1968004D01*
X1963532Y1750090D02*
X1968004D01*
X1963623Y1749190D02*
X1968004D01*
X1964041Y1748290D02*
X1968004D01*
X1964111Y1747390D02*
X1968004D01*
X1963862Y1746490D02*
X1968004D01*
X1963163Y1745590D02*
X1968004D01*
X1956085Y1744690D02*
X1968004D01*
X1956895Y1743790D02*
X1968004D01*
X1957180Y1742890D02*
X1968004D01*
X1957181Y1741990D02*
X1968004D01*
X1957181Y1741090D02*
X1968004D01*
X1957162Y1740190D02*
X1968004D01*
X1957162Y1739290D02*
X1968004D01*
X1957162Y1738390D02*
X1968004D01*
X1957767Y1737490D02*
X1968004D01*
X1958138Y1736590D02*
X1968004D01*
X1958146Y1735690D02*
X1968004D01*
X1958146Y1734790D02*
X1968004D01*
X1958146Y1733890D02*
X1968004D01*
X1958146Y1732990D02*
X1968004D01*
X1958146Y1732090D02*
X1968004D01*
X1957881Y1731190D02*
X1968004D01*
X1958172Y1730290D02*
X1968004D01*
X1960716Y1729390D02*
X1968004D01*
X1961277Y1728490D02*
X1968004D01*
X1961445Y1727590D02*
X1968004D01*
X1961299Y1726690D02*
X1968004D01*
X1960773Y1725790D02*
X1968004D01*
X1958292Y1724890D02*
X1968004D01*
X1957377Y1723990D02*
X1968004D01*
X1952119Y1723090D02*
X1968004D01*
X1952119Y1722190D02*
X1968004D01*
X1952119Y1721290D02*
X1968004D01*
X1952119Y1720390D02*
X1968004D01*
X1952119Y1719490D02*
X1968004D01*
X1957610Y1718590D02*
X1968004D01*
X1958287Y1717690D02*
X1968004D01*
X1958523Y1716790D02*
X1968004D01*
X1961065Y1715890D02*
X1968004D01*
X1962146Y1714990D02*
X1968004D01*
X1962552Y1714090D02*
X1968004D01*
X1962612Y1713190D02*
X1968004D01*
X1962353Y1712290D02*
X1968004D01*
X1962035Y1711390D02*
X1968004D01*
X1961889Y1710490D02*
X1968004D01*
X1961230Y1709590D02*
X1968004D01*
X1960330Y1708690D02*
X1968004D01*
X1959350Y1707790D02*
X1968004D01*
X1957299Y1706890D02*
X1968004D01*
X1957627Y1705990D02*
X1968004D01*
X1958513Y1705090D02*
X1968004D01*
X1958641Y1704190D02*
X1968004D01*
X1958641Y1703290D02*
X1968004D01*
X1958640Y1702390D02*
X1968004D01*
X1958625Y1701490D02*
X1968004D01*
X1958625Y1700590D02*
X1968004D01*
X1958625Y1699690D02*
X1968004D01*
X1959307Y1698790D02*
X1968004D01*
X1959590Y1697890D02*
X1968004D01*
X1959590Y1696990D02*
X1968004D01*
X1959590Y1696090D02*
X1968004D01*
X1959590Y1695190D02*
X1968004D01*
X1959590Y1694290D02*
X1968004D01*
X1959585Y1693390D02*
X1968004D01*
X1959265Y1692490D02*
X1968004D01*
X1959535Y1691590D02*
X1968004D01*
X1959590Y1690690D02*
X1968004D01*
X1959590Y1689790D02*
X1968004D01*
X1959590Y1688890D02*
X1968004D01*
X1959590Y1687990D02*
X1968004D01*
X1959676Y1687090D02*
X1968004D01*
X1963952Y1686190D02*
X1968004D01*
X1964603Y1685290D02*
X1968004D01*
X1964825Y1684390D02*
X1968004D01*
X1964731Y1683490D02*
X1968004D01*
X1964280Y1682590D02*
X1968004D01*
X1963041Y1681690D02*
X1968004D01*
X1952348Y1680790D02*
X1968004D01*
X1949856Y1679890D02*
X1968004D01*
X1950572Y1678990D02*
X1968004D01*
X1953039Y1678090D02*
X1968004D01*
X1957068Y1677190D02*
X1968004D01*
X1957371Y1676290D02*
X1968004D01*
X1957372Y1675390D02*
X1968004D01*
X1957372Y1674490D02*
X1968004D01*
X1957248Y1673590D02*
X1968004D01*
X1956376Y1672690D02*
X1968004D01*
X1952253Y1671790D02*
X1968004D01*
X1965977Y1670890D02*
X1968004D01*
X1966244Y1669990D02*
X1968004D01*
X1966244Y1669090D02*
X1968004D01*
X1966244Y1668190D02*
X1968004D01*
X1966244Y1667290D02*
X1968004D01*
X1966244Y1666390D02*
X1968004D01*
X1966095Y1665490D02*
X1968004D01*
X1965106Y1664590D02*
X1968004D01*
X1962406Y1663690D02*
X1968004D01*
X1963037Y1662790D02*
X1968004D01*
X1963251Y1661890D02*
X1968004D01*
X1963151Y1660990D02*
X1968004D01*
X1962690Y1660090D02*
X1968004D01*
X1961392Y1659190D02*
X1968004D01*
X1956730Y1658290D02*
X1968004D01*
X1955830Y1657390D02*
X1968004D01*
X1955577Y1656490D02*
X1968004D01*
X1955583Y1655590D02*
X1968004D01*
X1955261Y1654690D02*
X1968004D01*
X1954408Y1653790D02*
X1968004D01*
X1933817Y1652890D02*
X1968004D01*
X1933817Y1651990D02*
X1968004D01*
X1933817Y1651090D02*
X1968004D01*
X1933817Y1650190D02*
X1968004D01*
X1933817Y1649290D02*
X1968004D01*
X1947700Y1648390D02*
X1968004D01*
X1949176Y1647490D02*
X1968004D01*
X1949668Y1646590D02*
X1968004D01*
X1949834Y1645690D02*
X1968004D01*
X1961299Y1644790D02*
X1968004D01*
X1961701Y1643890D02*
X1968004D01*
X1961714Y1642990D02*
X1968004D01*
X1961744Y1642090D02*
X1968004D01*
X1966619Y1641190D02*
X1968004D01*
X1826263Y1801390D02*
X1967999D01*
X1772289Y1802290D02*
X1967869D01*
X1772614Y1803190D02*
X1967544D01*
X1773185Y1804090D02*
X1966972D01*
X1774161Y1804990D02*
X1965997D01*
X1947567Y1670890D02*
X1960146D01*
X1957630Y1659190D02*
X1959789D01*
X1953209Y1681690D02*
X1956239D01*
X1947509Y1669990D02*
X1956053D01*
X1946990Y1669090D02*
X1955759D01*
X1946961Y1668190D02*
X1955758D01*
X1946961Y1667290D02*
X1955758D01*
X1946971Y1666390D02*
X1955678D01*
X1953534Y1682590D02*
X1954967D01*
X1952119Y1718590D02*
X1954122D01*
X1880553Y1799590D02*
X1953572D01*
X1952119Y1717690D02*
X1953445D01*
X1952119Y1714990D02*
X1953397D01*
X1952119Y1715890D02*
X1953290D01*
X1947040Y1665490D02*
X1953219D01*
X1952119Y1716790D02*
X1953209D01*
X1881965Y1795090D02*
X1952560D01*
X1950307Y1660090D02*
X1952342D01*
X1881400Y1798690D02*
X1952271D01*
X1939761Y1768990D02*
X1952143D01*
X1881957Y1795990D02*
X1951923D01*
X1881815Y1797790D02*
X1951810D01*
X1931524Y1659190D02*
X1951762D01*
X1881956Y1796890D02*
X1951709D01*
X1933817Y1653790D02*
X1951498D01*
X1931524Y1658290D02*
X1951057D01*
X1938193Y1768090D02*
X1950822D01*
X1932118Y1657390D02*
X1950664D01*
X1933817Y1654690D02*
X1950645D01*
X1933018Y1656490D02*
X1950329D01*
X1933674Y1655590D02*
X1950323D01*
X1927555Y1767190D02*
X1950015D01*
X1931305Y1759990D02*
X1950006D01*
X1931305Y1760890D02*
X1949678D01*
X1927555Y1766290D02*
X1949479D01*
X1931171Y1761790D02*
X1949260D01*
X1927555Y1765390D02*
X1949137D01*
X1930258Y1762690D02*
X1949012D01*
X1927519Y1764490D02*
X1948953D01*
X1927022Y1763590D02*
X1948913D01*
X1931524Y1674490D02*
X1946955D01*
X1931524Y1675390D02*
X1946633D01*
X1933817Y1648390D02*
X1946552D01*
X1931524Y1676290D02*
X1945733D01*
X1933817Y1647490D02*
X1945076D01*
X1931926Y1677190D02*
X1944833D01*
X1933817Y1646590D02*
X1944584D01*
X1933771Y1645690D02*
X1944446D01*
X1932826Y1678090D02*
X1943940D01*
X1938789Y1701490D02*
X1943457D01*
X1933712Y1678990D02*
X1943416D01*
X1939296Y1700590D02*
X1943390D01*
X1934339Y1684390D02*
X1943271D01*
X1934339Y1683490D02*
X1943271D01*
X1934339Y1682590D02*
X1943271D01*
X1934339Y1681690D02*
X1943271D01*
X1934339Y1680790D02*
X1943271D01*
X1934210Y1679890D02*
X1943271D01*
X1940025Y1699690D02*
X1943264D01*
X1934339Y1685290D02*
X1943234D01*
X1939664Y1702390D02*
X1943182D01*
X1941464Y1704190D02*
X1943181D01*
X1940564Y1703290D02*
X1943181D01*
X1938131Y1660090D02*
X1943086D01*
X1942365Y1705090D02*
X1943030D01*
X1934339Y1692490D02*
X1942631D01*
X1940288Y1698790D02*
X1942512D01*
X1934339Y1686190D02*
X1942456D01*
X1934339Y1691590D02*
X1942320D01*
X1934339Y1693390D02*
X1942302D01*
X1940232Y1697890D02*
X1942287D01*
X1939832Y1696990D02*
X1942287D01*
X1938769Y1696090D02*
X1942287D01*
X1934339Y1695190D02*
X1942287D01*
X1934339Y1694290D02*
X1942287D01*
X1934339Y1690690D02*
X1942287D01*
X1934339Y1689790D02*
X1942287D01*
X1934339Y1688890D02*
X1942287D01*
X1934339Y1687990D02*
X1942287D01*
X1934339Y1687090D02*
X1942287D01*
X1931524Y1673590D02*
X1937815D01*
X1931524Y1665490D02*
X1937457D01*
X1931524Y1669990D02*
X1937415D01*
X1931524Y1669090D02*
X1937415D01*
X1931524Y1668190D02*
X1937415D01*
X1931524Y1667290D02*
X1937415D01*
X1931524Y1672690D02*
X1937413D01*
X1931524Y1671790D02*
X1937400D01*
X1931524Y1670890D02*
X1937400D01*
X1931524Y1666390D02*
X1937387D01*
X1931305Y1759090D02*
X1937267D01*
X1927555Y1768090D02*
X1937264D01*
X1934339Y1696090D02*
X1936507D01*
X1931305Y1758190D02*
X1936367D01*
X1931524Y1660090D02*
X1936121D01*
X1927460Y1768990D02*
X1935697D01*
X1931305Y1757290D02*
X1935467D01*
X1934356Y1696990D02*
X1935444D01*
X1931524Y1664590D02*
X1935400D01*
X1927776Y1772590D02*
X1935282D01*
X1905698Y1771690D02*
X1935248D01*
X1926713Y1769890D02*
X1935194D01*
X1896165Y1770790D02*
X1935064D01*
X1931524Y1660990D02*
X1934971D01*
X1918338Y1787890D02*
X1934967D01*
X1931524Y1663690D02*
X1934713D01*
X1931305Y1756390D02*
X1934567D01*
X1931524Y1661890D02*
X1934546D01*
X1931524Y1662790D02*
X1934471D01*
X1918338Y1786990D02*
X1934256D01*
X1928988Y1773490D02*
X1934252D01*
X1929167Y1777990D02*
X1934073D01*
X1929167Y1777090D02*
X1934073D01*
X1929167Y1776190D02*
X1934073D01*
X1929167Y1775290D02*
X1934073D01*
X1929167Y1774390D02*
X1934073D01*
X1929167Y1778890D02*
X1934012D01*
X1918255Y1786090D02*
X1934001D01*
X1928877Y1785190D02*
X1933988D01*
X1929167Y1784290D02*
X1933988D01*
X1929167Y1783390D02*
X1933988D01*
X1929167Y1782490D02*
X1933988D01*
X1929167Y1781590D02*
X1933988D01*
X1929167Y1780690D02*
X1933988D01*
X1929167Y1779790D02*
X1933988D01*
X1931177Y1755490D02*
X1933667D01*
X1930515Y1754590D02*
X1932767D01*
X1930505Y1753690D02*
X1931867D01*
X1896165Y1769890D02*
X1921435D01*
X1896165Y1768990D02*
X1920687D01*
X1906005Y1772590D02*
X1919322D01*
X1906007Y1773490D02*
X1918111D01*
X1915744Y1778890D02*
X1917931D01*
X1915686Y1777990D02*
X1917931D01*
X1915313Y1777090D02*
X1917931D01*
X1914331Y1776190D02*
X1917931D01*
X1906007Y1775290D02*
X1917931D01*
X1906007Y1774390D02*
X1917931D01*
X1915769Y1779790D02*
X1917906D01*
X1895945Y1768090D02*
X1912691D01*
X1906007Y1776190D02*
X1911701D01*
X1905755Y1777090D02*
X1910718D01*
X1896180Y1779790D02*
X1910393D01*
X1896165Y1777990D02*
X1910345D01*
X1896165Y1778890D02*
X1910310D01*
X1881901Y1767190D02*
X1899925D01*
X1896165Y1771690D02*
X1899214D01*
X1896165Y1777090D02*
X1899157D01*
X1864945Y1766290D02*
X1899025D01*
X1896160Y1772590D02*
X1898906D01*
X1896152Y1776190D02*
X1898905D01*
X1895745Y1775290D02*
X1898905D01*
X1894925Y1774390D02*
X1898905D01*
X1895816Y1773490D02*
X1898905D01*
X1865881Y1765390D02*
X1898125D01*
X1897251Y1794190D02*
X1898028D01*
X1870831Y1764490D02*
X1893319D01*
X1886473Y1763590D02*
X1892723D01*
X1886748Y1762690D02*
X1892355D01*
X1886748Y1761790D02*
X1891455D01*
X1886748Y1760890D02*
X1890555D01*
X1885955Y1774390D02*
X1890303D01*
X1828030Y1784290D02*
X1889875D01*
X1886552Y1781590D02*
X1889867D01*
X1885776Y1783390D02*
X1889859D01*
X1886470Y1782490D02*
X1889859D01*
X1886748Y1759990D02*
X1889655D01*
X1886507Y1775290D02*
X1889482D01*
X1885743Y1773490D02*
X1889405D01*
X1886552Y1780690D02*
X1889237D01*
X1886552Y1776190D02*
X1889076D01*
X1886552Y1779790D02*
X1889063D01*
X1886552Y1778890D02*
X1889063D01*
X1886552Y1777990D02*
X1889063D01*
X1886552Y1777090D02*
X1889063D01*
X1886748Y1759090D02*
X1888755D01*
X1885613Y1785190D02*
X1888220D01*
X1886605Y1758190D02*
X1887855D01*
X1886055Y1794190D02*
X1887830D01*
X1886438Y1786090D02*
X1887423D01*
X1886645Y1793290D02*
X1887228D01*
X1871780Y1763590D02*
X1880118D01*
X1872141Y1762690D02*
X1879843D01*
X1872166Y1761790D02*
X1879843D01*
X1871868Y1760890D02*
X1879843D01*
X1871068Y1759990D02*
X1879652D01*
X1828453Y1759090D02*
X1878752D01*
X1828453Y1758190D02*
X1877852D01*
X1828453Y1767190D02*
X1877210D01*
X1828453Y1757290D02*
X1876952D01*
X1873924Y1799590D02*
X1876455D01*
X1828231Y1773490D02*
X1876337D01*
X1828453Y1768090D02*
X1876247D01*
X1828842Y1772590D02*
X1876105D01*
X1829041Y1771690D02*
X1876103D01*
X1828925Y1770790D02*
X1876103D01*
X1828478Y1769890D02*
X1876103D01*
X1828453Y1768990D02*
X1876103D01*
X1828453Y1756390D02*
X1876052D01*
X1874833Y1798690D02*
X1875604D01*
X1828453Y1755490D02*
X1875152D01*
X1828453Y1754590D02*
X1874252D01*
X1828447Y1785190D02*
X1873498D01*
X1828453Y1753690D02*
X1873352D01*
X1828150Y1783390D02*
X1873335D01*
X1827218Y1774390D02*
X1873156D01*
X1828462Y1786090D02*
X1872673D01*
X1828463Y1782490D02*
X1872641D01*
X1828030Y1775290D02*
X1872604D01*
X1832910Y1781590D02*
X1872559D01*
X1833715Y1780690D02*
X1872559D01*
X1834016Y1779790D02*
X1872559D01*
X1833992Y1778890D02*
X1872559D01*
X1833634Y1777990D02*
X1872559D01*
X1832692Y1777090D02*
X1872559D01*
X1828447Y1776190D02*
X1872559D01*
X1828453Y1752790D02*
X1872455D01*
X1828453Y1751890D02*
X1871555D01*
X1828453Y1750990D02*
X1870655D01*
X1828462Y1786990D02*
X1870050D01*
X1828453Y1750090D02*
X1869755D01*
X1826810Y1799590D02*
X1869677D01*
X1828462Y1787890D02*
X1869143D01*
X1828453Y1749190D02*
X1868855D01*
X1828462Y1788790D02*
X1868700D01*
X1828462Y1789690D02*
X1868538D01*
X1866237Y1764490D02*
X1868224D01*
X1828453Y1759990D02*
X1867987D01*
X1828453Y1748290D02*
X1867955D01*
X1866299Y1763590D02*
X1867275D01*
X1828453Y1760890D02*
X1867187D01*
X1828453Y1747390D02*
X1867055D01*
X1865147Y1761790D02*
X1866889D01*
X1865959Y1762690D02*
X1866784D01*
X1855018Y1746490D02*
X1866155D01*
X1826810Y1798690D02*
X1865290D01*
X1828462Y1790590D02*
X1865008D01*
X1855957Y1745590D02*
X1864559D01*
X1826779Y1797790D02*
X1864416D01*
X1828460Y1791490D02*
X1863990D01*
X1826779Y1796890D02*
X1863957D01*
X1826810Y1795990D02*
X1863852D01*
X1826810Y1795090D02*
X1863852D01*
X1826810Y1794190D02*
X1863836D01*
X1826858Y1793290D02*
X1863836D01*
X1828150Y1792390D02*
X1863836D01*
X1856857Y1744690D02*
X1863612D01*
X1857757Y1743790D02*
X1863253D01*
X1828453Y1766290D02*
X1862299D01*
X1828453Y1761790D02*
X1862097D01*
X1828453Y1765390D02*
X1861363D01*
X1828453Y1762690D02*
X1861287D01*
X1828453Y1764490D02*
X1861007D01*
X1828453Y1763590D02*
X1860985D01*
X1828453Y1746490D02*
X1839265D01*
X1828453Y1745590D02*
X1838325D01*
X1828453Y1744690D02*
X1837425D01*
X1828453Y1743790D02*
X1836525D01*
X1830767Y1742890D02*
X1834847D01*
X1831837Y1741990D02*
X1834041D01*
X1832238Y1741090D02*
X1833740D01*
X1824569Y1706890D02*
X1830530D01*
X1824213Y1705990D02*
X1830206D01*
X1824353Y1705090D02*
X1830196D01*
X1824353Y1704190D02*
X1830196D01*
X1824352Y1703290D02*
X1830196D01*
X1824072Y1702390D02*
X1830196D01*
X1811425Y1701490D02*
X1830196D01*
X1811425Y1700590D02*
X1830181D01*
X1811425Y1699690D02*
X1830181D01*
X1824960Y1707790D02*
X1828722D01*
X1824884Y1728490D02*
X1828054D01*
X1825010Y1708690D02*
X1827542D01*
X1811425Y1729390D02*
X1827435D01*
X1827018Y1698790D02*
X1827429D01*
X1825188Y1709590D02*
X1827109D01*
X1811425Y1730290D02*
X1826535D01*
X1811425Y1731190D02*
X1825635D01*
X1811425Y1732090D02*
X1824735D01*
X1811425Y1732990D02*
X1823835D01*
X1820617Y1728490D02*
X1823069D01*
X1811425Y1733890D02*
X1822937D01*
X1811425Y1734790D02*
X1822455D01*
X1811425Y1753690D02*
X1822394D01*
X1811425Y1752790D02*
X1822394D01*
X1811425Y1751890D02*
X1822394D01*
X1811425Y1750990D02*
X1822394D01*
X1811425Y1750090D02*
X1822394D01*
X1811425Y1749190D02*
X1822394D01*
X1811425Y1748290D02*
X1822394D01*
X1811425Y1747390D02*
X1822394D01*
X1811425Y1746490D02*
X1822394D01*
X1811425Y1745590D02*
X1822394D01*
X1811425Y1744690D02*
X1822394D01*
X1811425Y1743790D02*
X1822394D01*
X1811425Y1742890D02*
X1822394D01*
X1811425Y1741990D02*
X1822394D01*
X1811425Y1741090D02*
X1822394D01*
X1811425Y1740190D02*
X1822394D01*
X1811425Y1739290D02*
X1822394D01*
X1811425Y1738390D02*
X1822394D01*
X1811425Y1737490D02*
X1822394D01*
X1811425Y1736590D02*
X1822394D01*
X1811425Y1735690D02*
X1822394D01*
X1800949Y1685290D02*
X1822281D01*
X1772158Y1801390D02*
X1821995D01*
X1811425Y1754590D02*
X1821876D01*
X1801715Y1686190D02*
X1821514D01*
X1772154Y1800490D02*
X1821483D01*
X1772154Y1799590D02*
X1821448D01*
X1772154Y1798690D02*
X1821448D01*
X1811425Y1755490D02*
X1820976D01*
X1802615Y1687090D02*
X1820614D01*
X1811425Y1756390D02*
X1820076D01*
X1811425Y1698790D02*
X1819788D01*
X1803515Y1687990D02*
X1819714D01*
X1811425Y1728490D02*
X1819422D01*
X1811425Y1757290D02*
X1819176D01*
X1811425Y1719490D02*
X1819064D01*
X1804415Y1688890D02*
X1819021D01*
X1811425Y1697890D02*
X1818941D01*
X1772154Y1797790D02*
X1818941D01*
X1811425Y1713190D02*
X1818840D01*
X1811425Y1720390D02*
X1818828D01*
X1810713Y1695190D02*
X1818824D01*
X1811425Y1696990D02*
X1818822D01*
X1811264Y1696090D02*
X1818822D01*
X1809815Y1694290D02*
X1818801D01*
X1805315Y1689790D02*
X1818765D01*
X1808915Y1693390D02*
X1818752D01*
X1808015Y1692490D02*
X1818752D01*
X1807115Y1691590D02*
X1818752D01*
X1806215Y1690690D02*
X1818752D01*
X1811425Y1721290D02*
X1818659D01*
X1811425Y1758190D02*
X1818569D01*
X1772154Y1792390D02*
X1818454D01*
X1772154Y1791490D02*
X1818454D01*
X1772154Y1790590D02*
X1818454D01*
X1772154Y1789690D02*
X1818454D01*
X1772154Y1788790D02*
X1818454D01*
X1772154Y1787890D02*
X1818454D01*
X1808787Y1786990D02*
X1818454D01*
X1809923Y1786090D02*
X1818454D01*
X1810808Y1785190D02*
X1818454D01*
X1811300Y1784290D02*
X1818454D01*
X1811425Y1783390D02*
X1818454D01*
X1811425Y1782490D02*
X1818454D01*
X1811425Y1781590D02*
X1818454D01*
X1811425Y1780690D02*
X1818454D01*
X1811425Y1779790D02*
X1818454D01*
X1811425Y1778890D02*
X1818454D01*
X1811425Y1777990D02*
X1818454D01*
X1811425Y1777090D02*
X1818454D01*
X1811425Y1776190D02*
X1818454D01*
X1811425Y1775290D02*
X1818454D01*
X1811425Y1774390D02*
X1818454D01*
X1811425Y1773490D02*
X1818454D01*
X1811425Y1772590D02*
X1818454D01*
X1811425Y1771690D02*
X1818454D01*
X1811425Y1770790D02*
X1818454D01*
X1811425Y1769890D02*
X1818454D01*
X1811425Y1768990D02*
X1818454D01*
X1811425Y1768090D02*
X1818454D01*
X1811425Y1767190D02*
X1818454D01*
X1812710Y1766290D02*
X1818454D01*
X1813744Y1765390D02*
X1818454D01*
X1814134Y1764490D02*
X1818454D01*
X1814183Y1763590D02*
X1818454D01*
X1813912Y1762690D02*
X1818454D01*
X1813167Y1761790D02*
X1818454D01*
X1811444Y1760890D02*
X1818454D01*
X1811425Y1759990D02*
X1818454D01*
X1811425Y1759090D02*
X1818454D01*
X1811425Y1712290D02*
X1818227D01*
X1772154Y1793290D02*
X1818125D01*
X1811425Y1722190D02*
X1818057D01*
X1811425Y1718590D02*
X1817998D01*
X1772154Y1796890D02*
X1817989D01*
X1811425Y1727590D02*
X1817964D01*
X1811425Y1723990D02*
X1817944D01*
X1811425Y1723090D02*
X1817944D01*
X1772154Y1794190D02*
X1817848D01*
X1772154Y1795990D02*
X1817848D01*
X1772154Y1795090D02*
X1817848D01*
X1811425Y1714090D02*
X1817743D01*
X1811425Y1702390D02*
X1817661D01*
X1811425Y1724890D02*
X1817550D01*
X1811425Y1726690D02*
X1817476D01*
X1811425Y1711390D02*
X1817457D01*
X1811425Y1705990D02*
X1817403D01*
X1811425Y1725790D02*
X1817356D01*
X1811425Y1706890D02*
X1817232D01*
X1811425Y1710490D02*
X1817218D01*
X1811425Y1717690D02*
X1817042D01*
X1811425Y1703290D02*
X1817034D01*
X1811425Y1714990D02*
X1816948D01*
X1811425Y1705090D02*
X1816933D01*
X1811425Y1704190D02*
X1816827D01*
X1811425Y1709590D02*
X1816824D01*
X1811425Y1707790D02*
X1816746D01*
X1811425Y1716790D02*
X1816679D01*
X1811425Y1715890D02*
X1816652D01*
X1811425Y1708690D02*
X1816628D01*
X1772154Y1786990D02*
X1806568D01*
X1772154Y1781590D02*
X1806094D01*
X1772154Y1780690D02*
X1806094D01*
X1772154Y1779790D02*
X1806094D01*
X1772154Y1778890D02*
X1806094D01*
X1772154Y1777990D02*
X1806094D01*
X1772154Y1777090D02*
X1806094D01*
X1772154Y1776190D02*
X1806094D01*
X1772154Y1775290D02*
X1806094D01*
X1772154Y1774390D02*
X1806094D01*
X1772154Y1773490D02*
X1806094D01*
X1772154Y1772590D02*
X1806094D01*
X1772154Y1771690D02*
X1806094D01*
X1772154Y1770790D02*
X1806094D01*
X1772154Y1769890D02*
X1806094D01*
X1788014Y1768990D02*
X1806094D01*
X1789336Y1768090D02*
X1806094D01*
X1790143Y1767190D02*
X1806094D01*
X1789844Y1759990D02*
X1806094D01*
X1788872Y1759090D02*
X1806094D01*
X1787038Y1758190D02*
X1806094D01*
X1772154Y1757290D02*
X1806094D01*
X1772154Y1756390D02*
X1806094D01*
X1780946Y1755490D02*
X1806094D01*
X1782303Y1754590D02*
X1806094D01*
X1782613Y1753690D02*
X1806094D01*
X1789538Y1752790D02*
X1806094D01*
X1790439Y1751890D02*
X1806094D01*
X1791339Y1750990D02*
X1806094D01*
X1792239Y1750090D02*
X1806094D01*
X1793139Y1749190D02*
X1806094D01*
X1794039Y1748290D02*
X1806094D01*
X1794939Y1747390D02*
X1806094D01*
X1795839Y1746490D02*
X1806094D01*
X1796739Y1745590D02*
X1806094D01*
X1797639Y1744690D02*
X1806094D01*
X1798539Y1743790D02*
X1806094D01*
X1799439Y1742890D02*
X1806094D01*
X1800339Y1741990D02*
X1806094D01*
X1801239Y1741090D02*
X1806094D01*
X1802139Y1740190D02*
X1806094D01*
X1803039Y1739290D02*
X1806094D01*
X1804359Y1732090D02*
X1806094D01*
X1804359Y1731190D02*
X1806094D01*
X1804359Y1730290D02*
X1806094D01*
X1804359Y1729390D02*
X1806094D01*
X1804359Y1728490D02*
X1806094D01*
X1804355Y1727590D02*
X1806094D01*
X1804147Y1726690D02*
X1806094D01*
X1803522Y1725790D02*
X1806094D01*
X1802622Y1724890D02*
X1806094D01*
X1801722Y1723990D02*
X1806094D01*
X1800822Y1723090D02*
X1806094D01*
X1799922Y1722190D02*
X1806094D01*
X1799022Y1721290D02*
X1806094D01*
X1798122Y1720390D02*
X1806094D01*
X1797222Y1719490D02*
X1806094D01*
X1796322Y1718590D02*
X1806094D01*
X1795422Y1717690D02*
X1806094D01*
X1794522Y1716790D02*
X1806094D01*
X1793622Y1715890D02*
X1806094D01*
X1792722Y1714990D02*
X1806094D01*
X1791822Y1714090D02*
X1806094D01*
X1790922Y1713190D02*
X1806094D01*
X1790022Y1712290D02*
X1806094D01*
X1789122Y1711390D02*
X1806094D01*
X1788222Y1710490D02*
X1806094D01*
X1787322Y1709590D02*
X1806094D01*
X1786422Y1708690D02*
X1806094D01*
X1785522Y1707790D02*
X1806094D01*
X1784615Y1706890D02*
X1806094D01*
X1782673Y1705990D02*
X1806094D01*
X1782383Y1705090D02*
X1806094D01*
X1779373Y1704190D02*
X1806094D01*
X1779415Y1703290D02*
X1806094D01*
X1781004Y1702390D02*
X1806094D01*
X1781806Y1701490D02*
X1806094D01*
X1782283Y1700590D02*
X1806094D01*
X1782538Y1699690D02*
X1806094D01*
X1782607Y1698790D02*
X1806094D01*
X1804377Y1732990D02*
X1806077D01*
X1790480Y1760890D02*
X1806047D01*
X1772154Y1782490D02*
X1805981D01*
X1782500Y1697890D02*
X1805876D01*
X1772154Y1786090D02*
X1805490D01*
X1772154Y1783390D02*
X1805286D01*
X1772154Y1785190D02*
X1805086D01*
X1772154Y1784290D02*
X1805026D01*
X1790678Y1766290D02*
X1804986D01*
X1782204Y1696990D02*
X1804976D01*
X1790897Y1761790D02*
X1804255D01*
X1781671Y1696090D02*
X1804076D01*
X1791020Y1765390D02*
X1803831D01*
X1791145Y1762690D02*
X1803570D01*
X1791204Y1764490D02*
X1803405D01*
X1791245Y1763590D02*
X1803329D01*
X1780772Y1695190D02*
X1803176D01*
X1778848Y1694290D02*
X1802276D01*
X1779055Y1693390D02*
X1801376D01*
X1780884Y1692490D02*
X1800476D01*
X1781736Y1691590D02*
X1799576D01*
X1778554Y1735690D02*
X1799088D01*
X1780316Y1734790D02*
X1799050D01*
X1781366Y1733890D02*
X1799028D01*
X1781975Y1732990D02*
X1799028D01*
X1782327Y1732090D02*
X1799028D01*
X1782481Y1731190D02*
X1799028D01*
X1782457Y1730290D02*
X1799028D01*
X1782253Y1729390D02*
X1799028D01*
X1781840Y1728490D02*
X1798683D01*
X1782242Y1690690D02*
X1798676D01*
X1779655Y1736590D02*
X1798200D01*
X1781140Y1727590D02*
X1797783D01*
X1782519Y1689790D02*
X1797776D01*
X1781037Y1737490D02*
X1797300D01*
X1779876Y1726690D02*
X1796883D01*
X1782608Y1688890D02*
X1796876D01*
X1781778Y1738390D02*
X1796400D01*
X1772154Y1725790D02*
X1795983D01*
X1782521Y1687990D02*
X1795976D01*
X1782218Y1739290D02*
X1795500D01*
X1772154Y1724890D02*
X1795083D01*
X1782247Y1687090D02*
X1795076D01*
X1782443Y1740190D02*
X1794600D01*
X1772154Y1723990D02*
X1794183D01*
X1781745Y1686190D02*
X1794176D01*
X1782487Y1741090D02*
X1793700D01*
X1772154Y1723090D02*
X1793283D01*
X1780900Y1685290D02*
X1793276D01*
X1782353Y1741990D02*
X1792800D01*
X1772154Y1722190D02*
X1792383D01*
X1779105Y1684390D02*
X1792376D01*
X1782025Y1742890D02*
X1791900D01*
X1772154Y1721290D02*
X1791483D01*
X1772154Y1683490D02*
X1791476D01*
X1781450Y1743790D02*
X1791000D01*
X1772154Y1720390D02*
X1790583D01*
X1772154Y1682590D02*
X1790576D01*
X1780469Y1744690D02*
X1790100D01*
X1772154Y1719490D02*
X1789683D01*
X1772154Y1681690D02*
X1789676D01*
X1779014Y1745590D02*
X1789200D01*
X1772154Y1718590D02*
X1788783D01*
X1772154Y1680790D02*
X1788776D01*
X1781713Y1746490D02*
X1788300D01*
X1772154Y1679890D02*
X1787960D01*
X1772154Y1717690D02*
X1787883D01*
X1772154Y1678990D02*
X1787590D01*
X1772154Y1678090D02*
X1787533D01*
X1772154Y1677190D02*
X1787533D01*
X1772154Y1676290D02*
X1787533D01*
X1772154Y1675390D02*
X1787533D01*
X1772154Y1674490D02*
X1787533D01*
X1772154Y1673590D02*
X1787533D01*
X1772154Y1672690D02*
X1787533D01*
X1772154Y1671790D02*
X1787533D01*
X1772154Y1670890D02*
X1787533D01*
X1772154Y1669990D02*
X1787533D01*
X1772154Y1669090D02*
X1787533D01*
X1772154Y1668190D02*
X1787533D01*
X1772154Y1667290D02*
X1787533D01*
X1772154Y1666390D02*
X1787533D01*
X1772154Y1665490D02*
X1787533D01*
X1772154Y1664590D02*
X1787533D01*
X1772154Y1663690D02*
X1787533D01*
X1772154Y1662790D02*
X1787533D01*
X1772154Y1661890D02*
X1787533D01*
X1772154Y1660990D02*
X1787533D01*
X1772154Y1660090D02*
X1787533D01*
X1772154Y1659190D02*
X1787533D01*
X1772154Y1656490D02*
X1787520D01*
X1772154Y1658290D02*
X1787517D01*
X1772154Y1657390D02*
X1787517D01*
X1782410Y1747390D02*
X1787400D01*
X1772154Y1716790D02*
X1786983D01*
X1772154Y1715890D02*
X1786083D01*
X1772154Y1714990D02*
X1785183D01*
X1772154Y1714090D02*
X1784283D01*
X1772154Y1758190D02*
X1783828D01*
X1781924Y1713190D02*
X1783383D01*
X1772154Y1768990D02*
X1782852D01*
X1772154Y1759090D02*
X1781994D01*
X1772154Y1768090D02*
X1781530D01*
X1772154Y1759990D02*
X1781022D01*
X1772154Y1767190D02*
X1780723D01*
X1772154Y1760890D02*
X1780387D01*
X1772154Y1766290D02*
X1780188D01*
X1772154Y1761790D02*
X1779969D01*
X1772154Y1765390D02*
X1779846D01*
X1772154Y1762690D02*
X1779721D01*
X1772154Y1764490D02*
X1779662D01*
X1772154Y1763590D02*
X1779621D01*
X1772154Y1735690D02*
X1777163D01*
X1772154Y1694290D02*
X1777101D01*
X1772154Y1693390D02*
X1776894D01*
X1772154Y1684390D02*
X1776844D01*
X1772154Y1745590D02*
X1776703D01*
X1772154Y1704190D02*
X1776575D01*
X1772154Y1703290D02*
X1776534D01*
X1772154Y1736590D02*
X1776062D01*
X1772154Y1726690D02*
X1775841D01*
X1772154Y1734790D02*
X1775401D01*
X1772154Y1744690D02*
X1775248D01*
X1772154Y1695190D02*
X1775176D01*
X1772154Y1692490D02*
X1775064D01*
X1772154Y1685290D02*
X1775049D01*
X1772154Y1702390D02*
X1774945D01*
X1772154Y1755490D02*
X1774771D01*
X1772154Y1737490D02*
X1774680D01*
X1772154Y1727590D02*
X1774577D01*
X1772154Y1733890D02*
X1774351D01*
X1772154Y1696090D02*
X1774277D01*
X1772154Y1743790D02*
X1774267D01*
X1772154Y1691590D02*
X1774213D01*
X1772154Y1686190D02*
X1774204D01*
X1772154Y1701490D02*
X1774143D01*
X1772154Y1713190D02*
X1774024D01*
X1772154Y1746490D02*
X1774004D01*
X1772154Y1738390D02*
X1773939D01*
X1772154Y1728490D02*
X1773877D01*
X1772154Y1696990D02*
X1773745D01*
X1772154Y1732990D02*
X1773742D01*
X1772154Y1690690D02*
X1773707D01*
X1772154Y1687090D02*
X1773702D01*
X1772154Y1742890D02*
X1773692D01*
X1772154Y1700590D02*
X1773666D01*
X1772154Y1705090D02*
X1773566D01*
X1772154Y1739290D02*
X1773499D01*
X1772154Y1729390D02*
X1773464D01*
X1772154Y1697890D02*
X1773448D01*
X1772154Y1689790D02*
X1773430D01*
X1772154Y1655590D02*
X1773429D01*
X1772154Y1687990D02*
X1773428D01*
X1772154Y1754590D02*
X1773414D01*
X1772154Y1699690D02*
X1773411D01*
X1772154Y1712290D02*
X1773403D01*
X1772154Y1732090D02*
X1773390D01*
X1772154Y1741990D02*
X1773364D01*
X1772154Y1698790D02*
X1773341D01*
X1772154Y1688890D02*
X1773341D01*
X1772154Y1711390D02*
X1773341D01*
X1772154Y1710490D02*
X1773341D01*
X1772154Y1709590D02*
X1773341D01*
X1772154Y1708690D02*
X1773341D01*
X1772154Y1707790D02*
X1773341D01*
X1772154Y1706890D02*
X1773341D01*
X1772154Y1705990D02*
X1773341D01*
X1772154Y1747390D02*
X1773307D01*
X1772154Y1740190D02*
X1773274D01*
X1772154Y1730290D02*
X1773260D01*
X1772154Y1731190D02*
X1773236D01*
X1772154Y1741090D02*
X1773230D01*
X1772154Y1753690D02*
X1773225D01*
X1772154Y1752790D02*
X1773225D01*
X1772154Y1751890D02*
X1773225D01*
X1772154Y1750990D02*
X1773225D01*
X1772154Y1750090D02*
X1773225D01*
X1772154Y1749190D02*
X1773225D01*
X1772154Y1748290D02*
X1773225D01*
X1829109Y1611490D02*
X1831292D01*
X1829752Y1610590D02*
X1830681D01*
X1966039Y1636690D02*
X1968004D01*
X1956914Y1635790D02*
X1968004D01*
X1957146Y1634890D02*
X1968004D01*
X1962384Y1633990D02*
X1968004D01*
X1963642Y1633090D02*
X1968004D01*
X1963986Y1632190D02*
X1968004D01*
X1964008Y1631290D02*
X1968004D01*
X1964008Y1630390D02*
X1968004D01*
X1964008Y1629490D02*
X1968004D01*
X1964008Y1628590D02*
X1968004D01*
X1964008Y1627690D02*
X1968004D01*
X1964008Y1626790D02*
X1968004D01*
X1964008Y1625890D02*
X1968004D01*
X1964008Y1624990D02*
X1968004D01*
X1964000Y1624090D02*
X1968004D01*
X1963721Y1623190D02*
X1968004D01*
X1962738Y1622290D02*
X1968004D01*
X1958078Y1621390D02*
X1968004D01*
X1957867Y1620490D02*
X1968004D01*
X1953738Y1619590D02*
X1968004D01*
X1952878Y1618690D02*
X1968004D01*
X1952862Y1617790D02*
X1968004D01*
X1953196Y1616890D02*
X1968004D01*
X1953442Y1615990D02*
X1968004D01*
X1953370Y1615090D02*
X1968004D01*
X1952950Y1614190D02*
X1968004D01*
X1951819Y1613290D02*
X1968004D01*
X1950299Y1612390D02*
X1968004D01*
X1950299Y1611490D02*
X1968004D01*
X1950299Y1610590D02*
X1968004D01*
X1950299Y1609690D02*
X1968004D01*
X1950299Y1608790D02*
X1968004D01*
X1950850Y1607890D02*
X1968004D01*
X1951393Y1606990D02*
X1968004D01*
X1951490Y1606090D02*
X1968004D01*
X1951490Y1605190D02*
X1968004D01*
X1961620Y1604290D02*
X1968004D01*
X1962866Y1603390D02*
X1968004D01*
X1963315Y1602490D02*
X1968004D01*
X1963407Y1601590D02*
X1968004D01*
X1963189Y1600690D02*
X1968004D01*
X1963398Y1599790D02*
X1968004D01*
X1963428Y1598890D02*
X1968004D01*
X1963135Y1597990D02*
X1968004D01*
X1962347Y1597090D02*
X1968004D01*
X1951490Y1596190D02*
X1968004D01*
X1951490Y1595290D02*
X1968004D01*
X1951372Y1594390D02*
X1968004D01*
X1950787Y1593490D02*
X1968004D01*
X1949887Y1592590D02*
X1968004D01*
X1948987Y1591690D02*
X1968004D01*
X1948595Y1590790D02*
X1968004D01*
X1948595Y1589890D02*
X1968004D01*
X1948595Y1588990D02*
X1968004D01*
X1956848Y1588090D02*
X1968004D01*
X1958391Y1587190D02*
X1968004D01*
X1959281Y1586290D02*
X1968004D01*
X1959868Y1585390D02*
X1968004D01*
X1960249Y1584490D02*
X1968004D01*
X1960467Y1583590D02*
X1968004D01*
X1960539Y1582690D02*
X1968004D01*
X1960471Y1581790D02*
X1968004D01*
X1960258Y1580890D02*
X1968004D01*
X1959881Y1579990D02*
X1967948D01*
X1967128Y1637590D02*
X1967880D01*
X1959301Y1579090D02*
X1967711D01*
X1958423Y1578190D02*
X1967257D01*
X1956914Y1577290D02*
X1966491D01*
X1955949Y1576390D02*
X1965023D01*
X1951490Y1604290D02*
X1959876D01*
X1951490Y1597090D02*
X1959228D01*
X1958157Y1622290D02*
X1959163D01*
X1956229Y1603390D02*
X1958630D01*
X1951490Y1597990D02*
X1958440D01*
X1957113Y1600690D02*
X1958312D01*
X1956931Y1602490D02*
X1958181D01*
X1956697Y1599790D02*
X1958177D01*
X1955581Y1598890D02*
X1958147D01*
X1932839Y1637590D02*
X1956423D01*
X1935005Y1639390D02*
X1956352D01*
X1934105Y1638490D02*
X1956352D01*
X1786658Y1576390D02*
X1953500D01*
X1951490Y1598890D02*
X1953474D01*
X1951490Y1603390D02*
X1952826D01*
X1948586Y1588090D02*
X1952600D01*
X1787623Y1577290D02*
X1952534D01*
X1951627Y1599790D02*
X1952353D01*
X1912468Y1636690D02*
X1952240D01*
X1948302Y1587190D02*
X1951058D01*
X1789132Y1578190D02*
X1951025D01*
X1912468Y1635790D02*
X1950943D01*
X1947500Y1586290D02*
X1950168D01*
X1903411Y1579090D02*
X1950147D01*
X1912286Y1634890D02*
X1950043D01*
X1929033Y1585390D02*
X1949581D01*
X1904009Y1579990D02*
X1949567D01*
X1929033Y1584490D02*
X1949199D01*
X1926644Y1580890D02*
X1949191D01*
X1911049Y1633990D02*
X1949143D01*
X1928985Y1583590D02*
X1948982D01*
X1927682Y1581790D02*
X1948977D01*
X1928562Y1582690D02*
X1948909D01*
X1884182Y1598890D02*
X1942116D01*
X1897499Y1597990D02*
X1942116D01*
X1897890Y1597090D02*
X1942116D01*
X1897901Y1596190D02*
X1942116D01*
X1897901Y1595290D02*
X1941928D01*
X1884182Y1599790D02*
X1941839D01*
X1879224Y1633090D02*
X1941201D01*
X1884182Y1600690D02*
X1941004D01*
X1879224Y1632190D02*
X1940687D01*
X1884182Y1601590D02*
X1940667D01*
X1939043Y1609690D02*
X1940647D01*
X1932022Y1608790D02*
X1940647D01*
X1932827Y1607890D02*
X1940647D01*
X1933224Y1606990D02*
X1940647D01*
X1933595Y1606090D02*
X1940647D01*
X1933837Y1605190D02*
X1940647D01*
X1933761Y1604290D02*
X1940647D01*
X1933335Y1603390D02*
X1940647D01*
X1932182Y1602490D02*
X1940647D01*
X1930571Y1624990D02*
X1940625D01*
X1930526Y1625890D02*
X1940622D01*
X1930526Y1626790D02*
X1940619D01*
X1930526Y1627690D02*
X1940616D01*
X1930526Y1628590D02*
X1940612D01*
X1930526Y1629490D02*
X1940609D01*
X1930467Y1630390D02*
X1940606D01*
X1930013Y1631290D02*
X1940603D01*
X1939717Y1624090D02*
X1940529D01*
X1929033Y1586290D02*
X1938743D01*
X1897822Y1594390D02*
X1938270D01*
X1929033Y1587190D02*
X1937863D01*
X1902247Y1593490D02*
X1937592D01*
X1928898Y1588090D02*
X1937458D01*
X1903554Y1592590D02*
X1937416D01*
X1904016Y1591690D02*
X1937416D01*
X1904118Y1590790D02*
X1937416D01*
X1927382Y1589890D02*
X1937416D01*
X1928282Y1588990D02*
X1937416D01*
X1932024Y1609690D02*
X1934121D01*
X1883945Y1602490D02*
X1930180D01*
X1871608Y1603390D02*
X1929027D01*
X1868593Y1604290D02*
X1928601D01*
X1867936Y1605190D02*
X1928526D01*
X1879876Y1606090D02*
X1927389D01*
X1922422Y1614190D02*
X1927032D01*
X1922422Y1615090D02*
X1926801D01*
X1922201Y1610590D02*
X1926709D01*
X1880238Y1606990D02*
X1926709D01*
X1922422Y1616890D02*
X1926647D01*
X1922422Y1615990D02*
X1926647D01*
X1922422Y1613290D02*
X1926643D01*
X1921386Y1609690D02*
X1926643D01*
X1922422Y1612390D02*
X1926632D01*
X1922421Y1611490D02*
X1926632D01*
X1880245Y1608790D02*
X1926632D01*
X1880245Y1607890D02*
X1926632D01*
X1904199Y1580890D02*
X1913401D01*
X1880245Y1609690D02*
X1913144D01*
X1903905Y1589890D02*
X1912689D01*
X1904076Y1581790D02*
X1912495D01*
X1903269Y1588990D02*
X1912280D01*
X1903583Y1582690D02*
X1912241D01*
X1880245Y1610590D02*
X1912240D01*
X1902783Y1588090D02*
X1912237D01*
X1903516Y1587190D02*
X1912237D01*
X1903819Y1586290D02*
X1912237D01*
X1903796Y1585390D02*
X1912237D01*
X1903440Y1584490D02*
X1912237D01*
X1902836Y1583590D02*
X1912237D01*
X1880193Y1611490D02*
X1911340D01*
X1879666Y1612390D02*
X1910440D01*
X1879809Y1613290D02*
X1909540D01*
X1879830Y1614190D02*
X1908640D01*
X1879830Y1615090D02*
X1907740D01*
X1879224Y1633990D02*
X1907333D01*
X1879773Y1615990D02*
X1906840D01*
X1879224Y1631290D02*
X1906510D01*
X1879809Y1616890D02*
X1906168D01*
X1879224Y1630390D02*
X1906056D01*
X1879224Y1629490D02*
X1905997D01*
X1879224Y1628590D02*
X1905997D01*
X1879224Y1627690D02*
X1905997D01*
X1879224Y1626790D02*
X1905997D01*
X1879224Y1625890D02*
X1905997D01*
X1879224Y1624990D02*
X1905997D01*
X1879224Y1624090D02*
X1905997D01*
X1879224Y1623190D02*
X1905997D01*
X1879224Y1622290D02*
X1905997D01*
X1879224Y1621390D02*
X1905997D01*
X1879256Y1620490D02*
X1905997D01*
X1879773Y1619590D02*
X1905997D01*
X1879830Y1618690D02*
X1905997D01*
X1879830Y1617790D02*
X1905997D01*
X1879224Y1634890D02*
X1905442D01*
X1879224Y1635790D02*
X1904919D01*
X1879224Y1636690D02*
X1904776D01*
X1790010Y1579090D02*
X1896390D01*
X1886715Y1582690D02*
X1896275D01*
X1872171Y1581790D02*
X1896139D01*
X1871213Y1580890D02*
X1896139D01*
X1790590Y1579990D02*
X1896139D01*
X1772154Y1593490D02*
X1893054D01*
X1884182Y1597990D02*
X1892941D01*
X1860282Y1594390D02*
X1892618D01*
X1871145Y1588990D02*
X1892609D01*
X1772154Y1592590D02*
X1892552D01*
X1884070Y1597090D02*
X1892550D01*
X1883256Y1596190D02*
X1892539D01*
X1860967Y1595290D02*
X1892539D01*
X1772154Y1589890D02*
X1892433D01*
X1772154Y1591690D02*
X1892432D01*
X1772154Y1590790D02*
X1892432D01*
X1872160Y1588090D02*
X1884678D01*
X1879224Y1637590D02*
X1883136D01*
X1879224Y1638490D02*
X1881871D01*
X1879224Y1639390D02*
X1880971D01*
X1879378Y1640290D02*
X1880070D01*
X1871722Y1596190D02*
X1878990D01*
X1872086Y1602490D02*
X1878301D01*
X1872125Y1597090D02*
X1878175D01*
X1794175Y1642090D02*
X1875074D01*
X1794175Y1641190D02*
X1875074D01*
X1794175Y1640290D02*
X1875074D01*
X1794175Y1639390D02*
X1875074D01*
X1794175Y1638490D02*
X1875074D01*
X1793985Y1637590D02*
X1875074D01*
X1793287Y1636690D02*
X1875074D01*
X1792387Y1635790D02*
X1875074D01*
X1791487Y1634890D02*
X1875074D01*
X1772154Y1633990D02*
X1875074D01*
X1772154Y1633090D02*
X1875074D01*
X1824343Y1632190D02*
X1875074D01*
X1825557Y1631290D02*
X1875074D01*
X1825737Y1630390D02*
X1875074D01*
X1825737Y1629490D02*
X1875074D01*
X1825737Y1628590D02*
X1875074D01*
X1825593Y1627690D02*
X1875074D01*
X1831645Y1626790D02*
X1875074D01*
X1832527Y1625890D02*
X1875074D01*
X1832861Y1624990D02*
X1875074D01*
X1850788Y1624090D02*
X1875074D01*
X1856500Y1623190D02*
X1875074D01*
X1857655Y1622290D02*
X1875074D01*
X1858280Y1621390D02*
X1875074D01*
X1794175Y1642990D02*
X1875043D01*
X1858421Y1620490D02*
X1875042D01*
X1831915Y1612390D02*
X1874678D01*
X1858421Y1619590D02*
X1874525D01*
X1852770Y1615990D02*
X1874525D01*
X1867036Y1606090D02*
X1874495D01*
X1857376Y1616890D02*
X1874489D01*
X1832593Y1613290D02*
X1874489D01*
X1858416Y1618690D02*
X1874468D01*
X1858152Y1617790D02*
X1874468D01*
X1851809Y1615090D02*
X1874468D01*
X1832908Y1614190D02*
X1874468D01*
X1794175Y1643890D02*
X1874207D01*
X1834159Y1611490D02*
X1874178D01*
X1866136Y1606990D02*
X1874133D01*
X1835146Y1610590D02*
X1874127D01*
X1863064Y1609690D02*
X1874127D01*
X1864336Y1608790D02*
X1874127D01*
X1865236Y1607890D02*
X1874127D01*
X1794175Y1644790D02*
X1873307D01*
X1794298Y1645690D02*
X1872407D01*
X1794345Y1646590D02*
X1871507D01*
X1794345Y1647490D02*
X1870607D01*
X1794345Y1648390D02*
X1869707D01*
X1794345Y1649290D02*
X1868807D01*
X1794345Y1650190D02*
X1867907D01*
X1794345Y1651090D02*
X1867007D01*
X1794345Y1651990D02*
X1866107D01*
X1794345Y1652890D02*
X1865207D01*
X1794345Y1653790D02*
X1864307D01*
X1794387Y1654690D02*
X1863407D01*
X1803740Y1655590D02*
X1862507D01*
X1772154Y1588990D02*
X1862246D01*
X1790967Y1580890D02*
X1862177D01*
X1838782Y1685290D02*
X1861712D01*
X1839724Y1686190D02*
X1861647D01*
X1804065Y1656490D02*
X1861607D01*
X1787557Y1588090D02*
X1861230D01*
X1791180Y1581790D02*
X1861220D01*
X1789100Y1587190D02*
X1861077D01*
X1789989Y1586290D02*
X1861077D01*
X1790576Y1585390D02*
X1861077D01*
X1790958Y1584490D02*
X1861077D01*
X1791176Y1583590D02*
X1861077D01*
X1791248Y1582690D02*
X1861077D01*
X1832512Y1684390D02*
X1860812D01*
X1854833Y1657390D02*
X1860707D01*
X1833066Y1683490D02*
X1859912D01*
X1855570Y1658290D02*
X1859807D01*
X1840624Y1687090D02*
X1859078D01*
X1833967Y1682590D02*
X1859012D01*
X1855838Y1659190D02*
X1858907D01*
X1841524Y1687990D02*
X1858178D01*
X1835700Y1681690D02*
X1858112D01*
X1855785Y1660090D02*
X1858007D01*
X1850731Y1688890D02*
X1857278D01*
X1850631Y1680790D02*
X1857212D01*
X1855391Y1660990D02*
X1857107D01*
X1851330Y1689790D02*
X1856378D01*
X1851740Y1679890D02*
X1856312D01*
X1855513Y1661890D02*
X1856207D01*
X1854238Y1609690D02*
X1856091D01*
X1851522Y1690690D02*
X1855478D01*
X1852153Y1678990D02*
X1855412D01*
X1851400Y1691590D02*
X1854578D01*
X1852220Y1678090D02*
X1854512D01*
X1850909Y1692490D02*
X1853678D01*
X1851969Y1677190D02*
X1853612D01*
X1851642Y1676290D02*
X1852888D01*
X1850315Y1693390D02*
X1852778D01*
X1851642Y1675390D02*
X1852676D01*
X1851642Y1674490D02*
X1852676D01*
X1851642Y1673590D02*
X1852676D01*
X1851642Y1672690D02*
X1852676D01*
X1810525Y1666390D02*
X1851707D01*
X1845206Y1665490D02*
X1851684D01*
X1845266Y1657390D02*
X1851545D01*
X1849068Y1609690D02*
X1851037D01*
X1845855Y1661890D02*
X1851035D01*
X1845824Y1660990D02*
X1850987D01*
X1845979Y1664590D02*
X1850910D01*
X1846003Y1658290D02*
X1850808D01*
X1811006Y1667290D02*
X1850807D01*
X1846229Y1662790D02*
X1850661D01*
X1846265Y1663690D02*
X1850625D01*
X1846219Y1660090D02*
X1850593D01*
X1846271Y1659190D02*
X1850540D01*
X1811366Y1668190D02*
X1849907D01*
X1811619Y1669090D02*
X1849007D01*
X1836271Y1680790D02*
X1848503D01*
X1847149Y1594390D02*
X1848449D01*
X1811774Y1669990D02*
X1848107D01*
X1811837Y1670890D02*
X1847573D01*
X1810157Y1676290D02*
X1847492D01*
X1810725Y1675390D02*
X1847492D01*
X1811158Y1674490D02*
X1847492D01*
X1811475Y1673590D02*
X1847492D01*
X1811690Y1672690D02*
X1847492D01*
X1811809Y1671790D02*
X1847492D01*
X1836444Y1679890D02*
X1847394D01*
X1834044Y1677190D02*
X1847165D01*
X1842424Y1688890D02*
X1846986D01*
X1836305Y1678990D02*
X1846980D01*
X1835788Y1678090D02*
X1846914D01*
X1843324Y1689790D02*
X1846386D01*
X1845124Y1691590D02*
X1846283D01*
X1835520Y1609690D02*
X1846208D01*
X1844224Y1690690D02*
X1846195D01*
X1832865Y1624090D02*
X1843355D01*
X1832897Y1615090D02*
X1842553D01*
X1832542Y1623190D02*
X1842247D01*
X1835557Y1608790D02*
X1842231D01*
X1832553Y1615990D02*
X1842034D01*
X1831755Y1622290D02*
X1841960D01*
X1841783Y1665490D02*
X1841957D01*
X1832141Y1621390D02*
X1841947D01*
X1832697Y1620490D02*
X1841947D01*
X1832862Y1619590D02*
X1841947D01*
X1832714Y1618690D02*
X1841947D01*
X1832184Y1617790D02*
X1841947D01*
X1831757Y1616890D02*
X1841947D01*
X1835271Y1607890D02*
X1841331D01*
X1834498Y1606990D02*
X1840431D01*
X1832829Y1606090D02*
X1839564D01*
X1809896Y1665490D02*
X1838534D01*
X1804067Y1657390D02*
X1838513D01*
X1795769Y1660990D02*
X1837956D01*
X1795769Y1661890D02*
X1837886D01*
X1804067Y1658290D02*
X1837776D01*
X1809076Y1664590D02*
X1837761D01*
X1803140Y1660090D02*
X1837561D01*
X1806328Y1662790D02*
X1837511D01*
X1803956Y1659190D02*
X1837509D01*
X1807974Y1663690D02*
X1837475D01*
X1833753Y1605190D02*
X1835508D01*
X1833944Y1594390D02*
X1835316D01*
X1809418Y1677190D02*
X1833515D01*
X1808440Y1678090D02*
X1831771D01*
X1807060Y1678990D02*
X1831254D01*
X1805340Y1679890D02*
X1830797D01*
X1813994Y1612390D02*
X1824584D01*
X1814793Y1613290D02*
X1824123D01*
X1815602Y1615990D02*
X1824122D01*
X1815528Y1615090D02*
X1824086D01*
X1815270Y1614190D02*
X1824086D01*
X1815501Y1616890D02*
X1823742D01*
X1813344Y1611490D02*
X1822932D01*
X1821145Y1594390D02*
X1822111D01*
X1772154Y1632190D02*
X1821769D01*
X1772154Y1626790D02*
X1820785D01*
X1772154Y1627690D02*
X1820601D01*
X1772154Y1631290D02*
X1820554D01*
X1772154Y1630390D02*
X1820374D01*
X1772154Y1629490D02*
X1820374D01*
X1772154Y1628590D02*
X1820374D01*
X1772154Y1623190D02*
X1820310D01*
X1772154Y1625890D02*
X1820299D01*
X1772154Y1624990D02*
X1820267D01*
X1772154Y1624090D02*
X1820267D01*
X1772154Y1622290D02*
X1820166D01*
X1772154Y1621390D02*
X1817741D01*
X1815213Y1617790D02*
X1817698D01*
X1811939Y1620490D02*
X1817185D01*
X1814695Y1618690D02*
X1817168D01*
X1813828Y1619590D02*
X1817020D01*
X1772154Y1610590D02*
X1810559D01*
X1780443Y1620490D02*
X1809903D01*
X1772154Y1609690D02*
X1809700D01*
X1780935Y1611490D02*
X1809411D01*
X1772154Y1594390D02*
X1809311D01*
X1772154Y1608790D02*
X1808800D01*
X1772154Y1595290D02*
X1808626D01*
X1807038Y1597090D02*
X1808547D01*
X1772154Y1596190D02*
X1808547D01*
X1782332Y1619590D02*
X1808014D01*
X1772154Y1607890D02*
X1807900D01*
X1782498Y1612390D02*
X1807848D01*
X1783199Y1618690D02*
X1807147D01*
X1783297Y1613290D02*
X1807049D01*
X1772154Y1606990D02*
X1807000D01*
X1783717Y1617790D02*
X1806629D01*
X1783774Y1614190D02*
X1806572D01*
X1784005Y1616890D02*
X1806341D01*
X1784032Y1615090D02*
X1806314D01*
X1784106Y1615990D02*
X1806240D01*
X1772154Y1606090D02*
X1806100D01*
X1795768Y1660090D02*
X1799633D01*
X1795769Y1662790D02*
X1799420D01*
X1772154Y1597090D02*
X1798229D01*
X1772154Y1605190D02*
X1798079D01*
X1795629Y1663690D02*
X1797774D01*
X1772154Y1597990D02*
X1797175D01*
X1772154Y1604290D02*
X1797152D01*
X1772154Y1603390D02*
X1797015D01*
X1772154Y1602490D02*
X1797015D01*
X1772154Y1601590D02*
X1797015D01*
X1772154Y1600690D02*
X1797015D01*
X1772154Y1599790D02*
X1797015D01*
X1772154Y1598890D02*
X1797015D01*
X1795840Y1664590D02*
X1796672D01*
X1775135Y1576390D02*
X1784208D01*
X1772154Y1588090D02*
X1783309D01*
X1773667Y1577290D02*
X1783243D01*
X1772154Y1587190D02*
X1781766D01*
X1772901Y1578190D02*
X1781734D01*
X1772154Y1586290D02*
X1780877D01*
X1772446Y1579090D02*
X1780856D01*
X1772154Y1585390D02*
X1780290D01*
X1772210Y1579990D02*
X1780276D01*
X1772154Y1584490D02*
X1779908D01*
X1772154Y1580890D02*
X1779899D01*
X1772154Y1583590D02*
X1779690D01*
X1772154Y1581790D02*
X1779686D01*
X1772154Y1582690D02*
X1779618D01*
X1772154Y1620490D02*
X1778407D01*
X1772154Y1611490D02*
X1777915D01*
X1772154Y1619590D02*
X1776518D01*
X1772154Y1612390D02*
X1776352D01*
X1772154Y1618690D02*
X1775651D01*
X1772154Y1613290D02*
X1775553D01*
X1772154Y1617790D02*
X1775133D01*
X1772154Y1614190D02*
X1775076D01*
X1772154Y1634890D02*
X1774884D01*
X1772154Y1616890D02*
X1774845D01*
X1772154Y1615090D02*
X1774818D01*
X1772154Y1615990D02*
X1774744D01*
X1772154Y1635790D02*
X1773984D01*
X1772213Y1636690D02*
X1773103D01*
G54D31*
X1770866Y1580709D02*
G03X1776772Y1574803I5906J-0D01*
G01X1963386*
G03X1969291Y1580709I-0J5906*
G01Y1801181*
G03X1963386Y1807087I-5905J0*
G01X1776772*
G03X1770866Y1801181I-0J-5906*
G01Y1580709*
X1789764Y1582677D02*
G03X1789764I-4331J0D01*
G01X1959055D02*
G03X1959055I-4331J0D01*
G01X1810354Y1671063D02*
G03X1810354I-7480J0D01*
G01X1789764Y1763780D02*
G03X1789764I-4331J0D01*
G01X1959055D02*
G03X1959055I-4331J0D01*
G54D52*
G01X1793088Y1665597D03*
Y1661997D03*
X1948496Y1662563D03*
X1944896D03*
X1954378Y1751164D03*
Y1747564D03*
X1955857Y1713158D03*
Y1709558D03*
X1958439Y1668040D03*
Y1671640D03*
X1962911Y1639081D03*
Y1642681D03*
X1951021Y1642689D03*
Y1639089D03*
X1947171Y1642645D03*
Y1639045D03*
X1940081Y1671484D03*
Y1675084D03*
X1954691Y1675225D03*
Y1671625D03*
X1935073Y1731301D03*
Y1734901D03*
X1910782Y1747367D03*
Y1750967D03*
X1918739Y1718572D03*
Y1722172D03*
X1930915Y1731301D03*
Y1734901D03*
X1918697Y1757478D03*
Y1761078D03*
X1829144Y1699869D03*
Y1696269D03*
X1909787Y1636651D03*
X1913387D03*
X1867187Y1697902D03*
X1870787D03*
X1954499Y1741853D03*
X1958099D03*
X1944452D03*
X1940852D03*
X1825303Y1699869D03*
Y1696269D03*
X1917317Y1655903D03*
X1920917D03*
X1955960Y1703447D03*
X1959560D03*
X1945862D03*
X1942262D03*
X1891481Y1681923D03*
Y1685523D03*
X1866518Y1793192D03*
Y1789592D03*
X1843601Y1699869D03*
Y1696269D03*
X1843198Y1721443D03*
X1846798D03*
X1825109Y1721374D03*
X1821509D03*
X1821503Y1699869D03*
Y1696269D03*
X1847483Y1699869D03*
Y1696269D03*
X1908187Y1701810D03*
X1904587D03*
X1960670Y1624908D03*
Y1621308D03*
X1891452Y1720583D03*
Y1716983D03*
X1910782Y1739484D03*
Y1743084D03*
X1918732Y1753078D03*
Y1749478D03*
X1910782Y1731309D03*
Y1734909D03*
X1927824Y1753098D03*
X1924224D03*
X1929328Y1620393D03*
Y1616793D03*
X1914730Y1765769D03*
X1918330D03*
X1846906Y1716199D03*
Y1712599D03*
X1804986Y1657587D03*
X1801386D03*
X1902907Y1782832D03*
X1906507D03*
X1913081Y1782816D03*
X1916681D03*
X1793798Y1657587D03*
X1790198D03*
X1929313Y1612095D03*
Y1608495D03*
X1959033Y1639084D03*
Y1642684D03*
X1939395Y1734905D03*
Y1731305D03*
X1895224Y1585919D03*
X1898824D03*
X1921235Y1648421D03*
X1924835D03*
X1898820Y1595899D03*
X1895220D03*
X1924835Y1652303D03*
Y1655903D03*
X1917318Y1652268D03*
X1920918D03*
X1921235Y1644574D03*
X1924835D03*
X1954939Y1642680D03*
Y1639080D03*
X1928858Y1652303D03*
Y1655903D03*
X1823060Y1619572D03*
X1826660D03*
X1821672Y1704320D03*
X1825272D03*
X1832862Y1696264D03*
Y1699864D03*
X1826656Y1629534D03*
X1823056D03*
X1944886Y1671430D03*
Y1675030D03*
X1829090Y1712659D03*
Y1716259D03*
X1832803Y1712603D03*
Y1716203D03*
X1821522Y1712651D03*
Y1716251D03*
X1825322Y1712659D03*
Y1716259D03*
X1877149Y1614557D03*
Y1618157D03*
X1892540Y1782849D03*
X1896140D03*
X1820529Y1799150D03*
X1824129D03*
X1820529Y1795215D03*
X1824129D03*
X1944265Y1630931D03*
X1947865D03*
X1898820Y1580973D03*
X1895220D03*
G54D54*
X1931574Y1766634D03*
X1924074D03*
G54D55*
X1927824Y1758634D03*
G54D63*
X1936582Y1613036D03*
Y1620516D03*
X1946424Y1616776D03*
X1892614Y1770693D03*
Y1778173D03*
X1902456Y1774433D03*
G54D73*
X1902910Y1790023D03*
Y1801047D03*
X1913113Y1790065D03*
Y1801089D03*
X1892540Y1789830D03*
Y1800854D03*
G54D80*
X1918714Y1730062D03*
Y1743448D03*
X1904712Y1730062D03*
Y1743448D03*
G54D82*
X1954496Y1734261D03*
Y1727568D03*
X1954428Y1630164D03*
Y1623471D03*
X1944522Y1727661D03*
Y1734354D03*
X1955941Y1695690D03*
Y1688997D03*
X1945936Y1689090D03*
Y1695783D03*
G54D94*
X1879556Y1789848D03*
Y1778824D03*
G54D137*
X1779425Y1615921D03*
X1810921D03*
Y1639543D03*
X1779425D03*
G54D162*
X1883296Y1760798D03*
X1875816D03*
X1879556Y1770640D03*
G54D174*
X1963063Y1668081D03*
Y1674281D03*
X1923512Y1585981D03*
Y1592181D03*
X1950138Y1675255D03*
Y1669055D03*
X1852859Y1619607D03*
Y1625807D03*
G54D175*
X1946472Y1596590D03*
X1940272D03*
G54D202*
X1777974Y1708884D03*
X1777858Y1750862D03*
G54D203*
X1777974Y1698884D03*
Y1688884D03*
Y1678884D03*
X1777858Y1740862D03*
Y1730862D03*
Y1720862D03*
G54D208*
X1946432Y1604040D03*
X1937432D03*
G54D211*
X1916910Y1585990D03*
Y1594990D03*
X1916828Y1614331D03*
Y1605331D03*
X1846217Y1619374D03*
Y1628374D03*
X1881163Y1683250D03*
Y1674250D03*
X1824281Y1788415D03*
Y1779415D03*
G54D220*
X1918755Y1702748D03*
X1922495D03*
X1926235D03*
Y1690936D03*
X1922495D03*
X1918755D03*
X1922495Y1696842D03*
G54D226*
X1879556Y1789848D02*
X1871987D01*
Y1796732*
X1871614*
X1879556Y1789848D02*
X1878504D01*
Y1796811*
X1897717Y1801047D02*
X1902910D01*
X1892540Y1800854D02*
Y1801047D01*
X1897717*
X1908009Y1801089D02*
X1913113D01*
X1902910Y1801047D02*
Y1801089D01*
X1908009*
G54D227*
X1877186Y1609110D03*
X1885060D03*
X1881123Y1599661D03*
G54D228*
X1779389Y1650273D03*
Y1666415D03*
X1815228Y1599737D03*
Y1583595D03*
X1828028Y1599737D03*
Y1583595D03*
X1841233Y1599737D03*
Y1583595D03*
X1854365Y1599737D03*
Y1583595D03*
G54D229*
X1802633Y1601166D03*
X1802833Y1586366D03*
X1866695Y1584929D03*
X1866495Y1599729D03*
G54D230*
X1790203Y1650021D03*
X1805003Y1650221D03*
G54D231*
X1939691Y1779246D03*
X1923549D03*
G54D232*
X1779389Y1650021D02*
Y1650273D01*
G74*
X0Y0D02*
M02*
