*
*
G04 PADS 9.5 Build Number: 522968 generated Gerber (RS-274-X) file*
G04 PC Version=2.1*
*
%IN "LK02 Main board 3V0.pcb"*%
*
%MOIN*%
*
%FSLAX35Y35*%
*
*
*
*
G04 PC Standard Apertures*
*
*
G04 Thermal Relief Aperture macro.*
%AMTER*
1,1,$1,0,0*
1,0,$1-$2,0,0*
21,0,$3,$4,0,0,45*
21,0,$3,$4,0,0,135*
%
*
*
G04 Annular Aperture macro.*
%AMANN*
1,1,$1,0,0*
1,0,$2,0,0*
%
*
*
G04 Odd Aperture macro.*
%AMODD*
1,1,$1,0,0*
1,0,$1-0.005,0,0*
%
*
*
G04 PC Custom Aperture Macros*
*
*
*
*
*
*
G04 PC Aperture Table*
*
%ADD010C,0.001*%
%ADD030C,0.01*%
%ADD031C,0.00394*%
*
*
*
*
G04 PC Circuitry*
G04 Layer Name LK02 Main board 3V0.pcb - circuitry*
%LPD*%
*
*
G04 PC Custom Flashes*
G04 Layer Name LK02 Main board 3V0.pcb - flashes*
%LPD*%
*
*
G04 PC Circuitry*
G04 Layer Name LK02 Main board 3V0.pcb - circuitry*
%LPD*%
*
G54D10*
G54D30*
G01X1773974Y1704884D02*
X1781974D01*
Y1712884*
X1773974*
Y1704884*
X1777974Y1708884D02*
Y1712884D01*
X1773974Y1694884D02*
X1781974D01*
Y1702884*
X1773974*
Y1694884*
X1777974Y1698884D02*
Y1702884D01*
X1773974Y1684884D02*
X1781974D01*
Y1692884*
X1773974*
Y1684884*
X1777974Y1688884D02*
Y1692884D01*
X1773974Y1674884D02*
X1781974D01*
Y1682884*
X1773974*
Y1674884*
X1777974Y1678884D02*
Y1682884D01*
X1773858Y1746862D02*
X1781858D01*
Y1754862*
X1773858*
Y1746862*
X1777858Y1750862D02*
Y1754862D01*
X1773858Y1736862D02*
X1781858D01*
Y1744862*
X1773858*
Y1736862*
X1777858Y1740862D02*
Y1744862D01*
X1773858Y1726862D02*
X1781858D01*
Y1734862*
X1773858*
Y1726862*
X1777858Y1730862D02*
Y1734862D01*
X1773858Y1716862D02*
X1781858D01*
Y1724862*
X1773858*
Y1716862*
X1777858Y1720862D02*
Y1724862D01*
X1775425Y1611921D02*
X1783425Y1619921D01*
X1775425D02*
X1783425Y1611921D01*
X1806921D02*
X1814921Y1619921D01*
X1806921D02*
X1814921Y1611921D01*
X1806921Y1635543D02*
X1814921Y1643543D01*
X1806921D02*
X1814921Y1635543D01*
X1775425D02*
X1783425Y1643543D01*
X1775425D02*
X1783425Y1635543D01*
X1789819Y1586339D02*
X1797819D01*
X1793819Y1582339D02*
Y1590339D01*
X1817535Y1583583D02*
X1825535D01*
X1821535Y1579583D02*
Y1587583D01*
X1830685Y1583583D02*
X1838685D01*
X1834685Y1579583D02*
Y1587583D01*
X1843874Y1583543D02*
X1851874D01*
X1847874Y1579543D02*
Y1587543D01*
X1882260Y1585945D02*
X1890260D01*
X1886260Y1581945D02*
Y1589945D01*
X1888283Y1581024D02*
X1896283D01*
X1892283Y1577024D02*
Y1585024D01*
X1897535Y1580984D02*
X1905535D01*
X1901535Y1576984D02*
Y1584984D01*
X1897181Y1585906D02*
X1905181D01*
X1901181Y1581906D02*
Y1589906D01*
X1922181Y1585787D02*
X1930181D01*
X1926181Y1581787D02*
Y1589787D01*
X1916827Y1583465D02*
X1924827D01*
X1920827Y1579465D02*
Y1587465D01*
X1916709Y1586811D02*
X1924709D01*
X1920709Y1582811D02*
Y1590811D01*
X1940882Y1588937D02*
X1948882D01*
X1944882Y1584937D02*
Y1592937D01*
X1936945Y1589213D02*
X1944945D01*
X1940945Y1585213D02*
Y1593213D01*
X1888008Y1590236D02*
X1896008D01*
X1892008Y1586236D02*
Y1594236D01*
X1897457Y1590945D02*
X1905457D01*
X1901457Y1586945D02*
Y1594945D01*
X1894819Y1598465D02*
X1902819D01*
X1898819Y1594465D02*
Y1602465D01*
X1927575Y1598740D02*
X1935575D01*
X1931575Y1594740D02*
Y1602740D01*
X1940961Y1592323D02*
X1948961D01*
X1944961Y1588323D02*
Y1596323D01*
X1937024Y1592283D02*
X1945024D01*
X1941024Y1588283D02*
Y1596283D01*
X1950331Y1594331D02*
X1958331D01*
X1954331Y1590331D02*
Y1598331D01*
X1956787Y1599252D02*
X1964787D01*
X1960787Y1595252D02*
Y1603252D01*
X1823520Y1609134D02*
X1831520D01*
X1827520Y1605134D02*
Y1613134D01*
X1820016Y1609055D02*
X1828016D01*
X1824016Y1605055D02*
Y1613055D01*
X1828913Y1609134D02*
X1836913D01*
X1832913Y1605134D02*
Y1613134D01*
X1843638Y1607441D02*
X1851638D01*
X1847638Y1603441D02*
Y1611441D01*
X1848638Y1607559D02*
X1856638D01*
X1852638Y1603559D02*
Y1611559D01*
X1853638Y1607520D02*
X1861638D01*
X1857638Y1603520D02*
Y1611520D01*
X1927181Y1604961D02*
X1935181D01*
X1931181Y1600961D02*
Y1608961D01*
X1950528Y1601339D02*
X1958528D01*
X1954528Y1597339D02*
Y1605339D01*
X1956748Y1601772D02*
X1964748D01*
X1960748Y1597772D02*
Y1605772D01*
X1815685Y1619567D02*
X1823685D01*
X1819685Y1615567D02*
Y1623567D01*
X1815724Y1614646D02*
X1823724D01*
X1819724Y1610646D02*
Y1618646D01*
X1826197Y1619567D02*
X1834197D01*
X1830197Y1615567D02*
Y1623567D01*
X1826276Y1614606D02*
X1834276D01*
X1830276Y1610606D02*
Y1618606D01*
X1851413Y1619590D02*
X1859413D01*
X1855413Y1615590D02*
Y1623590D01*
X1846118Y1617756D02*
X1854118D01*
X1850118Y1613756D02*
Y1621756D01*
X1881079Y1612835D02*
X1889079D01*
X1885079Y1608835D02*
Y1616835D01*
X1939386Y1612913D02*
X1947386D01*
X1943386Y1608913D02*
Y1616913D01*
X1939386Y1615315D02*
X1947386D01*
X1943386Y1611315D02*
Y1619315D01*
X1946787Y1615748D02*
X1954787D01*
X1950787Y1611748D02*
Y1619748D01*
X1956591Y1614252D02*
X1964591D01*
X1960591Y1610252D02*
Y1618252D01*
X1815724Y1623898D02*
X1823724D01*
X1819724Y1619898D02*
Y1627898D01*
X1826236Y1624528D02*
X1834236D01*
X1830236Y1620528D02*
Y1628528D01*
X1846079Y1620118D02*
X1854079D01*
X1850079Y1616118D02*
Y1624118D01*
X1865331Y1629528D02*
X1873331D01*
X1869331Y1625528D02*
Y1633528D01*
X1906013Y1625465D02*
X1914013D01*
X1910013Y1621465D02*
Y1629465D01*
X1906068Y1628956D02*
X1914068D01*
X1910068Y1624956D02*
Y1632956D01*
X1923523Y1625742D02*
X1931523D01*
X1927523Y1621742D02*
Y1629742D01*
X1915100Y1625576D02*
X1923100D01*
X1919100Y1621576D02*
Y1629576D01*
X1923523Y1628790D02*
X1931523D01*
X1927523Y1624790D02*
Y1632790D01*
X1915100Y1628956D02*
X1923100D01*
X1919100Y1624956D02*
Y1632956D01*
X1944110Y1628465D02*
X1952110D01*
X1948110Y1624465D02*
Y1632465D01*
X1944110Y1621693D02*
X1952110D01*
X1948110Y1617693D02*
Y1625693D01*
X1957270Y1629197D02*
X1965270D01*
X1961270Y1625197D02*
Y1633197D01*
X1955113Y1629195D02*
X1963113D01*
X1959113Y1625195D02*
Y1633195D01*
X1778953Y1637126D02*
X1786953D01*
X1782953Y1633126D02*
Y1641126D01*
X1782890Y1636890D02*
X1790890D01*
X1786890Y1632890D02*
Y1640890D01*
X1822654Y1632480D02*
X1830654D01*
X1826654Y1628480D02*
Y1636480D01*
X1903441Y1636654D02*
X1911441D01*
X1907441Y1632654D02*
Y1640654D01*
X1913323Y1636654D02*
X1921323D01*
X1917323Y1632654D02*
Y1640654D01*
X1950488Y1634685D02*
X1958488D01*
X1954488Y1630685D02*
Y1638685D01*
X1945073Y1639090D02*
X1953073D01*
X1949073Y1635090D02*
Y1643090D01*
X1960942Y1639119D02*
X1968942D01*
X1964942Y1635119D02*
Y1643119D01*
X1955113Y1631256D02*
X1963113D01*
X1959113Y1627256D02*
Y1635256D01*
X1957270Y1631266D02*
X1965270D01*
X1961270Y1627266D02*
Y1635266D01*
X1782772Y1639724D02*
X1790772D01*
X1786772Y1635724D02*
Y1643724D01*
X1778913Y1639606D02*
X1786913D01*
X1782913Y1635606D02*
Y1643606D01*
X1778795Y1642874D02*
X1786795D01*
X1782795Y1638874D02*
Y1646874D01*
X1782614Y1642874D02*
X1790614D01*
X1786614Y1638874D02*
Y1646874D01*
X1786906Y1639724D02*
X1794906D01*
X1790906Y1635724D02*
Y1643724D01*
X1786787Y1642874D02*
X1794787D01*
X1790787Y1638874D02*
Y1646874D01*
X1926000Y1644606D02*
X1934000D01*
X1930000Y1640606D02*
Y1648606D01*
X1943126Y1645787D02*
X1951126D01*
X1947126Y1641787D02*
Y1649787D01*
X1952850Y1642677D02*
X1960850D01*
X1956850Y1638677D02*
Y1646677D01*
X1808402Y1652126D02*
X1816402D01*
X1812402Y1648126D02*
Y1656126D01*
X1836157Y1659488D02*
X1844157D01*
X1840157Y1655488D02*
Y1663488D01*
X1839622Y1659488D02*
X1847622D01*
X1843622Y1655488D02*
Y1663488D01*
X1849189Y1659488D02*
X1857189D01*
X1853189Y1655488D02*
Y1663488D01*
X1908323Y1657598D02*
X1916323D01*
X1912323Y1653598D02*
Y1661598D01*
X1913323Y1658228D02*
X1921323D01*
X1917323Y1654228D02*
Y1662228D01*
X1918913Y1655866D02*
X1926913D01*
X1922913Y1651866D02*
Y1659866D01*
X1934858Y1657323D02*
X1942858D01*
X1938858Y1653323D02*
Y1661323D01*
X1948953Y1656024D02*
X1956953D01*
X1952953Y1652024D02*
Y1660024D01*
X1956590Y1651791D02*
X1964590D01*
X1960590Y1647791D02*
Y1655791D01*
X1829346Y1666614D02*
X1837346D01*
X1833346Y1662614D02*
Y1670614D01*
X1839622Y1663346D02*
X1847622D01*
X1843622Y1659346D02*
Y1667346D01*
X1836118Y1663346D02*
X1844118D01*
X1840118Y1659346D02*
Y1667346D01*
X1849268Y1663346D02*
X1857268D01*
X1853268Y1659346D02*
Y1667346D01*
X1873087Y1659961D02*
X1881087D01*
X1877087Y1655961D02*
Y1663961D01*
X1933126Y1662559D02*
X1941126D01*
X1937126Y1658559D02*
Y1666559D01*
X1936039Y1666654D02*
X1944039D01*
X1940039Y1662654D02*
Y1670654D01*
X1951039Y1663543D02*
X1959039D01*
X1955039Y1659543D02*
Y1667543D01*
X1956591Y1661732D02*
X1964591D01*
X1960591Y1657732D02*
Y1665732D01*
X1956394Y1668031D02*
X1964394D01*
X1960394Y1664031D02*
Y1672031D01*
X1837654Y1678346D02*
X1845654D01*
X1841654Y1674346D02*
Y1682346D01*
X1845567Y1678346D02*
X1853567D01*
X1849567Y1674346D02*
Y1682346D01*
X1853926Y1670928D02*
X1861926D01*
X1857926Y1666928D02*
Y1674928D01*
X1853903Y1673221D02*
X1861903D01*
X1857903Y1669221D02*
Y1677221D01*
X1851700Y1670951D02*
X1859700D01*
X1855700Y1666951D02*
Y1674951D01*
X1851745Y1673221D02*
X1859745D01*
X1855745Y1669221D02*
Y1677221D01*
X1856035Y1671017D02*
X1864035D01*
X1860035Y1667017D02*
Y1675017D01*
X1856071Y1673241D02*
X1864071D01*
X1860071Y1669241D02*
Y1677241D01*
X1883480Y1674291D02*
X1891480D01*
X1887480Y1670291D02*
Y1678291D01*
X1932387Y1675164D02*
X1940387D01*
X1936387Y1671164D02*
Y1679164D01*
X1950691Y1675225D02*
X1958691D01*
X1954691Y1671225D02*
Y1679225D01*
X1962260Y1674291D02*
X1970260D01*
X1966260Y1670291D02*
Y1678291D01*
X1829780Y1679843D02*
X1837780D01*
X1833780Y1675843D02*
Y1683843D01*
X1854268Y1685236D02*
X1862268D01*
X1858268Y1681236D02*
Y1689236D01*
X1869733Y1681062D02*
X1877733D01*
X1873733Y1677062D02*
Y1685062D01*
X1869697Y1683279D02*
X1877697D01*
X1873697Y1679279D02*
Y1687279D01*
X1869701Y1685472D02*
X1877701D01*
X1873701Y1681472D02*
Y1689472D01*
X1872350Y1681025D02*
X1880350D01*
X1876350Y1677025D02*
Y1685025D01*
X1872350Y1683242D02*
X1880350D01*
X1876350Y1679242D02*
Y1687242D01*
X1872299Y1685394D02*
X1880299D01*
X1876299Y1681394D02*
Y1689394D01*
X1887457Y1688268D02*
X1895457D01*
X1891457Y1684268D02*
Y1692268D01*
X1924071Y1687244D02*
X1932071D01*
X1928071Y1683244D02*
Y1691244D01*
X1918480Y1686850D02*
X1926480D01*
X1922480Y1682850D02*
Y1690850D01*
X1933087Y1688701D02*
X1941087D01*
X1937087Y1684701D02*
Y1692701D01*
X1946906Y1683031D02*
X1954906D01*
X1950906Y1679031D02*
Y1687031D01*
X1958165Y1684213D02*
X1966165D01*
X1962165Y1680213D02*
Y1688213D01*
X1821748Y1692047D02*
X1829748D01*
X1825748Y1688047D02*
Y1696047D01*
X1817417Y1693780D02*
X1825417D01*
X1821417Y1689780D02*
Y1697780D01*
X1827063Y1693780D02*
X1835063D01*
X1831063Y1689780D02*
Y1697780D01*
X1824504Y1691969D02*
X1832504D01*
X1828504Y1687969D02*
Y1695969D01*
X1839622Y1693858D02*
X1847622D01*
X1843622Y1689858D02*
Y1697858D01*
X1844858Y1690787D02*
X1852858D01*
X1848858Y1686787D02*
Y1694787D01*
X1848677Y1699488D02*
X1856677D01*
X1852677Y1695488D02*
Y1703488D01*
X1845724Y1696260D02*
X1853724D01*
X1849724Y1692260D02*
Y1700260D01*
X1861827Y1693307D02*
X1869827D01*
X1865827Y1689307D02*
Y1697307D01*
X1859622Y1699370D02*
X1867622D01*
X1863622Y1695370D02*
Y1703370D01*
X1860252Y1695984D02*
X1868252D01*
X1864252Y1691984D02*
Y1699984D01*
X1870724Y1697638D02*
X1878724D01*
X1874724Y1693638D02*
Y1701638D01*
X1868677Y1692047D02*
X1876677D01*
X1872677Y1688047D02*
Y1696047D01*
X1870724Y1693898D02*
X1878724D01*
X1874724Y1689898D02*
Y1697898D01*
X1880409Y1696732D02*
X1888409D01*
X1884409Y1692732D02*
Y1700732D01*
X1888598Y1696850D02*
X1896598D01*
X1892598Y1692850D02*
Y1700850D01*
X1884543Y1696811D02*
X1892543D01*
X1888543Y1692811D02*
Y1700811D01*
X1898047Y1695748D02*
X1906047D01*
X1902047Y1691748D02*
Y1699748D01*
X1898441Y1698898D02*
X1906441D01*
X1902441Y1694898D02*
Y1702898D01*
X1912378Y1696969D02*
X1920378D01*
X1916378Y1692969D02*
Y1700969D01*
X1921984Y1696850D02*
X1929984D01*
X1925984Y1692850D02*
Y1700850D01*
X1933638Y1698504D02*
X1941638D01*
X1937638Y1694504D02*
Y1702504D01*
X1818362Y1708386D02*
X1826362D01*
X1822362Y1704386D02*
Y1712386D01*
X1815291Y1708583D02*
X1823291D01*
X1819291Y1704583D02*
Y1712583D01*
X1815488Y1704331D02*
X1823488D01*
X1819488Y1700331D02*
Y1708331D01*
X1821276Y1702283D02*
X1829276D01*
X1825276Y1698283D02*
Y1706283D01*
X1815291Y1699843D02*
X1823291D01*
X1819291Y1695843D02*
Y1703843D01*
X1828835Y1705551D02*
X1836835D01*
X1832835Y1701551D02*
Y1709551D01*
X1842969Y1705827D02*
X1850969D01*
X1846969Y1701827D02*
Y1709827D01*
X1839583Y1702283D02*
X1847583D01*
X1843583Y1698283D02*
Y1706283D01*
X1862024Y1702323D02*
X1870024D01*
X1866024Y1698323D02*
Y1706323D01*
X1862024Y1705394D02*
X1870024D01*
X1866024Y1701394D02*
Y1709394D01*
X1870843Y1707008D02*
X1878843D01*
X1874843Y1703008D02*
Y1711008D01*
X1870252Y1704055D02*
X1878252D01*
X1874252Y1700055D02*
Y1708055D01*
X1880449Y1705000D02*
X1888449D01*
X1884449Y1701000D02*
Y1709000D01*
X1880409Y1700669D02*
X1888409D01*
X1884409Y1696669D02*
Y1704669D01*
X1888598Y1705079D02*
X1896598D01*
X1892598Y1701079D02*
Y1709079D01*
X1884504Y1704961D02*
X1892504D01*
X1888504Y1700961D02*
Y1708961D01*
X1888559Y1700787D02*
X1896559D01*
X1892559Y1696787D02*
Y1704787D01*
X1884543Y1700748D02*
X1892543D01*
X1888543Y1696748D02*
Y1704748D01*
X1898008Y1702008D02*
X1906008D01*
X1902008Y1698008D02*
Y1706008D01*
X1906591Y1701811D02*
X1914591D01*
X1910591Y1697811D02*
Y1705811D01*
X1918520Y1705315D02*
X1926520D01*
X1922520Y1701315D02*
Y1709315D01*
X1924701Y1708031D02*
X1932701D01*
X1928701Y1704031D02*
Y1712031D01*
X1941945Y1699803D02*
X1949945D01*
X1945945Y1695803D02*
Y1703803D01*
X1936866Y1703465D02*
X1944866D01*
X1940866Y1699465D02*
Y1707465D01*
X1946827Y1701890D02*
X1954827D01*
X1950827Y1697890D02*
Y1705890D01*
X1951906Y1699803D02*
X1959906D01*
X1955906Y1695803D02*
Y1703803D01*
X1957496Y1703465D02*
X1965496D01*
X1961496Y1699465D02*
Y1707465D01*
X1815291Y1716260D02*
X1823291D01*
X1819291Y1712260D02*
Y1720260D01*
X1821315Y1718346D02*
X1829315D01*
X1825315Y1714346D02*
Y1722346D01*
X1825685Y1710276D02*
X1833685D01*
X1829685Y1706276D02*
Y1714276D01*
X1831787Y1715906D02*
X1839787D01*
X1835787Y1711906D02*
Y1719906D01*
X1825055Y1718661D02*
X1833055D01*
X1829055Y1714661D02*
Y1722661D01*
X1828835Y1710197D02*
X1836835D01*
X1832835Y1706197D02*
Y1714197D01*
X1838874Y1713898D02*
X1846874D01*
X1842874Y1709898D02*
Y1717898D01*
X1848165Y1709803D02*
X1856165D01*
X1852165Y1705803D02*
Y1713803D01*
X1845606Y1716181D02*
X1853606D01*
X1849606Y1712181D02*
Y1720181D01*
X1845173Y1712598D02*
X1853173D01*
X1849173Y1708598D02*
Y1716598D01*
X1848244Y1718071D02*
X1856244D01*
X1852244Y1714071D02*
Y1722071D01*
X1861079Y1713661D02*
X1869079D01*
X1865079Y1709661D02*
Y1717661D01*
X1872929Y1710118D02*
X1880929D01*
X1876929Y1706118D02*
Y1714118D01*
X1874465Y1715315D02*
X1882465D01*
X1878465Y1711315D02*
Y1719315D01*
X1876709Y1717559D02*
X1884709D01*
X1880709Y1713559D02*
Y1721559D01*
X1879583Y1715276D02*
X1887583D01*
X1883583Y1711276D02*
Y1719276D01*
X1887457Y1713780D02*
X1895457D01*
X1891457Y1709780D02*
Y1717780D01*
X1893754Y1710903D02*
X1901754D01*
X1897754Y1706903D02*
Y1714903D01*
X1899386Y1712165D02*
X1907386D01*
X1903386Y1708165D02*
Y1716165D01*
X1912929Y1718583D02*
X1920929D01*
X1916929Y1714583D02*
Y1722583D01*
X1936984Y1719331D02*
X1944984D01*
X1940984Y1715331D02*
Y1723331D01*
X1936866Y1715197D02*
X1944866D01*
X1940866Y1711197D02*
Y1719197D01*
X1951866Y1716575D02*
X1959866D01*
X1955866Y1712575D02*
Y1720575D01*
X1955961Y1713465D02*
X1963961D01*
X1959961Y1709465D02*
Y1717465D01*
X1819976Y1725984D02*
X1827976D01*
X1823976Y1721984D02*
Y1729984D01*
X1816019Y1725893D02*
X1824019D01*
X1820019Y1721893D02*
Y1729893D01*
X1825055Y1721457D02*
X1833055D01*
X1829055Y1717457D02*
Y1725457D01*
X1841630Y1726535D02*
X1849630D01*
X1845630Y1722535D02*
Y1730535D01*
X1836945Y1721457D02*
X1844945D01*
X1840945Y1717457D02*
Y1725457D01*
X1846866Y1721417D02*
X1854866D01*
X1850866Y1717417D02*
Y1725417D01*
X1899701Y1720591D02*
X1907701D01*
X1903701Y1716591D02*
Y1724591D01*
X1931118Y1727677D02*
X1939118D01*
X1935118Y1723677D02*
Y1731677D01*
X1954780Y1727559D02*
X1962780D01*
X1958780Y1723559D02*
Y1731559D01*
X1801591Y1736024D02*
X1809591D01*
X1805591Y1732024D02*
Y1740024D01*
X1817969Y1737244D02*
X1825969D01*
X1821969Y1733244D02*
Y1741244D01*
X1861354Y1732008D02*
X1869354D01*
X1865354Y1728008D02*
Y1736008D01*
X1870252Y1738583D02*
X1878252D01*
X1874252Y1734583D02*
Y1742583D01*
X1873008Y1735669D02*
X1881008D01*
X1877008Y1731669D02*
Y1739669D01*
X1900724Y1738661D02*
X1908724D01*
X1904724Y1734661D02*
Y1742661D01*
X1933126Y1731299D02*
X1941126D01*
X1937126Y1727299D02*
Y1735299D01*
X1940449Y1738307D02*
X1948449D01*
X1944449Y1734307D02*
Y1742307D01*
X1935016Y1738465D02*
X1943016D01*
X1939016Y1734465D02*
Y1742465D01*
X1950449Y1738307D02*
X1958449D01*
X1954449Y1734307D02*
Y1742307D01*
X1801236Y1739685D02*
X1809236D01*
X1805236Y1735685D02*
Y1743685D01*
X1832378Y1740709D02*
X1840378D01*
X1836378Y1736709D02*
Y1744709D01*
X1825646Y1740472D02*
X1833646D01*
X1829646Y1736472D02*
Y1744472D01*
X1843520Y1741063D02*
X1851520D01*
X1847520Y1737063D02*
Y1745063D01*
X1839701Y1740984D02*
X1847701D01*
X1843701Y1736984D02*
Y1744984D01*
X1846276Y1741024D02*
X1854276D01*
X1850276Y1737024D02*
Y1745024D01*
X1861866Y1743268D02*
X1869866D01*
X1865866Y1739268D02*
Y1747268D01*
X1856276Y1743425D02*
X1864276D01*
X1860276Y1739425D02*
Y1747425D01*
X1909504Y1747362D02*
X1917504D01*
X1913504Y1743362D02*
Y1751362D01*
X1957457Y1747638D02*
X1965457D01*
X1961457Y1743638D02*
Y1751638D01*
X1956799Y1741879D02*
X1964799D01*
X1960799Y1737879D02*
Y1745879D01*
X1836197Y1758465D02*
X1844197D01*
X1840197Y1754465D02*
Y1762465D01*
X1859937Y1758386D02*
X1867937D01*
X1863937Y1754386D02*
Y1762386D01*
X1871787Y1757717D02*
X1879787D01*
X1875787Y1753717D02*
Y1761717D01*
X1880409Y1754882D02*
X1888409D01*
X1884409Y1750882D02*
Y1758882D01*
X1875882Y1753425D02*
X1883882D01*
X1879882Y1749425D02*
Y1757425D01*
X1906709Y1757402D02*
X1914709D01*
X1910709Y1753402D02*
Y1761402D01*
X1920134Y1756220D02*
X1928134D01*
X1924134Y1752220D02*
Y1760220D01*
X1935488Y1755315D02*
X1943488D01*
X1939488Y1751315D02*
Y1759315D01*
X1945449Y1755276D02*
X1953449D01*
X1949449Y1751276D02*
Y1759276D01*
X1950488Y1755433D02*
X1958488D01*
X1954488Y1751433D02*
Y1759433D01*
X1801984Y1763819D02*
X1809984D01*
X1805984Y1759819D02*
Y1767819D01*
X1811984Y1767480D02*
X1819984D01*
X1815984Y1763480D02*
Y1771480D01*
X1807535Y1763898D02*
X1815535D01*
X1811535Y1759898D02*
Y1767898D01*
X1859622Y1763976D02*
X1867622D01*
X1863622Y1759976D02*
Y1767976D01*
X1865528Y1762165D02*
X1873528D01*
X1869528Y1758165D02*
Y1766165D01*
X1891197Y1762598D02*
X1899197D01*
X1895197Y1758598D02*
Y1766598D01*
X1885961Y1764961D02*
X1893961D01*
X1889961Y1760961D02*
Y1768961D01*
X1903008Y1762874D02*
X1911008D01*
X1907008Y1758874D02*
Y1766874D01*
X1927575Y1763425D02*
X1935575D01*
X1931575Y1759425D02*
Y1767425D01*
X1791984Y1776654D02*
X1799984D01*
X1795984Y1772654D02*
Y1780654D01*
X1822378Y1771575D02*
X1830378D01*
X1826378Y1767575D02*
Y1775575D01*
X1827378Y1779409D02*
X1835378D01*
X1831378Y1775409D02*
Y1783409D01*
X1884780Y1777598D02*
X1892780D01*
X1888780Y1773598D02*
Y1781598D01*
X1903874Y1771772D02*
X1911874D01*
X1907874Y1767772D02*
Y1775772D01*
X1908953Y1778543D02*
X1916953D01*
X1912953Y1774543D02*
Y1782543D01*
X1933729Y1770715D02*
X1941729D01*
X1937729Y1766715D02*
Y1774715D01*
X1803677Y1784567D02*
X1811677D01*
X1807677Y1780567D02*
Y1788567D01*
X1862535Y1780591D02*
X1870535D01*
X1866535Y1776591D02*
Y1784591D01*
X1932654Y1785827D02*
X1940654D01*
X1936654Y1781827D02*
Y1789827D01*
X1867614Y1796732D02*
X1875614D01*
X1871614Y1792732D02*
Y1800732D01*
X1874504Y1796811D02*
X1882504D01*
X1878504Y1792811D02*
Y1800811D01*
X1950370Y1797047D02*
X1958370D01*
X1954370Y1793047D02*
Y1801047D01*
X1793874Y1804409D02*
X1801874D01*
X1797874Y1800409D02*
Y1808409D01*
X1797811Y1804449D02*
X1805811D01*
X1801811Y1800449D02*
Y1808449D01*
X1801748Y1804488D02*
X1809748D01*
X1805748Y1800488D02*
Y1808488D01*
X1805646Y1804528D02*
X1813646D01*
X1809646Y1800528D02*
Y1808528D01*
X1816433Y1804134D02*
X1824433D01*
X1820433Y1800134D02*
Y1808134D01*
X1831315Y1804134D02*
X1839315D01*
X1835315Y1800134D02*
Y1808134D01*
X1893717Y1801181D02*
X1901717D01*
X1897717Y1797181D02*
Y1805181D01*
X1904071Y1801024D02*
X1912071D01*
X1908071Y1797024D02*
Y1805024D01*
X1915606Y1802480D02*
X1923606D01*
X1919606Y1798480D02*
Y1806480D01*
X1934622Y1805236D02*
X1942622D01*
X1938622Y1801236D02*
Y1809236D01*
X1938598Y1805236D02*
X1946598D01*
X1942598Y1801236D02*
Y1809236D01*
X1942535Y1805236D02*
X1950535D01*
X1946535Y1801236D02*
Y1809236D01*
X1946433Y1805236D02*
X1954433D01*
X1950433Y1801236D02*
Y1809236D01*
X1771654Y1907024D02*
X2029654D01*
X1771654Y1883024D02*
X2029654D01*
X1771654Y1859024D02*
X2029654D01*
X1771654Y1835024D02*
X2029654D01*
X1771654Y1811024D02*
X2029654D01*
X1771654Y1907024D02*
Y1811024D01*
X1855654Y1907024D02*
Y1811024D01*
X1891654Y1907024D02*
Y1811024D01*
X1927654Y1907024D02*
Y1811024D01*
X1981654Y1907024D02*
Y1811024D01*
X2029654Y1907024D02*
Y1811024D01*
X1807154Y1895774D02*
X1806608Y1896524D01*
X1805790Y1896899*
X1804699*
X1803881Y1896524*
X1803335Y1895774*
Y1895024*
X1803608Y1894274*
X1803881Y1893899*
X1804426Y1893524*
X1806063Y1892774*
X1806608Y1892399*
X1806881Y1892024*
X1807154Y1891274*
Y1890149*
X1806608Y1889399*
X1805790Y1889024*
X1804699*
X1803881Y1889399*
X1803335Y1890149*
X1809608Y1896899D02*
Y1889024D01*
X1815881Y1896899D02*
X1812063Y1889024D01*
Y1896899D02*
X1815881D01*
X1812063Y1889024D02*
X1815881D01*
X1818335Y1896899D02*
Y1889024D01*
Y1896899D02*
X1821881D01*
X1818335Y1893149D02*
X1820517D01*
X1818335Y1889024D02*
X1821881D01*
X1865517Y1896899D02*
X1864972Y1896524D01*
X1864426Y1895774*
X1864154Y1895024*
X1863881Y1893899*
Y1892024*
X1864154Y1890899*
X1864426Y1890149*
X1864972Y1889399*
X1865517Y1889024*
X1866608*
X1867154Y1889399*
X1867699Y1890149*
X1867972Y1890899*
X1868244Y1892024*
Y1893899*
X1867972Y1895024*
X1867699Y1895774*
X1867154Y1896524*
X1866608Y1896899*
X1865517*
X1866335Y1890524D02*
X1867972Y1888274D01*
X1872608Y1896899D02*
Y1889024D01*
X1870699Y1896899D02*
X1874517D01*
X1876972D02*
X1879154Y1893149D01*
Y1889024*
X1881335Y1896899D02*
X1879154Y1893149D01*
X1903699Y1895774D02*
X1903154Y1896524D01*
X1902335Y1896899*
X1901244*
X1900426Y1896524*
X1899881Y1895774*
Y1895024*
X1900154Y1894274*
X1900426Y1893899*
X1900972Y1893524*
X1902608Y1892774*
X1903154Y1892399*
X1903426Y1892024*
X1903699Y1891274*
Y1890149*
X1903154Y1889399*
X1902335Y1889024*
X1901244*
X1900426Y1889399*
X1899881Y1890149*
X1906154Y1896899D02*
X1908335Y1893149D01*
Y1889024*
X1910517Y1896899D02*
X1908335Y1893149D01*
X1912972Y1896899D02*
Y1889024D01*
Y1896899D02*
X1915154Y1889024D01*
X1917335Y1896899D02*
X1915154Y1889024D01*
X1917335Y1896899D02*
Y1889024D01*
X1939154Y1896899D02*
Y1889024D01*
Y1896899D02*
X1941608D01*
X1942426Y1896524*
X1942699Y1896149*
X1942972Y1895399*
Y1894274*
X1942699Y1893524*
X1942426Y1893149*
X1941608Y1892774*
X1939154*
X1945426Y1896899D02*
Y1889024D01*
X1948699*
X1953335Y1896899D02*
X1951154Y1889024D01*
X1953335Y1896899D02*
X1955517Y1889024D01*
X1951972Y1891649D02*
X1954699D01*
X1959881Y1896899D02*
Y1889024D01*
X1957972Y1896899D02*
X1961790D01*
X1964244D02*
Y1889024D01*
Y1896899D02*
X1967790D01*
X1964244Y1893149D02*
X1966426D01*
X1964244Y1889024D02*
X1967790D01*
X1970244Y1896899D02*
Y1889024D01*
Y1896899D02*
X1972154D01*
X1972972Y1896524*
X1973517Y1895774*
X1973790Y1895024*
X1974063Y1893899*
Y1892024*
X1973790Y1890899*
X1973517Y1890149*
X1972972Y1889399*
X1972154Y1889024*
X1970244*
X1998335Y1896899D02*
Y1889024D01*
X1996426Y1896899D02*
X2000244D01*
X2004335D02*
X2003790Y1896524D01*
X2003244Y1895774*
X2002972Y1895024*
X2002699Y1893899*
Y1892024*
X2002972Y1890899*
X2003244Y1890149*
X2003790Y1889399*
X2004335Y1889024*
X2005426*
X2005972Y1889399*
X2006517Y1890149*
X2006790Y1890899*
X2007063Y1892024*
Y1893899*
X2006790Y1895024*
X2006517Y1895774*
X2005972Y1896524*
X2005426Y1896899*
X2004335*
X2009517D02*
Y1889024D01*
X2012790*
X1779290Y1872899D02*
X1778472Y1872524D01*
X1777926Y1871399*
X1777654Y1869524*
Y1868399*
X1777926Y1866524*
X1778472Y1865399*
X1779290Y1865024*
X1779835*
X1780654Y1865399*
X1781199Y1866524*
X1781472Y1868399*
Y1869524*
X1781199Y1871399*
X1780654Y1872524*
X1779835Y1872899*
X1779290*
X1784199Y1865774D02*
X1783926Y1865399D01*
X1784199Y1865024*
X1784472Y1865399*
X1784199Y1865774*
X1787472Y1872899D02*
X1790472D01*
X1788835Y1869899*
X1789654*
X1790199Y1869524*
X1790472Y1869149*
X1790744Y1868024*
Y1867274*
X1790472Y1866149*
X1789926Y1865399*
X1789108Y1865024*
X1788290*
X1787472Y1865399*
X1787199Y1865774*
X1786926Y1866524*
X1864835Y1871024D02*
Y1871399D01*
X1865108Y1872149*
X1865381Y1872524*
X1865926Y1872899*
X1867017*
X1867563Y1872524*
X1867835Y1872149*
X1868108Y1871399*
Y1870649*
X1867835Y1869899*
X1867290Y1868774*
X1864563Y1865024*
X1868381*
X1874108Y1871774D02*
X1873835Y1872524D01*
X1873017Y1872899*
X1872472*
X1871654Y1872524*
X1871108Y1871399*
X1870835Y1869524*
Y1867649*
X1871108Y1866149*
X1871654Y1865399*
X1872472Y1865024*
X1872744*
X1873563Y1865399*
X1874108Y1866149*
X1874381Y1867274*
Y1867649*
X1874108Y1868774*
X1873563Y1869524*
X1872744Y1869899*
X1872472*
X1871654Y1869524*
X1871108Y1868774*
X1870835Y1867649*
X1878199Y1872899D02*
X1877381Y1872524D01*
X1877108Y1871774*
Y1871024*
X1877381Y1870274*
X1877926Y1869899*
X1879017Y1869524*
X1879835Y1869149*
X1880381Y1868399*
X1880654Y1867649*
Y1866524*
X1880381Y1865774*
X1880108Y1865399*
X1879290Y1865024*
X1878199*
X1877381Y1865399*
X1877108Y1865774*
X1876835Y1866524*
Y1867649*
X1877108Y1868399*
X1877654Y1869149*
X1878472Y1869524*
X1879563Y1869899*
X1880108Y1870274*
X1880381Y1871024*
Y1871774*
X1880108Y1872524*
X1879290Y1872899*
X1878199*
X1903654Y1871024D02*
X1915654D01*
X1909654Y1865024D02*
Y1877024D01*
X1936290Y1872899D02*
X1938472Y1869149D01*
Y1865024*
X1940654Y1872899D02*
X1938472Y1869149D01*
X1943108Y1872899D02*
Y1865024D01*
Y1872899D02*
X1946654D01*
X1943108Y1869149D02*
X1945290D01*
X1943108Y1865024D02*
X1946654D01*
X1952926Y1871774D02*
X1952381Y1872524D01*
X1951563Y1872899*
X1950472*
X1949654Y1872524*
X1949108Y1871774*
Y1871024*
X1949381Y1870274*
X1949654Y1869899*
X1950199Y1869524*
X1951835Y1868774*
X1952381Y1868399*
X1952654Y1868024*
X1952926Y1867274*
Y1866149*
X1952381Y1865399*
X1951563Y1865024*
X1950472*
X1949654Y1865399*
X1949108Y1866149*
X1989472Y1871774D02*
Y1865024D01*
X1987017Y1868399D02*
X1991926D01*
X1999290Y1874399D02*
X1994381Y1862399D01*
X2001744Y1868399D02*
X2006654D01*
X2010744Y1872899D02*
X2009926Y1872524D01*
X2009381Y1871399*
X2009108Y1869524*
Y1868399*
X2009381Y1866524*
X2009926Y1865399*
X2010744Y1865024*
X2011290*
X2012108Y1865399*
X2012654Y1866524*
X2012926Y1868399*
Y1869524*
X2012654Y1871399*
X2012108Y1872524*
X2011290Y1872899*
X2010744*
X2015654Y1865774D02*
X2015381Y1865399D01*
X2015654Y1865024*
X2015926Y1865399*
X2015654Y1865774*
X2020017Y1872899D02*
X2019199Y1872524D01*
X2018654Y1871399*
X2018381Y1869524*
Y1868399*
X2018654Y1866524*
X2019199Y1865399*
X2020017Y1865024*
X2020563*
X2021381Y1865399*
X2021926Y1866524*
X2022199Y1868399*
Y1869524*
X2021926Y1871399*
X2021381Y1872524*
X2020563Y1872899*
X2020017*
X1779290Y1848899D02*
X1778472Y1848524D01*
X1777926Y1847399*
X1777654Y1845524*
Y1844399*
X1777926Y1842524*
X1778472Y1841399*
X1779290Y1841024*
X1779835*
X1780654Y1841399*
X1781199Y1842524*
X1781472Y1844399*
Y1845524*
X1781199Y1847399*
X1780654Y1848524*
X1779835Y1848899*
X1779290*
X1784199Y1841774D02*
X1783926Y1841399D01*
X1784199Y1841024*
X1784472Y1841399*
X1784199Y1841774*
X1790199Y1847774D02*
X1789926Y1848524D01*
X1789108Y1848899*
X1788563*
X1787744Y1848524*
X1787199Y1847399*
X1786926Y1845524*
Y1843649*
X1787199Y1842149*
X1787744Y1841399*
X1788563Y1841024*
X1788835*
X1789654Y1841399*
X1790199Y1842149*
X1790472Y1843274*
Y1843649*
X1790199Y1844774*
X1789654Y1845524*
X1788835Y1845899*
X1788563*
X1787744Y1845524*
X1787199Y1844774*
X1786926Y1843649*
X1796472Y1848899D02*
X1793744D01*
X1793472Y1845524*
X1793744Y1845899*
X1794563Y1846274*
X1795381*
X1796199Y1845899*
X1796744Y1845149*
X1797017Y1844024*
X1796744Y1843274*
X1796472Y1842149*
X1795926Y1841399*
X1795108Y1841024*
X1794290*
X1793472Y1841399*
X1793199Y1841774*
X1792926Y1842524*
X1873290Y1848899D02*
X1870563Y1843649D01*
X1874654*
X1873290Y1848899D02*
Y1841024D01*
X1903654D02*
X1915654Y1853024D01*
X1903654D02*
X1915654Y1841024D01*
X1936290Y1848899D02*
X1938472Y1845149D01*
Y1841024*
X1940654Y1848899D02*
X1938472Y1845149D01*
X1943108Y1848899D02*
Y1841024D01*
Y1848899D02*
X1946654D01*
X1943108Y1845149D02*
X1945290D01*
X1943108Y1841024D02*
X1946654D01*
X1952926Y1847774D02*
X1952381Y1848524D01*
X1951563Y1848899*
X1950472*
X1949654Y1848524*
X1949108Y1847774*
Y1847024*
X1949381Y1846274*
X1949654Y1845899*
X1950199Y1845524*
X1951835Y1844774*
X1952381Y1844399*
X1952654Y1844024*
X1952926Y1843274*
Y1842149*
X1952381Y1841399*
X1951563Y1841024*
X1950472*
X1949654Y1841399*
X1949108Y1842149*
X1989472Y1847774D02*
Y1841024D01*
X1987017Y1844399D02*
X1991926D01*
X1999290Y1850399D02*
X1994381Y1838399D01*
X2001744Y1844399D02*
X2006654D01*
X2010744Y1848899D02*
X2009926Y1848524D01*
X2009381Y1847399*
X2009108Y1845524*
Y1844399*
X2009381Y1842524*
X2009926Y1841399*
X2010744Y1841024*
X2011290*
X2012108Y1841399*
X2012654Y1842524*
X2012926Y1844399*
Y1845524*
X2012654Y1847399*
X2012108Y1848524*
X2011290Y1848899*
X2010744*
X2015654Y1841774D02*
X2015381Y1841399D01*
X2015654Y1841024*
X2015926Y1841399*
X2015654Y1841774*
X2020017Y1848899D02*
X2019199Y1848524D01*
X2018654Y1847399*
X2018381Y1845524*
Y1844399*
X2018654Y1842524*
X2019199Y1841399*
X2020017Y1841024*
X2020563*
X2021381Y1841399*
X2021926Y1842524*
X2022199Y1844399*
Y1845524*
X2021926Y1847399*
X2021381Y1848524*
X2020563Y1848899*
X2020017*
X1779290Y1824899D02*
X1778472Y1824524D01*
X1777926Y1823399*
X1777654Y1821524*
Y1820399*
X1777926Y1818524*
X1778472Y1817399*
X1779290Y1817024*
X1779835*
X1780654Y1817399*
X1781199Y1818524*
X1781472Y1820399*
Y1821524*
X1781199Y1823399*
X1780654Y1824524*
X1779835Y1824899*
X1779290*
X1784199Y1817774D02*
X1783926Y1817399D01*
X1784199Y1817024*
X1784472Y1817399*
X1784199Y1817774*
X1788290Y1824899D02*
X1787472Y1824524D01*
X1787199Y1823774*
Y1823024*
X1787472Y1822274*
X1788017Y1821899*
X1789108Y1821524*
X1789926Y1821149*
X1790472Y1820399*
X1790744Y1819649*
Y1818524*
X1790472Y1817774*
X1790199Y1817399*
X1789381Y1817024*
X1788290*
X1787472Y1817399*
X1787199Y1817774*
X1786926Y1818524*
Y1819649*
X1787199Y1820399*
X1787744Y1821149*
X1788563Y1821524*
X1789654Y1821899*
X1790199Y1822274*
X1790472Y1823024*
Y1823774*
X1790199Y1824524*
X1789381Y1824899*
X1788290*
X1793199Y1823399D02*
X1793744Y1823774D01*
X1794563Y1824899*
Y1817024*
X1797290Y1823024D02*
Y1823399D01*
X1797563Y1824149*
X1797835Y1824524*
X1798381Y1824899*
X1799472*
X1800017Y1824524*
X1800290Y1824149*
X1800563Y1823399*
Y1822649*
X1800290Y1821899*
X1799744Y1820774*
X1797017Y1817024*
X1800835*
X1804654Y1824899D02*
X1803835Y1824524D01*
X1803563Y1823774*
Y1823024*
X1803835Y1822274*
X1804381Y1821899*
X1805472Y1821524*
X1806290Y1821149*
X1806835Y1820399*
X1807108Y1819649*
Y1818524*
X1806835Y1817774*
X1806563Y1817399*
X1805744Y1817024*
X1804654*
X1803835Y1817399*
X1803563Y1817774*
X1803290Y1818524*
Y1819649*
X1803563Y1820399*
X1804108Y1821149*
X1804926Y1821524*
X1806017Y1821899*
X1806563Y1822274*
X1806835Y1823024*
Y1823774*
X1806563Y1824524*
X1805744Y1824899*
X1804654*
X1872063D02*
X1871244Y1824524D01*
X1870972Y1823774*
Y1823024*
X1871244Y1822274*
X1871790Y1821899*
X1872881Y1821524*
X1873699Y1821149*
X1874244Y1820399*
X1874517Y1819649*
Y1818524*
X1874244Y1817774*
X1873972Y1817399*
X1873154Y1817024*
X1872063*
X1871244Y1817399*
X1870972Y1817774*
X1870699Y1818524*
Y1819649*
X1870972Y1820399*
X1871517Y1821149*
X1872335Y1821524*
X1873426Y1821899*
X1873972Y1822274*
X1874244Y1823024*
Y1823774*
X1873972Y1824524*
X1873154Y1824899*
X1872063*
X1903654Y1817024D02*
X1915654D01*
Y1829024*
X1903654*
Y1817024*
X1909654Y1823024D02*
Y1829024D01*
X1936290Y1824899D02*
X1938472Y1821149D01*
Y1817024*
X1940654Y1824899D02*
X1938472Y1821149D01*
X1943108Y1824899D02*
Y1817024D01*
Y1824899D02*
X1946654D01*
X1943108Y1821149D02*
X1945290D01*
X1943108Y1817024D02*
X1946654D01*
X1952926Y1823774D02*
X1952381Y1824524D01*
X1951563Y1824899*
X1950472*
X1949654Y1824524*
X1949108Y1823774*
Y1823024*
X1949381Y1822274*
X1949654Y1821899*
X1950199Y1821524*
X1951835Y1820774*
X1952381Y1820399*
X1952654Y1820024*
X1952926Y1819274*
Y1818149*
X1952381Y1817399*
X1951563Y1817024*
X1950472*
X1949654Y1817399*
X1949108Y1818149*
X1989472Y1823774D02*
Y1817024D01*
X1987017Y1820399D02*
X1991926D01*
X1999290Y1826399D02*
X1994381Y1814399D01*
X2001744Y1820399D02*
X2006654D01*
X2010744Y1824899D02*
X2009926Y1824524D01*
X2009381Y1823399*
X2009108Y1821524*
Y1820399*
X2009381Y1818524*
X2009926Y1817399*
X2010744Y1817024*
X2011290*
X2012108Y1817399*
X2012654Y1818524*
X2012926Y1820399*
Y1821524*
X2012654Y1823399*
X2012108Y1824524*
X2011290Y1824899*
X2010744*
X2015654Y1817774D02*
X2015381Y1817399D01*
X2015654Y1817024*
X2015926Y1817399*
X2015654Y1817774*
X2020017Y1824899D02*
X2019199Y1824524D01*
X2018654Y1823399*
X2018381Y1821524*
Y1820399*
X2018654Y1818524*
X2019199Y1817399*
X2020017Y1817024*
X2020563*
X2021381Y1817399*
X2021926Y1818524*
X2022199Y1820399*
Y1821524*
X2021926Y1823399*
X2021381Y1824524*
X2020563Y1824899*
X2020017*
G54D31*
X1770866Y1580709D02*
G75*
G03X1776772Y1574803I5906J-0D01*
G01X1963386*
G03X1969291Y1580709I-0J5906*
G01Y1801181*
G03X1963386Y1807087I-5905J0*
G01X1776772*
G03X1770866Y1801181I-0J-5906*
G01Y1580709*
X1789764Y1582677D02*
G03X1789764I-4331J0D01*
G01X1959055D02*
G03X1959055I-4331J0D01*
G01X1810354Y1671063D02*
G03X1810354I-7480J0D01*
G01X1789764Y1763780D02*
G03X1789764I-4331J0D01*
G01X1959055D02*
G03X1959055I-4331J0D01*
G74*
G01X0Y0D02*
M02*
