%
T1C.01181F095S3
X012217Y011154
X014988Y010878
X016303Y010878
X017622Y010874
X021461Y011114
X022035Y011543
X022063Y010622
X022717Y012366
X022953Y01111
X02298Y011614
X022988Y010618
X024906Y011201
X024917Y010866
X025453Y011098
X025953Y013016
X025992Y012394
X026929Y011441
X026937Y011748
X027323Y011413
X027331Y011752
X028268Y011953
X028287Y012654
X028909Y012697
X028913Y012445
X028962Y015439
X028894Y013945
X028746Y015439
X027913Y014094
X027646Y015366
X027646Y014689
X027173Y013811
X027173Y014051
X025587Y015094
X025587Y015399
X024745Y015077
X024745Y015415
X023841Y015415
X023836Y015066
X021343Y013803
X019768Y015472
X018598Y013272
X018376Y014479
X018098Y013276
X017846Y014295
X017843Y014531
X017598Y013264
X016126Y013433
X015862Y01398
X015858Y014972
X015854Y014476
X015587Y013433
X015236Y013425
X014807Y013984
X014807Y014909
X014803Y014476
X011114Y016807
X011126Y01648
X01113Y016232
X011496Y016807
X011512Y016492
X011524Y016209
X011913Y016807
X011925Y016492
X014075Y017732
X0155Y015768
X023579Y016185
X024567Y016185
X025126Y018106
X025835Y01698
X027547Y017098
X027742Y016429
X028283Y015988
X02852Y016787
X028746Y015645
X028894Y017699
X028962Y015646
X029329Y016432
X029461Y019949
X028894Y018693
X028874Y019323
X028339Y018874
X028304Y020042
X02813Y018122
X026839Y019185
X02672Y018252
X026547Y018776
X026473Y020036
X024567Y018343
X024067Y01828
X021583Y019949
X020543Y018516
X018842Y019844
X018838Y019621
X018627Y019613
X018625Y019842
X018409Y019842
X018405Y019615
X018161Y018854
X018154Y018469
X017791Y020354
X017197Y018469
X017197Y018854
X017Y020354
X01685Y018469
X016846Y018854
X016213Y020504
X016169Y019181
X014764Y022504
X014783Y022953
X014976Y021898
X015362Y022748
X015409Y021724
X015685Y021717
X015941Y021898
X016118Y023075
X017193Y022748
X017197Y021906
X017531Y023102
X01772Y021598
X017807Y022146
X018102Y022469
X018661Y021043
X019197Y022457
X01926Y022118
X019417Y02185
X019437Y022752
X019437Y023059
X020102Y021724
X020204Y020848
X020205Y021067
X020208Y020626
X02026Y022925
X020307Y021909
X020307Y022283
X020465Y021059
X02047Y020844
X02047Y020622
X021276Y022193
X021276Y022587
X02128Y02302
X021685Y023016
X021689Y022201
X021689Y022594
X02198Y021346
X022091Y022598
X022094Y023028
X022094Y022205
X023035Y02272
X023039Y022094
X023079Y022409
X023894Y022701
X024472Y022217
X025083Y021205
X025087Y023051
X025433Y022205
X025642Y021244
X026543Y02139
X026598Y02237
X026921Y022866
X027429Y0225
X027917Y022709
X027925Y020823
X028425Y0225
X028984Y022866
X029051Y020941
X028831Y023866
X028713Y025276
X028421Y024177
X026933Y024453
X026921Y024039
X026346Y025287
X025705Y023323
X024528Y024378
X023205Y024579
X023173Y023736
X02261Y02361
X02198Y023898
X021193Y024047
X020906Y024276
X020681Y024051
X020528Y023531
X020319Y02322
X019343Y023886
X018059Y024327
X018051Y0235
X017921Y024661
X017795Y024138
X017752Y02378
X017398Y025173
X017122Y023909
X016929Y024665
X016413Y02411
X016118Y023539
X015803Y023547
X01574Y024665
X01574Y024386
X015366Y024354
X015232Y025118
X015071Y023358
X014837Y025109
X014764Y024146
X014764Y023378
X013358Y026488
X013394Y026122
X015031Y026244
X015799Y026567
X016472Y026591
X017205Y026618
X017587Y026626
X017862Y026622
X018862Y026862
X01937Y02572
X019421Y026846
X02026Y026378
X020535Y026087
X020823Y027862
X021276Y028008
X023307Y026386
X024185Y027256
X026547Y02565
X026736Y026366
X026783Y028051
X02728Y02635
X02778Y028047
X02828Y02635
X028283Y028063
X028915Y026708
X02898Y027283
X026608Y029591
X025992Y028862
X025248Y028142
X02413Y030374
X023906Y02826
X023622Y029697
X023535Y028807
X022354Y02878
X021831Y029016
X021713Y03028
X020413Y028291
X019787Y028736
X019488Y030579
X019228Y028358
X019197Y028917
X016854Y028366
X015972Y030461
X015472Y029677
X014433Y029268
X013988Y028909
X013433Y028902
X012433Y030185
X012622Y032961
X013016Y032965
X013409Y032969
X013602Y030976
X013799Y032972
X014878Y032933
X016366Y032933
X019996Y032193
X020685Y032201
X022606Y032638
X023642Y032622
X024795Y032768
X0265Y031102
X026697Y033043
X027094Y033043
X027488Y033043
X027878Y033043
X028272Y032224
T2C.02559F197S55
X010777Y014112
X010777Y016474
X013927Y016474
X013927Y014112
T3C.032F197S55
X010632Y020408
X010632Y022408
X010632Y021408
X010632Y023408
X01062Y025606
X01062Y024606
X01062Y027606
X01062Y026606
M30
