*
*
G04 PADS 9.5 Build Number: 522968 generated Gerber (RS-274-X) file*
G04 PC Version=2.1*
*
%IN "LK02 Main board 3V0.pcb"*%
*
%MOIN*%
*
%FSLAX35Y35*%
*
*
*
*
G04 PC Standard Apertures*
*
*
G04 Thermal Relief Aperture macro.*
%AMTER*
1,1,$1,0,0*
1,0,$1-$2,0,0*
21,0,$3,$4,0,0,45*
21,0,$3,$4,0,0,135*
%
*
*
G04 Annular Aperture macro.*
%AMANN*
1,1,$1,0,0*
1,0,$2,0,0*
%
*
*
G04 Odd Aperture macro.*
%AMODD*
1,1,$1,0,0*
1,0,$1-0.005,0,0*
%
*
*
G04 PC Custom Aperture Macros*
*
*
*
*
*
*
G04 PC Aperture Table*
*
%ADD010C,0.001*%
%ADD011R,0.02X0.02*%
%ADD021R,0.06299X0.1063*%
%ADD031C,0.00394*%
%ADD052R,0.02X0.02*%
%ADD056O,0.02756X0.09843*%
%ADD063R,0.0374X0.03543*%
%ADD064R,0.06299X0.07087*%
%ADD069O,0.00984X0.0315*%
%ADD070O,0.0315X0.00984*%
%ADD071R,0.12992X0.12992*%
%ADD073R,0.07087X0.06299*%
%ADD076R,0.06299X0.03937*%
%ADD078R,0.02165X0.05709*%
%ADD082R,0.03937X0.04331*%
%ADD090C,0.04724*%
%ADD174R,0.03X0.038*%
%ADD175R,0.038X0.03*%
%ADD180R,0.02756X0.04724*%
%ADD187R,0.01968X0.05606*%
%ADD206R,0.01181X0.05906*%
%ADD207R,0.05906X0.01181*%
%ADD208R,0.06X0.05*%
%ADD209R,0.07087X0.1063*%
%ADD210R,0.1063X0.07087*%
%ADD211R,0.05X0.06*%
%ADD212R,0.07874X0.01*%
%ADD213O,0.07874X0.01*%
%ADD214R,0.11811X0.07087*%
%ADD215R,0.022X0.1*%
%ADD216R,0.09449X0.09449*%
%ADD217R,0.09843X0.11811*%
%ADD218R,0.00984X0.02362*%
%ADD219R,0.06299X0.03543*%
%ADD220O,0.01575X0.02362*%
%ADD221R,0.08858X0.02559*%
%ADD222O,0.08858X0.02559*%
%ADD223R,0.21654X0.07874*%
%ADD224R,0.19685X0.08858*%
%ADD225R,0.04724X0.07874*%
*
*
*
*
G04 PC Circuitry*
G04 Layer Name LK02 Main board 3V0.pcb - circuitry*
%LPD*%
*
*
G04 PC Custom Flashes*
G04 Layer Name LK02 Main board 3V0.pcb - flashes*
%LPD*%
*
*
G04 PC Circuitry*
G04 Layer Name LK02 Main board 3V0.pcb - circuitry*
%LPD*%
*
G54D10*
G54D11*
G01X1942373Y1580835D03*
Y1584654D03*
X1872700Y1614516D03*
Y1618335D03*
X1865514Y1635821D03*
X1869333D03*
G54D21*
X1856483Y1796989D03*
X1845459D03*
G54D31*
X1770866Y1580709D02*
G75*
G03X1776772Y1574803I5906J-0D01*
G01X1963386*
G03X1969291Y1580709I-0J5906*
G01Y1801181*
G03X1963386Y1807087I-5905J0*
G01X1776772*
G03X1770866Y1801181I-0J-5906*
G01Y1580709*
X1789764Y1582677D02*
G03X1789764I-4331J0D01*
G01X1959055D02*
G03X1959055I-4331J0D01*
G01X1810354Y1671063D02*
G03X1810354I-7480J0D01*
G01X1789764Y1763780D02*
G03X1789764I-4331J0D01*
G01X1959055D02*
G03X1959055I-4331J0D01*
G54D52*
G01X1833812Y1748748D03*
Y1745148D03*
X1935066Y1708013D03*
Y1711613D03*
X1813981Y1767498D03*
Y1763898D03*
X1931187Y1694900D03*
Y1698500D03*
X1833347Y1657573D03*
Y1661173D03*
X1812382Y1657747D03*
Y1661347D03*
X1901254Y1720566D03*
X1897654D03*
X1944459Y1764541D03*
Y1760941D03*
X1945882Y1718782D03*
X1949482D03*
X1889452Y1720583D03*
Y1716983D03*
X1882765Y1775469D03*
X1886365D03*
X1893439Y1716978D03*
Y1720578D03*
X1927753Y1759134D03*
X1924153D03*
X1918697Y1759278D03*
Y1762878D03*
X1931167Y1711618D03*
Y1708018D03*
X1894088Y1725835D03*
X1897688D03*
X1809105Y1767526D03*
Y1763926D03*
X1895247Y1590254D03*
Y1593854D03*
Y1598007D03*
Y1601607D03*
X1823045Y1623876D03*
Y1627476D03*
Y1632171D03*
Y1635771D03*
X1789245Y1688897D03*
X1785645D03*
X1789245Y1698871D03*
X1785645D03*
X1824909Y1674249D03*
X1821309D03*
X1845439Y1775853D03*
X1841839D03*
X1835263Y1775790D03*
Y1779390D03*
X1827555Y1779375D03*
X1823955D03*
X1916636Y1802449D03*
X1913036D03*
X1916645Y1798456D03*
X1913045D03*
X1935189Y1698505D03*
Y1694905D03*
X1931486Y1702751D03*
X1935086D03*
X1931812Y1690947D03*
X1935412D03*
X1916939Y1720372D03*
X1920539D03*
X1954456Y1626106D03*
Y1629706D03*
X1954484Y1617171D03*
Y1620771D03*
G54D56*
X1955874Y1708649D03*
X1950874D03*
X1945874D03*
X1940874D03*
Y1689357D03*
X1945874D03*
X1950874D03*
X1955874D03*
X1954445Y1747381D03*
X1949445D03*
X1944445D03*
X1939445D03*
Y1728089D03*
X1944445D03*
X1949445D03*
X1954445D03*
X1902331Y1645167D03*
X1907331D03*
X1912331D03*
X1917331D03*
Y1664459D03*
X1912331D03*
X1907331D03*
X1902331D03*
X1915845Y1728089D03*
X1920845D03*
X1925845D03*
X1930845D03*
Y1747381D03*
X1925845D03*
X1920845D03*
X1915845D03*
G54D63*
X1845513Y1787897D03*
Y1780417D03*
X1855355Y1784157D03*
X1863623Y1768331D03*
Y1775811D03*
X1853781Y1772071D03*
G54D64*
X1882740Y1796827D03*
X1893764D03*
G54D69*
X1895402Y1710669D03*
X1893433D03*
X1891465D03*
X1889496D03*
X1887528D03*
X1885559D03*
X1883591D03*
X1881622D03*
Y1690983D03*
X1883591D03*
X1885559D03*
X1887528D03*
X1889496D03*
X1891465D03*
X1893433D03*
X1895402D03*
G54D70*
X1878669Y1707716D03*
Y1705747D03*
Y1703779D03*
Y1701810D03*
Y1699842D03*
Y1697873D03*
Y1695905D03*
Y1693936D03*
X1898355D03*
Y1695905D03*
Y1697873D03*
Y1699842D03*
Y1701810D03*
Y1703779D03*
Y1705747D03*
Y1707716D03*
G54D71*
X1888512Y1700826D03*
G54D73*
X1866544Y1796785D03*
Y1785761D03*
X1845406Y1769353D03*
Y1758329D03*
X1835290Y1786233D03*
Y1797257D03*
X1835254Y1769494D03*
Y1758470D03*
G54D76*
X1779473Y1596125D03*
Y1607125D03*
G54D78*
X1803449Y1772392D03*
X1799709D03*
X1795969D03*
Y1763928D03*
X1803449D03*
X1950008Y1656019D03*
X1946268D03*
X1942528D03*
Y1647555D03*
X1950008D03*
X1964330Y1656023D03*
X1960590D03*
X1956850D03*
Y1647559D03*
X1964330D03*
X1940056Y1678901D03*
X1936316D03*
X1932576D03*
Y1670437D03*
X1940056D03*
G54D82*
X1856767Y1661849D03*
Y1668542D03*
X1943260Y1603334D03*
Y1596641D03*
X1874995Y1796800D03*
Y1790107D03*
G54D90*
X1806106Y1778765D03*
X1932602Y1685549D03*
X1932553Y1663684D03*
X1779422Y1656217D03*
X1799702Y1778729D03*
X1795900Y1756771D03*
X1928851Y1644567D03*
X1948490Y1779948D03*
X1922480Y1709673D03*
X1913059Y1774503D03*
X1812110Y1778785D03*
X1900706Y1626688D03*
X1848012Y1661849D03*
X1943266Y1590878D03*
X1960685Y1633112D03*
X1936569Y1647573D03*
X1913059Y1762881D03*
G54D174*
X1957502Y1600561D03*
Y1594361D03*
G54D175*
X1947901Y1611814D03*
X1954101D03*
X1939549Y1632431D03*
X1945749D03*
X1882771Y1780480D03*
X1888971D03*
G54D180*
X1958382Y1678978D03*
X1954642D03*
X1950863D03*
Y1668072D03*
X1954642D03*
X1958382D03*
G54D187*
X1954383Y1801074D03*
X1952415Y1790439D03*
X1950446Y1801074D03*
X1948478Y1790439D03*
X1946509Y1801074D03*
X1944541Y1790439D03*
X1942572Y1801074D03*
X1940604Y1790439D03*
X1938635Y1801074D03*
X1936667Y1790439D03*
X1795889Y1789680D03*
X1797857Y1800315D03*
X1799826Y1789680D03*
X1801794Y1800315D03*
X1803763Y1789680D03*
X1805731Y1800315D03*
X1807700Y1789680D03*
X1809668Y1800315D03*
X1811637Y1789680D03*
X1813605Y1800315D03*
G54D206*
X1820020Y1685319D03*
X1821989D03*
X1823957D03*
X1825926D03*
X1827894D03*
X1829863D03*
X1831831D03*
X1833800D03*
X1835768D03*
X1837737D03*
X1839705D03*
X1841674D03*
X1843642D03*
X1845611D03*
X1847579D03*
X1849548D03*
Y1731776D03*
X1847579D03*
X1845611D03*
X1843642D03*
X1841674D03*
X1839705D03*
X1837737D03*
X1835768D03*
X1833800D03*
X1831831D03*
X1829863D03*
X1827894D03*
X1825926D03*
X1823957D03*
X1821989D03*
X1820020D03*
G54D207*
X1858012Y1693784D03*
Y1695752D03*
Y1697721D03*
Y1699689D03*
Y1701658D03*
Y1703626D03*
Y1705595D03*
Y1707563D03*
Y1709532D03*
Y1711500D03*
Y1713469D03*
X1858112Y1715437D03*
X1858012Y1717406D03*
Y1719374D03*
Y1721343D03*
Y1723311D03*
X1811556D03*
Y1721343D03*
Y1719374D03*
Y1717406D03*
Y1715437D03*
Y1713469D03*
Y1711500D03*
Y1709532D03*
Y1707563D03*
Y1705595D03*
Y1703626D03*
Y1701658D03*
Y1699689D03*
Y1697721D03*
Y1695752D03*
Y1693784D03*
G54D208*
X1865533Y1642259D03*
X1874533D03*
X1882747Y1787786D03*
X1891747D03*
G54D209*
X1864894Y1668569D03*
X1877099D03*
X1864893Y1652298D03*
X1877098D03*
G54D210*
X1900671Y1619385D03*
Y1607180D03*
G54D211*
X1950021Y1603345D03*
Y1594345D03*
X1960670Y1627608D03*
Y1618608D03*
X1913043Y1791917D03*
Y1782917D03*
G54D212*
X1799171Y1740836D03*
G54D213*
Y1738868D03*
Y1736899D03*
Y1734931D03*
Y1732962D03*
G54D214*
X1791297Y1747923D03*
Y1725876D03*
G54D215*
X1812617Y1593792D03*
X1817617D03*
X1822617D03*
X1827617D03*
X1832617D03*
X1837617D03*
X1842617D03*
X1847617D03*
X1852617D03*
X1857617D03*
G54D216*
X1867459Y1581194D03*
X1802774D03*
G54D217*
X1962848Y1795757D03*
X1928202D03*
X1787424Y1794997D03*
X1822070D03*
G54D218*
X1943913Y1617939D03*
X1945882D03*
X1947850D03*
X1949819D03*
Y1625419D03*
X1947850D03*
X1945882D03*
X1943913D03*
G54D219*
X1946866Y1621679D03*
G54D220*
X1926235Y1702748D03*
X1922495D03*
X1918755D03*
Y1690936D03*
X1922495D03*
X1926235D03*
X1922495Y1696842D03*
G54D221*
X1860821Y1614571D03*
X1931676Y1580874D03*
G54D222*
X1860821Y1619571D03*
Y1624571D03*
Y1629571D03*
X1836215D03*
Y1624571D03*
Y1619571D03*
Y1614571D03*
X1931676Y1585874D03*
Y1590874D03*
Y1595874D03*
X1907070D03*
Y1590874D03*
Y1585874D03*
Y1580874D03*
G54D223*
X1863176Y1750534D03*
X1900578D03*
G54D224*
X1918817Y1604992D03*
Y1619756D03*
X1847997Y1638693D03*
Y1653457D03*
G54D225*
X1827152Y1652090D03*
Y1666657D03*
X1818490D03*
Y1652090D03*
G74*
X0Y0D02*
M02*
