*
*
G04 PADS 9.5 Build Number: 522968 generated Gerber (RS-274-X) file*
G04 PC Version=2.1*
*
%IN "LK02 Main board 3V0.pcb"*%
*
%MOIN*%
*
%FSLAX35Y35*%
*
*
*
*
G04 PC Standard Apertures*
*
*
G04 Thermal Relief Aperture macro.*
%AMTER*
1,1,$1,0,0*
1,0,$1-$2,0,0*
21,0,$3,$4,0,0,45*
21,0,$3,$4,0,0,135*
%
*
*
G04 Annular Aperture macro.*
%AMANN*
1,1,$1,0,0*
1,0,$2,0,0*
%
*
*
G04 Odd Aperture macro.*
%AMODD*
1,1,$1,0,0*
1,0,$1-0.005,0,0*
%
*
*
G04 PC Custom Aperture Macros*
*
*
*
*
*
*
G04 PC Aperture Table*
*
%ADD010C,0.001*%
%ADD023C,0.01969*%
%ADD025C,0.00787*%
%ADD030C,0.01*%
%ADD031C,0.00394*%
%ADD137C,0.06*%
%ADD178C,0.02756*%
%ADD202R,0.05906X0.05906*%
%ADD203C,0.05906*%
*
*
*
*
G04 PC Circuitry*
G04 Layer Name LK02 Main board 3V0.pcb - circuitry*
%LPD*%
*
*
G04 PC Custom Flashes*
G04 Layer Name LK02 Main board 3V0.pcb - flashes*
%LPD*%
*
*
G04 PC Circuitry*
G04 Layer Name LK02 Main board 3V0.pcb - circuitry*
%LPD*%
*
G54D10*
G54D23*
G01X1937638Y1698504D02*
X1950906Y1685236D01*
Y1683031*
X1793819Y1586339D03*
X1821535Y1583583D03*
X1834685D03*
X1847874Y1583543D03*
X1886260Y1585945D03*
X1892283Y1581024D03*
X1901535Y1580984D03*
X1901181Y1585906D03*
X1926181Y1585787D03*
X1920827Y1583465D03*
X1920709Y1586811D03*
X1944882Y1588937D03*
X1940945Y1589213D03*
X1892008Y1590236D03*
X1901457Y1590945D03*
X1898819Y1598465D03*
X1931575Y1598740D03*
X1944961Y1592323D03*
X1941024Y1592283D03*
X1954331Y1594331D03*
X1960787Y1599252D03*
X1827520Y1609134D03*
X1824016Y1609055D03*
X1832913Y1609134D03*
X1847638Y1607441D03*
X1852638Y1607559D03*
X1857638Y1607520D03*
X1931181Y1604961D03*
X1954528Y1601339D03*
X1960748Y1601772D03*
X1819685Y1619567D03*
X1819724Y1614646D03*
X1830197Y1619567D03*
X1830276Y1614606D03*
X1855413Y1619590D03*
X1850118Y1617756D03*
X1885079Y1612835D03*
X1943386Y1612913D03*
Y1615315D03*
X1950787Y1615748D03*
X1960591Y1614252D03*
X1819724Y1623898D03*
X1830236Y1624528D03*
X1850079Y1620118D03*
X1869331Y1629528D03*
X1910013Y1625465D03*
X1910068Y1628956D03*
X1927523Y1625742D03*
X1919100Y1625576D03*
X1927523Y1628790D03*
X1919100Y1628956D03*
X1948110Y1628465D03*
Y1621693D03*
X1961270Y1629197D03*
X1959113Y1629195D03*
X1782953Y1637126D03*
X1786890Y1636890D03*
X1826654Y1632480D03*
X1907441Y1636654D03*
X1917323D03*
X1954488Y1634685D03*
X1949073Y1639090D03*
X1964942Y1639119D03*
X1959113Y1631256D03*
X1961270Y1631266D03*
X1786772Y1639724D03*
X1782913Y1639606D03*
X1782795Y1642874D03*
X1786614D03*
X1790906Y1639724D03*
X1790787Y1642874D03*
X1930000Y1644606D03*
X1947126Y1645787D03*
X1956850Y1642677D03*
X1812402Y1652126D03*
X1840157Y1659488D03*
X1843622D03*
X1853189D03*
X1912323Y1657598D03*
X1917323Y1658228D03*
X1922913Y1655866D03*
X1938858Y1657323D03*
X1952953Y1656024D03*
X1960590Y1651791D03*
X1833346Y1666614D03*
X1843622Y1663346D03*
X1840118D03*
X1853268D03*
X1877087Y1659961D03*
X1937126Y1662559D03*
X1940039Y1666654D03*
X1955039Y1663543D03*
X1960591Y1661732D03*
X1960394Y1668031D03*
X1841654Y1678346D03*
X1849567D03*
X1857926Y1670928D03*
X1857903Y1673221D03*
X1855700Y1670951D03*
X1855745Y1673221D03*
X1860035Y1671017D03*
X1860071Y1673241D03*
X1887480Y1674291D03*
X1936387Y1675164D03*
X1954691Y1675225D03*
X1966260Y1674291D03*
X1833780Y1679843D03*
X1858268Y1685236D03*
X1873733Y1681062D03*
X1873697Y1683279D03*
X1873701Y1685472D03*
X1876350Y1681025D03*
Y1683242D03*
X1876299Y1685394D03*
X1891457Y1688268D03*
X1928071Y1687244D03*
X1922480Y1686850D03*
X1937087Y1688701D03*
X1950906Y1683031D03*
X1962165Y1684213D03*
X1825748Y1692047D03*
X1821417Y1693780D03*
X1831063D03*
X1828504Y1691969D03*
X1843622Y1693858D03*
X1848858Y1690787D03*
X1852677Y1699488D03*
X1849724Y1696260D03*
X1865827Y1693307D03*
X1863622Y1699370D03*
X1864252Y1695984D03*
X1874724Y1697638D03*
X1872677Y1692047D03*
X1874724Y1693898D03*
X1884409Y1696732D03*
X1892598Y1696850D03*
X1888543Y1696811D03*
X1902047Y1695748D03*
X1902441Y1698898D03*
X1916378Y1696969D03*
X1925984Y1696850D03*
X1937638Y1698504D03*
X1822362Y1708386D03*
X1819291Y1708583D03*
X1819488Y1704331D03*
X1825276Y1702283D03*
X1819291Y1699843D03*
X1832835Y1705551D03*
X1846969Y1705827D03*
X1843583Y1702283D03*
X1866024Y1702323D03*
Y1705394D03*
X1874843Y1707008D03*
X1874252Y1704055D03*
X1884449Y1705000D03*
X1884409Y1700669D03*
X1892598Y1705079D03*
X1888504Y1704961D03*
X1892559Y1700787D03*
X1888543Y1700748D03*
X1902008Y1702008D03*
X1910591Y1701811D03*
X1922520Y1705315D03*
X1928701Y1708031D03*
X1945945Y1699803D03*
X1940866Y1703465D03*
X1950827Y1701890D03*
X1955906Y1699803D03*
X1961496Y1703465D03*
X1819291Y1716260D03*
X1825315Y1718346D03*
X1829685Y1710276D03*
X1835787Y1715906D03*
X1829055Y1718661D03*
X1832835Y1710197D03*
X1842874Y1713898D03*
X1852165Y1709803D03*
X1849606Y1716181D03*
X1849173Y1712598D03*
X1852244Y1718071D03*
X1865079Y1713661D03*
X1876929Y1710118D03*
X1878465Y1715315D03*
X1880709Y1717559D03*
X1883583Y1715276D03*
X1891457Y1713780D03*
X1897754Y1710903D03*
X1903386Y1712165D03*
X1916929Y1718583D03*
X1940984Y1719331D03*
X1940866Y1715197D03*
X1955866Y1716575D03*
X1959961Y1713465D03*
X1823976Y1725984D03*
X1820019Y1725893D03*
X1829055Y1721457D03*
X1845630Y1726535D03*
X1840945Y1721457D03*
X1850866Y1721417D03*
X1903701Y1720591D03*
X1935118Y1727677D03*
X1958780Y1727559D03*
X1805591Y1736024D03*
X1821969Y1737244D03*
X1865354Y1732008D03*
X1874252Y1738583D03*
X1877008Y1735669D03*
X1904724Y1738661D03*
X1937126Y1731299D03*
X1944449Y1738307D03*
X1939016Y1738465D03*
X1954449Y1738307D03*
X1805236Y1739685D03*
X1836378Y1740709D03*
X1829646Y1740472D03*
X1847520Y1741063D03*
X1843701Y1740984D03*
X1850276Y1741024D03*
X1865866Y1743268D03*
X1860276Y1743425D03*
X1913504Y1747362D03*
X1961457Y1747638D03*
X1960799Y1741879D03*
X1840197Y1758465D03*
X1863937Y1758386D03*
X1875787Y1757717D03*
X1884409Y1754882D03*
X1879882Y1753425D03*
X1910709Y1757402D03*
X1924134Y1756220D03*
X1939488Y1755315D03*
X1949449Y1755276D03*
X1954488Y1755433D03*
X1805984Y1763819D03*
X1815984Y1767480D03*
X1811535Y1763898D03*
X1863622Y1763976D03*
X1869528Y1762165D03*
X1895197Y1762598D03*
X1889961Y1764961D03*
X1907008Y1762874D03*
X1931575Y1763425D03*
X1795984Y1776654D03*
X1826378Y1771575D03*
X1831378Y1779409D03*
X1888780Y1777598D03*
X1907874Y1771772D03*
X1912953Y1778543D03*
X1937729Y1770715D03*
X1807677Y1784567D03*
X1866535Y1780591D03*
X1936654Y1785827D03*
X1871614Y1796732D03*
X1878504Y1796811D03*
X1954370Y1797047D03*
X1797874Y1804409D03*
X1801811Y1804449D03*
X1805748Y1804488D03*
X1809646Y1804528D03*
X1820433Y1804134D03*
X1835315D03*
X1897717Y1801181D03*
X1908071Y1801024D03*
X1919606Y1802480D03*
X1938622Y1805236D03*
X1942598D03*
X1946535D03*
X1950433D03*
G54D25*
X1827520Y1609134D02*
X1827865D01*
X1832441Y1613709*
X1832913Y1609134D02*
X1834190Y1610411D01*
X1827874Y1652859D02*
Y1691339D01*
X1828504Y1691969*
X1827874Y1652859D02*
X1834190Y1646542D01*
Y1610411*
X1825748Y1692047D02*
Y1652707D01*
X1832441Y1646014*
Y1613709*
X1848858Y1690787D02*
X1860492Y1702421D01*
Y1737893*
X1865866Y1743268*
X1865827Y1693307D02*
Y1661578D01*
X1922444Y1604961*
X1931181*
X1872087Y1692638D02*
Y1742559D01*
X1884409Y1754882*
X1872087Y1692638D02*
X1872677Y1692047D01*
X1822362Y1708386D02*
Y1708441D01*
X1836058Y1694745*
Y1614717*
X1843335Y1607441*
X1847638*
X1819291Y1708583D02*
X1821457Y1710748D01*
X1823342*
X1837633Y1696457*
Y1615370*
X1843210Y1609792*
X1850404*
X1852638Y1607559*
X1852165Y1709803D02*
X1856663Y1714301D01*
Y1757018*
X1863622Y1763976*
X1940984Y1719331D02*
X1956173D01*
X1959961Y1715543*
Y1713465*
X1777858Y1730862D02*
X1796357Y1712363D01*
X1824535*
X1828788Y1708110*
X1830748*
X1832835Y1710197*
X1777858Y1740862D02*
X1804724Y1713996D01*
X1825965*
X1829685Y1710276*
X1895197Y1762598D02*
X1902717D01*
X1935895Y1795777*
X1953100*
X1954370Y1797047*
G54D30*
X1941513Y1597832D02*
Y1593749D01*
X1940119Y1592355*
Y1588657*
X1940823Y1587953*
X1945112*
X1945653Y1588494*
Y1592584*
X1944358Y1593879*
X1944801Y1594322*
Y1597832*
X1941513*
X1940216Y1592452D02*
X1945653D01*
X1940119Y1591552D02*
X1945653D01*
X1940119Y1590652D02*
X1945653D01*
X1940119Y1589752D02*
X1945653D01*
X1940119Y1588852D02*
X1945653D01*
X1941116Y1593352D02*
X1944885D01*
X1941513Y1596952D02*
X1944801D01*
X1941513Y1596052D02*
X1944801D01*
X1941513Y1595152D02*
X1944801D01*
X1941513Y1594252D02*
X1944731D01*
X1852232Y1678346D02*
G75*
G03X1852232I-2665J0D01*
G01X1845539Y1713898D02*
G03X1845539I-2665J0D01*
G01X1838453Y1715906D02*
G03X1838453I-2666J0D01*
G01X1843610Y1721457D02*
G03X1843610I-2665J0D01*
G01X1826642Y1725984D02*
G03X1826642I-2666J0D01*
G01X1807902Y1739685D02*
G03X1807902I-2666J0D01*
G01X1901484Y1598465D02*
G03X1901484I-2665J0D01*
G01X1894673Y1590236D02*
G03X1894673I-2665J0D01*
G01X1822390Y1614646D02*
G03X1822390I-2666J0D01*
G01X1815602Y1615921D02*
G03X1815602I-4681J0D01*
G01X1959516Y1642677D02*
G03X1959516I-2666J0D01*
G01X1955618Y1656024D02*
G03X1955618I-2665J0D01*
G01X1949791Y1645787D02*
G03X1949791I-2665J0D01*
G01X1964122Y1747638D02*
G03X1964122I-2665J0D01*
G01X1939319Y1785827D02*
G03X1939319I-2665J0D01*
G01X1926799Y1756220D02*
G03X1926799I-2665J0D01*
G01X1881169Y1796811D02*
G03X1881169I-2665J0D01*
G01X1874280Y1796732D02*
G03X1874280I-2666J0D01*
G01X1839043Y1740709D02*
G03X1839043I-2665J0D01*
G01X1832311Y1740472D02*
G03X1832311I-2665J0D01*
G01X1829043Y1771575D02*
G03X1829043I-2665J0D01*
G01X1834043Y1779409D02*
G03X1834043I-2665J0D01*
G01X1810343Y1784567D02*
G03X1810343I-2666J0D01*
G01X1791248Y1763780D02*
G03X1791248I-5815J0D01*
G01X1811839Y1671063D02*
G03X1811839I-8965J0D01*
G01X1910106Y1636654D02*
G03X1910106I-2665J0D01*
G01X1919043Y1696969D02*
G03X1919043I-2665J0D01*
G01X1919595Y1718583D02*
G03X1919595I-2666J0D01*
G01X1953453Y1615748D02*
G03X1953453I-2666J0D01*
G01X1857313Y1702384D02*
Y1710810D01*
G03X1856460Y1711163I-500J-0*
G01X1854934Y1709638*
G03X1854795Y1709366I354J-354*
G01X1849518Y1709495D02*
G03X1854795Y1709366I2647J308D01*
G01X1849518Y1709495D02*
G03X1849045Y1709936I-497J-58D01*
G01X1847181Y1714370D02*
G03X1849045Y1709936I1992J-1772D01*
G01X1847181Y1714370D02*
G03X1847250Y1714936I-373J332D01*
G01X1849384Y1718837D02*
G03X1847250Y1714936I222J-2656D01*
G01X1849384Y1718837D02*
G03X1849801Y1719136I-42J498D01*
G01X1853797Y1720237D02*
G03X1849801Y1719136I-1553J-2166D01*
G01X1853797Y1720237D02*
G03X1854588Y1720643I291J406D01*
G01Y1729421*
G03X1854088Y1729921I-500J0*
G01X1846931*
G03X1846725Y1728965I-0J-500*
G01X1844535D02*
G03X1846725I1095J-2430D01*
G01X1844535D02*
G03X1844329Y1729921I-206J456D01*
G01X1821923*
X1817446Y1734398*
Y1764465*
G03X1816794Y1764941I-500J-0*
G01X1816539Y1770087D02*
G03X1816794Y1764941I-555J-2607D01*
G01X1816539Y1770087D02*
G03X1816996Y1770930I104J489D01*
G01X1815932Y1771994*
G03X1815579Y1772141I-353J-353*
G01X1802088*
G03X1801735Y1771994I0J-500*
G01X1801489Y1771748*
G03X1801342Y1771394I353J-354*
G01Y1724561*
G03X1801489Y1724208I500J0*
G01X1809479Y1716217*
G03X1809833Y1716071I354J354*
G01X1816141*
G03X1816639Y1716522I0J500*
G01X1821944D02*
G03X1816639I-2653J-262D01*
G01X1821944D02*
G03X1822441Y1716071I497J49D01*
G01X1822694*
G03X1823108Y1716851I0J500*
G01X1825799Y1720968D02*
G03X1823108Y1716851I-484J-2622D01*
G01X1825799Y1720968D02*
G03X1826390Y1721459I91J491D01*
G01X1831447Y1720280D02*
G03X1826390Y1721459I-2392J1177D01*
G01X1831447Y1720280D02*
G03Y1719838I448J-221D01*
G01X1828065Y1716187D02*
G03X1831447Y1719838I990J2474D01*
G01X1828065Y1716187D02*
G03X1827526Y1715369I-185J-465D01*
G01X1829850Y1713045*
G03X1830122Y1712905I354J353*
G01X1831069Y1712554D02*
G03X1830122Y1712905I-1384J-2278D01*
G01X1831069Y1712554D02*
G03X1831566Y1712541I259J427D01*
G01X1833271Y1707568D02*
G03X1831566Y1712541I-436J2629D01*
G01X1833271Y1707568D02*
G03X1833000Y1707428I82J-494D01*
G01X1832215Y1706643*
X1831689Y1706261D02*
G03X1832215Y1706643I-941J1849D01*
G01X1831689Y1706261D02*
G03X1831562Y1705462I227J-445D01*
G01X1839100Y1697925*
X1839708Y1696457D02*
G03X1839100Y1697925I-2075J0D01*
G01X1839708Y1696457D02*
Y1681162D01*
G03X1840436Y1680717I500J0*
G01Y1675975D02*
G03Y1680717I1218J2371D01*
G01Y1675975D02*
G03X1839708Y1675531I-228J-444D01*
G01Y1656876*
G03X1840209Y1656376I500J-0*
G01X1855859Y1656410*
G03X1856212Y1656557I-1J500*
G01X1857167Y1657514*
G03X1857313Y1657867I-354J353*
G01Y1667965*
G03X1856989Y1668433I-500J-0*
G01X1856964Y1668443D02*
G03X1856989Y1668433I962J2485D01*
G01X1856964Y1668443D02*
G03X1856612Y1668446I-181J-467D01*
G01X1853232Y1671956D02*
G03X1856612Y1668446I2468J-1005D01*
G01X1853232Y1671956D02*
G03X1853239Y1672315I-463J189D01*
G01X1856645Y1675730D02*
G03X1853239Y1672315I-900J-2509D01*
G01X1856645Y1675730D02*
G03X1857313Y1676201I168J471D01*
G01Y1682425*
G03X1857043Y1682869I-500J-0*
G01Y1687604D02*
G03Y1682869I1225J-2368D01*
G01Y1687604D02*
G03X1857313Y1688048I-230J444D01*
G01Y1695101*
G03X1856460Y1695455I-500J0*
G01X1851627Y1690622*
G03X1851488Y1690351I354J-353*
G01X1848421Y1693417D02*
G03X1851488Y1690351I437J-2630D01*
G01X1848421Y1693417D02*
G03X1848693Y1693556I-82J493D01*
G01X1851500Y1696364*
G03X1851389Y1697155I-353J353*
G01X1855010Y1700777D02*
G03X1851389Y1697155I-2333J-1289D01*
G01X1855010Y1700777D02*
G03X1855802Y1700665I438J242D01*
G01X1857167Y1702030*
G03X1857313Y1702384I-354J354*
G01X1905861Y1700120D02*
Y1709692D01*
G03X1905049Y1710083I-500J-0*
G01X1901254Y1710566D02*
G03X1905049Y1710083I2132J1599D01*
G01X1901254Y1710566D02*
G03X1900364Y1710366I-400J-301D01*
G01X1899885Y1712503D02*
G03X1900364Y1710366I-2131J-1600D01*
G01X1899885Y1712503D02*
G03X1900775Y1712702I400J300D01*
G01X1904025Y1714753D02*
G03X1900775Y1712702I-639J-2588D01*
G01X1904025Y1714753D02*
G03X1904498Y1715592I120J485D01*
G01X1904142Y1715948*
G03X1903788Y1716095I-354J-353*
G01X1886732*
G03X1886234Y1715544I-0J-500*
G01X1881416Y1713724D02*
G03X1886234Y1715544I2167J1552D01*
G01X1881416Y1713724D02*
G03X1880607Y1713730I-407J-292D01*
G01X1879140Y1712737D02*
G03X1880607Y1713730I-675J2578D01*
G01X1879140Y1712737D02*
G03X1878897Y1711916I126J-484D01*
G01X1877835Y1707611D02*
G03X1878897Y1711916I-906J2507D01*
G01X1877835Y1707611D02*
G03X1877506Y1707120I170J-470D01*
G01X1876893Y1705305D02*
G03X1877506Y1707120I-2050J1703D01*
G01X1876893Y1705305D02*
G03X1876800Y1704838I385J-320D01*
G01X1874597Y1701412D02*
G03X1876800Y1704838I-345J2643D01*
G01X1874597Y1701412D02*
G03X1874161Y1700916I64J-496D01*
G01Y1697062*
G03X1874671Y1696562I500J0*
G01X1875471Y1691339D02*
G03X1874671Y1696562I-747J2559D01*
G01X1875471Y1691339D02*
G03X1875148Y1691047I140J-480D01*
G01X1873022Y1689404D02*
G03X1875148Y1691047I-345J2643D01*
G01X1873022Y1689404D02*
G03X1872587Y1688908I65J-496D01*
G01Y1680940*
G03X1872733Y1680586I500J-0*
G01X1873332Y1679987*
G03X1873686Y1679840I354J353*
G01X1877695*
G03X1878048Y1679987I-0J500*
G01X1878582Y1680521*
G03X1878729Y1680874I-353J353*
G01Y1683598*
X1880514Y1685384*
X1903740*
G03X1904093Y1685530I-0J500*
G01X1905714Y1687151*
G03X1905861Y1687505I-353J354*
G01Y1697676*
G03X1904900Y1697869I-500J-0*
G01X1904564Y1697286D02*
G03X1904900Y1697869I-2123J1612D01*
G01X1904564Y1697286D02*
G03X1904501Y1696788I398J-303D01*
G01X1899925Y1697360D02*
G03X1904501Y1696788I2122J-1612D01*
G01X1899925Y1697360D02*
G03X1899987Y1697858I-399J303D01*
G01X1904900Y1699927D02*
G03X1899987Y1697858I-2459J-1029D01*
G01X1904900Y1699927D02*
G03X1905861Y1700120I461J193D01*
G01X1927155Y1582574D02*
Y1602386D01*
G03X1926655Y1602886I-500J-0*
G01X1922444*
X1920977Y1603494D02*
G03X1922444Y1602886I1467J1467D01*
G01X1920977Y1603494D02*
X1919901Y1604569D01*
G03X1919548Y1604715I-353J-354*
G01X1881332*
X1864379Y1621669*
G03X1864024Y1621815I-354J-354*
G01X1840207Y1621774*
G03X1839708Y1621274I1J-500*
G01Y1616436*
G03X1839854Y1616083I500J0*
G01X1843923Y1612014*
G03X1844277Y1611867I354J353*
G01X1850404*
X1851872Y1611260D02*
G03X1850404Y1611867I-1468J-1468D01*
G01X1851872Y1611260D02*
X1852803Y1610328D01*
G03X1853075Y1610188I354J354*
G01X1854756Y1609177D02*
G03X1853075Y1610188I-2118J-1618D01*
G01X1854756Y1609177D02*
G03X1855546Y1609171I397J304D01*
G01X1855520Y1605902D02*
G03X1855546Y1609171I2118J1618D01*
G01X1855520Y1605902D02*
G03X1854730Y1605908I-397J-304D01*
G01X1850571Y1605876D02*
G03X1854730Y1605908I2067J1683D01*
G01X1850571Y1605876D02*
G03X1849781Y1605857I-387J-316D01*
G01X1846087Y1605273D02*
G03X1849781Y1605857I1551J2168D01*
G01X1846087Y1605273D02*
G03X1845797Y1605366I-290J-407D01*
G01X1843335*
X1841867Y1605974D02*
G03X1843335Y1605366I1468J1467D01*
G01X1841867Y1605974D02*
X1837118Y1610723D01*
G03X1836265Y1610377I-353J-354*
G01X1835678Y1608964D02*
G03X1836265Y1610377I-1488J1447D01*
G01X1835678Y1608964D02*
G03X1835543Y1608697I358J-348D01*
G01X1830643Y1607738D02*
G03X1835543Y1608697I2270J1396D01*
G01X1830643Y1607738D02*
G03X1829791I-426J-261D01*
G01X1826094Y1606882D02*
G03X1829791Y1607738I1426J2252D01*
G01X1826094Y1606882D02*
G03X1825541Y1606869I-267J-423D01*
G01X1825441Y1611307D02*
G03X1825541Y1606869I-1425J-2252D01*
G01X1825441Y1611307D02*
G03X1825995Y1611320I267J423D01*
G01X1827408Y1611797D02*
G03X1825995Y1611320I112J-2663D01*
G01X1827408Y1611797D02*
G03X1827740Y1611943I-21J499D01*
G01X1828120Y1612323*
G03X1828163Y1612981I-353J353*
G01X1828587Y1616669D02*
G03X1828163Y1612981I1689J-2063D01*
G01X1828587Y1616669D02*
G03X1828575Y1617452I-317J386D01*
G01X1827940Y1620985D02*
G03X1828575Y1617452I2257J-1418D01*
G01X1827940Y1620985D02*
G03X1827516Y1621751I-423J266D01*
G01X1821444Y1621741*
G03X1821173Y1621661I1J-500*
G01X1817374Y1625155D02*
G03X1821173Y1621661I2350J-1257D01*
G01X1817374Y1625155D02*
G03X1817287Y1625744I-441J235D01*
G01X1796856Y1646156*
G03X1796503Y1646302I-353J-354*
G01X1782719*
G03X1782365Y1646155I-0J-500*
G01X1781804Y1645595*
G03X1781658Y1645241I354J-354*
G01Y1620917*
G03X1781805Y1620563I500J-0*
G01X1803820Y1598594*
G03X1804173Y1598448I353J354*
G01X1851635*
X1867854Y1582221*
G03X1868208Y1582074I354J353*
G01X1889524*
G03X1889960Y1582329I-0J500*
G01X1894607D02*
G03X1889960I-2324J-1305D01*
G01X1894607D02*
G03X1895043Y1582074I436J245D01*
G01X1898798*
G03X1899231Y1582323I0J500*
G01X1899721Y1582936D02*
G03X1899231Y1582323I1814J-1952D01*
G01X1899721Y1582936D02*
G03X1899665Y1583714I-341J366D01*
G01X1899690Y1588115D02*
G03X1899665Y1583714I1491J-2209D01*
G01X1899690Y1588115D02*
G03X1899734Y1588911I-279J415D01*
G01X1902947Y1588735D02*
G03X1899734Y1588911I-1490J2210D01*
G01X1902947Y1588735D02*
G03X1902904Y1587939I280J-414D01*
G01X1902996Y1583953D02*
G03X1902904Y1587939I-1815J1953D01*
G01X1902996Y1583953D02*
G03X1903052Y1583176I340J-366D01*
G01X1903840Y1582323D02*
G03X1903052Y1583176I-2305J-1339D01*
G01X1903840Y1582323D02*
G03X1904272Y1582074I432J251D01*
G01X1926655*
G03X1927155Y1582574I0J500*
G01X1968004Y1665954D02*
Y1684569D01*
G03X1967104Y1684868I-500J-0*
G01X1966819Y1684541D02*
G03X1967104Y1684868I-2163J2163D01*
G01X1966819Y1684541D02*
X1965371Y1683092D01*
G03X1965224Y1682738I353J-354*
G01Y1669803*
X1964872Y1668377D02*
G03X1965224Y1669803I-2707J1426D01*
G01X1964872Y1668377D02*
G03X1964961Y1667791I442J-233D01*
G01X1967105Y1665647*
X1967144Y1665607D02*
G03X1967105Y1665647I-2202J-2124D01*
G01X1967144Y1665607D02*
G03X1968004Y1665954I360J347D01*
G01X1961883Y1639119D02*
Y1658668D01*
G03X1961258Y1659152I-500J-0*
G01X1957934Y1661516D02*
G03X1961258Y1659152I2657J216D01*
G01X1957934Y1661516D02*
G03X1957057Y1661802I-498J-41D01*
G01X1952491Y1664326D02*
G03X1957057Y1661802I2548J-783D01*
G01X1952491Y1664326D02*
G03X1952013Y1664972I-478J146D01*
G01X1948775*
G03X1948421Y1664826I-0J-500*
G01X1948086Y1664490*
X1945922Y1663594D02*
G03X1948086Y1664490I0J3060D01*
G01X1945922Y1663594D02*
X1940246D01*
G03X1939753Y1663010I-0J-500*
G01X1935862Y1660213D02*
G03X1939753Y1663010I1264J2346D01*
G01X1935862Y1660213D02*
G03X1935125Y1659772I-237J-441D01*
G01Y1651778*
G03X1935271Y1651424I500J-0*
G01X1951194Y1635502*
G03X1952012Y1635671I353J353*
G01X1957151Y1634795D02*
G03X1952012Y1635671I-2663J-110D01*
G01X1957151Y1634795D02*
G03X1957651Y1634315I500J20D01*
G01X1959113*
X1960556Y1633954D02*
G03X1959113Y1634315I-1443J-2698D01*
G01X1960556Y1633954D02*
G03X1960868Y1633900I236J441D01*
G01X1961365Y1633929D02*
G03X1960868Y1633900I-95J-2663D01*
G01X1961365Y1633929D02*
G03X1961883Y1634429I18J500D01*
G01Y1639119*
X1961597Y1718047D02*
Y1720208D01*
G03X1961451Y1720562I-500J-0*
G01X1956616Y1725396*
X1950621Y1731392*
G03X1950267Y1731538I-354J-354*
G01X1940281*
G03X1939782Y1731079I-0J-500*
G01X1938353Y1728933D02*
G03X1939782Y1731079I-1227J2366D01*
G01X1938353Y1728933D02*
G03X1938096Y1728375I230J-444D01*
G01X1937281Y1725514D02*
G03X1938096Y1728375I-2163J2163D01*
G01X1937281Y1725514D02*
X1935271Y1723504D01*
G03X1935125Y1723150I354J-354*
G01Y1700947*
G03X1935943Y1700561I500J-0*
G01X1939522Y1700389D02*
G03X1935943Y1700561I-1884J-1885D01*
G01X1939522Y1700389D02*
X1952790Y1687121D01*
X1953571Y1685236D02*
G03X1952790Y1687121I-2665J0D01*
G01X1953571Y1685236D02*
Y1683031D01*
X1948240D02*
G03X1953571I2666J0D01*
G01X1948240D02*
Y1683925D01*
G03X1948094Y1684279I-500J0*
G01X1935978Y1696394*
G03X1935125Y1696041I-353J-353*
G01Y1675185*
G03X1935625Y1674685I500J-0*
G01X1949617*
G03X1949971Y1674831I0J500*
G01X1952528Y1677389*
X1956854Y1673062D02*
G03X1952528Y1677389I-2163J2163D01*
G01X1956854Y1673062D02*
X1955736Y1671944D01*
G03X1956089Y1671091I353J-353*
G01X1958606*
G03X1959106Y1671591I0J500*
G01Y1684213*
X1960002Y1686376D02*
G03X1959106Y1684213I2163J-2163D01*
G01X1960002Y1686376D02*
X1961451Y1687824D01*
G03X1961597Y1688178I-354J354*
G01Y1710510*
G03X1960918Y1710977I-500J0*
G01X1957296Y1713536D02*
G03X1960918Y1710977I2665J-71D01*
G01X1957296Y1713536D02*
G03X1956649Y1714027I-500J13D01*
G01X1953205Y1716727D02*
G03X1956649Y1714027I2661J-152D01*
G01X1953205Y1716727D02*
G03X1952706Y1717256I-499J29D01*
G01X1942825*
G03X1942535Y1717163I0J-500*
G01Y1721499D02*
G03Y1717163I-1551J-2168D01*
G01Y1721499D02*
G03X1942825Y1721406I290J407D01*
G01X1956173*
X1957640Y1720798D02*
G03X1956173Y1721406I-1467J-1467D01*
G01X1957640Y1720798D02*
X1960744Y1717694D01*
G03X1961597Y1718047I353J353*
G01X1968004Y1723817D02*
Y1801181D01*
G03X1963386Y1805799I-4618J0*
G01X1776772*
G03X1772154Y1801181I-0J-4618*
G01Y1580709*
G03X1776772Y1576091I4618J-0*
G01X1783750*
G03X1783883Y1577072I0J500*
G01X1786983D02*
G03X1783883I-1550J5605D01*
G01X1786983D02*
G03X1787116Y1576091I133J-481D01*
G01X1953041*
G03X1953175Y1577072I0J500*
G01X1956274D02*
G03X1953175I-1550J5605D01*
G01X1956274D02*
G03X1956407Y1576091I133J-481D01*
G01X1963386*
G03X1968004Y1580709I-0J4618*
G01Y1603495*
G03X1967144Y1603842I-500J0*
G01X1967105Y1603802D02*
G03X1967144Y1603842I-2163J2163D01*
G01X1967105Y1603802D02*
X1963664Y1600361D01*
G03X1963517Y1600008I353J-353*
G01Y1598270*
X1961640Y1596392D02*
G03X1963517Y1598270I-0J1878D01*
G01X1961640Y1596392D02*
X1955047D01*
X1953719Y1596942D02*
G03X1955047Y1596392I1328J1328D01*
G01X1953719Y1596942D02*
X1951999Y1598662D01*
X1951449Y1599990D02*
G03X1951999Y1598662I1878J-0D01*
G01X1951449Y1599990D02*
Y1603241D01*
X1953327Y1605119D02*
G03X1951449Y1603241I-0J-1878D01*
G01X1953327Y1605119D02*
X1959562D01*
G03X1959916Y1605265I-0J500*
G01X1961736Y1607086*
G03X1961883Y1607440I-353J354*
G01Y1626034*
G03X1961365Y1626534I-500J0*
G01X1960366Y1626690D02*
G03X1961365Y1626534I904J2507D01*
G01X1960366Y1626690D02*
G03X1960025I-170J-470D01*
G01X1956765Y1627934D02*
G03X1960025Y1626690I2348J1261D01*
G01X1956765Y1627934D02*
G03X1956325Y1628197I-440J-237D01*
G01X1951181*
G03X1950696Y1627819I0J-500*
G01X1946573Y1630642D02*
G03X1950696Y1627819I1537J-2177D01*
G01X1946573Y1630642D02*
G03X1946639Y1631404I-288J409D01*
G01X1933492Y1644551*
G03X1932643Y1644262I-353J-354*
G01X1929655Y1647249D02*
G03X1932643Y1644262I345J-2643D01*
G01X1929655Y1647249D02*
G03X1929944Y1648099I-64J496D01*
G01X1929902Y1648141*
X1929006Y1650304D02*
G03X1929902Y1648141I3060J-0D01*
G01X1929006Y1650304D02*
Y1671626D01*
Y1684109*
G03X1928438Y1684604I-500J-0*
G01Y1689884D02*
G03Y1684604I-367J-2640D01*
G01Y1689884D02*
G03X1929006Y1690379I68J495D01*
G01Y1724625*
X1929902Y1726788D02*
G03X1929006Y1724625I2164J-2163D01*
G01X1929902Y1726788D02*
X1932955Y1729840D01*
X1934112Y1730566D02*
G03X1932955Y1729840I1006J-2889D01*
G01X1934112Y1730566D02*
G03X1933947Y1731538I-165J472D01*
G01X1926269*
X1924106Y1732434D02*
G03X1926269Y1731538I2163J2163D01*
G01X1924106Y1732434D02*
X1911341Y1745199D01*
X1915667Y1749525D02*
G03X1911341Y1745199I-2163J-2163D01*
G01X1915667Y1749525D02*
X1927390Y1737803D01*
G03X1927743Y1737656I353J353*
G01X1930535*
G03X1931035Y1738156I0J500*
G01Y1757933*
X1931931Y1760096D02*
G03X1931035Y1757933I2163J-2163D01*
G01X1931931Y1760096D02*
X1934523Y1762688D01*
G03X1934670Y1763042I-353J354*
G01Y1770715*
X1940788D02*
G03X1934670I-3059J-0D01*
G01X1940788D02*
Y1761567D01*
X1939892Y1759404D02*
G03X1940788Y1761567I-2163J2163D01*
G01X1939892Y1759404D02*
X1937300Y1756812D01*
G03X1937154Y1756459I354J-353*
G01Y1741322*
G03X1937869Y1740871I500J-0*
G01X1941343Y1739764D02*
G03X1937869Y1740871I-2327J-1299D01*
G01X1941343Y1739764D02*
G03X1942201Y1739739I436J244D01*
G01X1947111Y1738180D02*
G03X1942201Y1739739I-2662J127D01*
G01X1947111Y1738180D02*
G03X1947611Y1737656I500J-24D01*
G01X1951287*
G03X1951786Y1738180I0J500*
G01X1955658Y1735932D02*
G03X1951786Y1738180I-1209J2375D01*
G01X1955658Y1735932D02*
G03X1955532Y1735133I227J-446D01*
G01X1960943Y1729722*
X1966819Y1723845*
X1967104Y1723517D02*
G03X1966819Y1723845I-2448J-1835D01*
G01X1967104Y1723517D02*
G03X1968004Y1723817I400J300D01*
G01X1916367Y1606896D02*
G03X1916720Y1607750I-0J500D01*
G01X1864360Y1660111*
X1863752Y1661578D02*
G03X1864360Y1660111I2075J-0D01*
G01X1863752Y1661578D02*
Y1691466D01*
G03X1863659Y1691757I-500J-0*
G01X1865946Y1695970D02*
G03X1863659Y1691757I-119J-2663D01*
G01X1865946Y1695970D02*
G03X1866468Y1696469I22J499D01*
G01Y1699158*
G03X1865977Y1699658I-500J-0*
G01X1863425Y1701729D02*
G03X1865977Y1699658I2599J594D01*
G01X1863425Y1701729D02*
G03X1862463Y1701773I-487J-112D01*
G01X1861959Y1700954D02*
G03X1862463Y1701773I-1467J1467D01*
G01X1861959Y1700954D02*
X1859641Y1698636D01*
G03X1859495Y1698282I354J-354*
G01Y1676405*
G03X1860007Y1675905I500J0*
G01X1862551Y1672265D02*
G03X1860007Y1675905I-2480J976D01*
G01X1862551Y1672265D02*
G03X1862545Y1671914I465J-183D01*
G01X1860001Y1668352D02*
G03X1862545Y1671914I34J2665D01*
G01X1860001Y1668352D02*
G03X1859495Y1667852I-6J-500D01*
G01Y1657661*
X1858857Y1656120D02*
G03X1859495Y1657661I-1544J1541D01*
G01X1858857Y1656120D02*
X1857610Y1654870D01*
X1856071Y1654229D02*
G03X1857610Y1654870I-5J2182D01*
G01X1856071Y1654229D02*
X1840207Y1654194D01*
G03X1839708Y1653694I1J-500*
G01Y1624455*
G03X1840208Y1623955I500J-0*
G01X1864228Y1623997*
X1865774Y1623358D02*
G03X1864228Y1623997I-1542J-1542D01*
G01X1865774Y1623358D02*
X1882089Y1607043D01*
G03X1882443Y1606896I354J353*
G01X1916367*
X1863693Y1703616D02*
G03Y1704101I-437J242D01*
G01X1863534Y1704443D02*
G03X1863693Y1704101I2490J951D01*
G01X1863534Y1704443D02*
G03X1862567Y1704264I-467J-179D01*
G01Y1703452*
G03X1863534Y1703274I500J0*
G01X1863693Y1703616D02*
G03X1863534Y1703274I2331J-1293D01*
G01X1866468Y1716699D02*
Y1739729D01*
G03X1865615Y1740082I-500J-0*
G01X1862713Y1737180*
G03X1862567Y1736827I354J-353*
G01Y1716105*
G03X1863384Y1715719I500J-0*
G01X1865828Y1716219D02*
G03X1863384Y1715719I-749J-2558D01*
G01X1865828Y1716219D02*
G03X1866468Y1716699I140J480D01*
G01Y1746431D02*
Y1761852D01*
G03X1865598Y1762187I-500J-0*
G01X1864059Y1761347D02*
G03X1865598Y1762187I-437J2629D01*
G01X1864059Y1761347D02*
G03X1863787Y1761207I82J-493D01*
G01X1858885Y1756305*
G03X1858738Y1755951I353J-354*
G01Y1740281*
G03X1859592Y1739927I500J-0*
G01X1863097Y1743433*
G03X1863237Y1743705I-353J353*
G01X1865952Y1745932D02*
G03X1863237Y1743705I-86J-2664D01*
G01X1865952Y1745932D02*
G03X1866468Y1746431I16J499D01*
G01X1833983Y1682994D02*
Y1691739D01*
G03X1833101Y1692062I-500J0*
G01X1831323Y1691127D02*
G03X1833101Y1692062I-260J2653D01*
G01X1831323Y1691127D02*
G03X1830919Y1690841I49J-498D01*
G01X1830142Y1689866D02*
G03X1830919Y1690841I-1638J2103D01*
G01X1830142Y1689866D02*
G03X1829949Y1689471I307J-395D01*
G01Y1653925*
G03X1830095Y1653571I500J0*
G01X1833130Y1650537*
G03X1833983Y1650891I353J354*
G01Y1676691*
G03X1833530Y1677189I-500J0*
G01Y1682496D02*
G03Y1677189I250J-2653D01*
G01Y1682496D02*
G03X1833983Y1682994I-47J498D01*
G01X1852232Y1678346D02*
G03X1852232I-2665J0D01*
G01X1846763Y1703169D02*
G03X1844323Y1705501I206J2658D01*
G01X1846763Y1703169D02*
G03X1846228Y1702610I-39J-498D01*
G01X1843788Y1704941D02*
G03X1846228Y1702610I-205J-2658D01*
G01X1843788Y1704941D02*
G03X1844323Y1705501I39J498D01*
G01X1845539Y1713898D02*
G03X1845539I-2665J0D01*
G01X1838453Y1715906D02*
G03X1838453I-2666J0D01*
G01X1843610Y1721457D02*
G03X1843610I-2665J0D01*
G01X1826642Y1725984D02*
G03X1826642I-2666J0D01*
G01X1807902Y1739685D02*
G03X1807902I-2666J0D01*
G01X1894541Y1703254D02*
G03X1890816Y1707060I-1943J1825D01*
G01X1894541Y1703254D02*
G03X1894535Y1702576I365J-342D01*
G01X1894663Y1699151D02*
G03X1894535Y1702576I-2104J1636D01*
G01X1894663Y1699151D02*
G03X1894669Y1698529I394J-307D01*
G01X1890911Y1694787D02*
G03X1894669Y1698529I1687J2063D01*
G01X1890911Y1694787D02*
G03X1890270Y1694781I-317J-387D01*
G01X1886841Y1694760D02*
G03X1890270Y1694781I1702J2051D01*
G01X1886841Y1694760D02*
G03X1886188Y1694747I-319J-385D01*
G01X1882322Y1698390D02*
G03X1886188Y1694747I2087J-1658D01*
G01X1882322Y1698390D02*
G03Y1699012I-391J311D01*
G01X1882482Y1702510D02*
G03X1882322Y1699012I1927J-1841D01*
G01X1882482Y1702510D02*
G03X1882488Y1703194I-362J346D01*
G01X1886176Y1707030D02*
G03X1882488Y1703194I-1727J-2030D01*
G01X1886176Y1707030D02*
G03X1886817Y1707024I324J381D01*
G01X1890169Y1707042D02*
G03X1886817Y1707024I-1665J-2081D01*
G01X1890169Y1707042D02*
G03X1890816Y1707060I313J390D01*
G01X1901484Y1598465D02*
G03X1901484I-2665J0D01*
G01X1894673Y1590236D02*
G03X1894673I-2665J0D01*
G01X1822390Y1614646D02*
G03X1822390I-2666J0D01*
G01X1815602Y1615921D02*
G03X1815602I-4681J0D01*
G01X1959516Y1642677D02*
G03X1959516I-2666J0D01*
G01X1955618Y1656024D02*
G03X1955618I-2665J0D01*
G01X1949791Y1645787D02*
G03X1949791I-2665J0D01*
G01X1953263Y1699454D02*
G03X1954271Y1701909I2643J349D01*
G01X1953263Y1699454D02*
G03X1952461Y1699784I-496J-65D01*
G01X1949342Y1699676D02*
G03X1952461Y1699784I1485J2214D01*
G01X1949342Y1699676D02*
G03X1948571Y1699347I-279J-415D01*
G01X1947430Y1702017D02*
G03X1948571Y1699347I-1485J-2214D01*
G01X1947430Y1702017D02*
G03X1948201Y1702346I278J415D01*
G01X1953469Y1702238D02*
G03X1948201Y1702346I-2642J-348D01*
G01X1953469Y1702238D02*
G03X1954271Y1701909I496J66D01*
G01X1964122Y1747638D02*
G03X1964122I-2665J0D01*
G01X1956483Y1758237D02*
G03X1952655Y1758345I-1759J5543D01*
G01X1956483Y1758237D02*
G03X1956295Y1757393I151J-477D01*
G01X1952417Y1753756D02*
G03X1956295Y1757393I2071J1677D01*
G01X1952417Y1753756D02*
G03X1951621Y1753731I-389J-315D01*
G01X1951520Y1756953D02*
G03X1951621Y1753731I-2071J-1677D01*
G01X1951520Y1756953D02*
G03X1952316Y1756978I389J315D01*
G01X1952795Y1757492D02*
G03X1952316Y1756978I1693J-2059D01*
G01X1952795Y1757492D02*
G03X1952655Y1758345I-318J386D01*
G01X1939319Y1785827D02*
G03X1939319I-2665J0D01*
G01X1926799Y1756220D02*
G03X1926799I-2665J0D01*
G01X1954806Y1794418D02*
G03X1951942Y1798146I-436J2629D01*
G01X1954806Y1794418D02*
G03X1954541Y1794284I82J-493D01*
G01X1953100Y1793702D02*
G03X1954541Y1794284I-0J2075D01*
G01X1953100Y1793702D02*
X1936962D01*
G03X1936608Y1793556I-0J-500*
G01X1908698Y1765645*
G03X1908728Y1764910I353J-353*
G01X1904972Y1761154D02*
G03X1908728Y1764910I2036J1720D01*
G01X1904972Y1761154D02*
G03X1904237Y1761184I-382J-323D01*
G01X1904184Y1761131*
X1902717Y1760524D02*
G03X1904184Y1761131I-0J2074D01*
G01X1902717Y1760524D02*
X1897038D01*
G03X1896747Y1760430I0J-500*
G01Y1764767D02*
G03Y1760430I-1550J-2169D01*
G01Y1764767D02*
G03X1897038Y1764673I291J406D01*
G01X1901650*
G03X1902004Y1764820I0J500*
G01X1912355Y1775171*
G03X1912151Y1776001I-354J353*
G01X1915495Y1779345D02*
G03X1912151Y1776001I-2542J-802D01*
G01X1915495Y1779345D02*
G03X1916325Y1779141I477J150D01*
G01X1934428Y1797244*
X1935895Y1797852D02*
G03X1934428Y1797244I0J-2075D01*
G01X1935895Y1797852D02*
X1951486D01*
G03X1951942Y1798146I0J500*
G01X1881169Y1796811D02*
G03X1881169I-2665J0D01*
G01X1874280Y1796732D02*
G03X1874280I-2666J0D01*
G01X1849081Y1738641D02*
G03X1849150Y1743439I1195J2383D01*
G01X1849081Y1738641D02*
G03X1848646Y1738647I-224J-447D01*
G01X1845956Y1738905D02*
G03X1848646Y1738647I1564J2158D01*
G01X1845956Y1738905D02*
G03X1845352Y1738892I-294J-405D01*
G01X1845265Y1743143D02*
G03X1845352Y1738892I-1564J-2159D01*
G01X1845265Y1743143D02*
G03X1845868Y1743155I293J404D01*
G01X1848714Y1743446D02*
G03X1845868Y1743155I-1194J-2383D01*
G01X1848714Y1743446D02*
G03X1849150Y1743439I224J447D01*
G01X1839043Y1740709D02*
G03X1839043I-2665J0D01*
G01X1832311Y1740472D02*
G03X1832311I-2665J0D01*
G01X1829043Y1771575D02*
G03X1829043I-2665J0D01*
G01X1834043Y1779409D02*
G03X1834043I-2665J0D01*
G01X1810343Y1784567D02*
G03X1810343I-2666J0D01*
G01X1791248Y1763780D02*
G03X1791248I-5815J0D01*
G01X1811839Y1671063D02*
G03X1811839I-8965J0D01*
G01X1782608Y1711837D02*
Y1705931D01*
X1780927Y1704250D02*
G03X1782608Y1705931I0J1681D01*
G01X1780927Y1704250D02*
X1779611D01*
G03X1779451Y1703276I-0J-500*
G01X1779026Y1694371D02*
G03X1779451Y1703276I-1052J4513D01*
G01X1779026Y1694371D02*
G03Y1693397I113J-487D01*
G01X1776923D02*
G03X1779026I1051J-4513D01*
G01X1776923D02*
G03Y1694371I-113J487D01*
G01X1776497Y1703276D02*
G03X1776923Y1694371I1477J-4392D01*
G01X1776497Y1703276D02*
G03X1776338Y1704250I-159J474D01*
G01X1775022*
X1773341Y1705931D02*
G03X1775022Y1704250I1681J0D01*
G01X1773341Y1705931D02*
Y1711837D01*
X1775022Y1713518D02*
G03X1773341Y1711837I-0J-1681D01*
G01X1775022Y1713518D02*
X1780927D01*
X1782608Y1711837D02*
G03X1780927Y1713518I-1681J-0D01*
G01X1921354Y1627533D02*
G03X1916847I-2254J1423D01*
G01X1921354D02*
G03Y1626999I423J-267D01*
G01X1916847D02*
G03X1921354I2253J-1423D01*
G01X1916847D02*
G03Y1627533I-423J267D01*
G01X1910106Y1636654D02*
G03X1910106I-2665J0D01*
G01X1915419Y1656363D02*
G03X1915016Y1659564I1904J1865D01*
G01X1915419Y1656363D02*
G03X1914630Y1656263I-357J-350D01*
G01X1914226Y1659464D02*
G03X1914630Y1656263I-1903J-1866D01*
G01X1914226Y1659464D02*
G03X1915016Y1659564I357J350D01*
G01X1919043Y1696969D02*
G03X1919043I-2665J0D01*
G01X1919595Y1718583D02*
G03X1919595I-2666J0D01*
G01X1929859Y1627507D02*
G03X1925186I-2336J1283D01*
G01X1929859D02*
G03Y1627025I438J-241D01*
G01X1925186D02*
G03X1929859I2337J-1283D01*
G01X1925186D02*
G03Y1627507I-438J241D01*
G01X1953453Y1615748D02*
G03X1953453I-2666J0D01*
G01X1947860Y1591347D02*
G03X1947128Y1594482I-2899J976D01*
G01X1947860Y1591347D02*
G03X1947834Y1591188I474J-159D01*
G01Y1589804*
G03X1947849Y1589682I500J-0*
G01X1947717Y1587789D02*
G03X1947849Y1589682I-2835J1148D01*
G01X1947717Y1587789D02*
G03X1947709Y1587768I464J-188D01*
G01X1947315Y1587082D02*
G03X1947709Y1587768I-1662J1412D01*
G01X1947315Y1587082D02*
G03X1947301Y1587065I381J-323D01*
G01X1946806Y1586559D02*
G03X1947301Y1587065I-1924J2378D01*
G01X1946806Y1586559D02*
G03X1946767Y1586524I315J-389D01*
G01X1946654Y1586411*
X1945112Y1585772D02*
G03X1946654Y1586411I-0J2181D01*
G01X1945112Y1585772D02*
X1940823D01*
X1939281Y1586411D02*
G03X1940823Y1585772I1542J1542D01*
G01X1939281Y1586411D02*
X1938577Y1587115D01*
X1937938Y1588657D02*
G03X1938577Y1587115I2181J0D01*
G01X1937938Y1588657D02*
Y1592355D01*
X1938089Y1593152D02*
G03X1937938Y1592355I2030J-797D01*
G01X1938089Y1593152D02*
G03X1938101Y1593187I-466J183D01*
G01X1938604Y1594155D02*
G03X1938101Y1593187I2420J-1872D01*
G01X1938604Y1594155D02*
G03X1938708Y1594461I-396J306D01*
G01Y1597354*
G03X1938562Y1597708I-500J0*
G01X1933465Y1602805*
G03X1932806Y1602848I-354J-353*
G01X1930049Y1602548D02*
G03X1932806Y1602848I1132J2413D01*
G01X1930049Y1602548D02*
G03X1929337Y1602095I-212J-453D01*
G01Y1582251*
X1928698Y1580709D02*
G03X1929337Y1582251I-1543J1542D01*
G01X1928698Y1580709D02*
X1928521Y1580532D01*
X1926979Y1579893D02*
G03X1928521Y1580532I-0J2181D01*
G01X1926979Y1579893D02*
X1904272D01*
G03X1903840Y1579645I-0J-500*
G01X1899231D02*
G03X1903840I2304J1339D01*
G01X1899231D02*
G03X1898799Y1579893I-432J-252D01*
G01X1868000*
X1866458Y1580532D02*
G03X1868000Y1579893I1542J1542D01*
G01X1866458Y1580532D02*
X1850877Y1596120D01*
G03X1850524Y1596267I-353J-353*
G01X1803967*
X1802426Y1596904D02*
G03X1803967Y1596267I1541J1544D01*
G01X1802426Y1596904D02*
X1784684Y1614609D01*
G03X1783857Y1614416I-353J-354*
G01X1779020Y1620585D02*
G03X1783857Y1614416I405J-4664D01*
G01X1779020Y1620585D02*
G03X1779477Y1621083I-43J498D01*
G01Y1634382*
G03X1779020Y1634880I-500J-0*
G01Y1644207D02*
G03Y1634880I405J-4664D01*
G01Y1644207D02*
G03X1779477Y1644705I-43J498D01*
G01Y1645448*
X1780116Y1646991D02*
G03X1779477Y1645448I1542J-1543D01*
G01X1780116Y1646991D02*
X1780969Y1647844D01*
X1782512Y1648483D02*
G03X1780969Y1647844I-0J-2181D01*
G01X1782512Y1648483D02*
X1796710D01*
X1798251Y1647845D02*
G03X1796710Y1648483I-1541J-1543D01*
G01X1798251Y1647845D02*
X1822048Y1624070D01*
G03X1822403Y1623924I354J354*
G01X1827073Y1623932*
G03X1827572Y1624447I-1J500*
G01X1829925Y1627175D02*
G03X1827572Y1624447I311J-2647D01*
G01X1829925Y1627175D02*
G03X1830366Y1627671I-59J496D01*
G01Y1644947*
G03X1830220Y1645301I-500J0*
G01X1824281Y1651239*
X1823673Y1652707D02*
G03X1824281Y1651239I2075J-0D01*
G01X1823673Y1652707D02*
Y1690206D01*
G03X1823580Y1690497I-500J0*
G01X1823255Y1691103D02*
G03X1823580Y1690497I2493J944D01*
G01X1823255Y1691103D02*
G03X1822571Y1691377I-467J-177D01*
G01X1823910Y1694723D02*
G03X1822571Y1691377I-2493J-943D01*
G01X1823910Y1694723D02*
G03X1824594Y1694450I468J178D01*
G01X1826977Y1694412D02*
G03X1824594Y1694450I-1229J-2365D01*
G01X1826977Y1694412D02*
G03X1827412Y1694400I230J444D01*
G01X1828244Y1694621D02*
G03X1827412Y1694400I260J-2652D01*
G01X1828244Y1694621D02*
G03X1828648Y1694907I-49J498D01*
G01X1830427Y1696368D02*
G03X1828648Y1694907I636J-2588D01*
G01X1830427Y1696368D02*
G03X1830661Y1697207I-119J486D01*
G01X1823002Y1704867*
G03X1822149Y1704484I-354J-354*
G01X1817434Y1706030D02*
G03X1822149Y1704484I2054J-1699D01*
G01X1817434Y1706030D02*
G03X1817403Y1706701I-385J318D01*
G01X1816827Y1709598D02*
G03X1817403Y1706701I2464J-1015D01*
G01X1816827Y1709598D02*
G03X1816365Y1710288I-462J190D01*
G01X1816365D02*
X1796357D01*
X1794890Y1710896D02*
G03X1796357Y1710288I1467J1467D01*
G01X1794890Y1710896D02*
X1779532Y1726254D01*
G03X1779050Y1726384I-354J-353*
G01X1776807Y1735375D02*
G03X1779050Y1726384I1051J-4513D01*
G01X1776807Y1735375D02*
G03Y1736349I-113J487D01*
G01X1776382Y1745254D02*
G03X1776807Y1736349I1476J-4392D01*
G01X1776382Y1745254D02*
G03X1776222Y1746228I-160J474D01*
G01X1774906*
X1773225Y1747909D02*
G03X1774906Y1746228I1681J0D01*
G01X1773225Y1747909D02*
Y1753815D01*
X1774906Y1755496D02*
G03X1773225Y1753815I-0J-1681D01*
G01X1774906Y1755496D02*
X1780811D01*
X1782492Y1753815D02*
G03X1780811Y1755496I-1681J-0D01*
G01X1782492Y1753815D02*
Y1747909D01*
X1780811Y1746228D02*
G03X1782492Y1747909I0J1681D01*
G01X1780811Y1746228D02*
X1779495D01*
G03X1779335Y1745254I-0J-500*
G01X1782337Y1739670D02*
G03X1779335Y1745254I-4479J1192D01*
G01X1782337Y1739670D02*
G03X1782466Y1739188I483J-128D01*
G01X1798419Y1723235*
G03X1799252Y1723732I354J354*
G01X1799161Y1724354D02*
G03X1799252Y1723732I2181J0D01*
G01X1799161Y1724354D02*
Y1771601D01*
X1799800Y1773144D02*
G03X1799161Y1771601I1542J-1543D01*
G01X1799800Y1773144D02*
X1800339Y1773683D01*
X1801881Y1774322D02*
G03X1800339Y1773683I0J-2181D01*
G01X1801881Y1774322D02*
X1815786D01*
X1817328Y1773683D02*
G03X1815786Y1774322I-1542J-1542D01*
G01X1817328Y1773683D02*
X1818989Y1772022D01*
X1819627Y1770480D02*
G03X1818989Y1772022I-2181J0D01*
G01X1819627Y1770480D02*
Y1735509D01*
G03X1819774Y1735155I500J-0*
G01X1822680Y1732249*
G03X1823034Y1732102I354J353*
G01X1854088*
G03X1854588Y1732602I0J500*
G01Y1757018*
X1855196Y1758485D02*
G03X1854588Y1757018I1467J-1467D01*
G01X1855196Y1758485D02*
X1860853Y1764142D01*
G03X1860993Y1764413I-354J353*
G01X1866263Y1764334D02*
G03X1860993Y1764413I-2641J-358D01*
G01X1866263Y1764334D02*
G03X1867148Y1764087I496J68D01*
G01X1872587Y1762165D02*
G03X1867148Y1764087I-3059J0D01*
G01X1872587Y1762165D02*
Y1747200D01*
G03X1873440Y1746847I500J0*
G01X1881640Y1755047*
G03X1881780Y1755319I-353J354*
G01X1884846Y1752253D02*
G03X1881780Y1755319I-437J2629D01*
G01X1884846Y1752253D02*
G03X1884575Y1752113I82J-494D01*
G01X1874505Y1742043*
G03X1874763Y1741199I353J-354*
G01X1876911Y1738773D02*
G03X1874763Y1741199I-2659J-190D01*
G01X1876911Y1738773D02*
G03X1877346Y1738313I498J36D01*
G01X1875032Y1733880D02*
G03X1877346Y1738313I1976J1789D01*
G01X1875032Y1733880D02*
G03X1874161Y1733545I-371J-335D01*
G01Y1718675*
G03X1874797Y1718194I500J-0*
G01X1875390Y1718276D02*
G03X1874797Y1718194I-0J-2181D01*
G01X1875390Y1718276D02*
X1877786D01*
G03X1878248Y1718584I0J500*
G01X1883169D02*
G03X1878248I-2460J-1025D01*
G01X1883169D02*
G03X1883631Y1718276I462J192D01*
G01X1903996*
X1905538Y1717637D02*
G03X1903996Y1718276I-1542J-1542D01*
G01X1905538Y1717637D02*
X1907403Y1715771D01*
X1908042Y1714229D02*
G03X1907403Y1715771I-2181J0D01*
G01X1908042Y1714229D02*
Y1687298D01*
X1907403Y1685756D02*
G03X1908042Y1687298I-1542J1542D01*
G01X1907403Y1685756D02*
X1905489Y1683842D01*
X1903947Y1683203D02*
G03X1905489Y1683842I-0J2181D01*
G01X1903947Y1683203D02*
X1881625D01*
G03X1881271Y1683056I0J-500*
G01X1881056Y1682841*
G03X1880910Y1682488I354J-353*
G01Y1680667*
X1880271Y1679125D02*
G03X1880910Y1680667I-1542J1542D01*
G01X1880271Y1679125D02*
X1879444Y1678298D01*
X1877902Y1677659D02*
G03X1879444Y1678298I-0J2181D01*
G01X1877902Y1677659D02*
X1873479D01*
X1873160Y1677683D02*
G03X1873479Y1677659I319J2157D01*
G01X1873160Y1677683D02*
G03X1872587Y1677188I-73J-495D01*
G01Y1662970*
G03X1872733Y1662617I500J0*
G01X1906555Y1628795*
G03X1907408Y1629118I354J353*
G01X1912268Y1627451D02*
G03X1907408Y1629118I-2200J1505D01*
G01X1912268Y1627451D02*
G03X1912259Y1626899I413J-282D01*
G01X1912126Y1623840D02*
G03X1912259Y1626899I-2113J1625D01*
G01X1912126Y1623840D02*
G03X1912168Y1623182I396J-305D01*
G01X1916931Y1618418*
G03X1917285Y1618272I354J354*
G01X1925383*
X1927546Y1617376D02*
G03X1925383Y1618272I-2163J-2163D01*
G01X1927546Y1617376D02*
X1943930Y1600992D01*
X1944463Y1600275D02*
G03X1943930Y1600992I-2696J-1446D01*
G01X1944463Y1600275D02*
G03X1944884Y1600012I440J236D01*
G01X1946982Y1597832D02*
G03X1944884Y1600012I-2181J0D01*
G01X1946982Y1597832D02*
Y1594834D01*
G03X1947128Y1594482I500J0*
G01X1945852Y1614304D02*
G03X1940920I-2466J1011D01*
G01X1945852D02*
G03Y1613925I463J-190D01*
G01X1940920Y1613924D02*
G03X1945852I2466J-1011D01*
G01X1940920Y1613925D02*
G03Y1614304I-463J189D01*
G01X1855579Y1710282D02*
X1857313D01*
X1854798Y1709382D02*
X1857313D01*
X1854480Y1708482D02*
X1857313D01*
X1853639Y1707582D02*
X1857313D01*
X1849493Y1706682D02*
X1857313D01*
X1849634Y1705782D02*
X1857313D01*
X1849461Y1704882D02*
X1857313D01*
X1848893Y1703982D02*
X1857313D01*
X1846440Y1703082D02*
X1857313D01*
X1855987Y1694982D02*
X1857313D01*
X1855087Y1694082D02*
X1857313D01*
X1854187Y1693182D02*
X1857313D01*
X1853287Y1692282D02*
X1857313D01*
X1852387Y1691382D02*
X1857313D01*
X1851529Y1690482D02*
X1857313D01*
X1851236Y1689582D02*
X1857313D01*
X1850493Y1688682D02*
X1857313D01*
X1839708Y1682382D02*
X1857313D01*
X1839708Y1681482D02*
X1857313D01*
X1851018Y1680582D02*
X1857313D01*
X1851873Y1679682D02*
X1857313D01*
X1852196Y1678782D02*
X1857313D01*
X1852192Y1677882D02*
X1857313D01*
X1851857Y1676982D02*
X1857313D01*
X1839708Y1667082D02*
X1857313D01*
X1839708Y1666182D02*
X1857313D01*
X1839708Y1665282D02*
X1857313D01*
X1839708Y1664382D02*
X1857313D01*
X1839708Y1663482D02*
X1857313D01*
X1839708Y1662582D02*
X1857313D01*
X1839708Y1661682D02*
X1857313D01*
X1839708Y1660782D02*
X1857313D01*
X1839708Y1659882D02*
X1857313D01*
X1839708Y1658982D02*
X1857313D01*
X1839708Y1658082D02*
X1857313D01*
X1839708Y1667982D02*
X1857313D01*
X1850973Y1676082D02*
X1857299D01*
X1846246Y1702182D02*
X1857271D01*
X1839708Y1687782D02*
X1857237D01*
X1856480Y1711182D02*
X1857147D01*
X1839708Y1657182D02*
X1856836D01*
X1839708Y1683282D02*
X1856455D01*
X1854648Y1701282D02*
X1856419D01*
X1839708Y1686882D02*
X1856171D01*
X1839708Y1684182D02*
X1855820D01*
X1839708Y1685982D02*
X1855709D01*
X1839708Y1685082D02*
X1855607D01*
X1846492Y1729182D02*
X1854588D01*
X1847643Y1728282D02*
X1854588D01*
X1848157Y1727382D02*
X1854588D01*
X1848295Y1726482D02*
X1854588D01*
X1848119Y1725582D02*
X1854588D01*
X1847546Y1724682D02*
X1854588D01*
X1842247Y1723782D02*
X1854588D01*
X1843197Y1722882D02*
X1854588D01*
X1843558Y1721982D02*
X1854588D01*
X1843584Y1721082D02*
X1854588D01*
X1853895Y1720182D02*
X1854282D01*
X1839708Y1668882D02*
X1854019D01*
X1839708Y1675182D02*
X1853940D01*
X1839708Y1669782D02*
X1853305D01*
X1839708Y1674282D02*
X1853300D01*
X1839708Y1672482D02*
X1853184D01*
X1839708Y1671582D02*
X1853111D01*
X1839708Y1673382D02*
X1853085D01*
X1839708Y1670682D02*
X1853048D01*
X1839682Y1696782D02*
X1851643D01*
X1839708Y1695882D02*
X1851019D01*
X1839307Y1697682D02*
X1850717D01*
X1846053Y1701282D02*
X1850706D01*
X1848974Y1707582D02*
X1850692D01*
X1843286Y1720182D02*
X1850617D01*
X1838442Y1698582D02*
X1850170D01*
X1845451Y1700382D02*
X1850166D01*
X1839708Y1694982D02*
X1850119D01*
X1837542Y1699482D02*
X1850012D01*
X1842486Y1719282D02*
X1849870D01*
X1847198Y1708482D02*
X1849850D01*
X1835373Y1709382D02*
X1849533D01*
X1839708Y1694082D02*
X1849219D01*
X1843060Y1676082D02*
X1848161D01*
X1843105Y1680582D02*
X1848116D01*
X1836772Y1718382D02*
X1848103D01*
X1835499Y1710282D02*
X1847854D01*
X1839708Y1693182D02*
X1847688D01*
X1845388Y1714782D02*
X1847301D01*
X1837936Y1717482D02*
X1847280D01*
X1843943Y1676982D02*
X1847277D01*
X1843960Y1679682D02*
X1847260D01*
X1839708Y1688682D02*
X1847223D01*
X1844854Y1715682D02*
X1846988D01*
X1838365Y1716582D02*
X1846971D01*
X1844278Y1677882D02*
X1846942D01*
X1844283Y1678782D02*
X1846937D01*
X1835311Y1711182D02*
X1846915D01*
X1845539Y1713882D02*
X1846837D01*
X1834875Y1708482D02*
X1846739D01*
X1839708Y1692282D02*
X1846652D01*
X1844826Y1712082D02*
X1846558D01*
X1845377Y1712982D02*
X1846536D01*
X1839708Y1689582D02*
X1846481D01*
X1839708Y1691382D02*
X1846260D01*
X1839708Y1690482D02*
X1846210D01*
X1833353Y1707582D02*
X1844963D01*
X1801342Y1729182D02*
X1844768D01*
X1832254Y1706682D02*
X1844444D01*
X1831417Y1705782D02*
X1844303D01*
X1826302Y1724682D02*
X1843714D01*
X1825327Y1728282D02*
X1843617D01*
X1826611Y1725582D02*
X1843141D01*
X1826246Y1727382D02*
X1843103D01*
X1832142Y1704882D02*
X1842991D01*
X1826595Y1726482D02*
X1842965D01*
X1836642Y1700382D02*
X1841715D01*
X1833042Y1703982D02*
X1841529D01*
X1835742Y1701282D02*
X1841112D01*
X1833942Y1703082D02*
X1841040D01*
X1834719Y1712082D02*
X1840922D01*
X1834842Y1702182D02*
X1840919D01*
X1838443Y1715682D02*
X1840894D01*
X1829926Y1712982D02*
X1840371D01*
X1838205Y1714782D02*
X1840360D01*
X1837523Y1713882D02*
X1840209D01*
X1830357Y1723782D02*
X1839643D01*
X1831647Y1719282D02*
X1839403D01*
X1831307Y1722882D02*
X1838693D01*
X1831411Y1720182D02*
X1838604D01*
X1831668Y1721982D02*
X1838332D01*
X1831694Y1721082D02*
X1838306D01*
X1831706Y1718382D02*
X1834803D01*
X1829013Y1713882D02*
X1834052D01*
X1831445Y1717482D02*
X1833638D01*
X1828113Y1714782D02*
X1833370D01*
X1830723Y1716582D02*
X1833209D01*
X1827381Y1715682D02*
X1833131D01*
X1825478Y1723782D02*
X1827753D01*
X1802814Y1722882D02*
X1826803D01*
X1803714Y1721982D02*
X1826442D01*
X1804614Y1721082D02*
X1826218D01*
X1805514Y1720182D02*
X1823383D01*
X1821937Y1716582D02*
X1823194D01*
X1806414Y1719282D02*
X1822819D01*
X1821660Y1717482D02*
X1822794D01*
X1820904Y1718382D02*
X1822650D01*
X1801342Y1728282D02*
X1822626D01*
X1801914Y1723782D02*
X1822475D01*
X1801342Y1730082D02*
X1821762D01*
X1801342Y1727382D02*
X1821707D01*
X1801342Y1724682D02*
X1821651D01*
X1801342Y1726482D02*
X1821358D01*
X1801342Y1725582D02*
X1821341D01*
X1801342Y1730982D02*
X1820862D01*
X1801342Y1731882D02*
X1819962D01*
X1801342Y1732782D02*
X1819062D01*
X1801342Y1733682D02*
X1818162D01*
X1807314Y1718382D02*
X1817679D01*
X1801342Y1764282D02*
X1817446D01*
X1801342Y1763382D02*
X1817446D01*
X1801342Y1762482D02*
X1817446D01*
X1801342Y1761582D02*
X1817446D01*
X1801342Y1760682D02*
X1817446D01*
X1801342Y1759782D02*
X1817446D01*
X1801342Y1758882D02*
X1817446D01*
X1801342Y1757982D02*
X1817446D01*
X1801342Y1757082D02*
X1817446D01*
X1801342Y1756182D02*
X1817446D01*
X1801342Y1755282D02*
X1817446D01*
X1801342Y1754382D02*
X1817446D01*
X1801342Y1753482D02*
X1817446D01*
X1801342Y1752582D02*
X1817446D01*
X1801342Y1751682D02*
X1817446D01*
X1801342Y1750782D02*
X1817446D01*
X1801342Y1749882D02*
X1817446D01*
X1801342Y1748982D02*
X1817446D01*
X1801342Y1748082D02*
X1817446D01*
X1801342Y1747182D02*
X1817446D01*
X1801342Y1746282D02*
X1817446D01*
X1801342Y1745382D02*
X1817446D01*
X1801342Y1744482D02*
X1817446D01*
X1801342Y1743582D02*
X1817446D01*
X1801342Y1742682D02*
X1817446D01*
X1806881Y1741782D02*
X1817446D01*
X1807618Y1740882D02*
X1817446D01*
X1807885Y1739982D02*
X1817446D01*
X1807833Y1739082D02*
X1817446D01*
X1807438Y1738182D02*
X1817446D01*
X1806390Y1737282D02*
X1817446D01*
X1801342Y1736382D02*
X1817446D01*
X1801342Y1735482D02*
X1817446D01*
X1801342Y1734582D02*
X1817446D01*
X1801342Y1770582D02*
X1817143D01*
X1808214Y1717482D02*
X1816923D01*
X1809114Y1716582D02*
X1816646D01*
X1801350Y1771482D02*
X1816444D01*
X1801342Y1765182D02*
X1814634D01*
X1801342Y1769682D02*
X1814482D01*
X1801342Y1766082D02*
X1813715D01*
X1801342Y1768782D02*
X1813659D01*
X1801342Y1766982D02*
X1813366D01*
X1801342Y1767882D02*
X1813349D01*
X1801342Y1737282D02*
X1804083D01*
X1801342Y1741782D02*
X1803591D01*
X1801342Y1738182D02*
X1803035D01*
X1801342Y1740882D02*
X1802855D01*
X1801342Y1739082D02*
X1802640D01*
X1801342Y1739982D02*
X1802587D01*
X1903840Y1709539D02*
X1905861D01*
X1899160Y1708639D02*
X1905861D01*
X1892763Y1707739D02*
X1905861D01*
X1894600Y1706839D02*
X1905861D01*
X1895121Y1705939D02*
X1905861D01*
X1895264Y1705039D02*
X1905861D01*
X1895093Y1704139D02*
X1905861D01*
X1894528Y1703239D02*
X1905861D01*
X1894726Y1702339D02*
X1905861D01*
X1903244Y1701439D02*
X1905861D01*
X1904541Y1700539D02*
X1905861D01*
X1904464Y1696939D02*
X1905861D01*
X1904697Y1696039D02*
X1905861D01*
X1904642Y1695139D02*
X1905861D01*
X1904244Y1694239D02*
X1905861D01*
X1903188Y1693339D02*
X1905861D01*
X1876955Y1692439D02*
X1905861D01*
X1875966Y1691539D02*
X1905861D01*
X1874940Y1690639D02*
X1905861D01*
X1874010Y1689739D02*
X1905861D01*
X1872587Y1688839D02*
X1905861D01*
X1872587Y1687939D02*
X1905861D01*
X1904887Y1697839D02*
X1905833D01*
X1872587Y1687039D02*
X1905602D01*
X1905223Y1699639D02*
X1905499D01*
X1872587Y1686139D02*
X1904702D01*
X1886227Y1714939D02*
X1904545D01*
X1886296Y1715839D02*
X1904251D01*
X1900043Y1709539D02*
X1902931D01*
X1895144Y1701439D02*
X1901637D01*
X1885944Y1714039D02*
X1901490D01*
X1900385Y1710439D02*
X1901355D01*
X1877331Y1693339D02*
X1900907D01*
X1899204Y1713139D02*
X1900905D01*
X1895213Y1700539D02*
X1900341D01*
X1895074Y1697839D02*
X1899994D01*
X1894964Y1699639D02*
X1899881D01*
X1893132Y1694239D02*
X1899850D01*
X1894568Y1698739D02*
X1899780D01*
X1895262Y1696939D02*
X1899663D01*
X1894642Y1695139D02*
X1899452D01*
X1895137Y1696039D02*
X1899398D01*
X1879146Y1708639D02*
X1896347D01*
X1885176Y1713139D02*
X1896303D01*
X1879531Y1709539D02*
X1895464D01*
X1878767Y1712239D02*
X1895447D01*
X1879575Y1710439D02*
X1895129D01*
X1879298Y1711339D02*
X1895124D01*
X1878131Y1707739D02*
X1892434D01*
X1889243Y1694239D02*
X1892065D01*
X1885352D02*
X1887844D01*
X1877368D02*
X1883467D01*
X1877503Y1706839D02*
X1882520D01*
X1876789Y1703239D02*
X1882448D01*
X1874161Y1698739D02*
X1882429D01*
X1876291Y1702339D02*
X1882332D01*
X1877083Y1695139D02*
X1882273D01*
X1880004Y1713139D02*
X1881989D01*
X1874161Y1697839D02*
X1881985D01*
X1877284Y1705939D02*
X1881954D01*
X1874161Y1699639D02*
X1881951D01*
X1876916Y1704139D02*
X1881926D01*
X1874762Y1701439D02*
X1881858D01*
X1876311Y1696039D02*
X1881836D01*
X1876780Y1705039D02*
X1881784D01*
X1874177Y1696939D02*
X1881752D01*
X1874161Y1700539D02*
X1881747D01*
X1872587Y1685239D02*
X1880370D01*
X1872587Y1684339D02*
X1879470D01*
X1872587Y1683439D02*
X1878729D01*
X1872587Y1682539D02*
X1878729D01*
X1872587Y1681639D02*
X1878729D01*
X1872629Y1680739D02*
X1878710D01*
X1800534Y1601873D02*
X1927155D01*
X1899720Y1600973D02*
X1927155D01*
X1900944Y1600073D02*
X1927155D01*
X1901388Y1599173D02*
X1927155D01*
X1901477Y1598273D02*
X1927155D01*
X1901251Y1597373D02*
X1927155D01*
X1900590Y1596473D02*
X1927155D01*
X1854508Y1595573D02*
X1927155D01*
X1855408Y1594673D02*
X1927155D01*
X1856308Y1593773D02*
X1927155D01*
X1903297Y1592873D02*
X1927155D01*
X1903916Y1591973D02*
X1927155D01*
X1904119Y1591073D02*
X1927155D01*
X1904008Y1590173D02*
X1927155D01*
X1903533Y1589273D02*
X1927155D01*
X1902730Y1588373D02*
X1927155D01*
X1903337Y1587473D02*
X1927155D01*
X1903762Y1586573D02*
X1927155D01*
X1903836Y1585673D02*
X1927155D01*
X1903594Y1584773D02*
X1927155D01*
X1902926Y1583873D02*
X1927155D01*
X1903310Y1582973D02*
X1927155D01*
X1799632Y1602773D02*
X1926972D01*
X1798731Y1603673D02*
X1920797D01*
X1797829Y1604573D02*
X1919897D01*
X1893914Y1588373D02*
X1899886D01*
X1894101Y1582973D02*
X1899756D01*
X1892397Y1592873D02*
X1899616D01*
X1866203Y1583873D02*
X1899457D01*
X1894493Y1589273D02*
X1899381D01*
X1862604Y1587473D02*
X1899025D01*
X1894030Y1591973D02*
X1898998D01*
X1894673Y1590173D02*
X1898906D01*
X1894538Y1591073D02*
X1898794D01*
X1865303Y1584773D02*
X1898768D01*
X1863504Y1586573D02*
X1898601D01*
X1864404Y1585673D02*
X1898526D01*
X1801436Y1600973D02*
X1897918D01*
X1853609Y1596473D02*
X1897047D01*
X1802338Y1600073D02*
X1896694D01*
X1852709Y1597373D02*
X1896387D01*
X1803240Y1599173D02*
X1896249D01*
X1851810Y1598273D02*
X1896160D01*
X1857207Y1592873D02*
X1891619D01*
X1867102Y1582973D02*
X1890466D01*
X1861705Y1588373D02*
X1890102D01*
X1858107Y1591973D02*
X1889986D01*
X1860805Y1589273D02*
X1889523D01*
X1859006Y1591073D02*
X1889477D01*
X1859906Y1590173D02*
X1889343D01*
X1859345Y1605473D02*
X1880574D01*
X1860044Y1606373D02*
X1879674D01*
X1860292Y1607273D02*
X1878774D01*
X1860222Y1608173D02*
X1877874D01*
X1859804Y1609073D02*
X1876974D01*
X1858680Y1609973D02*
X1876074D01*
X1852258Y1610873D02*
X1875174D01*
X1851022Y1611773D02*
X1874274D01*
X1843264Y1612673D02*
X1873374D01*
X1842364Y1613573D02*
X1872474D01*
X1841464Y1614473D02*
X1871574D01*
X1840564Y1615373D02*
X1870674D01*
X1839735Y1616273D02*
X1869774D01*
X1839708Y1617173D02*
X1868874D01*
X1839708Y1618073D02*
X1867974D01*
X1839708Y1618973D02*
X1867074D01*
X1839708Y1619873D02*
X1866174D01*
X1839708Y1620773D02*
X1865274D01*
X1839907Y1621673D02*
X1864374D01*
X1853768Y1609973D02*
X1856596D01*
X1854297Y1605473D02*
X1855930D01*
X1854864Y1609073D02*
X1855443D01*
X1849435Y1605473D02*
X1850979D01*
X1796927D02*
X1842677D01*
X1796025Y1606373D02*
X1841468D01*
X1834822Y1607273D02*
X1840568D01*
X1835400Y1608173D02*
X1839668D01*
X1835776Y1609073D02*
X1838768D01*
X1836218Y1609973D02*
X1837868D01*
X1829428Y1607273D02*
X1831005D01*
X1820571Y1617173D02*
X1828756D01*
X1821517Y1612673D02*
X1828267D01*
X1821835Y1616273D02*
X1828196D01*
X1815078Y1618073D02*
X1827989D01*
X1781679Y1620773D02*
X1827820D01*
X1822164Y1613573D02*
X1827819D01*
X1821194Y1621673D02*
X1827786D01*
X1822289Y1615373D02*
X1827723D01*
X1822384Y1614473D02*
X1827614D01*
X1814471Y1618973D02*
X1827598D01*
X1813430Y1619873D02*
X1827549D01*
X1813090Y1611773D02*
X1827147D01*
X1791515Y1610873D02*
X1822067D01*
X1795123Y1607273D02*
X1822034D01*
X1792417Y1609973D02*
X1821513D01*
X1794221Y1608173D02*
X1821501D01*
X1793319Y1609073D02*
X1821350D01*
X1815432Y1617173D02*
X1818878D01*
X1781658Y1621673D02*
X1818256D01*
X1814292Y1612673D02*
X1817932D01*
X1815589Y1616273D02*
X1817614D01*
X1781658Y1625273D02*
X1817419D01*
X1781658Y1622573D02*
X1817411D01*
X1814971Y1613573D02*
X1817284D01*
X1815570Y1615373D02*
X1817160D01*
X1781658Y1624373D02*
X1817102D01*
X1781658Y1623473D02*
X1817093D01*
X1815373Y1614473D02*
X1817065D01*
X1781658Y1626173D02*
X1816857D01*
X1781658Y1627073D02*
X1815956D01*
X1781658Y1627973D02*
X1815056D01*
X1781658Y1628873D02*
X1814155D01*
X1781658Y1629773D02*
X1813254D01*
X1781658Y1630673D02*
X1812353D01*
X1781658Y1631573D02*
X1811452D01*
X1781658Y1632473D02*
X1810551D01*
X1781658Y1633373D02*
X1809651D01*
X1790613Y1611773D02*
X1808752D01*
X1781658Y1634273D02*
X1808750D01*
X1782496Y1619873D02*
X1808412D01*
X1781658Y1635173D02*
X1807849D01*
X1789711Y1612673D02*
X1807550D01*
X1783398Y1618973D02*
X1807372D01*
X1781658Y1636073D02*
X1806948D01*
X1788810Y1613573D02*
X1806871D01*
X1784300Y1618073D02*
X1806764D01*
X1787908Y1614473D02*
X1806470D01*
X1785202Y1617173D02*
X1806410D01*
X1787006Y1615373D02*
X1806272D01*
X1786104Y1616273D02*
X1806253D01*
X1781658Y1636973D02*
X1806047D01*
X1781658Y1637873D02*
X1805146D01*
X1781658Y1638773D02*
X1804245D01*
X1781658Y1639673D02*
X1803345D01*
X1781658Y1640573D02*
X1802444D01*
X1781658Y1641473D02*
X1801543D01*
X1781658Y1642373D02*
X1800642D01*
X1781658Y1643273D02*
X1799741D01*
X1781658Y1644173D02*
X1798840D01*
X1781658Y1645073D02*
X1797940D01*
X1782183Y1645973D02*
X1797039D01*
X1831114Y1691058D02*
X1833983D01*
X1830460Y1690158D02*
X1833983D01*
X1829949Y1689258D02*
X1833983D01*
X1829949Y1688358D02*
X1833983D01*
X1829949Y1687458D02*
X1833983D01*
X1829949Y1686558D02*
X1833983D01*
X1829949Y1685658D02*
X1833983D01*
X1829949Y1684758D02*
X1833983D01*
X1829949Y1683858D02*
X1833983D01*
X1829949Y1676658D02*
X1833983D01*
X1829949Y1675758D02*
X1833983D01*
X1829949Y1674858D02*
X1833983D01*
X1829949Y1673958D02*
X1833983D01*
X1829949Y1673058D02*
X1833983D01*
X1829949Y1672158D02*
X1833983D01*
X1829949Y1671258D02*
X1833983D01*
X1829949Y1670358D02*
X1833983D01*
X1829949Y1669458D02*
X1833983D01*
X1829949Y1668558D02*
X1833983D01*
X1829949Y1667658D02*
X1833983D01*
X1829949Y1666758D02*
X1833983D01*
X1829949Y1665858D02*
X1833983D01*
X1829949Y1664958D02*
X1833983D01*
X1829949Y1664058D02*
X1833983D01*
X1829949Y1663158D02*
X1833983D01*
X1829949Y1662258D02*
X1833983D01*
X1829949Y1661358D02*
X1833983D01*
X1829949Y1660458D02*
X1833983D01*
X1829949Y1659558D02*
X1833983D01*
X1829949Y1658658D02*
X1833983D01*
X1829949Y1657758D02*
X1833983D01*
X1829949Y1656858D02*
X1833983D01*
X1829949Y1655958D02*
X1833983D01*
X1829949Y1655058D02*
X1833983D01*
X1829949Y1654158D02*
X1833983D01*
X1830409Y1653258D02*
X1833983D01*
X1831309Y1652358D02*
X1833983D01*
X1832209Y1651458D02*
X1833983D01*
X1829949Y1682958D02*
X1833982D01*
X1833008Y1691958D02*
X1833933D01*
X1833109Y1650558D02*
X1833856D01*
X1829949Y1677558D02*
X1832407D01*
X1829949Y1682058D02*
X1832297D01*
X1829949Y1678458D02*
X1831502D01*
X1829949Y1681158D02*
X1831461D01*
X1829949Y1679358D02*
X1831159D01*
X1829949Y1680258D02*
X1831147D01*
X1863846Y1761258D02*
X1866468D01*
X1862938Y1760358D02*
X1866468D01*
X1862038Y1759458D02*
X1866468D01*
X1861138Y1758558D02*
X1866468D01*
X1860238Y1757658D02*
X1866468D01*
X1859338Y1756758D02*
X1866468D01*
X1858738Y1755858D02*
X1866468D01*
X1858738Y1754958D02*
X1866468D01*
X1858738Y1754058D02*
X1866468D01*
X1858738Y1753158D02*
X1866468D01*
X1858738Y1752258D02*
X1866468D01*
X1858738Y1751358D02*
X1866468D01*
X1858738Y1750458D02*
X1866468D01*
X1858738Y1749558D02*
X1866468D01*
X1858738Y1748658D02*
X1866468D01*
X1858738Y1747758D02*
X1866468D01*
X1858738Y1746858D02*
X1866468D01*
X1865570Y1762158D02*
X1866364D01*
X1858738Y1745958D02*
X1866128D01*
X1858738Y1745058D02*
X1863891D01*
X1858738Y1744158D02*
X1863354D01*
X1858738Y1743258D02*
X1862922D01*
X1858738Y1742358D02*
X1862022D01*
X1858738Y1741458D02*
X1861122D01*
X1858738Y1740558D02*
X1860222D01*
X1865190Y1739658D02*
X1866468D01*
X1864290Y1738758D02*
X1866468D01*
X1863390Y1737858D02*
X1866468D01*
X1862584Y1736958D02*
X1866468D01*
X1862567Y1736058D02*
X1866468D01*
X1862567Y1735158D02*
X1866468D01*
X1862567Y1734258D02*
X1866468D01*
X1862567Y1733358D02*
X1866468D01*
X1862567Y1732458D02*
X1866468D01*
X1862567Y1731558D02*
X1866468D01*
X1862567Y1730658D02*
X1866468D01*
X1862567Y1729758D02*
X1866468D01*
X1862567Y1728858D02*
X1866468D01*
X1862567Y1727958D02*
X1866468D01*
X1862567Y1727058D02*
X1866468D01*
X1862567Y1726158D02*
X1866468D01*
X1862567Y1725258D02*
X1866468D01*
X1862567Y1724358D02*
X1866468D01*
X1862567Y1723458D02*
X1866468D01*
X1862567Y1722558D02*
X1866468D01*
X1862567Y1721658D02*
X1866468D01*
X1862567Y1720758D02*
X1866468D01*
X1862567Y1719858D02*
X1866468D01*
X1862567Y1718958D02*
X1866468D01*
X1862567Y1718058D02*
X1866468D01*
X1862567Y1717158D02*
X1866468D01*
X1865682Y1716258D02*
X1866203D01*
X1862567D02*
X1864476D01*
X1862567Y1703658D02*
X1863714D01*
X1862662Y1704558D02*
X1863471D01*
X1881774Y1607358D02*
X1916865D01*
X1880874Y1608258D02*
X1916213D01*
X1879974Y1609158D02*
X1915313D01*
X1879074Y1610058D02*
X1914413D01*
X1878174Y1610958D02*
X1913513D01*
X1877274Y1611858D02*
X1912613D01*
X1876374Y1612758D02*
X1911713D01*
X1875474Y1613658D02*
X1910813D01*
X1874574Y1614558D02*
X1909913D01*
X1873674Y1615458D02*
X1909013D01*
X1872774Y1616358D02*
X1908113D01*
X1871874Y1617258D02*
X1907213D01*
X1870974Y1618158D02*
X1906313D01*
X1870074Y1619058D02*
X1905413D01*
X1869174Y1619958D02*
X1904513D01*
X1868274Y1620858D02*
X1903613D01*
X1867374Y1621758D02*
X1902713D01*
X1866474Y1622658D02*
X1901813D01*
X1865544Y1623558D02*
X1900913D01*
X1839708Y1624458D02*
X1900013D01*
X1839708Y1625358D02*
X1899113D01*
X1839708Y1626258D02*
X1898213D01*
X1839708Y1627158D02*
X1897313D01*
X1839708Y1628058D02*
X1896413D01*
X1839708Y1628958D02*
X1895513D01*
X1839708Y1629858D02*
X1894613D01*
X1839708Y1630758D02*
X1893713D01*
X1839708Y1631658D02*
X1892813D01*
X1839708Y1632558D02*
X1891913D01*
X1839708Y1633458D02*
X1891013D01*
X1839708Y1634358D02*
X1890113D01*
X1839708Y1635258D02*
X1889213D01*
X1839708Y1636158D02*
X1888313D01*
X1839708Y1637058D02*
X1887413D01*
X1839708Y1637958D02*
X1886513D01*
X1839708Y1638858D02*
X1885613D01*
X1839708Y1639758D02*
X1884713D01*
X1839708Y1640658D02*
X1883813D01*
X1839708Y1641558D02*
X1882913D01*
X1839708Y1642458D02*
X1882013D01*
X1839708Y1643358D02*
X1881113D01*
X1839708Y1644258D02*
X1880213D01*
X1839708Y1645158D02*
X1879313D01*
X1839708Y1646058D02*
X1878413D01*
X1839708Y1646958D02*
X1877513D01*
X1839708Y1647858D02*
X1876613D01*
X1839708Y1648758D02*
X1875713D01*
X1839708Y1649658D02*
X1874813D01*
X1839708Y1650558D02*
X1873913D01*
X1839708Y1651458D02*
X1873013D01*
X1839708Y1652358D02*
X1872113D01*
X1839708Y1653258D02*
X1871213D01*
X1840019Y1654158D02*
X1870313D01*
X1857797Y1655058D02*
X1869413D01*
X1858696Y1655958D02*
X1868513D01*
X1859341Y1656858D02*
X1867613D01*
X1859495Y1657758D02*
X1866713D01*
X1860163Y1699158D02*
X1866468D01*
X1859495Y1698258D02*
X1866468D01*
X1859495Y1697358D02*
X1866468D01*
X1859495Y1696458D02*
X1866468D01*
X1859495Y1658658D02*
X1865813D01*
X1859495Y1659558D02*
X1864913D01*
X1861063Y1700058D02*
X1864619D01*
X1859495Y1695558D02*
X1864399D01*
X1859495Y1660458D02*
X1864080D01*
X1859495Y1661358D02*
X1863764D01*
X1859495Y1691058D02*
X1863752D01*
X1859495Y1690158D02*
X1863752D01*
X1859495Y1689258D02*
X1863752D01*
X1859495Y1688358D02*
X1863752D01*
X1859495Y1687458D02*
X1863752D01*
X1859495Y1686558D02*
X1863752D01*
X1859495Y1685658D02*
X1863752D01*
X1859495Y1684758D02*
X1863752D01*
X1859495Y1683858D02*
X1863752D01*
X1859495Y1682958D02*
X1863752D01*
X1859495Y1682058D02*
X1863752D01*
X1859495Y1681158D02*
X1863752D01*
X1859495Y1680258D02*
X1863752D01*
X1859495Y1679358D02*
X1863752D01*
X1859495Y1678458D02*
X1863752D01*
X1859495Y1677558D02*
X1863752D01*
X1859495Y1676658D02*
X1863752D01*
X1860947Y1675758D02*
X1863752D01*
X1862189Y1674858D02*
X1863752D01*
X1862638Y1673958D02*
X1863752D01*
X1862730Y1673058D02*
X1863752D01*
X1862522Y1672158D02*
X1863752D01*
X1862690Y1671258D02*
X1863752D01*
X1862618Y1670358D02*
X1863752D01*
X1862197Y1669458D02*
X1863752D01*
X1861063Y1668558D02*
X1863752D01*
X1859495Y1667658D02*
X1863752D01*
X1859495Y1666758D02*
X1863752D01*
X1859495Y1665858D02*
X1863752D01*
X1859495Y1664958D02*
X1863752D01*
X1859495Y1664058D02*
X1863752D01*
X1859495Y1663158D02*
X1863752D01*
X1859495Y1662258D02*
X1863752D01*
X1861963Y1700958D02*
X1863734D01*
X1859495Y1694658D02*
X1863529D01*
X1859495Y1691958D02*
X1863528D01*
X1862500Y1701858D02*
X1863376D01*
X1859495Y1693758D02*
X1863200D01*
X1859495Y1692858D02*
X1863200D01*
X1772154Y1800858D02*
X1968004D01*
X1772154Y1799958D02*
X1968004D01*
X1956120Y1799058D02*
X1968004D01*
X1956793Y1798158D02*
X1968004D01*
X1957027Y1797258D02*
X1968004D01*
X1956945Y1796358D02*
X1968004D01*
X1956510Y1795458D02*
X1968004D01*
X1955322Y1794558D02*
X1968004D01*
X1936755Y1793658D02*
X1968004D01*
X1935810Y1792758D02*
X1968004D01*
X1934910Y1791858D02*
X1968004D01*
X1934010Y1790958D02*
X1968004D01*
X1933110Y1790058D02*
X1968004D01*
X1932210Y1789158D02*
X1968004D01*
X1937747Y1788258D02*
X1968004D01*
X1938835Y1787358D02*
X1968004D01*
X1939243Y1786458D02*
X1968004D01*
X1939305Y1785558D02*
X1968004D01*
X1939049Y1784658D02*
X1968004D01*
X1938334Y1783758D02*
X1968004D01*
X1925910Y1782858D02*
X1968004D01*
X1925010Y1781958D02*
X1968004D01*
X1924110Y1781058D02*
X1968004D01*
X1923210Y1780158D02*
X1968004D01*
X1922310Y1779258D02*
X1968004D01*
X1921410Y1778358D02*
X1968004D01*
X1920510Y1777458D02*
X1968004D01*
X1919610Y1776558D02*
X1968004D01*
X1918710Y1775658D02*
X1968004D01*
X1917810Y1774758D02*
X1968004D01*
X1916910Y1773858D02*
X1968004D01*
X1939809Y1772958D02*
X1968004D01*
X1940477Y1772058D02*
X1968004D01*
X1940756Y1771158D02*
X1968004D01*
X1940788Y1770258D02*
X1968004D01*
X1956367Y1769358D02*
X1968004D01*
X1958178Y1768458D02*
X1968004D01*
X1959145Y1767558D02*
X1968004D01*
X1959777Y1766658D02*
X1968004D01*
X1960193Y1765758D02*
X1968004D01*
X1960439Y1764858D02*
X1968004D01*
X1960537Y1763958D02*
X1968004D01*
X1960494Y1763058D02*
X1968004D01*
X1960309Y1762158D02*
X1968004D01*
X1959964Y1761258D02*
X1968004D01*
X1959426Y1760358D02*
X1968004D01*
X1958615Y1759458D02*
X1968004D01*
X1957283Y1758558D02*
X1968004D01*
X1956145Y1757658D02*
X1968004D01*
X1956801Y1756758D02*
X1968004D01*
X1957120Y1755858D02*
X1968004D01*
X1957111Y1754958D02*
X1968004D01*
X1956771Y1754058D02*
X1968004D01*
X1955876Y1753158D02*
X1968004D01*
X1937154Y1752258D02*
X1968004D01*
X1937154Y1751358D02*
X1968004D01*
X1937154Y1750458D02*
X1968004D01*
X1963306Y1749558D02*
X1968004D01*
X1963919Y1748658D02*
X1968004D01*
X1964119Y1747758D02*
X1968004D01*
X1964005Y1746858D02*
X1968004D01*
X1963526Y1745958D02*
X1968004D01*
X1962125Y1745058D02*
X1968004D01*
X1937154Y1744158D02*
X1968004D01*
X1937154Y1743258D02*
X1968004D01*
X1937154Y1742358D02*
X1968004D01*
X1937154Y1741458D02*
X1968004D01*
X1955877Y1740558D02*
X1968004D01*
X1956747Y1739658D02*
X1968004D01*
X1957076Y1738758D02*
X1968004D01*
X1957076Y1737858D02*
X1968004D01*
X1956747Y1736958D02*
X1968004D01*
X1955879Y1736058D02*
X1968004D01*
X1955509Y1735158D02*
X1968004D01*
X1956407Y1734258D02*
X1968004D01*
X1957307Y1733358D02*
X1968004D01*
X1958207Y1732458D02*
X1968004D01*
X1959107Y1731558D02*
X1968004D01*
X1960007Y1730658D02*
X1968004D01*
X1960907Y1729758D02*
X1968004D01*
X1961807Y1728858D02*
X1968004D01*
X1962707Y1727958D02*
X1968004D01*
X1963607Y1727058D02*
X1968004D01*
X1964507Y1726158D02*
X1968004D01*
X1965407Y1725258D02*
X1968004D01*
X1966307Y1724358D02*
X1968004D01*
X1966160Y1602858D02*
X1968004D01*
X1965260Y1601958D02*
X1968004D01*
X1964360Y1601058D02*
X1968004D01*
X1963540Y1600158D02*
X1968004D01*
X1963517Y1599258D02*
X1968004D01*
X1963517Y1598358D02*
X1968004D01*
X1963333Y1597458D02*
X1968004D01*
X1962411Y1596558D02*
X1968004D01*
X1946982Y1595658D02*
X1968004D01*
X1946988Y1594758D02*
X1968004D01*
X1947607Y1593858D02*
X1968004D01*
X1947953Y1592958D02*
X1968004D01*
X1948008Y1592058D02*
X1968004D01*
X1947834Y1591158D02*
X1968004D01*
X1947834Y1590258D02*
X1968004D01*
X1947912Y1589358D02*
X1968004D01*
X1955357Y1588458D02*
X1968004D01*
X1957886Y1587558D02*
X1968004D01*
X1958963Y1586658D02*
X1968004D01*
X1959656Y1585758D02*
X1968004D01*
X1960115Y1584858D02*
X1968004D01*
X1960397Y1583958D02*
X1968004D01*
X1960527Y1583058D02*
X1968004D01*
X1960516Y1582158D02*
X1968004D01*
X1960363Y1581258D02*
X1968004D01*
X1960057Y1580358D02*
X1967991D01*
X1772190Y1801758D02*
X1967968D01*
X1967060Y1603758D02*
X1967929D01*
X1967157Y1723458D02*
X1967851D01*
X1959567Y1579458D02*
X1967831D01*
X1772396Y1802658D02*
X1967762D01*
X1958828Y1578558D02*
X1967472D01*
X1772812Y1803558D02*
X1967345D01*
X1957660Y1577658D02*
X1966853D01*
X1773517Y1804458D02*
X1966640D01*
X1955936Y1576758D02*
X1965777D01*
X1774801Y1805358D02*
X1965356D01*
X1930160Y1625358D02*
X1961883D01*
X1929858Y1624458D02*
X1961883D01*
X1929050Y1623558D02*
X1961883D01*
X1912692Y1622658D02*
X1961883D01*
X1913592Y1621758D02*
X1961883D01*
X1914492Y1620858D02*
X1961883D01*
X1915392Y1619958D02*
X1961883D01*
X1916292Y1619058D02*
X1961883D01*
X1951927Y1618158D02*
X1961883D01*
X1952984Y1617258D02*
X1961883D01*
X1953382Y1616358D02*
X1961883D01*
X1953437Y1615458D02*
X1961883D01*
X1953172Y1614558D02*
X1961883D01*
X1952441Y1613658D02*
X1961883D01*
X1946047Y1612758D02*
X1961883D01*
X1945833Y1611858D02*
X1961883D01*
X1945197Y1610958D02*
X1961883D01*
X1934864Y1610058D02*
X1961883D01*
X1935764Y1609158D02*
X1961883D01*
X1936664Y1608258D02*
X1961883D01*
X1937564Y1607358D02*
X1961876D01*
X1949605Y1626258D02*
X1961830D01*
X1938464Y1606458D02*
X1961108D01*
X1937154Y1745058D02*
X1960788D01*
X1939364Y1605558D02*
X1960208D01*
X1937154Y1749558D02*
X1959608D01*
X1937154Y1745958D02*
X1959388D01*
X1937154Y1748658D02*
X1958994D01*
X1937154Y1746858D02*
X1958908D01*
X1937154Y1747758D02*
X1958794D01*
X1950433Y1627158D02*
X1957394D01*
X1950835Y1628058D02*
X1956671D01*
X1946982Y1596558D02*
X1954276D01*
X1947903Y1588458D02*
X1954092D01*
X1786645Y1576758D02*
X1953513D01*
X1946982Y1597458D02*
X1953203D01*
X1951067Y1753158D02*
X1953100D01*
X1940788Y1769358D02*
X1953082D01*
X1945877Y1740558D02*
X1953021D01*
X1950645Y1757658D02*
X1952926D01*
X1879938Y1799058D02*
X1952620D01*
X1946918Y1598358D02*
X1952303D01*
X1939045Y1758558D02*
X1952166D01*
X1946747Y1739658D02*
X1952151D01*
X1940264Y1604658D02*
X1952094D01*
X1880804Y1798158D02*
X1951947D01*
X1947076Y1738758D02*
X1951822D01*
X1788369Y1577658D02*
X1951789D01*
X1947210Y1737858D02*
X1951688D01*
X1946452Y1599258D02*
X1951597D01*
X1947623Y1587558D02*
X1951563D01*
X1941164Y1603758D02*
X1951521D01*
X1942064Y1602858D02*
X1951449D01*
X1942964Y1601958D02*
X1951449D01*
X1943864Y1601058D02*
X1951449D01*
X1944550Y1600158D02*
X1951449D01*
X1940788Y1768458D02*
X1951271D01*
X1939944Y1759458D02*
X1950834D01*
X1902638Y1578558D02*
X1950620D01*
X1946922Y1586658D02*
X1950485D01*
X1940788Y1767558D02*
X1950304D01*
X1940538Y1760358D02*
X1950023D01*
X1903720Y1579458D02*
X1949882D01*
X1929337Y1585758D02*
X1949792D01*
X1940788Y1766658D02*
X1949672D01*
X1926211Y1618158D02*
X1949648D01*
X1940772Y1761258D02*
X1949485D01*
X1928324Y1580358D02*
X1949392D01*
X1929337Y1584858D02*
X1949334D01*
X1940788Y1765758D02*
X1949256D01*
X1940788Y1762158D02*
X1949140D01*
X1945945Y1613658D02*
X1949134D01*
X1929097Y1581258D02*
X1949085D01*
X1929337Y1583958D02*
X1949052D01*
X1940788Y1764858D02*
X1949010D01*
X1940788Y1763058D02*
X1948954D01*
X1929335Y1582158D02*
X1948933D01*
X1929337Y1583058D02*
X1948922D01*
X1940788Y1763958D02*
X1948912D01*
X1945211Y1617258D02*
X1948591D01*
X1945941Y1614558D02*
X1948403D01*
X1938145Y1757658D02*
X1948253D01*
X1945839Y1616358D02*
X1948193D01*
X1946047Y1615458D02*
X1948138D01*
X1937154Y1753158D02*
X1947831D01*
X1937253Y1756758D02*
X1947233D01*
X1937154Y1754058D02*
X1947078D01*
X1937154Y1755858D02*
X1946848D01*
X1937154Y1754958D02*
X1946802D01*
X1929320Y1630758D02*
X1946690D01*
X1930138Y1626258D02*
X1946616D01*
X1903692Y1631658D02*
X1946385D01*
X1929965Y1629858D02*
X1945838D01*
X1929809Y1627158D02*
X1945787D01*
X1930183Y1628958D02*
X1945491D01*
X1902792Y1632558D02*
X1945485D01*
X1930086Y1628058D02*
X1945476D01*
X1901892Y1633458D02*
X1944585D01*
X1908795Y1634358D02*
X1943685D01*
X1940666Y1740558D02*
X1943021D01*
X1909712Y1635258D02*
X1942785D01*
X1941423Y1739658D02*
X1942136D01*
X1910060Y1636158D02*
X1941885D01*
X1933964Y1610958D02*
X1941575D01*
X1927664Y1617258D02*
X1941561D01*
X1910076Y1637058D02*
X1940985D01*
X1933064Y1611858D02*
X1940938D01*
X1928564Y1616358D02*
X1940933D01*
X1930364Y1614558D02*
X1940830D01*
X1931264Y1613658D02*
X1940826D01*
X1932164Y1612758D02*
X1940725D01*
X1929464Y1615458D02*
X1940724D01*
X1909766Y1637958D02*
X1940085D01*
X1908940Y1638858D02*
X1939185D01*
X1929337Y1586658D02*
X1939034D01*
X1929337Y1596558D02*
X1938708D01*
X1929337Y1595658D02*
X1938708D01*
X1929337Y1594758D02*
X1938708D01*
X1929337Y1597458D02*
X1938697D01*
X1929337Y1593858D02*
X1938401D01*
X1895592Y1639758D02*
X1938285D01*
X1929337Y1587558D02*
X1938235D01*
X1929337Y1592958D02*
X1938023D01*
X1929337Y1588458D02*
X1937947D01*
X1929337Y1592058D02*
X1937938D01*
X1929337Y1591158D02*
X1937938D01*
X1929337Y1590258D02*
X1937938D01*
X1929337Y1589358D02*
X1937938D01*
X1929337Y1598358D02*
X1937912D01*
X1894692Y1640658D02*
X1937385D01*
X1929337Y1599258D02*
X1937012D01*
X1893792Y1641558D02*
X1936485D01*
X1929337Y1600158D02*
X1936112D01*
X1916010Y1772958D02*
X1935648D01*
X1931577Y1642458D02*
X1935585D01*
X1931310Y1788258D02*
X1935560D01*
X1929337Y1601058D02*
X1935212D01*
X1915110Y1772058D02*
X1934980D01*
X1926810Y1783758D02*
X1934973D01*
X1914210Y1771158D02*
X1934702D01*
X1932355Y1643358D02*
X1934685D01*
X1913310Y1770258D02*
X1934670D01*
X1912410Y1769358D02*
X1934670D01*
X1911510Y1768458D02*
X1934670D01*
X1910610Y1767558D02*
X1934670D01*
X1909710Y1766658D02*
X1934670D01*
X1908810Y1765758D02*
X1934670D01*
X1908788Y1764858D02*
X1934670D01*
X1909443Y1763958D02*
X1934670D01*
X1909667Y1763058D02*
X1934670D01*
X1930410Y1787358D02*
X1934472D01*
X1881132Y1797258D02*
X1934442D01*
X1929337Y1601958D02*
X1934312D01*
X1874161Y1730658D02*
X1934272D01*
X1927710Y1784658D02*
X1934258D01*
X1929510Y1786458D02*
X1934064D01*
X1928610Y1785558D02*
X1934002D01*
X1909575Y1762158D02*
X1933993D01*
X1932642Y1644258D02*
X1933785D01*
X1881130Y1796358D02*
X1933542D01*
X1932819Y1602858D02*
X1933403D01*
X1909127Y1761258D02*
X1933093D01*
X1874161Y1729758D02*
X1932872D01*
X1880800Y1795458D02*
X1932642D01*
X1907887Y1760358D02*
X1932193D01*
X1874161Y1728858D02*
X1931972D01*
X1879927Y1794558D02*
X1931742D01*
X1872587Y1759458D02*
X1931442D01*
X1925415Y1758558D02*
X1931100D01*
X1874161Y1727958D02*
X1931072D01*
X1926379Y1757658D02*
X1931035D01*
X1926745Y1756758D02*
X1931035D01*
X1926774Y1755858D02*
X1931035D01*
X1926481Y1754958D02*
X1931035D01*
X1925692Y1754058D02*
X1931035D01*
X1886442Y1753158D02*
X1931035D01*
X1884876Y1752258D02*
X1931035D01*
X1883819Y1751358D02*
X1931035D01*
X1882919Y1750458D02*
X1931035D01*
X1915634Y1749558D02*
X1931035D01*
X1916535Y1748658D02*
X1931035D01*
X1917435Y1747758D02*
X1931035D01*
X1918335Y1746858D02*
X1931035D01*
X1919235Y1745958D02*
X1931035D01*
X1920135Y1745058D02*
X1931035D01*
X1921035Y1744158D02*
X1931035D01*
X1921935Y1743258D02*
X1931035D01*
X1922835Y1742358D02*
X1931035D01*
X1923735Y1741458D02*
X1931035D01*
X1924635Y1740558D02*
X1931035D01*
X1925535Y1739658D02*
X1931035D01*
X1926435Y1738758D02*
X1931035D01*
X1927335Y1737858D02*
X1930936D01*
X1772154Y1793658D02*
X1930842D01*
X1874161Y1727058D02*
X1930172D01*
X1887492Y1647858D02*
X1930078D01*
X1772154Y1792758D02*
X1929942D01*
X1886592Y1648758D02*
X1929426D01*
X1874161Y1726158D02*
X1929418D01*
X1885692Y1649658D02*
X1929075D01*
X1874161Y1725258D02*
X1929073D01*
X1772154Y1791858D02*
X1929042D01*
X1874161Y1724358D02*
X1929006D01*
X1874161Y1723458D02*
X1929006D01*
X1874161Y1722558D02*
X1929006D01*
X1874161Y1721658D02*
X1929006D01*
X1918470Y1720758D02*
X1929006D01*
X1919270Y1719858D02*
X1929006D01*
X1919568Y1718958D02*
X1929006D01*
X1919542Y1718058D02*
X1929006D01*
X1919182Y1717158D02*
X1929006D01*
X1918232Y1716258D02*
X1929006D01*
X1907727Y1715358D02*
X1929006D01*
X1908030Y1714458D02*
X1929006D01*
X1908042Y1713558D02*
X1929006D01*
X1908042Y1712658D02*
X1929006D01*
X1908042Y1711758D02*
X1929006D01*
X1908042Y1710858D02*
X1929006D01*
X1908042Y1709958D02*
X1929006D01*
X1908042Y1709058D02*
X1929006D01*
X1908042Y1708158D02*
X1929006D01*
X1908042Y1707258D02*
X1929006D01*
X1908042Y1706358D02*
X1929006D01*
X1908042Y1705458D02*
X1929006D01*
X1908042Y1704558D02*
X1929006D01*
X1908042Y1703658D02*
X1929006D01*
X1908042Y1702758D02*
X1929006D01*
X1908042Y1701858D02*
X1929006D01*
X1908042Y1700958D02*
X1929006D01*
X1908042Y1700058D02*
X1929006D01*
X1917898Y1699158D02*
X1929006D01*
X1918711Y1698258D02*
X1929006D01*
X1919015Y1697358D02*
X1929006D01*
X1918994Y1696458D02*
X1929006D01*
X1918639Y1695558D02*
X1929006D01*
X1917706Y1694658D02*
X1929006D01*
X1908042Y1693758D02*
X1929006D01*
X1908042Y1692858D02*
X1929006D01*
X1908042Y1691958D02*
X1929006D01*
X1908042Y1691058D02*
X1929006D01*
X1905505Y1683858D02*
X1929006D01*
X1881173Y1682958D02*
X1929006D01*
X1880910Y1682058D02*
X1929006D01*
X1880910Y1681158D02*
X1929006D01*
X1880871Y1680258D02*
X1929006D01*
X1880473Y1679358D02*
X1929006D01*
X1879604Y1678458D02*
X1929006D01*
X1872750Y1677558D02*
X1929006D01*
X1872587Y1676658D02*
X1929006D01*
X1872587Y1675758D02*
X1929006D01*
X1872587Y1674858D02*
X1929006D01*
X1872587Y1673958D02*
X1929006D01*
X1872587Y1673058D02*
X1929006D01*
X1872587Y1672158D02*
X1929006D01*
X1872587Y1671258D02*
X1929006D01*
X1872587Y1670358D02*
X1929006D01*
X1872587Y1669458D02*
X1929006D01*
X1872587Y1668558D02*
X1929006D01*
X1872587Y1667658D02*
X1929006D01*
X1872587Y1666758D02*
X1929006D01*
X1872587Y1665858D02*
X1929006D01*
X1872587Y1664958D02*
X1929006D01*
X1872587Y1664058D02*
X1929006D01*
X1872587Y1663158D02*
X1929006D01*
X1873092Y1662258D02*
X1929006D01*
X1873992Y1661358D02*
X1929006D01*
X1918784Y1660458D02*
X1929006D01*
X1919633Y1659558D02*
X1929006D01*
X1919953Y1658658D02*
X1929006D01*
X1919946Y1657758D02*
X1929006D01*
X1919609Y1656858D02*
X1929006D01*
X1918719Y1655958D02*
X1929006D01*
X1913128Y1655058D02*
X1929006D01*
X1881192Y1654158D02*
X1929006D01*
X1882092Y1653258D02*
X1929006D01*
X1882992Y1652358D02*
X1929006D01*
X1883892Y1651458D02*
X1929006D01*
X1884792Y1650558D02*
X1929006D01*
X1908042Y1690158D02*
X1928955D01*
X1888392Y1646958D02*
X1928745D01*
X1892892Y1642458D02*
X1928423D01*
X1772154Y1790958D02*
X1928142D01*
X1889292Y1646058D02*
X1927764D01*
X1891992Y1643358D02*
X1927645D01*
X1890192Y1645158D02*
X1927392D01*
X1891092Y1644258D02*
X1927358D01*
X1772154Y1790058D02*
X1927242D01*
X1906405Y1684758D02*
X1927111D01*
X1772154Y1789158D02*
X1926342D01*
X1908042Y1689258D02*
X1926324D01*
X1920841Y1623558D02*
X1925995D01*
X1907305Y1685658D02*
X1925929D01*
X1874161Y1731558D02*
X1925924D01*
X1921064Y1630758D02*
X1925725D01*
X1908042Y1688358D02*
X1925649D01*
X1907913Y1686558D02*
X1925495D01*
X1772154Y1788258D02*
X1925442D01*
X1908042Y1687458D02*
X1925414D01*
X1921289Y1627158D02*
X1925236D01*
X1921520Y1624458D02*
X1925187D01*
X1921608Y1629858D02*
X1925081D01*
X1921610Y1628058D02*
X1924960D01*
X1921677Y1626258D02*
X1924908D01*
X1921757Y1625358D02*
X1924885D01*
X1921766Y1628958D02*
X1924863D01*
X1772154Y1787358D02*
X1924542D01*
X1874161Y1732458D02*
X1924082D01*
X1809556Y1786458D02*
X1923642D01*
X1878335Y1733358D02*
X1923182D01*
X1872587Y1758558D02*
X1922852D01*
X1810152Y1785558D02*
X1922742D01*
X1886944Y1754058D02*
X1922576D01*
X1879269Y1734258D02*
X1922282D01*
X1872587Y1757658D02*
X1921889D01*
X1810341Y1784658D02*
X1921842D01*
X1887074Y1754958D02*
X1921787D01*
X1886303Y1756758D02*
X1921523D01*
X1886890Y1755858D02*
X1921493D01*
X1879624Y1735158D02*
X1921382D01*
X1810217Y1783758D02*
X1920942D01*
X1879645Y1736058D02*
X1920482D01*
X1809722Y1782858D02*
X1920042D01*
X1879341Y1736958D02*
X1919582D01*
X1832160Y1781958D02*
X1919142D01*
X1878530Y1737858D02*
X1918682D01*
X1913837Y1781058D02*
X1918242D01*
X1876912Y1738758D02*
X1917782D01*
X1912022Y1623558D02*
X1917359D01*
X1915074Y1780158D02*
X1917342D01*
X1912032Y1630758D02*
X1917136D01*
X1912181Y1627158D02*
X1916912D01*
X1876691Y1739658D02*
X1916882D01*
X1912481Y1624458D02*
X1916681D01*
X1912576Y1629858D02*
X1916592D01*
X1912578Y1628058D02*
X1916591D01*
X1912558Y1626258D02*
X1916524D01*
X1912676Y1625358D02*
X1916444D01*
X1915532Y1779258D02*
X1916442D01*
X1912734Y1628958D02*
X1916435D01*
X1876042Y1740558D02*
X1915982D01*
X1914423Y1655958D02*
X1915927D01*
X1874892Y1660458D02*
X1915862D01*
X1906917Y1716258D02*
X1915626D01*
X1874161Y1720758D02*
X1915388D01*
X1874415Y1741458D02*
X1915082D01*
X1908042Y1694658D02*
X1915050D01*
X1914130Y1659558D02*
X1915013D01*
X1908042Y1699158D02*
X1914857D01*
X1906017Y1717158D02*
X1914677D01*
X1882058Y1719858D02*
X1914588D01*
X1904946Y1718058D02*
X1914316D01*
X1882978Y1718958D02*
X1914290D01*
X1874819Y1742358D02*
X1914182D01*
X1908042Y1695558D02*
X1914117D01*
X1908042Y1698258D02*
X1914045D01*
X1908042Y1696458D02*
X1913762D01*
X1908042Y1697358D02*
X1913741D01*
X1875719Y1743258D02*
X1913282D01*
X1772154Y1775658D02*
X1912483D01*
X1876619Y1744158D02*
X1912382D01*
X1833473Y1781058D02*
X1912068D01*
X1772154Y1774758D02*
X1911942D01*
X1880292Y1655058D02*
X1911517D01*
X1877519Y1745058D02*
X1911482D01*
X1882019Y1749558D02*
X1911374D01*
X1772154Y1776558D02*
X1911175D01*
X1827754Y1773858D02*
X1911042D01*
X1833936Y1780158D02*
X1910832D01*
X1878419Y1745958D02*
X1910786D01*
X1881119Y1748658D02*
X1910733D01*
X1833193Y1777458D02*
X1910519D01*
X1875792Y1659558D02*
X1910516D01*
X1879319Y1746858D02*
X1910487D01*
X1880219Y1747758D02*
X1910471D01*
X1834039Y1779258D02*
X1910385D01*
X1833827Y1778358D02*
X1910294D01*
X1879392Y1655958D02*
X1910222D01*
X1828657Y1772958D02*
X1910142D01*
X1876692Y1658658D02*
X1909877D01*
X1878492Y1656858D02*
X1909762D01*
X1877592Y1657758D02*
X1909662D01*
X1828999Y1772058D02*
X1909242D01*
X1829010Y1771158D02*
X1908342D01*
X1904592Y1630758D02*
X1908104D01*
X1905492Y1629858D02*
X1907560D01*
X1828695Y1770258D02*
X1907442D01*
X1906392Y1628958D02*
X1907371D01*
X1827857Y1769358D02*
X1906542D01*
X1896640Y1760358D02*
X1906129D01*
X1900992Y1634358D02*
X1906087D01*
X1896492Y1638858D02*
X1905942D01*
X1819627Y1768458D02*
X1905642D01*
X1900092Y1635258D02*
X1905170D01*
X1897392Y1637958D02*
X1905116D01*
X1904330Y1761258D02*
X1904851D01*
X1899192Y1636158D02*
X1904822D01*
X1898292Y1637058D02*
X1904806D01*
X1819627Y1767558D02*
X1904742D01*
X1819627Y1766658D02*
X1903842D01*
X1865605Y1765758D02*
X1902942D01*
X1896611Y1764858D02*
X1902042D01*
X1789537Y1578558D02*
X1900433D01*
X1790275Y1579458D02*
X1899351D01*
X1870980Y1764858D02*
X1893783D01*
X1872587Y1760358D02*
X1893754D01*
X1872007Y1763958D02*
X1892904D01*
X1872587Y1761258D02*
X1892893D01*
X1872454Y1763058D02*
X1892571D01*
X1872587Y1762158D02*
X1892568D01*
X1872587Y1756758D02*
X1882516D01*
X1872587Y1755858D02*
X1881929D01*
X1872587Y1754958D02*
X1881551D01*
X1872587Y1754058D02*
X1880651D01*
X1872587Y1753158D02*
X1879751D01*
X1874161Y1719858D02*
X1879359D01*
X1872587Y1752258D02*
X1878851D01*
X1874161Y1718958D02*
X1878440D01*
X1872587Y1751358D02*
X1877951D01*
X1873155Y1794558D02*
X1877080D01*
X1872917Y1799058D02*
X1877070D01*
X1872587Y1750458D02*
X1877051D01*
X1873955Y1795458D02*
X1876208D01*
X1873866Y1798158D02*
X1876204D01*
X1872587Y1749558D02*
X1876151D01*
X1874253Y1796358D02*
X1875877D01*
X1874227Y1797258D02*
X1875876D01*
X1874161Y1733358D02*
X1875681D01*
X1872587Y1748658D02*
X1875251D01*
X1872587Y1747758D02*
X1874351D01*
X1872723Y1746858D02*
X1873451D01*
X1772154Y1799058D02*
X1870311D01*
X1772154Y1794558D02*
X1870073D01*
X1772154Y1798158D02*
X1869362D01*
X1772154Y1795458D02*
X1869273D01*
X1772154Y1797258D02*
X1869001D01*
X1772154Y1796358D02*
X1868975D01*
X1866138Y1764858D02*
X1868075D01*
X1866529Y1763958D02*
X1866989D01*
X1790765Y1580358D02*
X1866655D01*
X1791072Y1581258D02*
X1865733D01*
X1791225Y1582158D02*
X1864833D01*
X1791236Y1583058D02*
X1863934D01*
X1791105Y1583958D02*
X1863034D01*
X1790824Y1584858D02*
X1862135D01*
X1819627Y1765758D02*
X1861639D01*
X1790365Y1585758D02*
X1861235D01*
X1819627Y1764858D02*
X1861107D01*
X1819627Y1763958D02*
X1860669D01*
X1789672Y1586658D02*
X1860336D01*
X1819627Y1763058D02*
X1859769D01*
X1788595Y1587558D02*
X1859436D01*
X1819627Y1762158D02*
X1858869D01*
X1786066Y1588458D02*
X1858537D01*
X1819627Y1761258D02*
X1857969D01*
X1772154Y1589358D02*
X1857637D01*
X1819627Y1760358D02*
X1857069D01*
X1772154Y1590258D02*
X1856737D01*
X1819627Y1759458D02*
X1856169D01*
X1772154Y1591158D02*
X1855838D01*
X1819627Y1758558D02*
X1855269D01*
X1772154Y1592058D02*
X1854938D01*
X1819627Y1757658D02*
X1854690D01*
X1819627Y1756758D02*
X1854588D01*
X1819627Y1755858D02*
X1854588D01*
X1819627Y1754958D02*
X1854588D01*
X1819627Y1754058D02*
X1854588D01*
X1819627Y1753158D02*
X1854588D01*
X1819627Y1752258D02*
X1854588D01*
X1819627Y1751358D02*
X1854588D01*
X1819627Y1750458D02*
X1854588D01*
X1819627Y1749558D02*
X1854588D01*
X1819627Y1748658D02*
X1854588D01*
X1819627Y1747758D02*
X1854588D01*
X1819627Y1746858D02*
X1854588D01*
X1819627Y1745958D02*
X1854588D01*
X1819627Y1745058D02*
X1854588D01*
X1819627Y1744158D02*
X1854588D01*
X1851729Y1743258D02*
X1854588D01*
X1852583Y1742358D02*
X1854588D01*
X1852905Y1741458D02*
X1854588D01*
X1852900Y1740558D02*
X1854588D01*
X1852564Y1739658D02*
X1854588D01*
X1851679Y1738758D02*
X1854588D01*
X1830162Y1737858D02*
X1854588D01*
X1819627Y1736958D02*
X1854588D01*
X1819627Y1736058D02*
X1854588D01*
X1819771Y1735158D02*
X1854588D01*
X1820671Y1734258D02*
X1854588D01*
X1821571Y1733358D02*
X1854588D01*
X1822471Y1732458D02*
X1854567D01*
X1772154Y1592958D02*
X1854039D01*
X1772154Y1593858D02*
X1853139D01*
X1772154Y1594758D02*
X1852240D01*
X1772154Y1595658D02*
X1851340D01*
X1845166Y1738758D02*
X1846182D01*
X1845092Y1743258D02*
X1846007D01*
X1837157D02*
X1842309D01*
X1838194Y1738758D02*
X1842236D01*
X1838472Y1742358D02*
X1841416D01*
X1838827Y1739658D02*
X1841389D01*
X1838936Y1741458D02*
X1841078D01*
X1839039Y1740558D02*
X1841070D01*
X1819627Y1743258D02*
X1835599D01*
X1831686Y1738758D02*
X1834562D01*
X1831530Y1742358D02*
X1834284D01*
X1832183Y1739658D02*
X1833929D01*
X1832122Y1741458D02*
X1833820D01*
X1832310Y1740558D02*
X1833717D01*
X1781922Y1696458D02*
X1830613D01*
X1808221Y1781958D02*
X1830596D01*
X1782350Y1697358D02*
X1830511D01*
X1801842Y1644258D02*
X1830366D01*
X1802743Y1643358D02*
X1830366D01*
X1803643Y1642458D02*
X1830366D01*
X1804544Y1641558D02*
X1830366D01*
X1805445Y1640658D02*
X1830366D01*
X1806346Y1639758D02*
X1830366D01*
X1807247Y1638858D02*
X1830366D01*
X1808148Y1637958D02*
X1830366D01*
X1809049Y1637058D02*
X1830366D01*
X1809949Y1636158D02*
X1830366D01*
X1810850Y1635258D02*
X1830366D01*
X1811751Y1634358D02*
X1830366D01*
X1812652Y1633458D02*
X1830366D01*
X1813553Y1632558D02*
X1830366D01*
X1814454Y1631658D02*
X1830366D01*
X1815354Y1630758D02*
X1830366D01*
X1816255Y1629858D02*
X1830366D01*
X1817156Y1628958D02*
X1830366D01*
X1818057Y1628058D02*
X1830366D01*
X1800941Y1645158D02*
X1830320D01*
X1818958Y1627158D02*
X1829804D01*
X1782566Y1698258D02*
X1829611D01*
X1772154Y1777458D02*
X1829563D01*
X1800040Y1646058D02*
X1829463D01*
X1772154Y1781058D02*
X1829283D01*
X1819627Y1737858D02*
X1829129D01*
X1823403Y1695558D02*
X1829077D01*
X1772154Y1778358D02*
X1828929D01*
X1772154Y1780158D02*
X1828820D01*
X1772154Y1779258D02*
X1828717D01*
X1782600Y1699158D02*
X1828711D01*
X1799139Y1646958D02*
X1828563D01*
X1826287Y1694658D02*
X1828388D01*
X1819859Y1626258D02*
X1828209D01*
X1782457Y1700058D02*
X1827811D01*
X1819627Y1742358D02*
X1827761D01*
X1820760Y1625358D02*
X1827703D01*
X1798238Y1647858D02*
X1827663D01*
X1819627Y1738758D02*
X1827605D01*
X1821660Y1624458D02*
X1827572D01*
X1819627Y1741458D02*
X1827169D01*
X1819627Y1739658D02*
X1827108D01*
X1819627Y1740558D02*
X1826982D01*
X1782119Y1700958D02*
X1826911D01*
X1772154Y1648758D02*
X1826763D01*
X1820482Y1701858D02*
X1826011D01*
X1772154Y1649658D02*
X1825863D01*
X1823941Y1694658D02*
X1825209D01*
X1821640Y1702758D02*
X1825111D01*
X1817131Y1773858D02*
X1825002D01*
X1772154Y1650558D02*
X1824963D01*
X1819627Y1769358D02*
X1824899D01*
X1822067Y1703658D02*
X1824211D01*
X1818053Y1772958D02*
X1824099D01*
X1772154Y1651458D02*
X1824091D01*
X1819627Y1770258D02*
X1824061D01*
X1818953Y1772058D02*
X1823757D01*
X1819519Y1771158D02*
X1823745D01*
X1772154Y1652358D02*
X1823703D01*
X1782430Y1690158D02*
X1823673D01*
X1782593Y1689258D02*
X1823673D01*
X1782578Y1688358D02*
X1823673D01*
X1782383Y1687458D02*
X1823673D01*
X1781982Y1686558D02*
X1823673D01*
X1781300Y1685658D02*
X1823673D01*
X1780083Y1684758D02*
X1823673D01*
X1772154Y1683858D02*
X1823673D01*
X1772154Y1682958D02*
X1823673D01*
X1772154Y1682058D02*
X1823673D01*
X1772154Y1681158D02*
X1823673D01*
X1772154Y1680258D02*
X1823673D01*
X1806274Y1679358D02*
X1823673D01*
X1807942Y1678458D02*
X1823673D01*
X1809053Y1677558D02*
X1823673D01*
X1809879Y1676658D02*
X1823673D01*
X1810511Y1675758D02*
X1823673D01*
X1810996Y1674858D02*
X1823673D01*
X1811358Y1673958D02*
X1823673D01*
X1811614Y1673058D02*
X1823673D01*
X1811772Y1672158D02*
X1823673D01*
X1811836Y1671258D02*
X1823673D01*
X1811811Y1670358D02*
X1823673D01*
X1811694Y1669458D02*
X1823673D01*
X1811481Y1668558D02*
X1823673D01*
X1811167Y1667658D02*
X1823673D01*
X1810737Y1666758D02*
X1823673D01*
X1810173Y1665858D02*
X1823673D01*
X1809438Y1664958D02*
X1823673D01*
X1808468Y1664058D02*
X1823673D01*
X1807101Y1663158D02*
X1823673D01*
X1804556Y1662258D02*
X1823673D01*
X1772154Y1661358D02*
X1823673D01*
X1772154Y1660458D02*
X1823673D01*
X1772154Y1659558D02*
X1823673D01*
X1772154Y1658658D02*
X1823673D01*
X1772154Y1657758D02*
X1823673D01*
X1772154Y1656858D02*
X1823673D01*
X1772154Y1655958D02*
X1823673D01*
X1772154Y1655058D02*
X1823673D01*
X1772154Y1654158D02*
X1823673D01*
X1772154Y1653258D02*
X1823673D01*
X1822150Y1704558D02*
X1823311D01*
X1782067Y1691058D02*
X1823273D01*
X1781442Y1691958D02*
X1819472D01*
X1781200Y1695558D02*
X1819432D01*
X1780359Y1692858D02*
X1818916D01*
X1779874Y1694658D02*
X1818901D01*
X1778655Y1693758D02*
X1818752D01*
X1781528Y1701858D02*
X1818494D01*
X1782608Y1706358D02*
X1817549D01*
X1780518Y1702758D02*
X1817337D01*
X1782540Y1705458D02*
X1817073D01*
X1782608Y1707258D02*
X1816979D01*
X1779119Y1703658D02*
X1816909D01*
X1782608Y1709958D02*
X1816835D01*
X1781896Y1704558D02*
X1816832D01*
X1782608Y1709058D02*
X1816669D01*
X1782608Y1708158D02*
X1816660D01*
X1772154Y1781958D02*
X1807133D01*
X1772154Y1786458D02*
X1805798D01*
X1772154Y1782858D02*
X1805632D01*
X1772154Y1785558D02*
X1805203D01*
X1772154Y1783758D02*
X1805138D01*
X1772154Y1784658D02*
X1805013D01*
X1772154Y1596558D02*
X1802879D01*
X1772154Y1597458D02*
X1801871D01*
X1772154Y1662258D02*
X1801192D01*
X1772154Y1598358D02*
X1800969D01*
X1772154Y1773858D02*
X1800536D01*
X1772154Y1599258D02*
X1800068D01*
X1772154Y1772958D02*
X1799634D01*
X1772154Y1679358D02*
X1799474D01*
X1798197Y1723458D02*
X1799255D01*
X1772154Y1772058D02*
X1799209D01*
X1772154Y1600158D02*
X1799166D01*
X1772154Y1771158D02*
X1799161D01*
X1772154Y1770258D02*
X1799161D01*
X1787076Y1769358D02*
X1799161D01*
X1788887Y1768458D02*
X1799161D01*
X1789853Y1767558D02*
X1799161D01*
X1790486Y1766658D02*
X1799161D01*
X1790901Y1765758D02*
X1799161D01*
X1791147Y1764858D02*
X1799161D01*
X1791245Y1763958D02*
X1799161D01*
X1791203Y1763058D02*
X1799161D01*
X1791017Y1762158D02*
X1799161D01*
X1790673Y1761258D02*
X1799161D01*
X1790135Y1760358D02*
X1799161D01*
X1789323Y1759458D02*
X1799161D01*
X1787992Y1758558D02*
X1799161D01*
X1772154Y1757658D02*
X1799161D01*
X1772154Y1756758D02*
X1799161D01*
X1772154Y1755858D02*
X1799161D01*
X1782044Y1754958D02*
X1799161D01*
X1782475Y1754058D02*
X1799161D01*
X1782492Y1753158D02*
X1799161D01*
X1782492Y1752258D02*
X1799161D01*
X1782492Y1751358D02*
X1799161D01*
X1782492Y1750458D02*
X1799161D01*
X1782492Y1749558D02*
X1799161D01*
X1782492Y1748658D02*
X1799161D01*
X1782486Y1747758D02*
X1799161D01*
X1782123Y1746858D02*
X1799161D01*
X1779051Y1745958D02*
X1799161D01*
X1779825Y1745058D02*
X1799161D01*
X1781116Y1744158D02*
X1799161D01*
X1781825Y1743258D02*
X1799161D01*
X1782244Y1742358D02*
X1799161D01*
X1782454Y1741458D02*
X1799161D01*
X1782482Y1740558D02*
X1799161D01*
X1782333Y1739658D02*
X1799161D01*
X1782897Y1738758D02*
X1799161D01*
X1783797Y1737858D02*
X1799161D01*
X1784697Y1736958D02*
X1799161D01*
X1785597Y1736058D02*
X1799161D01*
X1786497Y1735158D02*
X1799161D01*
X1787397Y1734258D02*
X1799161D01*
X1788297Y1733358D02*
X1799161D01*
X1789197Y1732458D02*
X1799161D01*
X1790097Y1731558D02*
X1799161D01*
X1790997Y1730658D02*
X1799161D01*
X1791897Y1729758D02*
X1799161D01*
X1792797Y1728858D02*
X1799161D01*
X1793697Y1727958D02*
X1799161D01*
X1794597Y1727058D02*
X1799161D01*
X1795497Y1726158D02*
X1799161D01*
X1796397Y1725258D02*
X1799161D01*
X1797297Y1724358D02*
X1799161D01*
X1772154Y1663158D02*
X1798647D01*
X1772154Y1601058D02*
X1798264D01*
X1772154Y1678458D02*
X1797806D01*
X1772154Y1601958D02*
X1797362D01*
X1772154Y1664058D02*
X1797280D01*
X1772154Y1677558D02*
X1796695D01*
X1772154Y1602858D02*
X1796460D01*
X1772154Y1664958D02*
X1796310D01*
X1772154Y1676658D02*
X1795869D01*
X1772154Y1665858D02*
X1795576D01*
X1772154Y1603758D02*
X1795558D01*
X1772154Y1675758D02*
X1795237D01*
X1772154Y1666758D02*
X1795011D01*
X1782608Y1710858D02*
X1794930D01*
X1772154Y1674858D02*
X1794752D01*
X1772154Y1604658D02*
X1794656D01*
X1772154Y1667658D02*
X1794581D01*
X1772154Y1673958D02*
X1794390D01*
X1772154Y1668558D02*
X1794267D01*
X1772154Y1673058D02*
X1794134D01*
X1772154Y1669458D02*
X1794054D01*
X1782608Y1711758D02*
X1794028D01*
X1772154Y1672158D02*
X1793977D01*
X1772154Y1670358D02*
X1793937D01*
X1772154Y1671258D02*
X1793912D01*
X1772154Y1605558D02*
X1793754D01*
X1782394Y1712658D02*
X1793128D01*
X1772154Y1606458D02*
X1792852D01*
X1772154Y1713558D02*
X1792228D01*
X1772154Y1607358D02*
X1791950D01*
X1772154Y1714458D02*
X1791328D01*
X1772154Y1608258D02*
X1791048D01*
X1772154Y1715358D02*
X1790428D01*
X1772154Y1609158D02*
X1790147D01*
X1772154Y1716258D02*
X1789528D01*
X1772154Y1610058D02*
X1789245D01*
X1772154Y1717158D02*
X1788628D01*
X1772154Y1610958D02*
X1788343D01*
X1772154Y1718058D02*
X1787728D01*
X1781749Y1611858D02*
X1787441D01*
X1772154Y1718958D02*
X1786828D01*
X1782875Y1612758D02*
X1786539D01*
X1772154Y1719858D02*
X1785928D01*
X1783522Y1613658D02*
X1785637D01*
X1772154Y1720758D02*
X1785028D01*
X1772154Y1588458D02*
X1784800D01*
X1783933Y1614558D02*
X1784735D01*
X1774381Y1576758D02*
X1784221D01*
X1772154Y1721658D02*
X1784128D01*
X1772154Y1769358D02*
X1783790D01*
X1772154Y1722558D02*
X1783228D01*
X1772154Y1758558D02*
X1782875D01*
X1773305Y1577658D02*
X1782497D01*
X1772154Y1723458D02*
X1782328D01*
X1772154Y1587558D02*
X1782272D01*
X1772154Y1768458D02*
X1781979D01*
X1772154Y1759458D02*
X1781543D01*
X1772154Y1724358D02*
X1781428D01*
X1772685Y1578558D02*
X1781329D01*
X1772154Y1586658D02*
X1781194D01*
X1772154Y1767558D02*
X1781013D01*
X1772154Y1647858D02*
X1780983D01*
X1772154Y1760358D02*
X1780732D01*
X1772326Y1579458D02*
X1780591D01*
X1772154Y1725258D02*
X1780528D01*
X1772154Y1585758D02*
X1780501D01*
X1772154Y1766658D02*
X1780380D01*
X1772154Y1761258D02*
X1780193D01*
X1772167Y1580358D02*
X1780101D01*
X1772154Y1646958D02*
X1780084D01*
X1772154Y1584858D02*
X1780042D01*
X1772154Y1765758D02*
X1779965D01*
X1772154Y1762158D02*
X1779849D01*
X1772154Y1581258D02*
X1779794D01*
X1772154Y1583958D02*
X1779761D01*
X1772154Y1764858D02*
X1779719D01*
X1772154Y1763058D02*
X1779663D01*
X1772154Y1582158D02*
X1779641D01*
X1772154Y1583058D02*
X1779631D01*
X1772154Y1726158D02*
X1779628D01*
X1772154Y1763958D02*
X1779621D01*
X1772154Y1646058D02*
X1779564D01*
X1772154Y1645158D02*
X1779477D01*
X1772154Y1634358D02*
X1779477D01*
X1772154Y1633458D02*
X1779477D01*
X1772154Y1632558D02*
X1779477D01*
X1772154Y1631658D02*
X1779477D01*
X1772154Y1630758D02*
X1779477D01*
X1772154Y1629858D02*
X1779477D01*
X1772154Y1628958D02*
X1779477D01*
X1772154Y1628058D02*
X1779477D01*
X1772154Y1627158D02*
X1779477D01*
X1772154Y1626258D02*
X1779477D01*
X1772154Y1625358D02*
X1779477D01*
X1772154Y1624458D02*
X1779477D01*
X1772154Y1623558D02*
X1779477D01*
X1772154Y1622658D02*
X1779477D01*
X1772154Y1621758D02*
X1779477D01*
X1772154Y1620858D02*
X1779423D01*
X1772154Y1644258D02*
X1779200D01*
X1772154Y1635258D02*
X1777542D01*
X1772154Y1693758D02*
X1777293D01*
X1772154Y1736058D02*
X1777154D01*
X1772154Y1611858D02*
X1777101D01*
X1772154Y1619958D02*
X1777054D01*
X1772154Y1703658D02*
X1776829D01*
X1772154Y1643358D02*
X1776711D01*
X1772154Y1745958D02*
X1776666D01*
X1772154Y1636158D02*
X1776192D01*
X1772154Y1735158D02*
X1776121D01*
X1772154Y1694658D02*
X1776075D01*
X1772154Y1612758D02*
X1775975D01*
X1772154Y1619058D02*
X1775950D01*
X1772154Y1745058D02*
X1775892D01*
X1772154Y1684758D02*
X1775866D01*
X1772154Y1642458D02*
X1775762D01*
X1772154Y1692858D02*
X1775590D01*
X1772154Y1637058D02*
X1775458D01*
X1772154Y1702758D02*
X1775431D01*
X1772154Y1736958D02*
X1775363D01*
X1772154Y1613658D02*
X1775327D01*
X1772154Y1618158D02*
X1775313D01*
X1772154Y1727058D02*
X1775213D01*
X1772154Y1641558D02*
X1775199D01*
X1772154Y1637958D02*
X1775021D01*
X1772154Y1614558D02*
X1774947D01*
X1772154Y1617258D02*
X1774939D01*
X1772154Y1640658D02*
X1774878D01*
X1772154Y1638858D02*
X1774794D01*
X1772154Y1615458D02*
X1774767D01*
X1772154Y1616358D02*
X1774764D01*
X1772154Y1639758D02*
X1774749D01*
X1772154Y1695558D02*
X1774748D01*
X1772154Y1734258D02*
X1774705D01*
X1772154Y1685658D02*
X1774648D01*
X1772154Y1744158D02*
X1774601D01*
X1772154Y1691958D02*
X1774506D01*
X1772154Y1701858D02*
X1774420D01*
X1772154Y1737858D02*
X1774330D01*
X1772154Y1727958D02*
X1774248D01*
X1772154Y1704558D02*
X1774053D01*
X1772154Y1696458D02*
X1774027D01*
X1772154Y1686558D02*
X1773967D01*
X1772154Y1733358D02*
X1773954D01*
X1772154Y1743258D02*
X1773892D01*
X1772154Y1691058D02*
X1773882D01*
X1772154Y1700958D02*
X1773830D01*
X1772154Y1738758D02*
X1773730D01*
X1772154Y1728858D02*
X1773680D01*
X1772154Y1754958D02*
X1773673D01*
X1772154Y1697358D02*
X1773599D01*
X1772154Y1746858D02*
X1773594D01*
X1772154Y1687458D02*
X1773566D01*
X1772154Y1712658D02*
X1773554D01*
X1772154Y1690158D02*
X1773519D01*
X1772154Y1732458D02*
X1773508D01*
X1772154Y1700058D02*
X1773492D01*
X1772154Y1742358D02*
X1773473D01*
X1772154Y1705458D02*
X1773409D01*
X1772154Y1739658D02*
X1773384D01*
X1772154Y1698258D02*
X1773383D01*
X1772154Y1688358D02*
X1773371D01*
X1772154Y1729758D02*
X1773358D01*
X1772154Y1689258D02*
X1773356D01*
X1772154Y1699158D02*
X1773349D01*
X1772154Y1711758D02*
X1773341D01*
X1772154Y1710858D02*
X1773341D01*
X1772154Y1709958D02*
X1773341D01*
X1772154Y1709058D02*
X1773341D01*
X1772154Y1708158D02*
X1773341D01*
X1772154Y1707258D02*
X1773341D01*
X1772154Y1706358D02*
X1773341D01*
X1772154Y1731558D02*
X1773277D01*
X1772154Y1741458D02*
X1773263D01*
X1772154Y1754058D02*
X1773242D01*
X1772154Y1740558D02*
X1773235D01*
X1772154Y1747758D02*
X1773231D01*
X1772154Y1730658D02*
X1773229D01*
X1772154Y1753158D02*
X1773225D01*
X1772154Y1752258D02*
X1773225D01*
X1772154Y1751358D02*
X1773225D01*
X1772154Y1750458D02*
X1773225D01*
X1772154Y1749558D02*
X1773225D01*
X1772154Y1748658D02*
X1773225D01*
X1958580Y1719858D02*
X1961597D01*
X1959480Y1718958D02*
X1961597D01*
X1960380Y1718058D02*
X1961597D01*
X1935125Y1709958D02*
X1961597D01*
X1935125Y1709058D02*
X1961597D01*
X1935125Y1708158D02*
X1961597D01*
X1935125Y1707258D02*
X1961597D01*
X1935125Y1706358D02*
X1961597D01*
X1935125Y1705458D02*
X1961597D01*
X1935125Y1704558D02*
X1961597D01*
X1952821Y1703658D02*
X1961597D01*
X1953347Y1702758D02*
X1961597D01*
X1957604Y1701858D02*
X1961597D01*
X1958308Y1700958D02*
X1961597D01*
X1958559Y1700058D02*
X1961597D01*
X1958492Y1699158D02*
X1961597D01*
X1958077Y1698258D02*
X1961597D01*
X1956966Y1697358D02*
X1961597D01*
X1943454Y1696458D02*
X1961597D01*
X1944354Y1695558D02*
X1961597D01*
X1945254Y1694658D02*
X1961597D01*
X1946154Y1693758D02*
X1961597D01*
X1947054Y1692858D02*
X1961597D01*
X1947954Y1691958D02*
X1961597D01*
X1948854Y1691058D02*
X1961597D01*
X1949754Y1690158D02*
X1961597D01*
X1950654Y1689258D02*
X1961597D01*
X1951554Y1688358D02*
X1961597D01*
X1960516Y1710858D02*
X1961457D01*
X1957680Y1720758D02*
X1961255D01*
X1952454Y1687458D02*
X1961084D01*
X1942284Y1721658D02*
X1960355D01*
X1953220Y1686558D02*
X1960184D01*
X1953537Y1685658D02*
X1959469D01*
X1935125Y1722558D02*
X1959455D01*
X1935125Y1710858D02*
X1959406D01*
X1953571Y1684758D02*
X1959155D01*
X1953571Y1683858D02*
X1959106D01*
X1953570Y1682958D02*
X1959106D01*
X1953387Y1682058D02*
X1959106D01*
X1952801Y1681158D02*
X1959106D01*
X1935125Y1680258D02*
X1959106D01*
X1935125Y1679358D02*
X1959106D01*
X1935125Y1678458D02*
X1959106D01*
X1956671Y1677558D02*
X1959106D01*
X1957394Y1676658D02*
X1959106D01*
X1957704Y1675758D02*
X1959106D01*
X1957728Y1674858D02*
X1959106D01*
X1957475Y1673958D02*
X1959106D01*
X1956849Y1673058D02*
X1959106D01*
X1955949Y1672158D02*
X1959106D01*
X1955716Y1671258D02*
X1958979D01*
X1935230Y1723458D02*
X1958555D01*
X1935125Y1711758D02*
X1957914D01*
X1936125Y1724358D02*
X1957655D01*
X1935125Y1712658D02*
X1957420D01*
X1935125Y1713558D02*
X1957296D01*
X1937025Y1725258D02*
X1956755D01*
X1937773Y1726158D02*
X1955855D01*
X1938114Y1727058D02*
X1954955D01*
X1947005Y1697358D02*
X1954845D01*
X1935125Y1714458D02*
X1954247D01*
X1953739Y1701858D02*
X1954190D01*
X1938164Y1727958D02*
X1954055D01*
X1948116Y1698258D02*
X1953734D01*
X1935125Y1715358D02*
X1953495D01*
X1948531Y1699158D02*
X1953319D01*
X1935125Y1716258D02*
X1953220D01*
X1938245Y1728858D02*
X1953155D01*
X1942528Y1717158D02*
X1953004D01*
X1935125Y1677558D02*
X1952711D01*
X1939300Y1729758D02*
X1952255D01*
X1935125Y1676658D02*
X1951797D01*
X1939713Y1730658D02*
X1951355D01*
X1935125Y1675758D02*
X1950897D01*
X1935247Y1674858D02*
X1949997D01*
X1935125Y1681158D02*
X1949010D01*
X1935125Y1703658D02*
X1948832D01*
X1935125Y1682058D02*
X1948424D01*
X1935125Y1702758D02*
X1948307D01*
X1935125Y1682958D02*
X1948241D01*
X1935125Y1683858D02*
X1948240D01*
X1935125Y1684758D02*
X1947615D01*
X1935125Y1685658D02*
X1946715D01*
X1935125Y1686558D02*
X1945815D01*
X1935125Y1687458D02*
X1944915D01*
X1942554Y1697358D02*
X1944885D01*
X1935125Y1701858D02*
X1944247D01*
X1935125Y1688358D02*
X1944015D01*
X1941654Y1698258D02*
X1943773D01*
X1938679Y1700958D02*
X1943543D01*
X1940754Y1699158D02*
X1943359D01*
X1939854Y1700058D02*
X1943292D01*
X1935125Y1689258D02*
X1943115D01*
X1935125Y1690158D02*
X1942215D01*
X1935125Y1691058D02*
X1941315D01*
X1935125Y1691958D02*
X1940415D01*
X1935125Y1721658D02*
X1939684D01*
X1935125Y1692858D02*
X1939515D01*
X1935125Y1717158D02*
X1939441D01*
X1935125Y1720758D02*
X1938733D01*
X1935125Y1718058D02*
X1938643D01*
X1935125Y1693758D02*
X1938615D01*
X1935125Y1719858D02*
X1938371D01*
X1935125Y1718958D02*
X1938345D01*
X1935125Y1694658D02*
X1937715D01*
X1935125Y1695558D02*
X1936815D01*
X1935125Y1700958D02*
X1936597D01*
X1935349Y1696458D02*
X1935900D01*
X1953360Y1658658D02*
X1961883D01*
X1954977Y1657758D02*
X1961883D01*
X1955484Y1656858D02*
X1961883D01*
X1955617Y1655958D02*
X1961883D01*
X1955437Y1655058D02*
X1961883D01*
X1954856Y1654158D02*
X1961883D01*
X1935125Y1653258D02*
X1961883D01*
X1935125Y1652358D02*
X1961883D01*
X1935241Y1651458D02*
X1961883D01*
X1936138Y1650558D02*
X1961883D01*
X1937038Y1649658D02*
X1961883D01*
X1937938Y1648758D02*
X1961883D01*
X1948805Y1647858D02*
X1961883D01*
X1949521Y1646958D02*
X1961883D01*
X1949778Y1646058D02*
X1961883D01*
X1957826Y1645158D02*
X1961883D01*
X1958997Y1644258D02*
X1961883D01*
X1959427Y1643358D02*
X1961883D01*
X1959507Y1642458D02*
X1961883D01*
X1959269Y1641558D02*
X1961883D01*
X1958590Y1640658D02*
X1961883D01*
X1946938Y1639758D02*
X1961883D01*
X1947838Y1638858D02*
X1961883D01*
X1948738Y1637958D02*
X1961883D01*
X1955703Y1637058D02*
X1961883D01*
X1956710Y1636158D02*
X1961883D01*
X1957091Y1635258D02*
X1961883D01*
X1957450Y1634358D02*
X1961878D01*
X1935125Y1659558D02*
X1959049D01*
X1938766Y1660458D02*
X1958250D01*
X1956565Y1661358D02*
X1957952D01*
X1949716Y1645158D02*
X1955875D01*
X1946038Y1640658D02*
X1955111D01*
X1949309Y1644258D02*
X1954704D01*
X1945138Y1641558D02*
X1954432D01*
X1948222Y1643358D02*
X1954273D01*
X1944238Y1642458D02*
X1954194D01*
X1939505Y1661358D02*
X1953514D01*
X1949638Y1637058D02*
X1953274D01*
X1939774Y1662258D02*
X1952705D01*
X1935125Y1658658D02*
X1952545D01*
X1947541Y1664058D02*
X1952424D01*
X1939750Y1663158D02*
X1952402D01*
X1950538Y1636158D02*
X1952267D01*
X1948654Y1664958D02*
X1952134D01*
X1935125Y1654158D02*
X1951050D01*
X1935125Y1657758D02*
X1950929D01*
X1935125Y1655058D02*
X1950469D01*
X1935125Y1656858D02*
X1950421D01*
X1935125Y1655958D02*
X1950288D01*
X1943338Y1643358D02*
X1946030D01*
X1938838Y1647858D02*
X1945447D01*
X1942438Y1644258D02*
X1944943D01*
X1939738Y1646958D02*
X1944731D01*
X1941538Y1645158D02*
X1944536D01*
X1940638Y1646058D02*
X1944474D01*
X1966137Y1683858D02*
X1968004D01*
X1965275Y1682958D02*
X1968004D01*
X1965224Y1682058D02*
X1968004D01*
X1965224Y1681158D02*
X1968004D01*
X1965224Y1680258D02*
X1968004D01*
X1965224Y1679358D02*
X1968004D01*
X1965224Y1678458D02*
X1968004D01*
X1965224Y1677558D02*
X1968004D01*
X1965224Y1676658D02*
X1968004D01*
X1965224Y1675758D02*
X1968004D01*
X1965224Y1674858D02*
X1968004D01*
X1965224Y1673958D02*
X1968004D01*
X1965224Y1673058D02*
X1968004D01*
X1965224Y1672158D02*
X1968004D01*
X1965224Y1671258D02*
X1968004D01*
X1965224Y1670358D02*
X1968004D01*
X1965205Y1669458D02*
X1968004D01*
X1964959Y1668558D02*
X1968004D01*
X1965094Y1667658D02*
X1968004D01*
X1965994Y1666758D02*
X1968004D01*
X1966894Y1665858D02*
X1967995D01*
X1967017Y1684758D02*
X1967967D01*
G54D31*
X1953327Y1603241D02*
Y1599990D01*
X1955047Y1598270*
X1961640*
Y1603241*
X1953327*
Y1603229D02*
X1961640D01*
X1953327Y1602875D02*
X1961640D01*
X1953327Y1602521D02*
X1961640D01*
X1953327Y1602166D02*
X1961640D01*
X1953327Y1601812D02*
X1961640D01*
X1953327Y1601458D02*
X1961640D01*
X1953327Y1601103D02*
X1961640D01*
X1953327Y1600749D02*
X1961640D01*
X1953327Y1600395D02*
X1961640D01*
X1953327Y1600040D02*
X1961640D01*
X1953631Y1599686D02*
X1961640D01*
X1953985Y1599332D02*
X1961640D01*
X1954339Y1598977D02*
X1961640D01*
X1954694Y1598623D02*
X1961640D01*
X1770866Y1580709D02*
G03X1776772Y1574803I5906J-0D01*
G01X1963386*
G03X1969291Y1580709I-0J5906*
G01Y1801181*
G03X1963386Y1807087I-5905J0*
G01X1776772*
G03X1770866Y1801181I-0J-5906*
G01Y1580709*
X1789764Y1582677D02*
G03X1789764I-4331J0D01*
G01X1959055D02*
G03X1959055I-4331J0D01*
G01X1810354Y1671063D02*
G03X1810354I-7480J0D01*
G01X1789764Y1763780D02*
G03X1789764I-4331J0D01*
G01X1959055D02*
G03X1959055I-4331J0D01*
G54D137*
G01X1779425Y1615921D03*
X1810921D03*
Y1639543D03*
X1779425D03*
G54D178*
X1944961Y1592323D02*
X1943028Y1591034D01*
Y1588937*
X1944882*
X1941767Y1593027D02*
X1943028Y1591766D01*
Y1591034*
X1941024Y1592283D02*
X1941767Y1593027D01*
X1960748Y1601772D02*
X1964942Y1605965D01*
Y1639119*
X1940039Y1666654D02*
X1945922D01*
X1945922D02*
X1947300Y1668031D01*
X1960394*
X1962165Y1669803*
Y1684213*
X1960394Y1668031D02*
X1964942Y1663483D01*
Y1639119*
X1932066Y1671626D02*
X1951091D01*
X1954691Y1675225*
X1932066Y1671626D02*
Y1650304D01*
X1951113Y1631256*
X1959113*
X1932066Y1671626D02*
Y1724625D01*
X1935118Y1727677*
X1962165Y1684213D02*
X1964656Y1686704D01*
X1958780Y1727559D02*
X1964656Y1721682D01*
Y1686704*
X1934905Y1734597D02*
X1951741D01*
X1958780Y1727559*
X1913504Y1747362D02*
X1926269Y1734597D01*
X1934905*
X1934094Y1757933D02*
Y1735407D01*
X1934905Y1734597*
X1934094Y1757933D02*
X1937729Y1761567D01*
Y1770715*
X1869528Y1762165D02*
Y1661496D01*
X1915811Y1615213*
X1925383*
X1941767Y1598829*
Y1593027*
G54D202*
X1777974Y1708884D03*
X1777858Y1750862D03*
G54D203*
X1777974Y1698884D03*
Y1688884D03*
Y1678884D03*
X1777858Y1740862D03*
Y1730862D03*
Y1720862D03*
G74*
X0Y0D02*
M02*
