*
*
G04 PADS 9.5 Build Number: 522968 generated Gerber (RS-274-X) file*
G04 PC Version=2.1*
*
%IN "LK02 Main board 3V0.pcb"*%
*
%MOIN*%
*
%FSLAX35Y35*%
*
*
*
*
G04 PC Standard Apertures*
*
*
G04 Thermal Relief Aperture macro.*
%AMTER*
1,1,$1,0,0*
1,0,$1-$2,0,0*
21,0,$3,$4,0,0,45*
21,0,$3,$4,0,0,135*
%
*
*
G04 Annular Aperture macro.*
%AMANN*
1,1,$1,0,0*
1,0,$2,0,0*
%
*
*
G04 Odd Aperture macro.*
%AMODD*
1,1,$1,0,0*
1,0,$1-0.005,0,0*
%
*
*
G04 PC Custom Aperture Macros*
*
*
*
*
*
*
G04 PC Aperture Table*
*
%ADD010C,0.001*%
%ADD025C,0.00787*%
%ADD028C,0.00591*%
%ADD030C,0.01*%
%ADD031C,0.00394*%
%ADD050C,0.005*%
%ADD150C,0.004*%
%ADD151C,0.00394*%
%ADD155C,0.00787*%
*
*
*
*
G04 PC Circuitry*
G04 Layer Name LK02 Main board 3V0.pcb - circuitry*
%LPD*%
*
*
G04 PC Custom Flashes*
G04 Layer Name LK02 Main board 3V0.pcb - flashes*
%LPD*%
*
*
G04 PC Circuitry*
G04 Layer Name LK02 Main board 3V0.pcb - circuitry*
%LPD*%
*
G54D10*
G54D25*
G01X1875217Y1602417D02*
Y1606354D01*
X1887028*
Y1602417*
X1875217*
X1784289Y1655244D02*
X1774489D01*
X1784289Y1655944D02*
X1774489D01*
X1785089Y1645644D02*
Y1671044D01*
X1773789*
Y1645644*
X1785089*
X1810328Y1594766D02*
X1820128D01*
X1810328Y1594066D02*
X1820128D01*
X1809528Y1604366D02*
Y1578966D01*
X1820828*
Y1604366*
X1809528*
X1823128Y1594766D02*
X1832928D01*
X1823128Y1594066D02*
X1832928D01*
X1822328Y1604366D02*
Y1578966D01*
X1833628*
Y1604366*
X1822328*
X1836333Y1594766D02*
X1846133D01*
X1836333Y1594066D02*
X1846133D01*
X1835533Y1604366D02*
Y1578966D01*
X1846833*
Y1604366*
X1835533*
X1849465Y1594766D02*
X1859265D01*
X1849465Y1594066D02*
X1859265D01*
X1848665Y1604366D02*
Y1578966D01*
X1859965*
Y1604366*
X1848665*
X1798833Y1597966D02*
X1806533D01*
X1798733Y1591566D02*
X1802833Y1596766D01*
X1806533Y1591566*
X1798733*
X1797833Y1604366D02*
Y1583366D01*
X1807233*
Y1604366*
X1797833*
X1870495Y1588129D02*
X1862795D01*
X1870595Y1594529D02*
X1866495Y1589329D01*
X1862795Y1594529*
X1870595*
X1871495Y1581729D02*
Y1602729D01*
X1862095*
Y1581729*
X1871495*
X1793403Y1646221D02*
Y1653921D01*
X1799803Y1646121D02*
X1794603Y1650221D01*
X1799803Y1653921*
Y1646121*
X1787003Y1645221D02*
X1808003D01*
Y1654621*
X1787003*
Y1645221*
X1934720Y1784146D02*
Y1774346D01*
X1934020Y1784146D02*
Y1774346D01*
X1944320Y1784946D02*
X1918920D01*
Y1773646*
X1944320*
Y1784946*
G54D28*
X1965313Y1669981D02*
Y1665931D01*
X1960815Y1665929D02*
G75*
G03X1965314Y1665933I2248J2336D01*
G01X1960813Y1665931D02*
Y1669981D01*
X1965313Y1672381D02*
Y1676431D01*
G03X1960812I-2250J-3250*
G01X1960813D02*
Y1672381D01*
X1925762Y1587881D02*
Y1583831D01*
X1921265Y1583829D02*
G03X1925764Y1583833I2247J2335D01*
G01X1921262Y1583831D02*
Y1587881D01*
X1925762Y1590281D02*
Y1594331D01*
G03X1921262I-2250J-3250*
G01Y1590281*
X1944572Y1598840D02*
X1948622D01*
X1948624Y1594342D02*
G03X1948620Y1598842I-2336J2248D01*
G01X1948622Y1594340D02*
X1944572D01*
X1942172Y1598840D02*
X1938122D01*
G03Y1594340I3250J-2250*
G01X1942172*
X1947888Y1673355D02*
Y1677405D01*
X1952386Y1677407D02*
G03X1947887Y1677403I-2248J-2335D01*
G01X1952388Y1677405D02*
Y1673355D01*
X1947888Y1670955D02*
Y1666905D01*
G03X1952389I2250J3250*
G01X1952388D02*
Y1670955D01*
X1855109Y1621507D02*
Y1617457D01*
X1850611Y1617454D02*
G03X1855110Y1617458I2248J2336D01*
G01X1850609Y1617457D02*
Y1621507D01*
X1855109Y1623907D02*
Y1627957D01*
Y1627956D02*
G03X1850608I-2250J-3249D01*
G01X1850609Y1627957D02*
Y1623907D01*
X1927735Y1702748D02*
X1928400D01*
Y1690936*
X1927735*
X1917255Y1702748D02*
X1916589D01*
Y1690936*
X1917255*
G54D30*
X1875617Y1601645D02*
X1886384D01*
Y1607052*
X1875617*
Y1601645*
X1943432Y1607240D02*
X1950232D01*
Y1600740*
X1943432*
X1940432Y1607240D02*
X1933732D01*
Y1600740*
X1940432*
X1920110Y1588990D02*
Y1582190D01*
X1913610*
Y1588990*
X1920110Y1591990D02*
Y1598690D01*
X1913610*
Y1591990*
X1913628Y1611331D02*
Y1618131D01*
X1920128*
Y1611331*
X1913628Y1608331D02*
Y1601631D01*
X1920128*
Y1608331*
X1849417Y1622374D02*
Y1615574D01*
X1842917*
Y1622374*
X1849417Y1625374D02*
Y1632074D01*
X1842917*
Y1625374*
X1877963Y1680250D02*
Y1687050D01*
X1884463*
Y1680250*
X1877963Y1677250D02*
Y1670550D01*
X1884463*
Y1677250*
X1924824Y1758734D02*
X1922324D01*
Y1763734*
X1930824Y1758734D02*
X1933324D01*
Y1763734*
X1927324Y1767734D02*
X1928324D01*
X1821081Y1785415D02*
Y1792215D01*
X1827581*
Y1785415*
X1821081Y1782415D02*
Y1775715D01*
X1827581*
Y1782415*
G54D31*
X1885990Y1684664D02*
Y1687064D01*
X1888990*
Y1684664*
X1885990Y1682664D02*
Y1680264D01*
X1888990*
Y1682664*
X1923773Y1619596D02*
Y1621996D01*
X1926773*
Y1619596*
X1923773Y1617596D02*
Y1615196D01*
X1926773*
Y1617596*
X1898022Y1592466D02*
X1900422D01*
Y1589466*
X1898022*
X1896022Y1592466D02*
X1893622D01*
Y1589466*
X1896022*
X1825858Y1616142D02*
X1828258D01*
Y1613142*
X1825858*
X1823858Y1616142D02*
X1821458D01*
Y1613142*
X1823858*
X1825858Y1626066D02*
X1828258D01*
Y1623066*
X1825858*
X1823858Y1626066D02*
X1821458D01*
Y1623066*
X1823858*
X1770866Y1580709D02*
G03X1776772Y1574803I5906J-0D01*
G01X1963386*
G03X1969291Y1580709I-0J5906*
G01Y1801181*
G03X1963386Y1807087I-5905J0*
G01X1776772*
G03X1770866Y1801181I-0J-5906*
G01Y1580709*
X1789764Y1582677D02*
G03X1789764I-4331J0D01*
G01X1959055D02*
G03X1959055I-4331J0D01*
G01X1810354Y1671063D02*
G03X1810354I-7480J0D01*
G01X1789764Y1763780D02*
G03X1789764I-4331J0D01*
G01X1959055D02*
G03X1959055I-4331J0D01*
G54D50*
G01X1791588Y1664597D02*
Y1667097D01*
X1794588*
Y1664597*
X1791588Y1663097D02*
Y1660501D01*
X1794588*
Y1663097*
X1947496Y1664063D02*
X1949996D01*
Y1661063*
X1947496*
X1945996Y1664063D02*
X1943401D01*
Y1661063*
X1945996*
X1952878Y1750164D02*
Y1752664D01*
X1955878*
Y1750164*
X1952878Y1748664D02*
Y1746068D01*
X1955878*
Y1748664*
X1954357Y1712158D02*
Y1714658D01*
X1957357*
Y1712158*
X1954357Y1710658D02*
Y1708063D01*
X1957357*
Y1710658*
X1959939Y1669090D02*
Y1666895D01*
X1956939D02*
G03X1959939I1500J1750D01*
G01X1956939D02*
Y1669090D01*
X1959939Y1670590D02*
Y1672713D01*
Y1672714D02*
G03X1956940I-1500J-1438D01*
G01X1956939Y1672713D02*
Y1670590D01*
X1964411Y1640131D02*
Y1637936D01*
X1961411Y1637935D02*
G03X1964411I1500J1751D01*
G01X1961411Y1637936D02*
Y1640131D01*
X1964411Y1641631D02*
Y1643754D01*
X1964410D02*
G03X1961411I-1499J-1438D01*
G01Y1641631*
X1949521Y1641639D02*
Y1643834D01*
X1952521D02*
G03X1949521I-1500J-1750D01*
G01X1952521D02*
Y1641639D01*
X1949521Y1640139D02*
Y1638015D01*
X1949522D02*
G03X1952521I1499J1438D01*
G01Y1640139*
X1945671Y1641595D02*
Y1643790D01*
X1948671D02*
G03X1945671I-1500J-1750D01*
G01X1948671D02*
Y1641595D01*
X1945671Y1640095D02*
Y1637971D01*
G03X1948670I1500J1438*
G01X1948671D02*
Y1640095D01*
X1941581Y1672534D02*
Y1670339D01*
X1938581D02*
G03X1941581I1500J1750D01*
G01X1938581D02*
Y1672534D01*
X1941581Y1674034D02*
Y1676158D01*
G03X1938582I-1500J-1438*
G01X1938581D02*
Y1674034D01*
X1953191Y1674175D02*
Y1676371D01*
X1956191D02*
G03X1953191I-1500J-1750D01*
G01X1956191D02*
Y1674175D01*
X1953191Y1672675D02*
Y1670552D01*
X1953192D02*
G03X1956191I1499J1438D01*
G01Y1672675*
X1936573Y1732351D02*
Y1730156D01*
X1933573Y1730155D02*
G03X1936573I1500J1751D01*
G01X1933573Y1730156D02*
Y1732351D01*
X1936573Y1733851D02*
Y1735974D01*
X1936572D02*
G03X1933573I-1499J-1438D01*
G01Y1733851*
X1912282Y1748417D02*
Y1746222D01*
X1909282D02*
G03X1912282I1500J1750D01*
G01X1909282D02*
Y1748417D01*
X1912282Y1749917D02*
Y1752040D01*
Y1752041D02*
G03X1909283I-1500J-1438D01*
G01X1909282Y1752040D02*
Y1749917D01*
X1920239Y1719622D02*
Y1717427D01*
X1917239D02*
G03X1920239I1500J1750D01*
G01X1917239D02*
Y1719622D01*
X1920239Y1721122D02*
Y1723246D01*
G03X1917239I-1500J-1438*
G01Y1721122*
X1932415Y1732351D02*
Y1730156D01*
X1929415Y1730155D02*
G03X1932415I1500J1751D01*
G01X1929415Y1730156D02*
Y1732351D01*
X1932415Y1733851D02*
Y1735974D01*
G03X1929416I-1500J-1438*
G01X1929415D02*
Y1733851D01*
X1920197Y1758528D02*
Y1756333D01*
X1917197D02*
G03X1920197I1500J1750D01*
G01X1917197D02*
Y1758528D01*
X1920197Y1760028D02*
Y1762151D01*
X1920196Y1762152D02*
G03X1917197I-1499J-1438D01*
G01Y1762151D02*
Y1760028D01*
X1827644Y1698819D02*
Y1701014D01*
X1830644D02*
G03X1827644I-1500J-1750D01*
G01X1830644D02*
Y1698819D01*
X1827644Y1697319D02*
Y1695196D01*
X1827645Y1695195D02*
G03X1830644I1499J1438D01*
G01Y1695196D02*
Y1697319D01*
X1910837Y1635151D02*
X1908642D01*
Y1638151D02*
G03Y1635151I1750J-1500D01*
G01Y1638151D02*
X1910837D01*
X1912337Y1635151D02*
X1914460D01*
X1914461D02*
G03Y1638150I-1438J1500D01*
G01X1914460Y1638151D02*
X1912337D01*
X1868237Y1696402D02*
X1866042D01*
Y1699402D02*
G03Y1696402I1750J-1500D01*
G01Y1699402D02*
X1868237D01*
X1869737Y1696402D02*
X1871861D01*
Y1696403D02*
G03Y1699402I-1438J1499D01*
G01X1869737*
X1955549Y1740353D02*
X1953354D01*
Y1743353D02*
G03Y1740353I1750J-1500D01*
G01Y1743353D02*
X1955549D01*
X1957049Y1740353D02*
X1959173D01*
G03Y1743352I-1438J1500*
G01Y1743353D02*
X1957049D01*
X1943402D02*
X1945597D01*
Y1740353D02*
G03Y1743353I-1750J1500D01*
G01Y1740353D02*
X1943402D01*
X1941902Y1743353D02*
X1939778D01*
Y1743352D02*
G03Y1740353I1438J-1499D01*
G01X1941902*
X1823803Y1698819D02*
Y1701014D01*
X1826803D02*
G03X1823803I-1500J-1750D01*
G01X1826803D02*
Y1698819D01*
X1823803Y1697319D02*
Y1695196D01*
Y1695195D02*
G03X1826802I1500J1438D01*
G01X1826803Y1695196D02*
Y1697319D01*
X1918367Y1654403D02*
X1916172D01*
Y1657403D02*
G03Y1654403I1750J-1500D01*
G01Y1657403D02*
X1918367D01*
X1919867Y1654403D02*
X1921991D01*
Y1654404D02*
G03Y1657403I-1438J1499D01*
G01X1919867*
X1957010Y1701947D02*
X1954815D01*
Y1704947D02*
G03Y1701947I1750J-1500D01*
G01Y1704947D02*
X1957010D01*
X1958510Y1701947D02*
X1960633D01*
X1960634Y1701948D02*
G03Y1704947I-1438J1499D01*
G01X1960633D02*
X1958510D01*
X1944812D02*
X1947007D01*
Y1701947D02*
G03Y1704947I-1750J1500D01*
G01Y1701947D02*
X1944812D01*
X1943312Y1704947D02*
X1941189D01*
X1941188D02*
G03Y1701948I1438J-1500D01*
G01X1941189Y1701947D02*
X1943312D01*
X1892981Y1682973D02*
Y1680778D01*
X1889981D02*
G03X1892981I1500J1750D01*
G01X1889981D02*
Y1682973D01*
X1892981Y1684473D02*
Y1686597D01*
X1892980D02*
G03X1889981I-1499J-1438D01*
G01Y1684473*
X1865018Y1792142D02*
Y1794337D01*
X1868018D02*
G03X1865018I-1500J-1750D01*
G01X1868018D02*
Y1792142D01*
X1865018Y1790642D02*
Y1788519D01*
Y1788518D02*
G03X1868017I1500J1438D01*
G01X1868018Y1788519D02*
Y1790642D01*
X1842101Y1698819D02*
Y1701014D01*
X1845101D02*
G03X1842101I-1500J-1750D01*
G01X1845101D02*
Y1698819D01*
X1842101Y1697319D02*
Y1695196D01*
Y1695195D02*
G03X1845100I1500J1438D01*
G01X1845101Y1695196D02*
Y1697319D01*
X1844248Y1719943D02*
X1842053D01*
Y1722943D02*
G03Y1719943I1750J-1500D01*
G01Y1722943D02*
X1844248D01*
X1845748Y1719943D02*
X1847871D01*
Y1719944D02*
G03Y1722943I-1438J1499D01*
G01X1845748*
X1824059Y1722874D02*
X1826254D01*
Y1719874D02*
G03Y1722874I-1750J1500D01*
G01Y1719874D02*
X1824059D01*
X1822559Y1722874D02*
X1820436D01*
X1820435D02*
G03Y1719875I1438J-1500D01*
G01X1820436Y1719874D02*
X1822559D01*
X1820003Y1698819D02*
Y1701014D01*
X1823003D02*
G03X1820004I-1500J-1750D01*
G01X1823003D02*
Y1698819D01*
X1820003Y1697319D02*
Y1695196D01*
X1820004Y1695195D02*
G03X1823003I1499J1438D01*
G01Y1695196D02*
Y1697319D01*
X1845983Y1698819D02*
Y1701014D01*
X1848983D02*
G03X1845983I-1500J-1750D01*
G01X1848983D02*
Y1698819D01*
X1845983Y1697319D02*
Y1695196D01*
X1845984Y1695195D02*
G03X1848983I1499J1438D01*
G01Y1695196D02*
Y1697319D01*
X1907137Y1703310D02*
X1909332D01*
Y1700310D02*
G03Y1703310I-1750J1500D01*
G01Y1700310D02*
X1907137D01*
X1905637Y1703310D02*
X1903514D01*
X1903513Y1703309D02*
G03Y1700310I1438J-1499D01*
G01X1903514D02*
X1905637D01*
X1959170Y1623858D02*
Y1626053D01*
X1962170D02*
G03X1959170I-1500J-1750D01*
G01X1962170D02*
Y1623858D01*
X1959170Y1622358D02*
Y1620235D01*
Y1620234D02*
G03X1962169I1500J1438D01*
G01X1962170Y1620235D02*
Y1622358D01*
X1889952Y1719533D02*
Y1721728D01*
X1892952D02*
G03X1889952I-1500J-1750D01*
G01X1892952D02*
Y1719533D01*
X1889952Y1718033D02*
Y1715909D01*
X1889953D02*
G03X1892952I1499J1438D01*
G01Y1718033*
X1907410Y1787582D02*
Y1803494D01*
X1907411D02*
G03X1898160I-4626J-3536D01*
G01Y1787582*
X1898158Y1787585D02*
G03X1907405Y1787576I4627J4269D01*
G01X1917613Y1787624D02*
Y1803536D01*
X1917614D02*
G03X1908363I-4626J-3536D01*
G01Y1787624*
X1908361Y1787627D02*
G03X1917608Y1787619I4627J4269D01*
G01X1897040Y1787389D02*
Y1803301D01*
X1897041D02*
G03X1887790I-4626J-3536D01*
G01Y1787389*
X1887788Y1787392D02*
G03X1897035Y1787384I4627J4269D01*
G01X1912282Y1740484D02*
Y1737984D01*
X1909282*
Y1740484*
X1912282Y1741984D02*
Y1744580D01*
X1909282*
Y1741984*
X1917232Y1752078D02*
Y1754578D01*
X1920232*
Y1752078*
X1917232Y1750578D02*
Y1747982D01*
X1920232*
Y1750578*
X1912282Y1732309D02*
Y1729809D01*
X1909282*
Y1732309*
X1912282Y1733809D02*
Y1736405D01*
X1909282*
Y1733809*
X1926824Y1754598D02*
X1929324D01*
Y1751598*
X1926824*
X1925324Y1754598D02*
X1922728D01*
Y1751598*
X1925324*
X1927828Y1619393D02*
Y1621893D01*
X1930828*
Y1619393*
X1927828Y1617893D02*
Y1615298D01*
X1930828*
Y1617893*
X1915730Y1764269D02*
X1913230D01*
Y1767269*
X1915730*
X1917230Y1764269D02*
X1919826D01*
Y1767269*
X1917230*
X1845406Y1715199D02*
Y1717699D01*
X1848406*
Y1715199*
X1845406Y1713699D02*
Y1711103D01*
X1848406*
Y1713699*
X1803986Y1659087D02*
X1806486D01*
X1806486D02*
Y1656087D01*
X1806486D02*
X1803986D01*
X1802486Y1659087D02*
X1799890D01*
X1799890D02*
Y1656087D01*
X1799890D02*
X1802486D01*
X1903907Y1781332D02*
X1901407D01*
Y1784332*
X1903907*
X1905407Y1781332D02*
X1908003D01*
Y1784332*
X1905407*
X1914081Y1781316D02*
X1911581D01*
Y1784316*
X1914081*
X1915581Y1781316D02*
X1918177D01*
Y1784316*
X1915581*
X1792798Y1659087D02*
X1795298D01*
Y1656087*
X1792798*
X1791298Y1659087D02*
X1788702D01*
Y1656087*
X1791298*
X1927813Y1611095D02*
Y1613595D01*
X1930813*
Y1611095*
X1927813Y1609595D02*
Y1606999D01*
X1930813*
Y1609595*
X1960533Y1640084D02*
Y1637584D01*
X1957533*
Y1640084*
X1960533Y1641584D02*
Y1644180D01*
X1957533*
Y1641584*
X1937895Y1733905D02*
Y1736405D01*
X1940895*
Y1733905*
X1937895Y1732405D02*
Y1729809D01*
X1940895*
Y1732405*
X1896224Y1584419D02*
X1893724D01*
Y1587419*
X1896224*
X1897724Y1584419D02*
X1900320D01*
Y1587419*
X1897724*
X1922235Y1646921D02*
X1919735D01*
Y1649921*
X1922235*
X1923735Y1646921D02*
X1926331D01*
Y1649921*
X1923735*
X1897820Y1597399D02*
X1900320D01*
Y1594399*
X1897820*
X1896320Y1597399D02*
X1893724D01*
Y1594399*
X1896320*
X1926335Y1653303D02*
Y1650803D01*
X1923335*
Y1653303*
X1926335Y1654803D02*
Y1657399D01*
X1923335*
Y1654803*
X1918318Y1650768D02*
X1915818D01*
Y1653768*
X1918318*
X1919818Y1650768D02*
X1922413D01*
Y1653768*
X1919818*
X1922235Y1643074D02*
X1919735D01*
Y1646074*
X1922235*
X1923735Y1643074D02*
X1926331D01*
Y1646074*
X1923735*
X1953439Y1641680D02*
Y1644180D01*
X1956439*
Y1641680*
X1953439Y1640180D02*
Y1637584D01*
X1956439*
Y1640180*
X1930358Y1653303D02*
Y1650803D01*
X1927358*
Y1653303*
X1930358Y1654803D02*
Y1657399D01*
X1927358*
Y1654803*
X1824060Y1618072D02*
X1821560D01*
Y1621072*
X1824060*
X1825560Y1618072D02*
X1828156D01*
Y1621072*
X1825560*
X1822672Y1702820D02*
X1820172D01*
Y1705820*
X1822672*
X1824172Y1702820D02*
X1826767D01*
Y1705820*
X1824172*
X1834362Y1697264D02*
Y1694764D01*
X1831362*
Y1697264*
X1834362Y1698764D02*
Y1701360D01*
X1831362*
Y1698764*
X1825656Y1631034D02*
X1828156D01*
Y1628034*
X1825656*
X1824156Y1631034D02*
X1821560D01*
Y1628034*
X1824156*
X1946386Y1672430D02*
Y1669930D01*
X1943386*
Y1672430*
X1946386Y1673930D02*
Y1676526D01*
X1943386*
Y1673930*
X1830590Y1713659D02*
Y1711159D01*
X1827590*
Y1713659*
X1830590Y1715159D02*
Y1717755D01*
X1827590*
Y1715159*
X1834303Y1713603D02*
Y1711103D01*
X1831303*
Y1713603*
X1834303Y1715103D02*
Y1717699D01*
X1831303*
Y1715103*
X1823022Y1713651D02*
Y1711151D01*
X1820022*
Y1713651*
X1823022Y1715151D02*
Y1717746D01*
X1820022*
Y1715151*
X1826822Y1713659D02*
Y1711159D01*
X1823822*
Y1713659*
X1826822Y1715159D02*
Y1717755D01*
X1823822*
Y1715159*
X1878649Y1615557D02*
Y1613057D01*
X1875649*
Y1615557*
X1878649Y1617057D02*
Y1619653D01*
X1875649*
Y1617057*
X1893540Y1781349D02*
X1891040D01*
Y1784349*
X1893540*
X1895040Y1781349D02*
X1897636D01*
Y1784349*
X1895040*
X1821529Y1797650D02*
X1819029D01*
Y1800650*
X1821529*
X1823029Y1797650D02*
X1825625D01*
Y1800650*
X1823029*
X1821529Y1793715D02*
X1819029D01*
Y1796715*
X1821529*
X1823029Y1793715D02*
X1825625D01*
Y1796715*
X1823029*
X1897820Y1582473D02*
X1900320D01*
Y1579473*
X1897820*
X1896320Y1582473D02*
X1893724D01*
Y1579473*
X1896320*
G54D150*
X1942765Y1629431D02*
X1949365D01*
Y1632431*
X1942765*
Y1629431*
G54D151*
X1952796Y1730961D02*
X1956096D01*
X1952728Y1626864D02*
X1956028D01*
X1946222Y1730961D02*
X1942922D01*
X1954241Y1692390D02*
X1957541D01*
X1947636D02*
X1944336D01*
G54D155*
X1922060Y1738723D02*
X1915368D01*
X1916155Y1742464D02*
X1915368D01*
Y1731046*
X1916155*
X1921273Y1742464D02*
X1922060D01*
Y1731046*
X1921273*
X1908058Y1738723D02*
X1901366D01*
X1902153Y1742464D02*
X1901366D01*
Y1731046*
X1902153*
X1907271Y1742464D02*
X1908058D01*
Y1731046*
X1907271*
X1940027Y1621894D02*
X1946424D01*
Y1620122*
X1940027Y1611658D02*
X1946424D01*
Y1613430*
X1896059Y1779551D02*
X1902456D01*
Y1777779*
X1896059Y1769315D02*
X1902456D01*
Y1771087*
X1874438Y1764243D02*
Y1770640D01*
X1876210*
X1884674Y1764243D02*
Y1770640D01*
X1882902*
X1873306Y1794086D02*
Y1774586D01*
X1885806*
Y1794086*
X1873306*
G74*
X0Y0D02*
M02*
