*
*
G04 PADS 9.5 Build Number: 522968 generated Gerber (RS-274-X) file*
G04 PC Version=2.1*
*
%IN "LK02 Main board 3V0.pcb"*%
*
%MOIN*%
*
%FSLAX35Y35*%
*
*
*
*
G04 PC Standard Apertures*
*
*
G04 Thermal Relief Aperture macro.*
%AMTER*
1,1,$1,0,0*
1,0,$1-$2,0,0*
21,0,$3,$4,0,0,45*
21,0,$3,$4,0,0,135*
%
*
*
G04 Annular Aperture macro.*
%AMANN*
1,1,$1,0,0*
1,0,$2,0,0*
%
*
*
G04 Odd Aperture macro.*
%AMODD*
1,1,$1,0,0*
1,0,$1-0.005,0,0*
%
*
*
G04 PC Custom Aperture Macros*
*
*
*
*
*
*
G04 PC Aperture Table*
*
%ADD010C,0.001*%
%ADD031C,0.00394*%
%ADD034R,0.03X0.03*%
%ADD104R,0.03X0.03*%
%ADD106R,0.046X0.046*%
%ADD107R,0.046X0.06*%
%ADD115R,0.0474X0.04543*%
%ADD124R,0.08087X0.07299*%
%ADD131R,0.0415X0.07299*%
%ADD133R,0.04937X0.05331*%
%ADD142R,0.1163X0.07299*%
%ADD169R,0.04543X0.0474*%
%ADD182R,0.04X0.048*%
%ADD183R,0.048X0.04*%
%ADD204R,0.06906X0.06906*%
%ADD205C,0.06906*%
%ADD235R,0.07X0.06*%
%ADD238R,0.06X0.07*%
%ADD247C,0.07*%
%ADD248O,0.02575X0.03362*%
%ADD254R,0.03756X0.04937*%
%ADD255R,0.11X0.08874*%
%ADD256R,0.08874X0.05921*%
%ADD257R,0.05921X0.08874*%
%ADD258R,0.08874X0.11*%
*
*
*
*
G04 PC Circuitry*
G04 Layer Name LK02 Main board 3V0.pcb - circuitry*
%LPD*%
*
*
G04 PC Custom Flashes*
G04 Layer Name LK02 Main board 3V0.pcb - flashes*
%LPD*%
*
*
G04 PC Circuitry*
G04 Layer Name LK02 Main board 3V0.pcb - circuitry*
%LPD*%
*
G54D10*
G54D31*
G01X1770866Y1580709D02*
G75*
G03X1776772Y1574803I5906J-0D01*
G01X1963386*
G03X1969291Y1580709I-0J5906*
G01Y1801181*
G03X1963386Y1807087I-5905J0*
G01X1776772*
G03X1770866Y1801181I-0J-5906*
G01Y1580709*
X1789764Y1582677D02*
G03X1789764I-4331J0D01*
G01X1959055D02*
G03X1959055I-4331J0D01*
G01X1810354Y1671063D02*
G03X1810354I-7480J0D01*
G01X1789764Y1763780D02*
G03X1789764I-4331J0D01*
G01X1959055D02*
G03X1959055I-4331J0D01*
G54D34*
G01X1887490Y1685573D03*
Y1681754D03*
X1925273Y1620505D03*
Y1616686D03*
X1898932Y1590966D03*
X1895113D03*
X1826767Y1614642D03*
X1822948D03*
X1826767Y1624566D03*
X1822948D03*
G54D104*
X1793088Y1665597D03*
Y1661997D03*
X1948496Y1662563D03*
X1944896D03*
X1954378Y1751164D03*
Y1747564D03*
X1955857Y1713158D03*
Y1709558D03*
X1958439Y1668040D03*
Y1671640D03*
X1962911Y1639081D03*
Y1642681D03*
X1951021Y1642689D03*
Y1639089D03*
X1947171Y1642645D03*
Y1639045D03*
X1940081Y1671484D03*
Y1675084D03*
X1954691Y1675225D03*
Y1671625D03*
X1935073Y1731301D03*
Y1734901D03*
X1910782Y1747367D03*
Y1750967D03*
X1918739Y1718572D03*
Y1722172D03*
X1930915Y1731301D03*
Y1734901D03*
X1918697Y1757478D03*
Y1761078D03*
X1829144Y1699869D03*
Y1696269D03*
X1909787Y1636651D03*
X1913387D03*
X1867187Y1697902D03*
X1870787D03*
X1954499Y1741853D03*
X1958099D03*
X1944452D03*
X1940852D03*
X1825303Y1699869D03*
Y1696269D03*
X1917317Y1655903D03*
X1920917D03*
X1955960Y1703447D03*
X1959560D03*
X1945862D03*
X1942262D03*
X1891481Y1681923D03*
Y1685523D03*
X1866518Y1793192D03*
Y1789592D03*
X1843601Y1699869D03*
Y1696269D03*
X1843198Y1721443D03*
X1846798D03*
X1825109Y1721374D03*
X1821509D03*
X1821503Y1699869D03*
Y1696269D03*
X1847483Y1699869D03*
Y1696269D03*
X1908187Y1701810D03*
X1904587D03*
X1960670Y1624908D03*
Y1621308D03*
X1891452Y1720583D03*
Y1716983D03*
X1910782Y1739484D03*
Y1743084D03*
X1918732Y1753078D03*
Y1749478D03*
X1910782Y1731309D03*
Y1734909D03*
X1927824Y1753098D03*
X1924224D03*
X1929328Y1620393D03*
Y1616793D03*
X1914730Y1765769D03*
X1918330D03*
X1846906Y1716199D03*
Y1712599D03*
X1804986Y1657587D03*
X1801386D03*
X1902907Y1782832D03*
X1906507D03*
X1913081Y1782816D03*
X1916681D03*
X1793798Y1657587D03*
X1790198D03*
X1929313Y1612095D03*
Y1608495D03*
X1959033Y1639084D03*
Y1642684D03*
X1939395Y1734905D03*
Y1731305D03*
X1895224Y1585919D03*
X1898824D03*
X1921235Y1648421D03*
X1924835D03*
X1898820Y1595899D03*
X1895220D03*
X1924835Y1652303D03*
Y1655903D03*
X1917318Y1652268D03*
X1920918D03*
X1921235Y1644574D03*
X1924835D03*
X1954939Y1642680D03*
Y1639080D03*
X1928858Y1652303D03*
Y1655903D03*
X1823060Y1619572D03*
X1826660D03*
X1821672Y1704320D03*
X1825272D03*
X1832862Y1696264D03*
Y1699864D03*
X1826656Y1629534D03*
X1823056D03*
X1944886Y1671430D03*
Y1675030D03*
X1829090Y1712659D03*
Y1716259D03*
X1832803Y1712603D03*
Y1716203D03*
X1821522Y1712651D03*
Y1716251D03*
X1825322Y1712659D03*
Y1716259D03*
X1877149Y1614557D03*
Y1618157D03*
X1892540Y1782849D03*
X1896140D03*
X1820529Y1799150D03*
X1824129D03*
X1820529Y1795215D03*
X1824129D03*
X1944265Y1630931D03*
X1947865D03*
X1898820Y1580973D03*
X1895220D03*
G54D106*
X1931574Y1766634D03*
X1924074D03*
G54D107*
X1927824Y1758634D03*
G54D115*
X1936582Y1613036D03*
Y1620516D03*
X1946424Y1616776D03*
X1892614Y1770693D03*
Y1778173D03*
X1902456Y1774433D03*
G54D124*
X1902910Y1790023D03*
Y1801047D03*
X1913113Y1790065D03*
Y1801089D03*
X1892540Y1789830D03*
Y1800854D03*
G54D131*
X1918714Y1730062D03*
Y1743448D03*
X1904712Y1730062D03*
Y1743448D03*
G54D133*
X1954496Y1734261D03*
Y1727568D03*
X1954428Y1630164D03*
Y1623471D03*
X1944522Y1727661D03*
Y1734354D03*
X1955941Y1695690D03*
Y1688997D03*
X1945936Y1689090D03*
Y1695783D03*
G54D142*
X1879556Y1789848D03*
Y1778824D03*
G54D169*
X1883296Y1760798D03*
X1875816D03*
X1879556Y1770640D03*
G54D182*
X1963063Y1668081D03*
Y1674281D03*
X1923512Y1585981D03*
Y1592181D03*
X1950138Y1675255D03*
Y1669055D03*
X1852859Y1619607D03*
Y1625807D03*
G54D183*
X1946472Y1596590D03*
X1940272D03*
G54D204*
X1777974Y1708884D03*
X1777858Y1750862D03*
G54D205*
X1777974Y1698884D03*
Y1688884D03*
Y1678884D03*
X1777858Y1740862D03*
Y1730862D03*
Y1720862D03*
G54D235*
X1946432Y1604040D03*
X1937432D03*
G54D238*
X1916910Y1585990D03*
Y1594990D03*
X1916828Y1614331D03*
Y1605331D03*
X1846217Y1619374D03*
Y1628374D03*
X1881163Y1683250D03*
Y1674250D03*
X1824281Y1788415D03*
Y1779415D03*
G54D247*
X1779425Y1615921D03*
X1810921D03*
Y1639543D03*
X1779425D03*
G54D248*
X1918755Y1702748D03*
X1922495D03*
X1926235D03*
Y1690936D03*
X1922495D03*
X1918755D03*
X1922495Y1696842D03*
G54D254*
X1877186Y1609110D03*
X1885060D03*
X1881123Y1599661D03*
G54D255*
X1779389Y1650273D03*
Y1666415D03*
X1815228Y1599737D03*
Y1583595D03*
X1828028Y1599737D03*
Y1583595D03*
X1841233Y1599737D03*
Y1583595D03*
X1854365Y1599737D03*
Y1583595D03*
G54D256*
X1802633Y1601166D03*
X1802833Y1586366D03*
X1866695Y1584929D03*
X1866495Y1599729D03*
G54D257*
X1790203Y1650021D03*
X1805003Y1650221D03*
G54D258*
X1939691Y1779246D03*
X1923549D03*
G74*
X0Y0D02*
M02*
