*
*
G04 PADS 9.5 Build Number: 522968 generated Gerber (RS-274-X) file*
G04 PC Version=2.1*
*
%IN "RX_3V0.pcb"*%
*
%MOIN*%
*
%FSLAX35Y35*%
*
*
*
*
G04 PC Standard Apertures*
*
*
G04 Thermal Relief Aperture macro.*
%AMTER*
1,1,$1,0,0*
1,0,$1-$2,0,0*
21,0,$3,$4,0,0,45*
21,0,$3,$4,0,0,135*
%
*
*
G04 Annular Aperture macro.*
%AMANN*
1,1,$1,0,0*
1,0,$2,0,0*
%
*
*
G04 Odd Aperture macro.*
%AMODD*
1,1,$1,0,0*
1,0,$1-0.005,0,0*
%
*
*
G04 PC Custom Aperture Macros*
*
*
*
*
*
*
G04 PC Aperture Table*
*
%ADD010C,0.01*%
%ADD048C,0.001*%
%ADD063C,0.01969*%
%ADD068C,0.025*%
%ADD092C,0.00787*%
*
*
*
*
G04 PC Circuitry*
G04 Layer Name RX_3V0.pcb - circuitry*
%LPD*%
*
*
G04 PC Custom Flashes*
G04 Layer Name RX_3V0.pcb - flashes*
%LPD*%
*
*
G04 PC Circuitry*
G04 Layer Name RX_3V0.pcb - circuitry*
%LPD*%
*
G54D10*
G01X1994240Y1625878D02*
X1996075D01*
Y1617783*
X1994240*
Y1625878*
Y1624982D02*
X1996075D01*
X1994240Y1624082D02*
X1996075D01*
X1994240Y1623182D02*
X1996075D01*
X1994240Y1622282D02*
X1996075D01*
X1994240Y1621382D02*
X1996075D01*
X1994240Y1620482D02*
X1996075D01*
X1994240Y1619582D02*
X1996075D01*
X1994240Y1618682D02*
X1996075D01*
X2007498Y1605906D02*
G75*
G03X2007498I-2341J0D01*
G01X1997695Y1612638D02*
G03X1997695I-2341J0D01*
G01X2044185Y1555512D02*
Y1644488D01*
G03X2041339Y1647335I-2846J0*
G01X1958661*
G03X1955815Y1644488I0J-2847*
G01Y1555512*
G03X1958661Y1552665I2846J-0*
G01X2041339*
G03X2044185Y1555512I-0J2847*
G01X2029516Y1621024D02*
Y1571614D01*
X2028908Y1570147D02*
G03X2029516Y1571614I-1467J1467D01*
G01X2028908Y1570147D02*
X2023772Y1565011D01*
G03X2023656Y1564829I354J-353*
G01X2020655Y1567829D02*
G03X2023656Y1564829I802J-2199D01*
G01X2020655Y1567829D02*
G03X2020838Y1567945I-171J470D01*
G01X2025220Y1572327*
G03X2025366Y1572681I-354J354*
G01Y1617201*
G03X2024543Y1617583I-500J0*
G01X2023003Y1617030D02*
G03X2024543Y1617583I28J2340D01*
G01X2023003Y1617030D02*
G03X2022644Y1616883I-6J-500D01*
G01X2017733Y1611973*
G03X2017587Y1611619I354J-354*
G01Y1609921*
G03X2018472Y1609602I500J-0*
G01Y1606619D02*
G03Y1609602I1804J1491D01*
G01Y1606619D02*
G03X2017587Y1606300I-385J-319D01*
G01Y1576722*
X2017152Y1575673D02*
G03X2017587Y1576722I-1050J1049D01*
G01X2017152Y1575673D02*
X2006335Y1564856D01*
X2005286Y1564421D02*
G03X2006335Y1564856I-0J1485D01*
G01X2005286Y1564421D02*
X1979213D01*
X1978163Y1564856D02*
G03X1979213Y1564421I1050J1050D01*
G01X1978163Y1564856D02*
X1978144Y1564875D01*
G03X1977784Y1565022I-354J-353*
G01X1979628Y1568767D02*
G03X1977784Y1565022I-1872J-1405D01*
G01X1979628Y1568767D02*
G03X1980501Y1568905I400J300D01*
G01X1983705Y1570271D02*
G03X1980501Y1568905I-988J-2121D01*
G01X1983705Y1570271D02*
G03X1983916Y1570224I211J453D01*
G01X2003094*
G03X2003533Y1570486I-0J500*
G01X2004683Y1571527D02*
G03X2003533Y1570486I908J-2157D01*
G01X2004683Y1571527D02*
G03X2004842Y1571635I-194J461D01*
G01X2011519Y1578311*
G03X2011665Y1578665I-354J354*
G01Y1606532*
G03X2011519Y1606885I-500J-0*
G01X2002279Y1616125*
G03X2001926Y1616272I-353J-353*
G01X1996643*
G03X1996507Y1616253I0J-500*
G01X1996120Y1616194D02*
G03X1996507Y1616253I-45J1589D01*
G01X1996120Y1616194D02*
G03X1995955Y1616161I14J-500D01*
G01X1994271Y1616164D02*
G03X1995955Y1616161I847J2182D01*
G01X1994271Y1616164D02*
G03X1994126Y1616197I-180J-466D01*
G01X1992650Y1617783D02*
G03X1994126Y1616197I1590J0D01*
G01X1992650Y1617783D02*
Y1625878D01*
X1994240Y1627469D02*
G03X1992650Y1625878I0J-1591D01*
G01X1994240Y1627469D02*
X1996075D01*
X1997665Y1625878D02*
G03X1996075Y1627469I-1590J-0D01*
G01X1997665Y1625878D02*
Y1620921D01*
G03X1998165Y1620421I500J0*
G01X2002992*
X2004459Y1619814D02*
G03X2002992Y1620421I-1467J-1468D01*
G01X2004459Y1619814D02*
X2013765Y1610508D01*
G03X2014618Y1610862I353J354*
G01Y1612441*
X2015053Y1613490D02*
G03X2014618Y1612441I1049J-1049D01*
G01X2015053Y1613490D02*
X2020545Y1618982D01*
G03X2020691Y1619342I-354J354*
G01X2022709Y1621688D02*
G03X2020691Y1619342I322J-2318D01*
G01X2022709Y1621688D02*
G03X2022993Y1622537I-69J496D01*
G01X2020941Y1624590*
G03X2020587Y1624736I-354J-354*
G01X2004192*
G03X2003981Y1624689I-0J-500*
G01Y1628933D02*
G03Y1624689I-989J-2122D01*
G01Y1628933D02*
G03X2004192Y1628886I211J453D01*
G01X2021654*
X2023121Y1628278D02*
G03X2021654Y1628886I-1467J-1467D01*
G01X2023121Y1628278D02*
X2028908Y1622491D01*
X2029516Y1621024D02*
G03X2028908Y1622491I-2075J-0D01*
G01X1987943Y1601052D02*
G03X1990893Y1604412I955J2137D01*
G01X1987943Y1601052D02*
G03X1987520Y1601045I-204J-457D01*
G01X1984412Y1604215D02*
G03X1987520Y1601045I2084J-1065D01*
G01X1984412Y1604215D02*
G03X1984391Y1604707I-445J228D01*
G01X1987367Y1608066D02*
G03X1984391Y1604707I-989J-2121D01*
G01X1987367Y1608066D02*
G03X1987790I212J453D01*
G01X1990872Y1604897D02*
G03X1987790Y1608066I-2092J1048D01*
G01X1990872Y1604897D02*
G03X1990893Y1604412I448J-224D01*
G01X2007498Y1605906D02*
G03X2007498I-2341J0D01*
G01X1997695Y1612638D02*
G03X1997695I-2341J0D01*
G01X1955815Y1643786D02*
X2044185D01*
X1955815Y1642886D02*
X2044185D01*
X1955815Y1641986D02*
X2044185D01*
X1955815Y1641086D02*
X2044185D01*
X1955815Y1640186D02*
X2044185D01*
X1955815Y1639286D02*
X2044185D01*
X1955815Y1638386D02*
X2044185D01*
X1955815Y1637486D02*
X2044185D01*
X1955815Y1636586D02*
X2044185D01*
X1955815Y1635686D02*
X2044185D01*
X1955815Y1634786D02*
X2044185D01*
X1955815Y1633886D02*
X2044185D01*
X1955815Y1632986D02*
X2044185D01*
X1955815Y1632086D02*
X2044185D01*
X1955815Y1631186D02*
X2044185D01*
X1955815Y1630286D02*
X2044185D01*
X1955815Y1629386D02*
X2044185D01*
X2022878Y1628486D02*
X2044185D01*
X2023813Y1627586D02*
X2044185D01*
X2024713Y1626686D02*
X2044185D01*
X2025613Y1625786D02*
X2044185D01*
X2026513Y1624886D02*
X2044185D01*
X2027413Y1623986D02*
X2044185D01*
X2028313Y1623086D02*
X2044185D01*
X2029160Y1622186D02*
X2044185D01*
X2029499Y1621286D02*
X2044185D01*
X2029516Y1620386D02*
X2044185D01*
X2029516Y1619486D02*
X2044185D01*
X2029516Y1618586D02*
X2044185D01*
X2029516Y1617686D02*
X2044185D01*
X2029516Y1616786D02*
X2044185D01*
X2029516Y1615886D02*
X2044185D01*
X2029516Y1614986D02*
X2044185D01*
X2029516Y1614086D02*
X2044185D01*
X2029516Y1613186D02*
X2044185D01*
X2029516Y1612286D02*
X2044185D01*
X2029516Y1611386D02*
X2044185D01*
X2029516Y1610486D02*
X2044185D01*
X2029516Y1609586D02*
X2044185D01*
X2029516Y1608686D02*
X2044185D01*
X2029516Y1607786D02*
X2044185D01*
X2029516Y1606886D02*
X2044185D01*
X2029516Y1605986D02*
X2044185D01*
X2029516Y1605086D02*
X2044185D01*
X2029516Y1604186D02*
X2044185D01*
X2029516Y1603286D02*
X2044185D01*
X2029516Y1602386D02*
X2044185D01*
X2029516Y1601486D02*
X2044185D01*
X2029516Y1600586D02*
X2044185D01*
X2029516Y1599686D02*
X2044185D01*
X2029516Y1598786D02*
X2044185D01*
X2029516Y1597886D02*
X2044185D01*
X2029516Y1596986D02*
X2044185D01*
X2029516Y1596086D02*
X2044185D01*
X2029516Y1595186D02*
X2044185D01*
X2029516Y1594286D02*
X2044185D01*
X2029516Y1593386D02*
X2044185D01*
X2029516Y1592486D02*
X2044185D01*
X2029516Y1591586D02*
X2044185D01*
X2029516Y1590686D02*
X2044185D01*
X2029516Y1589786D02*
X2044185D01*
X2029516Y1588886D02*
X2044185D01*
X2029516Y1587986D02*
X2044185D01*
X2029516Y1587086D02*
X2044185D01*
X2029516Y1586186D02*
X2044185D01*
X2029516Y1585286D02*
X2044185D01*
X2029516Y1584386D02*
X2044185D01*
X2029516Y1583486D02*
X2044185D01*
X2029516Y1582586D02*
X2044185D01*
X2029516Y1581686D02*
X2044185D01*
X2029516Y1580786D02*
X2044185D01*
X2029516Y1579886D02*
X2044185D01*
X2029516Y1578986D02*
X2044185D01*
X2029516Y1578086D02*
X2044185D01*
X2029516Y1577186D02*
X2044185D01*
X2029516Y1576286D02*
X2044185D01*
X2029516Y1575386D02*
X2044185D01*
X2029516Y1574486D02*
X2044185D01*
X2029516Y1573586D02*
X2044185D01*
X2029516Y1572686D02*
X2044185D01*
X2029516Y1571786D02*
X2044185D01*
X2029384Y1570886D02*
X2044185D01*
X2028747Y1569986D02*
X2044185D01*
X2027847Y1569086D02*
X2044185D01*
X2026947Y1568186D02*
X2044185D01*
X2026047Y1567286D02*
X2044185D01*
X2025147Y1566386D02*
X2044185D01*
X2024247Y1565486D02*
X2044185D01*
X2023552Y1564586D02*
X2044185D01*
X2022760Y1563686D02*
X2044185D01*
X1955815Y1562786D02*
X2044185D01*
X1955815Y1561886D02*
X2044185D01*
X1955815Y1560986D02*
X2044185D01*
X1955815Y1560086D02*
X2044185D01*
X1955815Y1559186D02*
X2044185D01*
X1955815Y1558286D02*
X2044185D01*
X1955815Y1557386D02*
X2044185D01*
X1955815Y1556486D02*
X2044185D01*
X1955815Y1555586D02*
X2044185D01*
X1955822Y1644686D02*
X2044178D01*
X1955937Y1554686D02*
X2044063D01*
X1956035Y1645586D02*
X2043965D01*
X1956398Y1553786D02*
X2043602D01*
X1956634Y1646486D02*
X2043366D01*
X1957562Y1552886D02*
X2042438D01*
X2022547Y1616786D02*
X2025366D01*
X2021647Y1615886D02*
X2025366D01*
X2020747Y1614986D02*
X2025366D01*
X2019847Y1614086D02*
X2025366D01*
X2018947Y1613186D02*
X2025366D01*
X2018047Y1612286D02*
X2025366D01*
X2017587Y1611386D02*
X2025366D01*
X2017587Y1610486D02*
X2025366D01*
X2022092Y1609586D02*
X2025366D01*
X2022544Y1608686D02*
X2025366D01*
X2022594Y1607786D02*
X2025366D01*
X2022271Y1606886D02*
X2025366D01*
X2021259Y1605986D02*
X2025366D01*
X2017587Y1605086D02*
X2025366D01*
X2017587Y1604186D02*
X2025366D01*
X2017587Y1603286D02*
X2025366D01*
X2017587Y1602386D02*
X2025366D01*
X2017587Y1601486D02*
X2025366D01*
X2017587Y1600586D02*
X2025366D01*
X2017587Y1599686D02*
X2025366D01*
X2017587Y1598786D02*
X2025366D01*
X2017587Y1597886D02*
X2025366D01*
X2017587Y1596986D02*
X2025366D01*
X2017587Y1596086D02*
X2025366D01*
X2017587Y1595186D02*
X2025366D01*
X2017587Y1594286D02*
X2025366D01*
X2017587Y1593386D02*
X2025366D01*
X2017587Y1592486D02*
X2025366D01*
X2017587Y1591586D02*
X2025366D01*
X2017587Y1590686D02*
X2025366D01*
X2017587Y1589786D02*
X2025366D01*
X2017587Y1588886D02*
X2025366D01*
X2017587Y1587986D02*
X2025366D01*
X2017587Y1587086D02*
X2025366D01*
X2017587Y1586186D02*
X2025366D01*
X2017587Y1585286D02*
X2025366D01*
X2017587Y1584386D02*
X2025366D01*
X2017587Y1583486D02*
X2025366D01*
X2017587Y1582586D02*
X2025366D01*
X2017587Y1581686D02*
X2025366D01*
X2017587Y1580786D02*
X2025366D01*
X2017587Y1579886D02*
X2025366D01*
X2017587Y1578986D02*
X2025366D01*
X2017587Y1578086D02*
X2025366D01*
X2017587Y1577186D02*
X2025366D01*
X2017521Y1576286D02*
X2025366D01*
X2016865Y1575386D02*
X2025366D01*
X2015965Y1574486D02*
X2025366D01*
X2015065Y1573586D02*
X2025366D01*
X2014165Y1572686D02*
X2025366D01*
X2024743Y1617686D02*
X2024989D01*
X2013265Y1571786D02*
X2024679D01*
X2012365Y1570886D02*
X2023779D01*
X1997665Y1622186D02*
X2023140D01*
X2011465Y1569986D02*
X2022879D01*
X1997665Y1623086D02*
X2022444D01*
X2010565Y1569086D02*
X2021979D01*
X1997665Y1621286D02*
X2021687D01*
X1997665Y1623986D02*
X2021544D01*
X2009665Y1568186D02*
X2021079D01*
X2003373Y1620386D02*
X2020923D01*
X2004787Y1619486D02*
X2020694D01*
X1955815Y1563686D02*
X2020153D01*
X2005687Y1618586D02*
X2020148D01*
X2008765Y1567286D02*
X2019803D01*
X2005966Y1564586D02*
X2019362D01*
X2017587Y1605986D02*
X2019293D01*
X2006587Y1617686D02*
X2019248D01*
X2007865Y1566386D02*
X2019242D01*
X2006965Y1565486D02*
X2019121D01*
X2017715Y1609586D02*
X2018458D01*
X2007487Y1616786D02*
X2018348D01*
X2008387Y1615886D02*
X2017448D01*
X2009287Y1614986D02*
X2016548D01*
X2010187Y1614086D02*
X2015648D01*
X2011087Y1613186D02*
X2014819D01*
X2011987Y1612286D02*
X2014618D01*
X2012887Y1611386D02*
X2014618D01*
X2013788Y1610486D02*
X2014448D01*
X2007497Y1605986D02*
X2011665D01*
X2007350Y1605086D02*
X2011665D01*
X2006746Y1604186D02*
X2011665D01*
X1991236Y1603286D02*
X2011665D01*
X1991096Y1602386D02*
X2011665D01*
X1990503Y1601486D02*
X2011665D01*
X1955815Y1600586D02*
X2011665D01*
X1955815Y1599686D02*
X2011665D01*
X1955815Y1598786D02*
X2011665D01*
X1955815Y1597886D02*
X2011665D01*
X1955815Y1596986D02*
X2011665D01*
X1955815Y1596086D02*
X2011665D01*
X1955815Y1595186D02*
X2011665D01*
X1955815Y1594286D02*
X2011665D01*
X1955815Y1593386D02*
X2011665D01*
X1955815Y1592486D02*
X2011665D01*
X1955815Y1591586D02*
X2011665D01*
X1955815Y1590686D02*
X2011665D01*
X1955815Y1589786D02*
X2011665D01*
X1955815Y1588886D02*
X2011665D01*
X1955815Y1587986D02*
X2011665D01*
X1955815Y1587086D02*
X2011665D01*
X1955815Y1586186D02*
X2011665D01*
X1955815Y1585286D02*
X2011665D01*
X1955815Y1584386D02*
X2011665D01*
X1955815Y1583486D02*
X2011665D01*
X1955815Y1582586D02*
X2011665D01*
X1955815Y1581686D02*
X2011665D01*
X1955815Y1580786D02*
X2011665D01*
X1955815Y1579886D02*
X2011665D01*
X1955815Y1578986D02*
X2011665D01*
X2007283Y1606886D02*
X2011518D01*
X1955815Y1578086D02*
X2011294D01*
X2006551Y1607786D02*
X2010618D01*
X1955815Y1577186D02*
X2010394D01*
X1955815Y1608686D02*
X2009718D01*
X1955815Y1576286D02*
X2009494D01*
X1955815Y1609586D02*
X2008818D01*
X1955815Y1575386D02*
X2008594D01*
X1996275Y1610486D02*
X2007918D01*
X1955815Y1574486D02*
X2007694D01*
X1997332Y1611386D02*
X2007018D01*
X1955815Y1573586D02*
X2006794D01*
X1997668Y1612286D02*
X2006118D01*
X1955815Y1572686D02*
X2005894D01*
X1997630Y1613186D02*
X2005218D01*
X1955815Y1571786D02*
X2004994D01*
X1997193Y1614086D02*
X2004318D01*
X1955815Y1570886D02*
X2003807D01*
X1990225Y1607786D02*
X2003764D01*
X1991015Y1604186D02*
X2003569D01*
X1955815Y1614986D02*
X2003418D01*
X1990923Y1606886D02*
X2003032D01*
X1990957Y1605086D02*
X2002965D01*
X1991120Y1605986D02*
X2002818D01*
X1955815Y1615886D02*
X2002518D01*
X1997665Y1624886D02*
X2001661D01*
X1955815Y1628486D02*
X2001357D01*
X1997665Y1625786D02*
X2000888D01*
X1955815Y1627586D02*
X2000784D01*
X1997445Y1626686D02*
X2000655D01*
X1955815Y1610486D02*
X1994433D01*
X1955815Y1614086D02*
X1993516D01*
X1955815Y1611386D02*
X1993377D01*
X1955815Y1613186D02*
X1993079D01*
X1955815Y1612286D02*
X1993040D01*
X1955815Y1616786D02*
X1993001D01*
X1955815Y1626686D02*
X1992870D01*
X1955815Y1617686D02*
X1992653D01*
X1955815Y1625786D02*
X1992650D01*
X1955815Y1624886D02*
X1992650D01*
X1955815Y1623986D02*
X1992650D01*
X1955815Y1623086D02*
X1992650D01*
X1955815Y1622186D02*
X1992650D01*
X1955815Y1621286D02*
X1992650D01*
X1955815Y1620386D02*
X1992650D01*
X1955815Y1619486D02*
X1992650D01*
X1955815Y1618586D02*
X1992650D01*
X1955815Y1607786D02*
X1984933D01*
X1955815Y1601486D02*
X1984850D01*
X1955815Y1604186D02*
X1984397D01*
X1955815Y1602386D02*
X1984284D01*
X1955815Y1606886D02*
X1984235D01*
X1955815Y1605086D02*
X1984201D01*
X1955815Y1603286D02*
X1984159D01*
X1955815Y1605986D02*
X1984038D01*
X1955815Y1569986D02*
X1981265D01*
X1979339Y1569086D02*
X1980571D01*
X1955815Y1564586D02*
X1978533D01*
X1955815Y1565486D02*
X1976356D01*
X1955815Y1569086D02*
X1976173D01*
X1955815Y1566386D02*
X1975629D01*
X1955815Y1568186D02*
X1975565D01*
X1955815Y1567286D02*
X1975417D01*
X1954724Y1555512D02*
G03X1958661Y1551575I3937J-0D01*
G01X1954724Y1555512D02*
Y1644488D01*
X1958661Y1648425D02*
G03X1954724Y1644488I0J-3937D01*
G01X1958661Y1648425D02*
X2041339D01*
X2045276Y1644488D02*
G03X2041339Y1648425I-3937J0D01*
G01X2045276Y1644488D02*
Y1555512D01*
X2041339Y1551575D02*
G03X2045276Y1555512I-0J3937D01*
G01X2041339Y1551575D02*
X1958661D01*
G54D48*
G54D63*
X2005591Y1569370D02*
X2005551Y1569409D01*
X2013740Y1577598*
Y1607598*
X1982717Y1568150D02*
X2004370D01*
X2005591Y1569370*
X2021457Y1565630D02*
X2027441Y1571614D01*
X1995118Y1618346D02*
X2002992D01*
X2013740Y1607598*
X2002992Y1626811D02*
X2021654D01*
X2027441Y1621024*
Y1571614*
G54D68*
X1977756Y1567362D03*
X1989213Y1562047D03*
X2001969Y1561969D03*
X2014646D03*
X1982717Y1568150D03*
X2005591Y1569370D03*
X2021457Y1565630D03*
X1967953Y1592756D03*
X2005157Y1605906D03*
X1988898Y1603189D03*
X1986496Y1603150D03*
X1986378Y1605945D03*
X1988780D03*
X1995354Y1612638D03*
X2002559Y1586378D03*
X1988780Y1592835D03*
X1995118Y1618346D03*
X2023031Y1619370D03*
X2020276Y1608110D03*
X2002992Y1626811D03*
X1995079Y1625000D03*
X1995039Y1621535D03*
G54D92*
X1977756Y1567362D02*
X1979213Y1565906D01*
X2005286*
X2016102Y1576722*
Y1612441*
X2023031Y1619370*
G74*
X0Y0D02*
M02*
