%
T1C.012F095S3
X013449Y011047
X012303Y011579
X012799Y011657
X011323Y014118
X013406Y014126
X013177Y015157
X013417Y015161
X013406Y015437
X013165Y015437
X014827Y017524
X014035Y017343
X014031Y016996
X014039Y016677
X014063Y016106
X015043Y015433
X014783Y01348
X015087Y01178
X014724Y011039
X015992Y011039
X016673Y011406
X016555Y015654
X016831Y01678
M30
