*
*
G04 PADS 9.5 Build Number: 522968 generated Gerber (RS-274-X) file*
G04 PC Version=2.1*
*
%IN "RX_3V0.pcb"*%
*
%MOIN*%
*
%FSLAX35Y35*%
*
*
*
*
G04 PC Standard Apertures*
*
*
G04 Thermal Relief Aperture macro.*
%AMTER*
1,1,$1,0,0*
1,0,$1-$2,0,0*
21,0,$3,$4,0,0,45*
21,0,$3,$4,0,0,135*
%
*
*
G04 Annular Aperture macro.*
%AMANN*
1,1,$1,0,0*
1,0,$2,0,0*
%
*
*
G04 Odd Aperture macro.*
%AMODD*
1,1,$1,0,0*
1,0,$1-0.005,0,0*
%
*
*
G04 PC Custom Aperture Macros*
*
*
*
*
*
*
G04 PC Aperture Table*
*
%ADD010C,0.01*%
%ADD047C,0.005*%
%ADD048C,0.001*%
%ADD087C,0.004*%
%ADD090C,0.00787*%
%ADD091C,0.00394*%
%ADD092C,0.00787*%
*
*
*
*
G04 PC Circuitry*
G04 Layer Name RX_3V0.pcb - circuitry*
%LPD*%
*
*
G04 PC Custom Flashes*
G04 Layer Name RX_3V0.pcb - flashes*
%LPD*%
*
*
G04 PC Circuitry*
G04 Layer Name RX_3V0.pcb - circuitry*
%LPD*%
*
G54D10*
G01X2015260Y1610663D02*
Y1599896D01*
X2009853*
Y1610663*
X2015260*
X2015181Y1595820D02*
Y1585054D01*
X2009774*
Y1595820*
X2015181*
X2030890Y1591923D02*
Y1581156D01*
X2025483*
Y1591923*
X2030890*
X2034206Y1563953D02*
X2023440D01*
Y1569360*
X2034206*
Y1563953*
X1954724Y1555512D02*
G75*
G03X1958661Y1551575I3937J-0D01*
G01X1954724Y1555512D02*
Y1644488D01*
X1958661Y1648425D02*
G03X1954724Y1644488I0J-3937D01*
G01X1958661Y1648425D02*
X2041339D01*
X2045276Y1644488D02*
G03X2041339Y1648425I-3937J0D01*
G01X2045276Y1644488D02*
Y1555512D01*
X2041339Y1551575D02*
G03X2045276Y1555512I-0J3937D01*
G01X2041339Y1551575D02*
X1958661D01*
G54D47*
X2003953Y1624413D02*
X2001453D01*
Y1621413*
X2003953*
X2005453Y1624413D02*
X2008049D01*
Y1621413*
X2005453*
X1993744Y1615299D02*
Y1617799D01*
X1990744*
Y1615299*
X1993744Y1613799D02*
Y1611203D01*
X1990744*
Y1613799*
X2003815Y1577142D02*
Y1574642D01*
X2006815*
Y1577142*
X2003815Y1578642D02*
Y1581238D01*
X2006815*
Y1578642*
X2008677Y1616618D02*
X2006177D01*
Y1613618*
X2008677*
X2010177Y1616618D02*
X2012773D01*
Y1613618*
X2010177*
X2021972Y1614276D02*
Y1616776D01*
X2018972*
Y1614276*
X2021972Y1612776D02*
Y1610180D01*
X2018972*
Y1612776*
X2012583Y1578264D02*
X2015083D01*
Y1581264*
X2012583*
X2011083Y1578264D02*
X2008487D01*
Y1581264*
X2011083*
X2018874Y1563469D02*
X2016374D01*
Y1560469*
X2018874*
X2020374Y1563469D02*
X2022970D01*
Y1560469*
X2020374*
X2012752Y1572614D02*
Y1570114D01*
X2015752*
Y1572614*
X2012752Y1574114D02*
Y1576710D01*
X2015752*
Y1574114*
X1974917Y1615843D02*
Y1613343D01*
X1977917*
Y1615843*
X1974917Y1617343D02*
Y1619938D01*
X1977917*
Y1617343*
X1979000Y1608067D02*
X1981500D01*
Y1611067*
X1979000*
X1977500Y1608067D02*
X1974904D01*
Y1611067*
X1977500*
X2020173Y1624413D02*
X2017673D01*
Y1621413*
X2020173*
X2021673Y1624413D02*
X2024269D01*
Y1621413*
X2021673*
X2011827Y1624374D02*
X2009327D01*
Y1621374*
X2011827*
X2013327Y1624374D02*
X2015923D01*
Y1621374*
X2013327*
X2001059Y1591669D02*
Y1589169D01*
X2004059*
Y1591669*
X2001059Y1593169D02*
Y1595765D01*
X2004059*
Y1593169*
X2029079Y1574957D02*
X2031579D01*
Y1577957*
X2029079*
X2027579Y1574957D02*
X2024983D01*
Y1577957*
X2027579*
X1999701Y1617799D02*
X1997201D01*
Y1614799*
X1999701*
X2001201Y1617799D02*
X2003797D01*
Y1614799*
X2001201*
X1999701Y1613469D02*
X1997201D01*
Y1610469*
X1999701*
X2001201Y1613469D02*
X2003797D01*
Y1610469*
X2001201*
X2011500Y1574276D02*
Y1576776D01*
X2008500*
Y1574276*
X2011500Y1572776D02*
Y1570180D01*
X2008500*
Y1572776*
X2007012Y1564591D02*
Y1567091D01*
X2004012*
Y1564591*
X2007012Y1563091D02*
Y1560495D01*
X2004012*
Y1563091*
X2011264Y1564591D02*
Y1567091D01*
X2008264*
Y1564591*
X2011264Y1563091D02*
Y1560495D01*
X2008264*
Y1563091*
X1986610Y1613677D02*
Y1611177D01*
X1989610*
Y1613677*
X1986610Y1615177D02*
Y1617773D01*
X1989610*
Y1615177*
G54D48*
G54D87*
X1981188Y1563547D02*
X1987788D01*
Y1560547*
X1981188*
Y1563547*
G54D90*
X1977126Y1597126D02*
Y1599488D01*
X1970827*
Y1597126*
X1977126Y1598740D02*
X1970827D01*
X1985669Y1597165D02*
Y1599528D01*
X1979370*
Y1597165*
X1985669Y1598780D02*
X1979370D01*
G54D91*
X2011000Y1630189D02*
X2015000D01*
Y1632189*
Y1644189D02*
Y1646189D01*
X2011000*
X1989000Y1630189D02*
X1985000D01*
Y1632189*
Y1644189D02*
Y1646189D01*
X1989000*
G54D92*
X1977283Y1584921D02*
X1982968D01*
Y1583666*
X1984592*
Y1584921*
X1990276*
Y1564843*
X1977283*
Y1584921*
X2014488Y1611063D02*
X2010551D01*
Y1599252*
X2014488*
Y1611063*
X2014409Y1596220D02*
X2010472D01*
Y1584409*
X2014409*
Y1596220*
X2030118Y1592323D02*
X2026181D01*
Y1580512*
X2030118*
Y1592323*
X2034606Y1564724D02*
Y1568661D01*
X2022795*
Y1564724*
X2034606*
X2038339Y1611978D02*
Y1640778D01*
X2044339*
Y1611978*
X2038339*
X2038239D02*
Y1640778D01*
X2044239*
Y1611978*
X2038239*
X2038339Y1564734D02*
Y1593534D01*
X2044339*
Y1564734*
X2038339*
X2038239D02*
Y1593534D01*
X2044239*
Y1564734*
X2038239*
X1985600Y1558512D02*
X2014400D01*
Y1552512*
X1985600*
Y1558512*
Y1558612D02*
X2014400D01*
Y1552612*
X1985600*
Y1558612*
X1955661Y1564734D02*
Y1593534D01*
X1961661*
Y1564734*
X1955661*
X1955561D02*
Y1593534D01*
X1961561*
Y1564734*
X1955561*
X1955661Y1611978D02*
Y1640778D01*
X1961661*
Y1611978*
X1955661*
X1955561D02*
Y1640778D01*
X1961561*
Y1611978*
X1955561*
G74*
X0Y0D02*
M02*
