*
*
G04 PADS 9.5 Build Number: 522968 generated Gerber (RS-274-X) file*
G04 PC Version=2.1*
*
%IN "DB10_CON_1V0.pcb"*%
*
%MOIN*%
*
%FSLAX35Y35*%
*
*
*
*
G04 PC Standard Apertures*
*
*
G04 Thermal Relief Aperture macro.*
%AMTER*
1,1,$1,0,0*
1,0,$1-$2,0,0*
21,0,$3,$4,0,0,45*
21,0,$3,$4,0,0,135*
%
*
*
G04 Annular Aperture macro.*
%AMANN*
1,1,$1,0,0*
1,0,$2,0,0*
%
*
*
G04 Odd Aperture macro.*
%AMODD*
1,1,$1,0,0*
1,0,$1-0.005,0,0*
%
*
*
G04 PC Custom Aperture Macros*
*
*
*
*
*
*
G04 PC Aperture Table*
*
%ADD032C,0.00984*%
%ADD035C,0.01969*%
%ADD040C,0.01*%
%ADD052C,0.001*%
%ADD317C,0.08268*%
*
*
*
*
G04 PC Circuitry*
G04 Layer Name DB10_CON_1V0.pcb - circuitry*
%LPD*%
*
*
G04 PC Custom Flashes*
G04 Layer Name DB10_CON_1V0.pcb - flashes*
%LPD*%
*
*
G04 PC Circuitry*
G04 Layer Name DB10_CON_1V0.pcb - circuitry*
%LPD*%
*
G54D32*
G01X2005913Y1587598D02*
Y1614687D01*
X2002500Y1618100*
X2005815Y1587500D02*
X2005913Y1587598D01*
X2002400Y1618000D02*
Y1618100D01*
X2002500*
G54D35*
X2002400Y1618000D03*
X2010000Y1614200D03*
Y1617500D03*
G54D40*
X2040513Y1610169D02*
Y1636131D01*
G75*
G03X2039831Y1636813I-682J0D01*
G01X1960169*
G03X1959487Y1636131I-0J-682*
G01Y1610169*
G03X1960169Y1609487I682J-0*
G01X1965057*
X1976187Y1598357D02*
G03X1965057Y1609487I-11130J0D01*
G01X1976187Y1598357D02*
Y1585554D01*
G03X1998554Y1563187I22367J-0*
G01X2002446*
G03X2024813Y1585554I0J22367*
G01Y1598357*
X2035943Y1609487D02*
G03X2024813Y1598357I-0J-11130D01*
G01X2035943Y1609487D02*
X2039831D01*
G03X2040513Y1610169I0J682*
G01X2004134Y1593005D02*
Y1593303D01*
G03X2003369Y1593727I-500J-0*
G01X1995147Y1597468D02*
G03X2003369Y1593727I5353J859D01*
G01X1995147Y1597468D02*
G03X1994160I-493J-80D01*
G01X1987808Y1592998D02*
G03X1994160Y1597468I999J5329D01*
G01X1987808Y1592998D02*
G03X1987449Y1592084I-92J-491D01*
G01X1989421Y1589890D02*
G03X1987449Y1592084I-4866J-2390D01*
G01X1989421Y1589890D02*
G03X1990319I449J220D01*
G01X2000051D02*
G03X1990319I-4866J-2390D01*
G01X2000051D02*
G03X2000949I449J220D01*
G01X2003818Y1592540D02*
G03X2000949Y1589890I1997J-5040D01*
G01X2003818Y1592540D02*
G03X2004134Y1593005I-184J465D01*
G01X2015446Y1582171D02*
G03Y1592829I999J5329D01*
G01Y1582171D02*
G03X2015087Y1581257I-92J-491D01*
G01X2013192Y1582002D02*
G03X2015087Y1581257I-999J-5329D01*
G01X2013192Y1582002D02*
G03X2013551Y1582916I92J491D01*
G01X2011579Y1585110D02*
G03X2013551Y1582916I4866J2390D01*
G01X2011579Y1585110D02*
G03X2010681I-449J-220D01*
G01X2000949D02*
G03X2010681I4866J2390D01*
G01X2000949D02*
G03X2000051I-449J-220D01*
G01X1990319D02*
G03X2000051I4866J2390D01*
G01X1990319D02*
G03X1989421I-449J-220D01*
G01X1985554Y1592829D02*
G03X1989421Y1585110I-999J-5329D01*
G01X1985554Y1592829D02*
G03X1985913Y1593743I92J491D01*
G01X1994160Y1599186D02*
G03X1985913Y1593743I-5353J-859D01*
G01X1994160Y1599186D02*
G03X1995147I494J79D01*
G01X2003369Y1602927D02*
G03X1995147Y1599186I-2869J-4600D01*
G01X2003369Y1602927D02*
G03X2004134Y1603351I265J424D01*
G01Y1613742*
G03X2003987Y1614096I-500J0*
G01X2002489Y1615595*
G03X2002183Y1615739I-354J-354*
G01X2004585Y1618621D02*
G03X2002183Y1615739I-2185J-621D01*
G01X2004585Y1618621D02*
G03X2004713Y1618404I481J137D01*
G01X2007172Y1615945*
X2007693Y1614687D02*
G03X2007172Y1615945I-1780J-0D01*
G01X2007693Y1614687D02*
Y1602693D01*
G03X2008531Y1602324I500J-0*
G01X2015087Y1593743D02*
G03X2008531Y1602324I-2894J4584D01*
G01X2015087Y1593743D02*
G03X2015446Y1592829I267J-423D01*
G01X1959487Y1636086D02*
X2040513D01*
X1959487Y1635186D02*
X2040513D01*
X1959487Y1634286D02*
X2040513D01*
X1959487Y1633386D02*
X2040513D01*
X1959487Y1632486D02*
X2040513D01*
X1959487Y1631586D02*
X2040513D01*
X1959487Y1630686D02*
X2040513D01*
X1959487Y1629786D02*
X2040513D01*
X1959487Y1628886D02*
X2040513D01*
X1959487Y1627986D02*
X2040513D01*
X1959487Y1627086D02*
X2040513D01*
X1959487Y1626186D02*
X2040513D01*
X1959487Y1625286D02*
X2040513D01*
X1959487Y1624386D02*
X2040513D01*
X1959487Y1623486D02*
X2040513D01*
X1959487Y1622586D02*
X2040513D01*
X1959487Y1621686D02*
X2040513D01*
X1959487Y1620786D02*
X2040513D01*
X2003666Y1619886D02*
X2040513D01*
X2004446Y1618986D02*
X2040513D01*
X2005031Y1618086D02*
X2040513D01*
X2005931Y1617186D02*
X2040513D01*
X2006831Y1616286D02*
X2040513D01*
X2007550Y1615386D02*
X2040513D01*
X2007693Y1614486D02*
X2040513D01*
X2007693Y1613586D02*
X2040513D01*
X2007693Y1612686D02*
X2040513D01*
X2007693Y1611786D02*
X2040513D01*
X2007693Y1610886D02*
X2040513D01*
X2007693Y1609986D02*
X2040488D01*
X2007693Y1609086D02*
X2032981D01*
X2007693Y1608186D02*
X2030720D01*
X2007693Y1607286D02*
X2029298D01*
X2007693Y1606386D02*
X2028234D01*
X2007693Y1605486D02*
X2027395D01*
X2007693Y1604586D02*
X2026719D01*
X2013010Y1603686D02*
X2026171D01*
X2015276Y1602786D02*
X2025732D01*
X2016282Y1601886D02*
X2025387D01*
X2016917Y1600986D02*
X2025127D01*
X2017321Y1600086D02*
X2024948D01*
X2017546Y1599186D02*
X2024843D01*
X2017614Y1598286D02*
X2024813D01*
X2017532Y1597386D02*
X2024813D01*
X2017292Y1596486D02*
X2024813D01*
X2016870Y1595586D02*
X2024813D01*
X2016210Y1594686D02*
X2024813D01*
X2015155Y1593786D02*
X2024813D01*
X2017061Y1592886D02*
X2024813D01*
X2019489Y1591986D02*
X2024813D01*
X2020511Y1591086D02*
X2024813D01*
X2021154Y1590186D02*
X2024813D01*
X2021563Y1589286D02*
X2024813D01*
X2021793Y1588386D02*
X2024813D01*
X2021866Y1587486D02*
X2024813D01*
X2021789Y1586586D02*
X2024813D01*
X2021554Y1585686D02*
X2024813D01*
X2021138Y1584786D02*
X2024799D01*
X2020486Y1583886D02*
X2024750D01*
X2019447Y1582986D02*
X2024665D01*
X2016728Y1582086D02*
X2024542D01*
X2015197Y1581186D02*
X2024382D01*
X2016235Y1580286D02*
X2024183D01*
X2016887Y1579386D02*
X2023945D01*
X2017302Y1578486D02*
X2023667D01*
X2017537Y1577586D02*
X2023345D01*
X2017614Y1576686D02*
X2022980D01*
X2017541Y1575786D02*
X2022567D01*
X2017311Y1574886D02*
X2022105D01*
X2016901Y1573986D02*
X2021589D01*
X2016258Y1573086D02*
X2021015D01*
X2015235Y1572186D02*
X2020378D01*
X2012801Y1571286D02*
X2019671D01*
X1982116Y1570386D02*
X2018884D01*
X1982995Y1569486D02*
X2018005D01*
X1983981Y1568586D02*
X2017019D01*
X2015062Y1582086D02*
X2016162D01*
X1985100Y1567686D02*
X2015900D01*
X2015106Y1592886D02*
X2015828D01*
X1986387Y1566786D02*
X2014613D01*
X2012495Y1582086D02*
X2013574D01*
X2008817Y1582986D02*
X2013442D01*
X1987903Y1565886D02*
X2013097D01*
X2009856Y1583886D02*
X2012404D01*
X2006098Y1582086D02*
X2011891D01*
X2010508Y1584786D02*
X2011752D01*
X1981329Y1571286D02*
X2011585D01*
X2007693Y1603686D02*
X2011376D01*
X1989766Y1564986D02*
X2011234D01*
X1976618Y1581186D02*
X2009189D01*
X1980622Y1572186D02*
X2009151D01*
X2007693Y1602786D02*
X2009110D01*
X1992277Y1564086D02*
X2008723D01*
X1976817Y1580286D02*
X2008151D01*
X1979985Y1573086D02*
X2008128D01*
X1977055Y1579386D02*
X2007499D01*
X1979411Y1573986D02*
X2007484D01*
X1977333Y1578486D02*
X2007084D01*
X1978895Y1574886D02*
X2007075D01*
X1977655Y1577586D02*
X2006849D01*
X1978433Y1575786D02*
X2006845D01*
X1978020Y1576686D02*
X2006772D01*
X1995468Y1582086D02*
X2005532D01*
X1959487Y1613586D02*
X2004134D01*
X1959487Y1612686D02*
X2004134D01*
X1959487Y1611786D02*
X2004134D01*
X1959487Y1610886D02*
X2004134D01*
X1959512Y1609986D02*
X2004134D01*
X1968019Y1609086D02*
X2004134D01*
X1970280Y1608186D02*
X2004134D01*
X1971702Y1607286D02*
X2004134D01*
X1972766Y1606386D02*
X2004134D01*
X1973605Y1605486D02*
X2004134D01*
X1974281Y1604586D02*
X2004134D01*
X2001317Y1603686D02*
X2004134D01*
X1959487Y1614486D02*
X2003597D01*
X1998188Y1582986D02*
X2002812D01*
X1959487Y1615386D02*
X2002697D01*
X1999226Y1583886D02*
X2001774D01*
X1959487Y1619886D02*
X2001134D01*
X1999878Y1584786D02*
X2001122D01*
X1959487Y1616286D02*
X2000909D01*
X1959487Y1618986D02*
X2000354D01*
X1959487Y1617186D02*
X2000279D01*
X1959487Y1618086D02*
X2000130D01*
X1989624Y1603686D02*
X1999683D01*
X1991890Y1602786D02*
X1997417D01*
X1992896Y1601886D02*
X1996411D01*
X1993531Y1600986D02*
X1995776D01*
X1993935Y1600086D02*
X1995372D01*
X1994160Y1599186D02*
X1995147D01*
X1984838Y1582086D02*
X1994902D01*
X1987558Y1582986D02*
X1992183D01*
X1988596Y1583886D02*
X1991144D01*
X1989248Y1584786D02*
X1990492D01*
X1974829Y1603686D02*
X1987990D01*
X1985172Y1592886D02*
X1985894D01*
X1976187Y1593786D02*
X1985845D01*
X1975268Y1602786D02*
X1985724D01*
X1976187Y1594686D02*
X1984790D01*
X1975613Y1601886D02*
X1984718D01*
X1976458Y1582086D02*
X1984272D01*
X1976187Y1595586D02*
X1984130D01*
X1975873Y1600986D02*
X1984083D01*
X1976187Y1592886D02*
X1983939D01*
X1976187Y1596486D02*
X1983708D01*
X1976052Y1600086D02*
X1983679D01*
X1976187Y1597386D02*
X1983468D01*
X1976157Y1599186D02*
X1983454D01*
X1976187Y1598286D02*
X1983386D01*
X1976335Y1582986D02*
X1981553D01*
X1976187Y1591986D02*
X1981511D01*
X1976250Y1583886D02*
X1980514D01*
X1976187Y1591086D02*
X1980489D01*
X1976201Y1584786D02*
X1979862D01*
X1976187Y1590186D02*
X1979846D01*
X1976187Y1585686D02*
X1979446D01*
X1976187Y1589286D02*
X1979437D01*
X1976187Y1586586D02*
X1979211D01*
X1976187Y1588386D02*
X1979207D01*
X1976187Y1587486D02*
X1979134D01*
X2002288Y1593209D02*
X2004134D01*
X1997688Y1592309D02*
X2003312D01*
X1998942Y1591409D02*
X2002058D01*
X1999695Y1590509D02*
X2001305D01*
X1990595Y1593209D02*
X1998712D01*
X1992213Y1594109D02*
X1997094D01*
X1993094Y1595009D02*
X1996213D01*
X1993659Y1595909D02*
X1995648D01*
X1994012Y1596809D02*
X1995296D01*
X1994270Y1597709D02*
X1995037D01*
X1987257Y1592309D02*
X1992682D01*
X1988312Y1591409D02*
X1991429D01*
X1989065Y1590509D02*
X1990675D01*
X1960169Y1638100D02*
G03X1958200Y1636131I-0J-1969D01*
G01Y1610169*
G03X1960169Y1608200I1969J-0*
G01X1965057*
X1974900Y1598357D02*
G03X1965057Y1608200I-9843J0D01*
G01X1974900Y1598357D02*
Y1585554D01*
G03X1998554Y1561900I23654J-0*
G01X2002446*
G03X2026100Y1585554I0J23654*
G01Y1598357*
X2035943Y1608200D02*
G03X2026100Y1598357I-0J-9843D01*
G01X2035943Y1608200D02*
X2039831D01*
G03X2041800Y1610169I0J1969*
G01Y1636131*
G03X2039831Y1638100I-1969J0*
G01X1960169*
G54D52*
G54D317*
X2012193Y1576673D03*
X2016445Y1587500D03*
X2012193Y1598327D03*
X2000500D03*
X2005815Y1587500D03*
X2000500Y1576673D03*
X1988807D03*
X1995185Y1587500D03*
X1988807Y1598327D03*
X1984555Y1587500D03*
G74*
X0Y0D02*
M02*
