*
*
G04 PADS 9.5 Build Number: 522968 generated Gerber (RS-274-X) file*
G04 PC Version=2.1*
*
%IN "DB10_CON_1V0.pcb"*%
*
%MOIN*%
*
%FSLAX35Y35*%
*
*
*
*
G04 PC Standard Apertures*
*
*
G04 Thermal Relief Aperture macro.*
%AMTER*
1,1,$1,0,0*
1,0,$1-$2,0,0*
21,0,$3,$4,0,0,45*
21,0,$3,$4,0,0,135*
%
*
*
G04 Annular Aperture macro.*
%AMANN*
1,1,$1,0,0*
1,0,$2,0,0*
%
*
*
G04 Odd Aperture macro.*
%AMODD*
1,1,$1,0,0*
1,0,$1-0.005,0,0*
%
*
*
G04 PC Custom Aperture Macros*
*
*
*
*
*
*
G04 PC Aperture Table*
*
%ADD031C,0.00787*%
%ADD032C,0.00984*%
%ADD035C,0.01969*%
%ADD040C,0.01*%
%ADD052C,0.001*%
%ADD317C,0.08268*%
%ADD319R,0.022X0.1*%
%ADD320R,0.09449X0.09449*%
*
*
*
*
G04 PC Circuitry*
G04 Layer Name DB10_CON_1V0.pcb - circuitry*
%LPD*%
*
*
G04 PC Custom Flashes*
G04 Layer Name DB10_CON_1V0.pcb - flashes*
%LPD*%
*
*
G04 PC Circuitry*
G04 Layer Name DB10_CON_1V0.pcb - circuitry*
%LPD*%
*
G54D31*
G01X2010332Y1634292D02*
X2011565Y1633060D01*
X2014353Y1634292D02*
X2013120Y1633060D01*
X2014353Y1622472D02*
X2013120Y1623704D01*
X2010332Y1622472D02*
X2011565Y1623704D01*
X2005332Y1634292D02*
X2006565Y1633060D01*
X2009353Y1634292D02*
X2008120Y1633060D01*
X2009353Y1622472D02*
X2008120Y1623704D01*
X2005332Y1622472D02*
X2006565Y1623704D01*
G54D32*
X2010000Y1617500D02*
Y1614200D01*
X1977343Y1628382D02*
Y1609600D01*
X1981500Y1605443*
Y1590555*
X1984555Y1587500*
X1987343Y1628382D02*
Y1610200D01*
X1994700Y1602843*
Y1587985*
X1995185Y1587500*
X1982343Y1628382D02*
Y1610200D01*
X1988807Y1603735*
Y1598327*
X1997343Y1628382D02*
Y1613177D01*
X2012193Y1598327*
X1992343Y1628382D02*
Y1611200D01*
X2000500Y1603043*
Y1598327*
X2002343Y1628382D02*
Y1618100D01*
X2002400Y1618000*
G54D35*
X2012193Y1576673D02*
X2016445Y1580925D01*
Y1587500*
X2019700Y1590755*
Y1616500*
X2010000Y1617500D02*
X2012343Y1619843D01*
Y1628382*
X2019700Y1616500D02*
X2022343Y1619143D01*
Y1628382*
X2007343D02*
Y1620157D01*
X2010000Y1617500*
X2017343Y1628382D02*
Y1618857D01*
X2019700Y1616500*
X2002400Y1618000D03*
X2010000Y1614200D03*
Y1617500D03*
G54D40*
X2040513Y1610169D02*
Y1636131D01*
G75*
G03X2039831Y1636813I-682J0D01*
G01X1960169*
G03X1959487Y1636131I-0J-682*
G01Y1610169*
G03X1960169Y1609487I682J-0*
G01X1961345*
G03X1961745Y1610287I0J500*
G01X1961488Y1611059D02*
G03X1961745Y1610287I1288J0D01*
G01X1961488Y1611059D02*
Y1620508D01*
X1962776Y1621795D02*
G03X1961488Y1620508I-0J-1287D01*
G01X1962776Y1621795D02*
X1972224D01*
X1973512Y1620508D02*
G03X1972224Y1621795I-1288J-0D01*
G01X1973512Y1620508D02*
Y1611059D01*
X1972224Y1609772D02*
G03X1973512Y1611059I0J1287D01*
G01X1972224Y1609772D02*
X1969075D01*
G03X1968902Y1608802I-0J-500*
G01X1976187Y1598357D02*
G03X1968902Y1608802I-11130J0D01*
G01X1976187Y1598357D02*
Y1585554D01*
G03X1998554Y1563187I22367J-0*
G01X2002446*
G03X2024813Y1585554I0J22367*
G01Y1598357*
X2032098Y1608802D02*
G03X2024813Y1598357I3845J-10445D01*
G01X2032098Y1608802D02*
G03X2031925Y1609772I-173J470D01*
G01X2027461*
X2026173Y1611059D02*
G03X2027461Y1609772I1288J0D01*
G01X2026173Y1611059D02*
Y1620508D01*
X2027461Y1621795D02*
G03X2026173Y1620508I-0J-1287D01*
G01X2027461Y1621795D02*
X2036909D01*
X2038197Y1620508D02*
G03X2036909Y1621795I-1288J-0D01*
G01X2038197Y1620508D02*
Y1611059D01*
X2037940Y1610287D02*
G03X2038197Y1611059I-1031J772D01*
G01X2037940Y1610287D02*
G03X2038340Y1609487I400J-300D01*
G01X2039831*
G03X2040513Y1610169I0J682*
G01X2017428Y1601882D02*
Y1615352D01*
G03X2017282Y1615705I-500J-0*
G01X2015736Y1617251*
X2015071Y1618857D02*
G03X2015736Y1617251I2272J0D01*
G01X2015071Y1618857D02*
Y1621996D01*
G03X2014255Y1622383I-500J-0*
G01X2013443Y1622094D02*
G03X2014255Y1622383I-0J1288D01*
G01X2013443Y1622094D02*
X2011243D01*
X2010234Y1622581D02*
G03X2011243Y1622094I1009J801D01*
G01X2010234Y1622581D02*
G03X2009451I-391J-310D01*
G01X2008443Y1622094D02*
G03X2009451Y1622581I-0J1288D01*
G01X2008443Y1622094D02*
X2006243D01*
X2005234Y1622581D02*
G03X2006243Y1622094I1009J801D01*
G01X2005234Y1622581D02*
G03X2004451I-391J-310D01*
G01X2004292Y1622415D02*
G03X2004451Y1622581I-849J967D01*
G01X2004292Y1622415D02*
G03X2004122Y1622039I330J-376D01*
G01Y1619657*
G03X2004221Y1619358I500J-0*
G01X2000485Y1619221D02*
G03X2004221Y1619358I1915J-1221D01*
G01X2000485Y1619221D02*
G03X2000563Y1619490I-422J269D01*
G01Y1622039*
G03X2000393Y1622415I-500J-0*
G01X2000234Y1622581D02*
G03X2000393Y1622415I1009J801D01*
G01X2000234Y1622581D02*
G03X1999451I-391J-310D01*
G01X1999292Y1622415D02*
G03X1999451Y1622581I-849J967D01*
G01X1999292Y1622415D02*
G03X1999122Y1622039I330J-376D01*
G01Y1614121*
G03X1999269Y1613768I500J0*
G01X2009587Y1603449*
G03X2010131Y1603341I354J354*
G01X2016528Y1601582D02*
G03X2010131Y1603341I-4335J-3255D01*
G01X2016528Y1601582D02*
G03X2017428Y1601882I400J300D01*
G01X2024730Y1633382D02*
Y1623382D01*
X2024647Y1622926D02*
G03X2024730Y1623382I-1204J456D01*
G01X2024647Y1622926D02*
G03X2024614Y1622749I467J-177D01*
G01Y1619143*
X2023949Y1617536D02*
G03X2024614Y1619143I-1606J1607D01*
G01X2023949Y1617536D02*
X2022118Y1615705D01*
G03X2021972Y1615352I354J-353*
G01Y1590755*
X2021648Y1589586D02*
G03X2021972Y1590755I-1948J1169D01*
G01X2021648Y1589586D02*
G03X2021601Y1589175I429J-257D01*
G01X2018983Y1582709D02*
G03X2021601Y1589175I-2538J4791D01*
G01X2018983Y1582709D02*
G03X2018717Y1582267I234J-442D01*
G01Y1580925*
X2018051Y1579319D02*
G03X2018717Y1580925I-1606J1606D01*
G01X2018051Y1579319D02*
X2017499Y1578767D01*
G03X2017375Y1578266I354J-354*
G01X2013192Y1582002D02*
G03X2017375Y1578266I-999J-5329D01*
G01X2013192Y1582002D02*
G03X2013551Y1582916I92J491D01*
G01X2011579Y1585110D02*
G03X2013551Y1582916I4866J2390D01*
G01X2011579Y1585110D02*
G03X2010681I-449J-220D01*
G01X2000949D02*
G03X2010681I4866J2390D01*
G01X2000949D02*
G03X2000051I-449J-220D01*
G01X1990319D02*
G03X2000051I4866J2390D01*
G01X1990319D02*
G03X1989421I-449J-220D01*
G01X1979705Y1589922D02*
G03X1989421Y1585110I4850J-2422D01*
G01X1979705Y1589922D02*
G03X1979749Y1590235I-447J223D01*
G01X1979720Y1590555D02*
G03X1979749Y1590235I1780J0D01*
G01X1979720Y1590555D02*
Y1604498D01*
G03X1979574Y1604852I-500J0*
G01X1976084Y1608342*
X1975563Y1609600D02*
G03X1976084Y1608342I1780J0D01*
G01X1975563Y1609600D02*
Y1622039D01*
G03X1975393Y1622415I-500J-0*
G01X1974955Y1623382D02*
G03X1975393Y1622415I1288J-0D01*
G01X1974955Y1623382D02*
Y1633382D01*
X1976243Y1634669D02*
G03X1974955Y1633382I-0J-1287D01*
G01X1976243Y1634669D02*
X1978443D01*
X1979451Y1634182D02*
G03X1978443Y1634669I-1008J-800D01*
G01X1979451Y1634182D02*
G03X1980234I392J311D01*
G01X1981243Y1634669D02*
G03X1980234Y1634182I-0J-1287D01*
G01X1981243Y1634669D02*
X1983443D01*
X1984451Y1634182D02*
G03X1983443Y1634669I-1008J-800D01*
G01X1984451Y1634182D02*
G03X1985234I392J311D01*
G01X1986243Y1634669D02*
G03X1985234Y1634182I-0J-1287D01*
G01X1986243Y1634669D02*
X1988443D01*
X1989451Y1634182D02*
G03X1988443Y1634669I-1008J-800D01*
G01X1989451Y1634182D02*
G03X1990234I392J311D01*
G01X1991243Y1634669D02*
G03X1990234Y1634182I-0J-1287D01*
G01X1991243Y1634669D02*
X1993443D01*
X1994451Y1634182D02*
G03X1993443Y1634669I-1008J-800D01*
G01X1994451Y1634182D02*
G03X1995234I392J311D01*
G01X1996243Y1634669D02*
G03X1995234Y1634182I-0J-1287D01*
G01X1996243Y1634669D02*
X1998443D01*
X1999451Y1634182D02*
G03X1998443Y1634669I-1008J-800D01*
G01X1999451Y1634182D02*
G03X2000234I392J311D01*
G01X2001243Y1634669D02*
G03X2000234Y1634182I-0J-1287D01*
G01X2001243Y1634669D02*
X2003443D01*
X2004451Y1634182D02*
G03X2003443Y1634669I-1008J-800D01*
G01X2004451Y1634182D02*
G03X2005234I392J311D01*
G01X2006243Y1634669D02*
G03X2005234Y1634182I-0J-1287D01*
G01X2006243Y1634669D02*
X2008443D01*
X2009451Y1634182D02*
G03X2008443Y1634669I-1008J-800D01*
G01X2009451Y1634182D02*
G03X2010234I392J311D01*
G01X2011243Y1634669D02*
G03X2010234Y1634182I-0J-1287D01*
G01X2011243Y1634669D02*
X2013443D01*
X2014451Y1634182D02*
G03X2013443Y1634669I-1008J-800D01*
G01X2014451Y1634182D02*
G03X2015234I392J311D01*
G01X2016243Y1634669D02*
G03X2015234Y1634182I-0J-1287D01*
G01X2016243Y1634669D02*
X2018443D01*
X2019451Y1634182D02*
G03X2018443Y1634669I-1008J-800D01*
G01X2019451Y1634182D02*
G03X2020234I392J311D01*
G01X2021243Y1634669D02*
G03X2020234Y1634182I-0J-1287D01*
G01X2021243Y1634669D02*
X2023443D01*
X2024730Y1633382D02*
G03X2023443Y1634669I-1287J-0D01*
G01X1959487Y1636086D02*
X2040513D01*
X1959487Y1635186D02*
X2040513D01*
X2024359Y1634286D02*
X2040513D01*
X2024730Y1633386D02*
X2040513D01*
X2024730Y1632486D02*
X2040513D01*
X2024730Y1631586D02*
X2040513D01*
X2024730Y1630686D02*
X2040513D01*
X2024730Y1629786D02*
X2040513D01*
X2024730Y1628886D02*
X2040513D01*
X2024730Y1627986D02*
X2040513D01*
X2024730Y1627086D02*
X2040513D01*
X2024730Y1626186D02*
X2040513D01*
X2024730Y1625286D02*
X2040513D01*
X2024730Y1624386D02*
X2040513D01*
X2024730Y1623486D02*
X2040513D01*
X2024614Y1622586D02*
X2040513D01*
X2037428Y1621686D02*
X2040513D01*
X2038166Y1620786D02*
X2040513D01*
X2038197Y1619886D02*
X2040513D01*
X2038197Y1618986D02*
X2040513D01*
X2038197Y1618086D02*
X2040513D01*
X2038197Y1617186D02*
X2040513D01*
X2038197Y1616286D02*
X2040513D01*
X2038197Y1615386D02*
X2040513D01*
X2038197Y1614486D02*
X2040513D01*
X2038197Y1613586D02*
X2040513D01*
X2038197Y1612686D02*
X2040513D01*
X2038197Y1611786D02*
X2040513D01*
X2038185Y1610886D02*
X2040513D01*
X2037840Y1609986D02*
X2040488D01*
X2021972Y1609086D02*
X2032390D01*
X2021972Y1608186D02*
X2030720D01*
X2021972Y1607286D02*
X2029298D01*
X2021972Y1606386D02*
X2028234D01*
X2021972Y1605486D02*
X2027395D01*
X2024614Y1621686D02*
X2026942D01*
X2021972Y1609986D02*
X2026749D01*
X2021972Y1604586D02*
X2026719D01*
X2024614Y1620786D02*
X2026204D01*
X2021972Y1610886D02*
X2026185D01*
X2024614Y1619886D02*
X2026173D01*
X2024609Y1618986D02*
X2026173D01*
X2024354Y1618086D02*
X2026173D01*
X2023599Y1617186D02*
X2026173D01*
X2022699Y1616286D02*
X2026173D01*
X2021973Y1615386D02*
X2026173D01*
X2021972Y1614486D02*
X2026173D01*
X2021972Y1613586D02*
X2026173D01*
X2021972Y1612686D02*
X2026173D01*
X2021972Y1611786D02*
X2026173D01*
X2021972Y1603686D02*
X2026171D01*
X2021972Y1602786D02*
X2025732D01*
X2021972Y1601886D02*
X2025387D01*
X2021972Y1600986D02*
X2025127D01*
X2021972Y1600086D02*
X2024948D01*
X2021972Y1599186D02*
X2024843D01*
X2021972Y1598286D02*
X2024813D01*
X2021972Y1597386D02*
X2024813D01*
X2021972Y1596486D02*
X2024813D01*
X2021972Y1595586D02*
X2024813D01*
X2021972Y1594686D02*
X2024813D01*
X2021972Y1593786D02*
X2024813D01*
X2021972Y1592886D02*
X2024813D01*
X2021972Y1591986D02*
X2024813D01*
X2021972Y1591086D02*
X2024813D01*
X2021899Y1590186D02*
X2024813D01*
X2021578Y1589286D02*
X2024813D01*
X2021793Y1588386D02*
X2024813D01*
X2021866Y1587486D02*
X2024813D01*
X2021789Y1586586D02*
X2024813D01*
X2021554Y1585686D02*
X2024813D01*
X2021138Y1584786D02*
X2024799D01*
X2020486Y1583886D02*
X2024750D01*
X2019447Y1582986D02*
X2024665D01*
X2018717Y1582086D02*
X2024542D01*
X2018717Y1581186D02*
X2024382D01*
X2018625Y1580286D02*
X2024183D01*
X2018116Y1579386D02*
X2023945D01*
X2017358Y1578486D02*
X2023667D01*
X2017537Y1577586D02*
X2023345D01*
X2017614Y1576686D02*
X2022980D01*
X2017541Y1575786D02*
X2022567D01*
X2017311Y1574886D02*
X2022105D01*
X2016901Y1573986D02*
X2021589D01*
X2016258Y1573086D02*
X2021015D01*
X2015235Y1572186D02*
X2020378D01*
X2019359Y1634286D02*
X2020326D01*
X2012801Y1571286D02*
X2019671D01*
X1982116Y1570386D02*
X2018884D01*
X1982995Y1569486D02*
X2018005D01*
X1983981Y1568586D02*
X2017019D01*
X1985100Y1567686D02*
X2015900D01*
X2014359Y1634286D02*
X2015326D01*
X1986387Y1566786D02*
X2014613D01*
X2012495Y1582086D02*
X2013574D01*
X2008817Y1582986D02*
X2013442D01*
X1987903Y1565886D02*
X2013097D01*
X2009856Y1583886D02*
X2012404D01*
X2006098Y1582086D02*
X2011891D01*
X2010508Y1584786D02*
X2011752D01*
X1981329Y1571286D02*
X2011585D01*
X1989766Y1564986D02*
X2011234D01*
X2009359Y1634286D02*
X2010326D01*
X1976618Y1581186D02*
X2009189D01*
X1980622Y1572186D02*
X2009151D01*
X1992277Y1564086D02*
X2008723D01*
X1976817Y1580286D02*
X2008151D01*
X1979985Y1573086D02*
X2008128D01*
X1977055Y1579386D02*
X2007499D01*
X1979411Y1573986D02*
X2007484D01*
X1977333Y1578486D02*
X2007084D01*
X1978895Y1574886D02*
X2007075D01*
X1977655Y1577586D02*
X2006849D01*
X1978433Y1575786D02*
X2006845D01*
X1978020Y1576686D02*
X2006772D01*
X1995468Y1582086D02*
X2005532D01*
X2004359Y1634286D02*
X2005326D01*
X1998188Y1582986D02*
X2002812D01*
X1999226Y1583886D02*
X2001774D01*
X1999878Y1584786D02*
X2001122D01*
X1999359Y1634286D02*
X2000326D01*
X1994359D02*
X1995326D01*
X1984838Y1582086D02*
X1994902D01*
X1987558Y1582986D02*
X1992183D01*
X1988596Y1583886D02*
X1991144D01*
X1989248Y1584786D02*
X1990492D01*
X1989359Y1634286D02*
X1990326D01*
X1984359D02*
X1985326D01*
X1976458Y1582086D02*
X1984272D01*
X1976335Y1582986D02*
X1981553D01*
X1976250Y1583886D02*
X1980514D01*
X1979359Y1634286D02*
X1980326D01*
X1976201Y1584786D02*
X1979862D01*
X1976187Y1590186D02*
X1979756D01*
X1974829Y1603686D02*
X1979720D01*
X1975268Y1602786D02*
X1979720D01*
X1975613Y1601886D02*
X1979720D01*
X1975873Y1600986D02*
X1979720D01*
X1976052Y1600086D02*
X1979720D01*
X1976157Y1599186D02*
X1979720D01*
X1976187Y1598286D02*
X1979720D01*
X1976187Y1597386D02*
X1979720D01*
X1976187Y1596486D02*
X1979720D01*
X1976187Y1595586D02*
X1979720D01*
X1976187Y1594686D02*
X1979720D01*
X1976187Y1593786D02*
X1979720D01*
X1976187Y1592886D02*
X1979720D01*
X1976187Y1591986D02*
X1979720D01*
X1976187Y1591086D02*
X1979720D01*
X1974281Y1604586D02*
X1979713D01*
X1976187Y1585686D02*
X1979446D01*
X1976187Y1589286D02*
X1979437D01*
X1976187Y1586586D02*
X1979211D01*
X1976187Y1588386D02*
X1979207D01*
X1976187Y1587486D02*
X1979134D01*
X1973605Y1605486D02*
X1978940D01*
X1972766Y1606386D02*
X1978040D01*
X1971702Y1607286D02*
X1977140D01*
X1970280Y1608186D02*
X1976240D01*
X1968610Y1609086D02*
X1975639D01*
X1972743Y1621686D02*
X1975563D01*
X1973481Y1620786D02*
X1975563D01*
X1973512Y1619886D02*
X1975563D01*
X1973512Y1618986D02*
X1975563D01*
X1973512Y1618086D02*
X1975563D01*
X1973512Y1617186D02*
X1975563D01*
X1973512Y1616286D02*
X1975563D01*
X1973512Y1615386D02*
X1975563D01*
X1973512Y1614486D02*
X1975563D01*
X1973512Y1613586D02*
X1975563D01*
X1973512Y1612686D02*
X1975563D01*
X1973512Y1611786D02*
X1975563D01*
X1973500Y1610886D02*
X1975563D01*
X1972936Y1609986D02*
X1975563D01*
X1959487Y1634286D02*
X1975326D01*
X1959487Y1622586D02*
X1975230D01*
X1959487Y1633386D02*
X1974955D01*
X1959487Y1632486D02*
X1974955D01*
X1959487Y1631586D02*
X1974955D01*
X1959487Y1630686D02*
X1974955D01*
X1959487Y1629786D02*
X1974955D01*
X1959487Y1628886D02*
X1974955D01*
X1959487Y1627986D02*
X1974955D01*
X1959487Y1627086D02*
X1974955D01*
X1959487Y1626186D02*
X1974955D01*
X1959487Y1625286D02*
X1974955D01*
X1959487Y1624386D02*
X1974955D01*
X1959487Y1623486D02*
X1974955D01*
X1959487Y1621686D02*
X1962257D01*
X1959512Y1609986D02*
X1961845D01*
X1959487Y1620786D02*
X1961519D01*
X1959487Y1610886D02*
X1961500D01*
X1959487Y1619886D02*
X1961488D01*
X1959487Y1618986D02*
X1961488D01*
X1959487Y1618086D02*
X1961488D01*
X1959487Y1617186D02*
X1961488D01*
X1959487Y1616286D02*
X1961488D01*
X1959487Y1615386D02*
X1961488D01*
X1959487Y1614486D02*
X1961488D01*
X1959487Y1613586D02*
X1961488D01*
X1959487Y1612686D02*
X1961488D01*
X1959487Y1611786D02*
X1961488D01*
X1999122Y1614880D02*
X2017428D01*
X1999142Y1613980D02*
X2017428D01*
X1999956Y1613080D02*
X2017428D01*
X2000856Y1612180D02*
X2017428D01*
X2001756Y1611280D02*
X2017428D01*
X2002656Y1610380D02*
X2017428D01*
X2003556Y1609480D02*
X2017428D01*
X2004456Y1608580D02*
X2017428D01*
X2005356Y1607680D02*
X2017428D01*
X2006256Y1606780D02*
X2017428D01*
X2007156Y1605880D02*
X2017428D01*
X2008056Y1604980D02*
X2017428D01*
X2008956Y1604080D02*
X2017428D01*
X2014608Y1603180D02*
X2017428D01*
X2015902Y1602280D02*
X2017428D01*
X2002884Y1615780D02*
X2017207D01*
X2004249Y1616680D02*
X2016307D01*
X2004633Y1617580D02*
X2015464D01*
X2004620Y1618480D02*
X2015102D01*
X2004122Y1621180D02*
X2015071D01*
X2004122Y1620280D02*
X2015071D01*
X2004205Y1619380D02*
X2015071D01*
X2004124Y1622080D02*
X2015064D01*
X1999122Y1615780D02*
X2001916D01*
X1999122Y1621180D02*
X2000563D01*
X1999122Y1620280D02*
X2000563D01*
X1999124Y1622080D02*
X2000561D01*
X1999122Y1616680D02*
X2000551D01*
X1999122Y1619380D02*
X2000551D01*
X1999122Y1618480D02*
X2000180D01*
X1999122Y1617580D02*
X2000167D01*
X1960169Y1638100D02*
G03X1958200Y1636131I-0J-1969D01*
G01Y1610169*
G03X1960169Y1608200I1969J-0*
G01X1965057*
X1974900Y1598357D02*
G03X1965057Y1608200I-9843J0D01*
G01X1974900Y1598357D02*
Y1585554D01*
G03X1998554Y1561900I23654J-0*
G01X2002446*
G03X2026100Y1585554I0J23654*
G01Y1598357*
X2035943Y1608200D02*
G03X2026100Y1598357I-0J-9843D01*
G01X2035943Y1608200D02*
X2039831D01*
G03X2041800Y1610169I0J1969*
G01Y1636131*
G03X2039831Y1638100I-1969J0*
G01X1960169*
G54D52*
G54D317*
X2012193Y1576673D03*
X2016445Y1587500D03*
X2012193Y1598327D03*
X2000500D03*
X2005815Y1587500D03*
X2000500Y1576673D03*
X1988807D03*
X1995185Y1587500D03*
X1988807Y1598327D03*
X1984555Y1587500D03*
G54D319*
X1977343Y1628382D03*
X1982343D03*
X1987343D03*
X1992343D03*
X1997343D03*
X2002343D03*
X2007343D03*
X2012343D03*
X2017343D03*
X2022343D03*
G54D320*
X2032185Y1615783D03*
X1967500D03*
G74*
X0Y0D02*
M02*
